%TF.GenerationSoftware,Altium Limited,Altium Designer,23.1.1 (15)*%
G04 Layer_Color=16711935*
%FSLAX42Y42*%
%MOMM*%
%TF.SameCoordinates,B28E977E-5D45-45F3-9009-D632A0DEB075*%
%TF.FilePolarity,Positive*%
%TF.FileFunction,Other,Mechanical_1*%
%TF.Part,Single*%
G01*
G75*
%TA.AperFunction,NonConductor*%
%ADD34C,0.00*%
D34*
X4800Y187D02*
Y4800D01*
X2527D02*
X4800D01*
X2527D02*
X3047Y4119D01*
X3047Y4119D02*
X3047Y4119D01*
X3047Y4119D02*
X3052Y4112D01*
X3060Y4098D01*
X3065Y4082D01*
X3068Y4066D01*
Y4058D02*
Y4066D01*
Y4042D02*
Y4058D01*
X3058Y4012D02*
X3068Y4042D01*
X3040Y3987D02*
X3058Y4012D01*
X3015Y3968D02*
X3040Y3987D01*
X2985Y3958D02*
X3015Y3968D01*
X2954Y3958D02*
X2985Y3958D01*
X2924Y3967D02*
X2954Y3958D01*
X2898Y3985D02*
X2924Y3967D01*
X2889Y3997D02*
X2898Y3985D01*
X2400Y4636D02*
X2889Y3997D01*
X1912D02*
X2400Y4636D01*
X1912Y3997D02*
X1912D01*
X1904Y3987D02*
X1912Y3997D01*
X1883Y3971D02*
X1904Y3987D01*
X1859Y3961D02*
X1883Y3971D01*
X1833Y3957D02*
X1859Y3961D01*
X1807Y3961D02*
X1833Y3957D01*
X1782Y3971D02*
X1807Y3961D01*
X1761Y3987D02*
X1782Y3971D01*
X1745Y4007D02*
X1761Y3987D01*
X1735Y4032D02*
X1745Y4007D01*
X1732Y4058D02*
X1735Y4032D01*
X1732Y4058D02*
X1735Y4084D01*
X1745Y4108D01*
X1753Y4119D01*
X2274Y4800D01*
X400D02*
X2274D01*
X400Y3300D02*
Y4800D01*
X0Y3300D02*
X400D01*
X0Y163D02*
Y3300D01*
Y163D02*
X1216Y1813D01*
X800D02*
X1216D01*
X773Y1820D02*
X800Y1813D01*
X750Y1834D02*
X773Y1820D01*
X731Y1854D02*
X750Y1834D01*
X718Y1878D02*
X731Y1854D01*
X713Y1904D02*
X718Y1878D01*
X713Y1904D02*
X714Y1931D01*
X722Y1957D01*
X730Y1969D01*
X1419Y3003D01*
X1092D02*
X1419D01*
X1066Y3011D02*
X1092Y3003D01*
X1042Y3025D02*
X1066Y3011D01*
X1023Y3046D02*
X1042Y3025D01*
X1011Y3071D02*
X1023Y3046D01*
X1005Y3099D02*
X1011Y3071D01*
X1005Y3099D02*
X1008Y3126D01*
X1018Y3152D01*
X1027Y3164D01*
X1451Y3721D01*
Y3721D02*
Y3721D01*
Y3721D02*
X1460Y3734D01*
X1486Y3752D01*
X1516Y3761D01*
X1547Y3760D01*
X1577Y3750D01*
X1602Y3732D01*
X1621Y3706D01*
X1630Y3676D01*
Y3661D02*
Y3676D01*
Y3652D02*
Y3661D01*
X1628Y3636D02*
X1630Y3652D01*
X1623Y3621D02*
X1628Y3636D01*
X1615Y3606D02*
X1623Y3621D01*
X1610Y3600D02*
X1615Y3606D01*
X1308Y3203D02*
X1610Y3600D01*
X1308Y3203D02*
X1616D01*
X1636Y3199D01*
X1654Y3192D01*
X1670Y3181D01*
X1684Y3167D01*
X1695Y3150D01*
X1703Y3132D01*
X1706Y3113D01*
Y3103D02*
Y3113D01*
Y3096D02*
Y3103D01*
X1704Y3081D02*
X1706Y3096D01*
X1700Y3067D02*
X1704Y3081D01*
X1694Y3054D02*
X1700Y3067D01*
X1690Y3047D02*
X1694Y3054D01*
X1000Y2013D02*
X1690Y3047D01*
X1000Y2013D02*
X1424D01*
X1443Y2009D01*
X1461Y2002D01*
X1478Y1991D01*
X1492Y1977D01*
X1502Y1960D01*
X1510Y1942D01*
X1514Y1923D01*
Y1913D02*
Y1923D01*
Y1905D02*
Y1913D01*
X1511Y1889D02*
X1514Y1905D01*
X1506Y1874D02*
X1511Y1889D01*
X1499Y1860D02*
X1506Y1874D01*
X1494Y1854D02*
X1499Y1860D01*
X128Y0D02*
X1494Y1854D01*
X128Y0D02*
X4689D01*
X3316Y1864D02*
X4689Y0D01*
X3311Y1870D02*
X3316Y1864D01*
X3304Y1884D02*
X3311Y1870D01*
X3299Y1899D02*
X3304Y1884D01*
X3296Y1915D02*
X3299Y1899D01*
X3296Y1915D02*
Y1923D01*
Y1933D01*
X3300Y1952D01*
X3308Y1970D01*
X3318Y1987D01*
X3332Y2001D01*
X3349Y2012D01*
X3367Y2019D01*
X3386Y2023D01*
X3810D01*
X3120Y3057D02*
X3810Y2023D01*
X3116Y3064D02*
X3120Y3057D01*
X3110Y3077D02*
X3116Y3064D01*
X3106Y3091D02*
X3110Y3077D01*
X3104Y3106D02*
X3106Y3091D01*
X3104Y3106D02*
Y3113D01*
Y3123D01*
X3107Y3142D01*
X3115Y3160D01*
X3126Y3177D01*
X3140Y3191D01*
X3156Y3202D01*
X3174Y3209D01*
X3194Y3213D01*
X3502D01*
X3200Y3610D02*
X3502Y3213D01*
X3195Y3616D02*
X3200Y3610D01*
X3187Y3631D02*
X3195Y3616D01*
X3182Y3646D02*
X3187Y3631D01*
X3180Y3662D02*
X3182Y3646D01*
X3180Y3662D02*
Y3671D01*
Y3686D01*
X3189Y3716D01*
X3208Y3742D01*
X3233Y3760D01*
X3263Y3770D01*
X3294Y3771D01*
X3324Y3762D01*
X3350Y3744D01*
X3359Y3731D01*
X3359Y3731D01*
X3783Y3174D01*
X3792Y3162D01*
X3802Y3136D01*
X3805Y3109D01*
X3799Y3081D02*
X3805Y3109D01*
X3787Y3056D02*
X3799Y3081D01*
X3768Y3035D02*
X3787Y3056D01*
X3744Y3021D02*
X3768Y3035D01*
X3718Y3013D02*
X3744Y3021D01*
X3391Y3013D02*
X3718D01*
X3391D02*
X4080Y1979D01*
X4088Y1967D01*
X4096Y1941D01*
X4097Y1914D01*
X4092Y1888D02*
X4097Y1914D01*
X4079Y1864D02*
X4092Y1888D01*
X4060Y1844D02*
X4079Y1864D01*
X4037Y1830D02*
X4060Y1844D01*
X4010Y1823D02*
X4037Y1830D01*
X3594Y1823D02*
X4010D01*
X3594D02*
X4800Y187D01*
%TF.MD5,03f7dd059fe9f421873474be258ca562*%
M02*
