G04*
G04 #@! TF.GenerationSoftware,Altium Limited,Altium Designer,23.1.1 (15)*
G04*
G04 Layer_Color=8388736*
%FSLAX23Y23*%
%MOIN*%
G70*
G04*
G04 #@! TF.SameCoordinates,7DB063E5-64DA-4751-B351-23BD0CB7D004*
G04*
G04*
G04 #@! TF.FilePolarity,Negative*
G04*
G01*
G75*
G04:AMPARAMS|DCode=14|XSize=28mil|YSize=59mil|CornerRadius=0mil|HoleSize=0mil|Usage=FLASHONLY|Rotation=233.000|XOffset=0mil|YOffset=0mil|HoleType=Round|Shape=Rectangle|*
%AMROTATEDRECTD14*
4,1,4,-0.015,0.029,0.032,-0.007,0.015,-0.029,-0.032,0.007,-0.015,0.029,0.0*
%
%ADD14ROTATEDRECTD14*%

G04:AMPARAMS|DCode=15|XSize=39mil|YSize=31mil|CornerRadius=0mil|HoleSize=0mil|Usage=FLASHONLY|Rotation=233.000|XOffset=0mil|YOffset=0mil|HoleType=Round|Shape=Rectangle|*
%AMROTATEDRECTD15*
4,1,4,-0.001,0.025,0.024,0.006,0.001,-0.025,-0.024,-0.006,-0.001,0.025,0.0*
%
%ADD15ROTATEDRECTD15*%

%ADD16R,0.038X0.037*%
%ADD18P,0.067X4X360.0*%
%ADD19P,0.067X4X90.0*%
%ADD20R,0.037X0.038*%
%ADD21R,0.164X0.164*%
%ADD22R,0.087X0.165*%
%ADD23C,0.101*%
%ADD24R,0.101X0.101*%
%ADD25C,0.035*%
%ADD26C,0.028*%
%ADD27C,0.058*%
D14*
X356Y124D02*
D03*
X321Y77D02*
D03*
X427Y218D02*
D03*
D15*
X436Y281D02*
D03*
X263Y51D02*
D03*
X375Y327D02*
D03*
X202Y97D02*
D03*
D16*
X1722Y747D02*
D03*
Y690D02*
D03*
X1083Y1347D02*
D03*
Y1291D02*
D03*
X718Y861D02*
D03*
Y805D02*
D03*
X305Y1173D02*
D03*
Y1229D02*
D03*
X1378Y1780D02*
D03*
Y1724D02*
D03*
D18*
X1279Y1713D02*
D03*
X1220Y1772D02*
D03*
Y1339D02*
D03*
X1162Y1397D02*
D03*
X1683Y89D02*
D03*
X1624Y147D02*
D03*
X1673Y552D02*
D03*
X1614Y610D02*
D03*
D19*
X600Y935D02*
D03*
X542Y876D02*
D03*
X335Y1014D02*
D03*
X393Y1073D02*
D03*
D20*
X1505Y138D02*
D03*
X1448D02*
D03*
D21*
X945Y236D02*
D03*
D22*
X1004Y807D02*
D03*
Y1007D02*
D03*
X886Y807D02*
D03*
Y1007D02*
D03*
X1831Y1086D02*
D03*
Y886D02*
D03*
X59Y902D02*
D03*
Y1102D02*
D03*
D23*
X685Y236D02*
D03*
D24*
X1205D02*
D03*
D25*
X354D02*
D03*
X283Y142D02*
D03*
D26*
X1294Y1495D02*
D03*
X1276Y1519D02*
D03*
X1257Y1542D02*
D03*
X1240Y1565D02*
D03*
X1223Y1588D02*
D03*
X721Y1545D02*
D03*
X703Y1522D02*
D03*
X686Y1499D02*
D03*
X669Y1476D02*
D03*
X650Y1454D02*
D03*
X1169Y1538D02*
D03*
X1187Y1515D02*
D03*
X1204Y1492D02*
D03*
X1221Y1469D02*
D03*
X1240Y1447D02*
D03*
X598Y1492D02*
D03*
X616Y1516D02*
D03*
X635Y1539D02*
D03*
X652Y1562D02*
D03*
X669Y1585D02*
D03*
D27*
X1112Y679D02*
D03*
Y1132D02*
D03*
X778Y679D02*
D03*
Y1122D02*
D03*
X236Y1447D02*
D03*
X69Y719D02*
D03*
X1831Y502D02*
D03*
X1811Y1250D02*
D03*
M02*
