G04*
G04 #@! TF.GenerationSoftware,Altium Limited,Altium Designer,23.1.1 (15)*
G04*
G04 Layer_Color=16711935*
%FSLAX23Y23*%
%MOIN*%
G70*
G04*
G04 #@! TF.SameCoordinates,7DB063E5-64DA-4751-B351-23BD0CB7D004*
G04*
G04*
G04 #@! TF.FilePolarity,Negative*
G04*
G01*
G75*
%ADD16R,0.038X0.037*%
%ADD18P,0.067X4X360.0*%
%ADD19P,0.067X4X90.0*%
%ADD20R,0.037X0.038*%
%ADD22R,0.087X0.165*%
%ADD23C,0.101*%
%ADD24R,0.101X0.101*%
%ADD25C,0.035*%
%ADD26C,0.028*%
%ADD27C,0.058*%
D16*
X98Y551D02*
D03*
Y495D02*
D03*
X1181Y1012D02*
D03*
Y956D02*
D03*
X787Y1271D02*
D03*
Y1327D02*
D03*
D18*
X1526Y1092D02*
D03*
X1584Y1034D02*
D03*
X1290Y935D02*
D03*
X1348Y876D02*
D03*
D19*
X433Y335D02*
D03*
X492Y393D02*
D03*
X99Y355D02*
D03*
X157Y413D02*
D03*
X669Y1732D02*
D03*
X611Y1674D02*
D03*
X679Y1349D02*
D03*
X738Y1407D02*
D03*
D20*
X609Y502D02*
D03*
X553D02*
D03*
X484Y1781D02*
D03*
X540D02*
D03*
X1682Y1161D02*
D03*
X1625D02*
D03*
D22*
X59Y1106D02*
D03*
Y906D02*
D03*
X1831Y1086D02*
D03*
Y886D02*
D03*
X886Y804D02*
D03*
Y1004D02*
D03*
X1004Y807D02*
D03*
Y1007D02*
D03*
D23*
X685Y236D02*
D03*
D24*
X1205D02*
D03*
D25*
X354D02*
D03*
X283Y142D02*
D03*
D26*
X1294Y1495D02*
D03*
X1276Y1519D02*
D03*
X1257Y1542D02*
D03*
X1240Y1565D02*
D03*
X1223Y1588D02*
D03*
X721Y1545D02*
D03*
X703Y1522D02*
D03*
X686Y1499D02*
D03*
X669Y1476D02*
D03*
X650Y1454D02*
D03*
X1169Y1538D02*
D03*
X1187Y1515D02*
D03*
X1204Y1492D02*
D03*
X1221Y1469D02*
D03*
X1240Y1447D02*
D03*
X598Y1492D02*
D03*
X616Y1516D02*
D03*
X635Y1539D02*
D03*
X652Y1562D02*
D03*
X669Y1585D02*
D03*
D27*
X1112Y679D02*
D03*
Y1132D02*
D03*
X778Y679D02*
D03*
Y1122D02*
D03*
X236Y1447D02*
D03*
X69Y719D02*
D03*
X1831Y502D02*
D03*
X1811Y1250D02*
D03*
M02*
