G04*
G04 #@! TF.GenerationSoftware,Altium Limited,Altium Designer,23.1.1 (15)*
G04*
G04 Layer_Color=32768*
%FSLAX23Y23*%
%MOIN*%
G70*
G04*
G04 #@! TF.SameCoordinates,7DB063E5-64DA-4751-B351-23BD0CB7D004*
G04*
G04*
G04 #@! TF.FilePolarity,Positive*
G04*
G01*
G75*
%ADD11C,0.000*%
D11*
X452Y316D02*
X511Y375D01*
X473Y412D02*
X511Y375D01*
X415Y354D02*
X473Y412D01*
X415Y354D02*
X452Y316D01*
X550Y519D02*
X611D01*
X550Y485D02*
Y519D01*
Y485D02*
X611D01*
Y519D01*
X118Y336D02*
X176Y395D01*
X650Y1751D02*
X688Y1713D01*
X629Y1655D02*
X688Y1713D01*
X592Y1692D02*
X629Y1655D01*
X592Y1692D02*
X650Y1751D01*
X1507Y1073D02*
X1545Y1111D01*
X1603Y1053D01*
X1566Y1015D02*
X1603Y1053D01*
X1507Y1073D02*
X1566Y1015D01*
X82Y554D02*
X115D01*
Y493D02*
Y554D01*
X82Y493D02*
X115D01*
X82D02*
Y554D01*
X481Y1765D02*
Y1798D01*
X542D01*
Y1765D02*
Y1798D01*
X481Y1765D02*
X542D01*
X1684Y1145D02*
Y1178D01*
X1623Y1145D02*
X1684D01*
X1623D02*
Y1178D01*
X1684D01*
X1271Y916D02*
X1308Y954D01*
X1367Y895D01*
X1329Y857D02*
X1367Y895D01*
X1271Y916D02*
X1329Y857D01*
X661Y1368D02*
X698Y1330D01*
X661Y1368D02*
X719Y1426D01*
X757Y1388D01*
X698Y1330D02*
X757Y1388D01*
X1164Y1015D02*
X1198D01*
Y954D02*
Y1015D01*
X1164Y954D02*
X1198D01*
X1164D02*
Y1015D01*
X771Y1269D02*
X804D01*
X771D02*
Y1330D01*
X804D01*
Y1269D02*
Y1330D01*
X80Y374D02*
X118Y336D01*
X80Y374D02*
X139Y432D01*
X176Y395D01*
M02*
