M48
;Layer_Color=9474304
;FILE_FORMAT=2:4
INCH,TZ
T5F00S00C0.2000
%
G90
G05
T05
G00X19096Y-980
M15
G01X19287Y-921
G01X19462Y-825
G01X19615Y-696
G01X19739Y-540
G01X19830Y-362
G01X19883Y-169
G01X19898Y0
G01X19898Y18898
G01X19878Y19096
G01X19819Y19287
G01X19723Y19462
G01X19594Y19615
G01X19438Y19739
G01X19260Y19830
G01X19067Y19883
G01X18898Y19898
G01X0Y19898
G01X-199Y19878
G01X-390Y19819
G01X-565Y19723
G01X-718Y19594
G01X-842Y19438
G01X-932Y19260
G01X-986Y19067
G01X-1000Y18898
G01X-1000Y0
G01X-980Y-199
G01X-921Y-390
G01X-825Y-565
G01X-696Y-718
G01X-540Y-842
G01X-362Y-932
G01X-169Y-986
G01X0Y-1000
G01X18898Y-1000
G01X19096Y-980
M16
M17
M30
