G04*
G04 #@! TF.GenerationSoftware,Altium Limited,Altium Designer,23.1.1 (15)*
G04*
G04 Layer_Color=32896*
%FSLAX23Y23*%
%MOIN*%
G70*
G04*
G04 #@! TF.SameCoordinates,7DB063E5-64DA-4751-B351-23BD0CB7D004*
G04*
G04*
G04 #@! TF.FilePolarity,Positive*
G04*
G01*
G75*
%ADD10C,0.010*%
%ADD11C,0.000*%
%ADD12C,0.039*%
D10*
X406Y302D02*
G03*
X406Y302I-5J0D01*
G01*
X71Y322D02*
G03*
X71Y322I-5J0D01*
G01*
X707Y1765D02*
G03*
X707Y1765I-5J0D01*
G01*
X1498Y1125D02*
G03*
X1498Y1125I-5J0D01*
G01*
X652Y1316D02*
G03*
X652Y1316I-5J0D01*
G01*
X1262Y967D02*
G03*
X1262Y967I-5J0D01*
G01*
D11*
X461Y308D02*
X519Y366D01*
X406Y362D02*
X465Y421D01*
X551Y537D02*
X610D01*
X551Y465D02*
X610D01*
X0Y1299D02*
X157D01*
X1624Y1197D02*
X1683D01*
X1317Y962D02*
X1375Y903D01*
X1263Y908D02*
X1321Y849D01*
X652Y1376D02*
X711Y1434D01*
X707Y1322D02*
X765Y1380D01*
X964Y707D02*
X1064D01*
Y1107D01*
X964D02*
X1064D01*
X826Y704D02*
X926D01*
X826D02*
Y1104D01*
X926D01*
X1219Y955D02*
Y1014D01*
X1146Y955D02*
Y1014D01*
X750Y1270D02*
Y1329D01*
X823Y1270D02*
Y1329D01*
X72Y382D02*
X130Y441D01*
X126Y328D02*
X185Y386D01*
X638Y1646D02*
X696Y1705D01*
X583Y1701D02*
X642Y1759D01*
X1553Y1119D02*
X1611Y1061D01*
X1499Y1065D02*
X1557Y1007D01*
X19Y1206D02*
X119D01*
Y806D02*
Y1206D01*
X19Y806D02*
X119D01*
X1771Y1186D02*
X1871D01*
X1771Y786D02*
Y1186D01*
Y786D02*
X1871D01*
X136Y493D02*
Y553D01*
X63Y493D02*
Y553D01*
X482Y1819D02*
X541D01*
X482Y1746D02*
X541D01*
X1624Y1124D02*
X1683D01*
X47Y6D02*
X1841Y0D01*
X1890Y1890D02*
X1891Y75D01*
X1004Y1890D02*
X1890D01*
X157Y1299D02*
Y1890D01*
D12*
X945Y1829D02*
X1146Y1569D01*
X750Y1574D02*
X945Y1829D01*
X515Y1265D02*
X635Y1423D01*
X1260Y1421D02*
X1379Y1269D01*
X1309Y732D02*
X1841Y4D01*
X1229Y1208D02*
X1500Y800D01*
X394Y796D02*
X665Y1204D01*
X49Y4D02*
X581Y722D01*
X1191Y1264D02*
X1379Y1269D01*
X1191Y1264D02*
X1227Y1210D01*
X515Y1265D02*
X699Y1264D01*
X665Y1204D02*
X699Y1264D01*
X394Y796D02*
X626Y795D01*
X581Y722D02*
X634Y795D01*
X1268Y787D02*
X1315Y724D01*
X1256Y803D02*
X1268Y787D01*
X1256Y803D02*
X1500Y800D01*
X49Y4D02*
X1841D01*
X1299Y773D02*
X1318Y796D01*
X582Y788D02*
X606Y768D01*
X404Y1249D02*
X894Y1894D01*
X287Y779D02*
X559Y1186D01*
X0Y67D02*
X479Y718D01*
X0Y67D02*
Y1303D01*
X157D01*
Y1894D01*
X894D01*
X996D02*
X1890D01*
Y83D02*
Y1894D01*
X1415Y722D02*
X1890Y83D01*
X1415Y722D02*
X1555Y720D01*
X1335Y1190D02*
X1594Y803D01*
X1323Y1473D02*
X1489Y1253D01*
X996Y1894D02*
X1203Y1620D01*
X1335Y1190D02*
X1535Y1193D01*
X1489Y1253D02*
X1535Y1193D01*
X1491Y1207D02*
X1512Y1223D01*
X1594Y803D02*
X1642Y724D01*
X1543Y720D02*
X1646Y717D01*
X1543Y720D02*
X1608Y742D01*
X366Y1197D02*
X403Y1247D01*
X358Y1181D02*
X559Y1186D01*
X390Y1209D02*
X406Y1185D01*
X252Y724D02*
X284Y774D01*
X244Y713D02*
X479Y718D01*
X300Y723D02*
X479Y718D01*
X276Y740D02*
X287Y720D01*
M02*
