%TF.GenerationSoftware,Altium Limited,Altium Designer,23.1.1 (15)*%
G04 Layer_Color=128*
%FSLAX42Y42*%
%MOMM*%
%TF.SameCoordinates,B28E977E-5D45-45F3-9009-D632A0DEB075*%
%TF.FilePolarity,Positive*%
%TF.FileFunction,Drillmap*%
%TF.Part,Single*%
G01*
G75*
%TA.AperFunction,NonConductor*%
%ADD42C,0.13*%
D42*
X1647Y600D02*
X1832D01*
X1740Y507D02*
Y693D01*
X2968Y600D02*
X3153D01*
X3060Y507D02*
Y693D01*
X855Y600D02*
X945D01*
X900Y555D02*
Y645D01*
X674Y360D02*
X764D01*
X719Y315D02*
Y405D01*
X3270Y3797D02*
X3305D01*
X3287Y3780D02*
Y3815D01*
X3224Y3858D02*
X3259D01*
X3241Y3841D02*
Y3876D01*
X3176Y3917D02*
X3211D01*
X3193Y3899D02*
Y3934D01*
X3133Y3975D02*
X3167D01*
X3150Y3958D02*
Y3992D01*
X3089Y4033D02*
X3124D01*
X3107Y4016D02*
Y4051D01*
X1815Y3925D02*
X1850D01*
X1832Y3908D02*
Y3943D01*
X1769Y3867D02*
X1804D01*
X1786Y3849D02*
Y3884D01*
X1726Y3808D02*
X1761D01*
X1743Y3791D02*
Y3826D01*
X1683Y3750D02*
X1717D01*
X1700Y3733D02*
Y3767D01*
X1634Y3694D02*
X1669D01*
X1652Y3677D02*
Y3712D01*
X2789Y1725D02*
X2861D01*
X2825Y1689D02*
Y1761D01*
X2789Y2875D02*
X2861D01*
X2825Y2839D02*
Y2911D01*
X1939Y1725D02*
X2011D01*
X1975Y1689D02*
Y1761D01*
X1939Y2850D02*
X2011D01*
X1975Y2814D02*
Y2886D01*
X564Y3675D02*
X636D01*
X600Y3639D02*
Y3711D01*
X139Y1825D02*
X211D01*
X175Y1789D02*
Y1861D01*
X4614Y1275D02*
X4686D01*
X4650Y1239D02*
Y1311D01*
X4564Y3175D02*
X4636D01*
X4600Y3139D02*
Y3211D01*
X2952Y3906D02*
X2987D01*
X2970Y3889D02*
Y3924D01*
X2998Y3848D02*
X3033D01*
X3015Y3830D02*
Y3865D01*
X3041Y3789D02*
X3076D01*
X3059Y3772D02*
Y3807D01*
X3084Y3731D02*
X3119D01*
X3102Y3713D02*
Y3748D01*
X3133Y3675D02*
X3167D01*
X3150Y3658D02*
Y3692D01*
X1502Y3789D02*
X1537D01*
X1520Y3771D02*
Y3806D01*
X1548Y3850D02*
X1583D01*
X1565Y3832D02*
Y3867D01*
X1596Y3908D02*
X1631D01*
X1614Y3891D02*
Y3926D01*
X1639Y3967D02*
X1674D01*
X1657Y3949D02*
Y3984D01*
X1683Y4025D02*
X1717D01*
X1700Y4008D02*
Y4042D01*
%TF.MD5,c91b0e67167f8e5a8572c7a8e1da2d6a*%
M02*
