%TF.GenerationSoftware,Altium Limited,Altium Designer,23.1.1 (15)*%
G04 Layer_Color=16711935*
%FSLAX42Y42*%
%MOMM*%
%TF.SameCoordinates,B28E977E-5D45-45F3-9009-D632A0DEB075*%
%TF.FilePolarity,Negative*%
%TF.FileFunction,Soldermask,Bot*%
%TF.Part,Single*%
G01*
G75*
%TA.AperFunction,SMDPad,CuDef*%
%ADD13R,0.96X0.94*%
%ADD15P,1.70X4X360.0*%
%ADD16P,1.70X4X90.0*%
%ADD17R,0.94X0.96*%
%TA.AperFunction,ComponentPad*%
%ADD22C,0.90*%
%TA.AperFunction,SMDPad,CuDef*%
%ADD29R,2.20X4.20*%
%TA.AperFunction,ComponentPad*%
%ADD30C,2.55*%
%ADD31R,2.55X2.55*%
%TA.AperFunction,ViaPad*%
%ADD32C,0.70*%
%ADD33C,1.47*%
D13*
X250Y1400D02*
D03*
Y1257D02*
D03*
X3000Y2572D02*
D03*
Y2428D02*
D03*
X2000Y3228D02*
D03*
Y3372D02*
D03*
D15*
X3876Y2774D02*
D03*
X4024Y2626D02*
D03*
X3276Y2374D02*
D03*
X3424Y2226D02*
D03*
D16*
X1101Y851D02*
D03*
X1249Y999D02*
D03*
X252Y902D02*
D03*
X400Y1050D02*
D03*
X1699Y4399D02*
D03*
X1551Y4251D02*
D03*
X1726Y3426D02*
D03*
X1874Y3574D02*
D03*
D17*
X1547Y1275D02*
D03*
X1403D02*
D03*
X1228Y4525D02*
D03*
X1372D02*
D03*
X4272Y2950D02*
D03*
X4128D02*
D03*
D22*
X900Y600D02*
D03*
X719Y360D02*
D03*
D29*
X150Y2808D02*
D03*
Y2300D02*
D03*
X4650Y2758D02*
D03*
Y2250D02*
D03*
X2250Y2042D02*
D03*
Y2550D02*
D03*
X2550Y2050D02*
D03*
Y2558D02*
D03*
D30*
X1740Y600D02*
D03*
D31*
X3060D02*
D03*
D32*
X3287Y3797D02*
D03*
X3241Y3858D02*
D03*
X3193Y3917D02*
D03*
X3150Y3975D02*
D03*
X3107Y4033D02*
D03*
X1832Y3925D02*
D03*
X1786Y3867D02*
D03*
X1743Y3808D02*
D03*
X1700Y3750D02*
D03*
X1652Y3694D02*
D03*
X2970Y3906D02*
D03*
X3015Y3848D02*
D03*
X3059Y3789D02*
D03*
X3102Y3731D02*
D03*
X3150Y3675D02*
D03*
X1520Y3789D02*
D03*
X1565Y3850D02*
D03*
X1614Y3908D02*
D03*
X1657Y3967D02*
D03*
X1700Y4025D02*
D03*
D33*
X2825Y1725D02*
D03*
Y2875D02*
D03*
X1975Y1725D02*
D03*
Y2850D02*
D03*
X600Y3675D02*
D03*
X175Y1825D02*
D03*
X4650Y1275D02*
D03*
X4600Y3175D02*
D03*
%TF.MD5,b3a9ab5e352a1eab6767e868972fd8ee*%
M02*
