%TF.GenerationSoftware,Altium Limited,Altium Designer,23.1.1 (15)*%
G04 Layer_Color=2752767*
%FSLAX42Y42*%
%MOMM*%
%TF.SameCoordinates,B28E977E-5D45-45F3-9009-D632A0DEB075*%
%TF.FilePolarity,Positive*%
%TF.FileFunction,Drawing*%
%TF.Part,Single*%
G01*
G75*
%TA.AperFunction,NonConductor*%
%ADD40C,0.17*%
%ADD42C,0.13*%
D40*
X1790Y600D02*
G03*
X1790Y600I-51J0D01*
G01*
X3111D02*
G03*
X3111Y600I-51J0D01*
G01*
D42*
X849Y549D02*
Y651D01*
X951D01*
Y549D01*
X849D01*
X669Y310D02*
Y411D01*
X770D01*
Y310D01*
X669D01*
X3287Y3746D02*
X3236Y3848D01*
X3338D01*
X3287Y3746D01*
X3241Y3807D02*
X3191Y3909D01*
X3292D01*
X3241Y3807D01*
X3193Y3866D02*
X3142Y3967D01*
X3244D01*
X3193Y3866D01*
X3150Y3924D02*
X3099Y4026D01*
X3201D01*
X3150Y3924D01*
X3107Y3983D02*
X3056Y4084D01*
X3158D01*
X3107Y3983D01*
X1832Y3874D02*
X1781Y3976D01*
X1883D01*
X1832Y3874D01*
X1786Y3816D02*
X1736Y3918D01*
X1837D01*
X1786Y3816D01*
X1743Y3758D02*
X1692Y3859D01*
X1794D01*
X1743Y3758D01*
X1700Y3699D02*
X1649Y3801D01*
X1751D01*
X1700Y3699D01*
X1652Y3643D02*
X1601Y3745D01*
X1703D01*
X1652Y3643D01*
X2825Y1674D02*
X2850Y1700D01*
X2876D01*
X2850Y1725D01*
X2876Y1750D01*
X2850D01*
X2825Y1776D01*
X2800Y1750D01*
X2774D01*
X2800Y1725D01*
X2774Y1700D01*
X2800D01*
X2825Y1674D01*
Y2824D02*
X2850Y2850D01*
X2876D01*
X2850Y2875D01*
X2876Y2900D01*
X2850D01*
X2825Y2926D01*
X2800Y2900D01*
X2774D01*
X2800Y2875D01*
X2774Y2850D01*
X2800D01*
X2825Y2824D01*
X1975Y1674D02*
X2000Y1700D01*
X2026D01*
X2000Y1725D01*
X2026Y1750D01*
X2000D01*
X1975Y1776D01*
X1950Y1750D01*
X1924D01*
X1950Y1725D01*
X1924Y1700D01*
X1950D01*
X1975Y1674D01*
Y2799D02*
X2000Y2825D01*
X2026D01*
X2000Y2850D01*
X2026Y2875D01*
X2000D01*
X1975Y2901D01*
X1950Y2875D01*
X1924D01*
X1950Y2850D01*
X1924Y2825D01*
X1950D01*
X1975Y2799D01*
X600Y3624D02*
X625Y3650D01*
X651D01*
X625Y3675D01*
X651Y3700D01*
X625D01*
X600Y3726D01*
X575Y3700D01*
X549D01*
X575Y3675D01*
X549Y3650D01*
X575D01*
X600Y3624D01*
X175Y1774D02*
X200Y1800D01*
X226D01*
X200Y1825D01*
X226Y1850D01*
X200D01*
X175Y1876D01*
X150Y1850D01*
X124D01*
X150Y1825D01*
X124Y1800D01*
X150D01*
X175Y1774D01*
X4650Y1224D02*
X4675Y1250D01*
X4701D01*
X4675Y1275D01*
X4701Y1300D01*
X4675D01*
X4650Y1326D01*
X4625Y1300D01*
X4599D01*
X4625Y1275D01*
X4599Y1250D01*
X4625D01*
X4650Y1224D01*
X4600Y3124D02*
X4625Y3150D01*
X4651D01*
X4625Y3175D01*
X4651Y3200D01*
X4625D01*
X4600Y3226D01*
X4575Y3200D01*
X4549D01*
X4575Y3175D01*
X4549Y3150D01*
X4575D01*
X4600Y3124D01*
X2970Y3855D02*
X2919Y3957D01*
X3020D01*
X2970Y3855D01*
X3015Y3797D02*
X2965Y3899D01*
X3066D01*
X3015Y3797D01*
X3059Y3738D02*
X3008Y3840D01*
X3109D01*
X3059Y3738D01*
X3102Y3680D02*
X3051Y3782D01*
X3153D01*
X3102Y3680D01*
X3150Y3624D02*
X3099Y3726D01*
X3201D01*
X3150Y3624D01*
X1520Y3738D02*
X1469Y3840D01*
X1570D01*
X1520Y3738D01*
X1565Y3799D02*
X1515Y3901D01*
X1616D01*
X1565Y3799D01*
X1614Y3857D02*
X1563Y3959D01*
X1664D01*
X1614Y3857D01*
X1657Y3916D02*
X1606Y4017D01*
X1708D01*
X1657Y3916D01*
X1700Y3974D02*
X1649Y4076D01*
X1751D01*
X1700Y3974D01*
%TF.MD5,cf14de8dcc9d2811f0156d63e174fb17*%
M02*
