G04*
G04 #@! TF.GenerationSoftware,Altium Limited,Altium Designer,23.1.1 (15)*
G04*
G04 Layer_Color=32768*
%FSLAX23Y23*%
%MOIN*%
G70*
G04*
G04 #@! TF.SameCoordinates,7DB063E5-64DA-4751-B351-23BD0CB7D004*
G04*
G04*
G04 #@! TF.FilePolarity,Positive*
G04*
G01*
G75*
%ADD11C,0.000*%
D11*
X300Y-6D02*
X501Y261D01*
X127Y124D02*
X300Y-6D01*
X127Y124D02*
X328Y391D01*
X501Y261D01*
X334Y1144D02*
Y1257D01*
X1349Y1696D02*
X1407D01*
Y1808D01*
X1349D02*
X1407D01*
X1349Y1696D02*
Y1808D01*
X1694Y775D02*
X1751D01*
X1694Y662D02*
Y775D01*
Y662D02*
X1751D01*
Y775D01*
X1054Y1262D02*
X1111D01*
Y1375D01*
X1054D02*
X1111D01*
X1054Y1262D02*
Y1375D01*
X689Y777D02*
X747D01*
Y889D01*
X689D02*
X747D01*
X689Y777D02*
Y889D01*
X1420Y109D02*
Y167D01*
Y109D02*
X1533D01*
Y167D01*
X1420D02*
X1533D01*
X391Y1114D02*
X434Y1070D01*
X294Y1016D02*
X391Y1114D01*
X294Y1016D02*
X337Y973D01*
X434Y1070D01*
X1573Y608D02*
X1616Y651D01*
X1573Y608D02*
X1671Y511D01*
X1714Y554D01*
X1616Y651D02*
X1714Y554D01*
X276Y1257D02*
X334D01*
X276Y1144D02*
Y1257D01*
Y1144D02*
X334D01*
X1179Y1770D02*
X1223Y1813D01*
X1179Y1770D02*
X1277Y1672D01*
X1320Y1715D01*
X1223Y1813D02*
X1320Y1715D01*
X1121Y1395D02*
X1164Y1438D01*
X1121Y1395D02*
X1218Y1298D01*
X1262Y1341D01*
X1164Y1438D02*
X1262Y1341D01*
X501Y878D02*
X544Y835D01*
X641Y933D01*
X598Y976D02*
X641Y933D01*
X501Y878D02*
X598Y976D01*
X1583Y145D02*
X1626Y188D01*
X1583Y145D02*
X1681Y48D01*
X1724Y91D01*
X1626Y188D02*
X1724Y91D01*
M02*
