G04*
G04 #@! TF.GenerationSoftware,Altium Limited,Altium Designer,23.1.1 (15)*
G04*
G04 Layer_Color=65535*
%FSLAX25Y25*%
%MOIN*%
G70*
G04*
G04 #@! TF.SameCoordinates,F91F9CD3-C7A0-4A43-B12F-26B318A194AE*
G04*
G04*
G04 #@! TF.FilePolarity,Positive*
G04*
G01*
G75*
%ADD19C,0.00000*%
%ADD25C,0.00984*%
%ADD26C,0.03937*%
D19*
X168484Y138358D02*
X180433Y150118D01*
X208543D02*
X220492Y138358D01*
Y129823D02*
Y138358D01*
X180433Y150118D02*
X208543D01*
X168484Y102598D02*
X220492D01*
Y117421D01*
X168484Y129823D02*
Y138358D01*
Y102598D02*
Y117421D01*
X135907Y115747D02*
X139580Y120621D01*
X132353Y111031D02*
X132472Y111188D01*
X115138Y115007D02*
X118471Y112495D01*
X123344Y108823D02*
X124539Y107922D01*
X115138Y115007D02*
X131012Y136073D01*
X134345Y133562D01*
X139219Y129889D02*
X140414Y128989D01*
X241535Y272244D02*
Y278150D01*
X234252Y272244D02*
Y278150D01*
X268504Y168898D02*
Y174803D01*
X275787Y168898D02*
Y174803D01*
X218915Y242419D02*
X224762Y236573D01*
X156878Y184914D02*
X162724Y190760D01*
X151449Y190342D02*
X157295Y196189D01*
X259717Y112020D02*
X265563Y106174D01*
X265145Y117448D02*
X270992Y111602D01*
X196394Y170709D02*
X206394D01*
Y210709D01*
X196394D02*
X206394D01*
X182583Y170709D02*
X192583D01*
X182583D02*
Y210709D01*
X192583D01*
X212008Y228937D02*
Y234842D01*
X204724Y228937D02*
Y234842D01*
X175532Y180345D02*
Y186250D01*
X168248Y180345D02*
Y186250D01*
X244685Y110039D02*
X250591D01*
X244685Y117323D02*
X250591D01*
X130780Y204122D02*
X136626Y209968D01*
X136208Y198693D02*
X142055Y204539D01*
X258703Y158309D02*
X264549Y152463D01*
X264132Y163738D02*
X269978Y157892D01*
X101906Y220236D02*
X111906D01*
Y180236D02*
Y220236D01*
X101906Y180236D02*
X111906D01*
X277071Y218583D02*
X287071D01*
X277071Y178583D02*
Y218583D01*
Y178583D02*
X287071D01*
X126772Y217126D02*
Y223031D01*
X134055Y217126D02*
Y223031D01*
X115748Y229921D02*
Y288976D01*
X100000Y229921D02*
X115748D01*
X219333Y274451D02*
X225179Y268605D01*
X224762Y279880D02*
X230608Y274033D01*
X213487Y236990D02*
X219333Y231144D01*
X367303Y138358D02*
X379252Y150118D01*
X407362D02*
X419311Y138358D01*
Y129823D02*
Y138358D01*
X379252Y150118D02*
X407362D01*
X367303Y102598D02*
X419311D01*
Y117421D01*
X367303Y129823D02*
Y138358D01*
Y102598D02*
Y117421D01*
X334726Y115747D02*
X338399Y120621D01*
X331172Y111031D02*
X331291Y111188D01*
X313957Y115007D02*
X317290Y112495D01*
X322163Y108823D02*
X323358Y107922D01*
X313957Y115007D02*
X329831Y136073D01*
X333164Y133562D01*
X338038Y129889D02*
X339233Y128989D01*
X440354Y272244D02*
Y278150D01*
X433071Y272244D02*
Y278150D01*
X467323Y168898D02*
Y174803D01*
X474606Y168898D02*
Y174803D01*
X417734Y242419D02*
X423580Y236573D01*
X355697Y184914D02*
X361543Y190760D01*
X350268Y190342D02*
X356114Y196189D01*
X458536Y112020D02*
X464382Y106174D01*
X463964Y117448D02*
X469811Y111602D01*
X395213Y170709D02*
X405213D01*
Y210709D01*
X395213D02*
X405213D01*
X381402Y170709D02*
X391402D01*
X381402D02*
Y210709D01*
X391402D01*
X410827Y228937D02*
Y234842D01*
X403543Y228937D02*
Y234842D01*
X374351Y180345D02*
Y186250D01*
X367067Y180345D02*
Y186250D01*
X443504Y110039D02*
X449409D01*
X443504Y117323D02*
X449409D01*
X329599Y204122D02*
X335445Y209968D01*
X335027Y198693D02*
X340874Y204539D01*
X457522Y158309D02*
X463368Y152463D01*
X462951Y163738D02*
X468797Y157892D01*
X300724Y220236D02*
X310724D01*
Y180236D02*
Y220236D01*
X300724Y180236D02*
X310724D01*
X475890Y218583D02*
X485890D01*
X475890Y178583D02*
Y218583D01*
Y178583D02*
X485890D01*
X325590Y217126D02*
Y223031D01*
X332874Y217126D02*
Y223031D01*
X314567Y229921D02*
Y288976D01*
X298819Y229921D02*
X314567D01*
X418152Y274451D02*
X423998Y268605D01*
X423580Y279880D02*
X429427Y274033D01*
X412306Y236990D02*
X418152Y231144D01*
X168484Y337177D02*
X180433Y348937D01*
X208543D02*
X220492Y337177D01*
Y328642D02*
Y337177D01*
X180433Y348937D02*
X208543D01*
X168484Y301417D02*
X220492D01*
Y316240D01*
X168484Y328642D02*
Y337177D01*
Y301417D02*
Y316240D01*
X135907Y314566D02*
X139580Y319439D01*
X132353Y309850D02*
X132472Y310007D01*
X115138Y313826D02*
X118471Y311314D01*
X123344Y307642D02*
X124539Y306741D01*
X115138Y313826D02*
X131012Y334892D01*
X134345Y332381D01*
X139219Y328708D02*
X140414Y327808D01*
X241535Y471063D02*
Y476968D01*
X234252Y471063D02*
Y476968D01*
X268504Y367717D02*
Y373622D01*
X275787Y367717D02*
Y373622D01*
X218915Y441238D02*
X224762Y435391D01*
X156878Y383733D02*
X162724Y389579D01*
X151449Y389161D02*
X157295Y395007D01*
X259717Y310839D02*
X265563Y304993D01*
X265145Y316267D02*
X270992Y310421D01*
X196394Y369528D02*
X206394D01*
Y409528D01*
X196394D02*
X206394D01*
X182583Y369528D02*
X192583D01*
X182583D02*
Y409528D01*
X192583D01*
X212008Y427756D02*
Y433661D01*
X204724Y427756D02*
Y433661D01*
X175532Y379164D02*
Y385069D01*
X168248Y379164D02*
Y385069D01*
X244685Y308858D02*
X250591D01*
X244685Y316142D02*
X250591D01*
X130780Y402941D02*
X136626Y408787D01*
X136208Y397512D02*
X142055Y403358D01*
X258703Y357128D02*
X264549Y351282D01*
X264132Y362557D02*
X269978Y356711D01*
X101906Y419055D02*
X111906D01*
Y379055D02*
Y419055D01*
X101906Y379055D02*
X111906D01*
X277071Y417402D02*
X287071D01*
X277071Y377402D02*
Y417402D01*
Y377402D02*
X287071D01*
X126772Y415945D02*
Y421850D01*
X134055Y415945D02*
Y421850D01*
X115748Y428740D02*
Y487795D01*
X100000Y428740D02*
X115748D01*
X219333Y473270D02*
X225179Y467424D01*
X224762Y478698D02*
X230608Y472852D01*
X213487Y435809D02*
X219333Y429963D01*
X367303Y337177D02*
X379252Y348937D01*
X407362D02*
X419311Y337177D01*
Y328642D02*
Y337177D01*
X379252Y348937D02*
X407362D01*
X367303Y301417D02*
X419311D01*
Y316240D01*
X367303Y328642D02*
Y337177D01*
Y301417D02*
Y316240D01*
X334726Y314566D02*
X338399Y319439D01*
X331172Y309850D02*
X331291Y310007D01*
X313957Y313826D02*
X317290Y311314D01*
X322163Y307642D02*
X323358Y306741D01*
X313957Y313826D02*
X329831Y334892D01*
X333164Y332381D01*
X338038Y328708D02*
X339233Y327808D01*
X440354Y471063D02*
Y476968D01*
X433071Y471063D02*
Y476968D01*
X467323Y367717D02*
Y373622D01*
X474606Y367717D02*
Y373622D01*
X417734Y441238D02*
X423580Y435391D01*
X355697Y383733D02*
X361543Y389579D01*
X350268Y389161D02*
X356114Y395007D01*
X458536Y310839D02*
X464382Y304993D01*
X463964Y316267D02*
X469811Y310421D01*
X395213Y369528D02*
X405213D01*
Y409528D01*
X395213D02*
X405213D01*
X381402Y369528D02*
X391402D01*
X381402D02*
Y409528D01*
X391402D01*
X410827Y427756D02*
Y433661D01*
X403543Y427756D02*
Y433661D01*
X374351Y379164D02*
Y385069D01*
X367067Y379164D02*
Y385069D01*
X443504Y308858D02*
X449409D01*
X443504Y316142D02*
X449409D01*
X329599Y402941D02*
X335445Y408787D01*
X335027Y397512D02*
X340874Y403358D01*
X457522Y357128D02*
X463368Y351282D01*
X462951Y362557D02*
X468797Y356711D01*
X300724Y419055D02*
X310724D01*
Y379055D02*
Y419055D01*
X300724Y379055D02*
X310724D01*
X475890Y417402D02*
X485890D01*
X475890Y377402D02*
Y417402D01*
Y377402D02*
X485890D01*
X325590Y415945D02*
Y421850D01*
X332874Y415945D02*
Y421850D01*
X314567Y428740D02*
Y487795D01*
X298819Y428740D02*
X314567D01*
X418152Y473270D02*
X423998Y467424D01*
X423580Y478698D02*
X429427Y472852D01*
X412306Y435809D02*
X418152Y429963D01*
D25*
X227776Y123622D02*
X227037Y124048D01*
Y123196D01*
X227776Y123622D01*
X147371Y118694D02*
X146633Y119121D01*
Y118268D01*
X147371Y118694D01*
X219268Y280436D02*
X218530Y280863D01*
Y280010D01*
X219268Y280436D01*
X213422Y242975D02*
X212684Y243402D01*
Y242549D01*
X213422Y242975D01*
X151385Y184357D02*
X150646Y184783D01*
Y183931D01*
X151385Y184357D01*
X259652Y118005D02*
X258914Y118431D01*
Y117579D01*
X259652Y118005D01*
X143104Y210525D02*
X142365Y210951D01*
Y210099D01*
X143104Y210525D01*
X258638Y164295D02*
X257900Y164721D01*
Y163868D01*
X258638Y164295D01*
X426594Y123622D02*
X425856Y124048D01*
Y123196D01*
X426594Y123622D01*
X346190Y118694D02*
X345451Y119121D01*
Y118268D01*
X346190Y118694D01*
X418087Y280436D02*
X417349Y280863D01*
Y280010D01*
X418087Y280436D01*
X412241Y242975D02*
X411503Y243402D01*
Y242549D01*
X412241Y242975D01*
X350203Y184357D02*
X349465Y184783D01*
Y183931D01*
X350203Y184357D01*
X458471Y118005D02*
X457733Y118431D01*
Y117579D01*
X458471Y118005D01*
X341922Y210525D02*
X341184Y210951D01*
Y210099D01*
X341922Y210525D01*
X457457Y164295D02*
X456719Y164721D01*
Y163868D01*
X457457Y164295D01*
X227776Y322441D02*
X227037Y322867D01*
Y322015D01*
X227776Y322441D01*
X147371Y317513D02*
X146633Y317940D01*
Y317087D01*
X147371Y317513D01*
X219268Y479255D02*
X218530Y479681D01*
Y478829D01*
X219268Y479255D01*
X213422Y441794D02*
X212684Y442221D01*
Y441368D01*
X213422Y441794D01*
X151385Y383176D02*
X150646Y383602D01*
Y382750D01*
X151385Y383176D01*
X259652Y316824D02*
X258914Y317250D01*
Y316398D01*
X259652Y316824D01*
X143104Y409344D02*
X142365Y409770D01*
Y408918D01*
X143104Y409344D01*
X258638Y363114D02*
X257900Y363540D01*
Y362687D01*
X258638Y363114D01*
X426594Y322441D02*
X425856Y322867D01*
Y322015D01*
X426594Y322441D01*
X346190Y317513D02*
X345451Y317940D01*
Y317087D01*
X346190Y317513D01*
X418087Y479255D02*
X417349Y479681D01*
Y478829D01*
X418087Y479255D01*
X412241Y441794D02*
X411503Y442221D01*
Y441368D01*
X412241Y441794D01*
X350203Y383176D02*
X349465Y383602D01*
Y382750D01*
X350203Y383176D01*
X458471Y316824D02*
X457733Y317250D01*
Y316398D01*
X458471Y316824D01*
X341922Y409344D02*
X341184Y409770D01*
Y408918D01*
X341922Y409344D01*
X457457Y363114D02*
X456719Y363540D01*
Y362687D01*
X457457Y363114D01*
D26*
X140423Y224547D02*
X157116Y246500D01*
X168650Y261617D02*
X189370Y288976D01*
X127559Y173622D02*
X128740Y171653D01*
X129987Y171938D01*
X147867Y171378D01*
X124409Y170866D02*
X147867Y171378D01*
X124409Y170866D02*
X125197Y172047D01*
X128438Y177056D01*
X138976Y220472D02*
X140551Y218110D01*
X135827Y217717D02*
X155884Y218225D01*
X135827Y217717D02*
X136614Y219291D01*
X140256Y224328D01*
X254331Y171653D02*
X260831Y173852D01*
X254331Y171653D02*
X264567Y171260D01*
X264173Y172047D02*
X264567Y171260D01*
X259449Y179921D02*
X264173Y172047D01*
X247421Y218920D02*
X248726Y219907D01*
X249096Y220315D02*
X251245Y221919D01*
X248947Y224941D02*
X253543Y218898D01*
X233486Y218619D02*
X253543Y218898D01*
X199606Y288976D02*
X220326Y261617D01*
X232254Y246894D02*
X248947Y224941D01*
X233486Y218619D02*
X259449Y179921D01*
X241503Y171771D02*
X255512Y171653D01*
X241503Y171771D02*
X288976Y107874D01*
Y288976D01*
X199606D02*
X288976D01*
X115748D02*
X189370D01*
X115748Y229921D02*
Y288976D01*
X100000Y229921D02*
X115748D01*
X100000Y106299D02*
Y229921D01*
Y106299D02*
X147867Y171378D01*
X128734Y177501D02*
X155884Y218225D01*
X158172Y178375D02*
X160630Y176378D01*
X229922Y176859D02*
X231843Y179200D01*
X104921Y100000D02*
X284055D01*
X225590Y179921D02*
X249999Y179648D01*
X225590Y179921D02*
X226772Y178347D01*
X231496Y172047D01*
X161811Y179134D02*
X162598D01*
X163386D01*
X158071Y171850D02*
X163386Y179134D01*
X139371Y179255D02*
X162598Y179134D01*
X166520Y219979D02*
X169882Y225984D01*
X151500Y226102D02*
X169882Y225984D01*
X219094D02*
X222689Y220614D01*
X219094Y225984D02*
X237870Y226496D01*
X104921Y100000D02*
X158071Y171850D01*
X139371Y179255D02*
X166520Y219979D01*
X222850Y220372D02*
X249999Y179648D01*
X230906Y172835D02*
X284055Y100000D01*
X225984Y241732D02*
X237870Y226496D01*
X151500Y226102D02*
X163483Y241860D01*
X174963Y256960D02*
X194500Y282508D01*
X214604Y256529D01*
X339242Y224547D02*
X355935Y246500D01*
X367469Y261617D02*
X388189Y288976D01*
X326378Y173622D02*
X327559Y171653D01*
X328806Y171938D01*
X346686Y171378D01*
X323228Y170866D02*
X346686Y171378D01*
X323228Y170866D02*
X324016Y172047D01*
X327257Y177056D01*
X337795Y220472D02*
X339370Y218110D01*
X334646Y217717D02*
X354703Y218225D01*
X334646Y217717D02*
X335433Y219291D01*
X339075Y224328D01*
X453150Y171653D02*
X459650Y173852D01*
X453150Y171653D02*
X463386Y171260D01*
X462992Y172047D02*
X463386Y171260D01*
X458268Y179921D02*
X462992Y172047D01*
X446240Y218920D02*
X447545Y219907D01*
X447915Y220315D02*
X450064Y221919D01*
X447766Y224941D02*
X452362Y218898D01*
X432305Y218619D02*
X452362Y218898D01*
X398425Y288976D02*
X419145Y261617D01*
X431073Y246894D02*
X447766Y224941D01*
X432305Y218619D02*
X458268Y179921D01*
X440322Y171771D02*
X454331Y171653D01*
X440322Y171771D02*
X487795Y107874D01*
Y288976D01*
X398425D02*
X487795D01*
X314567D02*
X388189D01*
X314567Y229921D02*
Y288976D01*
X298819Y229921D02*
X314567D01*
X298819Y106299D02*
Y229921D01*
Y106299D02*
X346686Y171378D01*
X327553Y177501D02*
X354703Y218225D01*
X356991Y178375D02*
X359449Y176378D01*
X428741Y176859D02*
X430662Y179200D01*
X303740Y100000D02*
X482874D01*
X424409Y179921D02*
X448818Y179648D01*
X424409Y179921D02*
X425591Y178347D01*
X430315Y172047D01*
X360630Y179134D02*
X361417D01*
X362205D01*
X356890Y171850D02*
X362205Y179134D01*
X338189Y179255D02*
X361417Y179134D01*
X365339Y219979D02*
X368701Y225984D01*
X350319Y226102D02*
X368701Y225984D01*
X417913D02*
X421508Y220614D01*
X417913Y225984D02*
X436689Y226496D01*
X303740Y100000D02*
X356890Y171850D01*
X338189Y179255D02*
X365339Y219979D01*
X421669Y220372D02*
X448818Y179648D01*
X429724Y172835D02*
X482874Y100000D01*
X424803Y241732D02*
X436689Y226496D01*
X350319Y226102D02*
X362302Y241860D01*
X373782Y256960D02*
X393319Y282508D01*
X413423Y256529D01*
X140423Y423366D02*
X157116Y445319D01*
X168650Y460436D02*
X189370Y487795D01*
X127559Y372441D02*
X128740Y370472D01*
X129987Y370756D01*
X147867Y370197D01*
X124409Y369685D02*
X147867Y370197D01*
X124409Y369685D02*
X125197Y370866D01*
X128438Y375875D01*
X138976Y419291D02*
X140551Y416929D01*
X135827Y416535D02*
X155884Y417044D01*
X135827Y416535D02*
X136614Y418110D01*
X140256Y423147D01*
X254331Y370472D02*
X260831Y372670D01*
X254331Y370472D02*
X264567Y370079D01*
X264173Y370866D02*
X264567Y370079D01*
X259449Y378740D02*
X264173Y370866D01*
X247421Y417739D02*
X248726Y418726D01*
X249096Y419133D02*
X251245Y420738D01*
X248947Y423760D02*
X253543Y417717D01*
X233486Y417438D02*
X253543Y417717D01*
X199606Y487795D02*
X220326Y460436D01*
X232254Y445713D02*
X248947Y423760D01*
X233486Y417438D02*
X259449Y378740D01*
X241503Y370590D02*
X255512Y370472D01*
X241503Y370590D02*
X288976Y306693D01*
Y487795D01*
X199606D02*
X288976D01*
X115748D02*
X189370D01*
X115748Y428740D02*
Y487795D01*
X100000Y428740D02*
X115748D01*
X100000Y305118D02*
Y428740D01*
Y305118D02*
X147867Y370197D01*
X128734Y376320D02*
X155884Y417044D01*
X158172Y377194D02*
X160630Y375197D01*
X229922Y375678D02*
X231843Y378019D01*
X104921Y298819D02*
X284055D01*
X225590Y378740D02*
X249999Y378467D01*
X225590Y378740D02*
X226772Y377165D01*
X231496Y370866D01*
X161811Y377953D02*
X162598D01*
X163386D01*
X158071Y370669D02*
X163386Y377953D01*
X139371Y378074D02*
X162598Y377953D01*
X166520Y418798D02*
X169882Y424803D01*
X151500Y424921D02*
X169882Y424803D01*
X219094D02*
X222689Y419433D01*
X219094Y424803D02*
X237870Y425315D01*
X104921Y298819D02*
X158071Y370669D01*
X139371Y378074D02*
X166520Y418798D01*
X222850Y419191D02*
X249999Y378467D01*
X230906Y371654D02*
X284055Y298819D01*
X225984Y440551D02*
X237870Y425315D01*
X151500Y424921D02*
X163483Y440679D01*
X174963Y455779D02*
X194500Y481327D01*
X214604Y455348D01*
X339242Y423366D02*
X355935Y445319D01*
X367469Y460436D02*
X388189Y487795D01*
X326378Y372441D02*
X327559Y370472D01*
X328806Y370756D01*
X346686Y370197D01*
X323228Y369685D02*
X346686Y370197D01*
X323228Y369685D02*
X324016Y370866D01*
X327257Y375875D01*
X337795Y419291D02*
X339370Y416929D01*
X334646Y416535D02*
X354703Y417044D01*
X334646Y416535D02*
X335433Y418110D01*
X339075Y423147D01*
X453150Y370472D02*
X459650Y372670D01*
X453150Y370472D02*
X463386Y370079D01*
X462992Y370866D02*
X463386Y370079D01*
X458268Y378740D02*
X462992Y370866D01*
X446240Y417739D02*
X447545Y418726D01*
X447915Y419133D02*
X450064Y420738D01*
X447766Y423760D02*
X452362Y417717D01*
X432305Y417438D02*
X452362Y417717D01*
X398425Y487795D02*
X419145Y460436D01*
X431073Y445713D02*
X447766Y423760D01*
X432305Y417438D02*
X458268Y378740D01*
X440322Y370590D02*
X454331Y370472D01*
X440322Y370590D02*
X487795Y306693D01*
Y487795D01*
X398425D02*
X487795D01*
X314567D02*
X388189D01*
X314567Y428740D02*
Y487795D01*
X298819Y428740D02*
X314567D01*
X298819Y305118D02*
Y428740D01*
Y305118D02*
X346686Y370197D01*
X327553Y376320D02*
X354703Y417044D01*
X356991Y377194D02*
X359449Y375197D01*
X428741Y375678D02*
X430662Y378019D01*
X303740Y298819D02*
X482874D01*
X424409Y378740D02*
X448818Y378467D01*
X424409Y378740D02*
X425591Y377165D01*
X430315Y370866D01*
X360630Y377953D02*
X361417D01*
X362205D01*
X356890Y370669D02*
X362205Y377953D01*
X338189Y378074D02*
X361417Y377953D01*
X365339Y418798D02*
X368701Y424803D01*
X350319Y424921D02*
X368701Y424803D01*
X417913D02*
X421508Y419433D01*
X417913Y424803D02*
X436689Y425315D01*
X303740Y298819D02*
X356890Y370669D01*
X338189Y378074D02*
X365339Y418798D01*
X421669Y419191D02*
X448818Y378467D01*
X429724Y371654D02*
X482874Y298819D01*
X424803Y440551D02*
X436689Y425315D01*
X350319Y424921D02*
X362302Y440679D01*
X373782Y455779D02*
X393319Y481327D01*
X413423Y455348D01*
M02*
