G04*
G04 #@! TF.GenerationSoftware,Altium Limited,Altium Designer,23.1.1 (15)*
G04*
G04 Layer_Color=8388736*
%FSLAX25Y25*%
%MOIN*%
G70*
G04*
G04 #@! TF.SameCoordinates,E066B419-5711-4A73-A0CA-953248983CDD*
G04*
G04*
G04 #@! TF.FilePolarity,Negative*
G04*
G01*
G75*
G04:AMPARAMS|DCode=11|XSize=27.56mil|YSize=59.06mil|CornerRadius=0mil|HoleSize=0mil|Usage=FLASHONLY|Rotation=233.000|XOffset=0mil|YOffset=0mil|HoleType=Round|Shape=Rectangle|*
%AMROTATEDRECTD11*
4,1,4,-0.01529,0.02878,0.03188,-0.00677,0.01529,-0.02878,-0.03188,0.00677,-0.01529,0.02878,0.0*
%
%ADD11ROTATEDRECTD11*%

G04:AMPARAMS|DCode=12|XSize=39.37mil|YSize=31.5mil|CornerRadius=0mil|HoleSize=0mil|Usage=FLASHONLY|Rotation=233.000|XOffset=0mil|YOffset=0mil|HoleType=Round|Shape=Rectangle|*
%AMROTATEDRECTD12*
4,1,4,-0.00073,0.02520,0.02442,0.00624,0.00073,-0.02520,-0.02442,-0.00624,-0.00073,0.02520,0.0*
%
%ADD12ROTATEDRECTD12*%

%ADD13R,0.03788X0.03681*%
%ADD15P,0.06681X4X360.0*%
%ADD16P,0.06681X4X90.0*%
%ADD17R,0.03681X0.03788*%
%ADD23C,0.03543*%
%ADD25R,0.16391X0.16391*%
%ADD26R,0.08674X0.16548*%
%ADD27C,0.02769*%
%ADD28C,0.10052*%
%ADD29R,0.10052X0.10052*%
%ADD30C,0.05800*%
D11*
X135604Y112401D02*
D03*
X132050Y107685D02*
D03*
X142712Y121834D02*
D03*
X334423Y112401D02*
D03*
X330869Y107685D02*
D03*
X341531Y121834D02*
D03*
X135604Y311220D02*
D03*
X132050Y306504D02*
D03*
X142712Y320653D02*
D03*
X334423Y311220D02*
D03*
X330869Y306504D02*
D03*
X341531Y320653D02*
D03*
D12*
X143561Y128096D02*
D03*
X126265Y105143D02*
D03*
X137493Y132669D02*
D03*
X120197Y109716D02*
D03*
X342380Y128096D02*
D03*
X325084Y105143D02*
D03*
X336312Y132669D02*
D03*
X319016Y109716D02*
D03*
X143561Y326915D02*
D03*
X126265Y303962D02*
D03*
X137493Y331487D02*
D03*
X120197Y308535D02*
D03*
X342380Y326915D02*
D03*
X325084Y303962D02*
D03*
X336312Y331487D02*
D03*
X319016Y308535D02*
D03*
D13*
X272244Y174667D02*
D03*
Y169034D02*
D03*
X208268Y234706D02*
D03*
Y229073D02*
D03*
X171792Y186114D02*
D03*
Y180481D02*
D03*
X130512Y217262D02*
D03*
Y222895D02*
D03*
X237795Y278013D02*
D03*
Y272380D02*
D03*
X471063Y174667D02*
D03*
Y169034D02*
D03*
X407087Y234706D02*
D03*
Y229073D02*
D03*
X370610Y186114D02*
D03*
Y180481D02*
D03*
X329331Y217262D02*
D03*
Y222895D02*
D03*
X436614Y278013D02*
D03*
Y272380D02*
D03*
X272244Y373486D02*
D03*
Y367853D02*
D03*
X208268Y433525D02*
D03*
Y427892D02*
D03*
X171792Y384933D02*
D03*
Y379300D02*
D03*
X130512Y416081D02*
D03*
Y421714D02*
D03*
X237795Y476832D02*
D03*
Y471199D02*
D03*
X471063Y373486D02*
D03*
Y367853D02*
D03*
X407087Y433525D02*
D03*
Y427892D02*
D03*
X370610Y384933D02*
D03*
Y379300D02*
D03*
X329331Y416081D02*
D03*
Y421714D02*
D03*
X436614Y476832D02*
D03*
Y471199D02*
D03*
D15*
X227893Y271319D02*
D03*
X222047Y277165D02*
D03*
Y233858D02*
D03*
X216201Y239704D02*
D03*
X268277Y108888D02*
D03*
X262431Y114734D02*
D03*
X267264Y155177D02*
D03*
X261417Y161024D02*
D03*
X426712Y271319D02*
D03*
X420866Y277165D02*
D03*
Y233858D02*
D03*
X415020Y239704D02*
D03*
X467096Y108888D02*
D03*
X461250Y114734D02*
D03*
X466082Y155177D02*
D03*
X460236Y161024D02*
D03*
X227893Y470138D02*
D03*
X222047Y475984D02*
D03*
Y432677D02*
D03*
X216201Y438523D02*
D03*
X268277Y307707D02*
D03*
X262431Y313553D02*
D03*
X267264Y353996D02*
D03*
X261417Y359842D02*
D03*
X426712Y470138D02*
D03*
X420866Y475984D02*
D03*
Y432677D02*
D03*
X415020Y438523D02*
D03*
X467096Y307707D02*
D03*
X461250Y313553D02*
D03*
X466082Y353996D02*
D03*
X460236Y359842D02*
D03*
D16*
X160010Y193474D02*
D03*
X154164Y187628D02*
D03*
X133494Y201408D02*
D03*
X139340Y207254D02*
D03*
X358829Y193474D02*
D03*
X352982Y187628D02*
D03*
X332313Y201408D02*
D03*
X338159Y207254D02*
D03*
X160010Y392293D02*
D03*
X154164Y386447D02*
D03*
X133494Y400226D02*
D03*
X139340Y406073D02*
D03*
X358829Y392293D02*
D03*
X352982Y386447D02*
D03*
X332313Y400226D02*
D03*
X338159Y406073D02*
D03*
D17*
X250454Y113779D02*
D03*
X244821D02*
D03*
X449273D02*
D03*
X443640D02*
D03*
X250454Y312598D02*
D03*
X244821D02*
D03*
X449273D02*
D03*
X443640D02*
D03*
D23*
X135433Y123622D02*
D03*
X128325Y114189D02*
D03*
X334252Y123622D02*
D03*
X327144Y114189D02*
D03*
X135433Y322441D02*
D03*
X128325Y313008D02*
D03*
X334252Y322441D02*
D03*
X327144Y313008D02*
D03*
D25*
X194488Y123622D02*
D03*
X393307D02*
D03*
X194488Y322441D02*
D03*
X393307D02*
D03*
D26*
X200394Y180709D02*
D03*
Y200709D02*
D03*
X188583Y180709D02*
D03*
Y200709D02*
D03*
X283071Y208583D02*
D03*
Y188583D02*
D03*
X105905Y190236D02*
D03*
Y210236D02*
D03*
X399213Y180709D02*
D03*
Y200709D02*
D03*
X387402Y180709D02*
D03*
Y200709D02*
D03*
X481890Y208583D02*
D03*
Y188583D02*
D03*
X304724Y190236D02*
D03*
Y210236D02*
D03*
X200394Y379528D02*
D03*
Y399528D02*
D03*
X188583Y379528D02*
D03*
Y399528D02*
D03*
X283071Y407402D02*
D03*
Y387402D02*
D03*
X105905Y389055D02*
D03*
Y409055D02*
D03*
X399213Y379528D02*
D03*
Y399528D02*
D03*
X387402Y379528D02*
D03*
Y399528D02*
D03*
X481890Y407402D02*
D03*
Y387402D02*
D03*
X304724Y389055D02*
D03*
Y409055D02*
D03*
D27*
X290669Y194386D02*
D03*
Y197386D02*
D03*
Y200386D02*
D03*
Y203386D02*
D03*
X297669D02*
D03*
Y197386D02*
D03*
Y194386D02*
D03*
Y200386D02*
D03*
X297913Y402858D02*
D03*
Y399858D02*
D03*
Y396858D02*
D03*
Y393858D02*
D03*
X290913D02*
D03*
Y399858D02*
D03*
Y402858D02*
D03*
Y396858D02*
D03*
X453000Y290000D02*
D03*
X450000D02*
D03*
X447000D02*
D03*
X444000D02*
D03*
Y297000D02*
D03*
X450000D02*
D03*
X453000D02*
D03*
X447000D02*
D03*
X360000D02*
D03*
X366000D02*
D03*
X363000D02*
D03*
X357000D02*
D03*
Y290000D02*
D03*
X360000D02*
D03*
X363000D02*
D03*
X366000D02*
D03*
X235000Y297000D02*
D03*
X238000D02*
D03*
X241000D02*
D03*
X244000D02*
D03*
Y290000D02*
D03*
X238000D02*
D03*
X235000D02*
D03*
X241000D02*
D03*
X154000D02*
D03*
X148000D02*
D03*
X151000D02*
D03*
X157000D02*
D03*
Y297000D02*
D03*
X154000D02*
D03*
X151000D02*
D03*
X148000D02*
D03*
X229416Y249496D02*
D03*
X227616Y251896D02*
D03*
X225716Y254196D02*
D03*
X224016Y256496D02*
D03*
X222316Y258796D02*
D03*
X172129Y254538D02*
D03*
X170329Y252238D02*
D03*
X168629Y249938D02*
D03*
X166929Y247638D02*
D03*
X165029Y245438D02*
D03*
X216916Y253785D02*
D03*
X218716Y251485D02*
D03*
X220416Y249185D02*
D03*
X222116Y246885D02*
D03*
X224016Y244685D02*
D03*
X159829Y249165D02*
D03*
X161629Y251565D02*
D03*
X163529Y253865D02*
D03*
X165229Y256165D02*
D03*
X166929Y258465D02*
D03*
X428235Y249496D02*
D03*
X426435Y251896D02*
D03*
X424535Y254196D02*
D03*
X422835Y256496D02*
D03*
X421135Y258796D02*
D03*
X370948Y254538D02*
D03*
X369148Y252238D02*
D03*
X367448Y249938D02*
D03*
X365748Y247638D02*
D03*
X363848Y245438D02*
D03*
X415735Y253785D02*
D03*
X417535Y251485D02*
D03*
X419235Y249185D02*
D03*
X420935Y246885D02*
D03*
X422835Y244685D02*
D03*
X358648Y249165D02*
D03*
X360448Y251565D02*
D03*
X362348Y253865D02*
D03*
X364048Y256165D02*
D03*
X365748Y258465D02*
D03*
X229416Y448315D02*
D03*
X227616Y450715D02*
D03*
X225716Y453015D02*
D03*
X224016Y455315D02*
D03*
X222316Y457615D02*
D03*
X172129Y453357D02*
D03*
X170329Y451057D02*
D03*
X168629Y448757D02*
D03*
X166929Y446457D02*
D03*
X165029Y444257D02*
D03*
X216916Y452604D02*
D03*
X218716Y450304D02*
D03*
X220416Y448004D02*
D03*
X222116Y445704D02*
D03*
X224016Y443504D02*
D03*
X159829Y447984D02*
D03*
X161629Y450384D02*
D03*
X163529Y452683D02*
D03*
X165229Y454984D02*
D03*
X166929Y457283D02*
D03*
X428235Y448315D02*
D03*
X426435Y450715D02*
D03*
X424535Y453015D02*
D03*
X422835Y455315D02*
D03*
X421135Y457615D02*
D03*
X370948Y453357D02*
D03*
X369148Y451057D02*
D03*
X367448Y448757D02*
D03*
X365748Y446457D02*
D03*
X363848Y444257D02*
D03*
X415735Y452604D02*
D03*
X417535Y450304D02*
D03*
X419235Y448004D02*
D03*
X420935Y445704D02*
D03*
X422835Y443504D02*
D03*
X358648Y447984D02*
D03*
X360448Y450384D02*
D03*
X362348Y452683D02*
D03*
X364048Y454984D02*
D03*
X365748Y457283D02*
D03*
D28*
X168484Y123622D02*
D03*
X367303D02*
D03*
X168484Y322441D02*
D03*
X367303D02*
D03*
D29*
X220492Y123622D02*
D03*
X419311D02*
D03*
X220492Y322441D02*
D03*
X419311D02*
D03*
D30*
X188583Y214961D02*
D03*
X211221Y167913D02*
D03*
Y213189D02*
D03*
X177756Y167913D02*
D03*
Y212205D02*
D03*
X123622Y244685D02*
D03*
X106890Y171850D02*
D03*
X283071Y150197D02*
D03*
X281102Y225000D02*
D03*
X387402Y214961D02*
D03*
X410039Y167913D02*
D03*
Y213189D02*
D03*
X376575Y167913D02*
D03*
Y212205D02*
D03*
X322441Y244685D02*
D03*
X305709Y171850D02*
D03*
X481890Y150197D02*
D03*
X479921Y225000D02*
D03*
X188583Y413779D02*
D03*
X211221Y366732D02*
D03*
Y412008D02*
D03*
X177756Y366732D02*
D03*
Y411024D02*
D03*
X123622Y443504D02*
D03*
X106890Y370669D02*
D03*
X283071Y349016D02*
D03*
X281102Y423819D02*
D03*
X387402Y413779D02*
D03*
X410039Y366732D02*
D03*
Y412008D02*
D03*
X376575Y366732D02*
D03*
Y411024D02*
D03*
X322441Y443504D02*
D03*
X305709Y370669D02*
D03*
X481890Y349016D02*
D03*
X479921Y423819D02*
D03*
M02*
