M48
;Layer_Color=9474304
;FILE_FORMAT=2:4
INCH,TZ
;TYPE=PLATED
T1F00S00C0.0138
T2F00S00C0.0280
T3F00S00C0.0728
;TYPE=NON_PLATED
T4F00S00C0.0354
%
T01
X35865Y24916
X36045Y25156
X36235Y25386
X36405Y25616
X36575Y25846
X37095Y25454
X36915Y25224
X36745Y24994
X36575Y24764
X36385Y24544
X36300Y29000
X36000
X35700
Y29700
X36000
X36300
X36600
Y29000
X44400
X44700
X45000
X45300
Y29700
X45000
X44700
X44400
X42113Y25880
X42283Y25650
X42453Y25420
X42643Y25190
X42823Y24950
X41923Y24918
X41753Y25148
X41573Y25378
X42093Y24688
X42283Y24469
X29767Y20339
Y20039
Y19739
Y19439
X29067
Y19739
Y20039
Y20339
X22942Y24950
X22762Y25190
X22572Y25420
X22402Y25650
X22232Y25880
X21692Y25378
X21872Y25148
X22042Y24918
X22212Y24688
X22402Y24469
X23500Y29000
X23800
X24100
X24400
Y29700
X24100
X23800
X23500
X15700
Y29000
X16693Y25846
X16523Y25616
X16353Y25386
X16163Y25156
X15983Y24916
X16693Y24764
X16863Y24994
X17033Y25224
X17213Y25454
X16503Y24544
X15400Y29000
X15100
X14800
Y29700
X15100
X15400
X15983Y44798
X16163Y45038
X16353Y45268
X16523Y45498
X16693Y45728
X17213Y45336
X17033Y45106
X16863Y44876
X16693Y44646
X16503Y44426
X22212Y44570
X22042Y44800
X21872Y45030
X21692Y45260
X22572Y45301
X22402Y45532
X22232Y45761
X22762Y45072
X22942Y44832
X22402Y44350
X29091Y40286
Y39986
Y39686
Y39386
X29791
Y39686
Y39986
Y40286
X35865Y44798
X36045Y45038
X36235Y45268
X36405Y45498
X36575Y45728
X37095Y45336
X36915Y45106
X36745Y44876
X36575Y44646
X36385Y44426
X42093Y44570
X41923Y44800
X41753Y45030
X41573Y45260
X42453Y45301
X42283Y45532
X42113Y45761
X42643Y45072
X42823Y44832
X42283Y44350
T02
X28307Y15020
X48189
X47992Y22500
X41004Y21319
X38740Y21496
X37657Y21220
Y16791
X41004
X32244Y24469
X28110Y22500
X30571Y17185
X21122Y16791
X17776
Y21220
X18858Y21496
X21122Y21319
X12362Y24469
X10689Y17185
Y37067
X12362Y44350
X17776Y41102
X18858Y41378
X21122Y41201
Y36673
X17776
X28307Y34902
X30571Y37067
X28110Y42382
X32244Y44350
X37657Y41102
X38740Y41378
X41004Y41201
Y36673
X37657
X48189Y34902
X47992Y42382
T03
X16848Y12362
X22049
X36730
X41931
X22049Y32244
X16848
X36730
X41931
T04
X12832Y11419
X13543Y12362
X33425
X32714Y11419
X12832Y31301
X13543Y32244
X33425
X32714Y31301
M30
