G04*
G04 #@! TF.GenerationSoftware,Altium Limited,Altium Designer,23.1.1 (15)*
G04*
G04 Layer_Color=255*
%FSLAX25Y25*%
%MOIN*%
G70*
G04*
G04 #@! TF.SameCoordinates,E066B419-5711-4A73-A0CA-953248983CDD*
G04*
G04*
G04 #@! TF.FilePolarity,Positive*
G04*
G01*
G75*
%ADD10R,0.15590X0.15590*%
G04:AMPARAMS|DCode=11|XSize=27.56mil|YSize=59.06mil|CornerRadius=0mil|HoleSize=0mil|Usage=FLASHONLY|Rotation=233.000|XOffset=0mil|YOffset=0mil|HoleType=Round|Shape=Rectangle|*
%AMROTATEDRECTD11*
4,1,4,-0.01529,0.02878,0.03188,-0.00677,0.01529,-0.02878,-0.03188,0.00677,-0.01529,0.02878,0.0*
%
%ADD11ROTATEDRECTD11*%

G04:AMPARAMS|DCode=12|XSize=39.37mil|YSize=31.5mil|CornerRadius=0mil|HoleSize=0mil|Usage=FLASHONLY|Rotation=233.000|XOffset=0mil|YOffset=0mil|HoleType=Round|Shape=Rectangle|*
%AMROTATEDRECTD12*
4,1,4,-0.00073,0.02520,0.02442,0.00624,0.00073,-0.02520,-0.02442,-0.00624,-0.00073,0.02520,0.0*
%
%ADD12ROTATEDRECTD12*%

%ADD13R,0.03788X0.03681*%
%ADD14R,0.07874X0.15748*%
%ADD15P,0.06681X4X360.0*%
%ADD16P,0.06681X4X90.0*%
%ADD17R,0.03681X0.03788*%
%ADD21C,0.09252*%
%ADD22R,0.09252X0.09252*%
%ADD23C,0.03543*%
D10*
X194488Y123622D02*
D03*
X393307D02*
D03*
X194488Y322441D02*
D03*
X393307D02*
D03*
D11*
X135604Y112401D02*
D03*
X132050Y107685D02*
D03*
X142712Y121834D02*
D03*
X334423Y112401D02*
D03*
X330869Y107685D02*
D03*
X341531Y121834D02*
D03*
X135604Y311220D02*
D03*
X132050Y306504D02*
D03*
X142712Y320653D02*
D03*
X334423Y311220D02*
D03*
X330869Y306504D02*
D03*
X341531Y320653D02*
D03*
D12*
X143561Y128096D02*
D03*
X126265Y105143D02*
D03*
X137493Y132669D02*
D03*
X120197Y109716D02*
D03*
X342380Y128096D02*
D03*
X325084Y105143D02*
D03*
X336312Y132669D02*
D03*
X319016Y109716D02*
D03*
X143561Y326915D02*
D03*
X126265Y303962D02*
D03*
X137493Y331487D02*
D03*
X120197Y308535D02*
D03*
X342380Y326915D02*
D03*
X325084Y303962D02*
D03*
X336312Y331487D02*
D03*
X319016Y308535D02*
D03*
D13*
X272244Y174667D02*
D03*
Y169034D02*
D03*
X208268Y234706D02*
D03*
Y229073D02*
D03*
X171792Y186114D02*
D03*
Y180481D02*
D03*
X130512Y217262D02*
D03*
Y222895D02*
D03*
X237795Y278013D02*
D03*
Y272380D02*
D03*
X471063Y174667D02*
D03*
Y169034D02*
D03*
X407087Y234706D02*
D03*
Y229073D02*
D03*
X370610Y186114D02*
D03*
Y180481D02*
D03*
X329331Y217262D02*
D03*
Y222895D02*
D03*
X436614Y278013D02*
D03*
Y272380D02*
D03*
X272244Y373486D02*
D03*
Y367853D02*
D03*
X208268Y433525D02*
D03*
Y427892D02*
D03*
X171792Y384933D02*
D03*
Y379300D02*
D03*
X130512Y416081D02*
D03*
Y421714D02*
D03*
X237795Y476832D02*
D03*
Y471199D02*
D03*
X471063Y373486D02*
D03*
Y367853D02*
D03*
X407087Y433525D02*
D03*
Y427892D02*
D03*
X370610Y384933D02*
D03*
Y379300D02*
D03*
X329331Y416081D02*
D03*
Y421714D02*
D03*
X436614Y476832D02*
D03*
Y471199D02*
D03*
D14*
X200394Y180709D02*
D03*
Y200709D02*
D03*
X188583Y180709D02*
D03*
Y200709D02*
D03*
X283071Y208583D02*
D03*
Y188583D02*
D03*
X105905Y190236D02*
D03*
Y210236D02*
D03*
X399213Y180709D02*
D03*
Y200709D02*
D03*
X387402Y180709D02*
D03*
Y200709D02*
D03*
X481890Y208583D02*
D03*
Y188583D02*
D03*
X304724Y190236D02*
D03*
Y210236D02*
D03*
X200394Y379528D02*
D03*
Y399528D02*
D03*
X188583Y379528D02*
D03*
Y399528D02*
D03*
X283071Y407402D02*
D03*
Y387402D02*
D03*
X105905Y389055D02*
D03*
Y409055D02*
D03*
X399213Y379528D02*
D03*
Y399528D02*
D03*
X387402Y379528D02*
D03*
Y399528D02*
D03*
X481890Y407402D02*
D03*
Y387402D02*
D03*
X304724Y389055D02*
D03*
Y409055D02*
D03*
D15*
X227893Y271319D02*
D03*
X222047Y277165D02*
D03*
Y233858D02*
D03*
X216201Y239704D02*
D03*
X268277Y108888D02*
D03*
X262431Y114734D02*
D03*
X267264Y155177D02*
D03*
X261417Y161024D02*
D03*
X426712Y271319D02*
D03*
X420866Y277165D02*
D03*
Y233858D02*
D03*
X415020Y239704D02*
D03*
X467096Y108888D02*
D03*
X461250Y114734D02*
D03*
X466082Y155177D02*
D03*
X460236Y161024D02*
D03*
X227893Y470138D02*
D03*
X222047Y475984D02*
D03*
Y432677D02*
D03*
X216201Y438523D02*
D03*
X268277Y307707D02*
D03*
X262431Y313553D02*
D03*
X267264Y353996D02*
D03*
X261417Y359842D02*
D03*
X426712Y470138D02*
D03*
X420866Y475984D02*
D03*
Y432677D02*
D03*
X415020Y438523D02*
D03*
X467096Y307707D02*
D03*
X461250Y313553D02*
D03*
X466082Y353996D02*
D03*
X460236Y359842D02*
D03*
D16*
X160010Y193474D02*
D03*
X154164Y187628D02*
D03*
X133494Y201408D02*
D03*
X139340Y207254D02*
D03*
X358829Y193474D02*
D03*
X352982Y187628D02*
D03*
X332313Y201408D02*
D03*
X338159Y207254D02*
D03*
X160010Y392293D02*
D03*
X154164Y386447D02*
D03*
X133494Y400226D02*
D03*
X139340Y406073D02*
D03*
X358829Y392293D02*
D03*
X352982Y386447D02*
D03*
X332313Y400226D02*
D03*
X338159Y406073D02*
D03*
D17*
X250454Y113779D02*
D03*
X244821D02*
D03*
X449273D02*
D03*
X443640D02*
D03*
X250454Y312598D02*
D03*
X244821D02*
D03*
X449273D02*
D03*
X443640D02*
D03*
D21*
X168484Y123622D02*
D03*
X367303D02*
D03*
X168484Y322441D02*
D03*
X367303D02*
D03*
D22*
X220492Y123622D02*
D03*
X419311D02*
D03*
X220492Y322441D02*
D03*
X419311D02*
D03*
D23*
X135433Y123622D02*
D03*
X128325Y114189D02*
D03*
X334252Y123622D02*
D03*
X327144Y114189D02*
D03*
X135433Y322441D02*
D03*
X128325Y313008D02*
D03*
X334252Y322441D02*
D03*
X327144Y313008D02*
D03*
M02*
