G04*
G04 #@! TF.GenerationSoftware,Altium Limited,Altium Designer,23.1.1 (15)*
G04*
G04 Layer_Physical_Order=1*
G04 Layer_Color=255*
%FSLAX25Y25*%
%MOIN*%
G70*
G04*
G04 #@! TF.SameCoordinates,F91F9CD3-C7A0-4A43-B12F-26B318A194AE*
G04*
G04*
G04 #@! TF.FilePolarity,Positive*
G04*
G01*
G75*
%ADD10R,0.15590X0.15590*%
G04:AMPARAMS|DCode=11|XSize=27.56mil|YSize=59.06mil|CornerRadius=0mil|HoleSize=0mil|Usage=FLASHONLY|Rotation=233.000|XOffset=0mil|YOffset=0mil|HoleType=Round|Shape=Rectangle|*
%AMROTATEDRECTD11*
4,1,4,-0.01529,0.02878,0.03188,-0.00677,0.01529,-0.02878,-0.03188,0.00677,-0.01529,0.02878,0.0*
%
%ADD11ROTATEDRECTD11*%

G04:AMPARAMS|DCode=12|XSize=39.37mil|YSize=31.5mil|CornerRadius=0mil|HoleSize=0mil|Usage=FLASHONLY|Rotation=233.000|XOffset=0mil|YOffset=0mil|HoleType=Round|Shape=Rectangle|*
%AMROTATEDRECTD12*
4,1,4,-0.00073,0.02520,0.02442,0.00624,0.00073,-0.02520,-0.02442,-0.00624,-0.00073,0.02520,0.0*
%
%ADD12ROTATEDRECTD12*%

%ADD13R,0.03788X0.03681*%
%ADD14R,0.07874X0.15748*%
%ADD15P,0.06681X4X360.0*%
%ADD16P,0.06681X4X90.0*%
%ADD17R,0.03681X0.03788*%
%ADD18C,0.01000*%
%ADD19C,0.00000*%
%ADD20C,0.01968*%
%ADD21C,0.09252*%
%ADD22R,0.09252X0.09252*%
%ADD23C,0.03543*%
%ADD24C,0.05000*%
G36*
X487795Y308682D02*
X487320Y308526D01*
X442669Y369124D01*
X442894Y369571D01*
X456712D01*
X456847Y369598D01*
X456984Y369608D01*
X458015Y369893D01*
X458137Y369954D01*
X458267Y370001D01*
X459184Y370550D01*
X459286Y370642D01*
X459398Y370722D01*
X460136Y371496D01*
X460210Y371612D01*
X460297Y371718D01*
X460801Y372661D01*
X460841Y372792D01*
X460897Y372918D01*
X461132Y373961D01*
X461135Y374098D01*
X461156Y374234D01*
X461104Y375302D01*
X461071Y375435D01*
X461054Y375572D01*
X460720Y376588D01*
X460652Y376707D01*
X460600Y376834D01*
X460303Y377279D01*
X434504Y415977D01*
X434740Y416418D01*
X445181D01*
X445320Y416445D01*
X445461Y416457D01*
X446519Y416759D01*
X446645Y416823D01*
X446777Y416873D01*
X447712Y417453D01*
X447816Y417549D01*
X447929Y417633D01*
X448670Y418447D01*
X448742Y418569D01*
X448829Y418680D01*
X449318Y419666D01*
X449354Y419803D01*
X449407Y419934D01*
X449607Y421016D01*
X449605Y421158D01*
X449619Y421298D01*
X449515Y422394D01*
X449474Y422529D01*
X449449Y422668D01*
X449049Y423693D01*
X448973Y423812D01*
X448911Y423939D01*
X448578Y424377D01*
X448578Y424377D01*
X431885Y446330D01*
X431885Y446330D01*
X431511Y446822D01*
X431392Y446927D01*
X431283Y447041D01*
X430268Y447749D01*
X430166Y447793D01*
X430219Y447920D01*
Y448710D01*
X429917Y449439D01*
X429359Y449997D01*
X428629Y450299D01*
X428433D01*
X428419Y450320D01*
Y451110D01*
X428117Y451839D01*
X427559Y452397D01*
X426829Y452699D01*
X426519D01*
Y453410D01*
X426217Y454139D01*
X425659Y454697D01*
X424929Y454999D01*
X424819D01*
Y455710D01*
X424517Y456439D01*
X423959Y456997D01*
X423229Y457299D01*
X423119D01*
Y458010D01*
X422817Y458739D01*
X422259Y459297D01*
X421529Y459599D01*
X420740D01*
X420421Y460008D01*
X420262Y460478D01*
X420220Y460551D01*
X420196Y460631D01*
X419893Y461200D01*
X419840Y461264D01*
X419803Y461339D01*
X419608Y461595D01*
X419608Y461595D01*
X399915Y487347D01*
X400137Y487795D01*
X404134D01*
X487795Y487795D01*
Y308682D01*
D02*
G37*
G36*
X288976D02*
X288501Y308526D01*
X243850Y369124D01*
X244075Y369571D01*
X257893D01*
X258028Y369598D01*
X258165Y369608D01*
X259196Y369893D01*
X259318Y369954D01*
X259448Y370001D01*
X260365Y370550D01*
X260467Y370642D01*
X260579Y370722D01*
X261317Y371496D01*
X261391Y371612D01*
X261478Y371718D01*
X261982Y372661D01*
X262022Y372792D01*
X262078Y372918D01*
X262313Y373961D01*
X262317Y374098D01*
X262337Y374234D01*
X262285Y375302D01*
X262252Y375435D01*
X262235Y375572D01*
X261901Y376588D01*
X261833Y376707D01*
X261781Y376834D01*
X261484Y377279D01*
X235685Y415977D01*
X235921Y416418D01*
X246362D01*
X246501Y416445D01*
X246642Y416457D01*
X247700Y416759D01*
X247826Y416823D01*
X247958Y416873D01*
X248893Y417453D01*
X248997Y417549D01*
X249110Y417633D01*
X249851Y418447D01*
X249923Y418569D01*
X250010Y418680D01*
X250499Y419666D01*
X250535Y419803D01*
X250588Y419934D01*
X250788Y421016D01*
X250786Y421158D01*
X250800Y421298D01*
X250696Y422394D01*
X250655Y422529D01*
X250631Y422668D01*
X250230Y423693D01*
X250154Y423812D01*
X250092Y423939D01*
X249759Y424377D01*
X249759Y424377D01*
X233066Y446330D01*
X233066Y446330D01*
X232692Y446822D01*
X232573Y446927D01*
X232464Y447041D01*
X231450Y447749D01*
X231347Y447793D01*
X231400Y447920D01*
Y448710D01*
X231098Y449439D01*
X230540Y449997D01*
X229810Y450299D01*
X229614D01*
X229600Y450320D01*
Y451110D01*
X229298Y451839D01*
X228740Y452397D01*
X228010Y452699D01*
X227700D01*
Y453410D01*
X227398Y454139D01*
X226840Y454697D01*
X226110Y454999D01*
X226000D01*
Y455710D01*
X225698Y456439D01*
X225140Y456997D01*
X224410Y457299D01*
X224300D01*
Y458010D01*
X223998Y458739D01*
X223440Y459297D01*
X222710Y459599D01*
X221921D01*
X221602Y460008D01*
X221443Y460478D01*
X221402Y460551D01*
X221377Y460631D01*
X221074Y461200D01*
X221021Y461264D01*
X220985Y461339D01*
X220789Y461595D01*
X220789Y461595D01*
X201096Y487347D01*
X201318Y487795D01*
X205315D01*
X288976Y487795D01*
Y308682D01*
D02*
G37*
G36*
X386723Y487347D02*
X367030Y461595D01*
X366715Y461183D01*
X366656Y461064D01*
X366582Y460953D01*
X366187Y459994D01*
X366161Y459863D01*
X366119Y459737D01*
X366058Y459268D01*
X365353D01*
X364624Y458966D01*
X364066Y458407D01*
X363764Y457678D01*
Y456968D01*
X363653D01*
X362924Y456666D01*
X362366Y456107D01*
X362064Y455378D01*
Y454668D01*
X361953D01*
X361224Y454366D01*
X360666Y453807D01*
X360364Y453078D01*
Y452368D01*
X360053D01*
X359324Y452066D01*
X358766Y451507D01*
X358464Y450778D01*
Y449989D01*
X358450Y449968D01*
X358253D01*
X357524Y449666D01*
X356966Y449107D01*
X356664Y448378D01*
Y447589D01*
X356757Y447363D01*
X356739Y447355D01*
X355725Y446647D01*
X355616Y446533D01*
X355497Y446428D01*
X355123Y445936D01*
X355123Y445936D01*
X338430Y423983D01*
X338097Y423545D01*
X338035Y423418D01*
X337959Y423299D01*
X337558Y422274D01*
X337534Y422135D01*
X337493Y422000D01*
X337389Y420904D01*
X337403Y420764D01*
X337401Y420622D01*
X337601Y419540D01*
X337653Y419409D01*
X337690Y419273D01*
X338179Y418287D01*
X338265Y418175D01*
X338338Y418054D01*
X339079Y417240D01*
X339192Y417156D01*
X339296Y417059D01*
X340231Y416479D01*
X340363Y416429D01*
X340489Y416365D01*
X341547Y416063D01*
X341688Y416052D01*
X341827Y416024D01*
X352268D01*
X352504Y415583D01*
X326705Y376885D01*
X326408Y376441D01*
X326356Y376313D01*
X326288Y376194D01*
X325954Y375178D01*
X325937Y375042D01*
X325904Y374908D01*
X325852Y373840D01*
X325872Y373705D01*
X325876Y373567D01*
X326111Y372524D01*
X326167Y372398D01*
X326206Y372267D01*
X326711Y371324D01*
X326798Y371218D01*
X326872Y371102D01*
X327609Y370328D01*
X327722Y370249D01*
X327824Y370157D01*
X328741Y369607D01*
X328871Y369561D01*
X328993Y369499D01*
X330024Y369214D01*
X330161Y369204D01*
X330296Y369177D01*
X344114D01*
X344339Y368731D01*
X299294Y307598D01*
X298819Y307754D01*
Y427721D01*
X314567D01*
X314957Y427798D01*
X315288Y428019D01*
X315509Y428350D01*
X315586Y428740D01*
Y487795D01*
X386501D01*
X386723Y487347D01*
D02*
G37*
G36*
X187904D02*
X168211Y461595D01*
X167896Y461183D01*
X167837Y461064D01*
X167763Y460953D01*
X167368Y459994D01*
X167342Y459863D01*
X167300Y459737D01*
X167239Y459268D01*
X166534D01*
X165805Y458966D01*
X165247Y458407D01*
X164945Y457678D01*
Y456968D01*
X164834D01*
X164105Y456666D01*
X163547Y456107D01*
X163245Y455378D01*
Y454668D01*
X163134D01*
X162405Y454366D01*
X161847Y453807D01*
X161545Y453078D01*
Y452368D01*
X161234D01*
X160505Y452066D01*
X159947Y451507D01*
X159645Y450778D01*
Y449989D01*
X159631Y449968D01*
X159434D01*
X158705Y449666D01*
X158147Y449107D01*
X157845Y448378D01*
Y447589D01*
X157939Y447363D01*
X157921Y447355D01*
X156906Y446647D01*
X156797Y446533D01*
X156678Y446428D01*
X156304Y445936D01*
X156304Y445936D01*
X139611Y423983D01*
X139278Y423545D01*
X139216Y423418D01*
X139140Y423299D01*
X138740Y422274D01*
X138715Y422135D01*
X138674Y422000D01*
X138570Y420904D01*
X138584Y420764D01*
X138582Y420622D01*
X138782Y419540D01*
X138835Y419409D01*
X138871Y419273D01*
X139360Y418287D01*
X139447Y418175D01*
X139519Y418054D01*
X140260Y417240D01*
X140373Y417156D01*
X140477Y417059D01*
X141412Y416479D01*
X141544Y416429D01*
X141670Y416365D01*
X142728Y416063D01*
X142869Y416052D01*
X143008Y416024D01*
X153449D01*
X153685Y415583D01*
X127886Y376885D01*
X127589Y376441D01*
X127537Y376313D01*
X127469Y376194D01*
X127135Y375178D01*
X127118Y375042D01*
X127085Y374908D01*
X127033Y373840D01*
X127053Y373705D01*
X127057Y373567D01*
X127292Y372524D01*
X127348Y372398D01*
X127388Y372267D01*
X127892Y371324D01*
X127979Y371218D01*
X128053Y371102D01*
X128791Y370328D01*
X128903Y370249D01*
X129005Y370157D01*
X129922Y369607D01*
X130052Y369561D01*
X130174Y369499D01*
X131205Y369214D01*
X131342Y369204D01*
X131477Y369177D01*
X145295D01*
X145520Y368731D01*
X100475Y307598D01*
X100000Y307754D01*
Y427721D01*
X115748D01*
X116138Y427798D01*
X116469Y428019D01*
X116690Y428350D01*
X116768Y428740D01*
Y487795D01*
X187682D01*
X187904Y487347D01*
D02*
G37*
G36*
X411731Y455572D02*
X412106Y455081D01*
X412224Y454977D01*
X412334Y454863D01*
X413349Y454158D01*
X413494Y454095D01*
X413633Y454021D01*
X413678Y454007D01*
X413921Y453410D01*
X413750Y452999D01*
Y452209D01*
X414052Y451480D01*
X414611Y450922D01*
X415340Y450620D01*
X415550D01*
Y449909D01*
X415852Y449180D01*
X416411Y448622D01*
X417140Y448320D01*
X417250D01*
Y447609D01*
X417553Y446880D01*
X418111Y446322D01*
X418840Y446020D01*
X418950D01*
Y445309D01*
X419252Y444580D01*
X419811Y444022D01*
X420540Y443720D01*
X420850D01*
Y443109D01*
X421152Y442380D01*
X421711Y441822D01*
X422440Y441520D01*
X423229D01*
X423408Y441289D01*
X423708Y440723D01*
X423761Y440658D01*
X423797Y440583D01*
X423992Y440328D01*
X434292Y426782D01*
X434069Y426334D01*
X424558D01*
X424460Y426314D01*
X424359D01*
X423598Y426163D01*
X423506Y426125D01*
X423407Y426105D01*
X422690Y425808D01*
X422607Y425752D01*
X422514Y425714D01*
X421869Y425283D01*
X421798Y425212D01*
X421714Y425156D01*
X421166Y424608D01*
X421110Y424524D01*
X421039Y424453D01*
X420608Y423808D01*
X420570Y423715D01*
X420514Y423632D01*
X420217Y422915D01*
X420197Y422817D01*
X420159Y422724D01*
X420008Y421963D01*
Y421862D01*
X419988Y421764D01*
Y421086D01*
X420003Y421012D01*
X419999Y420937D01*
X420084Y420363D01*
X420109Y420292D01*
X420117Y420217D01*
X420285Y419662D01*
X420320Y419595D01*
X420339Y419522D01*
X420586Y418997D01*
X420631Y418937D01*
X420660Y418867D01*
X420821Y418626D01*
X420821Y418626D01*
X446619Y379928D01*
X446383Y379487D01*
X432140D01*
X432041Y379467D01*
X431941D01*
X431180Y379316D01*
X431087Y379277D01*
X430989Y379258D01*
X430272Y378961D01*
X430189Y378905D01*
X430096Y378867D01*
X429451Y378436D01*
X429380Y378365D01*
X429296Y378309D01*
X428748Y377760D01*
X428692Y377677D01*
X428621Y377606D01*
X428190Y376961D01*
X428151Y376868D01*
X428095Y376784D01*
X427799Y376068D01*
X427779Y375969D01*
X427741Y375876D01*
X427589Y375116D01*
Y375015D01*
X427570Y374917D01*
Y374215D01*
X427586Y374135D01*
X427583Y374054D01*
X427682Y373435D01*
X427710Y373358D01*
X427720Y373277D01*
X427916Y372682D01*
X427956Y372611D01*
X427978Y372533D01*
X428266Y371975D01*
X428317Y371912D01*
X428352Y371838D01*
X428538Y371585D01*
X481826Y299265D01*
X481601Y298819D01*
X305697D01*
X305471Y299265D01*
X358470Y371192D01*
X358656Y371444D01*
X358691Y371518D01*
X358742Y371582D01*
X359029Y372139D01*
X359052Y372217D01*
X359092Y372288D01*
X359288Y372884D01*
X359298Y372965D01*
X359326Y373041D01*
X359425Y373660D01*
X359422Y373742D01*
X359438Y373821D01*
Y374523D01*
X359419Y374622D01*
Y374722D01*
X359267Y375483D01*
X359229Y375576D01*
X359209Y375674D01*
X358912Y376391D01*
X358857Y376474D01*
X358818Y376567D01*
X358387Y377212D01*
X358316Y377283D01*
X358260Y377367D01*
X357712Y377915D01*
X357628Y377971D01*
X357557Y378042D01*
X356912Y378473D01*
X356819Y378512D01*
X356736Y378567D01*
X356019Y378864D01*
X355921Y378884D01*
X355828Y378922D01*
X355067Y379074D01*
X354967D01*
X354868Y379093D01*
X340624D01*
X340388Y379534D01*
X366187Y418232D01*
X366187Y418232D01*
X366348Y418473D01*
X366377Y418543D01*
X366422Y418604D01*
X366669Y419128D01*
X366688Y419201D01*
X366723Y419268D01*
X366891Y419823D01*
X366898Y419898D01*
X366924Y419969D01*
X367009Y420543D01*
X367005Y420618D01*
X367020Y420692D01*
Y421370D01*
X367000Y421469D01*
Y421569D01*
X366849Y422330D01*
X366810Y422423D01*
X366791Y422521D01*
X366494Y423238D01*
X366438Y423322D01*
X366400Y423414D01*
X365969Y424059D01*
X365898Y424130D01*
X365842Y424214D01*
X365293Y424762D01*
X365210Y424818D01*
X365139Y424889D01*
X364494Y425320D01*
X364401Y425359D01*
X364317Y425415D01*
X363601Y425711D01*
X363502Y425731D01*
X363409Y425770D01*
X362649Y425921D01*
X362548D01*
X362450Y425940D01*
X352938D01*
X352716Y426388D01*
X363016Y439934D01*
X363211Y440189D01*
X363247Y440264D01*
X363300Y440329D01*
X363600Y440896D01*
X363624Y440975D01*
X363666Y441048D01*
X363871Y441656D01*
X363881Y441738D01*
X363911Y441816D01*
X363985Y442272D01*
X364243D01*
X364972Y442575D01*
X365530Y443133D01*
X365832Y443862D01*
Y444472D01*
X366143D01*
X366872Y444774D01*
X367430Y445333D01*
X367732Y446062D01*
Y446772D01*
X367843D01*
X368572Y447075D01*
X369130Y447633D01*
X369432Y448362D01*
Y449072D01*
X369543D01*
X370272Y449374D01*
X370830Y449933D01*
X371132Y450662D01*
Y451372D01*
X371343D01*
X372072Y451675D01*
X372630Y452233D01*
X372932Y452962D01*
Y453751D01*
X372834Y453989D01*
X373352Y454205D01*
X373463Y454279D01*
X373583Y454339D01*
X374404Y454971D01*
X374492Y455072D01*
X374592Y455160D01*
X374907Y455572D01*
X374907Y455572D01*
X393069Y479322D01*
X393569D01*
X411731Y455572D01*
D02*
G37*
G36*
X212912D02*
X213287Y455081D01*
X213406Y454977D01*
X213515Y454863D01*
X214530Y454158D01*
X214675Y454095D01*
X214814Y454021D01*
X214859Y454007D01*
X215102Y453410D01*
X214932Y452999D01*
Y452209D01*
X215234Y451480D01*
X215792Y450922D01*
X216521Y450620D01*
X216732D01*
Y449909D01*
X217034Y449180D01*
X217592Y448622D01*
X218321Y448320D01*
X218431D01*
Y447609D01*
X218734Y446880D01*
X219292Y446322D01*
X220021Y446020D01*
X220131D01*
Y445309D01*
X220434Y444580D01*
X220992Y444022D01*
X221721Y443720D01*
X222031D01*
Y443109D01*
X222334Y442380D01*
X222892Y441822D01*
X223621Y441520D01*
X224410D01*
X224589Y441289D01*
X224889Y440723D01*
X224942Y440658D01*
X224978Y440583D01*
X225173Y440328D01*
X235473Y426782D01*
X235251Y426334D01*
X225739D01*
X225641Y426314D01*
X225540D01*
X224780Y426163D01*
X224687Y426125D01*
X224588Y426105D01*
X223871Y425808D01*
X223788Y425752D01*
X223695Y425714D01*
X223050Y425283D01*
X222979Y425212D01*
X222896Y425156D01*
X222347Y424608D01*
X222291Y424524D01*
X222220Y424453D01*
X221789Y423808D01*
X221751Y423715D01*
X221695Y423632D01*
X221398Y422915D01*
X221378Y422817D01*
X221340Y422724D01*
X221189Y421963D01*
Y421862D01*
X221169Y421764D01*
Y421086D01*
X221184Y421012D01*
X221180Y420937D01*
X221265Y420363D01*
X221290Y420292D01*
X221298Y420217D01*
X221466Y419662D01*
X221501Y419595D01*
X221520Y419522D01*
X221767Y418997D01*
X221812Y418937D01*
X221841Y418867D01*
X222002Y418626D01*
X222002Y418626D01*
X247800Y379928D01*
X247565Y379487D01*
X233321D01*
X233222Y379467D01*
X233122D01*
X232361Y379316D01*
X232268Y379277D01*
X232170Y379258D01*
X231453Y378961D01*
X231369Y378905D01*
X231277Y378867D01*
X230632Y378436D01*
X230561Y378365D01*
X230477Y378309D01*
X229929Y377760D01*
X229873Y377677D01*
X229802Y377606D01*
X229371Y376961D01*
X229332Y376868D01*
X229277Y376784D01*
X228980Y376068D01*
X228960Y375969D01*
X228922Y375876D01*
X228770Y375116D01*
Y375015D01*
X228751Y374917D01*
Y374215D01*
X228767Y374135D01*
X228764Y374054D01*
X228863Y373435D01*
X228891Y373358D01*
X228901Y373277D01*
X229097Y372682D01*
X229137Y372611D01*
X229159Y372533D01*
X229447Y371975D01*
X229498Y371912D01*
X229533Y371838D01*
X229719Y371585D01*
X283008Y299265D01*
X282782Y298819D01*
X106878D01*
X106653Y299265D01*
X159651Y371192D01*
X159837Y371444D01*
X159872Y371518D01*
X159923Y371582D01*
X160211Y372139D01*
X160233Y372217D01*
X160273Y372288D01*
X160469Y372884D01*
X160479Y372965D01*
X160507Y373041D01*
X160607Y373660D01*
X160603Y373742D01*
X160619Y373821D01*
Y374523D01*
X160600Y374622D01*
Y374722D01*
X160448Y375483D01*
X160410Y375576D01*
X160390Y375674D01*
X160093Y376391D01*
X160038Y376474D01*
X159999Y376567D01*
X159568Y377212D01*
X159497Y377283D01*
X159441Y377367D01*
X158893Y377915D01*
X158809Y377971D01*
X158738Y378042D01*
X158093Y378473D01*
X158001Y378512D01*
X157917Y378567D01*
X157200Y378864D01*
X157102Y378884D01*
X157009Y378922D01*
X156248Y379074D01*
X156148D01*
X156049Y379093D01*
X141806D01*
X141570Y379534D01*
X167368Y418232D01*
X167368Y418232D01*
X167529Y418473D01*
X167558Y418543D01*
X167603Y418604D01*
X167850Y419128D01*
X167869Y419201D01*
X167904Y419268D01*
X168072Y419823D01*
X168080Y419898D01*
X168105Y419969D01*
X168190Y420543D01*
X168186Y420618D01*
X168201Y420692D01*
Y421370D01*
X168181Y421469D01*
Y421569D01*
X168030Y422330D01*
X167992Y422423D01*
X167972Y422521D01*
X167675Y423238D01*
X167619Y423322D01*
X167581Y423414D01*
X167150Y424059D01*
X167079Y424130D01*
X167023Y424214D01*
X166474Y424762D01*
X166391Y424818D01*
X166320Y424889D01*
X165675Y425320D01*
X165582Y425359D01*
X165499Y425415D01*
X164782Y425711D01*
X164683Y425731D01*
X164591Y425770D01*
X163830Y425921D01*
X163729D01*
X163631Y425940D01*
X154119D01*
X153897Y426388D01*
X164197Y439934D01*
X164392Y440189D01*
X164428Y440264D01*
X164481Y440329D01*
X164781Y440896D01*
X164805Y440975D01*
X164847Y441048D01*
X165052Y441656D01*
X165062Y441738D01*
X165092Y441816D01*
X165166Y442272D01*
X165424D01*
X166153Y442575D01*
X166711Y443133D01*
X167013Y443862D01*
Y444472D01*
X167324D01*
X168053Y444774D01*
X168611Y445333D01*
X168913Y446062D01*
Y446772D01*
X169024D01*
X169753Y447075D01*
X170311Y447633D01*
X170613Y448362D01*
Y449072D01*
X170724D01*
X171453Y449374D01*
X172011Y449933D01*
X172313Y450662D01*
Y451372D01*
X172524D01*
X173253Y451675D01*
X173811Y452233D01*
X174113Y452962D01*
Y453751D01*
X174015Y453989D01*
X174533Y454205D01*
X174644Y454279D01*
X174764Y454339D01*
X175585Y454971D01*
X175673Y455072D01*
X175773Y455160D01*
X176088Y455572D01*
X176088Y455572D01*
X194250Y479322D01*
X194750D01*
X212912Y455572D01*
D02*
G37*
G36*
X487795Y109863D02*
X487320Y109707D01*
X442669Y170306D01*
X442894Y170752D01*
X456712D01*
X456847Y170779D01*
X456984Y170789D01*
X458015Y171074D01*
X458137Y171135D01*
X458267Y171182D01*
X459184Y171731D01*
X459286Y171824D01*
X459398Y171903D01*
X460136Y172677D01*
X460210Y172793D01*
X460297Y172899D01*
X460801Y173842D01*
X460841Y173973D01*
X460897Y174099D01*
X461132Y175142D01*
X461135Y175279D01*
X461156Y175415D01*
X461104Y176483D01*
X461071Y176617D01*
X461054Y176753D01*
X460720Y177769D01*
X460652Y177888D01*
X460600Y178015D01*
X460303Y178460D01*
X434504Y217158D01*
X434740Y217599D01*
X445181D01*
X445320Y217627D01*
X445461Y217638D01*
X446519Y217940D01*
X446645Y218004D01*
X446777Y218054D01*
X447712Y218634D01*
X447816Y218730D01*
X447929Y218814D01*
X448670Y219629D01*
X448742Y219750D01*
X448829Y219862D01*
X449318Y220848D01*
X449354Y220984D01*
X449407Y221115D01*
X449607Y222197D01*
X449605Y222339D01*
X449619Y222479D01*
X449515Y223575D01*
X449474Y223710D01*
X449449Y223849D01*
X449049Y224874D01*
X448973Y224993D01*
X448911Y225120D01*
X448578Y225558D01*
X448578Y225558D01*
X431885Y247511D01*
X431885Y247511D01*
X431511Y248003D01*
X431392Y248108D01*
X431283Y248222D01*
X430268Y248930D01*
X430166Y248974D01*
X430219Y249101D01*
Y249891D01*
X429917Y250620D01*
X429359Y251178D01*
X428629Y251480D01*
X428433D01*
X428419Y251501D01*
Y252291D01*
X428117Y253020D01*
X427559Y253578D01*
X426829Y253880D01*
X426519D01*
Y254591D01*
X426217Y255320D01*
X425659Y255878D01*
X424929Y256180D01*
X424819D01*
Y256891D01*
X424517Y257620D01*
X423959Y258178D01*
X423229Y258480D01*
X423119D01*
Y259191D01*
X422817Y259920D01*
X422259Y260478D01*
X421529Y260780D01*
X420740D01*
X420421Y261190D01*
X420262Y261660D01*
X420220Y261732D01*
X420196Y261812D01*
X419893Y262381D01*
X419840Y262445D01*
X419803Y262520D01*
X419608Y262776D01*
X419608Y262776D01*
X399915Y288528D01*
X400137Y288976D01*
X404134D01*
X487795Y288976D01*
Y109863D01*
D02*
G37*
G36*
X288976D02*
X288501Y109707D01*
X243850Y170306D01*
X244075Y170752D01*
X257893D01*
X258028Y170779D01*
X258165Y170789D01*
X259196Y171074D01*
X259318Y171135D01*
X259448Y171182D01*
X260365Y171731D01*
X260467Y171824D01*
X260579Y171903D01*
X261317Y172677D01*
X261391Y172793D01*
X261478Y172899D01*
X261982Y173842D01*
X262022Y173973D01*
X262078Y174099D01*
X262313Y175142D01*
X262317Y175279D01*
X262337Y175415D01*
X262285Y176483D01*
X262252Y176617D01*
X262235Y176753D01*
X261901Y177769D01*
X261833Y177888D01*
X261781Y178015D01*
X261484Y178460D01*
X235685Y217158D01*
X235921Y217599D01*
X246362D01*
X246501Y217627D01*
X246642Y217638D01*
X247700Y217940D01*
X247826Y218004D01*
X247958Y218054D01*
X248893Y218634D01*
X248997Y218730D01*
X249110Y218814D01*
X249851Y219629D01*
X249923Y219750D01*
X250010Y219862D01*
X250499Y220848D01*
X250535Y220984D01*
X250588Y221115D01*
X250788Y222197D01*
X250786Y222339D01*
X250800Y222479D01*
X250696Y223575D01*
X250655Y223710D01*
X250631Y223849D01*
X250230Y224874D01*
X250154Y224993D01*
X250092Y225120D01*
X249759Y225558D01*
X249759Y225558D01*
X233066Y247511D01*
X233066Y247511D01*
X232692Y248003D01*
X232573Y248108D01*
X232464Y248222D01*
X231450Y248930D01*
X231347Y248974D01*
X231400Y249101D01*
Y249891D01*
X231098Y250620D01*
X230540Y251178D01*
X229810Y251480D01*
X229614D01*
X229600Y251501D01*
Y252291D01*
X229298Y253020D01*
X228740Y253578D01*
X228010Y253880D01*
X227700D01*
Y254591D01*
X227398Y255320D01*
X226840Y255878D01*
X226110Y256180D01*
X226000D01*
Y256891D01*
X225698Y257620D01*
X225140Y258178D01*
X224410Y258480D01*
X224300D01*
Y259191D01*
X223998Y259920D01*
X223440Y260478D01*
X222710Y260780D01*
X221921D01*
X221602Y261190D01*
X221443Y261660D01*
X221402Y261732D01*
X221377Y261812D01*
X221074Y262381D01*
X221021Y262445D01*
X220985Y262520D01*
X220789Y262776D01*
X220789Y262776D01*
X201096Y288528D01*
X201318Y288976D01*
X205315D01*
X288976Y288976D01*
Y109863D01*
D02*
G37*
G36*
X386723Y288528D02*
X367030Y262776D01*
X366715Y262364D01*
X366656Y262245D01*
X366582Y262134D01*
X366187Y261175D01*
X366161Y261044D01*
X366119Y260918D01*
X366058Y260449D01*
X365353D01*
X364624Y260147D01*
X364066Y259589D01*
X363764Y258859D01*
Y258149D01*
X363653D01*
X362924Y257847D01*
X362366Y257289D01*
X362064Y256559D01*
Y255849D01*
X361953D01*
X361224Y255547D01*
X360666Y254989D01*
X360364Y254259D01*
Y253549D01*
X360053D01*
X359324Y253247D01*
X358766Y252689D01*
X358464Y251959D01*
Y251170D01*
X358450Y251149D01*
X358253D01*
X357524Y250847D01*
X356966Y250289D01*
X356664Y249559D01*
Y248770D01*
X356757Y248544D01*
X356739Y248536D01*
X355725Y247828D01*
X355616Y247714D01*
X355497Y247609D01*
X355123Y247117D01*
X355123Y247117D01*
X338430Y225165D01*
X338097Y224727D01*
X338035Y224600D01*
X337959Y224480D01*
X337558Y223456D01*
X337534Y223316D01*
X337493Y223181D01*
X337389Y222085D01*
X337403Y221945D01*
X337401Y221804D01*
X337601Y220722D01*
X337653Y220590D01*
X337690Y220454D01*
X338179Y219468D01*
X338265Y219356D01*
X338338Y219235D01*
X339079Y218421D01*
X339192Y218337D01*
X339296Y218240D01*
X340231Y217660D01*
X340363Y217611D01*
X340489Y217546D01*
X341547Y217244D01*
X341688Y217233D01*
X341827Y217205D01*
X352268D01*
X352504Y216764D01*
X326705Y178067D01*
X326408Y177622D01*
X326356Y177495D01*
X326288Y177375D01*
X325954Y176359D01*
X325937Y176223D01*
X325904Y176090D01*
X325852Y175022D01*
X325872Y174886D01*
X325876Y174748D01*
X326111Y173705D01*
X326167Y173580D01*
X326206Y173448D01*
X326711Y172505D01*
X326798Y172399D01*
X326872Y172283D01*
X327609Y171509D01*
X327722Y171430D01*
X327824Y171338D01*
X328741Y170788D01*
X328871Y170742D01*
X328993Y170680D01*
X330024Y170395D01*
X330161Y170385D01*
X330296Y170358D01*
X344114D01*
X344339Y169912D01*
X299294Y108779D01*
X298819Y108935D01*
Y228902D01*
X314567D01*
X314957Y228979D01*
X315288Y229200D01*
X315509Y229531D01*
X315586Y229921D01*
Y288976D01*
X386501D01*
X386723Y288528D01*
D02*
G37*
G36*
X187904D02*
X168211Y262776D01*
X167896Y262364D01*
X167837Y262245D01*
X167763Y262134D01*
X167368Y261175D01*
X167342Y261044D01*
X167300Y260918D01*
X167239Y260449D01*
X166534D01*
X165805Y260147D01*
X165247Y259589D01*
X164945Y258859D01*
Y258149D01*
X164834D01*
X164105Y257847D01*
X163547Y257289D01*
X163245Y256559D01*
Y255849D01*
X163134D01*
X162405Y255547D01*
X161847Y254989D01*
X161545Y254259D01*
Y253549D01*
X161234D01*
X160505Y253247D01*
X159947Y252689D01*
X159645Y251959D01*
Y251170D01*
X159631Y251149D01*
X159434D01*
X158705Y250847D01*
X158147Y250289D01*
X157845Y249559D01*
Y248770D01*
X157939Y248544D01*
X157921Y248536D01*
X156906Y247828D01*
X156797Y247714D01*
X156678Y247609D01*
X156304Y247117D01*
X156304Y247117D01*
X139611Y225165D01*
X139278Y224727D01*
X139216Y224600D01*
X139140Y224480D01*
X138740Y223456D01*
X138715Y223316D01*
X138674Y223181D01*
X138570Y222085D01*
X138584Y221945D01*
X138582Y221804D01*
X138782Y220722D01*
X138835Y220590D01*
X138871Y220454D01*
X139360Y219468D01*
X139447Y219356D01*
X139519Y219235D01*
X140260Y218421D01*
X140373Y218337D01*
X140477Y218240D01*
X141412Y217660D01*
X141544Y217611D01*
X141670Y217546D01*
X142728Y217244D01*
X142869Y217233D01*
X143008Y217205D01*
X153449D01*
X153685Y216764D01*
X127886Y178067D01*
X127589Y177622D01*
X127537Y177495D01*
X127469Y177375D01*
X127135Y176359D01*
X127118Y176223D01*
X127085Y176090D01*
X127033Y175022D01*
X127053Y174886D01*
X127057Y174748D01*
X127292Y173705D01*
X127348Y173580D01*
X127388Y173448D01*
X127892Y172505D01*
X127979Y172399D01*
X128053Y172283D01*
X128791Y171509D01*
X128903Y171430D01*
X129005Y171338D01*
X129922Y170788D01*
X130052Y170742D01*
X130174Y170680D01*
X131205Y170395D01*
X131342Y170385D01*
X131477Y170358D01*
X145295D01*
X145520Y169912D01*
X100475Y108779D01*
X100000Y108935D01*
Y228902D01*
X115748D01*
X116138Y228979D01*
X116469Y229200D01*
X116690Y229531D01*
X116768Y229921D01*
Y288976D01*
X187682D01*
X187904Y288528D01*
D02*
G37*
G36*
X411731Y256753D02*
X412106Y256262D01*
X412224Y256158D01*
X412334Y256044D01*
X413349Y255340D01*
X413494Y255276D01*
X413633Y255202D01*
X413678Y255188D01*
X413921Y254591D01*
X413750Y254180D01*
Y253390D01*
X414052Y252661D01*
X414611Y252103D01*
X415340Y251801D01*
X415550D01*
Y251090D01*
X415852Y250361D01*
X416411Y249803D01*
X417140Y249501D01*
X417250D01*
Y248790D01*
X417553Y248061D01*
X418111Y247503D01*
X418840Y247201D01*
X418950D01*
Y246490D01*
X419252Y245761D01*
X419811Y245203D01*
X420540Y244901D01*
X420850D01*
Y244290D01*
X421152Y243561D01*
X421711Y243003D01*
X422440Y242701D01*
X423229D01*
X423408Y242470D01*
X423708Y241904D01*
X423761Y241839D01*
X423797Y241764D01*
X423992Y241509D01*
X434292Y227963D01*
X434069Y227515D01*
X424558D01*
X424460Y227496D01*
X424359D01*
X423598Y227344D01*
X423506Y227306D01*
X423407Y227286D01*
X422690Y226989D01*
X422607Y226934D01*
X422514Y226895D01*
X421869Y226464D01*
X421798Y226393D01*
X421714Y226337D01*
X421166Y225789D01*
X421110Y225705D01*
X421039Y225634D01*
X420608Y224989D01*
X420570Y224896D01*
X420514Y224813D01*
X420217Y224096D01*
X420197Y223998D01*
X420159Y223905D01*
X420008Y223144D01*
Y223043D01*
X419988Y222945D01*
Y222267D01*
X420003Y222193D01*
X419999Y222118D01*
X420084Y221544D01*
X420109Y221473D01*
X420117Y221398D01*
X420285Y220843D01*
X420320Y220776D01*
X420339Y220703D01*
X420586Y220179D01*
X420631Y220118D01*
X420660Y220048D01*
X420821Y219807D01*
X420821Y219807D01*
X446619Y181109D01*
X446383Y180668D01*
X432140D01*
X432041Y180648D01*
X431941D01*
X431180Y180497D01*
X431087Y180459D01*
X430989Y180439D01*
X430272Y180142D01*
X430189Y180086D01*
X430096Y180048D01*
X429451Y179617D01*
X429380Y179546D01*
X429296Y179490D01*
X428748Y178942D01*
X428692Y178858D01*
X428621Y178787D01*
X428190Y178142D01*
X428151Y178049D01*
X428095Y177966D01*
X427799Y177249D01*
X427779Y177150D01*
X427741Y177058D01*
X427589Y176297D01*
Y176196D01*
X427570Y176098D01*
Y175396D01*
X427586Y175317D01*
X427583Y175235D01*
X427682Y174616D01*
X427710Y174539D01*
X427720Y174459D01*
X427916Y173863D01*
X427956Y173792D01*
X427978Y173714D01*
X428266Y173156D01*
X428317Y173093D01*
X428352Y173019D01*
X428538Y172767D01*
X481826Y100446D01*
X481601Y100000D01*
X305697D01*
X305471Y100446D01*
X358470Y172373D01*
X358656Y172625D01*
X358691Y172699D01*
X358742Y172763D01*
X359029Y173320D01*
X359052Y173398D01*
X359092Y173469D01*
X359288Y174065D01*
X359298Y174146D01*
X359326Y174222D01*
X359425Y174841D01*
X359422Y174923D01*
X359438Y175003D01*
Y175704D01*
X359419Y175803D01*
Y175903D01*
X359267Y176664D01*
X359229Y176757D01*
X359209Y176855D01*
X358912Y177572D01*
X358857Y177655D01*
X358818Y177748D01*
X358387Y178393D01*
X358316Y178464D01*
X358260Y178548D01*
X357712Y179096D01*
X357628Y179152D01*
X357557Y179223D01*
X356912Y179654D01*
X356819Y179693D01*
X356736Y179748D01*
X356019Y180045D01*
X355921Y180065D01*
X355828Y180103D01*
X355067Y180255D01*
X354967D01*
X354868Y180274D01*
X340624D01*
X340388Y180715D01*
X366187Y219413D01*
X366187Y219413D01*
X366348Y219654D01*
X366377Y219724D01*
X366422Y219785D01*
X366669Y220309D01*
X366688Y220382D01*
X366723Y220449D01*
X366891Y221004D01*
X366898Y221079D01*
X366924Y221150D01*
X367009Y221724D01*
X367005Y221799D01*
X367020Y221873D01*
Y222551D01*
X367000Y222650D01*
Y222750D01*
X366849Y223511D01*
X366810Y223604D01*
X366791Y223702D01*
X366494Y224419D01*
X366438Y224503D01*
X366400Y224595D01*
X365969Y225240D01*
X365898Y225311D01*
X365842Y225395D01*
X365293Y225944D01*
X365210Y225999D01*
X365139Y226070D01*
X364494Y226501D01*
X364401Y226540D01*
X364317Y226596D01*
X363601Y226893D01*
X363502Y226912D01*
X363409Y226951D01*
X362649Y227102D01*
X362548D01*
X362450Y227121D01*
X352938D01*
X352716Y227570D01*
X363016Y241115D01*
X363211Y241370D01*
X363247Y241445D01*
X363300Y241510D01*
X363600Y242077D01*
X363624Y242157D01*
X363666Y242229D01*
X363871Y242837D01*
X363881Y242919D01*
X363911Y242997D01*
X363985Y243454D01*
X364243D01*
X364972Y243756D01*
X365530Y244314D01*
X365832Y245043D01*
Y245654D01*
X366143D01*
X366872Y245956D01*
X367430Y246514D01*
X367732Y247243D01*
Y247954D01*
X367843D01*
X368572Y248256D01*
X369130Y248814D01*
X369432Y249543D01*
Y250254D01*
X369543D01*
X370272Y250556D01*
X370830Y251114D01*
X371132Y251843D01*
Y252554D01*
X371343D01*
X372072Y252856D01*
X372630Y253414D01*
X372932Y254143D01*
Y254932D01*
X372834Y255170D01*
X373352Y255386D01*
X373463Y255461D01*
X373583Y255520D01*
X374404Y256152D01*
X374492Y256253D01*
X374592Y256341D01*
X374907Y256753D01*
X374907Y256753D01*
X393069Y280503D01*
X393569D01*
X411731Y256753D01*
D02*
G37*
G36*
X212912D02*
X213287Y256262D01*
X213406Y256158D01*
X213515Y256044D01*
X214530Y255340D01*
X214675Y255276D01*
X214814Y255202D01*
X214859Y255188D01*
X215102Y254591D01*
X214932Y254180D01*
Y253390D01*
X215234Y252661D01*
X215792Y252103D01*
X216521Y251801D01*
X216732D01*
Y251090D01*
X217034Y250361D01*
X217592Y249803D01*
X218321Y249501D01*
X218431D01*
Y248790D01*
X218734Y248061D01*
X219292Y247503D01*
X220021Y247201D01*
X220131D01*
Y246490D01*
X220434Y245761D01*
X220992Y245203D01*
X221721Y244901D01*
X222031D01*
Y244290D01*
X222334Y243561D01*
X222892Y243003D01*
X223621Y242701D01*
X224410D01*
X224589Y242470D01*
X224889Y241904D01*
X224942Y241839D01*
X224978Y241764D01*
X225173Y241509D01*
X235473Y227963D01*
X235251Y227515D01*
X225739D01*
X225641Y227496D01*
X225540D01*
X224780Y227344D01*
X224687Y227306D01*
X224588Y227286D01*
X223871Y226989D01*
X223788Y226934D01*
X223695Y226895D01*
X223050Y226464D01*
X222979Y226393D01*
X222896Y226337D01*
X222347Y225789D01*
X222291Y225705D01*
X222220Y225634D01*
X221789Y224989D01*
X221751Y224896D01*
X221695Y224813D01*
X221398Y224096D01*
X221378Y223998D01*
X221340Y223905D01*
X221189Y223144D01*
Y223043D01*
X221169Y222945D01*
Y222267D01*
X221184Y222193D01*
X221180Y222118D01*
X221265Y221544D01*
X221290Y221473D01*
X221298Y221398D01*
X221466Y220843D01*
X221501Y220776D01*
X221520Y220703D01*
X221767Y220179D01*
X221812Y220118D01*
X221841Y220048D01*
X222002Y219807D01*
X222002Y219807D01*
X247800Y181109D01*
X247565Y180668D01*
X233321D01*
X233222Y180648D01*
X233122D01*
X232361Y180497D01*
X232268Y180459D01*
X232170Y180439D01*
X231453Y180142D01*
X231369Y180086D01*
X231277Y180048D01*
X230632Y179617D01*
X230561Y179546D01*
X230477Y179490D01*
X229929Y178942D01*
X229873Y178858D01*
X229802Y178787D01*
X229371Y178142D01*
X229332Y178049D01*
X229277Y177966D01*
X228980Y177249D01*
X228960Y177150D01*
X228922Y177058D01*
X228770Y176297D01*
Y176196D01*
X228751Y176098D01*
Y175396D01*
X228767Y175317D01*
X228764Y175235D01*
X228863Y174616D01*
X228891Y174539D01*
X228901Y174459D01*
X229097Y173863D01*
X229137Y173792D01*
X229159Y173714D01*
X229447Y173156D01*
X229498Y173093D01*
X229533Y173019D01*
X229719Y172767D01*
X283008Y100446D01*
X282782Y100000D01*
X106878D01*
X106653Y100446D01*
X159651Y172373D01*
X159837Y172625D01*
X159872Y172699D01*
X159923Y172763D01*
X160211Y173320D01*
X160233Y173398D01*
X160273Y173469D01*
X160469Y174065D01*
X160479Y174146D01*
X160507Y174222D01*
X160607Y174841D01*
X160603Y174923D01*
X160619Y175003D01*
Y175704D01*
X160600Y175803D01*
Y175903D01*
X160448Y176664D01*
X160410Y176757D01*
X160390Y176855D01*
X160093Y177572D01*
X160038Y177655D01*
X159999Y177748D01*
X159568Y178393D01*
X159497Y178464D01*
X159441Y178548D01*
X158893Y179096D01*
X158809Y179152D01*
X158738Y179223D01*
X158093Y179654D01*
X158001Y179693D01*
X157917Y179748D01*
X157200Y180045D01*
X157102Y180065D01*
X157009Y180103D01*
X156248Y180255D01*
X156148D01*
X156049Y180274D01*
X141806D01*
X141570Y180715D01*
X167368Y219413D01*
X167368Y219413D01*
X167529Y219654D01*
X167558Y219724D01*
X167603Y219785D01*
X167850Y220309D01*
X167869Y220382D01*
X167904Y220449D01*
X168072Y221004D01*
X168080Y221079D01*
X168105Y221150D01*
X168190Y221724D01*
X168186Y221799D01*
X168201Y221873D01*
Y222551D01*
X168181Y222650D01*
Y222750D01*
X168030Y223511D01*
X167992Y223604D01*
X167972Y223702D01*
X167675Y224419D01*
X167619Y224503D01*
X167581Y224595D01*
X167150Y225240D01*
X167079Y225311D01*
X167023Y225395D01*
X166474Y225944D01*
X166391Y225999D01*
X166320Y226070D01*
X165675Y226501D01*
X165582Y226540D01*
X165499Y226596D01*
X164782Y226893D01*
X164683Y226912D01*
X164591Y226951D01*
X163830Y227102D01*
X163729D01*
X163631Y227121D01*
X154119D01*
X153897Y227570D01*
X164197Y241115D01*
X164392Y241370D01*
X164428Y241445D01*
X164481Y241510D01*
X164781Y242077D01*
X164805Y242157D01*
X164847Y242229D01*
X165052Y242837D01*
X165062Y242919D01*
X165092Y242997D01*
X165166Y243454D01*
X165424D01*
X166153Y243756D01*
X166711Y244314D01*
X167013Y245043D01*
Y245654D01*
X167324D01*
X168053Y245956D01*
X168611Y246514D01*
X168913Y247243D01*
Y247954D01*
X169024D01*
X169753Y248256D01*
X170311Y248814D01*
X170613Y249543D01*
Y250254D01*
X170724D01*
X171453Y250556D01*
X172011Y251114D01*
X172313Y251843D01*
Y252554D01*
X172524D01*
X173253Y252856D01*
X173811Y253414D01*
X174113Y254143D01*
Y254932D01*
X174015Y255170D01*
X174533Y255386D01*
X174644Y255461D01*
X174764Y255520D01*
X175585Y256152D01*
X175673Y256253D01*
X175773Y256341D01*
X176088Y256753D01*
X176088Y256753D01*
X194250Y280503D01*
X194750D01*
X212912Y256753D01*
D02*
G37*
%LPC*%
G36*
X420866Y480739D02*
X416111Y475984D01*
X420866Y471229D01*
X424456Y474819D01*
X424581Y474903D01*
X426070Y476391D01*
X433720D01*
Y473992D01*
Y471699D01*
X436614D01*
X439508D01*
Y473992D01*
Y479673D01*
X433720D01*
Y479450D01*
X425436D01*
X424851Y479334D01*
X424355Y479002D01*
X423479Y478126D01*
X420866Y480739D01*
D02*
G37*
G36*
X439508Y470699D02*
X437114D01*
Y468359D01*
X439508D01*
Y470699D01*
D02*
G37*
G36*
X436114D02*
X433720D01*
Y468359D01*
X436114D01*
Y470699D01*
D02*
G37*
G36*
X480421Y427308D02*
Y424319D01*
X483411D01*
X483183Y425170D01*
X482722Y425968D01*
X482070Y426620D01*
X481272Y427080D01*
X480421Y427308D01*
D02*
G37*
G36*
X479421D02*
X478570Y427080D01*
X477772Y426620D01*
X477121Y425968D01*
X476660Y425170D01*
X476432Y424319D01*
X479421D01*
Y427308D01*
D02*
G37*
G36*
X483411Y423319D02*
X480421D01*
Y420329D01*
X481272Y420557D01*
X482070Y421018D01*
X482722Y421670D01*
X483183Y422468D01*
X483411Y423319D01*
D02*
G37*
G36*
X479421D02*
X476432D01*
X476660Y422468D01*
X477121Y421670D01*
X477772Y421018D01*
X478570Y420557D01*
X479421Y420329D01*
Y423319D01*
D02*
G37*
G36*
X486827Y416276D02*
X482390D01*
Y407902D01*
X486827D01*
Y416276D01*
D02*
G37*
G36*
X481390D02*
X476953D01*
Y407902D01*
X481390D01*
Y416276D01*
D02*
G37*
G36*
X486827Y406902D02*
X482390D01*
Y398528D01*
X486827D01*
Y406902D01*
D02*
G37*
G36*
X481390D02*
X476953D01*
Y398528D01*
X481390D01*
Y406902D01*
D02*
G37*
G36*
X473957Y376326D02*
X471563D01*
Y373986D01*
X473957D01*
Y376326D01*
D02*
G37*
G36*
X470563D02*
X468169D01*
Y373986D01*
X470563D01*
Y376326D01*
D02*
G37*
G36*
X473957Y372986D02*
X471063D01*
X468169D01*
Y370645D01*
Y367175D01*
X462914Y361920D01*
X460236Y364597D01*
X455481Y359842D01*
X460236Y355088D01*
X463577Y358428D01*
X463585Y358430D01*
X464081Y358761D01*
X470332Y365012D01*
X473957D01*
Y370645D01*
Y372986D01*
D02*
G37*
G36*
X426712Y474893D02*
X421957Y470138D01*
X426712Y465383D01*
X428008Y466679D01*
X460675Y434012D01*
Y392323D01*
X460792Y391738D01*
X461123Y391241D01*
X466045Y386320D01*
X466541Y385989D01*
X467126Y385872D01*
X476953D01*
Y378528D01*
X480360D01*
Y360476D01*
X475410Y355526D01*
X469308D01*
X466082Y358751D01*
X461328Y353996D01*
X466082Y349241D01*
X469308Y352467D01*
X476044D01*
X476629Y352583D01*
X477125Y352915D01*
X482971Y358761D01*
X483303Y359257D01*
X483419Y359842D01*
Y378528D01*
X486827D01*
Y396276D01*
X476953D01*
Y388931D01*
X467760D01*
X463734Y392956D01*
Y434646D01*
X463618Y435231D01*
X463286Y435727D01*
X430171Y468842D01*
X431467Y470138D01*
X426712Y474893D01*
D02*
G37*
G36*
X482390Y352505D02*
Y349516D01*
X485379D01*
X485151Y350367D01*
X484691Y351165D01*
X484039Y351816D01*
X483241Y352277D01*
X482390Y352505D01*
D02*
G37*
G36*
X481390D02*
X480539Y352277D01*
X479741Y351816D01*
X479089Y351165D01*
X478628Y350367D01*
X478400Y349516D01*
X481390D01*
Y352505D01*
D02*
G37*
G36*
X485379Y348516D02*
X482390D01*
Y345526D01*
X483241Y345754D01*
X484039Y346215D01*
X484691Y346867D01*
X485151Y347665D01*
X485379Y348516D01*
D02*
G37*
G36*
X481390D02*
X478400D01*
X478628Y347665D01*
X479089Y346867D01*
X479741Y346215D01*
X480539Y345754D01*
X481390Y345526D01*
Y348516D01*
D02*
G37*
G36*
X222047Y480739D02*
X217292Y475984D01*
X222047Y471229D01*
X225637Y474819D01*
X225762Y474903D01*
X227251Y476391D01*
X234901D01*
Y473992D01*
Y471699D01*
X237795D01*
X240689D01*
Y473992D01*
Y479673D01*
X234901D01*
Y479450D01*
X226617D01*
X226032Y479334D01*
X225536Y479002D01*
X224660Y478126D01*
X222047Y480739D01*
D02*
G37*
G36*
X240689Y470699D02*
X238295D01*
Y468359D01*
X240689D01*
Y470699D01*
D02*
G37*
G36*
X237295D02*
X234901D01*
Y468359D01*
X237295D01*
Y470699D01*
D02*
G37*
G36*
X281602Y427308D02*
Y424319D01*
X284592D01*
X284364Y425170D01*
X283903Y425968D01*
X283251Y426620D01*
X282453Y427080D01*
X281602Y427308D01*
D02*
G37*
G36*
X280602D02*
X279751Y427080D01*
X278953Y426620D01*
X278302Y425968D01*
X277841Y425170D01*
X277613Y424319D01*
X280602D01*
Y427308D01*
D02*
G37*
G36*
X284592Y423319D02*
X281602D01*
Y420329D01*
X282453Y420557D01*
X283251Y421018D01*
X283903Y421670D01*
X284364Y422468D01*
X284592Y423319D01*
D02*
G37*
G36*
X280602D02*
X277613D01*
X277841Y422468D01*
X278302Y421670D01*
X278953Y421018D01*
X279751Y420557D01*
X280602Y420329D01*
Y423319D01*
D02*
G37*
G36*
X288008Y416276D02*
X283571D01*
Y407902D01*
X288008D01*
Y416276D01*
D02*
G37*
G36*
X282571D02*
X278134D01*
Y407902D01*
X282571D01*
Y416276D01*
D02*
G37*
G36*
X288008Y406902D02*
X283571D01*
Y398528D01*
X288008D01*
Y406902D01*
D02*
G37*
G36*
X282571D02*
X278134D01*
Y398528D01*
X282571D01*
Y406902D01*
D02*
G37*
G36*
X275138Y376326D02*
X272744D01*
Y373986D01*
X275138D01*
Y376326D01*
D02*
G37*
G36*
X271744D02*
X269350D01*
Y373986D01*
X271744D01*
Y376326D01*
D02*
G37*
G36*
X275138Y372986D02*
X272244D01*
X269350D01*
Y370645D01*
Y367175D01*
X264095Y361920D01*
X261417Y364597D01*
X256662Y359842D01*
X261417Y355088D01*
X264758Y358428D01*
X264766Y358430D01*
X265262Y358761D01*
X271513Y365012D01*
X275138D01*
Y370645D01*
Y372986D01*
D02*
G37*
G36*
X227893Y474893D02*
X223138Y470138D01*
X227893Y465383D01*
X229189Y466679D01*
X261856Y434012D01*
Y392323D01*
X261973Y391738D01*
X262304Y391241D01*
X267226Y386320D01*
X267722Y385989D01*
X268307Y385872D01*
X278134D01*
Y378528D01*
X281541D01*
Y360476D01*
X276591Y355526D01*
X270489D01*
X267264Y358751D01*
X262509Y353996D01*
X267264Y349241D01*
X270489Y352467D01*
X277225D01*
X277810Y352583D01*
X278306Y352915D01*
X284152Y358761D01*
X284484Y359257D01*
X284600Y359842D01*
Y378528D01*
X288008D01*
Y396276D01*
X278134D01*
Y388931D01*
X268941D01*
X264915Y392956D01*
Y434646D01*
X264799Y435231D01*
X264467Y435727D01*
X231352Y468842D01*
X232648Y470138D01*
X227893Y474893D01*
D02*
G37*
G36*
X283571Y352505D02*
Y349516D01*
X286560D01*
X286332Y350367D01*
X285872Y351165D01*
X285220Y351816D01*
X284422Y352277D01*
X283571Y352505D01*
D02*
G37*
G36*
X282571D02*
X281720Y352277D01*
X280922Y351816D01*
X280270Y351165D01*
X279809Y350367D01*
X279581Y349516D01*
X282571D01*
Y352505D01*
D02*
G37*
G36*
X286560Y348516D02*
X283571D01*
Y345526D01*
X284422Y345754D01*
X285220Y346215D01*
X285872Y346867D01*
X286332Y347665D01*
X286560Y348516D01*
D02*
G37*
G36*
X282571D02*
X279581D01*
X279809Y347665D01*
X280270Y346867D01*
X280922Y346215D01*
X281720Y345754D01*
X282571Y345526D01*
Y348516D01*
D02*
G37*
G36*
X322902Y447004D02*
X321980D01*
X321090Y446765D01*
X320292Y446305D01*
X319640Y445653D01*
X319180Y444855D01*
X318941Y443965D01*
Y443043D01*
X319180Y442153D01*
X319640Y441355D01*
X320292Y440703D01*
X321090Y440242D01*
X321980Y440004D01*
X322902D01*
X323792Y440242D01*
X324590Y440703D01*
X325242Y441355D01*
X325702Y442153D01*
X325941Y443043D01*
Y443965D01*
X325702Y444855D01*
X325242Y445653D01*
X324590Y446305D01*
X323792Y446765D01*
X322902Y447004D01*
D02*
G37*
G36*
X332225Y424555D02*
X326437D01*
Y423244D01*
X313446D01*
X312861Y423127D01*
X312365Y422796D01*
X307499Y417929D01*
X299787D01*
Y400181D01*
X309661D01*
Y415766D01*
X314080Y420185D01*
X326437D01*
Y418874D01*
Y413240D01*
X330062D01*
X335317Y407985D01*
X333404Y406073D01*
X338159Y401318D01*
X342914Y406073D01*
X338159Y410827D01*
X337480Y410148D01*
X332225Y415403D01*
Y418874D01*
Y424555D01*
D02*
G37*
G36*
X332313Y404981D02*
X327558Y400226D01*
X328854Y398931D01*
X317870Y387947D01*
X309661D01*
Y397929D01*
X299787D01*
Y380181D01*
X309661D01*
Y384888D01*
X318504D01*
X319089Y385004D01*
X319585Y385336D01*
X331017Y396768D01*
X332313Y395472D01*
X337068Y400226D01*
X332313Y404981D01*
D02*
G37*
G36*
X306169Y374169D02*
X305248D01*
X304358Y373931D01*
X303560Y373470D01*
X302908Y372818D01*
X302447Y372020D01*
X302209Y371130D01*
Y370209D01*
X302447Y369318D01*
X302908Y368520D01*
X303560Y367869D01*
X304358Y367408D01*
X305248Y367169D01*
X306169D01*
X307060Y367408D01*
X307858Y367869D01*
X308509Y368520D01*
X308970Y369318D01*
X309209Y370209D01*
Y371130D01*
X308970Y372020D01*
X308509Y372818D01*
X307858Y373470D01*
X307060Y373931D01*
X306169Y374169D01*
D02*
G37*
G36*
X124083Y447004D02*
X123161D01*
X122271Y446765D01*
X121473Y446305D01*
X120821Y445653D01*
X120361Y444855D01*
X120122Y443965D01*
Y443043D01*
X120361Y442153D01*
X120821Y441355D01*
X121473Y440703D01*
X122271Y440242D01*
X123161Y440004D01*
X124083D01*
X124973Y440242D01*
X125771Y440703D01*
X126423Y441355D01*
X126883Y442153D01*
X127122Y443043D01*
Y443965D01*
X126883Y444855D01*
X126423Y445653D01*
X125771Y446305D01*
X124973Y446765D01*
X124083Y447004D01*
D02*
G37*
G36*
X133406Y424555D02*
X127618D01*
Y423244D01*
X114628D01*
X114042Y423127D01*
X113546Y422796D01*
X108680Y417929D01*
X100969D01*
Y400181D01*
X110843D01*
Y415766D01*
X115261Y420185D01*
X127618D01*
Y418874D01*
Y413240D01*
X131243D01*
X136498Y407985D01*
X134585Y406073D01*
X139340Y401318D01*
X144095Y406073D01*
X139340Y410827D01*
X138661Y410148D01*
X133406Y415403D01*
Y418874D01*
Y424555D01*
D02*
G37*
G36*
X133494Y404981D02*
X128739Y400226D01*
X130035Y398931D01*
X119052Y387947D01*
X110843D01*
Y397929D01*
X100969D01*
Y380181D01*
X110843D01*
Y384888D01*
X119685D01*
X120270Y385004D01*
X120766Y385336D01*
X132198Y396768D01*
X133494Y395472D01*
X138249Y400226D01*
X133494Y404981D01*
D02*
G37*
G36*
X107351Y374169D02*
X106429D01*
X105539Y373931D01*
X104741Y373470D01*
X104089Y372818D01*
X103628Y372020D01*
X103390Y371130D01*
Y370209D01*
X103628Y369318D01*
X104089Y368520D01*
X104741Y367869D01*
X105539Y367408D01*
X106429Y367169D01*
X107351D01*
X108241Y367408D01*
X109039Y367869D01*
X109690Y368520D01*
X110151Y369318D01*
X110390Y370209D01*
Y371130D01*
X110151Y372020D01*
X109690Y372818D01*
X109039Y373470D01*
X108241Y373931D01*
X107351Y374169D01*
D02*
G37*
G36*
X415020Y443278D02*
X411709Y439967D01*
X411553Y439936D01*
X411057Y439605D01*
X407818Y436366D01*
X404193D01*
Y430685D01*
Y428392D01*
X407087D01*
X409981D01*
Y430685D01*
Y434203D01*
X412283Y436505D01*
X415020Y433769D01*
X419775Y438523D01*
X415020Y443278D01*
D02*
G37*
G36*
X420866Y437432D02*
X416111Y432677D01*
X416915Y431873D01*
X410926Y425885D01*
X410595Y425388D01*
X410478Y424803D01*
Y422484D01*
X406453Y418459D01*
X403150D01*
X402564Y418342D01*
X402068Y418011D01*
X398131Y414074D01*
X397800Y413577D01*
X397683Y412992D01*
Y408402D01*
X394276D01*
Y401057D01*
X392339D01*
Y408402D01*
X388931D01*
Y410621D01*
X389551Y410979D01*
X390202Y411630D01*
X390663Y412429D01*
X390902Y413319D01*
Y414240D01*
X390663Y415131D01*
X390202Y415929D01*
X389551Y416580D01*
X388753Y417041D01*
X387862Y417279D01*
X386941D01*
X386051Y417041D01*
X385252Y416580D01*
X384601Y415929D01*
X384140Y415131D01*
X383902Y414240D01*
Y413319D01*
X384140Y412429D01*
X384601Y411630D01*
X385252Y410979D01*
X385872Y410621D01*
Y408402D01*
X382465D01*
Y401057D01*
X366063D01*
X365478Y400941D01*
X364982Y400609D01*
X360125Y395752D01*
X358829Y397048D01*
X354074Y392293D01*
X358829Y387538D01*
X363583Y392293D01*
X362287Y393589D01*
X366697Y397998D01*
X382465D01*
Y390653D01*
X392339D01*
Y397998D01*
X394276D01*
Y390653D01*
X404150D01*
Y397998D01*
X407122D01*
X417368Y387752D01*
Y346063D01*
X417485Y345478D01*
X417816Y344982D01*
X428195Y334603D01*
Y306254D01*
X370319D01*
X365219Y311354D01*
X364722Y311685D01*
X364137Y311802D01*
X337603D01*
X332698Y315498D01*
X330366Y312404D01*
X329886Y312598D01*
X329939Y313033D01*
X329838Y313755D01*
X329553Y314427D01*
X329103Y315002D01*
X328520Y315441D01*
X327844Y315715D01*
X327119Y315804D01*
X326397Y315702D01*
X325725Y315417D01*
X325150Y314968D01*
X324711Y314385D01*
X324437Y313708D01*
X324348Y312984D01*
X324450Y312261D01*
X324735Y311589D01*
X325184Y311014D01*
X325767Y310575D01*
X326444Y310302D01*
X327168Y310213D01*
X327891Y310314D01*
X328294Y310486D01*
X328613Y310078D01*
X326483Y307251D01*
X326281Y306983D01*
X325837Y307111D01*
X324814Y307882D01*
X323329Y305911D01*
X325385Y304361D01*
X327441Y302812D01*
X328725Y304516D01*
X329371Y304655D01*
X332595Y302226D01*
X335457Y306024D01*
X329380Y310603D01*
X329192Y310949D01*
X329271Y311226D01*
X329444Y311455D01*
X329980Y311542D01*
X330072Y311522D01*
X336149Y306942D01*
X337506Y308743D01*
X363504D01*
X368604Y303643D01*
X369100Y303311D01*
X369685Y303195D01*
X464114D01*
X464699Y303311D01*
X465195Y303643D01*
X465800Y304248D01*
X467096Y302952D01*
X471851Y307707D01*
X467096Y312462D01*
X462341Y307707D01*
X463295Y306754D01*
X463087Y306254D01*
X431254D01*
Y335236D01*
X431137Y335822D01*
X430806Y336318D01*
X420427Y346696D01*
Y388386D01*
X420311Y388971D01*
X419979Y389467D01*
X408837Y400609D01*
X408341Y400941D01*
X407756Y401057D01*
X404150D01*
Y408402D01*
X400742D01*
Y412359D01*
X403783Y415400D01*
X407087D01*
X407672Y415516D01*
X408168Y415848D01*
X413089Y420769D01*
X413421Y421265D01*
X413537Y421850D01*
Y424170D01*
X419078Y429710D01*
X420866Y427922D01*
X425621Y432677D01*
X420866Y437432D01*
D02*
G37*
G36*
X409981Y427392D02*
X407587D01*
Y425051D01*
X409981D01*
Y427392D01*
D02*
G37*
G36*
X406587D02*
X404193D01*
Y425051D01*
X406587D01*
Y427392D01*
D02*
G37*
G36*
X410539Y415497D02*
Y412508D01*
X413529D01*
X413301Y413359D01*
X412840Y414157D01*
X412188Y414809D01*
X411390Y415269D01*
X410539Y415497D01*
D02*
G37*
G36*
X409539D02*
X408688Y415269D01*
X407890Y414809D01*
X407239Y414157D01*
X406778Y413359D01*
X406550Y412508D01*
X409539D01*
Y415497D01*
D02*
G37*
G36*
X377075Y414513D02*
Y411524D01*
X380064D01*
X379836Y412375D01*
X379376Y413173D01*
X378724Y413824D01*
X377926Y414285D01*
X377075Y414513D01*
D02*
G37*
G36*
X376075D02*
X375224Y414285D01*
X374426Y413824D01*
X373774Y413173D01*
X373313Y412375D01*
X373085Y411524D01*
X376075D01*
Y414513D01*
D02*
G37*
G36*
X413529Y411508D02*
X410539D01*
Y408518D01*
X411390Y408746D01*
X412188Y409207D01*
X412840Y409859D01*
X413301Y410657D01*
X413529Y411508D01*
D02*
G37*
G36*
X409539D02*
X406550D01*
X406778Y410657D01*
X407239Y409859D01*
X407890Y409207D01*
X408688Y408746D01*
X409539Y408518D01*
Y411508D01*
D02*
G37*
G36*
X380064Y410524D02*
X377075D01*
Y407534D01*
X377926Y407762D01*
X378724Y408223D01*
X379376Y408875D01*
X379836Y409673D01*
X380064Y410524D01*
D02*
G37*
G36*
X376075D02*
X373085D01*
X373313Y409673D01*
X373774Y408875D01*
X374426Y408223D01*
X375224Y407762D01*
X376075Y407534D01*
Y410524D01*
D02*
G37*
G36*
X392339Y388402D02*
X387902D01*
Y380028D01*
X392339D01*
Y388402D01*
D02*
G37*
G36*
X386902D02*
X382465D01*
Y380028D01*
X386902D01*
Y388402D01*
D02*
G37*
G36*
X404150D02*
X399713D01*
Y380028D01*
X404150D01*
Y388402D01*
D02*
G37*
G36*
X398713D02*
X394276D01*
Y380028D01*
X398713D01*
Y388402D01*
D02*
G37*
G36*
X352982Y391202D02*
X348228Y386447D01*
X352982Y381692D01*
X354739Y383449D01*
X354823Y383432D01*
X354875Y383443D01*
X355071Y383404D01*
X367717D01*
Y382092D01*
Y379800D01*
X370610D01*
X373504D01*
Y382092D01*
Y387774D01*
X367717D01*
Y386462D01*
X357722D01*
X352982Y391202D01*
D02*
G37*
G36*
X373504Y378800D02*
X371111D01*
Y376459D01*
X373504D01*
Y378800D01*
D02*
G37*
G36*
X370111D02*
X367717D01*
Y376459D01*
X370111D01*
Y378800D01*
D02*
G37*
G36*
X404150Y379028D02*
X399713D01*
Y370654D01*
X404150D01*
Y379028D01*
D02*
G37*
G36*
X398713D02*
X394276D01*
Y370654D01*
X398713D01*
Y379028D01*
D02*
G37*
G36*
X392339Y379028D02*
X387902D01*
Y370654D01*
X392339D01*
Y379028D01*
D02*
G37*
G36*
X386902D02*
X382465D01*
Y370654D01*
X386902D01*
Y379028D01*
D02*
G37*
G36*
X410539Y370222D02*
Y367232D01*
X413529D01*
X413301Y368083D01*
X412840Y368881D01*
X412188Y369533D01*
X411390Y369994D01*
X410539Y370222D01*
D02*
G37*
G36*
X409539D02*
X408688Y369994D01*
X407890Y369533D01*
X407239Y368881D01*
X406778Y368083D01*
X406550Y367232D01*
X409539D01*
Y370222D01*
D02*
G37*
G36*
X377075D02*
Y367232D01*
X380064D01*
X379836Y368083D01*
X379376Y368881D01*
X378724Y369533D01*
X377926Y369994D01*
X377075Y370222D01*
D02*
G37*
G36*
X376075D02*
X375224Y369994D01*
X374426Y369533D01*
X373774Y368881D01*
X373313Y368083D01*
X373085Y367232D01*
X376075D01*
Y370222D01*
D02*
G37*
G36*
X413529Y366232D02*
X410539D01*
Y363243D01*
X411390Y363471D01*
X412188Y363932D01*
X412840Y364583D01*
X413301Y365381D01*
X413529Y366232D01*
D02*
G37*
G36*
X409539D02*
X406550D01*
X406778Y365381D01*
X407239Y364583D01*
X407890Y363932D01*
X408688Y363471D01*
X409539Y363243D01*
Y366232D01*
D02*
G37*
G36*
X380064D02*
X377075D01*
Y363243D01*
X377926Y363471D01*
X378724Y363932D01*
X379376Y364583D01*
X379836Y365381D01*
X380064Y366232D01*
D02*
G37*
G36*
X376075D02*
X373085D01*
X373313Y365381D01*
X373774Y364583D01*
X374426Y363932D01*
X375224Y363471D01*
X376075Y363243D01*
Y366232D01*
D02*
G37*
G36*
X336042Y335408D02*
X334557Y333436D01*
X336213Y332188D01*
X337699Y334159D01*
X336042Y335408D01*
D02*
G37*
G36*
X338498Y333557D02*
X337012Y331586D01*
X338669Y330337D01*
X340155Y332309D01*
X338498Y333557D01*
D02*
G37*
G36*
X333955Y332638D02*
X332469Y330666D01*
X334126Y329418D01*
X335612Y331389D01*
X333955Y332638D01*
D02*
G37*
G36*
X342110Y330835D02*
X340625Y328864D01*
X342282Y327615D01*
X343767Y329586D01*
X342110Y330835D01*
D02*
G37*
G36*
X336410Y330787D02*
X334925Y328816D01*
X336582Y327567D01*
X338067Y329539D01*
X336410Y330787D01*
D02*
G37*
G36*
X344566Y328984D02*
X343080Y327013D01*
X344738Y325764D01*
X346223Y327736D01*
X344566Y328984D01*
D02*
G37*
G36*
X402102Y331236D02*
X393807D01*
Y322941D01*
X402102D01*
Y331236D01*
D02*
G37*
G36*
X392807D02*
X384512D01*
Y322941D01*
X392807D01*
Y331236D01*
D02*
G37*
G36*
X461250Y318308D02*
X458025Y315082D01*
X452114D01*
Y315492D01*
X444140D01*
Y312598D01*
Y309704D01*
X452114D01*
Y312024D01*
X458025D01*
X461250Y308798D01*
X466005Y313553D01*
X461250Y318308D01*
D02*
G37*
G36*
X402102Y321941D02*
X393807D01*
Y313646D01*
X402102D01*
Y321941D01*
D02*
G37*
G36*
X392807D02*
X384512D01*
Y313646D01*
X392807D01*
Y321941D01*
D02*
G37*
G36*
X443140Y315492D02*
X440800D01*
Y313098D01*
X443140D01*
Y315492D01*
D02*
G37*
G36*
X424937Y328067D02*
X413685D01*
Y318785D01*
X408570Y310191D01*
X376455D01*
X371406Y318587D01*
X371805Y318987D01*
X372546Y320269D01*
X372929Y321700D01*
Y323182D01*
X372546Y324612D01*
X371805Y325895D01*
X370758Y326943D01*
X369475Y327683D01*
X368044Y328067D01*
X366563D01*
X365132Y327683D01*
X363849Y326943D01*
X362801Y325895D01*
X362061Y324612D01*
X361677Y323182D01*
Y322622D01*
X360099Y322231D01*
X344450Y321431D01*
X342895Y322603D01*
X342650Y322994D01*
X342851Y323262D01*
X344136Y324966D01*
X342079Y326515D01*
X340023Y328065D01*
X338537Y326093D01*
X339561Y325323D01*
X339604Y324663D01*
X337474Y321836D01*
X336994Y322030D01*
X337047Y322465D01*
X336946Y323188D01*
X336661Y323860D01*
X336211Y324435D01*
X335629Y324874D01*
X334952Y325148D01*
X334228Y325236D01*
X333505Y325135D01*
X332833Y324850D01*
X332258Y324400D01*
X331819Y323817D01*
X331545Y323141D01*
X331456Y322416D01*
X331558Y321694D01*
X331843Y321022D01*
X332293Y320447D01*
X332875Y320008D01*
X333552Y319734D01*
X334276Y319646D01*
X334999Y319747D01*
X335671Y320032D01*
X336246Y320481D01*
X336552Y320887D01*
X337088Y320975D01*
X337180Y320954D01*
X343257Y316375D01*
X344772Y318385D01*
X360402Y319184D01*
X360544Y319220D01*
X360691Y319227D01*
X362416Y319654D01*
X362801Y318987D01*
X363849Y317939D01*
X365132Y317198D01*
X366563Y316815D01*
X368044D01*
X368783Y317013D01*
X374280Y307873D01*
X374406Y307735D01*
X374509Y307580D01*
X374604Y307516D01*
X374681Y307432D01*
X374850Y307352D01*
X375005Y307248D01*
X375118Y307226D01*
X375221Y307177D01*
X375408Y307168D01*
X375590Y307132D01*
X409439D01*
X409626Y307169D01*
X409815Y307179D01*
X409916Y307227D01*
X410024Y307248D01*
X410183Y307354D01*
X410354Y307436D01*
X410428Y307518D01*
X410521Y307580D01*
X410626Y307738D01*
X410753Y307879D01*
X416072Y316815D01*
X424937D01*
Y328067D01*
D02*
G37*
G36*
X443140Y312098D02*
X440800D01*
Y309704D01*
X443140D01*
Y312098D01*
D02*
G37*
G36*
X318746Y312455D02*
X317260Y310483D01*
X318917Y309235D01*
X320403Y311206D01*
X318746Y312455D01*
D02*
G37*
G36*
X321201Y310604D02*
X319716Y308633D01*
X321373Y307384D01*
X322858Y309356D01*
X321201Y310604D01*
D02*
G37*
G36*
X316658Y309685D02*
X315173Y307713D01*
X316830Y306465D01*
X318315Y308436D01*
X316658Y309685D01*
D02*
G37*
G36*
X319114Y307834D02*
X317628Y305863D01*
X319285Y304614D01*
X320771Y306586D01*
X319114Y307834D01*
D02*
G37*
G36*
X322727Y305112D02*
X321241Y303140D01*
X322898Y301892D01*
X324384Y303863D01*
X322727Y305112D01*
D02*
G37*
G36*
X325182Y303261D02*
X323697Y301290D01*
X325354Y300041D01*
X326839Y302013D01*
X325182Y303261D01*
D02*
G37*
G36*
X216201Y443278D02*
X212890Y439967D01*
X212734Y439936D01*
X212238Y439605D01*
X208999Y436366D01*
X205374D01*
Y430685D01*
Y428392D01*
X208268D01*
X211162D01*
Y430685D01*
Y434203D01*
X213464Y436505D01*
X216201Y433769D01*
X220956Y438523D01*
X216201Y443278D01*
D02*
G37*
G36*
X222047Y437432D02*
X217292Y432677D01*
X218096Y431873D01*
X212107Y425885D01*
X211776Y425388D01*
X211660Y424803D01*
Y422484D01*
X207634Y418459D01*
X204331D01*
X203745Y418342D01*
X203249Y418011D01*
X199312Y414074D01*
X198981Y413577D01*
X198864Y412992D01*
Y408402D01*
X195457D01*
Y401057D01*
X193520D01*
Y408402D01*
X190112D01*
Y410621D01*
X190732Y410979D01*
X191383Y411630D01*
X191844Y412429D01*
X192083Y413319D01*
Y414240D01*
X191844Y415131D01*
X191383Y415929D01*
X190732Y416580D01*
X189934Y417041D01*
X189043Y417279D01*
X188122D01*
X187232Y417041D01*
X186434Y416580D01*
X185782Y415929D01*
X185321Y415131D01*
X185083Y414240D01*
Y413319D01*
X185321Y412429D01*
X185782Y411630D01*
X186434Y410979D01*
X187053Y410621D01*
Y408402D01*
X183646D01*
Y401057D01*
X167244D01*
X166659Y400941D01*
X166163Y400609D01*
X161306Y395752D01*
X160010Y397048D01*
X155255Y392293D01*
X160010Y387538D01*
X164765Y392293D01*
X163469Y393589D01*
X167878Y397998D01*
X183646D01*
Y390653D01*
X193520D01*
Y397998D01*
X195457D01*
Y390653D01*
X205331D01*
Y397998D01*
X208303D01*
X218549Y387752D01*
Y346063D01*
X218666Y345478D01*
X218997Y344982D01*
X229376Y334603D01*
Y306254D01*
X171500D01*
X166400Y311354D01*
X165903Y311685D01*
X165318Y311802D01*
X138784D01*
X133879Y315498D01*
X131547Y312404D01*
X131067Y312598D01*
X131121Y313033D01*
X131019Y313755D01*
X130734Y314427D01*
X130285Y315002D01*
X129702Y315441D01*
X129025Y315715D01*
X128301Y315804D01*
X127578Y315702D01*
X126906Y315417D01*
X126331Y314968D01*
X125892Y314385D01*
X125619Y313708D01*
X125530Y312984D01*
X125631Y312261D01*
X125916Y311589D01*
X126366Y311014D01*
X126948Y310575D01*
X127625Y310302D01*
X128349Y310213D01*
X129072Y310314D01*
X129475Y310486D01*
X129794Y310078D01*
X127664Y307251D01*
X127462Y306983D01*
X127018Y307111D01*
X125995Y307882D01*
X124510Y305911D01*
X126566Y304361D01*
X128622Y302812D01*
X129906Y304516D01*
X130552Y304655D01*
X133776Y302226D01*
X136638Y306024D01*
X130561Y310603D01*
X130373Y310949D01*
X130452Y311226D01*
X130625Y311455D01*
X131161Y311542D01*
X131253Y311522D01*
X137330Y306942D01*
X138687Y308743D01*
X164685D01*
X169785Y303643D01*
X170281Y303311D01*
X170866Y303195D01*
X265295D01*
X265880Y303311D01*
X266376Y303643D01*
X266981Y304248D01*
X268277Y302952D01*
X273032Y307707D01*
X268277Y312462D01*
X263523Y307707D01*
X264476Y306754D01*
X264268Y306254D01*
X232435D01*
Y335236D01*
X232318Y335822D01*
X231987Y336318D01*
X221608Y346696D01*
Y388386D01*
X221492Y388971D01*
X221160Y389467D01*
X210018Y400609D01*
X209522Y400941D01*
X208937Y401057D01*
X205331D01*
Y408402D01*
X201923D01*
Y412359D01*
X204964Y415400D01*
X208268D01*
X208853Y415516D01*
X209349Y415848D01*
X214270Y420769D01*
X214602Y421265D01*
X214718Y421850D01*
Y424170D01*
X220259Y429710D01*
X222047Y427922D01*
X226802Y432677D01*
X222047Y437432D01*
D02*
G37*
G36*
X211162Y427392D02*
X208768D01*
Y425051D01*
X211162D01*
Y427392D01*
D02*
G37*
G36*
X207768D02*
X205374D01*
Y425051D01*
X207768D01*
Y427392D01*
D02*
G37*
G36*
X211720Y415497D02*
Y412508D01*
X214710D01*
X214482Y413359D01*
X214021Y414157D01*
X213369Y414809D01*
X212571Y415269D01*
X211720Y415497D01*
D02*
G37*
G36*
X210720D02*
X209870Y415269D01*
X209071Y414809D01*
X208420Y414157D01*
X207959Y413359D01*
X207731Y412508D01*
X210720D01*
Y415497D01*
D02*
G37*
G36*
X178256Y414513D02*
Y411524D01*
X181245D01*
X181017Y412375D01*
X180557Y413173D01*
X179905Y413824D01*
X179107Y414285D01*
X178256Y414513D01*
D02*
G37*
G36*
X177256D02*
X176405Y414285D01*
X175607Y413824D01*
X174955Y413173D01*
X174494Y412375D01*
X174266Y411524D01*
X177256D01*
Y414513D01*
D02*
G37*
G36*
X214710Y411508D02*
X211720D01*
Y408518D01*
X212571Y408746D01*
X213369Y409207D01*
X214021Y409859D01*
X214482Y410657D01*
X214710Y411508D01*
D02*
G37*
G36*
X210720D02*
X207731D01*
X207959Y410657D01*
X208420Y409859D01*
X209071Y409207D01*
X209870Y408746D01*
X210720Y408518D01*
Y411508D01*
D02*
G37*
G36*
X181245Y410524D02*
X178256D01*
Y407534D01*
X179107Y407762D01*
X179905Y408223D01*
X180557Y408875D01*
X181017Y409673D01*
X181245Y410524D01*
D02*
G37*
G36*
X177256D02*
X174266D01*
X174494Y409673D01*
X174955Y408875D01*
X175607Y408223D01*
X176405Y407762D01*
X177256Y407534D01*
Y410524D01*
D02*
G37*
G36*
X193520Y388402D02*
X189083D01*
Y380028D01*
X193520D01*
Y388402D01*
D02*
G37*
G36*
X188083D02*
X183646D01*
Y380028D01*
X188083D01*
Y388402D01*
D02*
G37*
G36*
X205331D02*
X200894D01*
Y380028D01*
X205331D01*
Y388402D01*
D02*
G37*
G36*
X199894D02*
X195457D01*
Y380028D01*
X199894D01*
Y388402D01*
D02*
G37*
G36*
X154164Y391202D02*
X149409Y386447D01*
X154164Y381692D01*
X155920Y383449D01*
X156004Y383432D01*
X156056Y383443D01*
X156252Y383404D01*
X168898D01*
Y382092D01*
Y379800D01*
X171792D01*
X174686D01*
Y382092D01*
Y387774D01*
X168898D01*
Y386462D01*
X158903D01*
X154164Y391202D01*
D02*
G37*
G36*
X174686Y378800D02*
X172292D01*
Y376459D01*
X174686D01*
Y378800D01*
D02*
G37*
G36*
X171292D02*
X168898D01*
Y376459D01*
X171292D01*
Y378800D01*
D02*
G37*
G36*
X205331Y379028D02*
X200894D01*
Y370654D01*
X205331D01*
Y379028D01*
D02*
G37*
G36*
X199894D02*
X195457D01*
Y370654D01*
X199894D01*
Y379028D01*
D02*
G37*
G36*
X193520Y379028D02*
X189083D01*
Y370654D01*
X193520D01*
Y379028D01*
D02*
G37*
G36*
X188083D02*
X183646D01*
Y370654D01*
X188083D01*
Y379028D01*
D02*
G37*
G36*
X211720Y370222D02*
Y367232D01*
X214710D01*
X214482Y368083D01*
X214021Y368881D01*
X213369Y369533D01*
X212571Y369994D01*
X211720Y370222D01*
D02*
G37*
G36*
X210720D02*
X209870Y369994D01*
X209071Y369533D01*
X208420Y368881D01*
X207959Y368083D01*
X207731Y367232D01*
X210720D01*
Y370222D01*
D02*
G37*
G36*
X178256D02*
Y367232D01*
X181245D01*
X181017Y368083D01*
X180557Y368881D01*
X179905Y369533D01*
X179107Y369994D01*
X178256Y370222D01*
D02*
G37*
G36*
X177256D02*
X176405Y369994D01*
X175607Y369533D01*
X174955Y368881D01*
X174494Y368083D01*
X174266Y367232D01*
X177256D01*
Y370222D01*
D02*
G37*
G36*
X214710Y366232D02*
X211720D01*
Y363243D01*
X212571Y363471D01*
X213369Y363932D01*
X214021Y364583D01*
X214482Y365381D01*
X214710Y366232D01*
D02*
G37*
G36*
X210720D02*
X207731D01*
X207959Y365381D01*
X208420Y364583D01*
X209071Y363932D01*
X209870Y363471D01*
X210720Y363243D01*
Y366232D01*
D02*
G37*
G36*
X181245D02*
X178256D01*
Y363243D01*
X179107Y363471D01*
X179905Y363932D01*
X180557Y364583D01*
X181017Y365381D01*
X181245Y366232D01*
D02*
G37*
G36*
X177256D02*
X174266D01*
X174494Y365381D01*
X174955Y364583D01*
X175607Y363932D01*
X176405Y363471D01*
X177256Y363243D01*
Y366232D01*
D02*
G37*
G36*
X137223Y335408D02*
X135738Y333436D01*
X137395Y332188D01*
X138880Y334159D01*
X137223Y335408D01*
D02*
G37*
G36*
X139679Y333557D02*
X138193Y331586D01*
X139850Y330337D01*
X141336Y332309D01*
X139679Y333557D01*
D02*
G37*
G36*
X135136Y332638D02*
X133650Y330666D01*
X135307Y329418D01*
X136793Y331389D01*
X135136Y332638D01*
D02*
G37*
G36*
X143291Y330835D02*
X141806Y328864D01*
X143463Y327615D01*
X144948Y329586D01*
X143291Y330835D01*
D02*
G37*
G36*
X137591Y330787D02*
X136106Y328816D01*
X137763Y327567D01*
X139248Y329539D01*
X137591Y330787D01*
D02*
G37*
G36*
X145747Y328984D02*
X144262Y327013D01*
X145919Y325764D01*
X147404Y327736D01*
X145747Y328984D01*
D02*
G37*
G36*
X203284Y331236D02*
X194988D01*
Y322941D01*
X203284D01*
Y331236D01*
D02*
G37*
G36*
X193988D02*
X185693D01*
Y322941D01*
X193988D01*
Y331236D01*
D02*
G37*
G36*
X262431Y318308D02*
X259206Y315082D01*
X253295D01*
Y315492D01*
X245321D01*
Y312598D01*
Y309704D01*
X253295D01*
Y312024D01*
X259206D01*
X262431Y308798D01*
X267186Y313553D01*
X262431Y318308D01*
D02*
G37*
G36*
X203284Y321941D02*
X194988D01*
Y313646D01*
X203284D01*
Y321941D01*
D02*
G37*
G36*
X193988D02*
X185693D01*
Y313646D01*
X193988D01*
Y321941D01*
D02*
G37*
G36*
X244321Y315492D02*
X241981D01*
Y313098D01*
X244321D01*
Y315492D01*
D02*
G37*
G36*
X226118Y328067D02*
X214866D01*
Y318785D01*
X209751Y310191D01*
X177637D01*
X172587Y318587D01*
X172986Y318987D01*
X173727Y320269D01*
X174110Y321700D01*
Y323182D01*
X173727Y324612D01*
X172986Y325895D01*
X171939Y326943D01*
X170656Y327683D01*
X169225Y328067D01*
X167744D01*
X166313Y327683D01*
X165030Y326943D01*
X163982Y325895D01*
X163242Y324612D01*
X162858Y323182D01*
Y322622D01*
X161280Y322231D01*
X145631Y321431D01*
X144076Y322603D01*
X143831Y322994D01*
X144033Y323262D01*
X145317Y324966D01*
X143260Y326515D01*
X141204Y328065D01*
X139718Y326093D01*
X140742Y325323D01*
X140785Y324663D01*
X138655Y321836D01*
X138175Y322030D01*
X138228Y322465D01*
X138127Y323188D01*
X137842Y323860D01*
X137392Y324435D01*
X136810Y324874D01*
X136133Y325148D01*
X135409Y325236D01*
X134686Y325135D01*
X134014Y324850D01*
X133439Y324400D01*
X133000Y323817D01*
X132727Y323141D01*
X132638Y322416D01*
X132739Y321694D01*
X133024Y321022D01*
X133474Y320447D01*
X134056Y320008D01*
X134733Y319734D01*
X135458Y319646D01*
X136180Y319747D01*
X136852Y320032D01*
X137427Y320481D01*
X137733Y320887D01*
X138269Y320975D01*
X138361Y320954D01*
X144438Y316375D01*
X145953Y318385D01*
X161583Y319184D01*
X161725Y319220D01*
X161872Y319227D01*
X163597Y319654D01*
X163982Y318987D01*
X165030Y317939D01*
X166313Y317198D01*
X167744Y316815D01*
X169225D01*
X169964Y317013D01*
X175461Y307873D01*
X175587Y307735D01*
X175690Y307580D01*
X175785Y307516D01*
X175862Y307432D01*
X176031Y307352D01*
X176186Y307248D01*
X176299Y307226D01*
X176402Y307177D01*
X176589Y307168D01*
X176772Y307132D01*
X210620D01*
X210807Y307169D01*
X210997Y307179D01*
X211097Y307227D01*
X211206Y307248D01*
X211364Y307354D01*
X211535Y307436D01*
X211609Y307518D01*
X211702Y307580D01*
X211807Y307738D01*
X211934Y307879D01*
X217253Y316815D01*
X226118D01*
Y328067D01*
D02*
G37*
G36*
X244321Y312098D02*
X241981D01*
Y309704D01*
X244321D01*
Y312098D01*
D02*
G37*
G36*
X119927Y312455D02*
X118441Y310483D01*
X120098Y309235D01*
X121584Y311206D01*
X119927Y312455D01*
D02*
G37*
G36*
X122382Y310604D02*
X120897Y308633D01*
X122554Y307384D01*
X124039Y309356D01*
X122382Y310604D01*
D02*
G37*
G36*
X117840Y309685D02*
X116354Y307713D01*
X118011Y306465D01*
X119497Y308436D01*
X117840Y309685D01*
D02*
G37*
G36*
X120295Y307834D02*
X118809Y305863D01*
X120466Y304614D01*
X121952Y306586D01*
X120295Y307834D01*
D02*
G37*
G36*
X123908Y305112D02*
X122422Y303140D01*
X124079Y301892D01*
X125565Y303863D01*
X123908Y305112D01*
D02*
G37*
G36*
X126364Y303261D02*
X124878Y301290D01*
X126535Y300041D01*
X128021Y302013D01*
X126364Y303261D01*
D02*
G37*
G36*
X420866Y281920D02*
X416111Y277165D01*
X420866Y272410D01*
X424456Y276000D01*
X424581Y276084D01*
X426070Y277572D01*
X433720D01*
Y275173D01*
Y272880D01*
X436614D01*
X439508D01*
Y275173D01*
Y280854D01*
X433720D01*
Y280631D01*
X425436D01*
X424851Y280515D01*
X424355Y280183D01*
X423479Y279307D01*
X420866Y281920D01*
D02*
G37*
G36*
X439508Y271880D02*
X437114D01*
Y269540D01*
X439508D01*
Y271880D01*
D02*
G37*
G36*
X436114D02*
X433720D01*
Y269540D01*
X436114D01*
Y271880D01*
D02*
G37*
G36*
X480421Y228489D02*
Y225500D01*
X483411D01*
X483183Y226351D01*
X482722Y227149D01*
X482070Y227801D01*
X481272Y228261D01*
X480421Y228489D01*
D02*
G37*
G36*
X479421D02*
X478570Y228261D01*
X477772Y227801D01*
X477121Y227149D01*
X476660Y226351D01*
X476432Y225500D01*
X479421D01*
Y228489D01*
D02*
G37*
G36*
X483411Y224500D02*
X480421D01*
Y221511D01*
X481272Y221739D01*
X482070Y222199D01*
X482722Y222851D01*
X483183Y223649D01*
X483411Y224500D01*
D02*
G37*
G36*
X479421D02*
X476432D01*
X476660Y223649D01*
X477121Y222851D01*
X477772Y222199D01*
X478570Y221739D01*
X479421Y221511D01*
Y224500D01*
D02*
G37*
G36*
X486827Y217457D02*
X482390D01*
Y209083D01*
X486827D01*
Y217457D01*
D02*
G37*
G36*
X481390D02*
X476953D01*
Y209083D01*
X481390D01*
Y217457D01*
D02*
G37*
G36*
X486827Y208083D02*
X482390D01*
Y199709D01*
X486827D01*
Y208083D01*
D02*
G37*
G36*
X481390D02*
X476953D01*
Y199709D01*
X481390D01*
Y208083D01*
D02*
G37*
G36*
X473957Y177507D02*
X471563D01*
Y175167D01*
X473957D01*
Y177507D01*
D02*
G37*
G36*
X470563D02*
X468169D01*
Y175167D01*
X470563D01*
Y177507D01*
D02*
G37*
G36*
X473957Y174167D02*
X471063D01*
X468169D01*
Y171826D01*
Y168356D01*
X462914Y163101D01*
X460236Y165779D01*
X455481Y161024D01*
X460236Y156269D01*
X463577Y159609D01*
X463585Y159611D01*
X464081Y159942D01*
X470332Y166193D01*
X473957D01*
Y171826D01*
Y174167D01*
D02*
G37*
G36*
X426712Y276074D02*
X421957Y271319D01*
X426712Y266564D01*
X428008Y267860D01*
X460675Y235193D01*
Y193504D01*
X460792Y192919D01*
X461123Y192422D01*
X466045Y187501D01*
X466541Y187170D01*
X467126Y187053D01*
X476953D01*
Y179709D01*
X480360D01*
Y161657D01*
X475410Y156707D01*
X469308D01*
X466082Y159932D01*
X461328Y155177D01*
X466082Y150423D01*
X469308Y153648D01*
X476044D01*
X476629Y153764D01*
X477125Y154096D01*
X482971Y159942D01*
X483303Y160438D01*
X483419Y161024D01*
Y179709D01*
X486827D01*
Y197457D01*
X476953D01*
Y190112D01*
X467760D01*
X463734Y194137D01*
Y235827D01*
X463618Y236412D01*
X463286Y236908D01*
X430171Y270023D01*
X431467Y271319D01*
X426712Y276074D01*
D02*
G37*
G36*
X482390Y153686D02*
Y150697D01*
X485379D01*
X485151Y151548D01*
X484691Y152346D01*
X484039Y152998D01*
X483241Y153458D01*
X482390Y153686D01*
D02*
G37*
G36*
X481390D02*
X480539Y153458D01*
X479741Y152998D01*
X479089Y152346D01*
X478628Y151548D01*
X478400Y150697D01*
X481390D01*
Y153686D01*
D02*
G37*
G36*
X485379Y149697D02*
X482390D01*
Y146707D01*
X483241Y146935D01*
X484039Y147396D01*
X484691Y148048D01*
X485151Y148846D01*
X485379Y149697D01*
D02*
G37*
G36*
X481390D02*
X478400D01*
X478628Y148846D01*
X479089Y148048D01*
X479741Y147396D01*
X480539Y146935D01*
X481390Y146707D01*
Y149697D01*
D02*
G37*
G36*
X222047Y281920D02*
X217292Y277165D01*
X222047Y272410D01*
X225637Y276000D01*
X225762Y276084D01*
X227251Y277572D01*
X234901D01*
Y275173D01*
Y272880D01*
X237795D01*
X240689D01*
Y275173D01*
Y280854D01*
X234901D01*
Y280631D01*
X226617D01*
X226032Y280515D01*
X225536Y280183D01*
X224660Y279307D01*
X222047Y281920D01*
D02*
G37*
G36*
X240689Y271880D02*
X238295D01*
Y269540D01*
X240689D01*
Y271880D01*
D02*
G37*
G36*
X237295D02*
X234901D01*
Y269540D01*
X237295D01*
Y271880D01*
D02*
G37*
G36*
X281602Y228489D02*
Y225500D01*
X284592D01*
X284364Y226351D01*
X283903Y227149D01*
X283251Y227801D01*
X282453Y228261D01*
X281602Y228489D01*
D02*
G37*
G36*
X280602D02*
X279751Y228261D01*
X278953Y227801D01*
X278302Y227149D01*
X277841Y226351D01*
X277613Y225500D01*
X280602D01*
Y228489D01*
D02*
G37*
G36*
X284592Y224500D02*
X281602D01*
Y221511D01*
X282453Y221739D01*
X283251Y222199D01*
X283903Y222851D01*
X284364Y223649D01*
X284592Y224500D01*
D02*
G37*
G36*
X280602D02*
X277613D01*
X277841Y223649D01*
X278302Y222851D01*
X278953Y222199D01*
X279751Y221739D01*
X280602Y221511D01*
Y224500D01*
D02*
G37*
G36*
X288008Y217457D02*
X283571D01*
Y209083D01*
X288008D01*
Y217457D01*
D02*
G37*
G36*
X282571D02*
X278134D01*
Y209083D01*
X282571D01*
Y217457D01*
D02*
G37*
G36*
X288008Y208083D02*
X283571D01*
Y199709D01*
X288008D01*
Y208083D01*
D02*
G37*
G36*
X282571D02*
X278134D01*
Y199709D01*
X282571D01*
Y208083D01*
D02*
G37*
G36*
X275138Y177507D02*
X272744D01*
Y175167D01*
X275138D01*
Y177507D01*
D02*
G37*
G36*
X271744D02*
X269350D01*
Y175167D01*
X271744D01*
Y177507D01*
D02*
G37*
G36*
X275138Y174167D02*
X272244D01*
X269350D01*
Y171826D01*
Y168356D01*
X264095Y163101D01*
X261417Y165779D01*
X256662Y161024D01*
X261417Y156269D01*
X264758Y159609D01*
X264766Y159611D01*
X265262Y159942D01*
X271513Y166193D01*
X275138D01*
Y171826D01*
Y174167D01*
D02*
G37*
G36*
X227893Y276074D02*
X223138Y271319D01*
X227893Y266564D01*
X229189Y267860D01*
X261856Y235193D01*
Y193504D01*
X261973Y192919D01*
X262304Y192422D01*
X267226Y187501D01*
X267722Y187170D01*
X268307Y187053D01*
X278134D01*
Y179709D01*
X281541D01*
Y161657D01*
X276591Y156707D01*
X270489D01*
X267264Y159932D01*
X262509Y155177D01*
X267264Y150423D01*
X270489Y153648D01*
X277225D01*
X277810Y153764D01*
X278306Y154096D01*
X284152Y159942D01*
X284484Y160438D01*
X284600Y161024D01*
Y179709D01*
X288008D01*
Y197457D01*
X278134D01*
Y190112D01*
X268941D01*
X264915Y194137D01*
Y235827D01*
X264799Y236412D01*
X264467Y236908D01*
X231352Y270023D01*
X232648Y271319D01*
X227893Y276074D01*
D02*
G37*
G36*
X283571Y153686D02*
Y150697D01*
X286560D01*
X286332Y151548D01*
X285872Y152346D01*
X285220Y152998D01*
X284422Y153458D01*
X283571Y153686D01*
D02*
G37*
G36*
X282571D02*
X281720Y153458D01*
X280922Y152998D01*
X280270Y152346D01*
X279809Y151548D01*
X279581Y150697D01*
X282571D01*
Y153686D01*
D02*
G37*
G36*
X286560Y149697D02*
X283571D01*
Y146707D01*
X284422Y146935D01*
X285220Y147396D01*
X285872Y148048D01*
X286332Y148846D01*
X286560Y149697D01*
D02*
G37*
G36*
X282571D02*
X279581D01*
X279809Y148846D01*
X280270Y148048D01*
X280922Y147396D01*
X281720Y146935D01*
X282571Y146707D01*
Y149697D01*
D02*
G37*
G36*
X322902Y248185D02*
X321980D01*
X321090Y247947D01*
X320292Y247486D01*
X319640Y246834D01*
X319180Y246036D01*
X318941Y245146D01*
Y244224D01*
X319180Y243334D01*
X319640Y242536D01*
X320292Y241884D01*
X321090Y241424D01*
X321980Y241185D01*
X322902D01*
X323792Y241424D01*
X324590Y241884D01*
X325242Y242536D01*
X325702Y243334D01*
X325941Y244224D01*
Y245146D01*
X325702Y246036D01*
X325242Y246834D01*
X324590Y247486D01*
X323792Y247947D01*
X322902Y248185D01*
D02*
G37*
G36*
X332225Y225736D02*
X326437D01*
Y224425D01*
X313446D01*
X312861Y224308D01*
X312365Y223977D01*
X307499Y219110D01*
X299787D01*
Y201362D01*
X309661D01*
Y216947D01*
X314080Y221366D01*
X326437D01*
Y220055D01*
Y214422D01*
X330062D01*
X335317Y209166D01*
X333404Y207254D01*
X338159Y202499D01*
X342914Y207254D01*
X338159Y212009D01*
X337480Y211329D01*
X332225Y216584D01*
Y220055D01*
Y225736D01*
D02*
G37*
G36*
X332313Y206163D02*
X327558Y201408D01*
X328854Y200112D01*
X317870Y189128D01*
X309661D01*
Y199110D01*
X299787D01*
Y181362D01*
X309661D01*
Y186069D01*
X318504D01*
X319089Y186186D01*
X319585Y186517D01*
X331017Y197949D01*
X332313Y196653D01*
X337068Y201408D01*
X332313Y206163D01*
D02*
G37*
G36*
X306169Y175350D02*
X305248D01*
X304358Y175112D01*
X303560Y174651D01*
X302908Y173999D01*
X302447Y173201D01*
X302209Y172311D01*
Y171390D01*
X302447Y170499D01*
X302908Y169701D01*
X303560Y169050D01*
X304358Y168589D01*
X305248Y168350D01*
X306169D01*
X307060Y168589D01*
X307858Y169050D01*
X308509Y169701D01*
X308970Y170499D01*
X309209Y171390D01*
Y172311D01*
X308970Y173201D01*
X308509Y173999D01*
X307858Y174651D01*
X307060Y175112D01*
X306169Y175350D01*
D02*
G37*
G36*
X124083Y248185D02*
X123161D01*
X122271Y247947D01*
X121473Y247486D01*
X120821Y246834D01*
X120361Y246036D01*
X120122Y245146D01*
Y244224D01*
X120361Y243334D01*
X120821Y242536D01*
X121473Y241884D01*
X122271Y241424D01*
X123161Y241185D01*
X124083D01*
X124973Y241424D01*
X125771Y241884D01*
X126423Y242536D01*
X126883Y243334D01*
X127122Y244224D01*
Y245146D01*
X126883Y246036D01*
X126423Y246834D01*
X125771Y247486D01*
X124973Y247947D01*
X124083Y248185D01*
D02*
G37*
G36*
X133406Y225736D02*
X127618D01*
Y224425D01*
X114628D01*
X114042Y224308D01*
X113546Y223977D01*
X108680Y219110D01*
X100969D01*
Y201362D01*
X110843D01*
Y216947D01*
X115261Y221366D01*
X127618D01*
Y220055D01*
Y214422D01*
X131243D01*
X136498Y209166D01*
X134585Y207254D01*
X139340Y202499D01*
X144095Y207254D01*
X139340Y212009D01*
X138661Y211329D01*
X133406Y216584D01*
Y220055D01*
Y225736D01*
D02*
G37*
G36*
X133494Y206163D02*
X128739Y201408D01*
X130035Y200112D01*
X119052Y189128D01*
X110843D01*
Y199110D01*
X100969D01*
Y181362D01*
X110843D01*
Y186069D01*
X119685D01*
X120270Y186186D01*
X120766Y186517D01*
X132198Y197949D01*
X133494Y196653D01*
X138249Y201408D01*
X133494Y206163D01*
D02*
G37*
G36*
X107351Y175350D02*
X106429D01*
X105539Y175112D01*
X104741Y174651D01*
X104089Y173999D01*
X103628Y173201D01*
X103390Y172311D01*
Y171390D01*
X103628Y170499D01*
X104089Y169701D01*
X104741Y169050D01*
X105539Y168589D01*
X106429Y168350D01*
X107351D01*
X108241Y168589D01*
X109039Y169050D01*
X109690Y169701D01*
X110151Y170499D01*
X110390Y171390D01*
Y172311D01*
X110151Y173201D01*
X109690Y173999D01*
X109039Y174651D01*
X108241Y175112D01*
X107351Y175350D01*
D02*
G37*
G36*
X415020Y244459D02*
X411709Y241148D01*
X411553Y241117D01*
X411057Y240786D01*
X407818Y237547D01*
X404193D01*
Y231866D01*
Y229573D01*
X407087D01*
X409981D01*
Y231866D01*
Y235384D01*
X412283Y237686D01*
X415020Y234950D01*
X419775Y239704D01*
X415020Y244459D01*
D02*
G37*
G36*
X420866Y238613D02*
X416111Y233858D01*
X416915Y233054D01*
X410926Y227066D01*
X410595Y226570D01*
X410478Y225984D01*
Y223665D01*
X406453Y219640D01*
X403150D01*
X402564Y219523D01*
X402068Y219192D01*
X398131Y215255D01*
X397800Y214758D01*
X397683Y214173D01*
Y209583D01*
X394276D01*
Y202238D01*
X392339D01*
Y209583D01*
X388931D01*
Y211802D01*
X389551Y212160D01*
X390202Y212812D01*
X390663Y213610D01*
X390902Y214500D01*
Y215421D01*
X390663Y216312D01*
X390202Y217110D01*
X389551Y217761D01*
X388753Y218222D01*
X387862Y218461D01*
X386941D01*
X386051Y218222D01*
X385252Y217761D01*
X384601Y217110D01*
X384140Y216312D01*
X383902Y215421D01*
Y214500D01*
X384140Y213610D01*
X384601Y212812D01*
X385252Y212160D01*
X385872Y211802D01*
Y209583D01*
X382465D01*
Y202238D01*
X366063D01*
X365478Y202122D01*
X364982Y201790D01*
X360125Y196933D01*
X358829Y198229D01*
X354074Y193474D01*
X358829Y188719D01*
X363583Y193474D01*
X362287Y194770D01*
X366697Y199179D01*
X382465D01*
Y191835D01*
X392339D01*
Y199179D01*
X394276D01*
Y191835D01*
X404150D01*
Y199179D01*
X407122D01*
X417368Y188933D01*
Y147244D01*
X417485Y146659D01*
X417816Y146163D01*
X428195Y135784D01*
Y107435D01*
X370319D01*
X365219Y112535D01*
X364722Y112866D01*
X364137Y112983D01*
X337603D01*
X332698Y116679D01*
X330366Y113585D01*
X329886Y113779D01*
X329939Y114214D01*
X329838Y114936D01*
X329553Y115608D01*
X329103Y116183D01*
X328520Y116622D01*
X327844Y116896D01*
X327119Y116985D01*
X326397Y116883D01*
X325725Y116598D01*
X325150Y116149D01*
X324711Y115566D01*
X324437Y114889D01*
X324348Y114165D01*
X324450Y113442D01*
X324735Y112770D01*
X325184Y112195D01*
X325767Y111756D01*
X326444Y111483D01*
X327168Y111394D01*
X327891Y111495D01*
X328294Y111667D01*
X328613Y111259D01*
X326483Y108432D01*
X326281Y108165D01*
X325837Y108292D01*
X324814Y109063D01*
X323329Y107092D01*
X325385Y105542D01*
X327441Y103993D01*
X328725Y105697D01*
X329371Y105836D01*
X332595Y103407D01*
X335457Y107205D01*
X329380Y111785D01*
X329192Y112131D01*
X329271Y112407D01*
X329444Y112636D01*
X329980Y112723D01*
X330072Y112703D01*
X336149Y108123D01*
X337506Y109924D01*
X363504D01*
X368604Y104824D01*
X369100Y104492D01*
X369685Y104376D01*
X464114D01*
X464699Y104492D01*
X465195Y104824D01*
X465800Y105429D01*
X467096Y104133D01*
X471851Y108888D01*
X467096Y113643D01*
X462341Y108888D01*
X463295Y107935D01*
X463087Y107435D01*
X431254D01*
Y136417D01*
X431137Y137003D01*
X430806Y137499D01*
X420427Y147878D01*
Y189567D01*
X420311Y190152D01*
X419979Y190648D01*
X408837Y201790D01*
X408341Y202122D01*
X407756Y202238D01*
X404150D01*
Y209583D01*
X400742D01*
Y213540D01*
X403783Y216581D01*
X407087D01*
X407672Y216697D01*
X408168Y217029D01*
X413089Y221950D01*
X413421Y222446D01*
X413537Y223031D01*
Y225351D01*
X419078Y230891D01*
X420866Y229103D01*
X425621Y233858D01*
X420866Y238613D01*
D02*
G37*
G36*
X409981Y228573D02*
X407587D01*
Y226233D01*
X409981D01*
Y228573D01*
D02*
G37*
G36*
X406587D02*
X404193D01*
Y226233D01*
X406587D01*
Y228573D01*
D02*
G37*
G36*
X410539Y216679D02*
Y213689D01*
X413529D01*
X413301Y214540D01*
X412840Y215338D01*
X412188Y215990D01*
X411390Y216451D01*
X410539Y216679D01*
D02*
G37*
G36*
X409539D02*
X408688Y216451D01*
X407890Y215990D01*
X407239Y215338D01*
X406778Y214540D01*
X406550Y213689D01*
X409539D01*
Y216679D01*
D02*
G37*
G36*
X377075Y215694D02*
Y212705D01*
X380064D01*
X379836Y213556D01*
X379376Y214354D01*
X378724Y215005D01*
X377926Y215466D01*
X377075Y215694D01*
D02*
G37*
G36*
X376075D02*
X375224Y215466D01*
X374426Y215005D01*
X373774Y214354D01*
X373313Y213556D01*
X373085Y212705D01*
X376075D01*
Y215694D01*
D02*
G37*
G36*
X413529Y212689D02*
X410539D01*
Y209700D01*
X411390Y209928D01*
X412188Y210388D01*
X412840Y211040D01*
X413301Y211838D01*
X413529Y212689D01*
D02*
G37*
G36*
X409539D02*
X406550D01*
X406778Y211838D01*
X407239Y211040D01*
X407890Y210388D01*
X408688Y209928D01*
X409539Y209700D01*
Y212689D01*
D02*
G37*
G36*
X380064Y211705D02*
X377075D01*
Y208715D01*
X377926Y208943D01*
X378724Y209404D01*
X379376Y210056D01*
X379836Y210854D01*
X380064Y211705D01*
D02*
G37*
G36*
X376075D02*
X373085D01*
X373313Y210854D01*
X373774Y210056D01*
X374426Y209404D01*
X375224Y208943D01*
X376075Y208715D01*
Y211705D01*
D02*
G37*
G36*
X392339Y189583D02*
X387902D01*
Y181209D01*
X392339D01*
Y189583D01*
D02*
G37*
G36*
X386902D02*
X382465D01*
Y181209D01*
X386902D01*
Y189583D01*
D02*
G37*
G36*
X404150D02*
X399713D01*
Y181209D01*
X404150D01*
Y189583D01*
D02*
G37*
G36*
X398713D02*
X394276D01*
Y181209D01*
X398713D01*
Y189583D01*
D02*
G37*
G36*
X352982Y192383D02*
X348228Y187628D01*
X352982Y182873D01*
X354739Y184630D01*
X354823Y184613D01*
X354875Y184624D01*
X355071Y184585D01*
X367717D01*
Y183273D01*
Y180981D01*
X370610D01*
X373504D01*
Y183273D01*
Y188955D01*
X367717D01*
Y187644D01*
X357722D01*
X352982Y192383D01*
D02*
G37*
G36*
X373504Y179981D02*
X371111D01*
Y177640D01*
X373504D01*
Y179981D01*
D02*
G37*
G36*
X370111D02*
X367717D01*
Y177640D01*
X370111D01*
Y179981D01*
D02*
G37*
G36*
X404150Y180209D02*
X399713D01*
Y171835D01*
X404150D01*
Y180209D01*
D02*
G37*
G36*
X398713D02*
X394276D01*
Y171835D01*
X398713D01*
Y180209D01*
D02*
G37*
G36*
X392339Y180209D02*
X387902D01*
Y171835D01*
X392339D01*
Y180209D01*
D02*
G37*
G36*
X386902D02*
X382465D01*
Y171835D01*
X386902D01*
Y180209D01*
D02*
G37*
G36*
X410539Y171403D02*
Y168413D01*
X413529D01*
X413301Y169264D01*
X412840Y170062D01*
X412188Y170714D01*
X411390Y171175D01*
X410539Y171403D01*
D02*
G37*
G36*
X409539D02*
X408688Y171175D01*
X407890Y170714D01*
X407239Y170062D01*
X406778Y169264D01*
X406550Y168413D01*
X409539D01*
Y171403D01*
D02*
G37*
G36*
X377075D02*
Y168413D01*
X380064D01*
X379836Y169264D01*
X379376Y170062D01*
X378724Y170714D01*
X377926Y171175D01*
X377075Y171403D01*
D02*
G37*
G36*
X376075D02*
X375224Y171175D01*
X374426Y170714D01*
X373774Y170062D01*
X373313Y169264D01*
X373085Y168413D01*
X376075D01*
Y171403D01*
D02*
G37*
G36*
X413529Y167413D02*
X410539D01*
Y164424D01*
X411390Y164652D01*
X412188Y165113D01*
X412840Y165764D01*
X413301Y166562D01*
X413529Y167413D01*
D02*
G37*
G36*
X409539D02*
X406550D01*
X406778Y166562D01*
X407239Y165764D01*
X407890Y165113D01*
X408688Y164652D01*
X409539Y164424D01*
Y167413D01*
D02*
G37*
G36*
X380064D02*
X377075D01*
Y164424D01*
X377926Y164652D01*
X378724Y165113D01*
X379376Y165764D01*
X379836Y166562D01*
X380064Y167413D01*
D02*
G37*
G36*
X376075D02*
X373085D01*
X373313Y166562D01*
X373774Y165764D01*
X374426Y165113D01*
X375224Y164652D01*
X376075Y164424D01*
Y167413D01*
D02*
G37*
G36*
X336042Y136589D02*
X334557Y134617D01*
X336213Y133369D01*
X337699Y135340D01*
X336042Y136589D01*
D02*
G37*
G36*
X338498Y134738D02*
X337012Y132767D01*
X338669Y131518D01*
X340155Y133490D01*
X338498Y134738D01*
D02*
G37*
G36*
X333955Y133819D02*
X332469Y131847D01*
X334126Y130599D01*
X335612Y132570D01*
X333955Y133819D01*
D02*
G37*
G36*
X342110Y132016D02*
X340625Y130045D01*
X342282Y128796D01*
X343767Y130767D01*
X342110Y132016D01*
D02*
G37*
G36*
X336410Y131968D02*
X334925Y129997D01*
X336582Y128748D01*
X338067Y130720D01*
X336410Y131968D01*
D02*
G37*
G36*
X344566Y130166D02*
X343080Y128194D01*
X344738Y126945D01*
X346223Y128917D01*
X344566Y130166D01*
D02*
G37*
G36*
X402102Y132417D02*
X393807D01*
Y124122D01*
X402102D01*
Y132417D01*
D02*
G37*
G36*
X392807D02*
X384512D01*
Y124122D01*
X392807D01*
Y132417D01*
D02*
G37*
G36*
X461250Y119489D02*
X458025Y116263D01*
X452114D01*
Y116674D01*
X444140D01*
Y113779D01*
Y110886D01*
X452114D01*
Y113205D01*
X458025D01*
X461250Y109979D01*
X466005Y114734D01*
X461250Y119489D01*
D02*
G37*
G36*
X402102Y123122D02*
X393807D01*
Y114827D01*
X402102D01*
Y123122D01*
D02*
G37*
G36*
X392807D02*
X384512D01*
Y114827D01*
X392807D01*
Y123122D01*
D02*
G37*
G36*
X443140Y116674D02*
X440800D01*
Y114279D01*
X443140D01*
Y116674D01*
D02*
G37*
G36*
X424937Y129248D02*
X413685D01*
Y119966D01*
X408570Y111372D01*
X376455D01*
X371406Y119768D01*
X371805Y120168D01*
X372546Y121450D01*
X372929Y122881D01*
Y124363D01*
X372546Y125794D01*
X371805Y127076D01*
X370758Y128124D01*
X369475Y128865D01*
X368044Y129248D01*
X366563D01*
X365132Y128865D01*
X363849Y128124D01*
X362801Y127076D01*
X362061Y125794D01*
X361677Y124363D01*
Y123804D01*
X360099Y123413D01*
X344450Y122612D01*
X342895Y123784D01*
X342650Y124176D01*
X342851Y124443D01*
X344136Y126147D01*
X342079Y127696D01*
X340023Y129246D01*
X338537Y127275D01*
X339561Y126504D01*
X339604Y125845D01*
X337474Y123018D01*
X336994Y123211D01*
X337047Y123646D01*
X336946Y124369D01*
X336661Y125041D01*
X336211Y125616D01*
X335629Y126055D01*
X334952Y126329D01*
X334228Y126418D01*
X333505Y126316D01*
X332833Y126031D01*
X332258Y125582D01*
X331819Y124999D01*
X331545Y124322D01*
X331456Y123598D01*
X331558Y122875D01*
X331843Y122203D01*
X332293Y121628D01*
X332875Y121189D01*
X333552Y120915D01*
X334276Y120827D01*
X334999Y120928D01*
X335671Y121213D01*
X336246Y121663D01*
X336552Y122069D01*
X337088Y122156D01*
X337180Y122135D01*
X343257Y117556D01*
X344772Y119566D01*
X360402Y120365D01*
X360544Y120401D01*
X360691Y120408D01*
X362416Y120835D01*
X362801Y120168D01*
X363849Y119120D01*
X365132Y118379D01*
X366563Y117996D01*
X368044D01*
X368783Y118194D01*
X374280Y109054D01*
X374406Y108916D01*
X374509Y108761D01*
X374604Y108697D01*
X374681Y108613D01*
X374850Y108533D01*
X375005Y108430D01*
X375118Y108407D01*
X375221Y108358D01*
X375408Y108350D01*
X375590Y108313D01*
X409439D01*
X409626Y108350D01*
X409815Y108360D01*
X409916Y108408D01*
X410024Y108430D01*
X410183Y108535D01*
X410354Y108617D01*
X410428Y108699D01*
X410521Y108761D01*
X410626Y108919D01*
X410753Y109060D01*
X416072Y117996D01*
X424937D01*
Y129248D01*
D02*
G37*
G36*
X443140Y113279D02*
X440800D01*
Y110886D01*
X443140D01*
Y113279D01*
D02*
G37*
G36*
X318746Y113636D02*
X317260Y111664D01*
X318917Y110416D01*
X320403Y112387D01*
X318746Y113636D01*
D02*
G37*
G36*
X321201Y111785D02*
X319716Y109814D01*
X321373Y108565D01*
X322858Y110537D01*
X321201Y111785D01*
D02*
G37*
G36*
X316658Y110866D02*
X315173Y108895D01*
X316830Y107646D01*
X318315Y109617D01*
X316658Y110866D01*
D02*
G37*
G36*
X319114Y109016D02*
X317628Y107044D01*
X319285Y105795D01*
X320771Y107767D01*
X319114Y109016D01*
D02*
G37*
G36*
X322727Y106293D02*
X321241Y104322D01*
X322898Y103073D01*
X324384Y105044D01*
X322727Y106293D01*
D02*
G37*
G36*
X325182Y104443D02*
X323697Y102471D01*
X325354Y101223D01*
X326839Y103194D01*
X325182Y104443D01*
D02*
G37*
G36*
X216201Y244459D02*
X212890Y241148D01*
X212734Y241117D01*
X212238Y240786D01*
X208999Y237547D01*
X205374D01*
Y231866D01*
Y229573D01*
X208268D01*
X211162D01*
Y231866D01*
Y235384D01*
X213464Y237686D01*
X216201Y234950D01*
X220956Y239704D01*
X216201Y244459D01*
D02*
G37*
G36*
X222047Y238613D02*
X217292Y233858D01*
X218096Y233054D01*
X212107Y227066D01*
X211776Y226570D01*
X211660Y225984D01*
Y223665D01*
X207634Y219640D01*
X204331D01*
X203745Y219523D01*
X203249Y219192D01*
X199312Y215255D01*
X198981Y214758D01*
X198864Y214173D01*
Y209583D01*
X195457D01*
Y202238D01*
X193520D01*
Y209583D01*
X190112D01*
Y211802D01*
X190732Y212160D01*
X191383Y212812D01*
X191844Y213610D01*
X192083Y214500D01*
Y215421D01*
X191844Y216312D01*
X191383Y217110D01*
X190732Y217761D01*
X189934Y218222D01*
X189043Y218461D01*
X188122D01*
X187232Y218222D01*
X186434Y217761D01*
X185782Y217110D01*
X185321Y216312D01*
X185083Y215421D01*
Y214500D01*
X185321Y213610D01*
X185782Y212812D01*
X186434Y212160D01*
X187053Y211802D01*
Y209583D01*
X183646D01*
Y202238D01*
X167244D01*
X166659Y202122D01*
X166163Y201790D01*
X161306Y196933D01*
X160010Y198229D01*
X155255Y193474D01*
X160010Y188719D01*
X164765Y193474D01*
X163469Y194770D01*
X167878Y199179D01*
X183646D01*
Y191835D01*
X193520D01*
Y199179D01*
X195457D01*
Y191835D01*
X205331D01*
Y199179D01*
X208303D01*
X218549Y188933D01*
Y147244D01*
X218666Y146659D01*
X218997Y146163D01*
X229376Y135784D01*
Y107435D01*
X171500D01*
X166400Y112535D01*
X165903Y112866D01*
X165318Y112983D01*
X138784D01*
X133879Y116679D01*
X131547Y113585D01*
X131067Y113779D01*
X131121Y114214D01*
X131019Y114936D01*
X130734Y115608D01*
X130285Y116183D01*
X129702Y116622D01*
X129025Y116896D01*
X128301Y116985D01*
X127578Y116883D01*
X126906Y116598D01*
X126331Y116149D01*
X125892Y115566D01*
X125619Y114889D01*
X125530Y114165D01*
X125631Y113442D01*
X125916Y112770D01*
X126366Y112195D01*
X126948Y111756D01*
X127625Y111483D01*
X128349Y111394D01*
X129072Y111495D01*
X129475Y111667D01*
X129794Y111259D01*
X127664Y108432D01*
X127462Y108165D01*
X127018Y108292D01*
X125995Y109063D01*
X124510Y107092D01*
X126566Y105542D01*
X128622Y103993D01*
X129906Y105697D01*
X130552Y105836D01*
X133776Y103407D01*
X136638Y107205D01*
X130561Y111785D01*
X130373Y112131D01*
X130452Y112407D01*
X130625Y112636D01*
X131161Y112723D01*
X131253Y112703D01*
X137330Y108123D01*
X138687Y109924D01*
X164685D01*
X169785Y104824D01*
X170281Y104492D01*
X170866Y104376D01*
X265295D01*
X265880Y104492D01*
X266376Y104824D01*
X266981Y105429D01*
X268277Y104133D01*
X273032Y108888D01*
X268277Y113643D01*
X263523Y108888D01*
X264476Y107935D01*
X264268Y107435D01*
X232435D01*
Y136417D01*
X232318Y137003D01*
X231987Y137499D01*
X221608Y147878D01*
Y189567D01*
X221492Y190152D01*
X221160Y190648D01*
X210018Y201790D01*
X209522Y202122D01*
X208937Y202238D01*
X205331D01*
Y209583D01*
X201923D01*
Y213540D01*
X204964Y216581D01*
X208268D01*
X208853Y216697D01*
X209349Y217029D01*
X214270Y221950D01*
X214602Y222446D01*
X214718Y223031D01*
Y225351D01*
X220259Y230891D01*
X222047Y229103D01*
X226802Y233858D01*
X222047Y238613D01*
D02*
G37*
G36*
X211162Y228573D02*
X208768D01*
Y226233D01*
X211162D01*
Y228573D01*
D02*
G37*
G36*
X207768D02*
X205374D01*
Y226233D01*
X207768D01*
Y228573D01*
D02*
G37*
G36*
X211720Y216679D02*
Y213689D01*
X214710D01*
X214482Y214540D01*
X214021Y215338D01*
X213369Y215990D01*
X212571Y216451D01*
X211720Y216679D01*
D02*
G37*
G36*
X210720D02*
X209870Y216451D01*
X209071Y215990D01*
X208420Y215338D01*
X207959Y214540D01*
X207731Y213689D01*
X210720D01*
Y216679D01*
D02*
G37*
G36*
X178256Y215694D02*
Y212705D01*
X181245D01*
X181017Y213556D01*
X180557Y214354D01*
X179905Y215005D01*
X179107Y215466D01*
X178256Y215694D01*
D02*
G37*
G36*
X177256D02*
X176405Y215466D01*
X175607Y215005D01*
X174955Y214354D01*
X174494Y213556D01*
X174266Y212705D01*
X177256D01*
Y215694D01*
D02*
G37*
G36*
X214710Y212689D02*
X211720D01*
Y209700D01*
X212571Y209928D01*
X213369Y210388D01*
X214021Y211040D01*
X214482Y211838D01*
X214710Y212689D01*
D02*
G37*
G36*
X210720D02*
X207731D01*
X207959Y211838D01*
X208420Y211040D01*
X209071Y210388D01*
X209870Y209928D01*
X210720Y209700D01*
Y212689D01*
D02*
G37*
G36*
X181245Y211705D02*
X178256D01*
Y208715D01*
X179107Y208943D01*
X179905Y209404D01*
X180557Y210056D01*
X181017Y210854D01*
X181245Y211705D01*
D02*
G37*
G36*
X177256D02*
X174266D01*
X174494Y210854D01*
X174955Y210056D01*
X175607Y209404D01*
X176405Y208943D01*
X177256Y208715D01*
Y211705D01*
D02*
G37*
G36*
X193520Y189583D02*
X189083D01*
Y181209D01*
X193520D01*
Y189583D01*
D02*
G37*
G36*
X188083D02*
X183646D01*
Y181209D01*
X188083D01*
Y189583D01*
D02*
G37*
G36*
X205331D02*
X200894D01*
Y181209D01*
X205331D01*
Y189583D01*
D02*
G37*
G36*
X199894D02*
X195457D01*
Y181209D01*
X199894D01*
Y189583D01*
D02*
G37*
G36*
X154164Y192383D02*
X149409Y187628D01*
X154164Y182873D01*
X155920Y184630D01*
X156004Y184613D01*
X156056Y184624D01*
X156252Y184585D01*
X168898D01*
Y183273D01*
Y180981D01*
X171792D01*
X174686D01*
Y183273D01*
Y188955D01*
X168898D01*
Y187644D01*
X158903D01*
X154164Y192383D01*
D02*
G37*
G36*
X174686Y179981D02*
X172292D01*
Y177640D01*
X174686D01*
Y179981D01*
D02*
G37*
G36*
X171292D02*
X168898D01*
Y177640D01*
X171292D01*
Y179981D01*
D02*
G37*
G36*
X205331Y180209D02*
X200894D01*
Y171835D01*
X205331D01*
Y180209D01*
D02*
G37*
G36*
X199894D02*
X195457D01*
Y171835D01*
X199894D01*
Y180209D01*
D02*
G37*
G36*
X193520Y180209D02*
X189083D01*
Y171835D01*
X193520D01*
Y180209D01*
D02*
G37*
G36*
X188083D02*
X183646D01*
Y171835D01*
X188083D01*
Y180209D01*
D02*
G37*
G36*
X211720Y171403D02*
Y168413D01*
X214710D01*
X214482Y169264D01*
X214021Y170062D01*
X213369Y170714D01*
X212571Y171175D01*
X211720Y171403D01*
D02*
G37*
G36*
X210720D02*
X209870Y171175D01*
X209071Y170714D01*
X208420Y170062D01*
X207959Y169264D01*
X207731Y168413D01*
X210720D01*
Y171403D01*
D02*
G37*
G36*
X178256D02*
Y168413D01*
X181245D01*
X181017Y169264D01*
X180557Y170062D01*
X179905Y170714D01*
X179107Y171175D01*
X178256Y171403D01*
D02*
G37*
G36*
X177256D02*
X176405Y171175D01*
X175607Y170714D01*
X174955Y170062D01*
X174494Y169264D01*
X174266Y168413D01*
X177256D01*
Y171403D01*
D02*
G37*
G36*
X214710Y167413D02*
X211720D01*
Y164424D01*
X212571Y164652D01*
X213369Y165113D01*
X214021Y165764D01*
X214482Y166562D01*
X214710Y167413D01*
D02*
G37*
G36*
X210720D02*
X207731D01*
X207959Y166562D01*
X208420Y165764D01*
X209071Y165113D01*
X209870Y164652D01*
X210720Y164424D01*
Y167413D01*
D02*
G37*
G36*
X181245D02*
X178256D01*
Y164424D01*
X179107Y164652D01*
X179905Y165113D01*
X180557Y165764D01*
X181017Y166562D01*
X181245Y167413D01*
D02*
G37*
G36*
X177256D02*
X174266D01*
X174494Y166562D01*
X174955Y165764D01*
X175607Y165113D01*
X176405Y164652D01*
X177256Y164424D01*
Y167413D01*
D02*
G37*
G36*
X137223Y136589D02*
X135738Y134617D01*
X137395Y133369D01*
X138880Y135340D01*
X137223Y136589D01*
D02*
G37*
G36*
X139679Y134738D02*
X138193Y132767D01*
X139850Y131518D01*
X141336Y133490D01*
X139679Y134738D01*
D02*
G37*
G36*
X135136Y133819D02*
X133650Y131847D01*
X135307Y130599D01*
X136793Y132570D01*
X135136Y133819D01*
D02*
G37*
G36*
X143291Y132016D02*
X141806Y130045D01*
X143463Y128796D01*
X144948Y130767D01*
X143291Y132016D01*
D02*
G37*
G36*
X137591Y131968D02*
X136106Y129997D01*
X137763Y128748D01*
X139248Y130720D01*
X137591Y131968D01*
D02*
G37*
G36*
X145747Y130166D02*
X144262Y128194D01*
X145919Y126945D01*
X147404Y128917D01*
X145747Y130166D01*
D02*
G37*
G36*
X203284Y132417D02*
X194988D01*
Y124122D01*
X203284D01*
Y132417D01*
D02*
G37*
G36*
X193988D02*
X185693D01*
Y124122D01*
X193988D01*
Y132417D01*
D02*
G37*
G36*
X262431Y119489D02*
X259206Y116263D01*
X253295D01*
Y116674D01*
X245321D01*
Y113779D01*
Y110886D01*
X253295D01*
Y113205D01*
X259206D01*
X262431Y109979D01*
X267186Y114734D01*
X262431Y119489D01*
D02*
G37*
G36*
X203284Y123122D02*
X194988D01*
Y114827D01*
X203284D01*
Y123122D01*
D02*
G37*
G36*
X193988D02*
X185693D01*
Y114827D01*
X193988D01*
Y123122D01*
D02*
G37*
G36*
X244321Y116674D02*
X241981D01*
Y114279D01*
X244321D01*
Y116674D01*
D02*
G37*
G36*
X226118Y129248D02*
X214866D01*
Y119966D01*
X209751Y111372D01*
X177637D01*
X172587Y119768D01*
X172986Y120168D01*
X173727Y121450D01*
X174110Y122881D01*
Y124363D01*
X173727Y125794D01*
X172986Y127076D01*
X171939Y128124D01*
X170656Y128865D01*
X169225Y129248D01*
X167744D01*
X166313Y128865D01*
X165030Y128124D01*
X163982Y127076D01*
X163242Y125794D01*
X162858Y124363D01*
Y123804D01*
X161280Y123413D01*
X145631Y122612D01*
X144076Y123784D01*
X143831Y124176D01*
X144033Y124443D01*
X145317Y126147D01*
X143260Y127696D01*
X141204Y129246D01*
X139718Y127275D01*
X140742Y126504D01*
X140785Y125845D01*
X138655Y123018D01*
X138175Y123211D01*
X138228Y123646D01*
X138127Y124369D01*
X137842Y125041D01*
X137392Y125616D01*
X136810Y126055D01*
X136133Y126329D01*
X135409Y126418D01*
X134686Y126316D01*
X134014Y126031D01*
X133439Y125582D01*
X133000Y124999D01*
X132727Y124322D01*
X132638Y123598D01*
X132739Y122875D01*
X133024Y122203D01*
X133474Y121628D01*
X134056Y121189D01*
X134733Y120915D01*
X135458Y120827D01*
X136180Y120928D01*
X136852Y121213D01*
X137427Y121663D01*
X137733Y122069D01*
X138269Y122156D01*
X138361Y122135D01*
X144438Y117556D01*
X145953Y119566D01*
X161583Y120365D01*
X161725Y120401D01*
X161872Y120408D01*
X163597Y120835D01*
X163982Y120168D01*
X165030Y119120D01*
X166313Y118379D01*
X167744Y117996D01*
X169225D01*
X169964Y118194D01*
X175461Y109054D01*
X175587Y108916D01*
X175690Y108761D01*
X175785Y108697D01*
X175862Y108613D01*
X176031Y108533D01*
X176186Y108430D01*
X176299Y108407D01*
X176402Y108358D01*
X176589Y108350D01*
X176772Y108313D01*
X210620D01*
X210807Y108350D01*
X210997Y108360D01*
X211097Y108408D01*
X211206Y108430D01*
X211364Y108535D01*
X211535Y108617D01*
X211609Y108699D01*
X211702Y108761D01*
X211807Y108919D01*
X211934Y109060D01*
X217253Y117996D01*
X226118D01*
Y129248D01*
D02*
G37*
G36*
X244321Y113279D02*
X241981D01*
Y110886D01*
X244321D01*
Y113279D01*
D02*
G37*
G36*
X119927Y113636D02*
X118441Y111664D01*
X120098Y110416D01*
X121584Y112387D01*
X119927Y113636D01*
D02*
G37*
G36*
X122382Y111785D02*
X120897Y109814D01*
X122554Y108565D01*
X124039Y110537D01*
X122382Y111785D01*
D02*
G37*
G36*
X117840Y110866D02*
X116354Y108895D01*
X118011Y107646D01*
X119497Y109617D01*
X117840Y110866D01*
D02*
G37*
G36*
X120295Y109016D02*
X118809Y107044D01*
X120466Y105795D01*
X121952Y107767D01*
X120295Y109016D01*
D02*
G37*
G36*
X123908Y106293D02*
X122422Y104322D01*
X124079Y103073D01*
X125565Y105044D01*
X123908Y106293D01*
D02*
G37*
G36*
X126364Y104443D02*
X124878Y102471D01*
X126535Y101223D01*
X128021Y103194D01*
X126364Y104443D01*
D02*
G37*
%LPD*%
D10*
X194488Y123622D02*
D03*
X393307D02*
D03*
X194488Y322441D02*
D03*
X393307D02*
D03*
D11*
X135604Y112401D02*
D03*
X132050Y107685D02*
D03*
X142712Y121834D02*
D03*
X334423Y112401D02*
D03*
X330869Y107685D02*
D03*
X341531Y121834D02*
D03*
X135604Y311220D02*
D03*
X132050Y306504D02*
D03*
X142712Y320653D02*
D03*
X334423Y311220D02*
D03*
X330869Y306504D02*
D03*
X341531Y320653D02*
D03*
D12*
X143561Y128096D02*
D03*
X126265Y105143D02*
D03*
X137493Y132669D02*
D03*
X120197Y109716D02*
D03*
X342380Y128096D02*
D03*
X325084Y105143D02*
D03*
X336312Y132669D02*
D03*
X319016Y109716D02*
D03*
X143561Y326915D02*
D03*
X126265Y303962D02*
D03*
X137493Y331487D02*
D03*
X120197Y308535D02*
D03*
X342380Y326915D02*
D03*
X325084Y303962D02*
D03*
X336312Y331487D02*
D03*
X319016Y308535D02*
D03*
D13*
X272244Y174667D02*
D03*
Y169034D02*
D03*
X208268Y234706D02*
D03*
Y229073D02*
D03*
X171792Y186114D02*
D03*
Y180481D02*
D03*
X130512Y217262D02*
D03*
Y222895D02*
D03*
X237795Y278013D02*
D03*
Y272380D02*
D03*
X471063Y174667D02*
D03*
Y169034D02*
D03*
X407087Y234706D02*
D03*
Y229073D02*
D03*
X370610Y186114D02*
D03*
Y180481D02*
D03*
X329331Y217262D02*
D03*
Y222895D02*
D03*
X436614Y278013D02*
D03*
Y272380D02*
D03*
X272244Y373486D02*
D03*
Y367853D02*
D03*
X208268Y433525D02*
D03*
Y427892D02*
D03*
X171792Y384933D02*
D03*
Y379300D02*
D03*
X130512Y416081D02*
D03*
Y421714D02*
D03*
X237795Y476832D02*
D03*
Y471199D02*
D03*
X471063Y373486D02*
D03*
Y367853D02*
D03*
X407087Y433525D02*
D03*
Y427892D02*
D03*
X370610Y384933D02*
D03*
Y379300D02*
D03*
X329331Y416081D02*
D03*
Y421714D02*
D03*
X436614Y476832D02*
D03*
Y471199D02*
D03*
D14*
X200394Y180709D02*
D03*
Y200709D02*
D03*
X188583Y180709D02*
D03*
Y200709D02*
D03*
X283071Y208583D02*
D03*
Y188583D02*
D03*
X105905Y190236D02*
D03*
Y210236D02*
D03*
X399213Y180709D02*
D03*
Y200709D02*
D03*
X387402Y180709D02*
D03*
Y200709D02*
D03*
X481890Y208583D02*
D03*
Y188583D02*
D03*
X304724Y190236D02*
D03*
Y210236D02*
D03*
X200394Y379528D02*
D03*
Y399528D02*
D03*
X188583Y379528D02*
D03*
Y399528D02*
D03*
X283071Y407402D02*
D03*
Y387402D02*
D03*
X105905Y389055D02*
D03*
Y409055D02*
D03*
X399213Y379528D02*
D03*
Y399528D02*
D03*
X387402Y379528D02*
D03*
Y399528D02*
D03*
X481890Y407402D02*
D03*
Y387402D02*
D03*
X304724Y389055D02*
D03*
Y409055D02*
D03*
D15*
X227893Y271319D02*
D03*
X222047Y277165D02*
D03*
Y233858D02*
D03*
X216201Y239704D02*
D03*
X268277Y108888D02*
D03*
X262431Y114734D02*
D03*
X267264Y155177D02*
D03*
X261417Y161024D02*
D03*
X426712Y271319D02*
D03*
X420866Y277165D02*
D03*
Y233858D02*
D03*
X415020Y239704D02*
D03*
X467096Y108888D02*
D03*
X461250Y114734D02*
D03*
X466082Y155177D02*
D03*
X460236Y161024D02*
D03*
X227893Y470138D02*
D03*
X222047Y475984D02*
D03*
Y432677D02*
D03*
X216201Y438523D02*
D03*
X268277Y307707D02*
D03*
X262431Y313553D02*
D03*
X267264Y353996D02*
D03*
X261417Y359842D02*
D03*
X426712Y470138D02*
D03*
X420866Y475984D02*
D03*
Y432677D02*
D03*
X415020Y438523D02*
D03*
X467096Y307707D02*
D03*
X461250Y313553D02*
D03*
X466082Y353996D02*
D03*
X460236Y359842D02*
D03*
D16*
X160010Y193474D02*
D03*
X154164Y187628D02*
D03*
X133494Y201408D02*
D03*
X139340Y207254D02*
D03*
X358829Y193474D02*
D03*
X352982Y187628D02*
D03*
X332313Y201408D02*
D03*
X338159Y207254D02*
D03*
X160010Y392293D02*
D03*
X154164Y386447D02*
D03*
X133494Y400226D02*
D03*
X139340Y406073D02*
D03*
X358829Y392293D02*
D03*
X352982Y386447D02*
D03*
X332313Y400226D02*
D03*
X338159Y406073D02*
D03*
D17*
X250454Y113779D02*
D03*
X244821D02*
D03*
X449273D02*
D03*
X443640D02*
D03*
X250454Y312598D02*
D03*
X244821D02*
D03*
X449273D02*
D03*
X443640D02*
D03*
D18*
X114628Y222895D02*
X130512D01*
X105905Y214173D02*
X114628Y222895D01*
X105905Y210236D02*
Y214173D01*
X283071Y161024D02*
Y188583D01*
X267264Y155177D02*
X277225D01*
X188583Y200709D02*
Y214961D01*
X176772Y109843D02*
X210620D01*
X216366Y119496D02*
X220492Y123622D01*
X210620Y109843D02*
X216366Y119496D01*
X168484Y123622D02*
X176772Y109843D01*
X142712Y121834D02*
X145200Y121059D01*
X161505Y121893D01*
X168484Y123622D01*
X221063Y233858D02*
X222047D01*
X213189Y225984D02*
X221063Y233858D01*
X213189Y223031D02*
Y225984D01*
X208268Y218110D02*
X213189Y223031D01*
X204331Y218110D02*
X208268D01*
X200394Y214173D02*
X204331Y218110D01*
X200394Y200709D02*
Y214173D01*
X213319Y239704D02*
X216201D01*
X208321Y234706D02*
X213319Y239704D01*
X208268Y234706D02*
X208321D01*
X155658Y186489D02*
X156004Y186143D01*
X156252Y186114D02*
X171792D01*
X154738Y187628D02*
X156252Y186114D01*
X154164Y187628D02*
X154738D01*
X160010Y193474D02*
X167244Y200709D01*
X188583D01*
X160010Y193474D02*
X160010D01*
X188583Y200709D02*
X200394D01*
X208937D01*
X220079Y189567D01*
Y147244D02*
Y189567D01*
Y147244D02*
X230906Y136417D01*
Y105905D02*
Y136417D01*
X251409Y114734D02*
X262431D01*
X230906Y105905D02*
X265295D01*
X170866D02*
X230906D01*
X265295D02*
X268277Y108888D01*
X268277D01*
X136552Y111453D02*
X165318D01*
X170866Y105905D01*
X135604Y112401D02*
X136552Y111453D01*
X262734Y161024D02*
X264180D01*
X272191Y169034D01*
X272244D01*
X277225Y155177D02*
X283071Y161024D01*
X268307Y188583D02*
X283071D01*
X263386Y193504D02*
X268307Y188583D01*
X263386Y193504D02*
Y235827D01*
X227893Y271319D02*
Y271319D01*
Y271319D02*
X263386Y235827D01*
X224681Y277165D02*
X226617Y279102D01*
X236707D01*
X222047Y277165D02*
X224681D01*
X236707Y279102D02*
X237795Y278013D01*
X105905Y190236D02*
X108543Y187598D01*
X119685D01*
X133494Y201408D01*
X130565Y217262D02*
X139340Y208487D01*
X130512Y217262D02*
X130565D01*
X313446Y222895D02*
X329331D01*
X304724Y214173D02*
X313446Y222895D01*
X304724Y210236D02*
Y214173D01*
X481890Y161024D02*
Y188583D01*
X466082Y155177D02*
X476044D01*
X387402Y200709D02*
Y214961D01*
X375590Y109843D02*
X409439D01*
X415185Y119496D02*
X419311Y123622D01*
X409439Y109843D02*
X415185Y119496D01*
X367303Y123622D02*
X375590Y109843D01*
X341531Y121834D02*
X344019Y121059D01*
X360324Y121893D01*
X367303Y123622D01*
X419882Y233858D02*
X420866D01*
X412008Y225984D02*
X419882Y233858D01*
X412008Y223031D02*
Y225984D01*
X407087Y218110D02*
X412008Y223031D01*
X403150Y218110D02*
X407087D01*
X399213Y214173D02*
X403150Y218110D01*
X399213Y200709D02*
Y214173D01*
X412138Y239704D02*
X415020D01*
X407140Y234706D02*
X412138Y239704D01*
X407087Y234706D02*
X407140D01*
X354477Y186489D02*
X354823Y186143D01*
X355071Y186114D02*
X370610D01*
X353557Y187628D02*
X355071Y186114D01*
X352982Y187628D02*
X353557D01*
X358829Y193474D02*
X366063Y200709D01*
X387402D01*
X358829Y193474D02*
X358829D01*
X387402Y200709D02*
X399213D01*
X407756D01*
X418898Y189567D01*
Y147244D02*
Y189567D01*
Y147244D02*
X429724Y136417D01*
Y105905D02*
Y136417D01*
X450228Y114734D02*
X461250D01*
X429724Y105905D02*
X464114D01*
X369685D02*
X429724D01*
X464114D02*
X467096Y108888D01*
X467096D01*
X335371Y111453D02*
X364137D01*
X369685Y105905D01*
X334423Y112401D02*
X335371Y111453D01*
X461553Y161024D02*
X462999D01*
X471010Y169034D01*
X471063D01*
X476044Y155177D02*
X481890Y161024D01*
X467126Y188583D02*
X481890D01*
X462205Y193504D02*
X467126Y188583D01*
X462205Y193504D02*
Y235827D01*
X426712Y271319D02*
Y271319D01*
Y271319D02*
X462205Y235827D01*
X423500Y277165D02*
X425436Y279102D01*
X435526D01*
X420866Y277165D02*
X423500D01*
X435526Y279102D02*
X436614Y278013D01*
X304724Y190236D02*
X307362Y187598D01*
X318504D01*
X332313Y201408D01*
X329384Y217262D02*
X338159Y208487D01*
X329331Y217262D02*
X329384D01*
X114628Y421714D02*
X130512D01*
X105905Y412992D02*
X114628Y421714D01*
X105905Y409055D02*
Y412992D01*
X283071Y359842D02*
Y387402D01*
X267264Y353996D02*
X277225D01*
X188583Y399528D02*
Y413779D01*
X176772Y308661D02*
X210620D01*
X216366Y318315D02*
X220492Y322441D01*
X210620Y308661D02*
X216366Y318315D01*
X168484Y322441D02*
X176772Y308661D01*
X142712Y320653D02*
X145200Y319878D01*
X161505Y320711D01*
X168484Y322441D01*
X221063Y432677D02*
X222047D01*
X213189Y424803D02*
X221063Y432677D01*
X213189Y421850D02*
Y424803D01*
X208268Y416929D02*
X213189Y421850D01*
X204331Y416929D02*
X208268D01*
X200394Y412992D02*
X204331Y416929D01*
X200394Y399528D02*
Y412992D01*
X213319Y438523D02*
X216201D01*
X208321Y433525D02*
X213319Y438523D01*
X208268Y433525D02*
X208321D01*
X155658Y385308D02*
X156004Y384962D01*
X156252Y384933D02*
X171792D01*
X154738Y386447D02*
X156252Y384933D01*
X154164Y386447D02*
X154738D01*
X160010Y392293D02*
X167244Y399528D01*
X188583D01*
X160010Y392293D02*
X160010D01*
X188583Y399528D02*
X200394D01*
X208937D01*
X220079Y388386D01*
Y346063D02*
Y388386D01*
Y346063D02*
X230906Y335236D01*
Y304724D02*
Y335236D01*
X251409Y313553D02*
X262431D01*
X230906Y304724D02*
X265295D01*
X170866D02*
X230906D01*
X265295D02*
X268277Y307707D01*
X268277D01*
X136552Y310272D02*
X165318D01*
X170866Y304724D01*
X135604Y311220D02*
X136552Y310272D01*
X262734Y359842D02*
X264180D01*
X272191Y367853D01*
X272244D01*
X277225Y353996D02*
X283071Y359842D01*
X268307Y387402D02*
X283071D01*
X263386Y392323D02*
X268307Y387402D01*
X263386Y392323D02*
Y434646D01*
X227893Y470138D02*
Y470138D01*
Y470138D02*
X263386Y434646D01*
X224681Y475984D02*
X226617Y477921D01*
X236707D01*
X222047Y475984D02*
X224681D01*
X236707Y477921D02*
X237795Y476832D01*
X105905Y389055D02*
X108543Y386417D01*
X119685D01*
X133494Y400226D01*
X130565Y416081D02*
X139340Y407306D01*
X130512Y416081D02*
X130565D01*
X313446Y421714D02*
X329331D01*
X304724Y412992D02*
X313446Y421714D01*
X304724Y409055D02*
Y412992D01*
X481890Y359842D02*
Y387402D01*
X466082Y353996D02*
X476044D01*
X387402Y399528D02*
Y413779D01*
X375590Y308661D02*
X409439D01*
X415185Y318315D02*
X419311Y322441D01*
X409439Y308661D02*
X415185Y318315D01*
X367303Y322441D02*
X375590Y308661D01*
X341531Y320653D02*
X344019Y319878D01*
X360324Y320711D01*
X367303Y322441D01*
X419882Y432677D02*
X420866D01*
X412008Y424803D02*
X419882Y432677D01*
X412008Y421850D02*
Y424803D01*
X407087Y416929D02*
X412008Y421850D01*
X403150Y416929D02*
X407087D01*
X399213Y412992D02*
X403150Y416929D01*
X399213Y399528D02*
Y412992D01*
X412138Y438523D02*
X415020D01*
X407140Y433525D02*
X412138Y438523D01*
X407087Y433525D02*
X407140D01*
X354477Y385308D02*
X354823Y384962D01*
X355071Y384933D02*
X370610D01*
X353557Y386447D02*
X355071Y384933D01*
X352982Y386447D02*
X353557D01*
X358829Y392293D02*
X366063Y399528D01*
X387402D01*
X358829Y392293D02*
X358829D01*
X387402Y399528D02*
X399213D01*
X407756D01*
X418898Y388386D01*
Y346063D02*
Y388386D01*
Y346063D02*
X429724Y335236D01*
Y304724D02*
Y335236D01*
X450228Y313553D02*
X461250D01*
X429724Y304724D02*
X464114D01*
X369685D02*
X429724D01*
X464114D02*
X467096Y307707D01*
X467096D01*
X335371Y310272D02*
X364137D01*
X369685Y304724D01*
X334423Y311220D02*
X335371Y310272D01*
X461553Y359842D02*
X462999D01*
X471010Y367853D01*
X471063D01*
X476044Y353996D02*
X481890Y359842D01*
X467126Y387402D02*
X481890D01*
X462205Y392323D02*
X467126Y387402D01*
X462205Y392323D02*
Y434646D01*
X426712Y470138D02*
Y470138D01*
Y470138D02*
X462205Y434646D01*
X423500Y475984D02*
X425436Y477921D01*
X435526D01*
X420866Y475984D02*
X423500D01*
X435526Y477921D02*
X436614Y476832D01*
X304724Y389055D02*
X307362Y386417D01*
X318504D01*
X332313Y400226D01*
X329384Y416081D02*
X338159Y407306D01*
X329331Y416081D02*
X329384D01*
D19*
X155451Y186282D02*
X155797Y185936D01*
X155800Y185932D01*
X268277Y108888D02*
X268277D01*
X250454Y113779D02*
X251409Y114734D01*
X139340Y207254D02*
Y208487D01*
X354270Y186282D02*
X354615Y185936D01*
X354619Y185932D01*
X467096Y108888D02*
X467096D01*
X449273Y113779D02*
X450228Y114734D01*
X338159Y207254D02*
Y208487D01*
X155451Y385101D02*
X155797Y384755D01*
X155800Y384751D01*
X268277Y307707D02*
X268277D01*
X250454Y312598D02*
X251409Y313553D01*
X139340Y406073D02*
Y407306D01*
X354270Y385101D02*
X354615Y384755D01*
X354619Y384751D01*
X467096Y307707D02*
X467096D01*
X449273Y312598D02*
X450228Y313553D01*
X338159Y406073D02*
Y407306D01*
D20*
X290669Y194386D02*
D03*
Y197386D02*
D03*
Y200386D02*
D03*
Y203386D02*
D03*
X297669D02*
D03*
Y197386D02*
D03*
Y194386D02*
D03*
Y200386D02*
D03*
X297913Y402858D02*
D03*
Y399858D02*
D03*
Y396858D02*
D03*
Y393858D02*
D03*
X290913D02*
D03*
Y399858D02*
D03*
Y402858D02*
D03*
Y396858D02*
D03*
X453000Y290000D02*
D03*
X450000D02*
D03*
X447000D02*
D03*
X444000D02*
D03*
Y297000D02*
D03*
X450000D02*
D03*
X453000D02*
D03*
X447000D02*
D03*
X360000D02*
D03*
X366000D02*
D03*
X363000D02*
D03*
X357000D02*
D03*
Y290000D02*
D03*
X360000D02*
D03*
X363000D02*
D03*
X366000D02*
D03*
X235000Y297000D02*
D03*
X238000D02*
D03*
X241000D02*
D03*
X244000D02*
D03*
Y290000D02*
D03*
X238000D02*
D03*
X235000D02*
D03*
X241000D02*
D03*
X154000D02*
D03*
X148000D02*
D03*
X151000D02*
D03*
X157000D02*
D03*
Y297000D02*
D03*
X154000D02*
D03*
X151000D02*
D03*
X148000D02*
D03*
X229416Y249496D02*
D03*
X227616Y251896D02*
D03*
X225716Y254196D02*
D03*
X224016Y256496D02*
D03*
X222316Y258796D02*
D03*
X172129Y254538D02*
D03*
X170329Y252238D02*
D03*
X168629Y249938D02*
D03*
X166929Y247638D02*
D03*
X165029Y245438D02*
D03*
X216916Y253785D02*
D03*
X218716Y251485D02*
D03*
X220416Y249185D02*
D03*
X222116Y246885D02*
D03*
X224016Y244685D02*
D03*
X159829Y249165D02*
D03*
X161629Y251565D02*
D03*
X163529Y253865D02*
D03*
X165229Y256165D02*
D03*
X166929Y258465D02*
D03*
X428235Y249496D02*
D03*
X426435Y251896D02*
D03*
X424535Y254196D02*
D03*
X422835Y256496D02*
D03*
X421135Y258796D02*
D03*
X370948Y254538D02*
D03*
X369148Y252238D02*
D03*
X367448Y249938D02*
D03*
X365748Y247638D02*
D03*
X363848Y245438D02*
D03*
X415735Y253785D02*
D03*
X417535Y251485D02*
D03*
X419235Y249185D02*
D03*
X420935Y246885D02*
D03*
X422835Y244685D02*
D03*
X358648Y249165D02*
D03*
X360448Y251565D02*
D03*
X362348Y253865D02*
D03*
X364048Y256165D02*
D03*
X365748Y258465D02*
D03*
X229416Y448315D02*
D03*
X227616Y450715D02*
D03*
X225716Y453015D02*
D03*
X224016Y455315D02*
D03*
X222316Y457615D02*
D03*
X172129Y453357D02*
D03*
X170329Y451057D02*
D03*
X168629Y448757D02*
D03*
X166929Y446457D02*
D03*
X165029Y444257D02*
D03*
X216916Y452604D02*
D03*
X218716Y450304D02*
D03*
X220416Y448004D02*
D03*
X222116Y445704D02*
D03*
X224016Y443504D02*
D03*
X159829Y447984D02*
D03*
X161629Y450384D02*
D03*
X163529Y452683D02*
D03*
X165229Y454984D02*
D03*
X166929Y457283D02*
D03*
X428235Y448315D02*
D03*
X426435Y450715D02*
D03*
X424535Y453015D02*
D03*
X422835Y455315D02*
D03*
X421135Y457615D02*
D03*
X370948Y453357D02*
D03*
X369148Y451057D02*
D03*
X367448Y448757D02*
D03*
X365748Y446457D02*
D03*
X363848Y444257D02*
D03*
X415735Y452604D02*
D03*
X417535Y450304D02*
D03*
X419235Y448004D02*
D03*
X420935Y445704D02*
D03*
X422835Y443504D02*
D03*
X358648Y447984D02*
D03*
X360448Y450384D02*
D03*
X362348Y452683D02*
D03*
X364048Y454984D02*
D03*
X365748Y457283D02*
D03*
D21*
X168484Y123622D02*
D03*
X367303D02*
D03*
X168484Y322441D02*
D03*
X367303D02*
D03*
D22*
X220492Y123622D02*
D03*
X419311D02*
D03*
X220492Y322441D02*
D03*
X419311D02*
D03*
D23*
X135433Y123622D02*
D03*
X128325Y114189D02*
D03*
X334252Y123622D02*
D03*
X327144Y114189D02*
D03*
X135433Y322441D02*
D03*
X128325Y313008D02*
D03*
X334252Y322441D02*
D03*
X327144Y313008D02*
D03*
D24*
X188583Y214961D02*
D03*
X211221Y167913D02*
D03*
Y213189D02*
D03*
X177756Y167913D02*
D03*
Y212205D02*
D03*
X123622Y244685D02*
D03*
X106890Y171850D02*
D03*
X283071Y150197D02*
D03*
X281102Y225000D02*
D03*
X387402Y214961D02*
D03*
X410039Y167913D02*
D03*
Y213189D02*
D03*
X376575Y167913D02*
D03*
Y212205D02*
D03*
X322441Y244685D02*
D03*
X305709Y171850D02*
D03*
X481890Y150197D02*
D03*
X479921Y225000D02*
D03*
X188583Y413779D02*
D03*
X211221Y366732D02*
D03*
Y412008D02*
D03*
X177756Y366732D02*
D03*
Y411024D02*
D03*
X123622Y443504D02*
D03*
X106890Y370669D02*
D03*
X283071Y349016D02*
D03*
X281102Y423819D02*
D03*
X387402Y413779D02*
D03*
X410039Y366732D02*
D03*
Y412008D02*
D03*
X376575Y366732D02*
D03*
Y411024D02*
D03*
X322441Y443504D02*
D03*
X305709Y370669D02*
D03*
X481890Y349016D02*
D03*
X479921Y423819D02*
D03*
M02*
