%FSTAX23Y23*%
%MOIN*%
%SFA1B1*%

%IPPOS*%
%ADD34C,0.000010*%
%LNpcb_panel_v3-1*%
%LPD*%
G54D34*
X02296Y04474D02*
X02308Y0447D01*
X02318Y04463*
X02322Y04458*
X02489Y04239*
X02492Y04234*
X02496Y04224*
X02497Y04213*
X02495Y04202D02*
X02497Y04213D01*
X0249Y04192D02*
X02495Y04202D01*
X02483Y04184D02*
X0249Y04192D01*
X02474Y04178D02*
X02483Y04184D01*
X02463Y04175D02*
X02474Y04178D01*
X02334Y04175D02*
X02463D01*
X02334D02*
X02606Y03768D01*
X02609Y03764*
X02612Y03753*
X02613Y03743*
X0261Y03732D02*
X02613Y03743D01*
X02605Y03723D02*
X0261Y03732D01*
X02598Y03715D02*
X02605Y03723D01*
X02589Y0371D02*
X02598Y03715D01*
X02578Y03707D02*
X02589Y0371D01*
X02415Y03707D02*
X02578D01*
X02415D02*
X02892Y03058D01*
Y03878*
Y03883D02*
Y03878D01*
Y03883D02*
X02894Y03893D01*
X02898Y03902*
X02904Y0391*
X02911Y03917*
X02919Y03922*
X02928Y03926*
X02938Y03928*
X02942*
X02946*
X02954Y03927*
X02961Y03924*
X02968Y03919*
X02974Y03914*
X02978Y03907*
X02981Y039*
X02982Y03892*
Y03888D02*
Y03892D01*
Y03039D02*
Y03888D01*
Y03039D02*
X03468Y03698D01*
X03304D02*
X03468D01*
X03294Y03701D02*
X03304Y03698D01*
X03285Y03706D02*
X03294Y03701D01*
X03277Y03714D02*
X03285Y03706D01*
X03272Y03723D02*
X03277Y03714D01*
X0327Y03734D02*
X03272Y03723D01*
X0327Y03734D02*
X03271Y03745D01*
X03274Y03755*
X03277Y03759*
X03548Y04166*
X0342D02*
X03548D01*
X03409Y04169D02*
X0342Y04166D01*
X034Y04175D02*
X03409Y04169D01*
X03392Y04183D02*
X034Y04175D01*
X03387Y04193D02*
X03392Y04183D01*
X03385Y04204D02*
X03387Y04193D01*
X03385Y04204D02*
X03386Y04215D01*
X0339Y04225*
X03394Y0423*
X03561Y04449*
D01*
X03564Y04454D01*
X03575Y04461*
X03586Y04465*
X03599Y04465*
X0361Y04461*
X0362Y04453*
X03628Y04443*
X03631Y04431*
Y04425D02*
Y04431D01*
Y04422D02*
Y04425D01*
X0363Y04416D02*
X03631Y04422D01*
X03628Y0441D02*
X0363Y04416D01*
X03625Y04404D02*
X03628Y0441D01*
X03623Y04401D02*
X03625Y04404D01*
X03505Y04245D02*
X03623Y04401D01*
X03505Y04245D02*
X03626D01*
X03633Y04244*
X03641Y04241*
X03647Y04236*
X03653Y04231*
X03657Y04224*
X0366Y04217*
X03661Y0421*
Y04206D02*
Y0421D01*
Y04203D02*
Y04206D01*
X0366Y04197D02*
X03661Y04203D01*
X03659Y04192D02*
X0366Y04197D01*
X03656Y04186D02*
X03659Y04192D01*
X03655Y04184D02*
X03656Y04186D01*
X03383Y03777D02*
X03655Y04184D01*
X03383Y03777D02*
X0355D01*
X03558Y03775*
X03565Y03772*
X03571Y03768*
X03577Y03762*
X03581Y03756*
X03584Y03749*
X03586Y03741*
Y03737D02*
Y03741D01*
Y03734D02*
Y03737D01*
X03585Y03728D02*
X03586Y03734D01*
X03583Y03722D02*
X03585Y03728D01*
X0358Y03716D02*
X03583Y03722D01*
X03578Y03714D02*
X0358Y03716D01*
X03037Y0298D02*
X03578Y03714D01*
X03037Y0298D02*
X03145D01*
X0351*
X03514*
X03524Y02978*
X03533Y02974*
X03541Y02968*
X03548Y02961*
X03554Y02953*
X03558Y02944*
X0356Y02934*
Y0293D02*
Y02934D01*
Y02926D02*
Y0293D01*
X03558Y02918D02*
X0356Y02926D01*
X03555Y02911D02*
X03558Y02918D01*
X03551Y02904D02*
X03555Y02911D01*
X03545Y02898D02*
X03551Y02904D01*
X03538Y02894D02*
X03545Y02898D01*
X03531Y02891D02*
X03538Y02894D01*
X03523Y0289D02*
X03531Y02891D01*
X03145Y0289D02*
X03523D01*
X03145Y023D02*
Y0289D01*
X02986Y023D02*
X03145D01*
X02986Y02093D02*
Y023D01*
Y02093D02*
Y02088D01*
X02984Y02079D02*
X02986Y02088D01*
X02981Y0207D02*
X02984Y02079D01*
X02975Y02061D02*
X02981Y0207D01*
X02968Y02055D02*
X02975Y02061D01*
X0296Y02049D02*
X02968Y02055D01*
X02951Y02045D02*
X0296Y02049D01*
X02941Y02043D02*
X02951Y02045D01*
X02936Y02043D02*
X02941D01*
X02932D02*
X02936D01*
X02925Y02045D02*
X02932Y02043D01*
X02917Y02048D02*
X02925Y02045D01*
X02911Y02052D02*
X02917Y02048D01*
X02905Y02058D02*
X02911Y02052D01*
X02901Y02064D02*
X02905Y02058D01*
X02898Y02072D02*
X02901Y02064D01*
X02896Y02079D02*
X02898Y02072D01*
X02896Y02079D02*
Y02083D01*
Y02503*
X02897*
Y0289*
X025D02*
X02897D01*
X02495D02*
X025D01*
X02485Y02891D02*
X02495Y0289D01*
X02476Y02895D02*
X02485Y02891D01*
X02468Y02901D02*
X02476Y02895D01*
X02461Y02908D02*
X02468Y02901D01*
X02455Y02916D02*
X02461Y02908D01*
X02451Y02925D02*
X02455Y02916D01*
X0245Y02935D02*
X02451Y02925D01*
X0245Y02935D02*
Y0294D01*
Y02943*
X02451Y02951*
X02454Y02958*
X02458Y02965*
X02464Y02971*
X02471Y02975*
X02478Y02978*
X02486Y0298*
X02853*
X02305Y03723D02*
X02853Y0298D01*
X02303Y03725D02*
X02305Y03723D01*
X023Y03731D02*
X02303Y03725D01*
X02298Y03737D02*
X023Y03731D01*
X02297Y03743D02*
X02298Y03737D01*
X02297Y03743D02*
Y03746D01*
Y0375*
X02299Y03758*
X02302Y03765*
X02306Y03771*
X02311Y03777*
X02318Y03781*
X02325Y03784*
X02333Y03786*
X02499*
X02228Y04193D02*
X02499Y03786D01*
X02226Y04195D02*
X02228Y04193D01*
X02224Y04201D02*
X02226Y04195D01*
X02222Y04206D02*
X02224Y04201D01*
X02221Y04212D02*
X02222Y04206D01*
X02221Y04212D02*
Y04215D01*
Y04219*
X02223Y04226*
X02226Y04233*
X0223Y0424*
X02236Y04245*
X02242Y0425*
X02249Y04253*
X02257Y04254*
X02378*
X02259Y0441D02*
X02378Y04254D01*
X02257Y04413D02*
X02259Y0441D01*
X02254Y04419D02*
X02257Y04413D01*
X02252Y04425D02*
X02254Y04419D01*
X02251Y04431D02*
X02252Y04425D01*
X02251Y04431D02*
Y04434D01*
Y0444*
X02255Y04452*
X02262Y04462*
X02272Y0447*
X02284Y04474*
X02296Y04474*
X0193Y0298D02*
X0229D01*
X02294*
X02304Y02978*
X02313Y02974*
X02321Y02968*
X02328Y02961*
X02334Y02953*
X02338Y02944*
X0234Y02934*
Y0293D02*
Y02934D01*
Y0293D02*
D01*
Y02926D02*
Y0293D01*
X02338Y02918D02*
X0234Y02926D01*
X02335Y02911D02*
X02338Y02918D01*
X02331Y02904D02*
X02335Y02911D01*
X02325Y02898D02*
X02331Y02904D01*
X02318Y02894D02*
X02325Y02898D01*
X02311Y02891D02*
X02318Y02894D01*
X02303Y0289D02*
X02311Y02891D01*
X02001Y0289D02*
X02303D01*
X02001D02*
X02199Y02631D01*
D01*
X02201Y02628D01*
X02204Y02622*
X02206Y02616*
X02207Y0261*
Y02607D02*
Y0261D01*
Y02601D02*
Y02607D01*
X02204Y02589D02*
X02207Y02601D01*
X02196Y02579D02*
X02204Y02589D01*
X02186Y02571D02*
X02196Y02579D01*
X02175Y02568D02*
X02186Y02571D01*
X02162Y02567D02*
X02175Y02568D01*
X02151Y02571D02*
X02162Y02567D01*
X0214Y02578D02*
X02151Y02571D01*
X02137Y02583D02*
X0214Y02578D01*
X01945Y02834D02*
X02137Y02583D01*
X01752D02*
X01945Y02834D01*
X01752Y02583D02*
D01*
X01749Y02579D02*
X01752Y02583D01*
X01741Y02572D02*
X01749Y02579D01*
X01731Y02568D02*
X01741Y02572D01*
X01721Y02567D02*
X01731Y02568D01*
X01711Y02568D02*
X01721Y02567D01*
X01701Y02572D02*
X01711Y02568D01*
X01693Y02579D02*
X01701Y02572D01*
X01687Y02587D02*
X01693Y02579D01*
X01683Y02596D02*
X01687Y02587D01*
X01681Y02607D02*
X01683Y02596D01*
X01681Y02607D02*
X01683Y02617D01*
X01687Y02627*
X0169Y02631*
X01888Y0289*
X0163D02*
X01888D01*
X01625D02*
X0163D01*
X01615Y02891D02*
X01625Y0289D01*
X01606Y02895D02*
X01615Y02891D01*
X01598Y02901D02*
X01606Y02895D01*
X01591Y02908D02*
X01598Y02901D01*
X01585Y02916D02*
X01591Y02908D01*
X01581Y02925D02*
X01585Y02916D01*
X0158Y02935D02*
X01581Y02925D01*
X0158Y02935D02*
Y0294D01*
Y02943D02*
Y0294D01*
Y02943D02*
X01581Y02951D01*
X01584Y02958*
X01588Y02965*
X01594Y02971*
X01601Y02975*
X01608Y02978*
X01616Y0298*
X0193*
X041D02*
X0438D01*
X04384*
X04394Y02978*
X04403Y02974*
X04411Y02968*
X04418Y02961*
X04424Y02953*
X04428Y02944*
X0443Y02934*
Y0293D02*
Y02934D01*
Y0293D02*
D01*
Y02926D02*
Y0293D01*
X04428Y02918D02*
X0443Y02926D01*
X04425Y02911D02*
X04428Y02918D01*
X04421Y02904D02*
X04425Y02911D01*
X04415Y02898D02*
X04421Y02904D01*
X04408Y02894D02*
X04415Y02898D01*
X04401Y02891D02*
X04408Y02894D01*
X04393Y0289D02*
X04401Y02891D01*
X0408Y0289D02*
X04393D01*
X03988D02*
X0408D01*
X03988D02*
X04189Y02626D01*
D01*
X04191Y02623D01*
X04194Y02617*
X04196Y02611*
X04197Y02605*
Y02602D02*
Y02605D01*
Y02596D02*
Y02602D01*
X04194Y02584D02*
X04197Y02596D01*
X04186Y02574D02*
X04194Y02584D01*
X04176Y02566D02*
X04186Y02574D01*
X04165Y02563D02*
X04176Y02566D01*
X04152Y02562D02*
X04165Y02563D01*
X04141Y02566D02*
X04152Y02562D01*
X0413Y02573D02*
X04141Y02566D01*
X04127Y02578D02*
X0413Y02573D01*
X03935Y02829D02*
X04127Y02578D01*
X03742D02*
X03935Y02829D01*
X03742Y02578D02*
D01*
X03739Y02574D02*
X03742Y02578D01*
X03731Y02567D02*
X03739Y02574D01*
X03721Y02563D02*
X03731Y02567D01*
X03711Y02562D02*
X03721Y02563D01*
X03701Y02563D02*
X03711Y02562D01*
X03691Y02567D02*
X03701Y02563D01*
X03683Y02574D02*
X03691Y02567D01*
X03677Y02582D02*
X03683Y02574D01*
X03673Y02591D02*
X03677Y02582D01*
X03671Y02602D02*
X03673Y02591D01*
X03671Y02602D02*
X03673Y02612D01*
X03677Y02622*
X0368Y02626*
X03881Y0289*
X0372D02*
X03881D01*
X03715D02*
X0372D01*
X03705Y02891D02*
X03715Y0289D01*
X03696Y02895D02*
X03705Y02891D01*
X03688Y02901D02*
X03696Y02895D01*
X03681Y02908D02*
X03688Y02901D01*
X03675Y02916D02*
X03681Y02908D01*
X03671Y02925D02*
X03675Y02916D01*
X0367Y02935D02*
X03671Y02925D01*
X0367Y02935D02*
Y0294D01*
D01*
Y02943D01*
X03671Y02951*
X03674Y02958*
X03678Y02965*
X03684Y02971*
X03691Y02975*
X03698Y02978*
X03706Y0298*
X041*
X04881Y03055D02*
Y04881D01*
X03978D02*
X04881D01*
X03978D02*
X04189Y04606D01*
D01*
X04191Y04603D01*
X04194Y04597*
X04196Y04591*
X04197Y04585*
Y04582D02*
Y04585D01*
Y04576D02*
Y04582D01*
X04194Y04564D02*
X04197Y04576D01*
X04186Y04554D02*
X04194Y04564D01*
X04176Y04546D02*
X04186Y04554D01*
X04165Y04543D02*
X04176Y04546D01*
X04152Y04542D02*
X04165Y04543D01*
X04141Y04546D02*
X04152Y04542D01*
X0413Y04553D02*
X04141Y04546D01*
X04127Y04558D02*
X0413Y04553D01*
X03935Y04809D02*
X04127Y04558D01*
X03742D02*
X03935Y04809D01*
X03742Y04558D02*
D01*
X03739Y04554D02*
X03742Y04558D01*
X03731Y04547D02*
X03739Y04554D01*
X03721Y04543D02*
X03731Y04547D01*
X03711Y04542D02*
X03721Y04543D01*
X03701Y04543D02*
X03711Y04542D01*
X03691Y04547D02*
X03701Y04543D01*
X03683Y04554D02*
X03691Y04547D01*
X03677Y04562D02*
X03683Y04554D01*
X03673Y04571D02*
X03677Y04562D01*
X03671Y04582D02*
X03673Y04571D01*
X03671Y04582D02*
X03673Y04592D01*
X03677Y04602*
X0368Y04606*
X03891Y04881*
X03138D02*
X03891D01*
X03138Y0429D02*
Y04881D01*
X02982Y0429D02*
X03138D01*
X02982Y04088D02*
Y0429D01*
Y04088D02*
Y04083D01*
X02981Y04074D02*
X02982Y04083D01*
X02977Y04064D02*
X02981Y04074D01*
X02971Y04056D02*
X02977Y04064D01*
X02964Y04049D02*
X02971Y04056D01*
X02956Y04044D02*
X02964Y04049D01*
X02947Y0404D02*
X02956Y04044D01*
X02937Y04038D02*
X02947Y0404D01*
X02932Y04038D02*
X02937D01*
X02929D02*
X02932D01*
X02921Y0404D02*
X02929Y04038D01*
X02914Y04043D02*
X02921Y0404D01*
X02907Y04047D02*
X02914Y04043D01*
X02901Y04053D02*
X02907Y04047D01*
X02897Y04059D02*
X02901Y04053D01*
X02894Y04066D02*
X02897Y04059D01*
X02892Y04074D02*
X02894Y04066D01*
X02892Y04074D02*
Y04078D01*
Y04468*
X02894*
Y04881*
X01992D02*
X02894D01*
X01992D02*
X02199Y04611D01*
D01*
X02201Y04608D01*
X02204Y04602*
X02206Y04596*
X02207Y0459*
Y04587D02*
Y0459D01*
Y04581D02*
Y04587D01*
X02204Y04569D02*
X02207Y04581D01*
X02196Y04559D02*
X02204Y04569D01*
X02186Y04551D02*
X02196Y04559D01*
X02175Y04548D02*
X02186Y04551D01*
X02162Y04547D02*
X02175Y04548D01*
X02151Y04551D02*
X02162Y04547D01*
X0214Y04558D02*
X02151Y04551D01*
X02137Y04563D02*
X0214Y04558D01*
X01945Y04814D02*
X02137Y04563D01*
X01752D02*
X01945Y04814D01*
X01752Y04563D02*
D01*
X01749Y04559D02*
X01752Y04563D01*
X01741Y04552D02*
X01749Y04559D01*
X01731Y04548D02*
X01741Y04552D01*
X01721Y04547D02*
X01731Y04548D01*
X01711Y04548D02*
X01721Y04547D01*
X01701Y04552D02*
X01711Y04548D01*
X01693Y04559D02*
X01701Y04552D01*
X01687Y04567D02*
X01693Y04559D01*
X01683Y04576D02*
X01687Y04567D01*
X01681Y04587D02*
X01683Y04576D01*
X01681Y04587D02*
X01683Y04597D01*
X01687Y04607*
X0169Y04611*
X01897Y04881*
X01159D02*
X01897D01*
X01151Y04289D02*
X01159Y04881D01*
X00994Y04289D02*
X01151D01*
X00994Y03045D02*
Y04289D01*
Y03045D02*
X01478Y03703D01*
X01314D02*
X01478D01*
X01304Y03706D02*
X01314Y03703D01*
X01295Y03711D02*
X01304Y03706D01*
X01287Y03719D02*
X01295Y03711D01*
X01282Y03728D02*
X01287Y03719D01*
X0128Y03739D02*
X01282Y03728D01*
X0128Y03739D02*
X01281Y0375D01*
X01284Y0376*
X01287Y03764*
X01558Y04171*
X0143D02*
X01558D01*
X01419Y04174D02*
X0143Y04171D01*
X0141Y0418D02*
X01419Y04174D01*
X01402Y04188D02*
X0141Y0418D01*
X01397Y04198D02*
X01402Y04188D01*
X01395Y04209D02*
X01397Y04198D01*
X01395Y04209D02*
X01396Y0422D01*
X014Y0423*
X01404Y04235*
X01571Y04454*
D01*
X01574Y04459D01*
X01585Y04466*
X01596Y0447*
X01609Y0447*
X0162Y04466*
X0163Y04458*
X01638Y04448*
X01641Y04436*
Y0443D02*
Y04436D01*
Y04427D02*
Y0443D01*
X0164Y04421D02*
X01641Y04427D01*
X01638Y04415D02*
X0164Y04421D01*
X01635Y04409D02*
X01638Y04415D01*
X01633Y04406D02*
X01635Y04409D01*
X01515Y0425D02*
X01633Y04406D01*
X01515Y0425D02*
X01636D01*
X01643Y04249*
X01651Y04246*
X01657Y04241*
X01663Y04236*
X01667Y04229*
X0167Y04222*
X01671Y04215*
Y04211D02*
Y04215D01*
Y04208D02*
Y04211D01*
X0167Y04202D02*
X01671Y04208D01*
X01669Y04197D02*
X0167Y04202D01*
X01666Y04191D02*
X01669Y04197D01*
X01665Y04189D02*
X01666Y04191D01*
X01393Y03782D02*
X01665Y04189D01*
X01393Y03782D02*
X0156D01*
X01568Y0378*
X01575Y03777*
X01581Y03773*
X01587Y03767*
X01591Y03761*
X01594Y03754*
X01596Y03746*
Y03742D02*
Y03746D01*
Y03739D02*
Y03742D01*
X01595Y03733D02*
X01596Y03739D01*
X01593Y03727D02*
X01595Y03733D01*
X0159Y03721D02*
X01593Y03727D01*
X01588Y03719D02*
X0159Y03721D01*
X01043Y0298D02*
X01588Y03719D01*
X01043Y0298D02*
X01153D01*
X0142*
X01424*
X01434Y02978*
X01443Y02974*
X01451Y02968*
X01458Y02961*
X01464Y02953*
X01468Y02944*
X0147Y02934*
Y0293D02*
Y02934D01*
Y0293D02*
D01*
Y02926D02*
Y0293D01*
X01468Y02918D02*
X0147Y02926D01*
X01465Y02911D02*
X01468Y02918D01*
X01461Y02904D02*
X01465Y02911D01*
X01455Y02898D02*
X01461Y02904D01*
X01448Y02894D02*
X01455Y02898D01*
X01441Y02891D02*
X01448Y02894D01*
X01433Y0289D02*
X01441Y02891D01*
X01152Y0289D02*
X01433D01*
X01143Y023D02*
X01152Y0289D01*
X00994Y023D02*
X01143D01*
X00994Y01065D02*
Y023D01*
Y01065D02*
X01478Y01723D01*
X01314D02*
X01478D01*
X01304Y01726D02*
X01314Y01723D01*
X01295Y01731D02*
X01304Y01726D01*
X01287Y01739D02*
X01295Y01731D01*
X01282Y01748D02*
X01287Y01739D01*
X0128Y01759D02*
X01282Y01748D01*
X0128Y01759D02*
X01281Y0177D01*
X01284Y0178*
X01287Y01784*
X01558Y02191*
X0143D02*
X01558D01*
X01419Y02194D02*
X0143Y02191D01*
X0141Y022D02*
X01419Y02194D01*
X01402Y02208D02*
X0141Y022D01*
X01397Y02218D02*
X01402Y02208D01*
X01395Y02229D02*
X01397Y02218D01*
X01395Y02229D02*
X01396Y0224D01*
X014Y0225*
X01404Y02255*
X01571Y02474*
D01*
X01574Y02479D01*
X01585Y02486*
X01596Y0249*
X01609Y0249*
X0162Y02486*
X0163Y02478*
X01638Y02468*
X01641Y02456*
Y0245D02*
Y02456D01*
Y02447D02*
Y0245D01*
X0164Y02441D02*
X01641Y02447D01*
X01638Y02435D02*
X0164Y02441D01*
X01635Y02429D02*
X01638Y02435D01*
X01633Y02426D02*
X01635Y02429D01*
X01515Y0227D02*
X01633Y02426D01*
X01515Y0227D02*
X01636D01*
X01643Y02269*
X01651Y02266*
X01657Y02261*
X01663Y02256*
X01667Y02249*
X0167Y02242*
X01671Y02235*
Y02231D02*
Y02235D01*
Y02228D02*
Y02231D01*
X0167Y02222D02*
X01671Y02228D01*
X01669Y02217D02*
X0167Y02222D01*
X01666Y02211D02*
X01669Y02217D01*
X01665Y02209D02*
X01666Y02211D01*
X01393Y01802D02*
X01665Y02209D01*
X01393Y01802D02*
X0156D01*
X01568Y018*
X01575Y01797*
X01581Y01793*
X01587Y01787*
X01591Y01781*
X01594Y01774*
X01596Y01766*
Y01762D02*
Y01766D01*
Y01759D02*
Y01762D01*
X01595Y01753D02*
X01596Y01759D01*
X01593Y01747D02*
X01595Y01753D01*
X0159Y01741D02*
X01593Y01747D01*
X01588Y01739D02*
X0159Y01741D01*
X01039Y00994D02*
X01588Y01739D01*
X01039Y00994D02*
X02857D01*
X02305Y01743D02*
X02857Y00994D01*
X02303Y01745D02*
X02305Y01743D01*
X023Y01751D02*
X02303Y01745D01*
X02298Y01757D02*
X023Y01751D01*
X02297Y01763D02*
X02298Y01757D01*
X02297Y01763D02*
Y01766D01*
Y0177*
X02299Y01778*
X02302Y01785*
X02306Y01791*
X02311Y01797*
X02318Y01801*
X02325Y01804*
X02333Y01806*
X02499*
X02228Y02213D02*
X02499Y01806D01*
X02226Y02215D02*
X02228Y02213D01*
X02224Y02221D02*
X02226Y02215D01*
X02222Y02226D02*
X02224Y02221D01*
X02221Y02232D02*
X02222Y02226D01*
X02221Y02232D02*
Y02235D01*
Y02239*
X02223Y02246*
X02226Y02253*
X0223Y0226*
X02236Y02265*
X02242Y0227*
X02249Y02273*
X02257Y02274*
X02378*
X02259Y0243D02*
X02378Y02274D01*
X02257Y02433D02*
X02259Y0243D01*
X02254Y02439D02*
X02257Y02433D01*
X02252Y02445D02*
X02254Y02439D01*
X02251Y02451D02*
X02252Y02445D01*
X02251Y02451D02*
Y02454D01*
Y0246*
X02255Y02472*
X02262Y02482*
X02272Y0249*
X02284Y02494*
X02296Y02494*
X02308Y0249*
X02318Y02483*
X02322Y02478*
X02489Y02259*
X02492Y02254*
X02496Y02244*
X02497Y02233*
X02495Y02222D02*
X02497Y02233D01*
X0249Y02212D02*
X02495Y02222D01*
X02483Y02204D02*
X0249Y02212D01*
X02474Y02198D02*
X02483Y02204D01*
X02463Y02195D02*
X02474Y02198D01*
X02334Y02195D02*
X02463D01*
X02334D02*
X02606Y01788D01*
X02609Y01784*
X02612Y01773*
X02613Y01763*
X0261Y01752D02*
X02613Y01763D01*
X02605Y01743D02*
X0261Y01752D01*
X02598Y01735D02*
X02605Y01743D01*
X02589Y0173D02*
X02598Y01735D01*
X02578Y01727D02*
X02589Y0173D01*
X02415Y01727D02*
X02578D01*
X02415D02*
X0289Y01082D01*
Y01883*
Y01888D02*
Y01883D01*
Y01888D02*
X02892Y01898D01*
X02896Y01907*
X02901Y01915*
X02908Y01922*
X02916Y01928*
X02925Y01931*
X02935Y01933*
X0294*
X02944*
X02952Y01932*
X02959Y01929*
X02966Y01924*
X02971Y01919*
X02976Y01912*
X02979Y01905*
X0298Y01897*
Y01893D02*
Y01897D01*
Y01055D02*
Y01893D01*
Y01055D02*
X03468Y01718D01*
X03304D02*
X03468D01*
X03294Y01721D02*
X03304Y01718D01*
X03285Y01726D02*
X03294Y01721D01*
X03277Y01734D02*
X03285Y01726D01*
X03272Y01743D02*
X03277Y01734D01*
X0327Y01754D02*
X03272Y01743D01*
X0327Y01754D02*
X03271Y01765D01*
X03274Y01775*
X03277Y01779*
X03548Y02186*
X0342D02*
X03548D01*
X03409Y02189D02*
X0342Y02186D01*
X034Y02195D02*
X03409Y02189D01*
X03392Y02203D02*
X034Y02195D01*
X03387Y02213D02*
X03392Y02203D01*
X03385Y02224D02*
X03387Y02213D01*
X03385Y02224D02*
X03386Y02235D01*
X0339Y02245*
X03394Y0225*
X03561Y02469*
D01*
X03564Y02474D01*
X03575Y02481*
X03586Y02485*
X03599Y02485*
X0361Y02481*
X0362Y02473*
X03628Y02463*
X03631Y02451*
Y02445D02*
Y02451D01*
Y02442D02*
Y02445D01*
X0363Y02436D02*
X03631Y02442D01*
X03628Y0243D02*
X0363Y02436D01*
X03625Y02424D02*
X03628Y0243D01*
X03623Y02421D02*
X03625Y02424D01*
X03505Y02265D02*
X03623Y02421D01*
X03505Y02265D02*
X03626D01*
X03633Y02264*
X03641Y02261*
X03647Y02256*
X03653Y02251*
X03657Y02244*
X0366Y02237*
X03661Y0223*
Y02226D02*
Y0223D01*
Y02223D02*
Y02226D01*
X0366Y02217D02*
X03661Y02223D01*
X03659Y02212D02*
X0366Y02217D01*
X03656Y02206D02*
X03659Y02212D01*
X03655Y02204D02*
X03656Y02206D01*
X03383Y01797D02*
X03655Y02204D01*
X03383Y01797D02*
X0355D01*
X03558Y01795*
X03565Y01792*
X03571Y01788*
X03577Y01782*
X03581Y01776*
X03584Y01769*
X03586Y01761*
Y01757D02*
Y01761D01*
Y01754D02*
Y01757D01*
X03585Y01748D02*
X03586Y01754D01*
X03583Y01742D02*
X03585Y01748D01*
X0358Y01736D02*
X03583Y01742D01*
X03578Y01734D02*
X0358Y01736D01*
X03032Y00994D02*
X03578Y01734D01*
X03032Y00994D02*
X04843D01*
X04295Y01738D02*
X04843Y00994D01*
X04293Y0174D02*
X04295Y01738D01*
X0429Y01746D02*
X04293Y0174D01*
X04288Y01752D02*
X0429Y01746D01*
X04287Y01758D02*
X04288Y01752D01*
X04287Y01758D02*
Y01761D01*
Y01765*
X04289Y01773*
X04292Y0178*
X04296Y01786*
X04301Y01792*
X04308Y01796*
X04315Y01799*
X04323Y01801*
X0449*
X04218Y02208D02*
X0449Y01801D01*
X04216Y0221D02*
X04218Y02208D01*
X04214Y02216D02*
X04216Y0221D01*
X04212Y02221D02*
X04214Y02216D01*
X04211Y02227D02*
X04212Y02221D01*
X04211Y02227D02*
Y0223D01*
Y02234*
X04213Y02241*
X04216Y02248*
X0422Y02255*
X04226Y0226*
X04232Y02265*
X04239Y02268*
X04247Y02269*
X04368*
X04249Y02425D02*
X04368Y02269D01*
X04247Y02428D02*
X04249Y02425D01*
X04244Y02434D02*
X04247Y02428D01*
X04242Y0244D02*
X04244Y02434D01*
X04241Y02446D02*
X04242Y0244D01*
X04241Y02446D02*
Y02449D01*
Y02455*
X04245Y02467*
X04252Y02477*
X04262Y02485*
X04274Y02489*
X04286Y02489*
X04298Y02485*
X04308Y02478*
X04312Y02473*
X04479Y02254*
X04482Y02249*
X04486Y02239*
X04487Y02228*
X04485Y02217D02*
X04487Y02228D01*
X0448Y02207D02*
X04485Y02217D01*
X04473Y02199D02*
X0448Y02207D01*
X04464Y02193D02*
X04473Y02199D01*
X04453Y0219D02*
X04464Y02193D01*
X04324Y0219D02*
X04453D01*
X04324D02*
X04596Y01783D01*
X04599Y01779*
X04602Y01768*
X04603Y01758*
X046Y01747D02*
X04603Y01758D01*
X04595Y01738D02*
X046Y01747D01*
X04588Y0173D02*
X04595Y01738D01*
X04579Y01725D02*
X04588Y0173D01*
X04568Y01722D02*
X04579Y01725D01*
X04405Y01722D02*
X04568D01*
X04405D02*
X04881Y01075D01*
Y0289*
X0459D02*
X04881D01*
X04585D02*
X0459D01*
X04575Y02891D02*
X04585Y0289D01*
X04566Y02895D02*
X04575Y02891D01*
X04558Y02901D02*
X04566Y02895D01*
X04551Y02908D02*
X04558Y02901D01*
X04545Y02916D02*
X04551Y02908D01*
X04541Y02925D02*
X04545Y02916D01*
X0454Y02935D02*
X04541Y02925D01*
X0454Y02935D02*
Y0294D01*
Y02943D02*
Y0294D01*
Y02943D02*
X04541Y02951D01*
X04544Y02958*
X04548Y02965*
X04554Y02971*
X04561Y02975*
X04568Y02978*
X04576Y0298*
X04839*
X04295Y03718D02*
X04839Y0298D01*
X04293Y0372D02*
X04295Y03718D01*
X0429Y03726D02*
X04293Y0372D01*
X04288Y03732D02*
X0429Y03726D01*
X04287Y03738D02*
X04288Y03732D01*
X04287Y03738D02*
Y03741D01*
Y03745*
X04289Y03753*
X04292Y0376*
X04296Y03766*
X04301Y03772*
X04308Y03776*
X04315Y03779*
X04323Y03781*
X0449*
X04218Y04188D02*
X0449Y03781D01*
X04216Y0419D02*
X04218Y04188D01*
X04214Y04196D02*
X04216Y0419D01*
X04212Y04201D02*
X04214Y04196D01*
X04211Y04207D02*
X04212Y04201D01*
X04211Y04207D02*
Y0421D01*
Y04214*
X04213Y04221*
X04216Y04228*
X0422Y04235*
X04226Y0424*
X04232Y04245*
X04239Y04248*
X04247Y04249*
X04368*
X04249Y04405D02*
X04368Y04249D01*
X04247Y04408D02*
X04249Y04405D01*
X04244Y04414D02*
X04247Y04408D01*
X04242Y0442D02*
X04244Y04414D01*
X04241Y04426D02*
X04242Y0442D01*
X04241Y04426D02*
Y04429D01*
Y04435*
X04245Y04447*
X04252Y04457*
X04262Y04465*
X04274Y04469*
X04286Y04469*
X04298Y04465*
X04308Y04458*
X04312Y04453*
X04479Y04234*
X04482Y04229*
X04486Y04219*
X04487Y04208*
X04485Y04197D02*
X04487Y04208D01*
X0448Y04187D02*
X04485Y04197D01*
X04473Y04179D02*
X0448Y04187D01*
X04464Y04173D02*
X04473Y04179D01*
X04453Y0417D02*
X04464Y04173D01*
X04324Y0417D02*
X04453D01*
X04324D02*
X04596Y03763D01*
X04599Y03759*
X04602Y03748*
X04603Y03738*
X046Y03727D02*
X04603Y03738D01*
X04595Y03718D02*
X046Y03727D01*
X04588Y0371D02*
X04595Y03718D01*
X04579Y03705D02*
X04588Y0371D01*
X04568Y03702D02*
X04579Y03705D01*
X04405Y03702D02*
X04568D01*
X04405D02*
X04881Y03055D01*
M02*