%FSTAX23Y23*%
%MOIN*%
%SFA1B1*%

%IPPOS*%
%AMD15*
4,1,4,0.000000,0.033400,-0.033400,0.000000,0.000000,-0.033400,0.033400,0.000000,0.000000,0.033400,0.0*
%
%AMD16*
4,1,4,-0.033400,0.000000,0.000000,-0.033400,0.033400,0.000000,0.000000,0.033400,-0.033400,0.000000,0.0*
%
%ADD13R,0.037880X0.036810*%
%ADD14R,0.078740X0.157480*%
G04~CAMADD=15~10~0.0~472.4~0.0~0.0~0.0~0.0~0~0.0~0.0~0.0~0.0~0~0.0~0.0~0.0~0.0~0~0.0~0.0~0.0~405.0~472.4~0.0*
%ADD15D15*%
G04~CAMADD=16~10~0.0~472.4~0.0~0.0~0.0~0.0~0~0.0~0.0~0.0~0.0~0~0.0~0.0~0.0~0.0~0~0.0~0.0~0.0~135.0~472.4~0.0*
%ADD16D16*%
%ADD17R,0.036810X0.037880*%
%ADD21C,0.092520*%
%ADD22R,0.092520X0.092520*%
%ADD23C,0.035430*%
%LNpcb_panel_v3-1*%
%LPD*%
G54D13*
X01098Y01551D03*
Y01494D03*
X02181Y02012D03*
Y01956D03*
X01787Y02271D03*
Y02327D03*
X03086Y01551D03*
Y01494D03*
X04169Y02012D03*
Y01956D03*
X03775Y02271D03*
Y02327D03*
X01098Y03539D03*
Y03483D03*
X02181Y04D03*
Y03944D03*
X01787Y04259D03*
Y04315D03*
X03086Y03539D03*
Y03483D03*
X04169Y04D03*
Y03944D03*
X03775Y04259D03*
Y04315D03*
G54D14*
X01059Y02105D03*
Y01905D03*
X0283Y02085D03*
Y01885D03*
X01885Y01803D03*
Y02003D03*
X02003Y01807D03*
Y02007D03*
X03047Y02105D03*
Y01905D03*
X04818Y02085D03*
Y01885D03*
X03874Y01803D03*
Y02003D03*
X03992Y01807D03*
Y02007D03*
X01059Y04093D03*
Y03893D03*
X0283Y04074D03*
Y03874D03*
X01885Y03792D03*
Y03992D03*
X02003Y03795D03*
Y03995D03*
X03047Y04093D03*
Y03893D03*
X04818Y04074D03*
Y03874D03*
X03874Y03792D03*
Y03992D03*
X03992Y03795D03*
Y03995D03*
G54D15*
X02525Y02092D03*
X02584Y02033D03*
X02289Y01934D03*
X02348Y01876D03*
X04514Y02092D03*
X04572Y02033D03*
X04277Y01934D03*
X04336Y01876D03*
X02525Y0408D03*
X02584Y04021D03*
X02289Y03922D03*
X02348Y03864D03*
X04514Y0408D03*
X04572Y04021D03*
X04277Y03922D03*
X04336Y03864D03*
G54D16*
X01433Y01334D03*
X01491Y01393D03*
X01099Y01354D03*
X01157Y01413D03*
X01669Y02731D03*
X0161Y02673D03*
X01679Y02348D03*
X01737Y02407D03*
X03421Y01334D03*
X0348Y01393D03*
X03087Y01354D03*
X03145Y01413D03*
X03657Y02731D03*
X03598Y02673D03*
X03667Y02348D03*
X03726Y02407D03*
X01433Y03323D03*
X01491Y03381D03*
X01099Y03343D03*
X01157Y03401D03*
X01669Y0472D03*
X0161Y04661D03*
X01679Y04336D03*
X01737Y04395D03*
X03421Y03323D03*
X0348Y03381D03*
X03087Y03343D03*
X03145Y03401D03*
X03657Y0472D03*
X03598Y04661D03*
X03667Y04336D03*
X03726Y04395D03*
G54D17*
X01608Y01501D03*
X01552D03*
X01483Y02781D03*
X01539D03*
X02681Y02161D03*
X02625D03*
X03597Y01501D03*
X0354D03*
X03471Y02781D03*
X03528D03*
X04669Y02161D03*
X04613D03*
X01608Y0349D03*
X01552D03*
X01483Y04769D03*
X01539D03*
X02681Y04149D03*
X02625D03*
X03597Y0349D03*
X0354D03*
X03471Y04769D03*
X03528D03*
X04669Y04149D03*
X04613D03*
G54D21*
X01684Y01236D03*
X03673D03*
X01684Y03224D03*
X03673D03*
G54D22*
X02204Y01236D03*
X04193D03*
X02204Y03224D03*
X04193D03*
G54D23*
X01354Y01236D03*
X01283Y01141D03*
X03342Y01236D03*
X03271Y01141D03*
X01354Y03224D03*
X01283Y0313D03*
X03342Y03224D03*
X03271Y0313D03*
M02*