G04*
G04 #@! TF.GenerationSoftware,Altium Limited,Altium Designer,23.1.1 (15)*
G04*
G04 Layer_Color=16711935*
%FSLAX44Y44*%
%MOMM*%
G71*
G04*
G04 #@! TF.SameCoordinates,76C6093D-9881-4B20-89D2-928948A7DA56*
G04*
G04*
G04 #@! TF.FilePolarity,Positive*
G04*
G01*
G75*
%ADD33C,0.0000*%
D33*
X480000Y18652D02*
Y480000D01*
X252654D02*
X480000D01*
X252654D02*
X304746Y411879D01*
X304746Y411879D02*
X304746Y411879D01*
X304746Y411879D02*
X305243Y411229D01*
X306013Y409785D01*
X306538Y408235D01*
X306804Y406620D01*
Y405802D02*
Y406620D01*
Y404233D02*
Y405802D01*
X305843Y401246D02*
X306804Y404233D01*
X304015Y398697D02*
X305843Y401246D01*
X301493Y396829D02*
X304015Y398697D01*
X298522Y395823D02*
X301493Y396829D01*
X295385Y395775D02*
X298522Y395823D01*
X292383Y396690D02*
X295385Y395775D01*
X289806Y398479D02*
X292383Y396690D01*
X288853Y399725D02*
X289806Y398479D01*
X240030Y463571D02*
X288853Y399725D01*
X191207D02*
X240030Y463571D01*
X191207Y399725D02*
X191207D01*
X190407Y398679D02*
X191207Y399725D01*
X188320Y397072D02*
X190407Y398679D01*
X185888Y396060D02*
X188320Y397072D01*
X183277Y395712D02*
X185888Y396060D01*
X180665Y396051D02*
X183277Y395712D01*
X178230Y397055D02*
X180665Y396051D01*
X176137Y398655D02*
X178230Y397055D01*
X174530Y400742D02*
X176137Y398655D01*
X173518Y403174D02*
X174530Y400742D01*
X173170Y405785D02*
X173518Y403174D01*
X173170Y405785D02*
X173510Y408397D01*
X174514Y410832D01*
X175314Y411879D01*
X227406Y480000D01*
X40000D02*
X227406D01*
X40000Y330000D02*
Y480000D01*
X0Y330000D02*
X40000D01*
X0Y16295D02*
Y330000D01*
Y16295D02*
X121582Y181299D01*
X79951D02*
X121582D01*
X77333Y182023D02*
X79951Y181299D01*
X75003Y183419D02*
X77333Y182023D01*
X73130Y185385D02*
X75003Y183419D01*
X71848Y187780D02*
X73130Y185385D01*
X71251Y190430D02*
X71848Y187780D01*
X71251Y190430D02*
X71382Y193143D01*
X72232Y195722D01*
X72985Y196852D01*
X141945Y300291D01*
X109239D02*
X141945D01*
X106551Y301057D02*
X109239Y300291D01*
X104176Y302531D02*
X106551Y301057D01*
X102295Y304599D02*
X104176Y302531D01*
X101053Y307103D02*
X102295Y304599D01*
X100546Y309852D02*
X101053Y307103D01*
X100546Y309852D02*
X100810Y312634D01*
X101828Y315238D01*
X102674Y316350D01*
X145074Y372110D01*
Y372110D02*
Y372110D01*
Y372110D02*
X146024Y373360D01*
X148600Y375158D01*
X151603Y376079D01*
X154743Y376037D01*
X157720Y375033D01*
X160246Y373167D01*
X162078Y370616D01*
X163041Y367626D01*
Y366055D02*
Y367626D01*
Y365240D02*
Y366055D01*
X162777Y363632D02*
X163041Y365240D01*
X162257Y362088D02*
X162777Y363632D01*
X161493Y360648D02*
X162257Y362088D01*
X161000Y360000D02*
X161493Y360648D01*
X130811Y320299D02*
X161000Y360000D01*
X130811Y320299D02*
X161622D01*
X163555Y319914D01*
X165375Y319160D01*
X167014Y318066D01*
X168407Y316672D01*
X169502Y315034D01*
X170256Y313213D01*
X170641Y311280D01*
Y310295D02*
Y311280D01*
Y309559D02*
Y310295D01*
X170425Y308101D02*
X170641Y309559D01*
X169998Y306691D02*
X170425Y308101D01*
X169369Y305359D02*
X169998Y306691D01*
X168960Y304746D02*
X169369Y305359D01*
X100001Y201307D02*
X168960Y304746D01*
X100001Y201307D02*
X142365D01*
X144298Y200923D01*
X146118Y200168D01*
X147757Y199074D01*
X149150Y197680D01*
X150245Y196042D01*
X150999Y194221D01*
X151383Y192288D01*
Y191303D02*
Y192288D01*
Y190507D02*
Y191303D01*
X151131Y188934D02*
X151383Y190507D01*
X150634Y187421D02*
X151131Y188934D01*
X149903Y186005D02*
X150634Y187421D01*
X149430Y185364D02*
X149903Y186005D01*
X12846Y0D02*
X149430Y185364D01*
X12846Y0D02*
X468891D01*
X331570Y186364D02*
X468891Y0D01*
X331097Y187005D02*
X331570Y186364D01*
X330366Y188421D02*
X331097Y187005D01*
X329869Y189934D02*
X330366Y188421D01*
X329617Y191507D02*
X329869Y189934D01*
X329617Y191507D02*
Y192303D01*
Y193288D01*
X330001Y195221D01*
X330755Y197042D01*
X331850Y198680D01*
X333243Y200074D01*
X334882Y201168D01*
X336702Y201922D01*
X338635Y202307D01*
X380999D01*
X312039Y305746D02*
X380999Y202307D01*
X311631Y306359D02*
X312039Y305746D01*
X311002Y307691D02*
X311631Y306359D01*
X310575Y309101D02*
X311002Y307691D01*
X310359Y310558D02*
X310575Y309101D01*
X310359Y310558D02*
Y311295D01*
Y312280D01*
X310744Y314213D01*
X311498Y316034D01*
X312593Y317672D01*
X313986Y319066D01*
X315625Y320160D01*
X317445Y320914D01*
X319378Y321299D01*
X350189D01*
X320000Y361000D02*
X350189Y321299D01*
X319507Y361648D02*
X320000Y361000D01*
X318743Y363088D02*
X319507Y361648D01*
X318223Y364632D02*
X318743Y363088D01*
X317959Y366240D02*
X318223Y364632D01*
X317959Y366240D02*
Y367055D01*
Y368626D01*
X318922Y371615D01*
X320754Y374167D01*
X323280Y376034D01*
X326256Y377037D01*
X329397Y377079D01*
X332400Y376158D01*
X334976Y374360D01*
X335926Y373110D01*
X335926Y373110D01*
X378326Y317350D01*
X379172Y316238D01*
X380190Y313634D01*
X380454Y310852D01*
X379946Y308103D02*
X380454Y310852D01*
X378705Y305599D02*
X379946Y308103D01*
X376824Y303531D02*
X378705Y305599D01*
X374449Y302057D02*
X376824Y303531D01*
X371761Y301291D02*
X374449Y302057D01*
X339055Y301291D02*
X371761D01*
X339055D02*
X408015Y197852D01*
X408768Y196722D01*
X409618Y194143D01*
X409749Y191430D01*
X409152Y188780D02*
X409749Y191430D01*
X407870Y186385D02*
X409152Y188780D01*
X405997Y184419D02*
X407870Y186385D01*
X403667Y183023D02*
X405997Y184419D01*
X401049Y182299D02*
X403667Y183023D01*
X359418Y182299D02*
X401049D01*
X359418D02*
X480000Y18652D01*
M02*
