G04*
G04 #@! TF.GenerationSoftware,Altium Limited,Altium Designer,23.1.1 (15)*
G04*
G04 Layer_Color=32896*
%FSLAX44Y44*%
%MOMM*%
G71*
G04*
G04 #@! TF.SameCoordinates,76C6093D-9881-4B20-89D2-928948A7DA56*
G04*
G04*
G04 #@! TF.FilePolarity,Positive*
G04*
G01*
G75*
%ADD10C,0.2500*%
%ADD11C,1.0000*%
%ADD12C,0.0001*%
D10*
X103017Y76767D02*
G03*
X103017Y76767I-1250J0D01*
G01*
X18092Y81842D02*
G03*
X18092Y81842I-1250J0D01*
G01*
X179483Y448233D02*
G03*
X179483Y448233I-1250J0D01*
G01*
X380517Y285733D02*
G03*
X380517Y285733I-1250J0D01*
G01*
X165517Y334267D02*
G03*
X165517Y334267I-1250J0D01*
G01*
X320517Y245733D02*
G03*
X320517Y245733I-1250J0D01*
G01*
D11*
X102674Y317350D02*
X145074Y373110D01*
X174372Y411507D02*
X227000Y481000D01*
X240030Y464571D02*
X291095Y398584D01*
X190407Y399679D02*
X240030Y464571D01*
X130811Y321299D02*
X161247Y361324D01*
X320000Y361000D02*
X350189Y322299D01*
X332500Y186000D02*
X467500Y1000D01*
X312039Y306746D02*
X380999Y203307D01*
X100001Y202307D02*
X168961Y305746D01*
X12500Y1000D02*
X147500Y183500D01*
X302500Y321000D02*
X350189Y322299D01*
X302500Y321000D02*
X311631Y307359D01*
X130811Y321299D02*
X177500Y321000D01*
X168961Y305746D02*
X177500Y321000D01*
X100001Y202307D02*
X159000Y202000D01*
X147500Y183500D02*
X161000Y202000D01*
X322000Y200000D02*
X334000Y184000D01*
X319000Y204000D02*
X322000Y200000D01*
X319000Y204000D02*
X380999Y203307D01*
X12500Y1000D02*
X467500D01*
X330001Y196221D02*
X334882Y202168D01*
X147757Y200074D02*
X154000Y195000D01*
X72985Y197852D02*
X141945Y301291D01*
X0Y17000D02*
X121582Y182299D01*
X0Y17000D02*
Y331000D01*
X40000D01*
Y481000D01*
X227000D01*
X253000D02*
X480000D01*
Y21000D02*
Y481000D01*
X359418Y183299D02*
X480000Y21000D01*
X359418Y183299D02*
X395000Y183000D01*
X339055Y302291D02*
X405000Y204000D01*
X335926Y374110D02*
X378326Y318350D01*
X253000Y481000D02*
X305628Y411507D01*
X339055Y302291D02*
X390000Y303000D01*
X378326Y318350D02*
X390000Y303000D01*
X378705Y306599D02*
X384163Y310675D01*
X405000Y204000D02*
X417000Y184000D01*
X392000Y183000D02*
X418000Y182000D01*
X392000Y183000D02*
X408511Y188583D01*
X93000Y304000D02*
X102251Y316794D01*
X91000Y300000D02*
X141945Y301291D01*
X99000Y307000D02*
X103000Y301000D01*
X64000Y184000D02*
X72232Y196722D01*
X62000Y181000D02*
X121582Y182299D01*
X76168Y183721D02*
X121582Y182299D01*
X70000Y188000D02*
X73000Y183000D01*
D12*
X116970Y78181D02*
X131819Y93030D01*
X103181Y91970D02*
X118030Y106819D01*
X140000Y136500D02*
X155000D01*
X140000Y118000D02*
X155000D01*
X0Y330000D02*
X40000D01*
X412500Y304000D02*
X427500D01*
X334470Y244319D02*
X349319Y229470D01*
X320681Y230530D02*
X335530Y215681D01*
X165681Y349470D02*
X180530Y364319D01*
X179470Y335681D02*
X194319Y350530D01*
X244840Y179600D02*
X270240D01*
Y281200D01*
X244840D02*
X270240D01*
X209760Y178800D02*
X235160D01*
X209760D02*
Y280400D01*
X235160D01*
X309500Y242500D02*
Y257500D01*
X291000Y242500D02*
Y257500D01*
X190500Y322500D02*
Y337500D01*
X209000Y322500D02*
Y337500D01*
X18256Y97045D02*
X33106Y111894D01*
X32045Y83257D02*
X46894Y98106D01*
X161970Y418181D02*
X176819Y433030D01*
X148181Y431970D02*
X163030Y446819D01*
X394470Y284319D02*
X409319Y269470D01*
X380681Y270530D02*
X395530Y255681D01*
X4840Y306200D02*
X30240D01*
Y204600D02*
Y306200D01*
X4840Y204600D02*
X30240D01*
X449760Y301200D02*
X475160D01*
X449760Y199600D02*
Y301200D01*
Y199600D02*
X475160D01*
X34500Y125346D02*
Y140346D01*
X16000Y125346D02*
Y140346D01*
X122500Y462000D02*
X137500D01*
X122500Y443500D02*
X137500D01*
X412500Y285500D02*
X427500D01*
X11819Y1648D02*
X467500Y0D01*
X480000Y480000D02*
X480254Y19010D01*
X255000Y480000D02*
X480000D01*
X40000Y330000D02*
Y480000D01*
M02*
