G04*
G04 #@! TF.GenerationSoftware,Altium Limited,Altium Designer,23.1.1 (15)*
G04*
G04 Layer_Color=2752767*
%FSLAX44Y44*%
%MOMM*%
G71*
G04*
G04 #@! TF.SameCoordinates,76C6093D-9881-4B20-89D2-928948A7DA56*
G04*
G04*
G04 #@! TF.FilePolarity,Positive*
G04*
G01*
G75*
%ADD34C,0.1693*%
%ADD35C,0.1270*%
D34*
X179030Y60000D02*
G03*
X179030Y60000I-5080J0D01*
G01*
X311130D02*
G03*
X311130Y60000I-5080J0D01*
G01*
D35*
X84920Y54920D02*
Y65080D01*
X95080D01*
Y54920D01*
X84920D01*
X66866Y30961D02*
Y41121D01*
X77026D01*
Y30961D01*
X66866D01*
X328716Y374640D02*
X323636Y384800D01*
X333796D01*
X328716Y374640D01*
X324144Y380736D02*
X319064Y390896D01*
X329224D01*
X324144Y380736D01*
X319318Y386578D02*
X314238Y396738D01*
X324398D01*
X319318Y386578D01*
X315000Y392420D02*
X309920Y402580D01*
X320080D01*
X315000Y392420D01*
X310682Y398262D02*
X305602Y408422D01*
X315762D01*
X310682Y398262D01*
X183208Y387446D02*
X178128Y397606D01*
X188288D01*
X183208Y387446D01*
X178636Y381604D02*
X173556Y391764D01*
X183716D01*
X178636Y381604D01*
X174318Y375762D02*
X169238Y385922D01*
X179398D01*
X174318Y375762D01*
X170000Y369920D02*
X164920Y380080D01*
X175080D01*
X170000Y369920D01*
X165174Y364332D02*
X160094Y374492D01*
X170254D01*
X165174Y364332D01*
X282500Y167420D02*
X285040Y169960D01*
X287580D01*
X285040Y172500D01*
X287580Y175040D01*
X285040D01*
X282500Y177580D01*
X279960Y175040D01*
X277420D01*
X279960Y172500D01*
X277420Y169960D01*
X279960D01*
X282500Y167420D01*
Y282420D02*
X285040Y284960D01*
X287580D01*
X285040Y287500D01*
X287580Y290040D01*
X285040D01*
X282500Y292580D01*
X279960Y290040D01*
X277420D01*
X279960Y287500D01*
X277420Y284960D01*
X279960D01*
X282500Y282420D01*
X197500Y167420D02*
X200040Y169960D01*
X202580D01*
X200040Y172500D01*
X202580Y175040D01*
X200040D01*
X197500Y177580D01*
X194960Y175040D01*
X192420D01*
X194960Y172500D01*
X192420Y169960D01*
X194960D01*
X197500Y167420D01*
Y279920D02*
X200040Y282460D01*
X202580D01*
X200040Y285000D01*
X202580Y287540D01*
X200040D01*
X197500Y290080D01*
X194960Y287540D01*
X192420D01*
X194960Y285000D01*
X192420Y282460D01*
X194960D01*
X197500Y279920D01*
X60000Y362420D02*
X62540Y364960D01*
X65080D01*
X62540Y367500D01*
X65080Y370040D01*
X62540D01*
X60000Y372580D01*
X57460Y370040D01*
X54920D01*
X57460Y367500D01*
X54920Y364960D01*
X57460D01*
X60000Y362420D01*
X17500Y177420D02*
X20040Y179960D01*
X22580D01*
X20040Y182500D01*
X22580Y185040D01*
X20040D01*
X17500Y187580D01*
X14960Y185040D01*
X12420D01*
X14960Y182500D01*
X12420Y179960D01*
X14960D01*
X17500Y177420D01*
X465000Y122420D02*
X467540Y124960D01*
X470080D01*
X467540Y127500D01*
X470080Y130040D01*
X467540D01*
X465000Y132580D01*
X462460Y130040D01*
X459920D01*
X462460Y127500D01*
X459920Y124960D01*
X462460D01*
X465000Y122420D01*
X460000Y312420D02*
X462540Y314960D01*
X465080D01*
X462540Y317500D01*
X465080Y320040D01*
X462540D01*
X460000Y322580D01*
X457460Y320040D01*
X454920D01*
X457460Y317500D01*
X454920Y314960D01*
X457460D01*
X460000Y312420D01*
X296966Y385534D02*
X291886Y395694D01*
X302046D01*
X296966Y385534D01*
X301538Y379692D02*
X296458Y389852D01*
X306618D01*
X301538Y379692D01*
X305856Y373850D02*
X300776Y384010D01*
X310936D01*
X305856Y373850D01*
X310174Y368008D02*
X305094Y378168D01*
X315254D01*
X310174Y368008D01*
X315000Y362420D02*
X309920Y372580D01*
X320080D01*
X315000Y362420D01*
X151966Y373798D02*
X146886Y383958D01*
X157046D01*
X151966Y373798D01*
X156538Y379894D02*
X151458Y390054D01*
X161618D01*
X156538Y379894D01*
X161364Y385736D02*
X156284Y395896D01*
X166444D01*
X161364Y385736D01*
X165682Y391578D02*
X160602Y401738D01*
X170762D01*
X165682Y391578D01*
X170000Y397420D02*
X164920Y407580D01*
X175080D01*
X170000Y397420D01*
M02*
