%FSTAX23Y23*%
%MOIN*%
%SFA1B1*%

%IPPOS*%
%AMD15*
4,1,4,0.000000,0.033400,-0.033400,0.000000,0.000000,-0.033400,0.033400,0.000000,0.000000,0.033400,0.0*
%
%AMD16*
4,1,4,-0.033400,0.000000,0.000000,-0.033400,0.033400,0.000000,0.000000,0.033400,-0.033400,0.000000,0.0*
%
%ADD13R,0.037880X0.036810*%
%ADD14R,0.078740X0.157480*%
G04~CAMADD=15~10~0.0~472.4~0.0~0.0~0.0~0.0~0~0.0~0.0~0.0~0.0~0~0.0~0.0~0.0~0.0~0~0.0~0.0~0.0~405.0~472.4~0.0*
%ADD15D15*%
G04~CAMADD=16~10~0.0~472.4~0.0~0.0~0.0~0.0~0~0.0~0.0~0.0~0.0~0~0.0~0.0~0.0~0.0~0~0.0~0.0~0.0~135.0~472.4~0.0*
%ADD16D16*%
%ADD17R,0.036810X0.037880*%
%ADD18C,0.010000*%
%ADD19C,0.000000*%
%ADD20C,0.019680*%
%ADD21C,0.092520*%
%ADD22R,0.092520X0.092520*%
%ADD23C,0.035430*%
%ADD24C,0.050000*%
%LNpcb_panel_v3-1*%
%LPD*%
G36*
X04877Y03086D02*
X04873Y03085D01*
X04426Y03691*
X04428Y03695*
X04567*
X04568Y03695*
X04569Y03696*
X0458Y03698*
X04581Y03699*
X04582Y037*
X04591Y03705*
X04592Y03706*
X04593Y03707*
X04601Y03714*
X04602Y03716*
X04602Y03717*
X04608Y03726*
X04608Y03727*
X04608Y03729*
X04611Y03739*
X04611Y0374*
X04611Y03742*
X04611Y03753*
X0461Y03754*
X0461Y03755*
X04607Y03765*
X04606Y03767*
X04606Y03768*
X04603Y03772*
X04345Y04159*
X04347Y04164*
X04451*
X04453Y04164*
X04454Y04164*
X04465Y04167*
X04466Y04168*
X04467Y04168*
X04477Y04174*
X04478Y04175*
X04479Y04176*
X04486Y04184*
X04487Y04185*
X04488Y04186*
X04493Y04196*
X04493Y04198*
X04494Y04199*
X04496Y0421*
X04496Y04211*
X04496Y04212*
X04495Y04223*
X04494Y04225*
X04494Y04226*
X0449Y04236*
X04489Y04238*
X04489Y04239*
X04485Y04243*
X04318Y04463*
X04315Y04468*
X04313Y04469*
X04312Y0447*
X04302Y04477*
X04301Y04477*
X04302Y04479*
Y04487*
X04299Y04494*
X04293Y04499*
X04286Y04502*
X04284*
X04284Y04503*
Y04511*
X04281Y04518*
X04275Y04523*
X04268Y04526*
X04265*
Y04534*
X04262Y04541*
X04256Y04546*
X04249Y04549*
X04248*
Y04557*
X04245Y04564*
X04239Y04569*
X04232Y04572*
X04231*
Y0458*
X04228Y04587*
X04222Y04592*
X04215Y04595*
X04207*
X04204Y046*
X04202Y04604*
X04202Y04605*
X04201Y04606*
X04198Y04612*
X04198Y04612*
X04198Y04613*
X04196Y04615*
X03999Y04873*
X04001Y04877*
X04041*
X04877*
Y03086*
G37*
G36*
X02889D02*
X02885Y03085D01*
X02438Y03691*
X0244Y03695*
X02578*
X0258Y03695*
X02581Y03696*
X02591Y03698*
X02593Y03699*
X02594Y037*
X02603Y03705*
X02604Y03706*
X02605Y03707*
X02613Y03714*
X02613Y03716*
X02614Y03717*
X02619Y03726*
X0262Y03727*
X0262Y03729*
X02623Y03739*
X02623Y0374*
X02623Y03742*
X02622Y03753*
X02622Y03754*
X02622Y03755*
X02619Y03765*
X02618Y03767*
X02617Y03768*
X02614Y03772*
X02356Y04159*
X02359Y04164*
X02463*
X02465Y04164*
X02466Y04164*
X02477Y04167*
X02478Y04168*
X02479Y04168*
X02488Y04174*
X02489Y04175*
X02491Y04176*
X02498Y04184*
X02499Y04185*
X025Y04186*
X02504Y04196*
X02505Y04198*
X02505Y04199*
X02507Y0421*
X02507Y04211*
X02508Y04212*
X02506Y04223*
X02506Y04225*
X02506Y04226*
X02502Y04236*
X02501Y04238*
X025Y04239*
X02497Y04243*
X0233Y04463*
X02326Y04468*
X02325Y04469*
X02324Y0447*
X02314Y04477*
X02313Y04477*
X02314Y04479*
Y04487*
X0231Y04494*
X02305Y04499*
X02298Y04502*
X02296*
X02296Y04503*
Y04511*
X02292Y04518*
X02287Y04523*
X0228Y04526*
X02277*
Y04534*
X02273Y04541*
X02268Y04546*
X02261Y04549*
X0226*
Y04557*
X02256Y04564*
X02251Y04569*
X02244Y04572*
X02243*
Y0458*
X02239Y04587*
X02234Y04592*
X02227Y04595*
X02219*
X02216Y046*
X02214Y04604*
X02214Y04605*
X02213Y04606*
X0221Y04612*
X0221Y04612*
X02209Y04613*
X02207Y04615*
X0201Y04873*
X02013Y04877*
X02053*
X02889*
Y03086*
G37*
G36*
X03867Y04873D02*
X0367Y04615D01*
X03667Y04611*
X03666Y0461*
X03665Y04609*
X03661Y04599*
X03661Y04598*
X03661Y04597*
X0366Y04592*
X03653*
X03646Y04589*
X0364Y04584*
X03637Y04576*
Y04569*
X03636*
X03629Y04566*
X03623Y04561*
X0362Y04553*
Y04546*
X03619*
X03612Y04543*
X03606Y04538*
X03603Y0453*
Y04523*
X036*
X03593Y0452*
X03587Y04515*
X03584Y04507*
Y04499*
X03584Y04499*
X03582*
X03575Y04496*
X03569Y04491*
X03566Y04483*
Y04475*
X03567Y04473*
X03567Y04473*
X03557Y04466*
X03556Y04465*
X03554Y04464*
X03551Y04459*
X03384Y04239*
X0338Y04235*
X0338Y04234*
X03379Y04232*
X03375Y04222*
X03375Y04221*
X03374Y0422*
X03373Y04209*
X03374Y04207*
X03374Y04206*
X03376Y04195*
X03376Y04194*
X03376Y04192*
X03381Y04182*
X03382Y04181*
X03383Y0418*
X0339Y04172*
X03391Y04171*
X03392Y0417*
X03402Y04164*
X03403Y04164*
X03404Y04163*
X03415Y0416*
X03416Y0416*
X03418Y0416*
X03522*
X03525Y04155*
X03267Y03768*
X03264Y03764*
X03263Y03763*
X03262Y03761*
X03259Y03751*
X03259Y0375*
X03259Y03749*
X03258Y03738*
X03258Y03737*
X03258Y03735*
X03261Y03725*
X03261Y03723*
X03262Y03722*
X03267Y03713*
X03267Y03712*
X03268Y03711*
X03276Y03703*
X03277Y03702*
X03278Y03701*
X03287Y03696*
X03288Y03695*
X03289Y03694*
X033Y03692*
X03301Y03692*
X03302Y03691*
X03441*
X03443Y03687*
X02992Y03075*
X02988Y03077*
Y04277*
X03145*
X03149Y04277*
X03152Y0428*
X03155Y04283*
X03155Y04287*
Y04877*
X03865*
X03867Y04873*
G37*
G36*
X01879D02*
X01682Y04615D01*
X01678Y04611*
X01678Y0461*
X01677Y04609*
X01673Y04599*
X01673Y04598*
X01673Y04597*
X01672Y04592*
X01665*
X01658Y04589*
X01652Y04584*
X01649Y04576*
Y04569*
X01648*
X01641Y04566*
X01635Y04561*
X01632Y04553*
Y04546*
X01631*
X01624Y04543*
X01618Y04538*
X01615Y0453*
Y04523*
X01612*
X01605Y0452*
X01599Y04515*
X01596Y04507*
Y04499*
X01596Y04499*
X01594*
X01587Y04496*
X01581Y04491*
X01578Y04483*
Y04475*
X01579Y04473*
X01579Y04473*
X01569Y04466*
X01567Y04465*
X01566Y04464*
X01563Y04459*
X01396Y04239*
X01392Y04235*
X01392Y04234*
X01391Y04232*
X01387Y04222*
X01387Y04221*
X01386Y0422*
X01385Y04209*
X01385Y04207*
X01385Y04206*
X01387Y04195*
X01388Y04194*
X01388Y04192*
X01393Y04182*
X01394Y04181*
X01395Y0418*
X01402Y04172*
X01403Y04171*
X01404Y0417*
X01414Y04164*
X01415Y04164*
X01416Y04163*
X01427Y0416*
X01428Y0416*
X0143Y0416*
X01534*
X01536Y04155*
X01278Y03768*
X01275Y03764*
X01275Y03763*
X01274Y03761*
X01271Y03751*
X01271Y0375*
X0127Y03749*
X0127Y03738*
X0127Y03737*
X0127Y03735*
X01272Y03725*
X01273Y03723*
X01273Y03722*
X01278Y03713*
X01279Y03712*
X0128Y03711*
X01287Y03703*
X01289Y03702*
X0129Y03701*
X01299Y03696*
X013Y03695*
X01301Y03694*
X01312Y03692*
X01313Y03692*
X01314Y03691*
X01452*
X01455Y03687*
X01004Y03075*
X01Y03077*
Y04277*
X01157*
X01161Y04277*
X01164Y0428*
X01166Y04283*
X01167Y04287*
Y04877*
X01876*
X01879Y04873*
G37*
G36*
X04117Y04555D02*
X04121Y0455D01*
X04122Y04549*
X04123Y04548*
X04133Y04541*
X04134Y0454*
X04136Y0454*
X04136Y0454*
X04139Y04534*
X04137Y04529*
Y04522*
X0414Y04514*
X04146Y04509*
X04153Y04506*
X04155*
Y04499*
X04158Y04491*
X04164Y04486*
X04171Y04483*
X04172*
Y04476*
X04175Y04468*
X04181Y04463*
X04188Y0446*
X04189*
Y04453*
X04192Y04445*
X04198Y0444*
X04205Y04437*
X04208*
Y04431*
X04211Y04423*
X04217Y04418*
X04224Y04415*
X04232*
X04234Y04412*
X04237Y04407*
X04237Y04406*
X04237Y04405*
X04239Y04403*
X04342Y04267*
X0434Y04263*
X04245*
X04244Y04263*
X04243*
X04235Y04261*
X04235Y04261*
X04234Y04261*
X04226Y04258*
X04226Y04257*
X04225Y04257*
X04218Y04252*
X04217Y04252*
X04217Y04251*
X04211Y04246*
X04211Y04245*
X0421Y04244*
X04206Y04238*
X04205Y04237*
X04205Y04236*
X04202Y04229*
X04201Y04228*
X04201Y04227*
X042Y04219*
Y04218*
X04199Y04217*
Y0421*
X042Y0421*
X04199Y04209*
X042Y04203*
X04201Y04202*
X04201Y04202*
X04202Y04196*
X04203Y04195*
X04203Y04195*
X04205Y04189*
X04206Y04189*
X04206Y04188*
X04208Y04186*
X04466Y03799*
X04463Y03794*
X04321*
X0432Y03794*
X04319*
X04311Y03793*
X0431Y03792*
X04309Y03792*
X04302Y03789*
X04301Y03789*
X043Y03788*
X04294Y03784*
X04293Y03783*
X04292Y03783*
X04287Y03777*
X04286Y03776*
X04286Y03776*
X04281Y03769*
X04281Y03768*
X0428Y03767*
X04277Y0376*
X04277Y03759*
X04277Y03758*
X04275Y03751*
Y0375*
X04275Y03749*
Y03742*
X04275Y03741*
X04275Y0374*
X04276Y03734*
X04277Y03733*
X04277Y03732*
X04279Y03726*
X04279Y03726*
X04279Y03725*
X04282Y03719*
X04283Y03719*
X04283Y03718*
X04285Y03715*
X04818Y02992*
X04816Y02988*
X03056*
X03054Y02992*
X03584Y03711*
X03586Y03714*
X03586Y03715*
X03587Y03715*
X0359Y03721*
X0359Y03722*
X0359Y03722*
X03592Y03728*
X03592Y03729*
X03593Y0373*
X03594Y03736*
X03594Y03737*
X03594Y03738*
Y03745*
X03594Y03746*
Y03747*
X03592Y03754*
X03592Y03755*
X03592Y03756*
X03589Y03763*
X03588Y03764*
X03588Y03765*
X03583Y03772*
X03583Y03772*
X03582Y03773*
X03577Y03779*
X03576Y03779*
X03575Y0378*
X03569Y03784*
X03568Y03785*
X03567Y03785*
X0356Y03788*
X03559Y03788*
X03558Y03789*
X0355Y0379*
X03549*
X03548Y0379*
X03406*
X03403Y03795*
X03661Y04182*
X03663Y04184*
X03663Y04185*
X03664Y04186*
X03666Y04191*
X03666Y04192*
X03667Y04192*
X03668Y04198*
X03668Y04198*
X03669Y04199*
X0367Y04205*
X0367Y04206*
X0367Y04206*
Y04213*
X0367Y04214*
Y04215*
X03668Y04223*
X03668Y04224*
X03667Y04225*
X03664Y04232*
X03664Y04233*
X03664Y04234*
X03659Y0424*
X03658Y04241*
X03658Y04242*
X03652Y04247*
X03652Y04248*
X03651Y04248*
X03644Y04253*
X03644Y04253*
X03643Y04254*
X03636Y04257*
X03635Y04257*
X03634Y04257*
X03626Y04259*
X03625*
X03624Y04259*
X03529*
X03527Y04263*
X0363Y04399*
X03632Y04401*
X03632Y04402*
X03633Y04403*
X03636Y04408*
X03636Y04409*
X03636Y0441*
X03638Y04416*
X03638Y04417*
X03639Y04418*
X03639Y04422*
X03642*
X03649Y04425*
X03655Y04431*
X03658Y04438*
Y04444*
X03661*
X03668Y04447*
X03674Y04453*
X03677Y0446*
Y04467*
X03678*
X03685Y0447*
X03691Y04476*
X03694Y04483*
Y0449*
X03695*
X03702Y04493*
X03708Y04499*
X03711Y04506*
Y04513*
X03713*
X0372Y04516*
X03726Y04522*
X03729Y04529*
Y04537*
X03728Y04539*
X03733Y04542*
X03734Y04542*
X03735Y04543*
X03744Y04549*
X03744Y0455*
X03745Y04551*
X03749Y04555*
X0393Y04793*
X03935*
X04117Y04555*
G37*
G36*
X02129D02*
X02132Y0455D01*
X02134Y04549*
X02135Y04548*
X02145Y04541*
X02146Y0454*
X02148Y0454*
X02148Y0454*
X02151Y04534*
X02149Y04529*
Y04522*
X02152Y04514*
X02157Y04509*
X02165Y04506*
X02167*
Y04499*
X0217Y04491*
X02175Y04486*
X02183Y04483*
X02184*
Y04476*
X02187Y04468*
X02192Y04463*
X022Y0446*
X02201*
Y04453*
X02204Y04445*
X02209Y0444*
X02217Y04437*
X0222*
Y04431*
X02223Y04423*
X02228Y04418*
X02236Y04415*
X02244*
X02245Y04412*
X02248Y04407*
X02249Y04406*
X02249Y04405*
X02251Y04403*
X02354Y04267*
X02352Y04263*
X02257*
X02256Y04263*
X02255*
X02247Y04261*
X02246Y04261*
X02245Y04261*
X02238Y04258*
X02237Y04257*
X02236Y04257*
X0223Y04252*
X02229Y04252*
X02228Y04251*
X02223Y04246*
X02222Y04245*
X02222Y04244*
X02217Y04238*
X02217Y04237*
X02216Y04236*
X02213Y04229*
X02213Y04228*
X02213Y04227*
X02211Y04219*
Y04218*
X02211Y04217*
Y0421*
X02211Y0421*
X02211Y04209*
X02212Y04203*
X02212Y04202*
X02212Y04202*
X02214Y04196*
X02215Y04195*
X02215Y04195*
X02217Y04189*
X02218Y04189*
X02218Y04188*
X0222Y04186*
X02478Y03799*
X02475Y03794*
X02333*
X02332Y03794*
X02331*
X02323Y03793*
X02322Y03792*
X02321Y03792*
X02314Y03789*
X02313Y03789*
X02312Y03788*
X02306Y03784*
X02305Y03783*
X02304Y03783*
X02299Y03777*
X02298Y03776*
X02298Y03776*
X02293Y03769*
X02293Y03768*
X02292Y03767*
X02289Y0376*
X02289Y03759*
X02289Y03758*
X02287Y03751*
Y0375*
X02287Y03749*
Y03742*
X02287Y03741*
X02287Y0374*
X02288Y03734*
X02288Y03733*
X02289Y03732*
X0229Y03726*
X02291Y03726*
X02291Y03725*
X02294Y03719*
X02294Y03719*
X02295Y03718*
X02297Y03715*
X0283Y02992*
X02827Y02988*
X01068*
X01066Y02992*
X01596Y03711*
X01598Y03714*
X01598Y03715*
X01599Y03715*
X01602Y03721*
X01602Y03722*
X01602Y03722*
X01604Y03728*
X01604Y03729*
X01605Y0373*
X01606Y03736*
X01606Y03737*
X01606Y03738*
Y03745*
X01606Y03746*
Y03747*
X01604Y03754*
X01604Y03755*
X01603Y03756*
X016Y03763*
X016Y03764*
X01599Y03765*
X01595Y03772*
X01594Y03772*
X01594Y03773*
X01588Y03779*
X01588Y03779*
X01587Y0378*
X0158Y03784*
X0158Y03785*
X01579Y03785*
X01572Y03788*
X01571Y03788*
X0157Y03789*
X01562Y0379*
X01561*
X0156Y0379*
X01418*
X01415Y03795*
X01673Y04182*
X01675Y04184*
X01675Y04185*
X01676Y04186*
X01678Y04191*
X01678Y04192*
X01679Y04192*
X0168Y04198*
X0168Y04198*
X01681Y04199*
X01681Y04205*
X01681Y04206*
X01682Y04206*
Y04213*
X01681Y04214*
Y04215*
X0168Y04223*
X01679Y04224*
X01679Y04225*
X01676Y04232*
X01676Y04233*
X01675Y04234*
X01671Y0424*
X0167Y04241*
X0167Y04242*
X01664Y04247*
X01663Y04248*
X01663Y04248*
X01656Y04253*
X01655Y04253*
X01654Y04254*
X01647Y04257*
X01646Y04257*
X01645Y04257*
X01638Y04259*
X01637*
X01636Y04259*
X01541*
X01538Y04263*
X01641Y04399*
X01643Y04401*
X01644Y04402*
X01644Y04403*
X01647Y04408*
X01648Y04409*
X01648Y0441*
X0165Y04416*
X0165Y04417*
X0165Y04418*
X01651Y04422*
X01654*
X01661Y04425*
X01667Y04431*
X0167Y04438*
Y04444*
X01673*
X0168Y04447*
X01686Y04453*
X01689Y0446*
Y04467*
X0169*
X01697Y0447*
X01703Y04476*
X01706Y04483*
Y0449*
X01707*
X01714Y04493*
X0172Y04499*
X01723Y04506*
Y04513*
X01725*
X01732Y04516*
X01738Y04522*
X01741Y04529*
Y04537*
X0174Y04539*
X01745Y04542*
X01746Y04542*
X01747Y04543*
X01755Y04549*
X01756Y0455*
X01757Y04551*
X0176Y04555*
X01942Y04793*
X01947*
X02129Y04555*
G37*
G36*
X04877Y01098D02*
X04873Y01097D01*
X04426Y01703*
X04428Y01707*
X04567*
X04568Y01707*
X04569Y01707*
X0458Y0171*
X04581Y01711*
X04582Y01711*
X04591Y01717*
X04592Y01718*
X04593Y01719*
X04601Y01726*
X04602Y01727*
X04602Y01728*
X04608Y01738*
X04608Y01739*
X04608Y0174*
X04611Y01751*
X04611Y01752*
X04611Y01754*
X04611Y01764*
X0461Y01766*
X0461Y01767*
X04607Y01777*
X04606Y01778*
X04606Y0178*
X04603Y01784*
X04345Y02171*
X04347Y02175*
X04451*
X04453Y02176*
X04454Y02176*
X04465Y02179*
X04466Y0218*
X04467Y0218*
X04477Y02186*
X04478Y02187*
X04479Y02188*
X04486Y02196*
X04487Y02197*
X04488Y02198*
X04493Y02208*
X04493Y02209*
X04494Y02211*
X04496Y02221*
X04496Y02223*
X04496Y02224*
X04495Y02235*
X04494Y02237*
X04494Y02238*
X0449Y02248*
X04489Y02249*
X04489Y02251*
X04485Y02255*
X04318Y02475*
X04315Y0248*
X04313Y02481*
X04312Y02482*
X04302Y02489*
X04301Y02489*
X04302Y02491*
Y02498*
X04299Y02506*
X04293Y02511*
X04286Y02514*
X04284*
X04284Y02515*
Y02522*
X04281Y0253*
X04275Y02535*
X04268Y02538*
X04265*
Y02545*
X04262Y02553*
X04256Y02558*
X04249Y02561*
X04248*
Y02568*
X04245Y02576*
X04239Y02581*
X04232Y02584*
X04231*
Y02591*
X04228Y02599*
X04222Y02604*
X04215Y02607*
X04207*
X04204Y02611*
X04202Y02616*
X04202Y02617*
X04201Y02618*
X04198Y02623*
X04198Y02624*
X04198Y02625*
X04196Y02627*
X03999Y02885*
X04001Y02889*
X04041*
X04877*
Y01098*
G37*
G36*
X02889D02*
X02885Y01097D01*
X02438Y01703*
X0244Y01707*
X02578*
X0258Y01707*
X02581Y01707*
X02591Y0171*
X02593Y01711*
X02594Y01711*
X02603Y01717*
X02604Y01718*
X02605Y01719*
X02613Y01726*
X02613Y01727*
X02614Y01728*
X02619Y01738*
X0262Y01739*
X0262Y0174*
X02623Y01751*
X02623Y01752*
X02623Y01754*
X02622Y01764*
X02622Y01766*
X02622Y01767*
X02619Y01777*
X02618Y01778*
X02617Y0178*
X02614Y01784*
X02356Y02171*
X02359Y02175*
X02463*
X02465Y02176*
X02466Y02176*
X02477Y02179*
X02478Y0218*
X02479Y0218*
X02488Y02186*
X02489Y02187*
X02491Y02188*
X02498Y02196*
X02499Y02197*
X025Y02198*
X02504Y02208*
X02505Y02209*
X02505Y02211*
X02507Y02221*
X02507Y02223*
X02508Y02224*
X02506Y02235*
X02506Y02237*
X02506Y02238*
X02502Y02248*
X02501Y02249*
X025Y02251*
X02497Y02255*
X0233Y02475*
X02326Y0248*
X02325Y02481*
X02324Y02482*
X02314Y02489*
X02313Y02489*
X02314Y02491*
Y02498*
X0231Y02506*
X02305Y02511*
X02298Y02514*
X02296*
X02296Y02515*
Y02522*
X02292Y0253*
X02287Y02535*
X0228Y02538*
X02277*
Y02545*
X02273Y02553*
X02268Y02558*
X02261Y02561*
X0226*
Y02568*
X02256Y02576*
X02251Y02581*
X02244Y02584*
X02243*
Y02591*
X02239Y02599*
X02234Y02604*
X02227Y02607*
X02219*
X02216Y02611*
X02214Y02616*
X02214Y02617*
X02213Y02618*
X0221Y02623*
X0221Y02624*
X02209Y02625*
X02207Y02627*
X0201Y02885*
X02013Y02889*
X02053*
X02889*
Y01098*
G37*
G36*
X03867Y02885D02*
X0367Y02627D01*
X03667Y02623*
X03666Y02622*
X03665Y02621*
X03661Y02611*
X03661Y0261*
X03661Y02609*
X0366Y02604*
X03653*
X03646Y02601*
X0364Y02595*
X03637Y02588*
Y02581*
X03636*
X03629Y02578*
X03623Y02572*
X0362Y02565*
Y02558*
X03619*
X03612Y02555*
X03606Y02549*
X03603Y02542*
Y02535*
X036*
X03593Y02532*
X03587Y02526*
X03584Y02519*
Y02511*
X03584Y02511*
X03582*
X03575Y02508*
X03569Y02502*
X03566Y02495*
Y02487*
X03567Y02485*
X03567Y02485*
X03557Y02478*
X03556Y02477*
X03554Y02476*
X03551Y02471*
X03384Y02251*
X0338Y02247*
X0338Y02246*
X03379Y02244*
X03375Y02234*
X03375Y02233*
X03374Y02231*
X03373Y0222*
X03374Y02219*
X03374Y02218*
X03376Y02207*
X03376Y02205*
X03376Y02204*
X03381Y02194*
X03382Y02193*
X03383Y02192*
X0339Y02184*
X03391Y02183*
X03392Y02182*
X03402Y02176*
X03403Y02176*
X03404Y02175*
X03415Y02172*
X03416Y02172*
X03418Y02172*
X03522*
X03525Y02167*
X03267Y0178*
X03264Y01776*
X03263Y01774*
X03262Y01773*
X03259Y01763*
X03259Y01762*
X03259Y0176*
X03258Y0175*
X03258Y01748*
X03258Y01747*
X03261Y01737*
X03261Y01735*
X03262Y01734*
X03267Y01725*
X03267Y01723*
X03268Y01722*
X03276Y01715*
X03277Y01714*
X03278Y01713*
X03287Y01707*
X03288Y01707*
X03289Y01706*
X033Y01703*
X03301Y01703*
X03302Y01703*
X03441*
X03443Y01699*
X02992Y01087*
X02988Y01089*
Y02289*
X03145*
X03149Y02289*
X03152Y02292*
X03155Y02295*
X03155Y02299*
Y02889*
X03865*
X03867Y02885*
G37*
G36*
X01879D02*
X01682Y02627D01*
X01678Y02623*
X01678Y02622*
X01677Y02621*
X01673Y02611*
X01673Y0261*
X01673Y02609*
X01672Y02604*
X01665*
X01658Y02601*
X01652Y02595*
X01649Y02588*
Y02581*
X01648*
X01641Y02578*
X01635Y02572*
X01632Y02565*
Y02558*
X01631*
X01624Y02555*
X01618Y02549*
X01615Y02542*
Y02535*
X01612*
X01605Y02532*
X01599Y02526*
X01596Y02519*
Y02511*
X01596Y02511*
X01594*
X01587Y02508*
X01581Y02502*
X01578Y02495*
Y02487*
X01579Y02485*
X01579Y02485*
X01569Y02478*
X01567Y02477*
X01566Y02476*
X01563Y02471*
X01396Y02251*
X01392Y02247*
X01392Y02246*
X01391Y02244*
X01387Y02234*
X01387Y02233*
X01386Y02231*
X01385Y0222*
X01385Y02219*
X01385Y02218*
X01387Y02207*
X01388Y02205*
X01388Y02204*
X01393Y02194*
X01394Y02193*
X01395Y02192*
X01402Y02184*
X01403Y02183*
X01404Y02182*
X01414Y02176*
X01415Y02176*
X01416Y02175*
X01427Y02172*
X01428Y02172*
X0143Y02172*
X01534*
X01536Y02167*
X01278Y0178*
X01275Y01776*
X01275Y01774*
X01274Y01773*
X01271Y01763*
X01271Y01762*
X0127Y0176*
X0127Y0175*
X0127Y01748*
X0127Y01747*
X01272Y01737*
X01273Y01735*
X01273Y01734*
X01278Y01725*
X01279Y01723*
X0128Y01722*
X01287Y01715*
X01289Y01714*
X0129Y01713*
X01299Y01707*
X013Y01707*
X01301Y01706*
X01312Y01703*
X01313Y01703*
X01314Y01703*
X01452*
X01455Y01699*
X01004Y01087*
X01Y01089*
Y02289*
X01157*
X01161Y02289*
X01164Y02292*
X01166Y02295*
X01167Y02299*
Y02889*
X01876*
X01879Y02885*
G37*
G36*
X04117Y02567D02*
X04121Y02562D01*
X04122Y02561*
X04123Y0256*
X04133Y02553*
X04134Y02552*
X04136Y02552*
X04136Y02551*
X04139Y02545*
X04137Y02541*
Y02533*
X0414Y02526*
X04146Y02521*
X04153Y02518*
X04155*
Y0251*
X04158Y02503*
X04164Y02498*
X04171Y02495*
X04172*
Y02487*
X04175Y0248*
X04181Y02475*
X04188Y02472*
X04189*
Y02464*
X04192Y02457*
X04198Y02452*
X04205Y02449*
X04208*
Y02442*
X04211Y02435*
X04217Y0243*
X04224Y02427*
X04232*
X04234Y02424*
X04237Y02419*
X04237Y02418*
X04237Y02417*
X04239Y02415*
X04342Y02279*
X0434Y02275*
X04245*
X04244Y02274*
X04243*
X04235Y02273*
X04235Y02273*
X04234Y02272*
X04226Y02269*
X04226Y02269*
X04225Y02268*
X04218Y02264*
X04217Y02263*
X04217Y02263*
X04211Y02257*
X04211Y02257*
X0421Y02256*
X04206Y02249*
X04205Y02248*
X04205Y02248*
X04202Y0224*
X04201Y02239*
X04201Y02239*
X042Y02231*
Y0223*
X04199Y02229*
Y02222*
X042Y02221*
X04199Y02221*
X042Y02215*
X04201Y02214*
X04201Y02213*
X04202Y02208*
X04203Y02207*
X04203Y02207*
X04205Y02201*
X04206Y02201*
X04206Y022*
X04208Y02198*
X04466Y01811*
X04463Y01806*
X04321*
X0432Y01806*
X04319*
X04311Y01804*
X0431Y01804*
X04309Y01804*
X04302Y01801*
X04301Y018*
X043Y018*
X04294Y01796*
X04293Y01795*
X04292Y01794*
X04287Y01789*
X04286Y01788*
X04286Y01787*
X04281Y01781*
X04281Y0178*
X0428Y01779*
X04277Y01772*
X04277Y01771*
X04277Y0177*
X04275Y01762*
Y01761*
X04275Y0176*
Y01753*
X04275Y01753*
X04275Y01752*
X04276Y01746*
X04277Y01745*
X04277Y01744*
X04279Y01738*
X04279Y01737*
X04279Y01737*
X04282Y01731*
X04283Y0173*
X04283Y0173*
X04285Y01727*
X04818Y01004*
X04816Y01*
X03056*
X03054Y01004*
X03584Y01723*
X03586Y01726*
X03586Y01726*
X03587Y01727*
X0359Y01733*
X0359Y01733*
X0359Y01734*
X03592Y0174*
X03592Y01741*
X03593Y01742*
X03594Y01748*
X03594Y01749*
X03594Y0175*
Y01757*
X03594Y01758*
Y01759*
X03592Y01766*
X03592Y01767*
X03592Y01768*
X03589Y01775*
X03588Y01776*
X03588Y01777*
X03583Y01783*
X03583Y01784*
X03582Y01785*
X03577Y0179*
X03576Y01791*
X03575Y01792*
X03569Y01796*
X03568Y01796*
X03567Y01797*
X0356Y018*
X03559Y018*
X03558Y01801*
X0355Y01802*
X03549*
X03548Y01802*
X03406*
X03403Y01807*
X03661Y02194*
X03663Y02196*
X03663Y02197*
X03664Y02197*
X03666Y02203*
X03666Y02203*
X03667Y02204*
X03668Y0221*
X03668Y0221*
X03669Y02211*
X0367Y02217*
X0367Y02217*
X0367Y02218*
Y02225*
X0367Y02226*
Y02227*
X03668Y02235*
X03668Y02236*
X03667Y02237*
X03664Y02244*
X03664Y02245*
X03664Y02245*
X03659Y02252*
X03658Y02253*
X03658Y02253*
X03652Y02259*
X03652Y02259*
X03651Y0226*
X03644Y02265*
X03644Y02265*
X03643Y02265*
X03636Y02268*
X03635Y02269*
X03634Y02269*
X03626Y02271*
X03625*
X03624Y02271*
X03529*
X03527Y02275*
X0363Y02411*
X03632Y02413*
X03632Y02414*
X03633Y02415*
X03636Y0242*
X03636Y02421*
X03636Y02422*
X03638Y02428*
X03638Y02429*
X03639Y02429*
X03639Y02434*
X03642*
X03649Y02437*
X03655Y02443*
X03658Y0245*
Y02456*
X03661*
X03668Y02459*
X03674Y02465*
X03677Y02472*
Y02479*
X03678*
X03685Y02482*
X03691Y02488*
X03694Y02495*
Y02502*
X03695*
X03702Y02505*
X03708Y02511*
X03711Y02518*
Y02525*
X03713*
X0372Y02528*
X03726Y02534*
X03729Y02541*
Y02549*
X03728Y02551*
X03733Y02553*
X03734Y02554*
X03735Y02555*
X03744Y02561*
X03744Y02562*
X03745Y02563*
X03749Y02567*
X0393Y02805*
X03935*
X04117Y02567*
G37*
G36*
X02129D02*
X02132Y02562D01*
X02134Y02561*
X02135Y0256*
X02145Y02553*
X02146Y02552*
X02148Y02552*
X02148Y02551*
X02151Y02545*
X02149Y02541*
Y02533*
X02152Y02526*
X02157Y02521*
X02165Y02518*
X02167*
Y0251*
X0217Y02503*
X02175Y02498*
X02183Y02495*
X02184*
Y02487*
X02187Y0248*
X02192Y02475*
X022Y02472*
X02201*
Y02464*
X02204Y02457*
X02209Y02452*
X02217Y02449*
X0222*
Y02442*
X02223Y02435*
X02228Y0243*
X02236Y02427*
X02244*
X02245Y02424*
X02248Y02419*
X02249Y02418*
X02249Y02417*
X02251Y02415*
X02354Y02279*
X02352Y02275*
X02257*
X02256Y02274*
X02255*
X02247Y02273*
X02246Y02273*
X02245Y02272*
X02238Y02269*
X02237Y02269*
X02236Y02268*
X0223Y02264*
X02229Y02263*
X02228Y02263*
X02223Y02257*
X02222Y02257*
X02222Y02256*
X02217Y02249*
X02217Y02248*
X02216Y02248*
X02213Y0224*
X02213Y02239*
X02213Y02239*
X02211Y02231*
Y0223*
X02211Y02229*
Y02222*
X02211Y02221*
X02211Y02221*
X02212Y02215*
X02212Y02214*
X02212Y02213*
X02214Y02208*
X02215Y02207*
X02215Y02207*
X02217Y02201*
X02218Y02201*
X02218Y022*
X0222Y02198*
X02478Y01811*
X02475Y01806*
X02333*
X02332Y01806*
X02331*
X02323Y01804*
X02322Y01804*
X02321Y01804*
X02314Y01801*
X02313Y018*
X02312Y018*
X02306Y01796*
X02305Y01795*
X02304Y01794*
X02299Y01789*
X02298Y01788*
X02298Y01787*
X02293Y01781*
X02293Y0178*
X02292Y01779*
X02289Y01772*
X02289Y01771*
X02289Y0177*
X02287Y01762*
Y01761*
X02287Y0176*
Y01753*
X02287Y01753*
X02287Y01752*
X02288Y01746*
X02288Y01745*
X02289Y01744*
X0229Y01738*
X02291Y01737*
X02291Y01737*
X02294Y01731*
X02294Y0173*
X02295Y0173*
X02297Y01727*
X0283Y01004*
X02827Y01*
X01068*
X01066Y01004*
X01596Y01723*
X01598Y01726*
X01598Y01726*
X01599Y01727*
X01602Y01733*
X01602Y01733*
X01602Y01734*
X01604Y0174*
X01604Y01741*
X01605Y01742*
X01606Y01748*
X01606Y01749*
X01606Y0175*
Y01757*
X01606Y01758*
Y01759*
X01604Y01766*
X01604Y01767*
X01603Y01768*
X016Y01775*
X016Y01776*
X01599Y01777*
X01595Y01783*
X01594Y01784*
X01594Y01785*
X01588Y0179*
X01588Y01791*
X01587Y01792*
X0158Y01796*
X0158Y01796*
X01579Y01797*
X01572Y018*
X01571Y018*
X0157Y01801*
X01562Y01802*
X01561*
X0156Y01802*
X01418*
X01415Y01807*
X01673Y02194*
X01675Y02196*
X01675Y02197*
X01676Y02197*
X01678Y02203*
X01678Y02203*
X01679Y02204*
X0168Y0221*
X0168Y0221*
X01681Y02211*
X01681Y02217*
X01681Y02217*
X01682Y02218*
Y02225*
X01681Y02226*
Y02227*
X0168Y02235*
X01679Y02236*
X01679Y02237*
X01676Y02244*
X01676Y02245*
X01675Y02245*
X01671Y02252*
X0167Y02253*
X0167Y02253*
X01664Y02259*
X01663Y02259*
X01663Y0226*
X01656Y02265*
X01655Y02265*
X01654Y02265*
X01647Y02268*
X01646Y02269*
X01645Y02269*
X01638Y02271*
X01637*
X01636Y02271*
X01541*
X01538Y02275*
X01641Y02411*
X01643Y02413*
X01644Y02414*
X01644Y02415*
X01647Y0242*
X01648Y02421*
X01648Y02422*
X0165Y02428*
X0165Y02429*
X0165Y02429*
X01651Y02434*
X01654*
X01661Y02437*
X01667Y02443*
X0167Y0245*
Y02456*
X01673*
X0168Y02459*
X01686Y02465*
X01689Y02472*
Y02479*
X0169*
X01697Y02482*
X01703Y02488*
X01706Y02495*
Y02502*
X01707*
X01714Y02505*
X0172Y02511*
X01723Y02518*
Y02525*
X01725*
X01732Y02528*
X01738Y02534*
X01741Y02541*
Y02549*
X0174Y02551*
X01745Y02553*
X01746Y02554*
X01747Y02555*
X01755Y02561*
X01756Y02562*
X01757Y02563*
X0176Y02567*
X01942Y02805*
X01947*
X02129Y02567*
G37*
%LNpcb_panel_v3-2*%
%LPC*%
G36*
X04804Y04273D02*
Y04243D01*
X04834*
X04831Y04251*
X04827Y04259*
X0482Y04266*
X04812Y0427*
X04804Y04273*
G37*
G36*
X04794D02*
X04785Y0427D01*
X04777Y04266*
X04771Y04259*
X04766Y04251*
X04764Y04243*
X04794*
Y04273*
G37*
G36*
X04834Y04233D02*
X04804D01*
Y04203*
X04812Y04205*
X0482Y0421*
X04827Y04216*
X04831Y04224*
X04834Y04233*
G37*
G36*
X04794D02*
X04764D01*
X04766Y04224*
X04771Y04216*
X04777Y0421*
X04785Y04205*
X04794Y04203*
Y04233*
G37*
G36*
X04698Y04178D02*
X04674D01*
Y04154*
X04698*
Y04178*
G37*
G36*
Y04144D02*
X04674D01*
Y0412*
X04698*
Y04144*
G37*
G36*
X04664Y04178D02*
X04585D01*
Y04164*
X04562*
X04557Y04163*
X04552Y0416*
X04516Y04125*
X04514Y04127*
X04466Y0408*
X04514Y04032*
X04561Y0408*
X04538Y04103*
X04569Y04134*
X04585*
Y0412*
X04664*
Y04149*
Y04178*
G37*
G36*
X04868Y04162D02*
X04823D01*
Y04079*
X04868*
Y04162*
G37*
G36*
X04813D02*
X04769D01*
Y04079*
X04813*
Y04162*
G37*
G36*
X04868Y04069D02*
X04823D01*
Y03985*
X04868*
Y04069*
G37*
G36*
X04813D02*
X04769D01*
Y03985*
X04813*
Y04069*
G37*
G36*
X04572Y04069D02*
X04524Y04021D01*
X04572Y03974*
X04585Y03987*
X04709Y03863*
X04714Y03859*
X0472Y03858*
X04769*
Y03785*
X04868*
Y03962*
X04769*
Y03889*
X04726*
X04607Y04008*
X0462Y04021*
X04572Y04069*
G37*
G36*
X04823Y03525D02*
Y03495D01*
X04853*
X04851Y03503*
X04846Y03511*
X0484Y03518*
X04832Y03522*
X04823Y03525*
G37*
G36*
X04813D02*
X04805Y03522D01*
X04797Y03518*
X0479Y03511*
X04786Y03503*
X04784Y03495*
X04813*
Y03525*
G37*
G36*
X04853Y03485D02*
X04823D01*
Y03455*
X04832Y03457*
X0484Y03462*
X04846Y03468*
X04851Y03476*
X04853Y03485*
G37*
G36*
X04813D02*
X04784D01*
X04786Y03476*
X0479Y03468*
X04797Y03462*
X04805Y03457*
X04813Y03455*
Y03485*
G37*
G36*
X02816Y04273D02*
Y04243D01*
X02845*
X02843Y04251*
X02839Y04259*
X02832Y04266*
X02824Y0427*
X02816Y04273*
G37*
G36*
X02806D02*
X02797Y0427D01*
X02789Y04266*
X02783Y04259*
X02778Y04251*
X02776Y04243*
X02806*
Y04273*
G37*
G36*
X02845Y04233D02*
X02816D01*
Y04203*
X02824Y04205*
X02832Y0421*
X02839Y04216*
X02843Y04224*
X02845Y04233*
G37*
G36*
X02806D02*
X02776D01*
X02778Y04224*
X02783Y04216*
X02789Y0421*
X02797Y04205*
X02806Y04203*
Y04233*
G37*
G36*
X0271Y04178D02*
X02686D01*
Y04154*
X0271*
Y04178*
G37*
G36*
Y04144D02*
X02686D01*
Y0412*
X0271*
Y04144*
G37*
G36*
X02676Y04178D02*
X02596D01*
Y04164*
X02574*
X02568Y04163*
X02563Y0416*
X02528Y04125*
X02525Y04127*
X02478Y0408*
X02525Y04032*
X02573Y0408*
X0255Y04103*
X02581Y04134*
X02596*
Y0412*
X02676*
Y04149*
Y04178*
G37*
G36*
X0288Y04162D02*
X02835D01*
Y04079*
X0288*
Y04162*
G37*
G36*
X02825D02*
X02781D01*
Y04079*
X02825*
Y04162*
G37*
G36*
X0288Y04069D02*
X02835D01*
Y03985*
X0288*
Y04069*
G37*
G36*
X02825D02*
X02781D01*
Y03985*
X02825*
Y04069*
G37*
G36*
X02584Y04069D02*
X02536Y04021D01*
X02584Y03974*
X02597Y03987*
X02721Y03863*
X02726Y03859*
X02732Y03858*
X02781*
Y03785*
X0288*
Y03962*
X02781*
Y03889*
X02738*
X02618Y04008*
X02631Y04021*
X02584Y04069*
G37*
G36*
X02835Y03525D02*
Y03495D01*
X02865*
X02863Y03503*
X02858Y03511*
X02852Y03518*
X02844Y03522*
X02835Y03525*
G37*
G36*
X02825D02*
X02817Y03522D01*
X02809Y03518*
X02802Y03511*
X02798Y03503*
X02795Y03495*
X02825*
Y03525*
G37*
G36*
X02865Y03485D02*
X02835D01*
Y03455*
X02844Y03457*
X02852Y03462*
X02858Y03468*
X02863Y03476*
X02865Y03485*
G37*
G36*
X02825D02*
X02795D01*
X02798Y03476*
X02802Y03468*
X02809Y03462*
X02817Y03457*
X02825Y03455*
Y03485*
G37*
G36*
X03466Y04798D02*
X03443D01*
Y04774*
X03466*
Y04798*
G37*
G36*
Y04764D02*
X03443D01*
Y0474*
X03466*
Y04764*
G37*
G36*
X03556Y04798D02*
X03476D01*
Y04769*
Y0474*
X03556*
Y04754*
X03601*
X03622Y04733*
X03609Y0472*
X03657Y04672*
X03704Y0472*
X03657Y04767*
X03644Y04754*
X03618Y0478*
X03613Y04783*
X03607Y04784*
X03556*
Y04798*
G37*
G36*
X03598Y04709D02*
X03551Y04661D01*
X03564Y04648*
X03164Y04249*
X03161Y04244*
X03159Y04238*
Y03978*
X03101Y0392*
X03096Y03922*
Y03982*
X02997*
Y03804*
X03074*
X03209Y0367*
Y03486*
X03158Y03436*
X03145Y03449*
X03107Y0341*
X03102Y03412*
Y03454*
X03115*
Y0351*
Y03534*
X03086*
X03057*
Y0351*
Y03454*
X03071*
Y03375*
X03039Y03343*
X03087Y03295*
X03134Y03343*
X03102Y03375*
Y0339*
X03107Y03392*
X03145Y03354*
X03193Y03401*
X0318Y03414*
X03235Y03469*
X03238Y03474*
X03239Y0348*
Y03677*
X03238Y03683*
X03235Y03687*
X03096Y03826*
Y03878*
X03102Y03879*
X03107Y03882*
X03186Y03961*
X03189Y03966*
X0319Y03972*
Y04231*
X03585Y04627*
X03598Y04614*
X03646Y04661*
X03598Y04709*
G37*
G36*
X03229Y04469D02*
Y0444D01*
X03259*
X03257Y04448*
X03252Y04456*
X03245Y04463*
X03237Y04467*
X03229Y04469*
G37*
G36*
X03219D02*
X0321Y04467D01*
X03202Y04463*
X03196Y04456*
X03191Y04448*
X03189Y0444*
X03219*
Y04469*
G37*
G36*
X03259Y0443D02*
X03229D01*
Y044*
X03237Y04402*
X03245Y04407*
X03252Y04413*
X03257Y04421*
X03259Y0443*
G37*
G36*
X03219D02*
X03189D01*
X03191Y04421*
X03196Y04413*
X03202Y04407*
X0321Y04402*
X03219Y044*
Y0443*
G37*
G36*
X03096Y04182D02*
X03052D01*
Y04098*
X03096*
Y04182*
G37*
G36*
X03042D02*
X02997D01*
Y04098*
X03042*
Y04182*
G37*
G36*
X03096Y04088D02*
X03052D01*
Y04004*
X03096*
Y04088*
G37*
G36*
X03042D02*
X02997D01*
Y04004*
X03042*
Y04088*
G37*
G36*
X03062Y03741D02*
Y03711D01*
X03091*
X03089Y0372*
X03085Y03728*
X03078Y03734*
X0307Y03739*
X03062Y03741*
G37*
G36*
X03052D02*
X03043Y03739D01*
X03035Y03734*
X03029Y03728*
X03024Y0372*
X03022Y03711*
X03052*
Y03741*
G37*
G36*
X03091Y03701D02*
X03062D01*
Y03671*
X0307Y03674*
X03078Y03678*
X03085Y03685*
X03089Y03693*
X03091Y03701*
G37*
G36*
X03052D02*
X03022D01*
X03024Y03693*
X03029Y03685*
X03035Y03678*
X03043Y03674*
X03052Y03671*
Y03701*
G37*
G36*
X03115Y03567D02*
X03091D01*
Y03544*
X03115*
Y03567*
G37*
G36*
X03081D02*
X03057D01*
Y03544*
X03081*
Y03567*
G37*
G36*
X01478Y04798D02*
X01455D01*
Y04774*
X01478*
Y04798*
G37*
G36*
Y04764D02*
X01455D01*
Y0474*
X01478*
Y04764*
G37*
G36*
X01568Y04798D02*
X01488D01*
Y04769*
Y0474*
X01568*
Y04754*
X01613*
X01634Y04733*
X01621Y0472*
X01669Y04672*
X01716Y0472*
X01669Y04767*
X01656Y04754*
X0163Y0478*
X01625Y04783*
X01619Y04784*
X01568*
Y04798*
G37*
G36*
X0161Y04709D02*
X01562Y04661D01*
X01575Y04648*
X01176Y04249*
X01172Y04244*
X01171Y04238*
Y03978*
X01113Y0392*
X01108Y03922*
Y03982*
X01009*
Y03804*
X01086*
X0122Y0367*
Y03486*
X0117Y03436*
X01157Y03449*
X01118Y0341*
X01114Y03412*
Y03454*
X01127*
Y0351*
Y03534*
X01098*
X01069*
Y0351*
Y03454*
X01083*
Y03375*
X01051Y03343*
X01099Y03295*
X01146Y03343*
X01114Y03375*
Y0339*
X01118Y03392*
X01157Y03354*
X01205Y03401*
X01192Y03414*
X01247Y03469*
X0125Y03474*
X01251Y0348*
Y03677*
X0125Y03683*
X01247Y03687*
X01108Y03826*
Y03878*
X01114Y03879*
X01119Y03882*
X01197Y03961*
X01201Y03966*
X01202Y03972*
Y04231*
X01597Y04627*
X0161Y04614*
X01658Y04661*
X0161Y04709*
G37*
G36*
X01241Y04469D02*
Y0444D01*
X01271*
X01268Y04448*
X01264Y04456*
X01257Y04463*
X01249Y04467*
X01241Y04469*
G37*
G36*
X01231D02*
X01222Y04467D01*
X01214Y04463*
X01208Y04456*
X01203Y04448*
X01201Y0444*
X01231*
Y04469*
G37*
G36*
X01271Y0443D02*
X01241D01*
Y044*
X01249Y04402*
X01257Y04407*
X01264Y04413*
X01268Y04421*
X01271Y0443*
G37*
G36*
X01231D02*
X01201D01*
X01203Y04421*
X01208Y04413*
X01214Y04407*
X01222Y04402*
X01231Y044*
Y0443*
G37*
G36*
X01108Y04182D02*
X01064D01*
Y04098*
X01108*
Y04182*
G37*
G36*
X01054D02*
X01009D01*
Y04098*
X01054*
Y04182*
G37*
G36*
X01108Y04088D02*
X01064D01*
Y04004*
X01108*
Y04088*
G37*
G36*
X01054D02*
X01009D01*
Y04004*
X01054*
Y04088*
G37*
G36*
X01073Y03741D02*
Y03711D01*
X01103*
X01101Y0372*
X01096Y03728*
X0109Y03734*
X01082Y03739*
X01073Y03741*
G37*
G36*
X01063D02*
X01055Y03739D01*
X01047Y03734*
X0104Y03728*
X01036Y0372*
X01034Y03711*
X01063*
Y03741*
G37*
G36*
X01103Y03701D02*
X01073D01*
Y03671*
X01082Y03674*
X0109Y03678*
X01096Y03685*
X01101Y03693*
X01103Y03701*
G37*
G36*
X01063D02*
X01034D01*
X01036Y03693*
X0104Y03685*
X01047Y03678*
X01055Y03674*
X01063Y03671*
Y03701*
G37*
G36*
X01127Y03567D02*
X01103D01*
Y03544*
X01127*
Y03567*
G37*
G36*
X01093D02*
X01069D01*
Y03544*
X01093*
Y03567*
G37*
G36*
X03667Y04384D02*
X0362Y04336D01*
X03667Y04289*
X0369Y04311*
X03705Y04296*
X0371Y04292*
X03716Y04291*
X03746*
Y04264*
X03775*
X03804*
Y04287*
Y04343*
X03746*
Y04322*
X03722*
X03711Y04333*
X03715Y04336*
X03667Y04384*
G37*
G36*
X03804Y04254D02*
X0378D01*
Y0423*
X03804*
Y04254*
G37*
G36*
X0377D02*
X03746D01*
Y0423*
X0377*
Y04254*
G37*
G36*
X04105Y04154D02*
Y04125D01*
X04135*
X04133Y04133*
X04128Y04141*
X04121Y04148*
X04113Y04152*
X04105Y04154*
G37*
G36*
X04095D02*
X04086Y04152D01*
X04078Y04148*
X04072Y04141*
X04067Y04133*
X04065Y04125*
X04095*
Y04154*
G37*
G36*
X0377Y04145D02*
Y04115D01*
X038*
X03798Y04123*
X03793Y04131*
X03787Y04138*
X03779Y04142*
X0377Y04145*
G37*
G36*
X0376D02*
X03752Y04142D01*
X03744Y04138*
X03737Y04131*
X03733Y04123*
X0373Y04115*
X0376*
Y04145*
G37*
G36*
X04135Y04115D02*
X04105D01*
Y04085*
X04113Y04087*
X04121Y04092*
X04128Y04098*
X04133Y04106*
X04135Y04115*
G37*
G36*
X04095D02*
X04065D01*
X04067Y04106*
X04072Y04098*
X04078Y04092*
X04086Y04087*
X04095Y04085*
Y04115*
G37*
G36*
X038Y04105D02*
X0377D01*
Y04075*
X03779Y04077*
X03787Y04082*
X03793Y04088*
X03798Y04096*
X038Y04105*
G37*
G36*
X0376D02*
X0373D01*
X03733Y04096*
X03737Y04088*
X03744Y04082*
X03752Y04077*
X0376Y04075*
Y04105*
G37*
G36*
X04198Y04029D02*
X04174D01*
Y04005*
X04198*
Y04029*
G37*
G36*
X04164D02*
X0414D01*
Y04005*
X04164*
Y04029*
G37*
G36*
X04169Y04D02*
D01*
Y03995*
X0414*
Y03972*
Y03915*
X04175*
X04177Y03912*
X04182Y03908*
X04188Y03907*
X04245*
X04277Y03875*
X04325Y03922*
X04277Y0397*
X04245Y03938*
X04198*
Y03972*
Y03995*
X04169*
Y04*
G37*
G36*
X03726Y04442D02*
X03678Y04395D01*
X03726Y04347*
X03758Y0438*
X03818*
X03858Y0434*
Y04181*
Y04169*
X03852Y04165*
X03846Y04159*
X03841Y04151*
X03839Y04142*
Y04133*
X03841Y04124*
X03846Y04116*
X03852Y04109*
X03858Y04106*
Y0408*
X03824*
Y03991*
X03814*
X03809Y0399*
X03804Y03987*
X03678Y03861*
X03674Y03856*
X03673Y0385*
Y03455*
X03615Y03396*
X03512*
X0348Y03429*
X03432Y03381*
X0348Y03334*
X03512Y03366*
X03621*
X03627Y03367*
X03632Y0337*
X03699Y03438*
X03703Y03442*
X03704Y03448*
Y03844*
X03819Y03959*
X03824Y03957*
Y03903*
X03923*
Y03976*
X03942*
Y03906*
X04041*
Y03917*
X04064*
X04075Y03907*
Y03854*
X04076Y03848*
X04079Y03843*
X04089Y03833*
X04094Y0383*
X041Y03829*
X0429*
X04295Y0383*
X043Y03833*
X0431Y03843*
X04336Y03816*
X04383Y03864*
X04336Y03912*
X043Y03876*
X04299Y03875*
X04283Y03859*
X04106*
X04105Y0386*
Y03913*
X04104Y03919*
X04101Y03924*
X04081Y03943*
X04076Y03947*
X0407Y03948*
X04041*
Y04084*
X03942*
Y04007*
X03923*
Y0408*
X03889*
Y04106*
X03895Y04109*
X03902Y04116*
X03906Y04124*
X03909Y04133*
Y04142*
X03906Y04151*
X03902Y04159*
X03895Y04165*
X03889Y04169*
Y04181*
Y04346*
X03888Y04352*
X03884Y04357*
X03835Y04406*
X0383Y04409*
X03825Y0441*
X03758*
X03726Y04442*
G37*
G36*
X04041Y03884D02*
X03997D01*
Y038*
X04041*
Y03884*
G37*
G36*
X03987D02*
X03942D01*
Y038*
X03987*
Y03884*
G37*
G36*
X03923Y0388D02*
X03879D01*
Y03797*
X03923*
Y0388*
G37*
G36*
X03869D02*
X03824D01*
Y03797*
X03869*
Y0388*
G37*
G36*
X04041Y0379D02*
X03997D01*
Y03706*
X04041*
Y0379*
G37*
G36*
X03987D02*
X03942D01*
Y03706*
X03987*
Y0379*
G37*
G36*
X03923Y03787D02*
X03879D01*
Y03703*
X03923*
Y03787*
G37*
G36*
X03869D02*
X03824D01*
Y03703*
X03869*
Y03787*
G37*
G36*
X04105Y03702D02*
Y03672D01*
X04135*
X04133Y0368*
X04128Y03688*
X04121Y03695*
X04113Y03699*
X04105Y03702*
G37*
G36*
X04095D02*
X04086Y03699D01*
X04078Y03695*
X04072Y03688*
X04067Y0368*
X04065Y03672*
X04095*
Y03702*
G37*
G36*
X0377D02*
Y03672D01*
X038*
X03798Y0368*
X03793Y03688*
X03787Y03695*
X03779Y03699*
X0377Y03702*
G37*
G36*
X0376D02*
X03752Y03699D01*
X03744Y03695*
X03737Y03688*
X03733Y0368*
X0373Y03672*
X0376*
Y03702*
G37*
G36*
X04135Y03662D02*
X04105D01*
Y03632*
X04113Y03634*
X04121Y03639*
X04128Y03645*
X04133Y03653*
X04135Y03662*
G37*
G36*
X04095D02*
X04065D01*
X04067Y03653*
X04072Y03645*
X04078Y03639*
X04086Y03634*
X04095Y03632*
Y03662*
G37*
G36*
X038D02*
X0377D01*
Y03632*
X03779Y03634*
X03787Y03639*
X03793Y03645*
X03798Y03653*
X038Y03662*
G37*
G36*
X0376D02*
X0373D01*
X03733Y03653*
X03737Y03645*
X03744Y03639*
X03752Y03634*
X0376Y03632*
Y03662*
G37*
G36*
X03625Y03519D02*
X03602D01*
Y03495*
X03625*
Y03519*
G37*
G36*
Y03485D02*
X03602D01*
Y03461*
X03625*
Y03485*
G37*
G36*
X03592Y03519D02*
X03512D01*
Y03505*
X035*
X03494Y03504*
X03489Y035*
X034Y03412*
X03397Y03407*
X03396Y03401*
Y03357*
X03397Y03351*
X03399Y03348*
X03374Y03323*
X03421Y03275*
X03469Y03323*
X03426Y03365*
Y03395*
X03506Y03474*
X03512*
Y03461*
X03592*
Y0349*
Y03519*
G37*
G36*
X03342Y03252D02*
X03335Y03251D01*
X03328Y03248*
X03322Y03244*
X03318Y03238*
X03315Y03231*
X03314Y03224*
X03315Y03216*
X03318Y0321*
X03322Y03204*
X03328Y032*
X03335Y03197*
X03342Y03196*
X03349Y03197*
X03356Y032*
X03362Y03204*
X03366Y0321*
X03369Y03217*
X0337Y03224*
X03369Y03231*
X03366Y03238*
X03362Y03244*
X03356Y03248*
X03349Y03251*
X03342Y03252*
G37*
G36*
X04249Y0328D02*
X04136D01*
Y03168*
X04249*
Y0328*
G37*
G36*
X0368D02*
X03665D01*
X03651Y03276*
X03638Y03269*
X03628Y03258*
X0362Y03246*
X03616Y03231*
Y03217*
X0362Y03202*
X03628Y03189*
X03638Y03179*
X03651Y03171*
X03665Y03168*
X0368*
X03694Y03171*
X03707Y03179*
X03718Y03189*
X03725Y03202*
X03729Y03217*
Y03231*
X03725Y03246*
X03718Y03258*
X03707Y03269*
X03694Y03276*
X0368Y0328*
G37*
G36*
X03271Y03158D02*
X03263Y03157D01*
X03257Y03154*
X03251Y03149*
X03247Y03143*
X03244Y03137*
X03243Y03129*
X03244Y03122*
X03247Y03115*
X03251Y0311*
X03257Y03105*
X03264Y03103*
X03271Y03102*
X03278Y03103*
X03285Y03105*
X03291Y0311*
X03295Y03116*
X03298Y03123*
X03299Y0313*
X03298Y03137*
X03295Y03144*
X03291Y0315*
X03285Y03154*
X03278Y03157*
X03271Y03158*
G37*
G36*
X01679Y04384D02*
X01631Y04336D01*
X01679Y04289*
X01701Y04311*
X01717Y04296*
X01722Y04292*
X01728Y04291*
X01758*
Y04264*
X01787*
X01816*
Y04287*
Y04343*
X01758*
Y04322*
X01734*
X01723Y04333*
X01726Y04336*
X01679Y04384*
G37*
G36*
X01816Y04254D02*
X01792D01*
Y0423*
X01816*
Y04254*
G37*
G36*
X01782D02*
X01758D01*
Y0423*
X01782*
Y04254*
G37*
G36*
X02117Y04154D02*
Y04125D01*
X02147*
X02144Y04133*
X0214Y04141*
X02133Y04148*
X02125Y04152*
X02117Y04154*
G37*
G36*
X02107D02*
X02098Y04152D01*
X0209Y04148*
X02084Y04141*
X02079Y04133*
X02077Y04125*
X02107*
Y04154*
G37*
G36*
X01782Y04145D02*
Y04115D01*
X01812*
X0181Y04123*
X01805Y04131*
X01799Y04138*
X01791Y04142*
X01782Y04145*
G37*
G36*
X01772D02*
X01764Y04142D01*
X01756Y04138*
X01749Y04131*
X01744Y04123*
X01742Y04115*
X01772*
Y04145*
G37*
G36*
X02147Y04115D02*
X02117D01*
Y04085*
X02125Y04087*
X02133Y04092*
X0214Y04098*
X02144Y04106*
X02147Y04115*
G37*
G36*
X02107D02*
X02077D01*
X02079Y04106*
X02084Y04098*
X0209Y04092*
X02098Y04087*
X02107Y04085*
Y04115*
G37*
G36*
X01812Y04105D02*
X01782D01*
Y04075*
X01791Y04077*
X01799Y04082*
X01805Y04088*
X0181Y04096*
X01812Y04105*
G37*
G36*
X01772D02*
X01742D01*
X01744Y04096*
X01749Y04088*
X01756Y04082*
X01764Y04077*
X01772Y04075*
Y04105*
G37*
G36*
X0221Y04029D02*
X02186D01*
Y04005*
X0221*
Y04029*
G37*
G36*
X02176D02*
X02152D01*
Y04005*
X02176*
Y04029*
G37*
G36*
X02181Y04D02*
D01*
Y03995*
X02152*
Y03972*
Y03915*
X02186*
X02189Y03912*
X02194Y03908*
X022Y03907*
X02257*
X02289Y03875*
X02337Y03922*
X02289Y0397*
X02257Y03938*
X0221*
Y03972*
Y03995*
X02181*
Y04*
G37*
G36*
X01737Y04442D02*
X0169Y04395D01*
X01737Y04347*
X0177Y0438*
X0183*
X0187Y0434*
Y04181*
Y04169*
X01864Y04165*
X01857Y04159*
X01853Y04151*
X0185Y04142*
Y04133*
X01853Y04124*
X01857Y04116*
X01864Y04109*
X0187Y04106*
Y0408*
X01836*
Y03991*
X01826*
X0182Y0399*
X01815Y03987*
X01689Y03861*
X01686Y03856*
X01685Y0385*
Y03455*
X01627Y03396*
X01524*
X01491Y03429*
X01444Y03381*
X01491Y03334*
X01524Y03366*
X01633*
X01639Y03367*
X01644Y0337*
X01711Y03438*
X01714Y03442*
X01716Y03448*
Y03844*
X01831Y03959*
X01836Y03957*
Y03903*
X01935*
Y03976*
X01954*
Y03906*
X02053*
Y03917*
X02076*
X02087Y03907*
Y03854*
X02088Y03848*
X02091Y03843*
X02101Y03833*
X02106Y0383*
X02112Y03829*
X02301*
X02307Y0383*
X02312Y03833*
X02322Y03843*
X02348Y03816*
X02395Y03864*
X02348Y03912*
X02312Y03876*
X0231Y03875*
X02295Y03859*
X02118*
X02117Y0386*
Y03913*
X02116Y03919*
X02113Y03924*
X02093Y03943*
X02088Y03947*
X02082Y03948*
X02053*
Y04084*
X01954*
Y04007*
X01935*
Y0408*
X01901*
Y04106*
X01907Y04109*
X01913Y04116*
X01918Y04124*
X0192Y04133*
Y04142*
X01918Y04151*
X01913Y04159*
X01907Y04165*
X01901Y04169*
Y04181*
Y04346*
X01899Y04352*
X01896Y04357*
X01847Y04406*
X01842Y04409*
X01836Y0441*
X0177*
X01737Y04442*
G37*
G36*
X02053Y03884D02*
X02008D01*
Y038*
X02053*
Y03884*
G37*
G36*
X01998D02*
X01954D01*
Y038*
X01998*
Y03884*
G37*
G36*
X01935Y0388D02*
X0189D01*
Y03797*
X01935*
Y0388*
G37*
G36*
X0188D02*
X01836D01*
Y03797*
X0188*
Y0388*
G37*
G36*
X02053Y0379D02*
X02008D01*
Y03706*
X02053*
Y0379*
G37*
G36*
X01998D02*
X01954D01*
Y03706*
X01998*
Y0379*
G37*
G36*
X01935Y03787D02*
X0189D01*
Y03703*
X01935*
Y03787*
G37*
G36*
X0188D02*
X01836D01*
Y03703*
X0188*
Y03787*
G37*
G36*
X02117Y03702D02*
Y03672D01*
X02147*
X02144Y0368*
X0214Y03688*
X02133Y03695*
X02125Y03699*
X02117Y03702*
G37*
G36*
X02107D02*
X02098Y03699D01*
X0209Y03695*
X02084Y03688*
X02079Y0368*
X02077Y03672*
X02107*
Y03702*
G37*
G36*
X01782D02*
Y03672D01*
X01812*
X0181Y0368*
X01805Y03688*
X01799Y03695*
X01791Y03699*
X01782Y03702*
G37*
G36*
X01772D02*
X01764Y03699D01*
X01756Y03695*
X01749Y03688*
X01744Y0368*
X01742Y03672*
X01772*
Y03702*
G37*
G36*
X02147Y03662D02*
X02117D01*
Y03632*
X02125Y03634*
X02133Y03639*
X0214Y03645*
X02144Y03653*
X02147Y03662*
G37*
G36*
X02107D02*
X02077D01*
X02079Y03653*
X02084Y03645*
X0209Y03639*
X02098Y03634*
X02107Y03632*
Y03662*
G37*
G36*
X01812D02*
X01782D01*
Y03632*
X01791Y03634*
X01799Y03639*
X01805Y03645*
X0181Y03653*
X01812Y03662*
G37*
G36*
X01772D02*
X01742D01*
X01744Y03653*
X01749Y03645*
X01756Y03639*
X01764Y03634*
X01772Y03632*
Y03662*
G37*
G36*
X01637Y03519D02*
X01613D01*
Y03495*
X01637*
Y03519*
G37*
G36*
Y03485D02*
X01613D01*
Y03461*
X01637*
Y03485*
G37*
G36*
X01603Y03519D02*
X01524D01*
Y03505*
X01511*
X01505Y03504*
X01501Y035*
X01412Y03412*
X01409Y03407*
X01407Y03401*
Y03357*
X01409Y03351*
X01411Y03348*
X01385Y03323*
X01433Y03275*
X0148Y03323*
X01438Y03365*
Y03395*
X01518Y03474*
X01524*
Y03461*
X01603*
Y0349*
Y03519*
G37*
G36*
X01354Y03252D02*
X01346Y03251D01*
X0134Y03248*
X01334Y03244*
X0133Y03238*
X01327Y03231*
X01326Y03224*
X01327Y03216*
X0133Y0321*
X01334Y03204*
X0134Y032*
X01347Y03197*
X01354Y03196*
X01361Y03197*
X01368Y032*
X01374Y03204*
X01378Y0321*
X01381Y03217*
X01382Y03224*
X01381Y03231*
X01378Y03238*
X01373Y03244*
X01368Y03248*
X01361Y03251*
X01354Y03252*
G37*
G36*
X02261Y0328D02*
X02148D01*
Y03168*
X02261*
Y0328*
G37*
G36*
X01692D02*
X01677D01*
X01663Y03276*
X0165Y03269*
X01639Y03258*
X01632Y03246*
X01628Y03231*
Y03217*
X01632Y03202*
X01639Y03189*
X0165Y03179*
X01663Y03171*
X01677Y03168*
X01692*
X01706Y03171*
X01719Y03179*
X01729Y03189*
X01737Y03202*
X01741Y03217*
Y03231*
X01737Y03246*
X01729Y03258*
X01719Y03269*
X01706Y03276*
X01692Y0328*
G37*
G36*
X01283Y03158D02*
X01275Y03157D01*
X01269Y03154*
X01263Y03149*
X01258Y03143*
X01256Y03137*
X01255Y03129*
X01256Y03122*
X01259Y03115*
X01263Y0311*
X01269Y03105*
X01276Y03103*
X01283Y03102*
X0129Y03103*
X01297Y03105*
X01303Y0311*
X01307Y03116*
X0131Y03123*
X01311Y0313*
X0131Y03137*
X01307Y03144*
X01302Y0315*
X01297Y03154*
X0129Y03157*
X01283Y03158*
G37*
G36*
X04804Y02284D02*
Y02255D01*
X04834*
X04831Y02263*
X04827Y02271*
X0482Y02278*
X04812Y02282*
X04804Y02284*
G37*
G36*
X04794D02*
X04785Y02282D01*
X04777Y02278*
X04771Y02271*
X04766Y02263*
X04764Y02255*
X04794*
Y02284*
G37*
G36*
X04834Y02245D02*
X04804D01*
Y02215*
X04812Y02217*
X0482Y02221*
X04827Y02228*
X04831Y02236*
X04834Y02245*
G37*
G36*
X04794D02*
X04764D01*
X04766Y02236*
X04771Y02228*
X04777Y02221*
X04785Y02217*
X04794Y02215*
Y02245*
G37*
G36*
X04698Y0219D02*
X04674D01*
Y02166*
X04698*
Y0219*
G37*
G36*
Y02156D02*
X04674D01*
Y02132*
X04698*
Y02156*
G37*
G36*
X04664Y0219D02*
X04585D01*
Y02176*
X04562*
X04557Y02175*
X04552Y02172*
X04516Y02136*
X04514Y02139*
X04466Y02092*
X04514Y02044*
X04561Y02092*
X04538Y02115*
X04569Y02146*
X04585*
Y02132*
X04664*
Y02161*
Y0219*
G37*
G36*
X04868Y02174D02*
X04823D01*
Y0209*
X04868*
Y02174*
G37*
G36*
X04813D02*
X04769D01*
Y0209*
X04813*
Y02174*
G37*
G36*
X04868Y0208D02*
X04823D01*
Y01997*
X04868*
Y0208*
G37*
G36*
X04813D02*
X04769D01*
Y01997*
X04813*
Y0208*
G37*
G36*
X04572Y02081D02*
X04524Y02033D01*
X04572Y01986*
X04585Y01999*
X04709Y01875*
X04714Y01871*
X0472Y0187*
X04769*
Y01797*
X04868*
Y01974*
X04769*
Y01901*
X04726*
X04607Y0202*
X0462Y02033*
X04572Y02081*
G37*
G36*
X04823Y01536D02*
Y01506D01*
X04853*
X04851Y01515*
X04846Y01523*
X0484Y01529*
X04832Y01534*
X04823Y01536*
G37*
G36*
X04813D02*
X04805Y01534D01*
X04797Y01529*
X0479Y01523*
X04786Y01515*
X04784Y01506*
X04813*
Y01536*
G37*
G36*
X04853Y01496D02*
X04823D01*
Y01467*
X04832Y01469*
X0484Y01473*
X04846Y0148*
X04851Y01488*
X04853Y01496*
G37*
G36*
X04813D02*
X04784D01*
X04786Y01488*
X0479Y0148*
X04797Y01473*
X04805Y01469*
X04813Y01467*
Y01496*
G37*
G36*
X02816Y02284D02*
Y02255D01*
X02845*
X02843Y02263*
X02839Y02271*
X02832Y02278*
X02824Y02282*
X02816Y02284*
G37*
G36*
X02806D02*
X02797Y02282D01*
X02789Y02278*
X02783Y02271*
X02778Y02263*
X02776Y02255*
X02806*
Y02284*
G37*
G36*
X02845Y02245D02*
X02816D01*
Y02215*
X02824Y02217*
X02832Y02221*
X02839Y02228*
X02843Y02236*
X02845Y02245*
G37*
G36*
X02806D02*
X02776D01*
X02778Y02236*
X02783Y02228*
X02789Y02221*
X02797Y02217*
X02806Y02215*
Y02245*
G37*
G36*
X0271Y0219D02*
X02686D01*
Y02166*
X0271*
Y0219*
G37*
G36*
Y02156D02*
X02686D01*
Y02132*
X0271*
Y02156*
G37*
G36*
X02676Y0219D02*
X02596D01*
Y02176*
X02574*
X02568Y02175*
X02563Y02172*
X02528Y02136*
X02525Y02139*
X02478Y02092*
X02525Y02044*
X02573Y02092*
X0255Y02115*
X02581Y02146*
X02596*
Y02132*
X02676*
Y02161*
Y0219*
G37*
G36*
X0288Y02174D02*
X02835D01*
Y0209*
X0288*
Y02174*
G37*
G36*
X02825D02*
X02781D01*
Y0209*
X02825*
Y02174*
G37*
G36*
X0288Y0208D02*
X02835D01*
Y01997*
X0288*
Y0208*
G37*
G36*
X02825D02*
X02781D01*
Y01997*
X02825*
Y0208*
G37*
G36*
X02584Y02081D02*
X02536Y02033D01*
X02584Y01986*
X02597Y01999*
X02721Y01875*
X02726Y01871*
X02732Y0187*
X02781*
Y01797*
X0288*
Y01974*
X02781*
Y01901*
X02738*
X02618Y0202*
X02631Y02033*
X02584Y02081*
G37*
G36*
X02835Y01536D02*
Y01506D01*
X02865*
X02863Y01515*
X02858Y01523*
X02852Y01529*
X02844Y01534*
X02835Y01536*
G37*
G36*
X02825D02*
X02817Y01534D01*
X02809Y01529*
X02802Y01523*
X02798Y01515*
X02795Y01506*
X02825*
Y01536*
G37*
G36*
X02865Y01496D02*
X02835D01*
Y01467*
X02844Y01469*
X02852Y01473*
X02858Y0148*
X02863Y01488*
X02865Y01496*
G37*
G36*
X02825D02*
X02795D01*
X02798Y01488*
X02802Y0148*
X02809Y01473*
X02817Y01469*
X02825Y01467*
Y01496*
G37*
G36*
X03466Y0281D02*
X03443D01*
Y02786*
X03466*
Y0281*
G37*
G36*
Y02776D02*
X03443D01*
Y02752*
X03466*
Y02776*
G37*
G36*
X03556Y0281D02*
X03476D01*
Y02781*
Y02752*
X03556*
Y02766*
X03601*
X03622Y02744*
X03609Y02731*
X03657Y02684*
X03704Y02731*
X03657Y02779*
X03644Y02766*
X03618Y02792*
X03613Y02795*
X03607Y02796*
X03556*
Y0281*
G37*
G36*
X03598Y02721D02*
X03551Y02673D01*
X03564Y0266*
X03164Y0226*
X03161Y02255*
X03159Y0225*
Y0199*
X03101Y01931*
X03096Y01933*
Y01994*
X02997*
Y01816*
X03074*
X03209Y01682*
Y01498*
X03158Y01447*
X03145Y0146*
X03107Y01422*
X03102Y01424*
Y01466*
X03115*
Y01522*
Y01546*
X03086*
X03057*
Y01522*
Y01466*
X03071*
Y01387*
X03039Y01354*
X03087Y01307*
X03134Y01354*
X03102Y01387*
Y01402*
X03107Y01404*
X03145Y01365*
X03193Y01413*
X0318Y01426*
X03235Y01481*
X03238Y01486*
X03239Y01492*
Y01688*
X03238Y01694*
X03235Y01699*
X03096Y01838*
Y0189*
X03102Y01891*
X03107Y01894*
X03186Y01973*
X03189Y01978*
X0319Y01984*
Y02243*
X03585Y02638*
X03598Y02625*
X03646Y02673*
X03598Y02721*
G37*
G36*
X03229Y02481D02*
Y02451D01*
X03259*
X03257Y0246*
X03252Y02468*
X03245Y02474*
X03237Y02479*
X03229Y02481*
G37*
G36*
X03219D02*
X0321Y02479D01*
X03202Y02474*
X03196Y02468*
X03191Y0246*
X03189Y02451*
X03219*
Y02481*
G37*
G36*
X03259Y02441D02*
X03229D01*
Y02411*
X03237Y02414*
X03245Y02418*
X03252Y02425*
X03257Y02433*
X03259Y02441*
G37*
G36*
X03219D02*
X03189D01*
X03191Y02433*
X03196Y02425*
X03202Y02418*
X0321Y02414*
X03219Y02411*
Y02441*
G37*
G36*
X03096Y02194D02*
X03052D01*
Y0211*
X03096*
Y02194*
G37*
G36*
X03042D02*
X02997D01*
Y0211*
X03042*
Y02194*
G37*
G36*
X03096Y021D02*
X03052D01*
Y02016*
X03096*
Y021*
G37*
G36*
X03042D02*
X02997D01*
Y02016*
X03042*
Y021*
G37*
G36*
X03062Y01753D02*
Y01723D01*
X03091*
X03089Y01732*
X03085Y01739*
X03078Y01746*
X0307Y01751*
X03062Y01753*
G37*
G36*
X03052D02*
X03043Y01751D01*
X03035Y01746*
X03029Y01739*
X03024Y01732*
X03022Y01723*
X03052*
Y01753*
G37*
G36*
X03091Y01713D02*
X03062D01*
Y01683*
X0307Y01685*
X03078Y0169*
X03085Y01697*
X03089Y01704*
X03091Y01713*
G37*
G36*
X03052D02*
X03022D01*
X03024Y01704*
X03029Y01697*
X03035Y0169*
X03043Y01685*
X03052Y01683*
Y01713*
G37*
G36*
X03115Y01579D02*
X03091D01*
Y01556*
X03115*
Y01579*
G37*
G36*
X03081D02*
X03057D01*
Y01556*
X03081*
Y01579*
G37*
G36*
X01478Y0281D02*
X01455D01*
Y02786*
X01478*
Y0281*
G37*
G36*
Y02776D02*
X01455D01*
Y02752*
X01478*
Y02776*
G37*
G36*
X01568Y0281D02*
X01488D01*
Y02781*
Y02752*
X01568*
Y02766*
X01613*
X01634Y02744*
X01621Y02731*
X01669Y02684*
X01716Y02731*
X01669Y02779*
X01656Y02766*
X0163Y02792*
X01625Y02795*
X01619Y02796*
X01568*
Y0281*
G37*
G36*
X0161Y02721D02*
X01562Y02673D01*
X01575Y0266*
X01176Y0226*
X01172Y02255*
X01171Y0225*
Y0199*
X01113Y01931*
X01108Y01933*
Y01994*
X01009*
Y01816*
X01086*
X0122Y01682*
Y01498*
X0117Y01447*
X01157Y0146*
X01118Y01422*
X01114Y01424*
Y01466*
X01127*
Y01522*
Y01546*
X01098*
X01069*
Y01522*
Y01466*
X01083*
Y01387*
X01051Y01354*
X01099Y01307*
X01146Y01354*
X01114Y01387*
Y01402*
X01118Y01404*
X01157Y01365*
X01205Y01413*
X01192Y01426*
X01247Y01481*
X0125Y01486*
X01251Y01492*
Y01688*
X0125Y01694*
X01247Y01699*
X01108Y01838*
Y0189*
X01114Y01891*
X01119Y01894*
X01197Y01973*
X01201Y01978*
X01202Y01984*
Y02243*
X01597Y02638*
X0161Y02625*
X01658Y02673*
X0161Y02721*
G37*
G36*
X01241Y02481D02*
Y02451D01*
X01271*
X01268Y0246*
X01264Y02468*
X01257Y02474*
X01249Y02479*
X01241Y02481*
G37*
G36*
X01231D02*
X01222Y02479D01*
X01214Y02474*
X01208Y02468*
X01203Y0246*
X01201Y02451*
X01231*
Y02481*
G37*
G36*
X01271Y02441D02*
X01241D01*
Y02411*
X01249Y02414*
X01257Y02418*
X01264Y02425*
X01268Y02433*
X01271Y02441*
G37*
G36*
X01231D02*
X01201D01*
X01203Y02433*
X01208Y02425*
X01214Y02418*
X01222Y02414*
X01231Y02411*
Y02441*
G37*
G36*
X01108Y02194D02*
X01064D01*
Y0211*
X01108*
Y02194*
G37*
G36*
X01054D02*
X01009D01*
Y0211*
X01054*
Y02194*
G37*
G36*
X01108Y021D02*
X01064D01*
Y02016*
X01108*
Y021*
G37*
G36*
X01054D02*
X01009D01*
Y02016*
X01054*
Y021*
G37*
G36*
X01073Y01753D02*
Y01723D01*
X01103*
X01101Y01732*
X01096Y01739*
X0109Y01746*
X01082Y01751*
X01073Y01753*
G37*
G36*
X01063D02*
X01055Y01751D01*
X01047Y01746*
X0104Y01739*
X01036Y01732*
X01034Y01723*
X01063*
Y01753*
G37*
G36*
X01103Y01713D02*
X01073D01*
Y01683*
X01082Y01685*
X0109Y0169*
X01096Y01697*
X01101Y01704*
X01103Y01713*
G37*
G36*
X01063D02*
X01034D01*
X01036Y01704*
X0104Y01697*
X01047Y0169*
X01055Y01685*
X01063Y01683*
Y01713*
G37*
G36*
X01127Y01579D02*
X01103D01*
Y01556*
X01127*
Y01579*
G37*
G36*
X01093D02*
X01069D01*
Y01556*
X01093*
Y01579*
G37*
G36*
X03667Y02396D02*
X0362Y02348D01*
X03667Y02301*
X0369Y02323*
X03705Y02308*
X0371Y02304*
X03716Y02303*
X03746*
Y02276*
X03775*
X03804*
Y02298*
Y02355*
X03746*
Y02334*
X03722*
X03711Y02345*
X03715Y02348*
X03667Y02396*
G37*
G36*
X03804Y02266D02*
X0378D01*
Y02242*
X03804*
Y02266*
G37*
G36*
X0377D02*
X03746D01*
Y02242*
X0377*
Y02266*
G37*
G36*
X04105Y02166D02*
Y02136D01*
X04135*
X04133Y02145*
X04128Y02153*
X04121Y02159*
X04113Y02164*
X04105Y02166*
G37*
G36*
X04095D02*
X04086Y02164D01*
X04078Y02159*
X04072Y02153*
X04067Y02145*
X04065Y02136*
X04095*
Y02166*
G37*
G36*
X0377Y02156D02*
Y02127D01*
X038*
X03798Y02135*
X03793Y02143*
X03787Y0215*
X03779Y02154*
X0377Y02156*
G37*
G36*
X0376D02*
X03752Y02154D01*
X03744Y0215*
X03737Y02143*
X03733Y02135*
X0373Y02127*
X0376*
Y02156*
G37*
G36*
X04135Y02126D02*
X04105D01*
Y02097*
X04113Y02099*
X04121Y02103*
X04128Y0211*
X04133Y02118*
X04135Y02126*
G37*
G36*
X04095D02*
X04065D01*
X04067Y02118*
X04072Y0211*
X04078Y02103*
X04086Y02099*
X04095Y02097*
Y02126*
G37*
G36*
X038Y02117D02*
X0377D01*
Y02087*
X03779Y02089*
X03787Y02094*
X03793Y021*
X03798Y02108*
X038Y02117*
G37*
G36*
X0376D02*
X0373D01*
X03733Y02108*
X03737Y021*
X03744Y02094*
X03752Y02089*
X0376Y02087*
Y02117*
G37*
G36*
X04198Y0204D02*
X04174D01*
Y02017*
X04198*
Y0204*
G37*
G36*
X04164D02*
X0414D01*
Y02017*
X04164*
Y0204*
G37*
G36*
X04169Y02012D02*
D01*
Y02007*
X0414*
Y01984*
Y01927*
X04175*
X04177Y01923*
X04182Y0192*
X04188Y01919*
X04245*
X04277Y01887*
X04325Y01934*
X04277Y01982*
X04245Y0195*
X04198*
Y01984*
Y02007*
X04169*
Y02012*
G37*
G36*
X03726Y02454D02*
X03678Y02407D01*
X03726Y02359*
X03758Y02391*
X03818*
X03858Y02351*
Y02192*
Y02181*
X03852Y02177*
X03846Y02171*
X03841Y02163*
X03839Y02154*
Y02145*
X03841Y02136*
X03846Y02128*
X03852Y02121*
X03858Y02118*
Y02092*
X03824*
Y02003*
X03814*
X03809Y02002*
X03804Y01999*
X03678Y01873*
X03674Y01868*
X03673Y01862*
Y01466*
X03615Y01408*
X03512*
X0348Y0144*
X03432Y01393*
X0348Y01345*
X03512Y01378*
X03621*
X03627Y01379*
X03632Y01382*
X03699Y01449*
X03703Y01454*
X03704Y0146*
Y01855*
X03819Y01971*
X03824Y01969*
Y01915*
X03923*
Y01988*
X03942*
Y01918*
X04041*
Y01929*
X04064*
X04075Y01918*
Y01866*
X04076Y0186*
X04079Y01855*
X04089Y01845*
X04094Y01842*
X041Y01841*
X0429*
X04295Y01842*
X043Y01845*
X0431Y01854*
X04336Y01828*
X04383Y01876*
X04336Y01923*
X043Y01887*
X04299Y01887*
X04283Y01871*
X04106*
X04105Y01872*
Y01925*
X04104Y01931*
X04101Y01936*
X04081Y01955*
X04076Y01959*
X0407Y0196*
X04041*
Y02095*
X03942*
Y02019*
X03923*
Y02092*
X03889*
Y02118*
X03895Y02121*
X03902Y02128*
X03906Y02136*
X03909Y02145*
Y02154*
X03906Y02163*
X03902Y02171*
X03895Y02177*
X03889Y02181*
Y02192*
Y02358*
X03888Y02364*
X03884Y02369*
X03835Y02418*
X0383Y02421*
X03825Y02422*
X03758*
X03726Y02454*
G37*
G36*
X04041Y01895D02*
X03997D01*
Y01812*
X04041*
Y01895*
G37*
G36*
X03987D02*
X03942D01*
Y01812*
X03987*
Y01895*
G37*
G36*
X03923Y01892D02*
X03879D01*
Y01808*
X03923*
Y01892*
G37*
G36*
X03869D02*
X03824D01*
Y01808*
X03869*
Y01892*
G37*
G36*
X04041Y01802D02*
X03997D01*
Y01718*
X04041*
Y01802*
G37*
G36*
X03987D02*
X03942D01*
Y01718*
X03987*
Y01802*
G37*
G36*
X03923Y01798D02*
X03879D01*
Y01715*
X03923*
Y01798*
G37*
G36*
X03869D02*
X03824D01*
Y01715*
X03869*
Y01798*
G37*
G36*
X04105Y01714D02*
Y01684D01*
X04135*
X04133Y01692*
X04128Y017*
X04121Y01707*
X04113Y01711*
X04105Y01714*
G37*
G36*
X04095D02*
X04086Y01711D01*
X04078Y01707*
X04072Y017*
X04067Y01692*
X04065Y01684*
X04095*
Y01714*
G37*
G36*
X0377D02*
Y01684D01*
X038*
X03798Y01692*
X03793Y017*
X03787Y01707*
X03779Y01711*
X0377Y01714*
G37*
G36*
X0376D02*
X03752Y01711D01*
X03744Y01707*
X03737Y017*
X03733Y01692*
X0373Y01684*
X0376*
Y01714*
G37*
G36*
X04135Y01674D02*
X04105D01*
Y01644*
X04113Y01646*
X04121Y01651*
X04128Y01657*
X04133Y01665*
X04135Y01674*
G37*
G36*
X04095D02*
X04065D01*
X04067Y01665*
X04072Y01657*
X04078Y01651*
X04086Y01646*
X04095Y01644*
Y01674*
G37*
G36*
X038D02*
X0377D01*
Y01644*
X03779Y01646*
X03787Y01651*
X03793Y01657*
X03798Y01665*
X038Y01674*
G37*
G36*
X0376D02*
X0373D01*
X03733Y01665*
X03737Y01657*
X03744Y01651*
X03752Y01646*
X0376Y01644*
Y01674*
G37*
G36*
X03625Y0153D02*
X03602D01*
Y01506*
X03625*
Y0153*
G37*
G36*
Y01496D02*
X03602D01*
Y01473*
X03625*
Y01496*
G37*
G36*
X03592Y0153D02*
X03512D01*
Y01517*
X035*
X03494Y01516*
X03489Y01512*
X034Y01424*
X03397Y01419*
X03396Y01413*
Y01369*
X03397Y01363*
X03399Y0136*
X03374Y01334*
X03421Y01287*
X03469Y01334*
X03426Y01377*
Y01407*
X03506Y01486*
X03512*
Y01473*
X03592*
Y01501*
Y0153*
G37*
G36*
X03342Y01264D02*
X03335Y01263D01*
X03328Y0126*
X03322Y01255*
X03318Y01249*
X03315Y01243*
X03314Y01235*
X03315Y01228*
X03318Y01222*
X03322Y01216*
X03328Y01211*
X03335Y01209*
X03342Y01208*
X03349Y01209*
X03356Y01212*
X03362Y01216*
X03366Y01222*
X03369Y01229*
X0337Y01236*
X03369Y01243*
X03366Y0125*
X03362Y01256*
X03356Y0126*
X03349Y01263*
X03342Y01264*
G37*
G36*
X04249Y01292D02*
X04136D01*
Y01179*
X04249*
Y01292*
G37*
G36*
X0368D02*
X03665D01*
X03651Y01288*
X03638Y01281*
X03628Y0127*
X0362Y01257*
X03616Y01243*
Y01228*
X0362Y01214*
X03628Y01201*
X03638Y01191*
X03651Y01183*
X03665Y01179*
X0368*
X03694Y01183*
X03707Y01191*
X03718Y01201*
X03725Y01214*
X03729Y01228*
Y01243*
X03725Y01257*
X03718Y0127*
X03707Y01281*
X03694Y01288*
X0368Y01292*
G37*
G36*
X03271Y01169D02*
X03263Y01168D01*
X03257Y01165*
X03251Y01161*
X03247Y01155*
X03244Y01148*
X03243Y01141*
X03244Y01134*
X03247Y01127*
X03251Y01121*
X03257Y01117*
X03264Y01114*
X03271Y01113*
X03278Y01114*
X03285Y01117*
X03291Y01122*
X03295Y01128*
X03298Y01134*
X03299Y01142*
X03298Y01149*
X03295Y01156*
X03291Y01161*
X03285Y01166*
X03278Y01168*
X03271Y01169*
G37*
G36*
X01679Y02396D02*
X01631Y02348D01*
X01679Y02301*
X01701Y02323*
X01717Y02308*
X01722Y02304*
X01728Y02303*
X01758*
Y02276*
X01787*
X01816*
Y02298*
Y02355*
X01758*
Y02334*
X01734*
X01723Y02345*
X01726Y02348*
X01679Y02396*
G37*
G36*
X01816Y02266D02*
X01792D01*
Y02242*
X01816*
Y02266*
G37*
G36*
X01782D02*
X01758D01*
Y02242*
X01782*
Y02266*
G37*
G36*
X02117Y02166D02*
Y02136D01*
X02147*
X02144Y02145*
X0214Y02153*
X02133Y02159*
X02125Y02164*
X02117Y02166*
G37*
G36*
X02107D02*
X02098Y02164D01*
X0209Y02159*
X02084Y02153*
X02079Y02145*
X02077Y02136*
X02107*
Y02166*
G37*
G36*
X01782Y02156D02*
Y02127D01*
X01812*
X0181Y02135*
X01805Y02143*
X01799Y0215*
X01791Y02154*
X01782Y02156*
G37*
G36*
X01772D02*
X01764Y02154D01*
X01756Y0215*
X01749Y02143*
X01744Y02135*
X01742Y02127*
X01772*
Y02156*
G37*
G36*
X02147Y02126D02*
X02117D01*
Y02097*
X02125Y02099*
X02133Y02103*
X0214Y0211*
X02144Y02118*
X02147Y02126*
G37*
G36*
X02107D02*
X02077D01*
X02079Y02118*
X02084Y0211*
X0209Y02103*
X02098Y02099*
X02107Y02097*
Y02126*
G37*
G36*
X01812Y02117D02*
X01782D01*
Y02087*
X01791Y02089*
X01799Y02094*
X01805Y021*
X0181Y02108*
X01812Y02117*
G37*
G36*
X01772D02*
X01742D01*
X01744Y02108*
X01749Y021*
X01756Y02094*
X01764Y02089*
X01772Y02087*
Y02117*
G37*
G36*
X0221Y0204D02*
X02186D01*
Y02017*
X0221*
Y0204*
G37*
G36*
X02176D02*
X02152D01*
Y02017*
X02176*
Y0204*
G37*
G36*
X02181Y02012D02*
D01*
Y02007*
X02152*
Y01984*
Y01927*
X02186*
X02189Y01923*
X02194Y0192*
X022Y01919*
X02257*
X02289Y01887*
X02337Y01934*
X02289Y01982*
X02257Y0195*
X0221*
Y01984*
Y02007*
X02181*
Y02012*
G37*
G36*
X01737Y02454D02*
X0169Y02407D01*
X01737Y02359*
X0177Y02391*
X0183*
X0187Y02351*
Y02192*
Y02181*
X01864Y02177*
X01857Y02171*
X01853Y02163*
X0185Y02154*
Y02145*
X01853Y02136*
X01857Y02128*
X01864Y02121*
X0187Y02118*
Y02092*
X01836*
Y02003*
X01826*
X0182Y02002*
X01815Y01999*
X01689Y01873*
X01686Y01868*
X01685Y01862*
Y01466*
X01627Y01408*
X01524*
X01491Y0144*
X01444Y01393*
X01491Y01345*
X01524Y01378*
X01633*
X01639Y01379*
X01644Y01382*
X01711Y01449*
X01714Y01454*
X01716Y0146*
Y01855*
X01831Y01971*
X01836Y01969*
Y01915*
X01935*
Y01988*
X01954*
Y01918*
X02053*
Y01929*
X02076*
X02087Y01918*
Y01866*
X02088Y0186*
X02091Y01855*
X02101Y01845*
X02106Y01842*
X02112Y01841*
X02301*
X02307Y01842*
X02312Y01845*
X02322Y01854*
X02348Y01828*
X02395Y01876*
X02348Y01923*
X02312Y01887*
X0231Y01887*
X02295Y01871*
X02118*
X02117Y01872*
Y01925*
X02116Y01931*
X02113Y01936*
X02093Y01955*
X02088Y01959*
X02082Y0196*
X02053*
Y02095*
X01954*
Y02019*
X01935*
Y02092*
X01901*
Y02118*
X01907Y02121*
X01913Y02128*
X01918Y02136*
X0192Y02145*
Y02154*
X01918Y02163*
X01913Y02171*
X01907Y02177*
X01901Y02181*
Y02192*
Y02358*
X01899Y02364*
X01896Y02369*
X01847Y02418*
X01842Y02421*
X01836Y02422*
X0177*
X01737Y02454*
G37*
G36*
X02053Y01895D02*
X02008D01*
Y01812*
X02053*
Y01895*
G37*
G36*
X01998D02*
X01954D01*
Y01812*
X01998*
Y01895*
G37*
G36*
X01935Y01892D02*
X0189D01*
Y01808*
X01935*
Y01892*
G37*
G36*
X0188D02*
X01836D01*
Y01808*
X0188*
Y01892*
G37*
G36*
X02053Y01802D02*
X02008D01*
Y01718*
X02053*
Y01802*
G37*
G36*
X01998D02*
X01954D01*
Y01718*
X01998*
Y01802*
G37*
G36*
X01935Y01798D02*
X0189D01*
Y01715*
X01935*
Y01798*
G37*
G36*
X0188D02*
X01836D01*
Y01715*
X0188*
Y01798*
G37*
G36*
X02117Y01714D02*
Y01684D01*
X02147*
X02144Y01692*
X0214Y017*
X02133Y01707*
X02125Y01711*
X02117Y01714*
G37*
G36*
X02107D02*
X02098Y01711D01*
X0209Y01707*
X02084Y017*
X02079Y01692*
X02077Y01684*
X02107*
Y01714*
G37*
G36*
X01782D02*
Y01684D01*
X01812*
X0181Y01692*
X01805Y017*
X01799Y01707*
X01791Y01711*
X01782Y01714*
G37*
G36*
X01772D02*
X01764Y01711D01*
X01756Y01707*
X01749Y017*
X01744Y01692*
X01742Y01684*
X01772*
Y01714*
G37*
G36*
X02147Y01674D02*
X02117D01*
Y01644*
X02125Y01646*
X02133Y01651*
X0214Y01657*
X02144Y01665*
X02147Y01674*
G37*
G36*
X02107D02*
X02077D01*
X02079Y01665*
X02084Y01657*
X0209Y01651*
X02098Y01646*
X02107Y01644*
Y01674*
G37*
G36*
X01812D02*
X01782D01*
Y01644*
X01791Y01646*
X01799Y01651*
X01805Y01657*
X0181Y01665*
X01812Y01674*
G37*
G36*
X01772D02*
X01742D01*
X01744Y01665*
X01749Y01657*
X01756Y01651*
X01764Y01646*
X01772Y01644*
Y01674*
G37*
G36*
X01637Y0153D02*
X01613D01*
Y01506*
X01637*
Y0153*
G37*
G36*
Y01496D02*
X01613D01*
Y01473*
X01637*
Y01496*
G37*
G36*
X01603Y0153D02*
X01524D01*
Y01517*
X01511*
X01505Y01516*
X01501Y01512*
X01412Y01424*
X01409Y01419*
X01407Y01413*
Y01369*
X01409Y01363*
X01411Y0136*
X01385Y01334*
X01433Y01287*
X0148Y01334*
X01438Y01377*
Y01407*
X01518Y01486*
X01524*
Y01473*
X01603*
Y01501*
Y0153*
G37*
G36*
X01354Y01264D02*
X01346Y01263D01*
X0134Y0126*
X01334Y01255*
X0133Y01249*
X01327Y01243*
X01326Y01235*
X01327Y01228*
X0133Y01222*
X01334Y01216*
X0134Y01211*
X01347Y01209*
X01354Y01208*
X01361Y01209*
X01368Y01212*
X01374Y01216*
X01378Y01222*
X01381Y01229*
X01382Y01236*
X01381Y01243*
X01378Y0125*
X01373Y01256*
X01368Y0126*
X01361Y01263*
X01354Y01264*
G37*
G36*
X02261Y01292D02*
X02148D01*
Y01179*
X02261*
Y01292*
G37*
G36*
X01692D02*
X01677D01*
X01663Y01288*
X0165Y01281*
X01639Y0127*
X01632Y01257*
X01628Y01243*
Y01228*
X01632Y01214*
X01639Y01201*
X0165Y01191*
X01663Y01183*
X01677Y01179*
X01692*
X01706Y01183*
X01719Y01191*
X01729Y01201*
X01737Y01214*
X01741Y01228*
Y01243*
X01737Y01257*
X01729Y0127*
X01719Y01281*
X01706Y01288*
X01692Y01292*
G37*
G36*
X01283Y01169D02*
X01275Y01168D01*
X01269Y01165*
X01263Y01161*
X01258Y01155*
X01256Y01148*
X01255Y01141*
X01256Y01134*
X01259Y01127*
X01263Y01121*
X01269Y01117*
X01276Y01114*
X01283Y01113*
X0129Y01114*
X01297Y01117*
X01303Y01122*
X01307Y01128*
X0131Y01134*
X01311Y01142*
X0131Y01149*
X01307Y01156*
X01302Y01161*
X01297Y01166*
X0129Y01168*
X01283Y01169*
G37*
%LNpcb_panel_v3-3*%
%LPD*%
G54D13*
X01098Y01551D03*
Y01494D03*
X02181Y02012D03*
Y01956D03*
X01787Y02271D03*
Y02327D03*
X03086Y01551D03*
Y01494D03*
X04169Y02012D03*
Y01956D03*
X03775Y02271D03*
Y02327D03*
X01098Y03539D03*
Y03483D03*
X02181Y04D03*
Y03944D03*
X01787Y04259D03*
Y04315D03*
X03086Y03539D03*
Y03483D03*
X04169Y04D03*
Y03944D03*
X03775Y04259D03*
Y04315D03*
G54D14*
X01059Y02105D03*
Y01905D03*
X0283Y02085D03*
Y01885D03*
X01885Y01803D03*
Y02003D03*
X02003Y01807D03*
Y02007D03*
X03047Y02105D03*
Y01905D03*
X04818Y02085D03*
Y01885D03*
X03874Y01803D03*
Y02003D03*
X03992Y01807D03*
Y02007D03*
X01059Y04093D03*
Y03893D03*
X0283Y04074D03*
Y03874D03*
X01885Y03792D03*
Y03992D03*
X02003Y03795D03*
Y03995D03*
X03047Y04093D03*
Y03893D03*
X04818Y04074D03*
Y03874D03*
X03874Y03792D03*
Y03992D03*
X03992Y03795D03*
Y03995D03*
G54D15*
X02525Y02092D03*
X02584Y02033D03*
X02289Y01934D03*
X02348Y01876D03*
X04514Y02092D03*
X04572Y02033D03*
X04277Y01934D03*
X04336Y01876D03*
X02525Y0408D03*
X02584Y04021D03*
X02289Y03922D03*
X02348Y03864D03*
X04514Y0408D03*
X04572Y04021D03*
X04277Y03922D03*
X04336Y03864D03*
G54D16*
X01433Y01334D03*
X01491Y01393D03*
X01099Y01354D03*
X01157Y01413D03*
X01669Y02731D03*
X0161Y02673D03*
X01679Y02348D03*
X01737Y02407D03*
X03421Y01334D03*
X0348Y01393D03*
X03087Y01354D03*
X03145Y01413D03*
X03657Y02731D03*
X03598Y02673D03*
X03667Y02348D03*
X03726Y02407D03*
X01433Y03323D03*
X01491Y03381D03*
X01099Y03343D03*
X01157Y03401D03*
X01669Y0472D03*
X0161Y04661D03*
X01679Y04336D03*
X01737Y04395D03*
X03421Y03323D03*
X0348Y03381D03*
X03087Y03343D03*
X03145Y03401D03*
X03657Y0472D03*
X03598Y04661D03*
X03667Y04336D03*
X03726Y04395D03*
G54D17*
X01608Y01501D03*
X01552D03*
X01483Y02781D03*
X01539D03*
X02681Y02161D03*
X02625D03*
X03597Y01501D03*
X0354D03*
X03471Y02781D03*
X03528D03*
X04669Y02161D03*
X04613D03*
X01608Y0349D03*
X01552D03*
X01483Y04769D03*
X01539D03*
X02681Y04149D03*
X02625D03*
X03597Y0349D03*
X0354D03*
X03471Y04769D03*
X03528D03*
X04669Y04149D03*
X04613D03*
G54D18*
X01885Y02192D02*
Y02358D01*
Y02003D02*
Y02149D01*
Y02192D02*
D01*
Y02149D02*
Y02192D01*
X0187Y01988D02*
X01885Y02003D01*
X01826Y01988D02*
X0187D01*
X017Y01862D02*
X01826Y01988D01*
X017Y0146D02*
Y01862D01*
X01633Y01393D02*
X017Y0146D01*
X01491Y01393D02*
X01633D01*
X02Y02003D02*
X02003Y02007D01*
X01885Y02003D02*
X02D01*
X02525Y02092D02*
Y02112D01*
X02574Y02161*
X02625*
X02584Y02033D02*
X02732Y01885D01*
X02584Y02033D02*
D01*
X02732Y01885D02*
X0283D01*
X01423Y01413D02*
X01511Y01501D01*
X01552*
X01423Y01369D02*
Y01413D01*
X01433Y01334D02*
Y01359D01*
X01423Y01369D02*
X01433Y01359D01*
X02112Y01856D02*
X02301D01*
X02321Y01876*
X02102Y01866D02*
Y01925D01*
Y01866D02*
X02112Y01856D01*
X02082Y01944D02*
X02102Y01925D01*
X02003Y01979D02*
Y02007D01*
Y01979D02*
X02038Y01944D01*
X02082*
X022Y01934D02*
X02289D01*
X022Y01936D02*
Y01937D01*
X02181Y01956D02*
X02181D01*
X022Y01937*
X01836Y02407D02*
X01885Y02358D01*
X01737Y02407D02*
X01836D01*
X01778Y02318D02*
X01787Y02327D01*
X01728Y02318D02*
X01778D01*
X01698Y02348D02*
X01728Y02318D01*
X01679Y02348D02*
X01698D01*
X01619Y02781D02*
X01669Y02731D01*
X01539Y02781D02*
X01619D01*
X01669Y02731D02*
D01*
X01187Y0225D02*
X0161Y02673D01*
X01187Y01984D02*
Y0225D01*
X01108Y01905D02*
X01187Y01984D01*
X01059Y01905D02*
X01108D01*
X01059Y01866D02*
X01236Y01688D01*
X01059Y01866D02*
Y01905D01*
X01236Y01492D02*
Y01688D01*
X01157Y01413D02*
X01236Y01492D01*
X01098Y01494D02*
X01099Y01494D01*
Y01354D02*
Y01494D01*
X03874Y02192D02*
Y02358D01*
Y02003D02*
Y02149D01*
Y02192D02*
D01*
Y02149D02*
Y02192D01*
X03858Y01988D02*
X03874Y02003D01*
X03814Y01988D02*
X03858D01*
X03688Y01862D02*
X03814Y01988D01*
X03688Y0146D02*
Y01862D01*
X03621Y01393D02*
X03688Y0146D01*
X0348Y01393D02*
X03621D01*
X03988Y02003D02*
X03992Y02007D01*
X03874Y02003D02*
X03988D01*
X04514Y02092D02*
Y02112D01*
X04562Y02161*
X04613*
X04572Y02033D02*
X0472Y01885D01*
X04572Y02033D02*
D01*
X0472Y01885D02*
X04818D01*
X03411Y01413D02*
X035Y01501D01*
X0354*
X03411Y01369D02*
Y01413D01*
X03421Y01334D02*
Y01359D01*
X03411Y01369D02*
X03421Y01359D01*
X041Y01856D02*
X0429D01*
X04309Y01876*
X0409Y01866D02*
Y01925D01*
Y01866D02*
X041Y01856D01*
X0407Y01944D02*
X0409Y01925D01*
X03992Y01979D02*
Y02007D01*
Y01979D02*
X04026Y01944D01*
X0407*
X04188Y01934D02*
X04277D01*
X04188Y01936D02*
Y01937D01*
X04169Y01956D02*
X04169D01*
X04188Y01937*
X03825Y02407D02*
X03874Y02358D01*
X03726Y02407D02*
X03825D01*
X03767Y02318D02*
X03775Y02327D01*
X03716Y02318D02*
X03767D01*
X03686Y02348D02*
X03716Y02318D01*
X03667Y02348D02*
X03686D01*
X03607Y02781D02*
X03657Y02731D01*
X03528Y02781D02*
X03607D01*
X03657Y02731D02*
D01*
X03175Y0225D02*
X03598Y02673D01*
X03175Y01984D02*
Y0225D01*
X03096Y01905D02*
X03175Y01984D01*
X03047Y01905D02*
X03096D01*
X03047Y01866D02*
X03224Y01688D01*
X03047Y01866D02*
Y01905D01*
X03224Y01492D02*
Y01688D01*
X03145Y01413D02*
X03224Y01492D01*
X03086Y01494D02*
X03087Y01494D01*
Y01354D02*
Y01494D01*
X01885Y04181D02*
Y04346D01*
Y03992D02*
Y04137D01*
Y04181D02*
D01*
Y04137D02*
Y04181D01*
X0187Y03976D02*
X01885Y03992D01*
X01826Y03976D02*
X0187D01*
X017Y0385D02*
X01826Y03976D01*
X017Y03448D02*
Y0385D01*
X01633Y03381D02*
X017Y03448D01*
X01491Y03381D02*
X01633D01*
X02Y03992D02*
X02003Y03995D01*
X01885Y03992D02*
X02D01*
X02525Y0408D02*
Y041D01*
X02574Y04149*
X02625*
X02584Y04021D02*
X02732Y03874D01*
X02584Y04021D02*
D01*
X02732Y03874D02*
X0283D01*
X01423Y03401D02*
X01511Y0349D01*
X01552*
X01423Y03357D02*
Y03401D01*
X01433Y03323D02*
Y03347D01*
X01423Y03357D02*
X01433Y03347D01*
X02112Y03844D02*
X02301D01*
X02321Y03864*
X02102Y03854D02*
Y03913D01*
Y03854D02*
X02112Y03844D01*
X02082Y03933D02*
X02102Y03913D01*
X02003Y03967D02*
Y03995D01*
Y03967D02*
X02038Y03933D01*
X02082*
X022Y03922D02*
X02289D01*
X022Y03924D02*
Y03925D01*
X02181Y03944D02*
X02181D01*
X022Y03925*
X01836Y04395D02*
X01885Y04346D01*
X01737Y04395D02*
X01836D01*
X01778Y04307D02*
X01787Y04315D01*
X01728Y04307D02*
X01778D01*
X01698Y04336D02*
X01728Y04307D01*
X01679Y04336D02*
X01698D01*
X01619Y04769D02*
X01669Y0472D01*
X01539Y04769D02*
X01619D01*
X01669Y0472D02*
D01*
X01187Y04238D02*
X0161Y04661D01*
X01187Y03972D02*
Y04238D01*
X01108Y03893D02*
X01187Y03972D01*
X01059Y03893D02*
X01108D01*
X01059Y03854D02*
X01236Y03677D01*
X01059Y03854D02*
Y03893D01*
X01236Y0348D02*
Y03677D01*
X01157Y03401D02*
X01236Y0348D01*
X01098Y03483D02*
X01099Y03482D01*
Y03343D02*
Y03482D01*
X03874Y04181D02*
Y04346D01*
Y03992D02*
Y04137D01*
Y04181D02*
D01*
Y04137D02*
Y04181D01*
X03858Y03976D02*
X03874Y03992D01*
X03814Y03976D02*
X03858D01*
X03688Y0385D02*
X03814Y03976D01*
X03688Y03448D02*
Y0385D01*
X03621Y03381D02*
X03688Y03448D01*
X0348Y03381D02*
X03621D01*
X03988Y03992D02*
X03992Y03995D01*
X03874Y03992D02*
X03988D01*
X04514Y0408D02*
Y041D01*
X04562Y04149*
X04613*
X04572Y04021D02*
X0472Y03874D01*
X04572Y04021D02*
D01*
X0472Y03874D02*
X04818D01*
X03411Y03401D02*
X035Y0349D01*
X0354*
X03411Y03357D02*
Y03401D01*
X03421Y03323D02*
Y03347D01*
X03411Y03357D02*
X03421Y03347D01*
X041Y03844D02*
X0429D01*
X04309Y03864*
X0409Y03854D02*
Y03913D01*
Y03854D02*
X041Y03844D01*
X0407Y03933D02*
X0409Y03913D01*
X03992Y03967D02*
Y03995D01*
Y03967D02*
X04026Y03933D01*
X0407*
X04188Y03922D02*
X04277D01*
X04188Y03924D02*
Y03925D01*
X04169Y03944D02*
X04169D01*
X04188Y03925*
X03825Y04395D02*
X03874Y04346D01*
X03726Y04395D02*
X03825D01*
X03767Y04307D02*
X03775Y04315D01*
X03716Y04307D02*
X03767D01*
X03686Y04336D02*
X03716Y04307D01*
X03667Y04336D02*
X03686D01*
X03607Y04769D02*
X03657Y0472D01*
X03528Y04769D02*
X03607D01*
X03657Y0472D02*
D01*
X03175Y04238D02*
X03598Y04661D01*
X03175Y03972D02*
Y04238D01*
X03096Y03893D02*
X03175Y03972D01*
X03047Y03893D02*
X03096D01*
X03047Y03854D02*
X03224Y03677D01*
X03047Y03854D02*
Y03893D01*
X03224Y0348D02*
Y03677D01*
X03145Y03401D02*
X03224Y0348D01*
X03086Y03483D02*
X03087Y03482D01*
Y03343D02*
Y03482D01*
G54D19*
X022Y01934D02*
Y01936D01*
X0161Y02673D02*
D01*
X01669Y02731D02*
D01*
X01157Y01413D02*
D01*
X02321Y01876D02*
X02348D01*
X04188Y01934D02*
Y01936D01*
X03598Y02673D02*
D01*
X03657Y02731D02*
D01*
X03145Y01413D02*
D01*
X04309Y01876D02*
X04336D01*
X022Y03922D02*
Y03924D01*
X0161Y04661D02*
D01*
X01669Y0472D02*
D01*
X01157Y03401D02*
D01*
X02321Y03864D02*
X02348D01*
X04188Y03922D02*
Y03924D01*
X03598Y04661D02*
D01*
X03657Y0472D02*
D01*
X03145Y03401D02*
D01*
X04309Y03864D02*
X04336D01*
G54D20*
X02906Y01943D03*
Y01973D03*
Y02003D03*
Y02033D03*
X02976D03*
Y01973D03*
Y01943D03*
Y02003D03*
X02979Y04028D03*
Y03998D03*
Y03968D03*
Y03938D03*
X02909D03*
Y03998D03*
Y04028D03*
Y03968D03*
X0453Y029D03*
X045D03*
X0447D03*
X0444D03*
Y0297D03*
X045D03*
X0453D03*
X0447D03*
X036D03*
X0366D03*
X0363D03*
X0357D03*
Y029D03*
X036D03*
X0363D03*
X0366D03*
X0235Y0297D03*
X0238D03*
X0241D03*
X0244D03*
Y029D03*
X0238D03*
X0235D03*
X0241D03*
X0154D03*
X0148D03*
X0151D03*
X0157D03*
Y0297D03*
X0154D03*
X0151D03*
X0148D03*
X02294Y02494D03*
X02276Y02518D03*
X02257Y02541D03*
X0224Y02564D03*
X02223Y02587D03*
X01721Y02545D03*
X01703Y02522D03*
X01686Y02499D03*
X01669Y02476D03*
X0165Y02454D03*
X02169Y02537D03*
X02187Y02514D03*
X02204Y02491D03*
X02221Y02468D03*
X0224Y02446D03*
X01598Y02491D03*
X01616Y02515D03*
X01635Y02538D03*
X01652Y02561D03*
X01669Y02584D03*
X04282Y02494D03*
X04264Y02518D03*
X04245Y02541D03*
X04228Y02564D03*
X04211Y02587D03*
X03709Y02545D03*
X03691Y02522D03*
X03674Y02499D03*
X03657Y02476D03*
X03638Y02454D03*
X04157Y02537D03*
X04175Y02514D03*
X04192Y02491D03*
X04209Y02468D03*
X04228Y02446D03*
X03586Y02491D03*
X03604Y02515D03*
X03623Y02538D03*
X0364Y02561D03*
X03657Y02584D03*
X02294Y04483D03*
X02276Y04507D03*
X02257Y0453D03*
X0224Y04553D03*
X02223Y04576D03*
X01721Y04533D03*
X01703Y0451D03*
X01686Y04487D03*
X01669Y04464D03*
X0165Y04442D03*
X02169Y04526D03*
X02187Y04503D03*
X02204Y0448D03*
X02221Y04457D03*
X0224Y04435D03*
X01598Y04479D03*
X01616Y04503D03*
X01635Y04526D03*
X01652Y04549D03*
X01669Y04572D03*
X04282Y04483D03*
X04264Y04507D03*
X04245Y0453D03*
X04228Y04553D03*
X04211Y04576D03*
X03709Y04533D03*
X03691Y0451D03*
X03674Y04487D03*
X03657Y04464D03*
X03638Y04442D03*
X04157Y04526D03*
X04175Y04503D03*
X04192Y0448D03*
X04209Y04457D03*
X04228Y04435D03*
X03586Y04479D03*
X03604Y04503D03*
X03623Y04526D03*
X0364Y04549D03*
X03657Y04572D03*
G54D21*
X01684Y01236D03*
X03673D03*
X01684Y03224D03*
X03673D03*
G54D22*
X02204Y01236D03*
X04193D03*
X02204Y03224D03*
X04193D03*
G54D23*
X01354Y01236D03*
X01283Y01141D03*
X03342Y01236D03*
X03271Y01141D03*
X01354Y03224D03*
X01283Y0313D03*
X03342Y03224D03*
X03271Y0313D03*
G54D24*
X01885Y02149D03*
X02112Y01679D03*
Y02131D03*
X01777Y01679D03*
Y02122D03*
X01236Y02446D03*
X01068Y01718D03*
X0283Y01501D03*
X02811Y0225D03*
X03874Y02149D03*
X041Y01679D03*
Y02131D03*
X03765Y01679D03*
Y02122D03*
X03224Y02446D03*
X03057Y01718D03*
X04818Y01501D03*
X04799Y0225D03*
X01885Y04137D03*
X02112Y03667D03*
Y0412D03*
X01777Y03667D03*
Y0411D03*
X01236Y04435D03*
X01068Y03706D03*
X0283Y0349D03*
X02811Y04238D03*
X03874Y04137D03*
X041Y03667D03*
Y0412D03*
X03765Y03667D03*
Y0411D03*
X03224Y04435D03*
X03057Y03706D03*
X04818Y0349D03*
X04799Y04238D03*
M02*