%FSTAX23Y23*%
%MOIN*%
%SFA1B1*%

%IPPOS*%
%ADD19C,0.000000*%
%LNpcb_panel_v3-1*%
%LPD*%
G54D19*
X0128Y01052D02*
X01439Y01263D01*
X01151Y0115D02*
X0128Y01052D01*
X01151Y0115D02*
X0131Y0136D01*
X01439Y01263*
X01374Y02091D02*
X01412Y02053D01*
X01316Y02032D02*
X01374Y02091D01*
X01316Y02032D02*
X01353Y01995D01*
X01412Y02053*
X02595Y01591D02*
X02632Y01629D01*
X02595Y01591D02*
X02653Y01532D01*
X02691Y0157*
X02632Y01629D02*
X02691Y0157D01*
X01288Y02231D02*
X01321D01*
X01288Y0217D02*
Y02231D01*
Y0217D02*
X01321D01*
Y02231*
X02361Y02721D02*
X02394D01*
Y02782*
X02361D02*
X02394D01*
X02361Y02721D02*
Y02782D01*
X02705Y01749D02*
X02739D01*
X02705Y01687D02*
Y01749D01*
Y01687D02*
X02739D01*
Y01749*
X02201Y02752D02*
X02239Y0279D01*
X02201Y02752D02*
X0226Y02694D01*
X02297Y02731*
X02239Y0279D02*
X02297Y02731D01*
X02143Y02378D02*
X0218Y02415D01*
X02143Y02378D02*
X02201Y02319D01*
X02239Y02357*
X0218Y02415D02*
X02239Y02357D01*
X01522Y01895D02*
X0156Y01857D01*
X01618Y01915*
X01581Y01953D02*
X01618Y01915D01*
X01522Y01895D02*
X01581Y01953D01*
X02605Y01128D02*
X02643Y01166D01*
X02605Y01128D02*
X02663Y0107D01*
X02701Y01107*
X02643Y01166D02*
X02701Y01107D01*
X02065Y02288D02*
X02099D01*
Y02349*
X02065D02*
X02099D01*
X02065Y02288D02*
Y02349D01*
X01701Y01802D02*
X01734D01*
Y01863*
X01701D02*
X01734D01*
X01701Y01802D02*
Y01863D01*
X02445Y01121D02*
Y01154D01*
Y01121D02*
X02506D01*
Y01154*
X02445D02*
X02506D01*
X03268Y01052D02*
X03427Y01263D01*
X03139Y0115D02*
X03268Y01052D01*
X03139Y0115D02*
X03298Y0136D01*
X03427Y01263*
X03362Y02091D02*
X034Y02053D01*
X03304Y02032D02*
X03362Y02091D01*
X03304Y02032D02*
X03341Y01995D01*
X034Y02053*
X04583Y01591D02*
X04621Y01629D01*
X04583Y01591D02*
X04642Y01532D01*
X04679Y0157*
X04621Y01629D02*
X04679Y0157D01*
X03276Y02231D02*
X0331D01*
X03276Y0217D02*
Y02231D01*
Y0217D02*
X0331D01*
Y02231*
X04349Y02721D02*
X04382D01*
Y02782*
X04349D02*
X04382D01*
X04349Y02721D02*
Y02782D01*
X04693Y01749D02*
X04727D01*
X04693Y01687D02*
Y01749D01*
Y01687D02*
X04727D01*
Y01749*
X04189Y02752D02*
X04227Y0279D01*
X04189Y02752D02*
X04248Y02694D01*
X04285Y02731*
X04227Y0279D02*
X04285Y02731D01*
X04131Y02378D02*
X04168Y02415D01*
X04131Y02378D02*
X04189Y02319D01*
X04227Y02357*
X04168Y02415D02*
X04227Y02357D01*
X03511Y01895D02*
X03548Y01857D01*
X03607Y01915*
X03569Y01953D02*
X03607Y01915D01*
X03511Y01895D02*
X03569Y01953D01*
X04593Y01128D02*
X04631Y01166D01*
X04593Y01128D02*
X04652Y0107D01*
X04689Y01107*
X04631Y01166D02*
X04689Y01107D01*
X04054Y02288D02*
X04087D01*
Y02349*
X04054D02*
X04087D01*
X04054Y02288D02*
Y02349D01*
X03689Y01802D02*
X03722D01*
Y01863*
X03689D02*
X03722D01*
X03689Y01802D02*
Y01863D01*
X04434Y01121D02*
Y01154D01*
Y01121D02*
X04495D01*
Y01154*
X04434D02*
X04495D01*
X0128Y03041D02*
X01439Y03251D01*
X01151Y03138D02*
X0128Y03041D01*
X01151Y03138D02*
X0131Y03348D01*
X01439Y03251*
X01374Y04079D02*
X01412Y04041D01*
X01316Y04021D02*
X01374Y04079D01*
X01316Y04021D02*
X01353Y03983D01*
X01412Y04041*
X02595Y03579D02*
X02632Y03617D01*
X02595Y03579D02*
X02653Y03521D01*
X02691Y03558*
X02632Y03617D02*
X02691Y03558D01*
X01288Y04219D02*
X01321D01*
X01288Y04158D02*
Y04219D01*
Y04158D02*
X01321D01*
Y04219*
X02361Y04709D02*
X02394D01*
Y0477*
X02361D02*
X02394D01*
X02361Y04709D02*
Y0477D01*
X02705Y03737D02*
X02739D01*
X02705Y03676D02*
Y03737D01*
Y03676D02*
X02739D01*
Y03737*
X02201Y04741D02*
X02239Y04778D01*
X02201Y04741D02*
X0226Y04682D01*
X02297Y0472*
X02239Y04778D02*
X02297Y0472D01*
X02143Y04366D02*
X0218Y04404D01*
X02143Y04366D02*
X02201Y04307D01*
X02239Y04345*
X0218Y04404D02*
X02239Y04345D01*
X01522Y03883D02*
X0156Y03845D01*
X01618Y03904*
X01581Y03941D02*
X01618Y03904D01*
X01522Y03883D02*
X01581Y03941D01*
X02605Y03116D02*
X02643Y03154D01*
X02605Y03116D02*
X02663Y03058D01*
X02701Y03095*
X02643Y03154D02*
X02701Y03095D01*
X02065Y04276D02*
X02099D01*
Y04337*
X02065D02*
X02099D01*
X02065Y04276D02*
Y04337D01*
X01701Y0379D02*
X01734D01*
Y03851*
X01701D02*
X01734D01*
X01701Y0379D02*
Y03851D01*
X02445Y03109D02*
Y03142D01*
Y03109D02*
X02506D01*
Y03142*
X02445D02*
X02506D01*
X03268Y03041D02*
X03427Y03251D01*
X03139Y03138D02*
X03268Y03041D01*
X03139Y03138D02*
X03298Y03348D01*
X03427Y03251*
X03362Y04079D02*
X034Y04041D01*
X03304Y04021D02*
X03362Y04079D01*
X03304Y04021D02*
X03341Y03983D01*
X034Y04041*
X04583Y03579D02*
X04621Y03617D01*
X04583Y03579D02*
X04642Y03521D01*
X04679Y03558*
X04621Y03617D02*
X04679Y03558D01*
X03276Y04219D02*
X0331D01*
X03276Y04158D02*
Y04219D01*
Y04158D02*
X0331D01*
Y04219*
X04349Y04709D02*
X04382D01*
Y0477*
X04349D02*
X04382D01*
X04349Y04709D02*
Y0477D01*
X04693Y03737D02*
X04727D01*
X04693Y03676D02*
Y03737D01*
Y03676D02*
X04727D01*
Y03737*
X04189Y04741D02*
X04227Y04778D01*
X04189Y04741D02*
X04248Y04682D01*
X04285Y0472*
X04227Y04778D02*
X04285Y0472D01*
X04131Y04366D02*
X04168Y04404D01*
X04131Y04366D02*
X04189Y04307D01*
X04227Y04345*
X04168Y04404D02*
X04227Y04345D01*
X03511Y03883D02*
X03548Y03845D01*
X03607Y03904*
X03569Y03941D02*
X03607Y03904D01*
X03511Y03883D02*
X03569Y03941D01*
X04593Y03116D02*
X04631Y03154D01*
X04593Y03116D02*
X04652Y03058D01*
X04689Y03095*
X04631Y03154D02*
X04689Y03095D01*
X04054Y04276D02*
X04087D01*
Y04337*
X04054D02*
X04087D01*
X04054Y04276D02*
Y04337D01*
X03689Y0379D02*
X03722D01*
Y03851*
X03689D02*
X03722D01*
X03689Y0379D02*
Y03851D01*
X04434Y03109D02*
Y03142D01*
Y03109D02*
X04495D01*
Y03142*
X04434D02*
X04495D01*
M02*