%FSTAX23Y23*%
%MOIN*%
%SFA1B1*%

%IPPOS*%
%AMD11*
4,1,4,0.015300,-0.028700,0.031800,-0.006800,-0.015300,0.028700,-0.031800,0.006800,0.015300,-0.028700,0.0*
%
%AMD12*
4,1,4,0.000700,-0.025100,0.024300,0.006200,-0.000700,0.025100,-0.024300,-0.006200,0.000700,-0.025100,0.0*
%
%AMD15*
4,1,4,0.000000,0.033400,-0.033400,0.000000,0.000000,-0.033400,0.033400,0.000000,0.000000,0.033400,0.0*
%
%AMD16*
4,1,4,-0.033400,0.000000,0.000000,-0.033400,0.033400,0.000000,0.000000,0.033400,-0.033400,0.000000,0.0*
%
G04~CAMADD=11~9~0.0~0.0~275.6~590.6~0.0~0.0~0~0.0~0.0~0.0~0.0~0~0.0~0.0~0.0~0.0~0~0.0~0.0~0.0~233.0~636.0~573.0*
%ADD11D11*%
G04~CAMADD=12~9~0.0~0.0~393.7~315.0~0.0~0.0~0~0.0~0.0~0.0~0.0~0~0.0~0.0~0.0~0.0~0~0.0~0.0~0.0~233.0~486.0~501.0*
%ADD12D12*%
%ADD13R,0.037880X0.036810*%
G04~CAMADD=15~10~0.0~472.4~0.0~0.0~0.0~0.0~0~0.0~0.0~0.0~0.0~0~0.0~0.0~0.0~0.0~0~0.0~0.0~0.0~405.0~472.4~0.0*
%ADD15D15*%
G04~CAMADD=16~10~0.0~472.4~0.0~0.0~0.0~0.0~0~0.0~0.0~0.0~0.0~0~0.0~0.0~0.0~0.0~0~0.0~0.0~0.0~135.0~472.4~0.0*
%ADD16D16*%
%ADD17R,0.036810X0.037880*%
%ADD23C,0.035430*%
%ADD27R,0.163910X0.163910*%
%ADD28R,0.086740X0.165480*%
%ADD29C,0.027690*%
%ADD30C,0.100520*%
%ADD31R,0.100520X0.100520*%
%ADD32C,0.058000*%
%LNpcb_panel_v3-1*%
%LPD*%
G54D11*
X01356Y01124D03*
X0132Y01076D03*
X01427Y01218D03*
X03344Y01124D03*
X03308Y01076D03*
X03415Y01218D03*
X01356Y03112D03*
X0132Y03065D03*
X01427Y03206D03*
X03344Y03112D03*
X03308Y03065D03*
X03415Y03206D03*
G54D12*
X01435Y0128D03*
X01262Y01051D03*
X01374Y01326D03*
X01201Y01097D03*
X03423Y0128D03*
X0325Y01051D03*
X03363Y01326D03*
X0319Y01097D03*
X01435Y03269D03*
X01262Y03039D03*
X01374Y03314D03*
X01201Y03085D03*
X03423Y03269D03*
X0325Y03039D03*
X03363Y03314D03*
X0319Y03085D03*
G54D13*
X02722Y01746D03*
Y0169D03*
X02082Y02347D03*
Y0229D03*
X01717Y01861D03*
Y01804D03*
X01305Y02172D03*
Y02228D03*
X02377Y0278D03*
Y02723D03*
X0471Y01746D03*
Y0169D03*
X0407Y02347D03*
Y0229D03*
X03706Y01861D03*
Y01804D03*
X03293Y02172D03*
Y02228D03*
X04366Y0278D03*
Y02723D03*
X02722Y03734D03*
Y03678D03*
X02082Y04335D03*
Y04278D03*
X01717Y03849D03*
Y03793D03*
X01305Y0416D03*
Y04217D03*
X02377Y04768D03*
Y04711D03*
X0471Y03734D03*
Y03678D03*
X0407Y04335D03*
Y04278D03*
X03706Y03849D03*
Y03793D03*
X03293Y0416D03*
Y04217D03*
X04366Y04768D03*
Y04711D03*
G54D15*
X02278Y02713D03*
X0222Y02771D03*
Y02338D03*
X02162Y02397D03*
X02682Y01088D03*
X02624Y01147D03*
X02672Y01551D03*
X02614Y0161D03*
X04267Y02713D03*
X04208Y02771D03*
Y02338D03*
X0415Y02397D03*
X0467Y01088D03*
X04612Y01147D03*
X0466Y01551D03*
X04602Y0161D03*
X02278Y04701D03*
X0222Y04759D03*
Y04326D03*
X02162Y04385D03*
X02682Y03077D03*
X02624Y03135D03*
X02672Y03539D03*
X02614Y03598D03*
X04267Y04701D03*
X04208Y04759D03*
Y04326D03*
X0415Y04385D03*
X0467Y03077D03*
X04612Y03135D03*
X0466Y03539D03*
X04602Y03598D03*
G54D16*
X016Y01934D03*
X01541Y01876D03*
X01334Y02014D03*
X01393Y02072D03*
X03588Y01934D03*
X03529Y01876D03*
X03323Y02014D03*
X03381Y02072D03*
X016Y03922D03*
X01541Y03864D03*
X01334Y04002D03*
X01393Y0406D03*
X03588Y03922D03*
X03529Y03864D03*
X03323Y04002D03*
X03381Y0406D03*
G54D17*
X02504Y01137D03*
X02448D03*
X04492D03*
X04436D03*
X02504Y03125D03*
X02448D03*
X04492D03*
X04436D03*
G54D23*
X01354Y01236D03*
X01283Y01141D03*
X03342Y01236D03*
X03271Y01141D03*
X01354Y03224D03*
X01283Y0313D03*
X03342Y03224D03*
X03271Y0313D03*
G54D27*
X01944Y01236D03*
X03933D03*
X01944Y03224D03*
X03933D03*
G54D28*
X02003Y01807D03*
Y02007D03*
X01885Y01807D03*
Y02007D03*
X0283Y02085D03*
Y01885D03*
X01059Y01902D03*
Y02102D03*
X03992Y01807D03*
Y02007D03*
X03874Y01807D03*
Y02007D03*
X04818Y02085D03*
Y01885D03*
X03047Y01902D03*
Y02102D03*
X02003Y03795D03*
Y03995D03*
X01885Y03795D03*
Y03995D03*
X0283Y04074D03*
Y03874D03*
X01059Y0389D03*
Y0409D03*
X03992Y03795D03*
Y03995D03*
X03874Y03795D03*
Y03995D03*
X04818Y04074D03*
Y03874D03*
X03047Y0389D03*
Y0409D03*
G54D29*
X02906Y01943D03*
Y01973D03*
Y02003D03*
Y02033D03*
X02976D03*
Y01973D03*
Y01943D03*
Y02003D03*
X02979Y04028D03*
Y03998D03*
Y03968D03*
Y03938D03*
X02909D03*
Y03998D03*
Y04028D03*
Y03968D03*
X0453Y029D03*
X045D03*
X0447D03*
X0444D03*
Y0297D03*
X045D03*
X0453D03*
X0447D03*
X036D03*
X0366D03*
X0363D03*
X0357D03*
Y029D03*
X036D03*
X0363D03*
X0366D03*
X0235Y0297D03*
X0238D03*
X0241D03*
X0244D03*
Y029D03*
X0238D03*
X0235D03*
X0241D03*
X0154D03*
X0148D03*
X0151D03*
X0157D03*
Y0297D03*
X0154D03*
X0151D03*
X0148D03*
X02294Y02494D03*
X02276Y02518D03*
X02257Y02541D03*
X0224Y02564D03*
X02223Y02587D03*
X01721Y02545D03*
X01703Y02522D03*
X01686Y02499D03*
X01669Y02476D03*
X0165Y02454D03*
X02169Y02537D03*
X02187Y02514D03*
X02204Y02491D03*
X02221Y02468D03*
X0224Y02446D03*
X01598Y02491D03*
X01616Y02515D03*
X01635Y02538D03*
X01652Y02561D03*
X01669Y02584D03*
X04282Y02494D03*
X04264Y02518D03*
X04245Y02541D03*
X04228Y02564D03*
X04211Y02587D03*
X03709Y02545D03*
X03691Y02522D03*
X03674Y02499D03*
X03657Y02476D03*
X03638Y02454D03*
X04157Y02537D03*
X04175Y02514D03*
X04192Y02491D03*
X04209Y02468D03*
X04228Y02446D03*
X03586Y02491D03*
X03604Y02515D03*
X03623Y02538D03*
X0364Y02561D03*
X03657Y02584D03*
X02294Y04483D03*
X02276Y04507D03*
X02257Y0453D03*
X0224Y04553D03*
X02223Y04576D03*
X01721Y04533D03*
X01703Y0451D03*
X01686Y04487D03*
X01669Y04464D03*
X0165Y04442D03*
X02169Y04526D03*
X02187Y04503D03*
X02204Y0448D03*
X02221Y04457D03*
X0224Y04435D03*
X01598Y04479D03*
X01616Y04503D03*
X01635Y04526D03*
X01652Y04549D03*
X01669Y04572D03*
X04282Y04483D03*
X04264Y04507D03*
X04245Y0453D03*
X04228Y04553D03*
X04211Y04576D03*
X03709Y04533D03*
X03691Y0451D03*
X03674Y04487D03*
X03657Y04464D03*
X03638Y04442D03*
X04157Y04526D03*
X04175Y04503D03*
X04192Y0448D03*
X04209Y04457D03*
X04228Y04435D03*
X03586Y04479D03*
X03604Y04503D03*
X03623Y04526D03*
X0364Y04549D03*
X03657Y04572D03*
G54D30*
X01684Y01236D03*
X03673D03*
X01684Y03224D03*
X03673D03*
G54D31*
X02204Y01236D03*
X04193D03*
X02204Y03224D03*
X04193D03*
G54D32*
X01885Y02149D03*
X02112Y01679D03*
Y02131D03*
X01777Y01679D03*
Y02122D03*
X01236Y02446D03*
X01068Y01718D03*
X0283Y01501D03*
X02811Y0225D03*
X03874Y02149D03*
X041Y01679D03*
Y02131D03*
X03765Y01679D03*
Y02122D03*
X03224Y02446D03*
X03057Y01718D03*
X04818Y01501D03*
X04799Y0225D03*
X01885Y04137D03*
X02112Y03667D03*
Y0412D03*
X01777Y03667D03*
Y0411D03*
X01236Y04435D03*
X01068Y03706D03*
X0283Y0349D03*
X02811Y04238D03*
X03874Y04137D03*
X041Y03667D03*
Y0412D03*
X03765Y03667D03*
Y0411D03*
X03224Y04435D03*
X03057Y03706D03*
X04818Y0349D03*
X04799Y04238D03*
M02*