%FSTAX23Y23*%
%MOIN*%
%SFA1B1*%

%IPPOS*%
%AMD15*
4,1,4,0.000000,0.033400,-0.033400,0.000000,0.000000,-0.033400,0.033400,0.000000,0.000000,0.033400,0.0*
%
%AMD16*
4,1,4,-0.033400,0.000000,0.000000,-0.033400,0.033400,0.000000,0.000000,0.033400,-0.033400,0.000000,0.0*
%
%ADD13R,0.037880X0.036810*%
G04~CAMADD=15~10~0.0~472.4~0.0~0.0~0.0~0.0~0~0.0~0.0~0.0~0.0~0~0.0~0.0~0.0~0.0~0~0.0~0.0~0.0~405.0~472.4~0.0*
%ADD15D15*%
G04~CAMADD=16~10~0.0~472.4~0.0~0.0~0.0~0.0~0~0.0~0.0~0.0~0.0~0~0.0~0.0~0.0~0.0~0~0.0~0.0~0.0~135.0~472.4~0.0*
%ADD16D16*%
%ADD17R,0.036810X0.037880*%
%ADD23C,0.035430*%
%ADD28R,0.086740X0.165480*%
%ADD29C,0.027690*%
%ADD30C,0.100520*%
%ADD31R,0.100520X0.100520*%
%ADD32C,0.058000*%
%LNpcb_panel_v3-1*%
%LPD*%
G54D13*
X01098Y01551D03*
Y01494D03*
X02181Y02012D03*
Y01956D03*
X01787Y02271D03*
Y02327D03*
X03086Y01551D03*
Y01494D03*
X04169Y02012D03*
Y01956D03*
X03775Y02271D03*
Y02327D03*
X01098Y03539D03*
Y03483D03*
X02181Y04D03*
Y03944D03*
X01787Y04259D03*
Y04315D03*
X03086Y03539D03*
Y03483D03*
X04169Y04D03*
Y03944D03*
X03775Y04259D03*
Y04315D03*
G54D15*
X02525Y02092D03*
X02584Y02033D03*
X02289Y01934D03*
X02348Y01876D03*
X04514Y02092D03*
X04572Y02033D03*
X04277Y01934D03*
X04336Y01876D03*
X02525Y0408D03*
X02584Y04021D03*
X02289Y03922D03*
X02348Y03864D03*
X04514Y0408D03*
X04572Y04021D03*
X04277Y03922D03*
X04336Y03864D03*
G54D16*
X01433Y01334D03*
X01491Y01393D03*
X01099Y01354D03*
X01157Y01413D03*
X01669Y02731D03*
X0161Y02673D03*
X01679Y02348D03*
X01737Y02407D03*
X03421Y01334D03*
X0348Y01393D03*
X03087Y01354D03*
X03145Y01413D03*
X03657Y02731D03*
X03598Y02673D03*
X03667Y02348D03*
X03726Y02407D03*
X01433Y03323D03*
X01491Y03381D03*
X01099Y03343D03*
X01157Y03401D03*
X01669Y0472D03*
X0161Y04661D03*
X01679Y04336D03*
X01737Y04395D03*
X03421Y03323D03*
X0348Y03381D03*
X03087Y03343D03*
X03145Y03401D03*
X03657Y0472D03*
X03598Y04661D03*
X03667Y04336D03*
X03726Y04395D03*
G54D17*
X01608Y01501D03*
X01552D03*
X01483Y02781D03*
X01539D03*
X02681Y02161D03*
X02625D03*
X03597Y01501D03*
X0354D03*
X03471Y02781D03*
X03528D03*
X04669Y02161D03*
X04613D03*
X01608Y0349D03*
X01552D03*
X01483Y04769D03*
X01539D03*
X02681Y04149D03*
X02625D03*
X03597Y0349D03*
X0354D03*
X03471Y04769D03*
X03528D03*
X04669Y04149D03*
X04613D03*
G54D23*
X01354Y01236D03*
X01283Y01141D03*
X03342Y01236D03*
X03271Y01141D03*
X01354Y03224D03*
X01283Y0313D03*
X03342Y03224D03*
X03271Y0313D03*
G54D28*
X01059Y02105D03*
Y01905D03*
X0283Y02085D03*
Y01885D03*
X01885Y01803D03*
Y02003D03*
X02003Y01807D03*
Y02007D03*
X03047Y02105D03*
Y01905D03*
X04818Y02085D03*
Y01885D03*
X03874Y01803D03*
Y02003D03*
X03992Y01807D03*
Y02007D03*
X01059Y04093D03*
Y03893D03*
X0283Y04074D03*
Y03874D03*
X01885Y03792D03*
Y03992D03*
X02003Y03795D03*
Y03995D03*
X03047Y04093D03*
Y03893D03*
X04818Y04074D03*
Y03874D03*
X03874Y03792D03*
Y03992D03*
X03992Y03795D03*
Y03995D03*
G54D29*
X02906Y01943D03*
Y01973D03*
Y02003D03*
Y02033D03*
X02976D03*
Y01973D03*
Y01943D03*
Y02003D03*
X02979Y04028D03*
Y03998D03*
Y03968D03*
Y03938D03*
X02909D03*
Y03998D03*
Y04028D03*
Y03968D03*
X0453Y029D03*
X045D03*
X0447D03*
X0444D03*
Y0297D03*
X045D03*
X0453D03*
X0447D03*
X036D03*
X0366D03*
X0363D03*
X0357D03*
Y029D03*
X036D03*
X0363D03*
X0366D03*
X0235Y0297D03*
X0238D03*
X0241D03*
X0244D03*
Y029D03*
X0238D03*
X0235D03*
X0241D03*
X0154D03*
X0148D03*
X0151D03*
X0157D03*
Y0297D03*
X0154D03*
X0151D03*
X0148D03*
X02294Y02494D03*
X02276Y02518D03*
X02257Y02541D03*
X0224Y02564D03*
X02223Y02587D03*
X01721Y02545D03*
X01703Y02522D03*
X01686Y02499D03*
X01669Y02476D03*
X0165Y02454D03*
X02169Y02537D03*
X02187Y02514D03*
X02204Y02491D03*
X02221Y02468D03*
X0224Y02446D03*
X01598Y02491D03*
X01616Y02515D03*
X01635Y02538D03*
X01652Y02561D03*
X01669Y02584D03*
X04282Y02494D03*
X04264Y02518D03*
X04245Y02541D03*
X04228Y02564D03*
X04211Y02587D03*
X03709Y02545D03*
X03691Y02522D03*
X03674Y02499D03*
X03657Y02476D03*
X03638Y02454D03*
X04157Y02537D03*
X04175Y02514D03*
X04192Y02491D03*
X04209Y02468D03*
X04228Y02446D03*
X03586Y02491D03*
X03604Y02515D03*
X03623Y02538D03*
X0364Y02561D03*
X03657Y02584D03*
X02294Y04483D03*
X02276Y04507D03*
X02257Y0453D03*
X0224Y04553D03*
X02223Y04576D03*
X01721Y04533D03*
X01703Y0451D03*
X01686Y04487D03*
X01669Y04464D03*
X0165Y04442D03*
X02169Y04526D03*
X02187Y04503D03*
X02204Y0448D03*
X02221Y04457D03*
X0224Y04435D03*
X01598Y04479D03*
X01616Y04503D03*
X01635Y04526D03*
X01652Y04549D03*
X01669Y04572D03*
X04282Y04483D03*
X04264Y04507D03*
X04245Y0453D03*
X04228Y04553D03*
X04211Y04576D03*
X03709Y04533D03*
X03691Y0451D03*
X03674Y04487D03*
X03657Y04464D03*
X03638Y04442D03*
X04157Y04526D03*
X04175Y04503D03*
X04192Y0448D03*
X04209Y04457D03*
X04228Y04435D03*
X03586Y04479D03*
X03604Y04503D03*
X03623Y04526D03*
X0364Y04549D03*
X03657Y04572D03*
G54D30*
X01684Y01236D03*
X03673D03*
X01684Y03224D03*
X03673D03*
G54D31*
X02204Y01236D03*
X04193D03*
X02204Y03224D03*
X04193D03*
G54D32*
X01885Y02149D03*
X02112Y01679D03*
Y02131D03*
X01777Y01679D03*
Y02122D03*
X01236Y02446D03*
X01068Y01718D03*
X0283Y01501D03*
X02811Y0225D03*
X03874Y02149D03*
X041Y01679D03*
Y02131D03*
X03765Y01679D03*
Y02122D03*
X03224Y02446D03*
X03057Y01718D03*
X04818Y01501D03*
X04799Y0225D03*
X01885Y04137D03*
X02112Y03667D03*
Y0412D03*
X01777Y03667D03*
Y0411D03*
X01236Y04435D03*
X01068Y03706D03*
X0283Y0349D03*
X02811Y04238D03*
X03874Y04137D03*
X041Y03667D03*
Y0412D03*
X03765Y03667D03*
Y0411D03*
X03224Y04435D03*
X03057Y03706D03*
X04818Y0349D03*
X04799Y04238D03*
M02*