%FSTAX23Y23*%
%MOIN*%
%SFA1B1*%

%IPPOS*%
%ADD19C,0.000000*%
%ADD25C,0.009840*%
%ADD26C,0.039370*%
%LNpcb_panel_v3-1*%
%LPD*%
G54D19*
X0146Y01307D02*
X01518Y01366D01*
X01406Y01362D02*
X01464Y0142D01*
X01551Y01537D02*
X0161D01*
X01551Y01464D02*
X0161D01*
X01Y02299D02*
X01157D01*
X02624Y02196D02*
X02683D01*
X02316Y01961D02*
X02375Y01903D01*
X02262Y01907D02*
X0232Y01849D01*
X01652Y02375D02*
X0171Y02434D01*
X01706Y02321D02*
X01765Y0238D01*
X01963Y01707D02*
X02063D01*
Y02107*
X01963D02*
X02063D01*
X01825Y01703D02*
X01925D01*
X01825D02*
Y02103D01*
X01925*
X02218Y01954D02*
Y02013D01*
X02145Y01954D02*
Y02013D01*
X0175Y02269D02*
Y02328D01*
X01822Y02269D02*
Y02328D01*
X01071Y01382D02*
X0113Y0144D01*
X01126Y01327D02*
X01184Y01386D01*
X01637Y02646D02*
X01696Y02704D01*
X01583Y027D02*
X01641Y02759D01*
X02553Y02119D02*
X02611Y0206D01*
X02498Y02065D02*
X02557Y02006D01*
X01019Y02205D02*
X01119D01*
Y01805D02*
Y02205D01*
X01019Y01805D02*
X01119D01*
X0277Y02185D02*
X0287D01*
X0277Y01785D02*
Y02185D01*
Y01785D02*
X0287D01*
X01135Y01493D02*
Y01552D01*
X01062Y01493D02*
Y01552D01*
X01482Y02818D02*
X01541D01*
X01482Y02746D02*
X01541D01*
X02624Y02124D02*
X02683D01*
X01046Y01006D02*
X0284Y01D01*
X02889Y02889D02*
X0289Y01074D01*
X02003Y02889D02*
X02889D01*
X01157Y02299D02*
Y02889D01*
X03448Y01307D02*
X03507Y01366D01*
X03394Y01362D02*
X03452Y0142D01*
X03539Y01537D02*
X03598D01*
X03539Y01464D02*
X03598D01*
X02988Y02299D02*
X03145D01*
X04612Y02196D02*
X04671D01*
X04305Y01961D02*
X04363Y01903D01*
X0425Y01907D02*
X04309Y01849D01*
X0364Y02375D02*
X03698Y02434D01*
X03694Y02321D02*
X03753Y0238D01*
X03952Y01707D02*
X04052D01*
Y02107*
X03952D02*
X04052D01*
X03814Y01703D02*
X03914D01*
X03814D02*
Y02103D01*
X03914*
X04206Y01954D02*
Y02013D01*
X04133Y01954D02*
Y02013D01*
X03738Y02269D02*
Y02328D01*
X03811Y02269D02*
Y02328D01*
X0306Y01382D02*
X03118Y0144D01*
X03114Y01327D02*
X03172Y01386D01*
X03625Y02646D02*
X03684Y02704D01*
X03571Y027D02*
X0363Y02759D01*
X04541Y02119D02*
X04599Y0206D01*
X04486Y02065D02*
X04545Y02006D01*
X03007Y02205D02*
X03107D01*
Y01805D02*
Y02205D01*
X03007Y01805D02*
X03107D01*
X04758Y02185D02*
X04858D01*
X04758Y01785D02*
Y02185D01*
Y01785D02*
X04858D01*
X03124Y01493D02*
Y01552D01*
X03051Y01493D02*
Y01552D01*
X0347Y02818D02*
X03529D01*
X0347Y02746D02*
X03529D01*
X04612Y02124D02*
X04671D01*
X03034Y01006D02*
X04828Y01D01*
X04877Y02889D02*
X04878Y01074D01*
X03992Y02889D02*
X04877D01*
X03145Y02299D02*
Y02889D01*
X0146Y03295D02*
X01518Y03354D01*
X01406Y0335D02*
X01464Y03408D01*
X01551Y03525D02*
X0161D01*
X01551Y03452D02*
X0161D01*
X01Y04287D02*
X01157D01*
X02624Y04185D02*
X02683D01*
X02316Y0395D02*
X02375Y03891D01*
X02262Y03895D02*
X0232Y03837D01*
X01652Y04364D02*
X0171Y04422D01*
X01706Y04309D02*
X01765Y04368D01*
X01963Y03695D02*
X02063D01*
Y04095*
X01963D02*
X02063D01*
X01825Y03692D02*
X01925D01*
X01825D02*
Y04092D01*
X01925*
X02218Y03942D02*
Y04001D01*
X02145Y03942D02*
Y04001D01*
X0175Y04257D02*
Y04316D01*
X01822Y04257D02*
Y04316D01*
X01071Y0337D02*
X0113Y03428D01*
X01126Y03315D02*
X01184Y03374D01*
X01637Y04634D02*
X01696Y04693D01*
X01583Y04688D02*
X01641Y04747D01*
X02553Y04107D02*
X02611Y04049D01*
X02498Y04053D02*
X02557Y03994D01*
X01019Y04193D02*
X01119D01*
Y03793D02*
Y04193D01*
X01019Y03793D02*
X01119D01*
X0277Y04174D02*
X0287D01*
X0277Y03774D02*
Y04174D01*
Y03774D02*
X0287D01*
X01135Y03481D02*
Y0354D01*
X01062Y03481D02*
Y0354D01*
X01482Y04807D02*
X01541D01*
X01482Y04734D02*
X01541D01*
X02624Y04112D02*
X02683D01*
X01046Y02994D02*
X0284Y02988D01*
X02889Y04877D02*
X0289Y03063D01*
X02003Y04877D02*
X02889D01*
X01157Y04287D02*
Y04877D01*
X03448Y03295D02*
X03507Y03354D01*
X03394Y0335D02*
X03452Y03408D01*
X03539Y03525D02*
X03598D01*
X03539Y03452D02*
X03598D01*
X02988Y04287D02*
X03145D01*
X04612Y04185D02*
X04671D01*
X04305Y0395D02*
X04363Y03891D01*
X0425Y03895D02*
X04309Y03837D01*
X0364Y04364D02*
X03698Y04422D01*
X03694Y04309D02*
X03753Y04368D01*
X03952Y03695D02*
X04052D01*
Y04095*
X03952D02*
X04052D01*
X03814Y03692D02*
X03914D01*
X03814D02*
Y04092D01*
X03914*
X04206Y03942D02*
Y04001D01*
X04133Y03942D02*
Y04001D01*
X03738Y04257D02*
Y04316D01*
X03811Y04257D02*
Y04316D01*
X0306Y0337D02*
X03118Y03428D01*
X03114Y03315D02*
X03172Y03374D01*
X03625Y04634D02*
X03684Y04693D01*
X03571Y04688D02*
X0363Y04747D01*
X04541Y04107D02*
X04599Y04049D01*
X04486Y04053D02*
X04545Y03994D01*
X03007Y04193D02*
X03107D01*
Y03793D02*
Y04193D01*
X03007Y03793D02*
X03107D01*
X04758Y04174D02*
X04858D01*
X04758Y03774D02*
Y04174D01*
Y03774D02*
X04858D01*
X03124Y03481D02*
Y0354D01*
X03051Y03481D02*
Y0354D01*
X0347Y04807D02*
X03529D01*
X0347Y04734D02*
X03529D01*
X04612Y04112D02*
X04671D01*
X03034Y02994D02*
X04828Y02988D01*
X04877Y04877D02*
X04878Y03063D01*
X03992Y04877D02*
X04877D01*
X03145Y04287D02*
Y04877D01*
G54D25*
X01405Y01302D02*
D01*
D01*
G75*
G03X01395I-00004J0D01*
G74*G01*
D01*
G75*
G03X01405I00004J0D01*
G74*G01*
X01071Y01322D02*
D01*
D01*
G75*
G03X01061I-00004J0D01*
G74*G01*
D01*
G75*
G03X01071I00004J0D01*
G74*G01*
X01706Y02764D02*
D01*
D01*
G75*
G03X01696I-00004J0D01*
G74*G01*
D01*
G75*
G03X01706I00004J0D01*
G74*G01*
X02498Y02124D02*
D01*
D01*
G75*
G03X02488I-00004J0D01*
G74*G01*
D01*
G75*
G03X02498I00004J0D01*
G74*G01*
X01651Y02316D02*
D01*
D01*
G75*
G03X01641I-00004J0D01*
G74*G01*
D01*
G75*
G03X01651I00004J0D01*
G74*G01*
X02261Y01967D02*
D01*
D01*
G75*
G03X02252I-00004J0D01*
G74*G01*
D01*
G75*
G03X02261I00004J0D01*
G74*G01*
X03393Y01302D02*
D01*
D01*
G75*
G03X03383I-00004J0D01*
G74*G01*
D01*
G75*
G03X03393I00004J0D01*
G74*G01*
X03059Y01322D02*
D01*
D01*
G75*
G03X03049I-00004J0D01*
G74*G01*
D01*
G75*
G03X03059I00004J0D01*
G74*G01*
X03694Y02764D02*
D01*
D01*
G75*
G03X03684I-00004J0D01*
G74*G01*
D01*
G75*
G03X03694I00004J0D01*
G74*G01*
X04486Y02124D02*
D01*
D01*
G75*
G03X04476I-00004J0D01*
G74*G01*
D01*
G75*
G03X04486I00004J0D01*
G74*G01*
X03639Y02316D02*
D01*
D01*
G75*
G03X03629I-00004J0D01*
G74*G01*
D01*
G75*
G03X03639I00004J0D01*
G74*G01*
X0425Y01967D02*
D01*
D01*
G75*
G03X0424I-00004J0D01*
G74*G01*
D01*
G75*
G03X0425I00004J0D01*
G74*G01*
X01405Y0329D02*
D01*
D01*
G75*
G03X01395I-00004J0D01*
G74*G01*
D01*
G75*
G03X01405I00004J0D01*
G74*G01*
X01071Y0331D02*
D01*
D01*
G75*
G03X01061I-00004J0D01*
G74*G01*
D01*
G75*
G03X01071I00004J0D01*
G74*G01*
X01706Y04752D02*
D01*
D01*
G75*
G03X01696I-00004J0D01*
G74*G01*
D01*
G75*
G03X01706I00004J0D01*
G74*G01*
X02498Y04113D02*
D01*
D01*
G75*
G03X02488I-00004J0D01*
G74*G01*
D01*
G75*
G03X02498I00004J0D01*
G74*G01*
X01651Y04304D02*
D01*
D01*
G75*
G03X01641I-00004J0D01*
G74*G01*
D01*
G75*
G03X01651I00004J0D01*
G74*G01*
X02261Y03955D02*
D01*
D01*
G75*
G03X02252I-00004J0D01*
G74*G01*
D01*
G75*
G03X02261I00004J0D01*
G74*G01*
X03393Y0329D02*
D01*
D01*
G75*
G03X03383I-00004J0D01*
G74*G01*
D01*
G75*
G03X03393I00004J0D01*
G74*G01*
X03059Y0331D02*
D01*
D01*
G75*
G03X03049I-00004J0D01*
G74*G01*
D01*
G75*
G03X03059I00004J0D01*
G74*G01*
X03694Y04752D02*
D01*
D01*
G75*
G03X03684I-00004J0D01*
G74*G01*
D01*
G75*
G03X03694I00004J0D01*
G74*G01*
X04486Y04113D02*
D01*
D01*
G75*
G03X04476I-00004J0D01*
G74*G01*
D01*
G75*
G03X04486I00004J0D01*
G74*G01*
X03639Y04304D02*
D01*
D01*
G75*
G03X03629I-00004J0D01*
G74*G01*
D01*
G75*
G03X03639I00004J0D01*
G74*G01*
X0425Y03955D02*
D01*
D01*
G75*
G03X0424I-00004J0D01*
G74*G01*
D01*
G75*
G03X0425I00004J0D01*
G74*G01*
G54D26*
X01404Y02249D02*
X01571Y02468D01*
X01686Y0262D02*
X01893Y02893D01*
X01945Y02829D02*
X02146Y02569D01*
X01749Y02573D02*
X01945Y02829D01*
X01515Y02264D02*
X01634Y02422D01*
X02259Y02421D02*
X02378Y02268D01*
X02309Y01732D02*
X0284Y01003D01*
X02228Y02207D02*
X02499Y018D01*
X01393Y01796D02*
X01665Y02203D01*
X01049Y01003D02*
X0158Y01722D01*
X0219Y02263D02*
X02378Y02268D01*
X0219Y02263D02*
X02226Y0221D01*
X01515Y02264D02*
X01698Y02263D01*
X01665Y02203D02*
X01698Y02263D01*
X01393Y01796D02*
X01625Y01795D01*
X0158Y01722D02*
X01633Y01795D01*
X02267Y01787D02*
X02314Y01724D01*
X02255Y01803D02*
X02267Y01787D01*
X02255Y01803D02*
X02499Y018D01*
X01049Y01003D02*
X0284D01*
X02299Y01772D02*
X02318Y01795D01*
X01581Y01787D02*
X01606Y01767D01*
X01287Y01778D02*
X01558Y02186D01*
X01Y01066D02*
X01478Y01717D01*
X01Y01066D02*
Y02303D01*
X01157*
Y02893*
X01893*
X01996D02*
X02889D01*
Y01082D02*
Y02893D01*
X02415Y01721D02*
X02889Y01082D01*
X02415Y01721D02*
X02555Y0172D01*
X02334Y0219D02*
X02594Y01803D01*
X02322Y02472D02*
X02489Y02253D01*
X01996Y02893D02*
X02203Y0262D01*
X02334Y0219D02*
X02535Y02192D01*
X02489Y02253D02*
X02535Y02192D01*
X0249Y02207D02*
X02512Y02223D01*
X02594Y01803D02*
X02641Y01724D01*
X02543Y0172D02*
X02645Y01716D01*
X02543Y0172D02*
X02608Y01742D01*
X01366Y02196D02*
X01402Y02247D01*
X01358Y02181D02*
X01558Y02186D01*
X01389Y02208D02*
X01405Y02185D01*
X01251Y01724D02*
X01284Y01774D01*
X01244Y01712D02*
X01478Y01717D01*
X01299Y01723D02*
X01478Y01717D01*
X01275Y0174D02*
X01287Y0172D01*
X03392Y02249D02*
X03559Y02468D01*
X03674Y0262D02*
X03881Y02893D01*
X03933Y02829D02*
X04134Y02569D01*
X03737Y02573D02*
X03933Y02829D01*
X03503Y02264D02*
X03623Y02422D01*
X04248Y02421D02*
X04366Y02268D01*
X04297Y01732D02*
X04828Y01003D01*
X04216Y02207D02*
X04488Y018D01*
X03381Y01796D02*
X03653Y02203D01*
X03037Y01003D02*
X03568Y01722D01*
X04179Y02263D02*
X04366Y02268D01*
X04179Y02263D02*
X04215Y0221D01*
X03503Y02264D02*
X03687Y02263D01*
X03653Y02203D02*
X03687Y02263D01*
X03381Y01796D02*
X03614Y01795D01*
X03568Y01722D02*
X03622Y01795D01*
X04255Y01787D02*
X04303Y01724D01*
X04244Y01803D02*
X04255Y01787D01*
X04244Y01803D02*
X04488Y018D01*
X03037Y01003D02*
X04828D01*
X04287Y01772D02*
X04306Y01795D01*
X03569Y01787D02*
X03594Y01767D01*
X03275Y01778D02*
X03547Y02186D01*
X02988Y01066D02*
X03466Y01717D01*
X02988Y01066D02*
Y02303D01*
X03145*
Y02893*
X03881*
X03984D02*
X04877D01*
Y01082D02*
Y02893D01*
X04403Y01721D02*
X04877Y01082D01*
X04403Y01721D02*
X04543Y0172D01*
X04323Y0219D02*
X04582Y01803D01*
X0431Y02472D02*
X04477Y02253D01*
X03984Y02893D02*
X04191Y0262D01*
X04323Y0219D02*
X04523Y02192D01*
X04477Y02253D02*
X04523Y02192D01*
X04479Y02207D02*
X045Y02223D01*
X04582Y01803D02*
X04629Y01724D01*
X04531Y0172D02*
X04633Y01716D01*
X04531Y0172D02*
X04596Y01742D01*
X03354Y02196D02*
X0339Y02247D01*
X03346Y02181D02*
X03547Y02186D01*
X03377Y02208D02*
X03393Y02185D01*
X0324Y01724D02*
X03272Y01774D01*
X03232Y01712D02*
X03466Y01717D01*
X03288Y01723D02*
X03466Y01717D01*
X03263Y0174D02*
X03275Y0172D01*
X01404Y04237D02*
X01571Y04457D01*
X01686Y04608D02*
X01893Y04881D01*
X01945Y04817D02*
X02146Y04557D01*
X01749Y04561D02*
X01945Y04817D01*
X01515Y04253D02*
X01634Y0441D01*
X02259Y04409D02*
X02378Y04257D01*
X02309Y0372D02*
X0284Y02992D01*
X02228Y04195D02*
X02499Y03788D01*
X01393Y03784D02*
X01665Y04191D01*
X01049Y02992D02*
X0158Y0371D01*
X0219Y04251D02*
X02378Y04257D01*
X0219Y04251D02*
X02226Y04198D01*
X01515Y04253D02*
X01698Y04251D01*
X01665Y04191D02*
X01698Y04251D01*
X01393Y03784D02*
X01625Y03783D01*
X0158Y0371D02*
X01633Y03783D01*
X02267Y03775D02*
X02314Y03712D01*
X02255Y03791D02*
X02267Y03775D01*
X02255Y03791D02*
X02499Y03788D01*
X01049Y02992D02*
X0284D01*
X02299Y0376D02*
X02318Y03784D01*
X01581Y03775D02*
X01606Y03755D01*
X01287Y03767D02*
X01558Y04174D01*
X01Y03055D02*
X01478Y03705D01*
X01Y03055D02*
Y04291D01*
X01157*
Y04881*
X01893*
X01996D02*
X02889D01*
Y0307D02*
Y04881D01*
X02415Y03709D02*
X02889Y0307D01*
X02415Y03709D02*
X02555Y03708D01*
X02334Y04178D02*
X02594Y03791D01*
X02322Y04461D02*
X02489Y04241D01*
X01996Y04881D02*
X02203Y04608D01*
X02334Y04178D02*
X02535Y04181D01*
X02489Y04241D02*
X02535Y04181D01*
X0249Y04195D02*
X02512Y04211D01*
X02594Y03791D02*
X02641Y03712D01*
X02543Y03708D02*
X02645Y03704D01*
X02543Y03708D02*
X02608Y0373D01*
X01366Y04185D02*
X01402Y04235D01*
X01358Y04169D02*
X01558Y04174D01*
X01389Y04196D02*
X01405Y04173D01*
X01251Y03712D02*
X01284Y03762D01*
X01244Y037D02*
X01478Y03705D01*
X01299Y03711D02*
X01478Y03705D01*
X01275Y03728D02*
X01287Y03708D01*
X03392Y04237D02*
X03559Y04457D01*
X03674Y04608D02*
X03881Y04881D01*
X03933Y04817D02*
X04134Y04557D01*
X03737Y04561D02*
X03933Y04817D01*
X03503Y04253D02*
X03623Y0441D01*
X04248Y04409D02*
X04366Y04257D01*
X04297Y0372D02*
X04828Y02992D01*
X04216Y04195D02*
X04488Y03788D01*
X03381Y03784D02*
X03653Y04191D01*
X03037Y02992D02*
X03568Y0371D01*
X04179Y04251D02*
X04366Y04257D01*
X04179Y04251D02*
X04215Y04198D01*
X03503Y04253D02*
X03687Y04251D01*
X03653Y04191D02*
X03687Y04251D01*
X03381Y03784D02*
X03614Y03783D01*
X03568Y0371D02*
X03622Y03783D01*
X04255Y03775D02*
X04303Y03712D01*
X04244Y03791D02*
X04255Y03775D01*
X04244Y03791D02*
X04488Y03788D01*
X03037Y02992D02*
X04828D01*
X04287Y0376D02*
X04306Y03784D01*
X03569Y03775D02*
X03594Y03755D01*
X03275Y03767D02*
X03547Y04174D01*
X02988Y03055D02*
X03466Y03705D01*
X02988Y03055D02*
Y04291D01*
X03145*
Y04881*
X03881*
X03984D02*
X04877D01*
Y0307D02*
Y04881D01*
X04403Y03709D02*
X04877Y0307D01*
X04403Y03709D02*
X04543Y03708D01*
X04323Y04178D02*
X04582Y03791D01*
X0431Y04461D02*
X04477Y04241D01*
X03984Y04881D02*
X04191Y04608D01*
X04323Y04178D02*
X04523Y04181D01*
X04477Y04241D02*
X04523Y04181D01*
X04479Y04195D02*
X045Y04211D01*
X04582Y03791D02*
X04629Y03712D01*
X04531Y03708D02*
X04633Y03704D01*
X04531Y03708D02*
X04596Y0373D01*
X03354Y04185D02*
X0339Y04235D01*
X03346Y04169D02*
X03547Y04174D01*
X03377Y04196D02*
X03393Y04173D01*
X0324Y03712D02*
X03272Y03762D01*
X03232Y037D02*
X03466Y03705D01*
X03288Y03711D02*
X03466Y03705D01*
X03263Y03728D02*
X03275Y03708D01*
M02*