%FSTAX23Y23*%
%MOIN*%
%SFA1B1*%

%IPPOS*%
%ADD19C,0.000000*%
%LNpcb_panel_v3-1*%
%LPD*%
G54D19*
X01435Y01293D02*
X01532Y01391D01*
X01489Y01434D02*
X01532Y01391D01*
X01392Y01337D02*
X01489Y01434D01*
X01392Y01337D02*
X01435Y01293D01*
X01524Y0153D02*
X01637D01*
X01524Y01473D02*
Y0153D01*
Y01473D02*
X01637D01*
Y0153*
X02709Y02132D02*
Y0219D01*
X02597Y02132D02*
X02709D01*
X02597D02*
Y0219D01*
X02709*
X02248Y01932D02*
X02291Y01975D01*
X02389Y01878*
X02346Y01835D02*
X02389Y01878D01*
X02248Y01932D02*
X02346Y01835D01*
X01638Y0235D02*
X01681Y02307D01*
X01638Y0235D02*
X01735Y02448D01*
X01778Y02405*
X01681Y02307D02*
X01778Y02405D01*
X02152Y0204D02*
X02209D01*
Y01927D02*
Y0204D01*
X02152Y01927D02*
X02209D01*
X02152D02*
Y0204D01*
X01758Y02242D02*
X01816D01*
X01758D02*
Y02355D01*
X01816*
Y02242D02*
Y02355D01*
X01057Y01357D02*
X01101Y01313D01*
X01057Y01357D02*
X01155Y01454D01*
X01198Y01411*
X01101Y01313D02*
X01198Y01411D01*
X01666Y02773D02*
X0171Y02729D01*
X01612Y02632D02*
X0171Y02729D01*
X01569Y02675D02*
X01612Y02632D01*
X01569Y02675D02*
X01666Y02773D01*
X02484Y0209D02*
X02527Y02133D01*
X02625Y02035*
X02582Y01992D02*
X02625Y02035D01*
X02484Y0209D02*
X02582Y01992D01*
X01069Y01579D02*
X01127D01*
Y01466D02*
Y01579D01*
X01069Y01466D02*
X01127D01*
X01069D02*
Y01579D01*
X01455Y02752D02*
Y0281D01*
X01568*
Y02752D02*
Y0281D01*
X01455Y02752D02*
X01568D01*
X03423Y01293D02*
X03521Y01391D01*
X03477Y01434D02*
X03521Y01391D01*
X0338Y01337D02*
X03477Y01434D01*
X0338Y01337D02*
X03423Y01293D01*
X03512Y0153D02*
X03625D01*
X03512Y01473D02*
Y0153D01*
Y01473D02*
X03625D01*
Y0153*
X04698Y02132D02*
Y0219D01*
X04585Y02132D02*
X04698D01*
X04585D02*
Y0219D01*
X04698*
X04236Y01932D02*
X04279Y01975D01*
X04377Y01878*
X04334Y01835D02*
X04377Y01878D01*
X04236Y01932D02*
X04334Y01835D01*
X03626Y0235D02*
X03669Y02307D01*
X03626Y0235D02*
X03723Y02448D01*
X03767Y02405*
X03669Y02307D02*
X03767Y02405D01*
X0414Y0204D02*
X04198D01*
Y01927D02*
Y0204D01*
X0414Y01927D02*
X04198D01*
X0414D02*
Y0204D01*
X03746Y02242D02*
X03804D01*
X03746D02*
Y02355D01*
X03804*
Y02242D02*
Y02355D01*
X03046Y01357D02*
X03089Y01313D01*
X03046Y01357D02*
X03143Y01454D01*
X03186Y01411*
X03089Y01313D02*
X03186Y01411D01*
X03655Y02773D02*
X03698Y02729D01*
X036Y02632D02*
X03698Y02729D01*
X03557Y02675D02*
X036Y02632D01*
X03557Y02675D02*
X03655Y02773D01*
X04473Y0209D02*
X04516Y02133D01*
X04613Y02035*
X0457Y01992D02*
X04613Y02035D01*
X04473Y0209D02*
X0457Y01992D01*
X03057Y01579D02*
X03115D01*
Y01466D02*
Y01579D01*
X03057Y01466D02*
X03115D01*
X03057D02*
Y01579D01*
X03443Y02752D02*
Y0281D01*
X03556*
Y02752D02*
Y0281D01*
X03443Y02752D02*
X03556D01*
X01435Y03282D02*
X01532Y03379D01*
X01489Y03422D02*
X01532Y03379D01*
X01392Y03325D02*
X01489Y03422D01*
X01392Y03325D02*
X01435Y03282D01*
X01524Y03518D02*
X01637D01*
X01524Y03461D02*
Y03518D01*
Y03461D02*
X01637D01*
Y03518*
X02709Y0412D02*
Y04178D01*
X02597Y0412D02*
X02709D01*
X02597D02*
Y04178D01*
X02709*
X02248Y0392D02*
X02291Y03963D01*
X02389Y03866*
X02346Y03823D02*
X02389Y03866D01*
X02248Y0392D02*
X02346Y03823D01*
X01638Y04339D02*
X01681Y04295D01*
X01638Y04339D02*
X01735Y04436D01*
X01778Y04393*
X01681Y04295D02*
X01778Y04393D01*
X02152Y04028D02*
X02209D01*
Y03916D02*
Y04028D01*
X02152Y03916D02*
X02209D01*
X02152D02*
Y04028D01*
X01758Y0423D02*
X01816D01*
X01758D02*
Y04343D01*
X01816*
Y0423D02*
Y04343D01*
X01057Y03345D02*
X01101Y03302D01*
X01057Y03345D02*
X01155Y03442D01*
X01198Y03399*
X01101Y03302D02*
X01198Y03399D01*
X01666Y04761D02*
X0171Y04718D01*
X01612Y0462D02*
X0171Y04718D01*
X01569Y04663D02*
X01612Y0462D01*
X01569Y04663D02*
X01666Y04761D01*
X02484Y04078D02*
X02527Y04121D01*
X02625Y04024*
X02582Y0398D02*
X02625Y04024D01*
X02484Y04078D02*
X02582Y0398D01*
X01069Y03567D02*
X01127D01*
Y03454D02*
Y03567D01*
X01069Y03454D02*
X01127D01*
X01069D02*
Y03567D01*
X01455Y0474D02*
Y04798D01*
X01568*
Y0474D02*
Y04798D01*
X01455Y0474D02*
X01568D01*
X03423Y03282D02*
X03521Y03379D01*
X03477Y03422D02*
X03521Y03379D01*
X0338Y03325D02*
X03477Y03422D01*
X0338Y03325D02*
X03423Y03282D01*
X03512Y03518D02*
X03625D01*
X03512Y03461D02*
Y03518D01*
Y03461D02*
X03625D01*
Y03518*
X04698Y0412D02*
Y04178D01*
X04585Y0412D02*
X04698D01*
X04585D02*
Y04178D01*
X04698*
X04236Y0392D02*
X04279Y03963D01*
X04377Y03866*
X04334Y03823D02*
X04377Y03866D01*
X04236Y0392D02*
X04334Y03823D01*
X03626Y04339D02*
X03669Y04295D01*
X03626Y04339D02*
X03723Y04436D01*
X03767Y04393*
X03669Y04295D02*
X03767Y04393D01*
X0414Y04028D02*
X04198D01*
Y03916D02*
Y04028D01*
X0414Y03916D02*
X04198D01*
X0414D02*
Y04028D01*
X03746Y0423D02*
X03804D01*
X03746D02*
Y04343D01*
X03804*
Y0423D02*
Y04343D01*
X03046Y03345D02*
X03089Y03302D01*
X03046Y03345D02*
X03143Y03442D01*
X03186Y03399*
X03089Y03302D02*
X03186Y03399D01*
X03655Y04761D02*
X03698Y04718D01*
X036Y0462D02*
X03698Y04718D01*
X03557Y04663D02*
X036Y0462D01*
X03557Y04663D02*
X03655Y04761D01*
X04473Y04078D02*
X04516Y04121D01*
X04613Y04024*
X0457Y0398D02*
X04613Y04024D01*
X04473Y04078D02*
X0457Y0398D01*
X03057Y03567D02*
X03115D01*
Y03454D02*
Y03567D01*
X03057Y03454D02*
X03115D01*
X03057D02*
Y03567D01*
X03443Y0474D02*
Y04798D01*
X03556*
Y0474D02*
Y04798D01*
X03443Y0474D02*
X03556D01*
M02*