%TF.GenerationSoftware,Altium Limited,Altium Designer,23.1.1 (15)*%
G04 Layer_Physical_Order=2*
G04 Layer_Color=16711680*
%FSLAX42Y42*%
%MOMM*%
%TF.SameCoordinates,B28E977E-5D45-45F3-9009-D632A0DEB075*%
%TF.FilePolarity,Positive*%
%TF.FileFunction,Copper,L2,Bot,Signal*%
%TF.Part,Single*%
G01*
G75*
%TA.AperFunction,SMDPad,CuDef*%
%ADD13R,0.96X0.94*%
%ADD14R,2.00X4.00*%
%ADD15P,1.70X4X360.0*%
%ADD16P,1.70X4X90.0*%
%ADD17R,0.94X0.96*%
%TA.AperFunction,Conductor*%
%ADD18C,0.25*%
%ADD19C,0.00*%
%TA.AperFunction,ComponentPad*%
%ADD20C,2.35*%
%ADD21R,2.35X2.35*%
%ADD22C,0.90*%
%TA.AperFunction,ViaPad*%
%ADD23C,0.50*%
%ADD24C,1.27*%
G36*
X4800Y251D02*
X4788Y247D01*
X3654Y1786D01*
X3660Y1797D01*
X4010D01*
X4014Y1798D01*
X4017Y1798D01*
X4044Y1805D01*
X4047Y1807D01*
X4050Y1808D01*
X4073Y1822D01*
X4076Y1824D01*
X4079Y1826D01*
X4097Y1846D01*
X4099Y1849D01*
X4102Y1852D01*
X4114Y1876D01*
X4115Y1879D01*
X4117Y1882D01*
X4123Y1909D01*
X4123Y1912D01*
X4123Y1916D01*
X4122Y1943D01*
X4121Y1946D01*
X4121Y1950D01*
X4112Y1975D01*
X4111Y1978D01*
X4109Y1982D01*
X4102Y1993D01*
X3446Y2976D01*
X3452Y2987D01*
X3718D01*
X3721Y2988D01*
X3725Y2988D01*
X3752Y2996D01*
X3755Y2997D01*
X3758Y2999D01*
X3782Y3013D01*
X3785Y3016D01*
X3787Y3018D01*
X3806Y3039D01*
X3808Y3042D01*
X3810Y3044D01*
X3823Y3070D01*
X3824Y3073D01*
X3825Y3076D01*
X3830Y3104D01*
X3830Y3107D01*
X3830Y3111D01*
X3828Y3139D01*
X3827Y3142D01*
X3826Y3146D01*
X3816Y3172D01*
X3814Y3175D01*
X3812Y3178D01*
X3804Y3189D01*
X3804Y3189D01*
X3380Y3747D01*
X3380Y3747D01*
X3370Y3759D01*
X3367Y3762D01*
X3365Y3765D01*
X3339Y3783D01*
X3336Y3784D01*
X3338Y3787D01*
Y3807D01*
X3330Y3826D01*
X3316Y3840D01*
X3297Y3848D01*
X3292D01*
X3292Y3848D01*
Y3868D01*
X3284Y3887D01*
X3270Y3901D01*
X3251Y3909D01*
X3244D01*
Y3927D01*
X3236Y3945D01*
X3222Y3959D01*
X3203Y3967D01*
X3200D01*
Y3985D01*
X3193Y4004D01*
X3179Y4018D01*
X3160Y4025D01*
X3157D01*
Y4043D01*
X3150Y4062D01*
X3135Y4076D01*
X3117Y4084D01*
X3097D01*
X3089Y4094D01*
X3085Y4106D01*
X3084Y4108D01*
X3083Y4110D01*
X3075Y4124D01*
X3074Y4126D01*
X3073Y4128D01*
X3068Y4135D01*
X3068Y4135D01*
X2568Y4789D01*
X2573Y4800D01*
X2675D01*
X4800Y4800D01*
Y251D01*
D02*
G37*
G36*
X2233Y4789D02*
X1733Y4135D01*
X1725Y4124D01*
X1723Y4121D01*
X1721Y4118D01*
X1711Y4094D01*
X1710Y4091D01*
X1709Y4087D01*
X1708Y4075D01*
X1690D01*
X1671Y4068D01*
X1657Y4054D01*
X1650Y4035D01*
Y4017D01*
X1647D01*
X1628Y4009D01*
X1614Y3995D01*
X1606Y3977D01*
Y3959D01*
X1604D01*
X1585Y3951D01*
X1571Y3937D01*
X1563Y3918D01*
Y3900D01*
X1555D01*
X1537Y3892D01*
X1523Y3878D01*
X1515Y3860D01*
Y3840D01*
X1515Y3839D01*
X1510D01*
X1491Y3832D01*
X1477Y3817D01*
X1469Y3799D01*
Y3779D01*
X1472Y3773D01*
X1471Y3773D01*
X1445Y3755D01*
X1443Y3752D01*
X1440Y3749D01*
X1430Y3737D01*
X1430Y3737D01*
X1006Y3179D01*
X998Y3168D01*
X996Y3165D01*
X994Y3162D01*
X984Y3136D01*
X983Y3132D01*
X982Y3129D01*
X980Y3101D01*
X980Y3097D01*
X980Y3094D01*
X985Y3066D01*
X986Y3063D01*
X987Y3060D01*
X1000Y3034D01*
X1002Y3032D01*
X1004Y3029D01*
X1023Y3008D01*
X1025Y3006D01*
X1028Y3003D01*
X1052Y2989D01*
X1055Y2987D01*
X1058Y2986D01*
X1085Y2978D01*
X1089Y2978D01*
X1092Y2977D01*
X1358D01*
X1364Y2966D01*
X708Y1983D01*
X701Y1972D01*
X699Y1968D01*
X698Y1965D01*
X689Y1940D01*
X689Y1936D01*
X688Y1933D01*
X687Y1906D01*
X687Y1902D01*
X687Y1899D01*
X693Y1872D01*
X695Y1869D01*
X696Y1866D01*
X708Y1842D01*
X711Y1839D01*
X713Y1836D01*
X731Y1816D01*
X734Y1814D01*
X737Y1812D01*
X760Y1798D01*
X763Y1797D01*
X766Y1795D01*
X793Y1788D01*
X796Y1788D01*
X800Y1787D01*
X1150D01*
X1156Y1776D01*
X12Y223D01*
X0Y227D01*
Y3274D01*
X400D01*
X410Y3276D01*
X418Y3282D01*
X424Y3290D01*
X426Y3300D01*
Y4800D01*
X2227D01*
X2233Y4789D01*
D02*
G37*
G36*
X2868Y3982D02*
X2877Y3969D01*
X2881Y3966D01*
X2883Y3964D01*
X2909Y3946D01*
X2913Y3944D01*
X2916Y3942D01*
X2917Y3942D01*
X2924Y3927D01*
X2919Y3916D01*
Y3896D01*
X2927Y3878D01*
X2941Y3863D01*
X2960Y3856D01*
X2965D01*
Y3838D01*
X2973Y3819D01*
X2987Y3805D01*
X3005Y3797D01*
X3008D01*
Y3779D01*
X3016Y3761D01*
X3030Y3747D01*
X3049Y3739D01*
X3051D01*
Y3721D01*
X3059Y3702D01*
X3073Y3688D01*
X3092Y3680D01*
X3100D01*
Y3665D01*
X3107Y3646D01*
X3121Y3632D01*
X3140Y3625D01*
X3160D01*
X3165Y3619D01*
X3172Y3604D01*
X3174Y3603D01*
X3174Y3601D01*
X3179Y3594D01*
X3441Y3250D01*
X3435Y3239D01*
X3194D01*
X3191Y3238D01*
X3189D01*
X3169Y3235D01*
X3167Y3234D01*
X3165Y3233D01*
X3146Y3226D01*
X3144Y3224D01*
X3142Y3223D01*
X3125Y3212D01*
X3124Y3210D01*
X3122Y3209D01*
X3108Y3195D01*
X3106Y3193D01*
X3104Y3191D01*
X3093Y3175D01*
X3092Y3172D01*
X3091Y3170D01*
X3084Y3152D01*
X3083Y3150D01*
X3082Y3147D01*
X3078Y3128D01*
Y3125D01*
X3078Y3123D01*
Y3106D01*
X3078Y3104D01*
X3078Y3102D01*
X3080Y3087D01*
X3081Y3085D01*
X3081Y3084D01*
X3085Y3069D01*
X3086Y3068D01*
X3087Y3066D01*
X3093Y3053D01*
X3094Y3051D01*
X3095Y3049D01*
X3099Y3043D01*
X3099Y3043D01*
X3754Y2060D01*
X3748Y2049D01*
X3386D01*
X3384Y2048D01*
X3381D01*
X3362Y2045D01*
X3360Y2044D01*
X3357Y2043D01*
X3339Y2036D01*
X3337Y2034D01*
X3334Y2033D01*
X3318Y2022D01*
X3316Y2020D01*
X3314Y2019D01*
X3300Y2005D01*
X3299Y2003D01*
X3297Y2001D01*
X3286Y1985D01*
X3285Y1982D01*
X3284Y1980D01*
X3276Y1962D01*
X3276Y1960D01*
X3275Y1957D01*
X3271Y1938D01*
Y1935D01*
X3270Y1933D01*
Y1915D01*
X3271Y1913D01*
X3271Y1911D01*
X3273Y1895D01*
X3274Y1893D01*
X3274Y1891D01*
X3279Y1876D01*
X3280Y1874D01*
X3281Y1872D01*
X3288Y1858D01*
X3289Y1857D01*
X3290Y1855D01*
X3295Y1848D01*
X4648Y11D01*
X4643Y0D01*
X175D01*
X169Y11D01*
X1515Y1838D01*
X1520Y1845D01*
X1521Y1847D01*
X1522Y1848D01*
X1529Y1862D01*
X1530Y1864D01*
X1531Y1866D01*
X1536Y1881D01*
X1536Y1883D01*
X1537Y1885D01*
X1539Y1901D01*
X1539Y1903D01*
X1540Y1905D01*
Y1923D01*
X1539Y1925D01*
Y1928D01*
X1535Y1947D01*
X1534Y1950D01*
X1534Y1952D01*
X1526Y1970D01*
X1525Y1972D01*
X1524Y1975D01*
X1513Y1991D01*
X1511Y1993D01*
X1510Y1995D01*
X1496Y2009D01*
X1494Y2010D01*
X1492Y2012D01*
X1476Y2023D01*
X1473Y2024D01*
X1471Y2026D01*
X1453Y2033D01*
X1450Y2034D01*
X1448Y2035D01*
X1429Y2038D01*
X1426D01*
X1424Y2039D01*
X1062D01*
X1056Y2050D01*
X1711Y3033D01*
X1711Y3033D01*
X1715Y3039D01*
X1716Y3041D01*
X1717Y3043D01*
X1723Y3056D01*
X1724Y3058D01*
X1725Y3059D01*
X1729Y3074D01*
X1729Y3075D01*
X1730Y3077D01*
X1732Y3092D01*
X1732Y3094D01*
X1732Y3096D01*
Y3113D01*
X1732Y3115D01*
Y3118D01*
X1728Y3137D01*
X1727Y3140D01*
X1726Y3142D01*
X1719Y3160D01*
X1718Y3162D01*
X1717Y3165D01*
X1706Y3181D01*
X1704Y3183D01*
X1702Y3185D01*
X1688Y3199D01*
X1686Y3200D01*
X1685Y3202D01*
X1668Y3213D01*
X1666Y3214D01*
X1664Y3216D01*
X1645Y3223D01*
X1643Y3224D01*
X1641Y3225D01*
X1621Y3228D01*
X1619D01*
X1616Y3229D01*
X1375D01*
X1369Y3240D01*
X1631Y3584D01*
X1636Y3591D01*
X1636Y3593D01*
X1638Y3594D01*
X1645Y3609D01*
X1646Y3611D01*
X1647Y3613D01*
X1652Y3628D01*
X1653Y3630D01*
X1653Y3632D01*
X1655Y3644D01*
X1662D01*
X1680Y3651D01*
X1694Y3666D01*
X1702Y3684D01*
Y3700D01*
X1710D01*
X1729Y3707D01*
X1743Y3721D01*
X1750Y3740D01*
Y3758D01*
X1753D01*
X1772Y3766D01*
X1786Y3780D01*
X1794Y3798D01*
Y3816D01*
X1796D01*
X1815Y3824D01*
X1829Y3838D01*
X1837Y3857D01*
Y3875D01*
X1842D01*
X1861Y3883D01*
X1875Y3897D01*
X1882Y3915D01*
Y3935D01*
X1880Y3941D01*
X1893Y3947D01*
X1896Y3949D01*
X1899Y3950D01*
X1920Y3966D01*
X1922Y3969D01*
X1925Y3971D01*
X1933Y3982D01*
X1933Y3982D01*
X2394Y4585D01*
X2407D01*
X2868Y3982D01*
D02*
G37*
%LPC*%
G36*
X4613Y3264D02*
Y3188D01*
X4689D01*
X4683Y3209D01*
X4671Y3230D01*
X4655Y3246D01*
X4634Y3258D01*
X4613Y3264D01*
D02*
G37*
G36*
X4587D02*
X4566Y3258D01*
X4545Y3246D01*
X4529Y3230D01*
X4517Y3209D01*
X4511Y3188D01*
X4587D01*
Y3264D01*
D02*
G37*
G36*
X4689Y3162D02*
X4613D01*
Y3086D01*
X4634Y3092D01*
X4655Y3104D01*
X4671Y3120D01*
X4683Y3141D01*
X4689Y3162D01*
D02*
G37*
G36*
X4587D02*
X4511D01*
X4517Y3141D01*
X4529Y3120D01*
X4545Y3104D01*
X4566Y3092D01*
X4587Y3086D01*
Y3162D01*
D02*
G37*
G36*
X4344Y3024D02*
X4284D01*
Y2963D01*
X4344D01*
Y3024D01*
D02*
G37*
G36*
Y2937D02*
X4284D01*
Y2876D01*
X4344D01*
Y2937D01*
D02*
G37*
G36*
X4259Y3024D02*
X4056D01*
Y2989D01*
X4000D01*
X3985Y2986D01*
X3973Y2977D01*
X3883Y2888D01*
X3876Y2895D01*
X3755Y2774D01*
X3876Y2653D01*
X3997Y2774D01*
X3938Y2833D01*
X4016Y2911D01*
X4056D01*
Y2876D01*
X4259D01*
Y2950D01*
Y3024D01*
D02*
G37*
G36*
X4775Y2983D02*
X4663D01*
Y2771D01*
X4775D01*
Y2983D01*
D02*
G37*
G36*
X4637D02*
X4525D01*
Y2771D01*
X4637D01*
Y2983D01*
D02*
G37*
G36*
X4775Y2745D02*
X4663D01*
Y2533D01*
X4775D01*
Y2745D01*
D02*
G37*
G36*
X4637D02*
X4525D01*
Y2533D01*
X4637D01*
Y2745D01*
D02*
G37*
G36*
X4024Y2747D02*
X3903Y2626D01*
X4024Y2505D01*
X4057Y2538D01*
X4373Y2223D01*
X4385Y2214D01*
X4400Y2211D01*
X4525D01*
Y2025D01*
X4775D01*
Y2475D01*
X4525D01*
Y2289D01*
X4416D01*
X4112Y2593D01*
X4145Y2626D01*
X4024Y2747D01*
D02*
G37*
G36*
X4663Y1364D02*
Y1288D01*
X4739D01*
X4733Y1309D01*
X4721Y1330D01*
X4705Y1346D01*
X4684Y1358D01*
X4663Y1364D01*
D02*
G37*
G36*
X4637D02*
X4616Y1358D01*
X4595Y1346D01*
X4579Y1330D01*
X4567Y1309D01*
X4561Y1288D01*
X4637D01*
Y1364D01*
D02*
G37*
G36*
X4739Y1262D02*
X4663D01*
Y1186D01*
X4684Y1192D01*
X4705Y1204D01*
X4721Y1220D01*
X4733Y1241D01*
X4739Y1262D01*
D02*
G37*
G36*
X4637D02*
X4561D01*
X4567Y1241D01*
X4579Y1220D01*
X4595Y1204D01*
X4616Y1192D01*
X4637Y1186D01*
Y1262D01*
D02*
G37*
G36*
X1216Y4599D02*
X1156D01*
Y4538D01*
X1216D01*
Y4599D01*
D02*
G37*
G36*
Y4512D02*
X1156D01*
Y4451D01*
X1216D01*
Y4512D01*
D02*
G37*
G36*
X1444Y4599D02*
X1241D01*
Y4525D01*
Y4451D01*
X1444D01*
Y4486D01*
X1557D01*
X1611Y4432D01*
X1578Y4399D01*
X1699Y4278D01*
X1820Y4399D01*
X1699Y4520D01*
X1666Y4487D01*
X1601Y4552D01*
X1588Y4561D01*
X1573Y4564D01*
X1444D01*
Y4599D01*
D02*
G37*
G36*
X1551Y4372D02*
X1430Y4251D01*
X1463Y4218D01*
X448Y3202D01*
X439Y3190D01*
X436Y3175D01*
Y2516D01*
X287Y2367D01*
X275Y2372D01*
Y2525D01*
X25D01*
Y2075D01*
X220D01*
X561Y1734D01*
Y1266D01*
X433Y1138D01*
X400Y1171D01*
X302Y1073D01*
X290Y1078D01*
Y1185D01*
X324D01*
Y1328D01*
Y1387D01*
X250D01*
X176D01*
Y1328D01*
Y1185D01*
X213D01*
Y983D01*
X131Y902D01*
X252Y781D01*
X372Y902D01*
X290Y983D01*
Y1022D01*
X302Y1027D01*
X400Y929D01*
X521Y1050D01*
X488Y1083D01*
X627Y1223D01*
X636Y1235D01*
X639Y1250D01*
Y1750D01*
X636Y1765D01*
X627Y1777D01*
X275Y2130D01*
Y2261D01*
X290Y2264D01*
X302Y2273D01*
X502Y2473D01*
X511Y2485D01*
X514Y2500D01*
Y3159D01*
X1518Y4163D01*
X1551Y4130D01*
X1672Y4251D01*
X1551Y4372D01*
D02*
G37*
G36*
X613Y3764D02*
Y3688D01*
X689D01*
X683Y3709D01*
X671Y3730D01*
X655Y3746D01*
X634Y3758D01*
X613Y3764D01*
D02*
G37*
G36*
X587D02*
X566Y3758D01*
X545Y3746D01*
X529Y3730D01*
X517Y3709D01*
X511Y3688D01*
X587D01*
Y3764D01*
D02*
G37*
G36*
X689Y3662D02*
X613D01*
Y3586D01*
X634Y3592D01*
X655Y3604D01*
X671Y3620D01*
X683Y3641D01*
X689Y3662D01*
D02*
G37*
G36*
X587D02*
X511D01*
X517Y3641D01*
X529Y3620D01*
X545Y3604D01*
X566Y3592D01*
X587Y3586D01*
Y3662D01*
D02*
G37*
G36*
X275Y3033D02*
X163D01*
Y2821D01*
X275D01*
Y3033D01*
D02*
G37*
G36*
X137D02*
X25D01*
Y2821D01*
X137D01*
Y3033D01*
D02*
G37*
G36*
X275Y2795D02*
X163D01*
Y2583D01*
X275D01*
Y2795D01*
D02*
G37*
G36*
X137D02*
X25D01*
Y2583D01*
X137D01*
Y2795D01*
D02*
G37*
G36*
X188Y1914D02*
Y1838D01*
X264D01*
X258Y1859D01*
X246Y1880D01*
X230Y1896D01*
X209Y1908D01*
X188Y1914D01*
D02*
G37*
G36*
X162D02*
X141Y1908D01*
X120Y1896D01*
X104Y1880D01*
X92Y1859D01*
X86Y1838D01*
X162D01*
Y1914D01*
D02*
G37*
G36*
X264Y1812D02*
X188D01*
Y1736D01*
X209Y1742D01*
X230Y1754D01*
X246Y1770D01*
X258Y1791D01*
X264Y1812D01*
D02*
G37*
G36*
X162D02*
X86D01*
X92Y1791D01*
X104Y1770D01*
X120Y1754D01*
X141Y1742D01*
X162Y1736D01*
Y1812D01*
D02*
G37*
G36*
X324Y1472D02*
X263D01*
Y1413D01*
X324D01*
Y1472D01*
D02*
G37*
G36*
X237D02*
X176D01*
Y1413D01*
X237D01*
Y1472D01*
D02*
G37*
G36*
X1726Y3547D02*
X1605Y3426D01*
X1726Y3305D01*
X1783Y3362D01*
X1823Y3323D01*
X1835Y3314D01*
X1850Y3311D01*
X1926D01*
Y3241D01*
X2000D01*
X2074D01*
Y3299D01*
Y3444D01*
X1926D01*
Y3389D01*
X1866D01*
X1838Y3417D01*
X1847Y3426D01*
X1726Y3547D01*
D02*
G37*
G36*
X2074Y3216D02*
X2013D01*
Y3156D01*
X2074D01*
Y3216D01*
D02*
G37*
G36*
X1987D02*
X1926D01*
Y3156D01*
X1987D01*
Y3216D01*
D02*
G37*
G36*
X2838Y2964D02*
Y2888D01*
X2914D01*
X2908Y2909D01*
X2896Y2930D01*
X2880Y2946D01*
X2859Y2958D01*
X2838Y2964D01*
D02*
G37*
G36*
X2812D02*
X2791Y2958D01*
X2770Y2946D01*
X2754Y2930D01*
X2742Y2909D01*
X2736Y2888D01*
X2812D01*
Y2964D01*
D02*
G37*
G36*
X1988Y2939D02*
Y2863D01*
X2064D01*
X2058Y2884D01*
X2046Y2905D01*
X2030Y2921D01*
X2009Y2933D01*
X1988Y2939D01*
D02*
G37*
G36*
X1962D02*
X1941Y2933D01*
X1920Y2921D01*
X1904Y2905D01*
X1892Y2884D01*
X1886Y2863D01*
X1962D01*
Y2939D01*
D02*
G37*
G36*
X2914Y2862D02*
X2838D01*
Y2786D01*
X2859Y2792D01*
X2880Y2804D01*
X2896Y2820D01*
X2908Y2841D01*
X2914Y2862D01*
D02*
G37*
G36*
X2812D02*
X2736D01*
X2742Y2841D01*
X2754Y2820D01*
X2770Y2804D01*
X2791Y2792D01*
X2812Y2786D01*
Y2862D01*
D02*
G37*
G36*
X2064Y2837D02*
X1988D01*
Y2761D01*
X2009Y2767D01*
X2030Y2779D01*
X2046Y2795D01*
X2058Y2816D01*
X2064Y2837D01*
D02*
G37*
G36*
X1962D02*
X1886D01*
X1892Y2816D01*
X1904Y2795D01*
X1920Y2779D01*
X1941Y2767D01*
X1962Y2761D01*
Y2837D01*
D02*
G37*
G36*
X3074Y2644D02*
X3013D01*
Y2584D01*
X3074D01*
Y2644D01*
D02*
G37*
G36*
X2987D02*
X2926D01*
Y2584D01*
X2987D01*
Y2644D01*
D02*
G37*
G36*
X3000Y2572D02*
D01*
Y2559D01*
X2926D01*
Y2499D01*
Y2356D01*
X3015D01*
X3021Y2347D01*
X3034Y2338D01*
X3049Y2335D01*
X3194D01*
X3276Y2253D01*
X3397Y2374D01*
X3276Y2495D01*
X3194Y2413D01*
X3074D01*
Y2499D01*
Y2559D01*
X3000D01*
Y2572D01*
D02*
G37*
G36*
X1874Y3695D02*
X1753Y3574D01*
X1874Y3453D01*
X1956Y3535D01*
X2110D01*
X2211Y3434D01*
Y2775D01*
X2125D01*
Y2325D01*
X2375D01*
Y2511D01*
X2425D01*
Y2333D01*
X2675D01*
Y2361D01*
X2734D01*
X2761Y2334D01*
Y2200D01*
X2764Y2185D01*
X2773Y2173D01*
X2798Y2148D01*
X2810Y2139D01*
X2825Y2136D01*
X3307D01*
X3321Y2139D01*
X3334Y2148D01*
X3358Y2171D01*
X3424Y2105D01*
X3545Y2226D01*
X3424Y2347D01*
X3333Y2255D01*
X3330Y2253D01*
X3291Y2214D01*
X2841D01*
X2839Y2216D01*
Y2350D01*
X2836Y2365D01*
X2827Y2377D01*
X2777Y2427D01*
X2765Y2436D01*
X2750Y2439D01*
X2675D01*
Y2783D01*
X2425D01*
Y2589D01*
X2375D01*
Y2775D01*
X2289D01*
Y3450D01*
X2286Y3465D01*
X2277Y3477D01*
X2153Y3602D01*
X2141Y3610D01*
X2126Y3613D01*
X1956D01*
X1874Y3695D01*
D02*
G37*
G36*
X2675Y2275D02*
X2563D01*
Y2063D01*
X2675D01*
Y2275D01*
D02*
G37*
G36*
X2537D02*
X2425D01*
Y2063D01*
X2537D01*
Y2275D01*
D02*
G37*
G36*
X2375Y2267D02*
X2263D01*
Y2055D01*
X2375D01*
Y2267D01*
D02*
G37*
G36*
X2237D02*
X2125D01*
Y2055D01*
X2237D01*
Y2267D01*
D02*
G37*
G36*
X2675Y2037D02*
X2563D01*
Y1825D01*
X2675D01*
Y2037D01*
D02*
G37*
G36*
X2537D02*
X2425D01*
Y1825D01*
X2537D01*
Y2037D01*
D02*
G37*
G36*
X2375Y2029D02*
X2263D01*
Y1817D01*
X2375D01*
Y2029D01*
D02*
G37*
G36*
X2237D02*
X2125D01*
Y1817D01*
X2237D01*
Y2029D01*
D02*
G37*
G36*
X2838Y1814D02*
Y1738D01*
X2914D01*
X2908Y1759D01*
X2896Y1780D01*
X2880Y1796D01*
X2859Y1808D01*
X2838Y1814D01*
D02*
G37*
G36*
X2812D02*
X2791Y1808D01*
X2770Y1796D01*
X2754Y1780D01*
X2742Y1759D01*
X2736Y1738D01*
X2812D01*
Y1814D01*
D02*
G37*
G36*
X1988D02*
Y1738D01*
X2064D01*
X2058Y1759D01*
X2046Y1780D01*
X2030Y1796D01*
X2009Y1808D01*
X1988Y1814D01*
D02*
G37*
G36*
X1962D02*
X1941Y1808D01*
X1920Y1796D01*
X1904Y1780D01*
X1892Y1759D01*
X1886Y1738D01*
X1962D01*
Y1814D01*
D02*
G37*
G36*
X2914Y1712D02*
X2838D01*
Y1636D01*
X2859Y1642D01*
X2880Y1654D01*
X2896Y1670D01*
X2908Y1691D01*
X2914Y1712D01*
D02*
G37*
G36*
X2812D02*
X2736D01*
X2742Y1691D01*
X2754Y1670D01*
X2770Y1654D01*
X2791Y1642D01*
X2812Y1636D01*
Y1712D01*
D02*
G37*
G36*
X2064D02*
X1988D01*
Y1636D01*
X2009Y1642D01*
X2030Y1654D01*
X2046Y1670D01*
X2058Y1691D01*
X2064Y1712D01*
D02*
G37*
G36*
X1962D02*
X1886D01*
X1892Y1691D01*
X1904Y1670D01*
X1920Y1654D01*
X1941Y1642D01*
X1962Y1636D01*
Y1712D01*
D02*
G37*
G36*
X1619Y1349D02*
X1559D01*
Y1288D01*
X1619D01*
Y1349D01*
D02*
G37*
G36*
Y1262D02*
X1559D01*
Y1201D01*
X1619D01*
Y1262D01*
D02*
G37*
G36*
X1534Y1349D02*
X1331D01*
Y1314D01*
X1300D01*
X1285Y1311D01*
X1273Y1302D01*
X1048Y1077D01*
X1039Y1065D01*
X1036Y1050D01*
Y938D01*
X1039Y923D01*
X1044Y915D01*
X980Y851D01*
X1101Y730D01*
X1222Y851D01*
X1114Y958D01*
Y1034D01*
X1316Y1236D01*
X1331D01*
Y1201D01*
X1534D01*
Y1275D01*
Y1349D01*
D02*
G37*
G36*
X1249Y1120D02*
X1128Y999D01*
X1249Y878D01*
X1370Y999D01*
X1249Y1120D01*
D02*
G37*
G36*
X899Y671D02*
X881Y668D01*
X864Y661D01*
X849Y650D01*
X838Y635D01*
X831Y618D01*
X829Y599D01*
X832Y581D01*
X839Y564D01*
X850Y549D01*
X865Y538D01*
X882Y531D01*
X901Y529D01*
X919Y532D01*
X936Y539D01*
X951Y550D01*
X962Y565D01*
X969Y582D01*
X971Y601D01*
X968Y619D01*
X961Y636D01*
X950Y651D01*
X935Y662D01*
X918Y669D01*
X899Y671D01*
D02*
G37*
G36*
X3203Y743D02*
X2918D01*
Y457D01*
X3203D01*
Y743D01*
D02*
G37*
G36*
X1758D02*
X1721D01*
X1684Y733D01*
X1652Y714D01*
X1625Y688D01*
X1606Y655D01*
X1597Y619D01*
Y581D01*
X1606Y545D01*
X1625Y512D01*
X1652Y486D01*
X1684Y467D01*
X1721Y457D01*
X1758D01*
X1795Y467D01*
X1827Y486D01*
X1854Y512D01*
X1873Y545D01*
X1882Y581D01*
Y619D01*
X1873Y655D01*
X1854Y688D01*
X1827Y714D01*
X1795Y733D01*
X1758Y743D01*
D02*
G37*
G36*
X719Y431D02*
X700Y429D01*
X683Y422D01*
X669Y410D01*
X658Y395D01*
X651Y378D01*
X648Y360D01*
X651Y341D01*
X658Y324D01*
X670Y310D01*
X684Y299D01*
X702Y292D01*
X720Y289D01*
X738Y292D01*
X755Y299D01*
X770Y311D01*
X781Y325D01*
X788Y343D01*
X790Y361D01*
X788Y379D01*
X781Y396D01*
X769Y411D01*
X754Y422D01*
X737Y429D01*
X719Y431D01*
D02*
G37*
%LPD*%
D13*
X250Y1400D02*
D03*
Y1257D02*
D03*
X3000Y2572D02*
D03*
Y2428D02*
D03*
X2000Y3228D02*
D03*
Y3372D02*
D03*
D14*
X150Y2808D02*
D03*
Y2300D02*
D03*
X4650Y2758D02*
D03*
Y2250D02*
D03*
X2250Y2042D02*
D03*
Y2550D02*
D03*
X2550Y2050D02*
D03*
Y2558D02*
D03*
D15*
X3876Y2774D02*
D03*
X4024Y2626D02*
D03*
X3276Y2374D02*
D03*
X3424Y2226D02*
D03*
D16*
X1101Y851D02*
D03*
X1249Y999D02*
D03*
X252Y902D02*
D03*
X400Y1050D02*
D03*
X1699Y4399D02*
D03*
X1551Y4251D02*
D03*
X1726Y3426D02*
D03*
X1874Y3574D02*
D03*
D17*
X1547Y1275D02*
D03*
X1403D02*
D03*
X1228Y4525D02*
D03*
X1372D02*
D03*
X4272Y2950D02*
D03*
X4128D02*
D03*
D18*
X2542Y2550D02*
X2550Y2558D01*
X2250Y2550D02*
X2542D01*
X3876Y2774D02*
Y2826D01*
X4000Y2950D01*
X4128D01*
X4024Y2626D02*
X4400Y2250D01*
X4024Y2626D02*
X4024D01*
X4400Y2250D02*
X4650D01*
X1075Y1050D02*
X1300Y1275D01*
X1403D01*
X1075Y938D02*
Y1050D01*
X1101Y851D02*
Y912D01*
X1075Y938D02*
X1101Y912D01*
X2825Y2175D02*
X3307D01*
X3357Y2226D01*
X2800Y2200D02*
Y2350D01*
Y2200D02*
X2825Y2175D01*
X2750Y2400D02*
X2800Y2350D01*
X2550Y2487D02*
Y2558D01*
Y2487D02*
X2637Y2400D01*
X2750D01*
X3049Y2374D02*
X3276D01*
X3049Y2378D02*
Y2381D01*
X3000Y2428D02*
X3001D01*
X3049Y2381D01*
X2250Y2550D02*
Y3450D01*
X2126Y3574D02*
X2250Y3450D01*
X1874Y3574D02*
X2126D01*
X1978Y3350D02*
X2000Y3372D01*
X1850Y3350D02*
X1978D01*
X1774Y3426D02*
X1850Y3350D01*
X1726Y3426D02*
X1774D01*
X1573Y4525D02*
X1699Y4399D01*
X1372Y4525D02*
X1573D01*
X1699Y4399D02*
X1699D01*
X475Y3175D02*
X1551Y4251D01*
X475Y2500D02*
Y3175D01*
X275Y2300D02*
X475Y2500D01*
X150Y2300D02*
X275D01*
X150Y2200D02*
X600Y1750D01*
X150Y2200D02*
Y2300D01*
X600Y1250D02*
Y1750D01*
X400Y1050D02*
X600Y1250D01*
X250Y1257D02*
X252Y1255D01*
Y902D02*
Y1255D01*
D19*
X3049Y2374D02*
Y2378D01*
X1551Y4251D02*
Y4251D01*
X1699Y4399D02*
Y4399D01*
X400Y1050D02*
X400D01*
X3357Y2226D02*
X3424D01*
D20*
X1740Y600D02*
D03*
D21*
X3060D02*
D03*
D22*
X900D02*
D03*
X719Y360D02*
D03*
D23*
X3287Y3797D02*
D03*
X3241Y3858D02*
D03*
X3193Y3917D02*
D03*
X3150Y3975D02*
D03*
X3107Y4033D02*
D03*
X1832Y3925D02*
D03*
X1786Y3867D02*
D03*
X1743Y3808D02*
D03*
X1700Y3750D02*
D03*
X1652Y3694D02*
D03*
X2970Y3906D02*
D03*
X3015Y3848D02*
D03*
X3059Y3789D02*
D03*
X3102Y3731D02*
D03*
X3150Y3675D02*
D03*
X1520Y3789D02*
D03*
X1565Y3850D02*
D03*
X1614Y3908D02*
D03*
X1657Y3967D02*
D03*
X1700Y4025D02*
D03*
D24*
X2825Y1725D02*
D03*
Y2875D02*
D03*
X1975Y1725D02*
D03*
Y2850D02*
D03*
X600Y3675D02*
D03*
X175Y1825D02*
D03*
X4650Y1275D02*
D03*
X4600Y3175D02*
D03*
%TF.MD5,29d4a9e71284f0ff5204bd941765ffdc*%
M02*
