G04*
G04 #@! TF.GenerationSoftware,Altium Limited,Altium Designer,23.1.1 (15)*
G04*
G04 Layer_Physical_Order=1*
G04 Layer_Color=255*
%FSLAX23Y23*%
%MOIN*%
G70*
G04*
G04 #@! TF.SameCoordinates,7DB063E5-64DA-4751-B351-23BD0CB7D004*
G04*
G04*
G04 #@! TF.FilePolarity,Positive*
G04*
G01*
G75*
%ADD11C,0.000*%
%ADD13R,0.156X0.156*%
G04:AMPARAMS|DCode=14|XSize=28mil|YSize=59mil|CornerRadius=0mil|HoleSize=0mil|Usage=FLASHONLY|Rotation=233.000|XOffset=0mil|YOffset=0mil|HoleType=Round|Shape=Rectangle|*
%AMROTATEDRECTD14*
4,1,4,-0.015,0.029,0.032,-0.007,0.015,-0.029,-0.032,0.007,-0.015,0.029,0.0*
%
%ADD14ROTATEDRECTD14*%

G04:AMPARAMS|DCode=15|XSize=39mil|YSize=31mil|CornerRadius=0mil|HoleSize=0mil|Usage=FLASHONLY|Rotation=233.000|XOffset=0mil|YOffset=0mil|HoleType=Round|Shape=Rectangle|*
%AMROTATEDRECTD15*
4,1,4,-0.001,0.025,0.024,0.006,0.001,-0.025,-0.024,-0.006,-0.001,0.025,0.0*
%
%ADD15ROTATEDRECTD15*%

%ADD16R,0.038X0.037*%
%ADD17R,0.079X0.157*%
%ADD18P,0.067X4X360.0*%
%ADD19P,0.067X4X90.0*%
%ADD20R,0.037X0.038*%
%ADD25C,0.035*%
%ADD28C,0.010*%
%ADD29C,0.093*%
%ADD30R,0.093X0.093*%
%ADD31C,0.020*%
%ADD32C,0.050*%
G36*
X1890Y99D02*
X1885Y97D01*
X1438Y703D01*
X1441Y708D01*
X1579D01*
X1580Y708D01*
X1582Y708D01*
X1592Y711D01*
X1593Y711D01*
X1594Y712D01*
X1604Y717D01*
X1605Y718D01*
X1606Y719D01*
X1613Y727D01*
X1614Y728D01*
X1615Y729D01*
X1620Y738D01*
X1620Y740D01*
X1621Y741D01*
X1623Y751D01*
X1623Y753D01*
X1623Y754D01*
X1623Y765D01*
X1623Y766D01*
X1622Y768D01*
X1619Y778D01*
X1618Y779D01*
X1618Y780D01*
X1615Y785D01*
X1357Y1172D01*
X1359Y1176D01*
X1464D01*
X1465Y1176D01*
X1466Y1176D01*
X1477Y1179D01*
X1478Y1180D01*
X1480Y1181D01*
X1489Y1186D01*
X1490Y1187D01*
X1491Y1188D01*
X1499Y1196D01*
X1499Y1197D01*
X1500Y1199D01*
X1505Y1208D01*
X1505Y1210D01*
X1506Y1211D01*
X1508Y1222D01*
X1508Y1223D01*
X1508Y1225D01*
X1507Y1236D01*
X1507Y1237D01*
X1506Y1238D01*
X1502Y1249D01*
X1502Y1250D01*
X1501Y1251D01*
X1498Y1256D01*
X1498Y1256D01*
X1331Y1475D01*
X1331Y1475D01*
X1327Y1480D01*
X1326Y1481D01*
X1325Y1482D01*
X1314Y1489D01*
X1313Y1490D01*
X1314Y1491D01*
Y1499D01*
X1311Y1506D01*
X1305Y1512D01*
X1298Y1515D01*
X1296D01*
X1296Y1515D01*
Y1523D01*
X1293Y1530D01*
X1287Y1536D01*
X1280Y1539D01*
X1277D01*
Y1546D01*
X1274Y1553D01*
X1268Y1559D01*
X1261Y1562D01*
X1260D01*
Y1569D01*
X1257Y1576D01*
X1251Y1582D01*
X1244Y1585D01*
X1243D01*
Y1592D01*
X1240Y1599D01*
X1234Y1605D01*
X1227Y1608D01*
X1219D01*
X1216Y1612D01*
X1214Y1617D01*
X1214Y1617D01*
X1214Y1618D01*
X1211Y1624D01*
X1210Y1624D01*
X1210Y1625D01*
X1208Y1628D01*
X1208Y1628D01*
X1011Y1885D01*
X1013Y1890D01*
X1053D01*
X1890Y1890D01*
Y99D01*
D02*
G37*
G36*
X879Y1885D02*
X682Y1628D01*
X679Y1624D01*
X678Y1622D01*
X678Y1621D01*
X674Y1612D01*
X673Y1610D01*
X673Y1609D01*
X672Y1604D01*
X665D01*
X658Y1601D01*
X652Y1596D01*
X649Y1589D01*
Y1581D01*
X648D01*
X641Y1578D01*
X635Y1573D01*
X632Y1566D01*
Y1558D01*
X631D01*
X624Y1555D01*
X618Y1550D01*
X615Y1543D01*
Y1535D01*
X612D01*
X605Y1532D01*
X599Y1527D01*
X596Y1520D01*
Y1512D01*
X596Y1511D01*
X594D01*
X587Y1508D01*
X581Y1503D01*
X578Y1496D01*
Y1488D01*
X579Y1485D01*
X579Y1485D01*
X569Y1478D01*
X568Y1477D01*
X567Y1476D01*
X563Y1471D01*
X563Y1471D01*
X396Y1252D01*
X393Y1247D01*
X392Y1246D01*
X391Y1245D01*
X387Y1235D01*
X387Y1233D01*
X387Y1232D01*
X386Y1221D01*
X386Y1219D01*
X386Y1218D01*
X388Y1207D01*
X388Y1206D01*
X389Y1205D01*
X394Y1195D01*
X394Y1194D01*
X395Y1192D01*
X403Y1184D01*
X404Y1183D01*
X405Y1182D01*
X414Y1177D01*
X415Y1176D01*
X417Y1175D01*
X427Y1172D01*
X429Y1172D01*
X430Y1172D01*
X534D01*
X537Y1168D01*
X279Y781D01*
X276Y776D01*
X275Y775D01*
X275Y774D01*
X271Y764D01*
X271Y762D01*
X271Y761D01*
X270Y750D01*
X271Y749D01*
X271Y747D01*
X273Y737D01*
X273Y736D01*
X274Y734D01*
X279Y725D01*
X280Y724D01*
X281Y723D01*
X288Y715D01*
X289Y714D01*
X290Y713D01*
X299Y708D01*
X301Y707D01*
X302Y707D01*
X312Y704D01*
X313Y704D01*
X315Y704D01*
X453D01*
X455Y699D01*
X5Y88D01*
X0Y89D01*
Y1289D01*
X157D01*
X161Y1290D01*
X165Y1292D01*
X167Y1295D01*
X168Y1299D01*
Y1890D01*
X877D01*
X879Y1885D01*
D02*
G37*
G36*
X1129Y1568D02*
X1133Y1563D01*
X1134Y1562D01*
X1135Y1560D01*
X1145Y1553D01*
X1147Y1553D01*
X1148Y1552D01*
X1149Y1552D01*
X1151Y1546D01*
X1149Y1542D01*
Y1534D01*
X1152Y1527D01*
X1158Y1521D01*
X1165Y1518D01*
X1167D01*
Y1511D01*
X1170Y1504D01*
X1176Y1498D01*
X1183Y1495D01*
X1184D01*
Y1488D01*
X1187Y1481D01*
X1193Y1475D01*
X1200Y1472D01*
X1201D01*
Y1465D01*
X1204Y1458D01*
X1210Y1452D01*
X1217Y1449D01*
X1220D01*
Y1443D01*
X1223Y1436D01*
X1229Y1430D01*
X1236Y1427D01*
X1244D01*
X1246Y1425D01*
X1249Y1419D01*
X1249Y1418D01*
X1250Y1418D01*
X1252Y1415D01*
X1355Y1280D01*
X1353Y1275D01*
X1257D01*
X1256Y1275D01*
X1255D01*
X1248Y1273D01*
X1247Y1273D01*
X1246Y1273D01*
X1239Y1270D01*
X1238Y1269D01*
X1237Y1269D01*
X1231Y1265D01*
X1230Y1264D01*
X1229Y1263D01*
X1223Y1258D01*
X1223Y1257D01*
X1222Y1256D01*
X1218Y1250D01*
X1218Y1249D01*
X1217Y1248D01*
X1214Y1241D01*
X1214Y1240D01*
X1213Y1239D01*
X1212Y1231D01*
Y1230D01*
X1212Y1229D01*
Y1223D01*
X1212Y1222D01*
X1212Y1221D01*
X1213Y1215D01*
X1213Y1215D01*
X1213Y1214D01*
X1215Y1208D01*
X1215Y1208D01*
X1215Y1207D01*
X1218Y1202D01*
X1218Y1201D01*
X1218Y1200D01*
X1220Y1198D01*
X1220Y1198D01*
X1478Y811D01*
X1476Y807D01*
X1333D01*
X1332Y806D01*
X1331D01*
X1324Y805D01*
X1323Y805D01*
X1322Y804D01*
X1315Y801D01*
X1314Y801D01*
X1313Y800D01*
X1306Y796D01*
X1306Y795D01*
X1305Y795D01*
X1299Y789D01*
X1299Y789D01*
X1298Y788D01*
X1294Y781D01*
X1293Y780D01*
X1293Y780D01*
X1290Y772D01*
X1290Y772D01*
X1289Y771D01*
X1288Y763D01*
Y762D01*
X1288Y761D01*
Y754D01*
X1288Y753D01*
X1288Y752D01*
X1289Y746D01*
X1289Y745D01*
X1289Y745D01*
X1291Y739D01*
X1291Y738D01*
X1292Y737D01*
X1294Y732D01*
X1295Y731D01*
X1295Y730D01*
X1297Y728D01*
X1830Y4D01*
X1828Y0D01*
X69D01*
X67Y4D01*
X597Y724D01*
X598Y726D01*
X599Y727D01*
X599Y728D01*
X602Y733D01*
X602Y734D01*
X603Y735D01*
X605Y741D01*
X605Y741D01*
X605Y742D01*
X606Y748D01*
X606Y749D01*
X606Y750D01*
Y757D01*
X606Y758D01*
Y759D01*
X604Y767D01*
X604Y768D01*
X604Y769D01*
X601Y776D01*
X600Y777D01*
X600Y777D01*
X596Y784D01*
X595Y785D01*
X594Y785D01*
X589Y791D01*
X588Y792D01*
X587Y792D01*
X581Y797D01*
X580Y797D01*
X579Y797D01*
X572Y800D01*
X571Y801D01*
X570Y801D01*
X562Y803D01*
X561D01*
X560Y803D01*
X418D01*
X416Y807D01*
X674Y1194D01*
X674Y1194D01*
X675Y1197D01*
X676Y1197D01*
X676Y1198D01*
X679Y1203D01*
X679Y1204D01*
X679Y1204D01*
X681Y1210D01*
X681Y1211D01*
X681Y1212D01*
X682Y1217D01*
X682Y1218D01*
X682Y1219D01*
Y1226D01*
X682Y1226D01*
Y1228D01*
X680Y1235D01*
X680Y1236D01*
X680Y1237D01*
X677Y1244D01*
X676Y1245D01*
X676Y1246D01*
X671Y1252D01*
X671Y1253D01*
X670Y1254D01*
X665Y1259D01*
X664Y1260D01*
X663Y1261D01*
X657Y1265D01*
X656Y1265D01*
X655Y1266D01*
X648Y1269D01*
X647Y1269D01*
X646Y1270D01*
X638Y1271D01*
X637D01*
X636Y1271D01*
X541D01*
X539Y1276D01*
X642Y1411D01*
X644Y1414D01*
X644Y1414D01*
X645Y1415D01*
X648Y1421D01*
X648Y1422D01*
X648Y1422D01*
X651Y1428D01*
X651Y1429D01*
X651Y1430D01*
X652Y1435D01*
X654D01*
X662Y1438D01*
X667Y1443D01*
X670Y1450D01*
Y1457D01*
X673D01*
X681Y1460D01*
X686Y1465D01*
X689Y1472D01*
Y1480D01*
X690D01*
X698Y1483D01*
X703Y1488D01*
X706Y1495D01*
Y1503D01*
X707D01*
X715Y1506D01*
X720Y1511D01*
X723Y1518D01*
Y1526D01*
X725D01*
X733Y1529D01*
X738Y1534D01*
X741Y1541D01*
Y1549D01*
X740Y1552D01*
X745Y1554D01*
X746Y1555D01*
X748Y1555D01*
X756Y1562D01*
X757Y1563D01*
X758Y1563D01*
X761Y1568D01*
X761Y1568D01*
X942Y1805D01*
X947D01*
X1129Y1568D01*
D02*
G37*
%LPC*%
G36*
X1220Y1819D02*
X1173Y1772D01*
X1220Y1724D01*
X1256Y1760D01*
X1258Y1761D01*
X1273Y1776D01*
X1349D01*
Y1752D01*
Y1729D01*
X1378D01*
X1407D01*
Y1752D01*
Y1809D01*
X1349D01*
Y1806D01*
X1266D01*
X1260Y1805D01*
X1255Y1802D01*
X1247Y1793D01*
X1220Y1819D01*
D02*
G37*
G36*
X1407Y1719D02*
X1383D01*
Y1695D01*
X1407D01*
Y1719D01*
D02*
G37*
G36*
X1373D02*
X1349D01*
Y1695D01*
X1373D01*
Y1719D01*
D02*
G37*
G36*
X1816Y1285D02*
Y1255D01*
X1846D01*
X1844Y1264D01*
X1839Y1271D01*
X1833Y1278D01*
X1825Y1283D01*
X1816Y1285D01*
D02*
G37*
G36*
X1806D02*
X1798Y1283D01*
X1790Y1278D01*
X1783Y1271D01*
X1778Y1264D01*
X1776Y1255D01*
X1806D01*
Y1285D01*
D02*
G37*
G36*
X1846Y1245D02*
X1816D01*
Y1215D01*
X1825Y1217D01*
X1833Y1222D01*
X1839Y1229D01*
X1844Y1236D01*
X1846Y1245D01*
D02*
G37*
G36*
X1806D02*
X1776D01*
X1778Y1236D01*
X1783Y1229D01*
X1790Y1222D01*
X1798Y1217D01*
X1806Y1215D01*
Y1245D01*
D02*
G37*
G36*
X1880Y1175D02*
X1836D01*
Y1091D01*
X1880D01*
Y1175D01*
D02*
G37*
G36*
X1826D02*
X1781D01*
Y1091D01*
X1826D01*
Y1175D01*
D02*
G37*
G36*
X1880Y1081D02*
X1836D01*
Y997D01*
X1880D01*
Y1081D01*
D02*
G37*
G36*
X1826D02*
X1781D01*
Y997D01*
X1826D01*
Y1081D01*
D02*
G37*
G36*
X1751Y775D02*
X1727D01*
Y752D01*
X1751D01*
Y775D01*
D02*
G37*
G36*
X1717D02*
X1694D01*
Y752D01*
X1717D01*
Y775D01*
D02*
G37*
G36*
X1751Y742D02*
X1722D01*
X1694D01*
Y718D01*
Y684D01*
X1641Y631D01*
X1614Y658D01*
X1567Y610D01*
X1614Y563D01*
X1648Y596D01*
X1648Y596D01*
X1653Y599D01*
X1715Y662D01*
X1751D01*
Y718D01*
Y742D01*
D02*
G37*
G36*
X1279Y1761D02*
X1231Y1713D01*
X1279Y1666D01*
X1292Y1679D01*
X1619Y1352D01*
Y935D01*
X1620Y929D01*
X1623Y924D01*
X1672Y875D01*
X1677Y872D01*
X1683Y871D01*
X1781D01*
Y797D01*
X1815D01*
Y617D01*
X1766Y567D01*
X1705D01*
X1673Y599D01*
X1625Y552D01*
X1673Y504D01*
X1705Y536D01*
X1772D01*
X1778Y538D01*
X1783Y541D01*
X1842Y599D01*
X1845Y604D01*
X1846Y610D01*
Y797D01*
X1880D01*
Y975D01*
X1781D01*
Y901D01*
X1689D01*
X1649Y941D01*
Y1358D01*
X1648Y1364D01*
X1645Y1369D01*
X1314Y1700D01*
X1326Y1713D01*
X1279Y1761D01*
D02*
G37*
G36*
X1836Y537D02*
Y507D01*
X1866D01*
X1863Y515D01*
X1859Y523D01*
X1852Y530D01*
X1844Y535D01*
X1836Y537D01*
D02*
G37*
G36*
X1826D02*
X1817Y535D01*
X1809Y530D01*
X1803Y523D01*
X1798Y515D01*
X1796Y507D01*
X1826D01*
Y537D01*
D02*
G37*
G36*
X1866Y497D02*
X1836D01*
Y467D01*
X1844Y469D01*
X1852Y474D01*
X1859Y480D01*
X1863Y488D01*
X1866Y497D01*
D02*
G37*
G36*
X1826D02*
X1796D01*
X1798Y488D01*
X1803Y480D01*
X1809Y474D01*
X1817Y469D01*
X1826Y467D01*
Y497D01*
D02*
G37*
G36*
X241Y1482D02*
X232D01*
X223Y1479D01*
X215Y1475D01*
X208Y1468D01*
X204Y1460D01*
X201Y1451D01*
Y1442D01*
X204Y1433D01*
X208Y1425D01*
X215Y1419D01*
X223Y1414D01*
X232Y1412D01*
X241D01*
X250Y1414D01*
X258Y1419D01*
X264Y1425D01*
X269Y1433D01*
X271Y1442D01*
Y1451D01*
X269Y1460D01*
X264Y1468D01*
X258Y1475D01*
X250Y1479D01*
X241Y1482D01*
D02*
G37*
G36*
X334Y1257D02*
X276D01*
Y1244D01*
X146D01*
X140Y1243D01*
X135Y1240D01*
X87Y1191D01*
X10D01*
Y1014D01*
X108D01*
Y1169D01*
X153Y1214D01*
X276D01*
Y1201D01*
Y1144D01*
X312D01*
X365Y1092D01*
X346Y1073D01*
X393Y1025D01*
X441Y1073D01*
X393Y1120D01*
X387Y1113D01*
X334Y1166D01*
Y1201D01*
Y1257D01*
D02*
G37*
G36*
X335Y1062D02*
X287Y1014D01*
X300Y1001D01*
X191Y891D01*
X108D01*
Y991D01*
X10D01*
Y814D01*
X108D01*
Y861D01*
X197D01*
X203Y862D01*
X208Y865D01*
X322Y979D01*
X335Y967D01*
X382Y1014D01*
X335Y1062D01*
D02*
G37*
G36*
X74Y754D02*
X64D01*
X55Y751D01*
X47Y747D01*
X41Y740D01*
X36Y732D01*
X34Y723D01*
Y714D01*
X36Y705D01*
X41Y697D01*
X47Y690D01*
X55Y686D01*
X64Y684D01*
X74D01*
X82Y686D01*
X90Y690D01*
X97Y697D01*
X102Y705D01*
X104Y714D01*
Y723D01*
X102Y732D01*
X97Y740D01*
X90Y747D01*
X82Y751D01*
X74Y754D01*
D02*
G37*
G36*
X1162Y1445D02*
X1129Y1411D01*
X1127Y1411D01*
X1122Y1408D01*
X1090Y1375D01*
X1054D01*
Y1319D01*
Y1296D01*
X1083D01*
X1112D01*
Y1319D01*
Y1354D01*
X1135Y1377D01*
X1162Y1349D01*
X1210Y1397D01*
X1162Y1445D01*
D02*
G37*
G36*
X1220Y1386D02*
X1173Y1339D01*
X1181Y1331D01*
X1121Y1271D01*
X1118Y1266D01*
X1117Y1260D01*
Y1237D01*
X1076Y1196D01*
X1043D01*
X1037Y1195D01*
X1032Y1192D01*
X993Y1153D01*
X990Y1148D01*
X989Y1142D01*
Y1096D01*
X955D01*
Y1022D01*
X935D01*
Y1096D01*
X836D01*
Y1022D01*
X672D01*
X667Y1021D01*
X662Y1018D01*
X613Y969D01*
X600Y982D01*
X553Y935D01*
X600Y887D01*
X648Y935D01*
X635Y948D01*
X679Y992D01*
X836D01*
Y918D01*
X935D01*
Y992D01*
X955D01*
Y918D01*
X1053D01*
Y992D01*
X1083D01*
X1185Y889D01*
Y472D01*
X1187Y467D01*
X1190Y462D01*
X1294Y358D01*
Y74D01*
X715D01*
X664Y125D01*
X659Y129D01*
X653Y130D01*
X388D01*
X339Y167D01*
X315Y136D01*
X311Y138D01*
X311Y142D01*
X310Y149D01*
X307Y156D01*
X303Y162D01*
X297Y166D01*
X290Y169D01*
X283Y170D01*
X276Y169D01*
X269Y166D01*
X263Y161D01*
X259Y156D01*
X256Y149D01*
X255Y142D01*
X256Y134D01*
X259Y128D01*
X264Y122D01*
X269Y118D01*
X276Y115D01*
X283Y114D01*
X291Y115D01*
X295Y117D01*
X298Y113D01*
X277Y84D01*
X275Y82D01*
X270Y83D01*
X260Y91D01*
X245Y71D01*
X266Y55D01*
X286Y40D01*
X299Y57D01*
X306Y58D01*
X338Y34D01*
X366Y72D01*
X306Y118D01*
X304Y121D01*
X305Y124D01*
X306Y126D01*
X312Y127D01*
X313Y127D01*
X373Y81D01*
X387Y99D01*
X647D01*
X698Y48D01*
X703Y45D01*
X709Y44D01*
X1653D01*
X1659Y45D01*
X1664Y48D01*
X1670Y54D01*
X1683Y41D01*
X1730Y89D01*
X1683Y136D01*
X1635Y89D01*
X1645Y79D01*
X1643Y74D01*
X1324D01*
Y364D01*
X1323Y370D01*
X1320Y375D01*
X1216Y479D01*
Y896D01*
X1215Y902D01*
X1212Y906D01*
X1100Y1018D01*
X1095Y1021D01*
X1089Y1022D01*
X1053D01*
Y1096D01*
X1019D01*
Y1135D01*
X1050Y1166D01*
X1083D01*
X1089Y1167D01*
X1093Y1170D01*
X1143Y1220D01*
X1146Y1224D01*
X1147Y1230D01*
Y1254D01*
X1203Y1309D01*
X1220Y1291D01*
X1268Y1339D01*
X1220Y1386D01*
D02*
G37*
G36*
X1112Y1286D02*
X1088D01*
Y1262D01*
X1112D01*
Y1286D01*
D02*
G37*
G36*
X1078D02*
X1054D01*
Y1262D01*
X1078D01*
Y1286D01*
D02*
G37*
G36*
X1117Y1167D02*
Y1137D01*
X1147D01*
X1145Y1145D01*
X1140Y1153D01*
X1134Y1160D01*
X1126Y1165D01*
X1117Y1167D01*
D02*
G37*
G36*
X1107D02*
X1099Y1165D01*
X1091Y1160D01*
X1084Y1153D01*
X1080Y1145D01*
X1077Y1137D01*
X1107D01*
Y1167D01*
D02*
G37*
G36*
X783Y1157D02*
Y1127D01*
X812D01*
X810Y1136D01*
X806Y1144D01*
X799Y1150D01*
X791Y1155D01*
X783Y1157D01*
D02*
G37*
G36*
X773D02*
X764Y1155D01*
X756Y1150D01*
X750Y1144D01*
X745Y1136D01*
X743Y1127D01*
X773D01*
Y1157D01*
D02*
G37*
G36*
X1147Y1127D02*
X1117D01*
Y1097D01*
X1126Y1099D01*
X1134Y1104D01*
X1140Y1110D01*
X1145Y1118D01*
X1147Y1127D01*
D02*
G37*
G36*
X1107D02*
X1077D01*
X1080Y1118D01*
X1084Y1110D01*
X1091Y1104D01*
X1099Y1099D01*
X1107Y1097D01*
Y1127D01*
D02*
G37*
G36*
X812Y1117D02*
X783D01*
Y1087D01*
X791Y1089D01*
X799Y1094D01*
X806Y1101D01*
X810Y1109D01*
X812Y1117D01*
D02*
G37*
G36*
X773D02*
X743D01*
X745Y1109D01*
X750Y1101D01*
X756Y1094D01*
X764Y1089D01*
X773Y1087D01*
Y1117D01*
D02*
G37*
G36*
X935Y896D02*
X891D01*
Y812D01*
X935D01*
Y896D01*
D02*
G37*
G36*
X881D02*
X836D01*
Y812D01*
X881D01*
Y896D01*
D02*
G37*
G36*
X1053D02*
X1009D01*
Y812D01*
X1053D01*
Y896D01*
D02*
G37*
G36*
X999D02*
X955D01*
Y812D01*
X999D01*
Y896D01*
D02*
G37*
G36*
X542Y924D02*
X494Y876D01*
X542Y829D01*
X559Y846D01*
X560Y846D01*
X561Y846D01*
X563Y846D01*
X689D01*
Y833D01*
Y810D01*
X718D01*
X747D01*
Y833D01*
Y890D01*
X689D01*
Y876D01*
X589D01*
X542Y924D01*
D02*
G37*
G36*
X747Y800D02*
X723D01*
Y776D01*
X747D01*
Y800D01*
D02*
G37*
G36*
X713D02*
X689D01*
Y776D01*
X713D01*
Y800D01*
D02*
G37*
G36*
X1053Y802D02*
X1009D01*
Y718D01*
X1053D01*
Y802D01*
D02*
G37*
G36*
X999D02*
X955D01*
Y718D01*
X999D01*
Y802D01*
D02*
G37*
G36*
X935Y802D02*
X891D01*
Y718D01*
X935D01*
Y802D01*
D02*
G37*
G36*
X881D02*
X836D01*
Y718D01*
X881D01*
Y802D01*
D02*
G37*
G36*
X1117Y714D02*
Y684D01*
X1147D01*
X1145Y693D01*
X1140Y701D01*
X1134Y707D01*
X1126Y712D01*
X1117Y714D01*
D02*
G37*
G36*
X1107D02*
X1099Y712D01*
X1091Y707D01*
X1084Y701D01*
X1080Y693D01*
X1077Y684D01*
X1107D01*
Y714D01*
D02*
G37*
G36*
X783D02*
Y684D01*
X812D01*
X810Y693D01*
X806Y701D01*
X799Y707D01*
X791Y712D01*
X783Y714D01*
D02*
G37*
G36*
X773D02*
X764Y712D01*
X756Y707D01*
X750Y701D01*
X745Y693D01*
X743Y684D01*
X773D01*
Y714D01*
D02*
G37*
G36*
X1147Y674D02*
X1117D01*
Y644D01*
X1126Y647D01*
X1134Y651D01*
X1140Y658D01*
X1145Y666D01*
X1147Y674D01*
D02*
G37*
G36*
X1107D02*
X1077D01*
X1080Y666D01*
X1084Y658D01*
X1091Y651D01*
X1099Y647D01*
X1107Y644D01*
Y674D01*
D02*
G37*
G36*
X812D02*
X783D01*
Y644D01*
X791Y647D01*
X799Y651D01*
X806Y658D01*
X810Y666D01*
X812Y674D01*
D02*
G37*
G36*
X773D02*
X743D01*
X745Y666D01*
X750Y658D01*
X756Y651D01*
X764Y647D01*
X773Y644D01*
Y674D01*
D02*
G37*
G36*
X372Y366D02*
X357Y346D01*
X374Y334D01*
X389Y353D01*
X372Y366D01*
D02*
G37*
G36*
X397Y347D02*
X382Y328D01*
X399Y315D01*
X413Y335D01*
X397Y347D01*
D02*
G37*
G36*
X351Y338D02*
X337Y318D01*
X353Y306D01*
X368Y326D01*
X351Y338D01*
D02*
G37*
G36*
X433Y320D02*
X418Y300D01*
X435Y288D01*
X449Y308D01*
X433Y320D01*
D02*
G37*
G36*
X376Y320D02*
X361Y300D01*
X378Y287D01*
X392Y307D01*
X376Y320D01*
D02*
G37*
G36*
X457Y302D02*
X443Y282D01*
X459Y269D01*
X474Y289D01*
X457Y302D01*
D02*
G37*
G36*
X1033Y324D02*
X950D01*
Y241D01*
X1033D01*
Y324D01*
D02*
G37*
G36*
X940D02*
X857D01*
Y241D01*
X940D01*
Y324D01*
D02*
G37*
G36*
X1624Y195D02*
X1592Y163D01*
X1533D01*
Y167D01*
X1453D01*
Y138D01*
Y109D01*
X1533D01*
Y132D01*
X1592D01*
X1624Y100D01*
X1672Y147D01*
X1624Y195D01*
D02*
G37*
G36*
X1033Y231D02*
X950D01*
Y148D01*
X1033D01*
Y231D01*
D02*
G37*
G36*
X940D02*
X857D01*
Y148D01*
X940D01*
Y231D01*
D02*
G37*
G36*
X1443Y167D02*
X1420D01*
Y143D01*
X1443D01*
Y167D01*
D02*
G37*
G36*
X1261Y292D02*
X1149D01*
Y200D01*
X1098Y114D01*
X776D01*
X726Y198D01*
X730Y202D01*
X737Y215D01*
X741Y229D01*
Y244D01*
X737Y258D01*
X730Y271D01*
X719Y281D01*
X707Y289D01*
X692Y292D01*
X677D01*
X663Y289D01*
X650Y281D01*
X640Y271D01*
X632Y258D01*
X629Y244D01*
Y238D01*
X613Y234D01*
X456Y226D01*
X441Y238D01*
X438Y242D01*
X440Y244D01*
X453Y261D01*
X433Y277D01*
X412Y292D01*
X397Y273D01*
X407Y265D01*
X408Y258D01*
X387Y230D01*
X382Y232D01*
X382Y236D01*
X381Y244D01*
X378Y250D01*
X374Y256D01*
X368Y261D01*
X361Y263D01*
X354Y264D01*
X347Y263D01*
X340Y260D01*
X334Y256D01*
X330Y250D01*
X327Y243D01*
X326Y236D01*
X327Y229D01*
X330Y222D01*
X335Y216D01*
X341Y212D01*
X347Y209D01*
X355Y208D01*
X362Y209D01*
X369Y212D01*
X374Y217D01*
X377Y221D01*
X383Y222D01*
X384Y221D01*
X444Y176D01*
X460Y196D01*
X616Y204D01*
X617Y204D01*
X619Y204D01*
X636Y208D01*
X640Y202D01*
X650Y191D01*
X663Y184D01*
X677Y180D01*
X692D01*
X700Y182D01*
X755Y91D01*
X756Y89D01*
X757Y88D01*
X758Y87D01*
X759Y86D01*
X760Y85D01*
X762Y84D01*
X763Y84D01*
X764Y84D01*
X766Y83D01*
X768Y83D01*
X1106D01*
X1108Y84D01*
X1110Y84D01*
X1111Y84D01*
X1112Y84D01*
X1114Y85D01*
X1115Y86D01*
X1116Y87D01*
X1117Y88D01*
X1118Y89D01*
X1119Y91D01*
X1173Y180D01*
X1261D01*
Y292D01*
D02*
G37*
G36*
X1443Y133D02*
X1420D01*
Y109D01*
X1443D01*
Y133D01*
D02*
G37*
G36*
X199Y136D02*
X184Y117D01*
X201Y104D01*
X216Y124D01*
X199Y136D01*
D02*
G37*
G36*
X224Y118D02*
X209Y98D01*
X226Y86D01*
X240Y105D01*
X224Y118D01*
D02*
G37*
G36*
X178Y109D02*
X164Y89D01*
X180Y76D01*
X195Y96D01*
X178Y109D01*
D02*
G37*
G36*
X203Y90D02*
X188Y70D01*
X205Y58D01*
X220Y78D01*
X203Y90D01*
D02*
G37*
G36*
X239Y63D02*
X224Y43D01*
X241Y31D01*
X256Y50D01*
X239Y63D01*
D02*
G37*
G36*
X264Y44D02*
X249Y25D01*
X265Y12D01*
X280Y32D01*
X264Y44D01*
D02*
G37*
%LPD*%
D11*
X555Y863D02*
X558Y859D01*
X558Y859D01*
X1683Y89D02*
X1683D01*
X1505Y138D02*
X1514Y147D01*
X393Y1073D02*
Y1085D01*
D13*
X945Y236D02*
D03*
D14*
X356Y124D02*
D03*
X321Y77D02*
D03*
X427Y218D02*
D03*
D15*
X436Y281D02*
D03*
X263Y51D02*
D03*
X375Y327D02*
D03*
X202Y97D02*
D03*
D16*
X1722Y747D02*
D03*
Y690D02*
D03*
X1083Y1347D02*
D03*
Y1291D02*
D03*
X718Y861D02*
D03*
Y805D02*
D03*
X305Y1173D02*
D03*
Y1229D02*
D03*
X1378Y1780D02*
D03*
Y1724D02*
D03*
D17*
X1004Y807D02*
D03*
Y1007D02*
D03*
X886Y807D02*
D03*
Y1007D02*
D03*
X1831Y1086D02*
D03*
Y886D02*
D03*
X59Y902D02*
D03*
Y1102D02*
D03*
D18*
X1279Y1713D02*
D03*
X1220Y1772D02*
D03*
Y1339D02*
D03*
X1162Y1397D02*
D03*
X1683Y89D02*
D03*
X1624Y147D02*
D03*
X1673Y552D02*
D03*
X1614Y610D02*
D03*
D19*
X600Y935D02*
D03*
X542Y876D02*
D03*
X335Y1014D02*
D03*
X393Y1073D02*
D03*
D20*
X1505Y138D02*
D03*
X1448D02*
D03*
D25*
X354Y236D02*
D03*
X283Y142D02*
D03*
D28*
X768Y98D02*
X1106D01*
X1164Y195D02*
X1205Y236D01*
X1106Y98D02*
X1164Y195D01*
X685Y236D02*
X768Y98D01*
X427Y218D02*
X452Y211D01*
X615Y219D01*
X685Y236D01*
X1211Y1339D02*
X1220D01*
X1132Y1260D02*
X1211Y1339D01*
X1132Y1230D02*
Y1260D01*
X1083Y1181D02*
X1132Y1230D01*
X1043Y1181D02*
X1083D01*
X1004Y1142D02*
X1043Y1181D01*
X1004Y1007D02*
Y1142D01*
X1133Y1397D02*
X1162D01*
X1083Y1347D02*
X1133Y1397D01*
X1083Y1347D02*
X1083D01*
X557Y865D02*
X560Y861D01*
X563Y861D02*
X718D01*
X547Y876D02*
X563Y861D01*
X542Y876D02*
X547D01*
X600Y935D02*
X672Y1007D01*
X886D01*
X600Y935D02*
X600D01*
X886Y1007D02*
X1004D01*
X1089D01*
X1201Y896D01*
Y472D02*
Y896D01*
Y472D02*
X1309Y364D01*
Y59D02*
Y364D01*
X1514Y147D02*
X1624D01*
X1309Y59D02*
X1653D01*
X709D02*
X1309D01*
X1653D02*
X1683Y89D01*
X1683D01*
X366Y115D02*
X653D01*
X709Y59D01*
X356Y124D02*
X366Y115D01*
X1627Y610D02*
X1642D01*
X1722Y690D01*
X1722D01*
X1673Y552D02*
X1772D01*
X1831Y610D02*
Y886D01*
X1772Y552D02*
X1831Y610D01*
X1683Y886D02*
X1831D01*
X1634Y935D02*
X1683Y886D01*
X1634Y935D02*
Y1358D01*
X1279Y1713D02*
Y1713D01*
Y1713D02*
X1634Y1358D01*
X1247Y1772D02*
X1266Y1791D01*
X1367D01*
X1220Y1772D02*
X1247D01*
X1367Y1791D02*
X1378Y1780D01*
X59Y902D02*
X85Y876D01*
X197D01*
X335Y1014D01*
X306Y1173D02*
X393Y1085D01*
X305Y1173D02*
X306D01*
X146Y1229D02*
X305D01*
X59Y1142D02*
X146Y1229D01*
X59Y1102D02*
Y1142D01*
D29*
X685Y236D02*
D03*
D30*
X1205D02*
D03*
D31*
X1294Y1495D02*
D03*
X1276Y1519D02*
D03*
X1257Y1542D02*
D03*
X1240Y1565D02*
D03*
X1223Y1588D02*
D03*
X721Y1545D02*
D03*
X703Y1522D02*
D03*
X686Y1499D02*
D03*
X669Y1476D02*
D03*
X650Y1454D02*
D03*
X1169Y1538D02*
D03*
X1187Y1515D02*
D03*
X1204Y1492D02*
D03*
X1221Y1469D02*
D03*
X1240Y1447D02*
D03*
X598Y1492D02*
D03*
X616Y1516D02*
D03*
X635Y1539D02*
D03*
X652Y1562D02*
D03*
X669Y1585D02*
D03*
D32*
X1112Y679D02*
D03*
Y1132D02*
D03*
X778Y679D02*
D03*
Y1122D02*
D03*
X236Y1447D02*
D03*
X69Y719D02*
D03*
X1831Y502D02*
D03*
X1811Y1250D02*
D03*
M02*
