%TF.GenerationSoftware,Altium Limited,Altium Designer,23.1.1 (15)*%
G04 Layer_Color=16711935*
%FSLAX42Y42*%
%MOMM*%
%TF.SameCoordinates,B28E977E-5D45-45F3-9009-D632A0DEB075*%
%TF.FilePolarity,Positive*%
%TF.FileFunction,Other,Bottom_Courtyard*%
%TF.Part,Single*%
G01*
G75*
%TA.AperFunction,NonConductor*%
%ADD26C,0.00*%
D26*
X1106Y746D02*
X1354Y994D01*
X1244Y1104D02*
X1354Y994D01*
X996Y856D02*
X1244Y1104D01*
X996Y856D02*
X1106Y746D01*
X1332Y1348D02*
X1618D01*
X1332Y1202D02*
Y1348D01*
Y1202D02*
X1618D01*
Y1348D01*
X4343Y2877D02*
Y3023D01*
X4057Y2877D02*
X4343D01*
X4057D02*
Y3023D01*
X4343D01*
X3171Y2369D02*
X3281Y2479D01*
X3529Y2231D01*
X3419Y2121D02*
X3529Y2231D01*
X3171Y2369D02*
X3419Y2121D01*
X1621Y3431D02*
X1731Y3321D01*
X1621Y3431D02*
X1869Y3679D01*
X1979Y3569D01*
X1731Y3321D02*
X1979Y3569D01*
X2927Y2643D02*
X3073D01*
Y2357D02*
Y2643D01*
X2927Y2357D02*
X3073D01*
X2927D02*
Y2643D01*
X1927Y3157D02*
X2073D01*
X1927D02*
Y3443D01*
X2073D01*
Y3157D02*
Y3443D01*
X147Y907D02*
X257Y797D01*
X147Y907D02*
X395Y1154D01*
X504Y1045D01*
X257Y797D02*
X504Y1045D01*
X1694Y4504D02*
X1804Y4394D01*
X1556Y4146D02*
X1804Y4394D01*
X1446Y4256D02*
X1556Y4146D01*
X1446Y4256D02*
X1694Y4504D01*
X3771Y2769D02*
X3881Y2879D01*
X4129Y2631D01*
X4019Y2521D02*
X4129Y2631D01*
X3771Y2769D02*
X4019Y2521D01*
X177Y1472D02*
X323D01*
Y1185D02*
Y1472D01*
X177Y1185D02*
X323D01*
X177D02*
Y1472D01*
X1157Y4452D02*
Y4598D01*
X1443D01*
Y4452D02*
Y4598D01*
X1157Y4452D02*
X1443D01*
%TF.MD5,e1a78a33a43c87f90fb48919dfc16527*%
M02*
