G04*
G04 #@! TF.GenerationSoftware,Altium Limited,Altium Designer,23.1.1 (15)*
G04*
G04 Layer_Color=65535*
%FSLAX23Y23*%
%MOIN*%
G70*
G04*
G04 #@! TF.SameCoordinates,7DB063E5-64DA-4751-B351-23BD0CB7D004*
G04*
G04*
G04 #@! TF.FilePolarity,Positive*
G04*
G01*
G75*
%ADD10C,0.010*%
%ADD11C,0.000*%
%ADD12C,0.039*%
D10*
X1278Y236D02*
G03*
X1278Y236I-5J0D01*
G01*
X474Y187D02*
G03*
X474Y187I-5J0D01*
G01*
X1193Y1804D02*
G03*
X1193Y1804I-5J0D01*
G01*
X1134Y1430D02*
G03*
X1134Y1430I-5J0D01*
G01*
X514Y844D02*
G03*
X514Y844I-5J0D01*
G01*
X1597Y180D02*
G03*
X1597Y180I-5J0D01*
G01*
X431Y1105D02*
G03*
X431Y1105I-5J0D01*
G01*
X1586Y643D02*
G03*
X1586Y643I-5J0D01*
G01*
D11*
X685Y384D02*
X804Y501D01*
X1085D02*
X1205Y384D01*
Y298D02*
Y384D01*
X804Y501D02*
X1085D01*
X685Y26D02*
X1205D01*
Y174D01*
X685Y298D02*
Y384D01*
Y26D02*
Y174D01*
X359Y157D02*
X396Y206D01*
X324Y110D02*
X325Y112D01*
X151Y150D02*
X185Y125D01*
X233Y88D02*
X245Y79D01*
X151Y150D02*
X310Y361D01*
X343Y336D01*
X392Y299D02*
X404Y290D01*
X1415Y1722D02*
Y1781D01*
X1343Y1722D02*
Y1781D01*
X1685Y689D02*
Y748D01*
X1758Y689D02*
Y748D01*
X1189Y1424D02*
X1248Y1366D01*
X569Y849D02*
X627Y908D01*
X514Y903D02*
X573Y962D01*
X1597Y120D02*
X1656Y62D01*
X1651Y174D02*
X1710Y116D01*
X964Y707D02*
X1064D01*
Y1107D01*
X964D02*
X1064D01*
X826Y707D02*
X926D01*
X826D02*
Y1107D01*
X926D01*
X1120Y1289D02*
Y1348D01*
X1047Y1289D02*
Y1348D01*
X755Y803D02*
Y863D01*
X682Y803D02*
Y863D01*
X1447Y100D02*
X1506D01*
X1447Y173D02*
X1506D01*
X308Y1041D02*
X366Y1100D01*
X362Y987D02*
X421Y1045D01*
X1587Y583D02*
X1645Y525D01*
X1641Y637D02*
X1700Y579D01*
X19Y1202D02*
X119D01*
Y802D02*
Y1202D01*
X19Y802D02*
X119D01*
X1771Y1186D02*
X1871D01*
X1771Y786D02*
Y1186D01*
Y786D02*
X1871D01*
X268Y1171D02*
Y1230D01*
X341Y1171D02*
Y1230D01*
X157Y1299D02*
Y1890D01*
X0Y1299D02*
X157D01*
X1193Y1745D02*
X1252Y1686D01*
X1248Y1799D02*
X1306Y1740D01*
X1135Y1370D02*
X1193Y1311D01*
D12*
X276Y736D02*
X287Y717D01*
X300Y719D01*
X479Y714D01*
X244Y709D02*
X479Y714D01*
X244Y709D02*
X252Y720D01*
X284Y771D01*
X390Y1205D02*
X406Y1181D01*
X358Y1177D02*
X559Y1182D01*
X358Y1177D02*
X366Y1193D01*
X403Y1243D01*
X1543Y717D02*
X1608Y739D01*
X1543Y717D02*
X1646Y713D01*
X1642Y720D02*
X1646Y713D01*
X1594Y799D02*
X1642Y720D01*
X1474Y1189D02*
X1487Y1199D01*
X1491Y1203D02*
X1512Y1219D01*
X1489Y1249D02*
X1535Y1189D01*
X1335Y1186D02*
X1535Y1189D01*
X996Y1890D02*
X1203Y1616D01*
X1323Y1469D02*
X1489Y1249D01*
X1335Y1186D02*
X1594Y799D01*
X1415Y718D02*
X1555Y717D01*
X1415Y718D02*
X1890Y79D01*
Y1890D01*
X996D02*
X1890D01*
X157D02*
X894D01*
X157Y1299D02*
Y1890D01*
X0Y1299D02*
X157D01*
X0Y63D02*
Y1299D01*
Y63D02*
X479Y714D01*
X287Y775D02*
X559Y1182D01*
X404Y1245D02*
X894Y1890D01*
X582Y784D02*
X606Y764D01*
X1299Y769D02*
X1318Y792D01*
X49Y0D02*
X1841D01*
X1256Y799D02*
X1500Y796D01*
X1256Y799D02*
X1268Y783D01*
X1315Y720D01*
X618Y791D02*
X626D01*
X634D01*
X581Y719D02*
X634Y791D01*
X394Y793D02*
X626Y791D01*
X665Y1200D02*
X699Y1260D01*
X515Y1261D02*
X699Y1260D01*
X1191D02*
X1227Y1206D01*
X1191Y1260D02*
X1379Y1265D01*
X49Y0D02*
X581Y719D01*
X394Y793D02*
X665Y1200D01*
X1229Y1204D02*
X1500Y796D01*
X1309Y728D02*
X1841Y0D01*
X1260Y1417D02*
X1379Y1265D01*
X515Y1261D02*
X635Y1419D01*
X750Y1570D02*
X945Y1825D01*
X1146Y1565D01*
M02*
