%TF.GenerationSoftware,Altium Limited,Altium Designer,23.1.1 (15)*%
G04 Layer_Color=0*
%FSLAX42Y42*%
%MOMM*%
%TF.SameCoordinates,B28E977E-5D45-45F3-9009-D632A0DEB075*%
%TF.FilePolarity,Positive*%
%TF.FileFunction,Other,Top_Component_Center*%
%TF.Part,Single*%
G01*
G75*
%TA.AperFunction,NonConductor*%
%ADD26C,0.00*%
D26*
X700Y459D02*
X799Y591D01*
X684Y575D02*
X816Y476D01*
X3139Y4390D02*
X3210Y4461D01*
X3139D02*
X3210Y4390D01*
X2990Y3439D02*
X3061Y3510D01*
X2990D02*
X3061Y3439D01*
X1415Y2335D02*
X1485Y2265D01*
X1415D02*
X1485Y2335D01*
X4165Y265D02*
X4235Y335D01*
X4165D02*
X4235Y265D01*
X2700Y3350D02*
X2800D01*
X2750Y3300D02*
Y3400D01*
X1774Y2116D02*
X1874D01*
X1824Y2066D02*
Y2166D01*
X3750Y300D02*
Y400D01*
X3700Y350D02*
X3800D01*
X890Y2685D02*
X960Y2615D01*
X890D02*
X960Y2685D01*
X4139Y1440D02*
X4210Y1511D01*
X4139D02*
X4210Y1440D01*
X725Y3050D02*
X825D01*
X775Y3000D02*
Y3100D01*
X3450Y4450D02*
X3550D01*
X3500Y4400D02*
Y4500D01*
X4325Y1825D02*
X4425D01*
X4375Y1775D02*
Y1875D01*
%TF.MD5,381f2b15532b3167ad10da1f134f70cd*%
M02*
