%TF.GenerationSoftware,Altium Limited,Altium Designer,23.1.1 (15)*%
G04 Layer_Color=32768*
%FSLAX42Y42*%
%MOMM*%
%TF.SameCoordinates,B28E977E-5D45-45F3-9009-D632A0DEB075*%
%TF.FilePolarity,Positive*%
%TF.FileFunction,Other,Top_Courtyard*%
%TF.Part,Single*%
G01*
G75*
%TA.AperFunction,NonConductor*%
%ADD26C,0.00*%
D26*
X762Y-16D02*
X1273Y663D01*
X322Y315D02*
X762Y-16D01*
X322Y315D02*
X834Y994D01*
X1273Y663D01*
X848Y2907D02*
Y3193D01*
X3427Y4307D02*
X3573D01*
Y4593D01*
X3427D02*
X3573D01*
X3427Y4307D02*
Y4593D01*
X4302Y1968D02*
X4448D01*
X4302Y1682D02*
Y1968D01*
Y1682D02*
X4448D01*
Y1968D01*
X2677Y3207D02*
X2823D01*
Y3493D01*
X2677D02*
X2823D01*
X2677Y3207D02*
Y3493D01*
X1750Y1972D02*
X1897D01*
Y2259D01*
X1750D02*
X1897D01*
X1750Y1972D02*
Y2259D01*
X3607Y277D02*
Y423D01*
Y277D02*
X3893D01*
Y423D01*
X3607D02*
X3893D01*
X994Y2829D02*
X1104Y2719D01*
X746Y2581D02*
X994Y2829D01*
X746Y2581D02*
X856Y2471D01*
X1104Y2719D01*
X3996Y1545D02*
X4105Y1654D01*
X3996Y1545D02*
X4243Y1297D01*
X4353Y1407D01*
X4105Y1654D02*
X4353Y1407D01*
X702Y3193D02*
X848D01*
X702Y2907D02*
Y3193D01*
Y2907D02*
X848D01*
X2996Y4495D02*
X3105Y4604D01*
X2996Y4495D02*
X3243Y4247D01*
X3353Y4357D01*
X3105Y4604D02*
X3353Y4357D01*
X2847Y3543D02*
X2957Y3653D01*
X2847Y3543D02*
X3095Y3296D01*
X3204Y3405D01*
X2957Y3653D02*
X3204Y3405D01*
X1271Y2231D02*
X1381Y2121D01*
X1629Y2369D01*
X1519Y2479D02*
X1629Y2369D01*
X1271Y2231D02*
X1519Y2479D01*
X4021Y369D02*
X4131Y479D01*
X4021Y369D02*
X4269Y121D01*
X4379Y231D01*
X4131Y479D02*
X4379Y231D01*
%TF.MD5,153ad03467b50581678cb7df609d3572*%
M02*
