%TF.GenerationSoftware,Altium Limited,Altium Designer,23.1.1 (15)*%
G04 Layer_Color=8388736*
%FSLAX42Y42*%
%MOMM*%
%TF.SameCoordinates,B28E977E-5D45-45F3-9009-D632A0DEB075*%
%TF.FilePolarity,Negative*%
%TF.FileFunction,Soldermask,Top*%
%TF.Part,Single*%
G01*
G75*
%TA.AperFunction,SMDPad,CuDef*%
G04:AMPARAMS|DCode=11|XSize=0.7mm|YSize=1.5mm|CornerRadius=0mm|HoleSize=0mm|Usage=FLASHONLY|Rotation=233.000|XOffset=0mm|YOffset=0mm|HoleType=Round|Shape=Rectangle|*
%AMROTATEDRECTD11*
4,1,4,-0.39,0.73,0.81,-0.17,0.39,-0.73,-0.81,0.17,-0.39,0.73,0.0*
%
%ADD11ROTATEDRECTD11*%

G04:AMPARAMS|DCode=12|XSize=1mm|YSize=0.8mm|CornerRadius=0mm|HoleSize=0mm|Usage=FLASHONLY|Rotation=233.000|XOffset=0mm|YOffset=0mm|HoleType=Round|Shape=Rectangle|*
%AMROTATEDRECTD12*
4,1,4,-0.02,0.64,0.62,0.16,0.02,-0.64,-0.62,-0.16,-0.02,0.64,0.0*
%
%ADD12ROTATEDRECTD12*%

%ADD13R,0.96X0.94*%
%ADD15P,1.70X4X360.0*%
%ADD16P,1.70X4X90.0*%
%ADD17R,0.94X0.96*%
%TA.AperFunction,ComponentPad*%
%ADD22C,0.90*%
%TA.AperFunction,SMDPad,CuDef*%
%ADD28R,4.16X4.16*%
%ADD29R,2.20X4.20*%
%TA.AperFunction,ComponentPad*%
%ADD30C,2.55*%
%ADD31R,2.55X2.55*%
%TA.AperFunction,ViaPad*%
%ADD32C,0.70*%
%ADD33C,1.47*%
D11*
X904Y315D02*
D03*
X814Y195D02*
D03*
X1085Y555D02*
D03*
D12*
X1106Y714D02*
D03*
X667Y131D02*
D03*
X952Y830D02*
D03*
X513Y247D02*
D03*
D13*
X4375Y1897D02*
D03*
Y1753D02*
D03*
X2750Y3422D02*
D03*
Y3278D02*
D03*
X1824Y2187D02*
D03*
Y2044D02*
D03*
X775Y2978D02*
D03*
Y3122D02*
D03*
X3500Y4522D02*
D03*
Y4378D02*
D03*
D15*
X3248Y4352D02*
D03*
X3100Y4500D02*
D03*
Y3400D02*
D03*
X2952Y3548D02*
D03*
X4274Y226D02*
D03*
X4126Y374D02*
D03*
X4248Y1402D02*
D03*
X4100Y1550D02*
D03*
D16*
X1524Y2374D02*
D03*
X1376Y2226D02*
D03*
X851Y2576D02*
D03*
X999Y2724D02*
D03*
D17*
X3822Y350D02*
D03*
X3678D02*
D03*
D22*
X900Y600D02*
D03*
X719Y360D02*
D03*
D28*
X2400Y600D02*
D03*
D29*
X2550Y2050D02*
D03*
Y2558D02*
D03*
X2250Y2050D02*
D03*
Y2558D02*
D03*
X4650Y2758D02*
D03*
Y2250D02*
D03*
X150Y2292D02*
D03*
Y2800D02*
D03*
D30*
X1740Y600D02*
D03*
D31*
X3060D02*
D03*
D32*
X3287Y3797D02*
D03*
X3241Y3858D02*
D03*
X3193Y3917D02*
D03*
X3150Y3975D02*
D03*
X3107Y4033D02*
D03*
X1832Y3925D02*
D03*
X1786Y3867D02*
D03*
X1743Y3808D02*
D03*
X1700Y3750D02*
D03*
X1652Y3694D02*
D03*
X2970Y3906D02*
D03*
X3015Y3848D02*
D03*
X3059Y3789D02*
D03*
X3102Y3731D02*
D03*
X3150Y3675D02*
D03*
X1520Y3789D02*
D03*
X1565Y3850D02*
D03*
X1614Y3908D02*
D03*
X1657Y3967D02*
D03*
X1700Y4025D02*
D03*
D33*
X2825Y1725D02*
D03*
Y2875D02*
D03*
X1975Y1725D02*
D03*
Y2850D02*
D03*
X600Y3675D02*
D03*
X175Y1825D02*
D03*
X4650Y1275D02*
D03*
X4600Y3175D02*
D03*
%TF.MD5,d0aad66c1930704d94c9c0fc4d289f21*%
M02*
