G04*
G04 #@! TF.GenerationSoftware,Altium Limited,Altium Designer,23.1.1 (15)*
G04*
G04 Layer_Color=16711935*
%FSLAX23Y23*%
%MOIN*%
G70*
G04*
G04 #@! TF.SameCoordinates,7DB063E5-64DA-4751-B351-23BD0CB7D004*
G04*
G04*
G04 #@! TF.FilePolarity,Positive*
G04*
G01*
G75*
%ADD11C,0.000*%
G36*
X316Y189D02*
X317Y189D01*
X317Y189D01*
X317Y189D01*
X317Y189D01*
X317Y189D01*
X318Y189D01*
X319Y189D01*
X319Y188D01*
X320Y188D01*
X321Y187D01*
X319Y185D01*
X319Y185D01*
X319Y185D01*
X319Y185D01*
X319Y185D01*
X319Y185D01*
X318Y185D01*
X318Y185D01*
X317Y186D01*
X317Y186D01*
X316Y186D01*
X316Y186D01*
X316Y186D01*
X316Y186D01*
X315Y186D01*
X315Y186D01*
X314Y186D01*
X314Y185D01*
X313Y185D01*
X313Y185D01*
X313Y185D01*
X313Y185D01*
X313Y185D01*
X312Y185D01*
X312Y184D01*
X312Y184D01*
X311Y184D01*
X311Y183D01*
X310Y182D01*
X310Y182D01*
X310Y182D01*
X309Y181D01*
X309Y181D01*
X309Y180D01*
X309Y180D01*
X309Y179D01*
X309Y179D01*
X308Y179D01*
X308Y179D01*
X308Y178D01*
X308Y178D01*
X308Y178D01*
X308Y177D01*
X308Y177D01*
X308Y177D01*
X309Y176D01*
X309Y176D01*
X309Y176D01*
X309Y176D01*
X309Y175D01*
X309Y175D01*
X310Y175D01*
X310Y175D01*
X310Y175D01*
X310Y175D01*
X310Y174D01*
X311Y174D01*
X311Y174D01*
X311Y174D01*
X312Y174D01*
X312Y174D01*
X312Y174D01*
X312Y174D01*
X313Y174D01*
X313Y174D01*
X313Y175D01*
X314Y175D01*
X314Y175D01*
X314Y175D01*
X315Y175D01*
X315Y175D01*
X315Y176D01*
X315Y176D01*
X315Y176D01*
X316Y176D01*
X316Y176D01*
X316Y177D01*
X317Y177D01*
X317Y177D01*
X318Y178D01*
X318Y178D01*
X318Y178D01*
X318Y178D01*
X318Y178D01*
X318Y178D01*
X319Y178D01*
X319Y179D01*
X320Y179D01*
X320Y180D01*
X321Y180D01*
X322Y181D01*
X322Y181D01*
X322Y181D01*
X322Y181D01*
X322Y181D01*
X323Y181D01*
X323Y181D01*
X323Y181D01*
X324Y181D01*
X324Y182D01*
X325Y182D01*
X326Y182D01*
X326Y182D01*
X326Y182D01*
X326Y181D01*
X327Y181D01*
X327Y181D01*
X328Y181D01*
X328Y181D01*
X329Y180D01*
X329Y180D01*
X329Y180D01*
X329Y180D01*
X329Y180D01*
X329Y180D01*
X330Y180D01*
X330Y179D01*
X330Y179D01*
X331Y178D01*
X331Y177D01*
X331Y177D01*
X331Y177D01*
X331Y177D01*
X331Y177D01*
X331Y176D01*
X331Y176D01*
X331Y175D01*
X331Y174D01*
X331Y173D01*
X331Y173D01*
X331Y173D01*
X331Y173D01*
X331Y173D01*
X331Y173D01*
X331Y173D01*
X331Y172D01*
X330Y171D01*
X330Y171D01*
X330Y170D01*
X329Y169D01*
X329Y169D01*
X329Y169D01*
X328Y168D01*
X328Y168D01*
X327Y167D01*
X327Y167D01*
X326Y166D01*
X325Y166D01*
X325Y166D01*
X325Y166D01*
X325Y166D01*
X325Y166D01*
X325Y165D01*
X324Y165D01*
X323Y165D01*
X323Y165D01*
X322Y165D01*
X321Y165D01*
X321Y165D01*
X321Y165D01*
X321Y165D01*
X321Y165D01*
X320Y165D01*
X320Y165D01*
X319Y165D01*
X319Y165D01*
X318Y166D01*
X317Y166D01*
X319Y169D01*
X319Y169D01*
X319Y169D01*
X319Y169D01*
X319Y169D01*
X320Y168D01*
X320Y168D01*
X321Y168D01*
X322Y168D01*
X322Y168D01*
X323Y168D01*
X323Y168D01*
X323Y168D01*
X324Y168D01*
X324Y169D01*
X325Y169D01*
X325Y169D01*
X326Y170D01*
X327Y171D01*
X327Y171D01*
X327Y171D01*
X327Y172D01*
X327Y172D01*
X328Y173D01*
X328Y174D01*
X328Y174D01*
X328Y175D01*
X328Y175D01*
X328Y175D01*
X328Y175D01*
X328Y176D01*
X328Y176D01*
X328Y176D01*
X328Y177D01*
X327Y177D01*
X327Y178D01*
X327Y178D01*
X327Y178D01*
X327Y178D01*
X326Y178D01*
X326Y178D01*
X326Y178D01*
X325Y178D01*
X325Y178D01*
X325Y178D01*
X324Y178D01*
X324Y178D01*
X324Y178D01*
X324Y178D01*
X324Y178D01*
X323Y178D01*
X323Y177D01*
X323Y177D01*
X322Y177D01*
X322Y177D01*
X321Y176D01*
X321Y176D01*
X320Y175D01*
X320Y175D01*
X320Y175D01*
X320Y175D01*
X320Y175D01*
X319Y175D01*
X319Y174D01*
X319Y174D01*
X318Y174D01*
X318Y173D01*
X317Y173D01*
X316Y172D01*
X316Y172D01*
X316Y172D01*
X316Y172D01*
X316Y172D01*
X315Y172D01*
X315Y172D01*
X315Y172D01*
X315Y171D01*
X314Y171D01*
X314Y171D01*
X313Y171D01*
X312Y171D01*
X311Y171D01*
X311Y171D01*
X311Y171D01*
X311Y171D01*
X310Y171D01*
X310Y171D01*
X309Y171D01*
X309Y172D01*
X308Y172D01*
X308Y172D01*
X308Y172D01*
X308Y172D01*
X308Y172D01*
X307Y173D01*
X307Y173D01*
X307Y173D01*
X306Y174D01*
X306Y175D01*
X306Y175D01*
X306Y175D01*
X306Y175D01*
X306Y176D01*
X305Y176D01*
X305Y177D01*
X305Y177D01*
X305Y178D01*
X305Y179D01*
X306Y180D01*
X306Y180D01*
X306Y180D01*
X306Y180D01*
X306Y180D01*
X306Y180D01*
X306Y180D01*
X306Y181D01*
X306Y182D01*
X307Y182D01*
X307Y183D01*
X308Y184D01*
X308Y185D01*
X308Y185D01*
X308Y185D01*
X309Y185D01*
X309Y186D01*
X310Y186D01*
X310Y187D01*
X311Y188D01*
X312Y188D01*
X312Y188D01*
X312Y188D01*
X312Y188D01*
X312Y188D01*
X313Y188D01*
X313Y189D01*
X314Y189D01*
X315Y189D01*
X316Y189D01*
X316Y189D01*
X316Y189D01*
D02*
G37*
G36*
X321Y159D02*
X319Y157D01*
X304Y164D01*
X304Y164D01*
X303Y164D01*
X303Y164D01*
X303Y164D01*
X303Y164D01*
X303Y164D01*
X302Y164D01*
X302Y164D01*
X301Y165D01*
X301Y165D01*
X300Y165D01*
X299Y166D01*
X299Y166D01*
X299Y166D01*
X299Y166D01*
X299Y165D01*
X299Y165D01*
X300Y165D01*
X300Y164D01*
X301Y163D01*
X301Y163D01*
X301Y163D01*
X301Y163D01*
X302Y162D01*
X302Y162D01*
X302Y162D01*
X313Y148D01*
X310Y145D01*
X298Y150D01*
X298Y150D01*
X298Y150D01*
X297Y150D01*
X297Y150D01*
X297Y150D01*
X296Y150D01*
X296Y151D01*
X295Y151D01*
X294Y151D01*
X294Y151D01*
X292Y152D01*
X291Y153D01*
X289Y153D01*
X289Y153D01*
X290Y153D01*
X290Y153D01*
X290Y153D01*
X290Y153D01*
X290Y153D01*
X290Y152D01*
X291Y152D01*
X291Y152D01*
X292Y151D01*
X292Y150D01*
X293Y149D01*
X304Y136D01*
X302Y133D01*
X286Y154D01*
X288Y157D01*
X306Y149D01*
X306Y149D01*
X306Y149D01*
X306Y149D01*
X307Y149D01*
X307Y149D01*
X307Y149D01*
X308Y149D01*
X308Y149D01*
X309Y148D01*
X309Y148D01*
X309Y148D01*
X309Y148D01*
X309Y148D01*
X309Y149D01*
X309Y149D01*
X308Y149D01*
X308Y149D01*
X308Y150D01*
X307Y150D01*
X307Y151D01*
X295Y167D01*
X297Y169D01*
X321Y159D01*
D02*
G37*
G36*
X291Y128D02*
X291Y129D01*
X291Y129D01*
X291Y129D01*
X291Y130D01*
X291Y130D01*
X291Y131D01*
X291Y131D01*
X291Y132D01*
X291Y132D01*
X291Y132D01*
X291Y132D01*
X291Y133D01*
X291Y133D01*
X291Y134D01*
X291Y135D01*
X292Y135D01*
X292Y136D01*
X294Y134D01*
X294Y134D01*
X294Y134D01*
X294Y134D01*
X294Y133D01*
X294Y133D01*
X294Y133D01*
X294Y132D01*
X294Y131D01*
X294Y130D01*
X294Y129D01*
X294Y128D01*
X294Y128D01*
X294Y128D01*
X294Y128D01*
X294Y128D01*
X294Y128D01*
X294Y127D01*
X294Y126D01*
X294Y126D01*
X295Y125D01*
X295Y124D01*
X294Y123D01*
X273Y138D01*
X275Y140D01*
X291Y128D01*
D02*
G37*
G36*
X1748Y707D02*
X1748Y707D01*
Y706D01*
X1748Y705D01*
X1747Y705D01*
X1747Y704D01*
X1747Y703D01*
X1747Y703D01*
X1747Y702D01*
Y702D01*
X1747Y702D01*
X1747Y702D01*
X1747Y702D01*
X1746Y701D01*
X1746Y701D01*
X1746Y700D01*
X1745Y700D01*
X1745Y699D01*
X1744D01*
X1744Y699D01*
X1744Y699D01*
X1744Y699D01*
X1743Y699D01*
X1743Y699D01*
X1742Y699D01*
X1742Y698D01*
X1741Y698D01*
X1741D01*
X1741D01*
X1740D01*
X1740Y698D01*
X1740D01*
X1740Y698D01*
X1739Y699D01*
X1738Y699D01*
X1738Y699D01*
X1737Y700D01*
X1737Y700D01*
X1736Y700D01*
X1736Y700D01*
X1736Y700D01*
X1736Y700D01*
X1736Y700D01*
X1736Y701D01*
X1736Y701D01*
X1735Y701D01*
X1735Y701D01*
X1735Y702D01*
X1735Y702D01*
X1735Y703D01*
X1734Y703D01*
X1734Y704D01*
X1734Y704D01*
X1734Y705D01*
X1734Y705D01*
X1734Y705D01*
X1734Y705D01*
X1734Y705D01*
X1734Y705D01*
X1733Y704D01*
X1733Y704D01*
X1733Y703D01*
X1733Y703D01*
X1732Y703D01*
X1732Y703D01*
X1732Y703D01*
X1731Y702D01*
X1731Y702D01*
X1730Y701D01*
X1729Y701D01*
X1722Y696D01*
Y701D01*
X1728Y704D01*
X1728D01*
X1728Y704D01*
X1728Y704D01*
X1728Y704D01*
X1728Y704D01*
X1729Y705D01*
X1730Y705D01*
X1730Y705D01*
X1731Y706D01*
X1731Y706D01*
X1731Y706D01*
X1731Y706D01*
X1732Y707D01*
X1732Y707D01*
X1732Y707D01*
X1733Y708D01*
X1733Y708D01*
X1733Y708D01*
X1733Y708D01*
X1733Y708D01*
X1733Y708D01*
X1733Y709D01*
X1733Y709D01*
X1733Y709D01*
Y710D01*
X1734Y710D01*
Y710D01*
X1734Y710D01*
X1734Y710D01*
Y710D01*
X1734Y711D01*
Y715D01*
X1722D01*
Y719D01*
X1748D01*
Y707D01*
D02*
G37*
G36*
X1747Y678D02*
X1745D01*
X1745Y678D01*
X1745Y678D01*
X1745Y678D01*
X1744Y678D01*
X1744Y679D01*
X1744Y679D01*
X1743Y679D01*
X1743Y679D01*
X1743Y680D01*
X1742Y680D01*
X1742Y681D01*
X1741Y681D01*
X1740Y681D01*
X1740Y682D01*
X1739Y682D01*
X1738Y683D01*
X1738Y683D01*
X1738Y683D01*
X1738Y683D01*
X1737Y683D01*
X1737Y683D01*
X1736Y683D01*
X1736Y684D01*
X1735Y684D01*
X1735Y684D01*
X1734Y685D01*
X1733Y685D01*
X1733Y685D01*
X1731Y686D01*
X1729Y686D01*
X1729D01*
X1729Y686D01*
X1729Y686D01*
X1729Y686D01*
X1729Y687D01*
X1728Y687D01*
X1728Y687D01*
X1727Y687D01*
X1727Y687D01*
X1726Y687D01*
X1725Y687D01*
X1724Y687D01*
X1722Y687D01*
Y691D01*
X1722D01*
X1723D01*
X1723D01*
X1723Y691D01*
X1723D01*
X1724Y691D01*
X1724Y691D01*
X1724Y691D01*
X1725Y690D01*
X1725Y690D01*
X1726Y690D01*
X1727Y690D01*
X1727Y690D01*
X1728Y690D01*
X1730Y690D01*
X1730D01*
X1730Y689D01*
X1730Y689D01*
X1730Y689D01*
X1731Y689D01*
X1731Y689D01*
X1732Y689D01*
X1732Y689D01*
X1733Y688D01*
X1733Y688D01*
X1735Y688D01*
X1736Y687D01*
X1738Y686D01*
X1738Y686D01*
X1738Y686D01*
X1738Y686D01*
X1738Y686D01*
X1739Y686D01*
X1739Y686D01*
X1740Y685D01*
X1740Y685D01*
X1741Y684D01*
X1742Y684D01*
X1743Y683D01*
X1744Y682D01*
Y694D01*
X1747D01*
Y678D01*
D02*
G37*
G36*
X1269Y1748D02*
X1270Y1748D01*
X1270Y1747D01*
X1271Y1747D01*
X1271Y1746D01*
X1272Y1746D01*
X1272Y1746D01*
X1272Y1746D01*
X1272Y1746D01*
X1272Y1745D01*
X1272Y1745D01*
X1272Y1745D01*
X1272Y1744D01*
X1273Y1743D01*
X1273Y1743D01*
X1273Y1742D01*
Y1742D01*
Y1742D01*
Y1742D01*
X1273Y1741D01*
Y1741D01*
X1273Y1740D01*
X1273Y1739D01*
X1273Y1739D01*
X1272Y1738D01*
X1272Y1737D01*
X1272Y1737D01*
X1272Y1737D01*
X1272Y1736D01*
X1272Y1736D01*
X1272Y1736D01*
X1272Y1736D01*
X1271Y1735D01*
X1271Y1735D01*
X1271Y1735D01*
X1271Y1734D01*
X1270Y1734D01*
X1269Y1733D01*
X1268Y1732D01*
X1268Y1732D01*
X1268Y1732D01*
X1268Y1732D01*
X1268Y1731D01*
X1268Y1731D01*
X1268Y1731D01*
X1267Y1731D01*
X1267Y1730D01*
X1266Y1730D01*
X1265Y1729D01*
X1264Y1729D01*
X1264Y1729D01*
X1264Y1729D01*
X1264Y1729D01*
X1264Y1728D01*
X1264Y1728D01*
X1263Y1728D01*
X1263Y1728D01*
X1262Y1728D01*
X1261Y1727D01*
X1261Y1727D01*
X1261Y1727D01*
X1260Y1727D01*
X1260Y1727D01*
X1260Y1727D01*
X1259Y1727D01*
X1258Y1727D01*
X1258D01*
X1257Y1727D01*
X1257Y1727D01*
X1257Y1727D01*
X1257Y1727D01*
X1256Y1728D01*
X1256Y1728D01*
X1255Y1728D01*
X1255Y1728D01*
X1254Y1729D01*
X1254Y1729D01*
X1254Y1729D01*
X1254Y1729D01*
X1254Y1729D01*
X1253Y1729D01*
X1253Y1730D01*
X1252Y1730D01*
X1252Y1731D01*
X1251Y1731D01*
X1245Y1737D01*
X1263Y1755D01*
X1269Y1748D01*
D02*
G37*
G36*
X1281Y1735D02*
X1281Y1735D01*
X1281D01*
X1281Y1735D01*
X1281Y1735D01*
X1281Y1735D01*
X1282Y1735D01*
X1282Y1735D01*
X1283Y1734D01*
X1283Y1734D01*
X1283Y1734D01*
X1284Y1734D01*
X1285Y1733D01*
X1285Y1733D01*
X1286Y1733D01*
X1286Y1732D01*
X1286Y1732D01*
X1286Y1732D01*
X1286Y1732D01*
X1286Y1731D01*
X1287Y1731D01*
X1287Y1730D01*
X1288Y1729D01*
X1288Y1729D01*
X1288Y1728D01*
X1288Y1728D01*
X1288Y1727D01*
Y1727D01*
Y1727D01*
Y1727D01*
Y1727D01*
X1288Y1727D01*
X1288Y1726D01*
X1288Y1726D01*
X1287Y1725D01*
X1287Y1724D01*
X1287Y1723D01*
X1286Y1723D01*
X1286Y1723D01*
X1286Y1723D01*
X1286Y1723D01*
X1286Y1722D01*
X1286Y1722D01*
X1285Y1722D01*
X1285Y1722D01*
X1284Y1721D01*
X1284Y1721D01*
X1283Y1721D01*
X1283Y1721D01*
X1283D01*
X1283D01*
X1282D01*
X1282Y1721D01*
X1281Y1721D01*
X1280Y1721D01*
X1280Y1722D01*
X1280Y1722D01*
X1280Y1722D01*
X1280Y1721D01*
X1280Y1721D01*
X1280Y1721D01*
X1280Y1720D01*
X1280Y1720D01*
X1281Y1719D01*
X1281Y1718D01*
X1281Y1717D01*
X1281Y1717D01*
Y1717D01*
X1280Y1717D01*
X1280Y1717D01*
X1280Y1716D01*
X1280Y1716D01*
X1280Y1715D01*
X1279Y1714D01*
X1279Y1714D01*
X1279Y1714D01*
X1279Y1714D01*
X1278Y1714D01*
X1278Y1713D01*
X1278Y1713D01*
X1278Y1713D01*
X1277Y1713D01*
X1277Y1713D01*
X1276Y1712D01*
X1276Y1712D01*
X1275Y1712D01*
X1275Y1712D01*
X1274Y1712D01*
X1274Y1712D01*
X1273Y1712D01*
X1273D01*
X1273D01*
X1273D01*
X1273Y1712D01*
X1272Y1712D01*
X1272Y1712D01*
X1272Y1712D01*
X1271Y1712D01*
X1271Y1712D01*
X1270Y1712D01*
X1270Y1712D01*
X1269Y1713D01*
X1269Y1713D01*
X1268Y1713D01*
X1268Y1714D01*
X1267Y1714D01*
X1267Y1715D01*
X1267Y1715D01*
X1267Y1715D01*
X1267Y1715D01*
X1266Y1716D01*
X1266Y1716D01*
X1266Y1717D01*
X1265Y1717D01*
X1265Y1718D01*
X1265Y1718D01*
X1265Y1719D01*
X1265Y1719D01*
X1265Y1720D01*
Y1720D01*
Y1720D01*
Y1720D01*
X1265Y1721D01*
X1265Y1721D01*
X1265Y1721D01*
X1265Y1722D01*
X1265Y1722D01*
X1265Y1722D01*
X1265Y1723D01*
X1266Y1724D01*
X1266Y1724D01*
X1266Y1725D01*
X1267Y1725D01*
X1267Y1726D01*
X1267Y1726D01*
X1267Y1726D01*
X1267Y1726D01*
X1267Y1726D01*
X1267Y1726D01*
X1268Y1726D01*
X1268Y1727D01*
X1269Y1727D01*
X1269Y1727D01*
X1270Y1727D01*
X1271Y1728D01*
X1271Y1728D01*
X1271Y1728D01*
X1271Y1728D01*
X1271D01*
X1272Y1728D01*
X1273Y1728D01*
X1273Y1727D01*
X1274Y1727D01*
X1275Y1727D01*
X1275Y1727D01*
Y1727D01*
X1275Y1727D01*
X1275Y1727D01*
X1275Y1727D01*
X1274Y1728D01*
X1274Y1728D01*
X1274Y1729D01*
X1274Y1730D01*
X1274Y1730D01*
X1274Y1730D01*
X1274Y1730D01*
X1274Y1731D01*
X1275Y1731D01*
X1275Y1732D01*
X1275Y1732D01*
X1275Y1733D01*
X1276Y1733D01*
X1276Y1733D01*
X1276Y1733D01*
X1276Y1733D01*
X1276Y1733D01*
X1276Y1733D01*
X1277Y1734D01*
X1277Y1734D01*
X1278Y1734D01*
X1279Y1735D01*
X1279Y1735D01*
X1279Y1735D01*
X1280Y1735D01*
X1280Y1735D01*
X1281D01*
D02*
G37*
G36*
X1222Y1360D02*
X1222Y1360D01*
X1223Y1360D01*
X1223Y1360D01*
X1224Y1360D01*
X1224Y1359D01*
X1225Y1359D01*
X1225Y1359D01*
X1226Y1359D01*
X1226Y1358D01*
X1227Y1358D01*
X1228Y1357D01*
X1228Y1357D01*
X1228Y1357D01*
X1228Y1357D01*
X1228Y1357D01*
X1229Y1356D01*
X1229Y1355D01*
X1229Y1355D01*
X1230Y1354D01*
X1230Y1353D01*
X1230Y1353D01*
Y1353D01*
Y1353D01*
Y1353D01*
Y1352D01*
Y1352D01*
X1230Y1352D01*
X1230Y1351D01*
X1230Y1350D01*
X1229Y1350D01*
X1229Y1349D01*
X1228Y1348D01*
X1226Y1350D01*
X1226Y1350D01*
Y1350D01*
X1226Y1350D01*
X1226Y1350D01*
X1226Y1351D01*
X1227Y1351D01*
X1227Y1352D01*
X1227Y1352D01*
X1227Y1353D01*
Y1353D01*
Y1353D01*
X1227Y1353D01*
X1227Y1354D01*
X1227Y1354D01*
X1226Y1355D01*
X1226Y1355D01*
X1226Y1356D01*
X1225Y1356D01*
X1225Y1356D01*
X1225Y1356D01*
X1225Y1356D01*
X1224Y1357D01*
X1224Y1357D01*
X1223Y1357D01*
X1223Y1357D01*
X1223Y1357D01*
X1223D01*
X1222Y1357D01*
X1221Y1357D01*
X1221Y1357D01*
X1220Y1357D01*
X1219Y1356D01*
X1219Y1356D01*
X1219Y1356D01*
X1219Y1356D01*
X1219Y1356D01*
X1219Y1356D01*
X1219Y1356D01*
X1218Y1356D01*
X1218Y1356D01*
X1218Y1355D01*
X1217Y1355D01*
X1217Y1355D01*
X1217Y1355D01*
X1216Y1354D01*
X1216Y1354D01*
X1215Y1353D01*
X1215Y1353D01*
X1215D01*
X1215Y1353D01*
X1215Y1353D01*
X1216Y1353D01*
X1216Y1353D01*
X1217Y1353D01*
X1218Y1353D01*
X1218Y1353D01*
X1218Y1353D01*
X1218D01*
X1219Y1353D01*
X1219Y1353D01*
X1219Y1352D01*
X1220Y1352D01*
X1220Y1352D01*
X1221Y1351D01*
X1221Y1351D01*
X1222Y1351D01*
X1222Y1351D01*
X1222Y1350D01*
X1222Y1350D01*
X1222Y1350D01*
X1222Y1349D01*
X1223Y1349D01*
X1223Y1348D01*
X1223Y1348D01*
X1223Y1347D01*
X1223Y1347D01*
X1223Y1346D01*
Y1346D01*
Y1346D01*
Y1345D01*
Y1345D01*
X1223Y1345D01*
X1223Y1345D01*
X1223Y1344D01*
X1223Y1344D01*
X1223Y1344D01*
X1223Y1343D01*
X1223Y1343D01*
X1223Y1342D01*
X1222Y1342D01*
X1222Y1341D01*
X1222Y1341D01*
X1221Y1340D01*
X1221Y1340D01*
X1221Y1340D01*
X1221Y1340D01*
X1221Y1340D01*
X1221Y1340D01*
X1220Y1339D01*
X1220Y1339D01*
X1220Y1339D01*
X1219Y1339D01*
X1219Y1338D01*
X1218Y1338D01*
X1217Y1338D01*
X1217Y1338D01*
X1217D01*
X1217Y1337D01*
X1217Y1337D01*
X1216Y1337D01*
X1216Y1337D01*
X1215Y1337D01*
X1214Y1337D01*
X1214Y1337D01*
X1213Y1337D01*
X1213Y1337D01*
X1213D01*
X1213Y1337D01*
X1212Y1337D01*
X1212Y1338D01*
X1212Y1338D01*
X1211Y1338D01*
X1210Y1338D01*
X1210Y1339D01*
X1209Y1339D01*
X1209Y1340D01*
X1209Y1340D01*
X1209Y1340D01*
X1208Y1340D01*
X1208Y1340D01*
X1208Y1341D01*
X1208Y1341D01*
X1208Y1342D01*
X1207Y1342D01*
X1207Y1343D01*
X1207Y1343D01*
X1207Y1344D01*
X1207Y1345D01*
X1207Y1345D01*
X1207Y1346D01*
Y1346D01*
X1207Y1346D01*
X1207Y1346D01*
X1207Y1347D01*
X1207Y1347D01*
X1207Y1347D01*
X1207Y1348D01*
X1207Y1348D01*
X1208Y1349D01*
X1208Y1350D01*
X1208Y1350D01*
X1209Y1351D01*
X1209Y1352D01*
X1210Y1353D01*
X1211Y1353D01*
X1212Y1354D01*
X1212Y1354D01*
X1212Y1354D01*
X1212Y1354D01*
X1212Y1354D01*
X1212Y1355D01*
X1212Y1355D01*
X1213Y1355D01*
X1213Y1356D01*
X1214Y1356D01*
X1215Y1357D01*
X1215Y1357D01*
X1216Y1358D01*
X1217Y1358D01*
X1218Y1359D01*
X1219Y1359D01*
X1219Y1359D01*
X1220Y1360D01*
X1221Y1360D01*
X1221D01*
X1221D01*
X1221D01*
X1222Y1360D01*
X1222D01*
D02*
G37*
G36*
X1211Y1374D02*
X1211Y1373D01*
X1212Y1373D01*
X1212Y1372D01*
X1213Y1372D01*
X1213Y1371D01*
X1213Y1371D01*
X1213Y1371D01*
X1213Y1371D01*
X1213Y1371D01*
X1214Y1370D01*
X1214Y1370D01*
X1214Y1369D01*
X1214Y1369D01*
X1214Y1368D01*
X1214Y1367D01*
Y1367D01*
Y1367D01*
Y1367D01*
X1214Y1367D01*
Y1366D01*
X1214Y1366D01*
X1214Y1365D01*
X1214Y1364D01*
X1214Y1363D01*
X1214Y1362D01*
X1214Y1362D01*
X1213Y1362D01*
X1213Y1362D01*
X1213Y1362D01*
X1213Y1361D01*
X1213Y1361D01*
X1213Y1361D01*
X1213Y1361D01*
X1212Y1360D01*
X1212Y1360D01*
X1212Y1359D01*
X1211Y1358D01*
X1210Y1357D01*
X1210Y1357D01*
X1210Y1357D01*
X1210Y1357D01*
X1210Y1357D01*
X1209Y1357D01*
X1209Y1356D01*
X1209Y1356D01*
X1208Y1355D01*
X1207Y1355D01*
X1207Y1354D01*
X1206Y1354D01*
X1206Y1354D01*
X1206Y1354D01*
X1206Y1354D01*
X1206Y1354D01*
X1205Y1354D01*
X1205Y1353D01*
X1204Y1353D01*
X1204Y1353D01*
X1203Y1353D01*
X1202Y1353D01*
X1202Y1353D01*
X1202Y1353D01*
X1201Y1353D01*
X1201Y1353D01*
X1201Y1353D01*
X1200Y1353D01*
X1199D01*
X1199Y1353D01*
X1199Y1353D01*
X1199Y1353D01*
X1198Y1353D01*
X1198Y1353D01*
X1198Y1353D01*
X1197Y1353D01*
X1196Y1354D01*
X1196Y1354D01*
X1196Y1354D01*
X1196Y1354D01*
X1196Y1354D01*
X1195Y1354D01*
X1195Y1355D01*
X1194Y1355D01*
X1194Y1355D01*
X1193Y1356D01*
X1193Y1356D01*
X1186Y1363D01*
X1204Y1381D01*
X1211Y1374D01*
D02*
G37*
G36*
X588Y944D02*
X581Y937D01*
X585Y931D01*
Y931D01*
X585Y931D01*
X585Y931D01*
X585Y932D01*
X585Y932D01*
X585Y932D01*
X586Y933D01*
X586Y934D01*
X586Y934D01*
X587Y935D01*
X587Y935D01*
X588Y936D01*
X588Y936D01*
X588Y936D01*
X588Y936D01*
X589Y937D01*
X589Y937D01*
X590Y937D01*
X590Y938D01*
X591Y938D01*
X591Y938D01*
X592Y938D01*
X592Y938D01*
X593Y938D01*
X593D01*
X593Y938D01*
X594Y938D01*
X594Y938D01*
X594Y938D01*
X595Y938D01*
X595Y938D01*
X596Y937D01*
X596Y937D01*
X597Y937D01*
X597Y937D01*
X598Y936D01*
X598Y936D01*
X599Y935D01*
X599Y935D01*
X599Y935D01*
X599Y935D01*
X599Y935D01*
X599Y935D01*
X599Y935D01*
X600Y934D01*
X600Y934D01*
X600Y933D01*
X601Y932D01*
X601Y932D01*
X601Y931D01*
X601Y930D01*
X601Y930D01*
Y930D01*
X601Y930D01*
Y930D01*
Y929D01*
X601Y929D01*
Y929D01*
X601Y928D01*
X601Y928D01*
X601Y927D01*
X601Y927D01*
X601Y926D01*
X601Y925D01*
X600Y925D01*
X600Y924D01*
X599Y924D01*
X599Y923D01*
X599Y923D01*
X598Y923D01*
X598Y922D01*
X598Y922D01*
X598Y922D01*
X597Y922D01*
X596Y921D01*
X596Y921D01*
X595Y921D01*
X595Y921D01*
X594Y920D01*
X594Y920D01*
X594D01*
X593Y920D01*
X593Y920D01*
X593D01*
X593Y920D01*
X592Y921D01*
X592Y921D01*
X591Y921D01*
X591Y921D01*
X590Y921D01*
X589Y922D01*
X589Y922D01*
X588Y922D01*
X590Y925D01*
X590Y925D01*
X590Y925D01*
X590Y925D01*
X591Y925D01*
X591Y924D01*
X591Y924D01*
X592Y924D01*
X593Y924D01*
X593Y923D01*
X594Y923D01*
X594Y923D01*
X594D01*
X595Y924D01*
X595Y924D01*
X596Y924D01*
X596Y924D01*
X597Y924D01*
X597Y925D01*
X597Y925D01*
X597Y925D01*
X598Y925D01*
X598Y926D01*
X598Y926D01*
X598Y927D01*
X599Y928D01*
X599Y928D01*
Y929D01*
Y929D01*
Y929D01*
X599Y929D01*
Y929D01*
X598Y930D01*
X598Y930D01*
X598Y931D01*
X598Y931D01*
X597Y932D01*
X597Y933D01*
X597Y933D01*
X596Y933D01*
X596Y933D01*
X596Y933D01*
X596Y933D01*
X596Y933D01*
X596Y934D01*
X595Y934D01*
X595Y934D01*
X594Y935D01*
X593Y935D01*
X593Y935D01*
X593Y935D01*
X592Y935D01*
X592D01*
X592Y935D01*
X591Y935D01*
X591Y934D01*
X590Y934D01*
X589Y934D01*
X589Y934D01*
X588Y933D01*
X588Y933D01*
X588Y933D01*
X588Y932D01*
X588Y932D01*
X587Y931D01*
X587Y931D01*
Y931D01*
X587Y931D01*
X587Y930D01*
X587Y930D01*
X587Y930D01*
X587Y929D01*
Y929D01*
X587Y928D01*
X585Y926D01*
X577Y937D01*
X586Y946D01*
X588Y944D01*
D02*
G37*
G36*
X573Y929D02*
X574Y929D01*
X575Y928D01*
X576Y928D01*
X577Y928D01*
X577Y928D01*
X577Y928D01*
X577Y928D01*
X577Y928D01*
X577Y927D01*
X578Y927D01*
X578Y927D01*
X578Y927D01*
X579Y927D01*
X579Y926D01*
X580Y926D01*
X581Y925D01*
X582Y924D01*
X582Y924D01*
X582Y924D01*
X582Y924D01*
X582Y924D01*
X582Y924D01*
X582Y924D01*
X583Y923D01*
X583Y922D01*
X584Y922D01*
X584Y921D01*
X585Y920D01*
X585Y920D01*
X585Y920D01*
X585Y920D01*
X585Y920D01*
X585Y919D01*
X585Y919D01*
X585Y918D01*
X586Y918D01*
X586Y917D01*
X586Y916D01*
X586Y916D01*
X586Y916D01*
X586Y916D01*
X586Y915D01*
X586Y915D01*
X586Y914D01*
Y914D01*
X586Y913D01*
X586Y913D01*
X586Y913D01*
X586Y913D01*
X586Y912D01*
X586Y912D01*
X585Y911D01*
X585Y911D01*
X585Y910D01*
X585Y910D01*
X585Y910D01*
X585Y910D01*
X584Y910D01*
X584Y909D01*
X584Y909D01*
X583Y908D01*
X583Y908D01*
X582Y907D01*
X576Y901D01*
X558Y918D01*
X565Y925D01*
X565Y926D01*
X566Y926D01*
X566Y927D01*
X567Y927D01*
X568Y927D01*
X568Y927D01*
X568Y927D01*
X568Y928D01*
X568Y928D01*
X568Y928D01*
X569Y928D01*
X569Y928D01*
X570Y928D01*
X571Y929D01*
X571Y929D01*
X572D01*
X572Y929D01*
X572D01*
X573Y929D01*
D02*
G37*
G36*
X1673Y124D02*
X1673Y123D01*
X1674Y123D01*
X1674Y122D01*
X1675Y122D01*
X1675Y121D01*
X1675Y121D01*
X1675Y121D01*
X1675Y121D01*
X1675Y121D01*
X1676Y120D01*
X1676Y120D01*
X1676Y119D01*
X1676Y119D01*
X1676Y118D01*
X1676Y117D01*
Y117D01*
Y117D01*
Y117D01*
X1676Y117D01*
Y116D01*
X1676Y116D01*
X1676Y115D01*
X1676Y114D01*
X1676Y113D01*
X1676Y112D01*
X1676Y112D01*
X1675Y112D01*
X1675Y112D01*
X1675Y112D01*
X1675Y111D01*
X1675Y111D01*
X1675Y111D01*
X1675Y111D01*
X1674Y110D01*
X1674Y110D01*
X1674Y109D01*
X1673Y108D01*
X1672Y107D01*
X1672Y107D01*
X1672Y107D01*
X1672Y107D01*
X1672Y107D01*
X1671Y107D01*
X1671Y106D01*
X1671Y106D01*
X1670Y105D01*
X1669Y105D01*
X1669Y104D01*
X1668Y104D01*
X1668Y104D01*
X1668Y104D01*
X1668Y104D01*
X1668Y104D01*
X1667Y104D01*
X1667Y103D01*
X1666Y103D01*
X1665Y103D01*
X1665Y103D01*
X1664Y103D01*
X1664Y103D01*
X1664Y103D01*
X1663Y103D01*
X1663Y103D01*
X1663Y103D01*
X1662Y103D01*
X1661D01*
X1661Y103D01*
X1661Y103D01*
X1661Y103D01*
X1660Y103D01*
X1660Y103D01*
X1659Y103D01*
X1659Y103D01*
X1658Y104D01*
X1658Y104D01*
X1658Y104D01*
X1658Y104D01*
X1658Y104D01*
X1657Y104D01*
X1657Y105D01*
X1656Y105D01*
X1656Y105D01*
X1655Y106D01*
X1655Y106D01*
X1648Y113D01*
X1666Y131D01*
X1673Y124D01*
D02*
G37*
G36*
X1692Y104D02*
X1681Y93D01*
X1683Y90D01*
X1681Y88D01*
X1679Y91D01*
X1675Y87D01*
X1672Y89D01*
X1677Y93D01*
X1669Y101D01*
X1671Y103D01*
X1691Y106D01*
X1692Y104D01*
D02*
G37*
G36*
X1075Y1359D02*
X1075D01*
X1076Y1359D01*
X1076Y1359D01*
X1077Y1359D01*
X1078Y1359D01*
X1078Y1358D01*
X1079D01*
X1079Y1358D01*
X1079Y1358D01*
X1079Y1358D01*
X1079Y1358D01*
X1080Y1358D01*
X1080Y1357D01*
X1081Y1357D01*
X1081Y1356D01*
X1082Y1356D01*
Y1356D01*
X1082Y1356D01*
X1082Y1355D01*
X1082Y1355D01*
X1082Y1355D01*
X1082Y1354D01*
X1082Y1354D01*
X1082Y1353D01*
X1083Y1352D01*
X1083Y1352D01*
Y1351D01*
X1083Y1351D01*
Y1351D01*
X1083Y1351D01*
X1083Y1350D01*
X1082Y1350D01*
X1082Y1349D01*
X1082Y1349D01*
X1082Y1348D01*
X1082Y1348D01*
X1081Y1347D01*
X1081Y1347D01*
X1081Y1346D01*
X1080Y1346D01*
X1080Y1345D01*
X1080Y1345D01*
X1080Y1345D01*
X1080Y1345D01*
X1079Y1345D01*
X1079Y1345D01*
X1079Y1345D01*
X1078Y1344D01*
X1078Y1344D01*
X1077Y1344D01*
X1076Y1344D01*
X1076Y1343D01*
X1075Y1343D01*
X1074Y1343D01*
X1073Y1343D01*
X1072Y1343D01*
X1070Y1343D01*
X1070D01*
X1070D01*
X1070D01*
X1070D01*
X1070Y1343D01*
X1069D01*
X1069Y1343D01*
X1068Y1343D01*
X1067Y1343D01*
X1066Y1343D01*
X1066Y1343D01*
X1065Y1344D01*
X1064Y1344D01*
X1063Y1344D01*
X1062Y1344D01*
X1061Y1345D01*
X1061Y1345D01*
X1060Y1346D01*
X1060Y1346D01*
X1060Y1346D01*
X1060Y1346D01*
X1059Y1346D01*
X1059Y1346D01*
X1059Y1346D01*
X1059Y1347D01*
X1058Y1347D01*
X1058Y1348D01*
X1058Y1348D01*
X1058Y1349D01*
X1057Y1349D01*
X1057Y1350D01*
X1057Y1350D01*
X1057Y1351D01*
X1057Y1352D01*
Y1352D01*
X1057Y1352D01*
Y1353D01*
X1057Y1353D01*
X1057Y1354D01*
X1057Y1354D01*
X1058Y1355D01*
X1058Y1356D01*
X1058Y1356D01*
X1059Y1357D01*
X1059Y1357D01*
X1059Y1357D01*
X1059Y1357D01*
X1059Y1357D01*
X1059Y1357D01*
X1059Y1357D01*
X1060Y1358D01*
X1060Y1358D01*
X1061Y1359D01*
X1062Y1359D01*
X1063Y1359D01*
X1063Y1356D01*
X1063D01*
X1063Y1356D01*
X1063Y1356D01*
X1063Y1356D01*
X1062Y1356D01*
X1062Y1356D01*
X1062Y1355D01*
X1061Y1355D01*
X1061Y1355D01*
X1061Y1355D01*
X1061Y1355D01*
X1060Y1354D01*
X1060Y1354D01*
X1060Y1354D01*
X1060Y1353D01*
X1060Y1352D01*
X1059Y1352D01*
Y1351D01*
X1060Y1351D01*
X1060Y1351D01*
X1060Y1350D01*
X1060Y1350D01*
X1060Y1350D01*
X1060Y1349D01*
X1060Y1349D01*
X1061Y1349D01*
X1061Y1349D01*
X1061Y1348D01*
X1062Y1348D01*
X1062Y1348D01*
X1063Y1347D01*
X1063Y1347D01*
X1063D01*
X1064Y1347D01*
X1064Y1347D01*
X1064Y1347D01*
X1064Y1347D01*
X1064Y1347D01*
X1065Y1346D01*
X1065Y1346D01*
X1065Y1346D01*
X1066Y1346D01*
X1066Y1346D01*
X1067Y1346D01*
X1067Y1346D01*
X1068Y1346D01*
X1069Y1346D01*
X1069D01*
X1069Y1346D01*
X1069Y1346D01*
X1069Y1346D01*
X1068Y1347D01*
X1068Y1347D01*
X1067Y1348D01*
X1067Y1348D01*
X1067Y1349D01*
Y1349D01*
X1067Y1349D01*
X1067Y1349D01*
X1066Y1349D01*
X1066Y1350D01*
X1066Y1350D01*
X1066Y1351D01*
X1066Y1351D01*
X1066Y1352D01*
Y1352D01*
X1066Y1353D01*
X1066Y1353D01*
X1066Y1353D01*
X1066Y1354D01*
X1066Y1354D01*
X1066Y1355D01*
X1067Y1355D01*
X1067Y1356D01*
X1067Y1356D01*
X1067Y1356D01*
X1068Y1357D01*
X1068Y1357D01*
X1068Y1357D01*
X1068Y1357D01*
X1068Y1358D01*
X1069Y1358D01*
X1069Y1358D01*
X1069Y1358D01*
X1069Y1358D01*
X1070Y1358D01*
X1070Y1359D01*
X1071Y1359D01*
X1071Y1359D01*
X1072Y1359D01*
X1072Y1359D01*
X1073Y1359D01*
X1073Y1359D01*
X1074Y1360D01*
X1074D01*
X1074D01*
X1074D01*
X1074D01*
X1075Y1359D01*
D02*
G37*
G36*
X1082Y1337D02*
X1077Y1334D01*
X1077D01*
X1077Y1333D01*
X1077Y1333D01*
X1077Y1333D01*
X1076Y1333D01*
X1076Y1333D01*
X1075Y1332D01*
X1075Y1332D01*
X1074Y1332D01*
X1074Y1331D01*
X1074Y1331D01*
X1073Y1331D01*
X1073Y1331D01*
X1073Y1331D01*
X1072Y1330D01*
X1072Y1330D01*
X1072Y1329D01*
X1072Y1329D01*
X1072Y1329D01*
X1072Y1329D01*
X1072Y1329D01*
X1072Y1329D01*
X1071Y1329D01*
X1071Y1328D01*
Y1328D01*
X1071Y1328D01*
Y1328D01*
X1071Y1327D01*
X1071Y1327D01*
Y1327D01*
X1071Y1327D01*
Y1322D01*
X1082D01*
Y1319D01*
X1057D01*
Y1331D01*
X1057Y1331D01*
Y1331D01*
X1057Y1332D01*
X1057Y1333D01*
X1057Y1334D01*
X1058Y1334D01*
X1058Y1335D01*
X1058Y1335D01*
Y1335D01*
X1058Y1335D01*
X1058Y1335D01*
X1058Y1336D01*
X1058Y1336D01*
X1059Y1337D01*
X1059Y1337D01*
X1060Y1338D01*
X1060Y1338D01*
X1060D01*
X1060Y1338D01*
X1060Y1338D01*
X1061Y1338D01*
X1061Y1339D01*
X1062Y1339D01*
X1062Y1339D01*
X1063Y1339D01*
X1064Y1339D01*
X1064D01*
X1064D01*
X1064D01*
X1064Y1339D01*
X1065D01*
X1065Y1339D01*
X1065Y1339D01*
X1066Y1339D01*
X1067Y1338D01*
X1068Y1338D01*
X1068Y1338D01*
X1068Y1337D01*
X1069Y1337D01*
X1069Y1337D01*
X1069Y1337D01*
X1069Y1337D01*
X1069Y1337D01*
X1069Y1337D01*
X1069Y1336D01*
X1069Y1336D01*
X1070Y1336D01*
X1070Y1335D01*
X1070Y1335D01*
X1070Y1334D01*
X1070Y1334D01*
X1071Y1333D01*
X1071Y1333D01*
X1071Y1332D01*
X1071Y1332D01*
X1071Y1332D01*
X1071Y1332D01*
X1071Y1333D01*
X1072Y1333D01*
X1072Y1334D01*
X1072Y1334D01*
X1072Y1334D01*
X1072Y1334D01*
X1073Y1334D01*
X1073Y1335D01*
X1073Y1335D01*
X1074Y1336D01*
X1075Y1336D01*
X1075Y1337D01*
X1082Y1341D01*
Y1337D01*
D02*
G37*
G36*
X710Y874D02*
X710Y874D01*
X710Y874D01*
X711Y874D01*
X711Y874D01*
X712Y873D01*
X713Y873D01*
X713Y873D01*
X714Y872D01*
X714Y872D01*
X715Y872D01*
X715Y872D01*
X715Y872D01*
X715Y872D01*
X715Y871D01*
X716Y871D01*
X716Y871D01*
X716Y870D01*
X716Y870D01*
X717Y870D01*
X717Y869D01*
X717Y869D01*
X717Y868D01*
X718Y867D01*
X718Y867D01*
X718Y866D01*
X718Y865D01*
Y865D01*
X718Y865D01*
X718Y864D01*
X718Y864D01*
X718Y864D01*
X718Y863D01*
X717Y862D01*
X717Y861D01*
X717Y861D01*
X717Y860D01*
X716Y860D01*
X716Y860D01*
X716Y859D01*
X716Y859D01*
X716Y859D01*
X716Y859D01*
X715Y859D01*
X715Y859D01*
X715Y859D01*
X715Y858D01*
X714Y858D01*
X714Y858D01*
X713Y858D01*
X712Y857D01*
X711Y857D01*
X711Y857D01*
X711Y860D01*
X711D01*
X711D01*
X711Y860D01*
X711Y860D01*
X711Y860D01*
X712Y861D01*
X713Y861D01*
X713Y861D01*
X714Y862D01*
X714Y862D01*
X714Y862D01*
X714Y862D01*
X715Y862D01*
X715Y863D01*
X715Y863D01*
X715Y864D01*
X715Y864D01*
X715Y865D01*
Y865D01*
X715Y866D01*
X715Y866D01*
X715Y866D01*
X715Y867D01*
X715Y868D01*
X714Y868D01*
X714Y869D01*
X714Y869D01*
X714Y869D01*
X714Y869D01*
X714Y869D01*
X713Y869D01*
X713Y869D01*
X712Y870D01*
X712Y870D01*
X711Y870D01*
X710Y870D01*
X710Y871D01*
X709D01*
X709D01*
X709D01*
X709D01*
X709Y870D01*
X709D01*
X708Y870D01*
X708Y870D01*
X707Y870D01*
X706Y870D01*
X706Y870D01*
X705Y869D01*
X705D01*
X705Y869D01*
X705Y869D01*
X705Y868D01*
X704Y868D01*
X704Y867D01*
X704Y867D01*
X704Y866D01*
X704Y866D01*
Y865D01*
X704Y865D01*
X704Y864D01*
X704Y864D01*
X704Y863D01*
X704Y863D01*
X704Y862D01*
X704Y862D01*
X704Y862D01*
X704Y862D01*
X705Y862D01*
X705Y861D01*
X705Y861D01*
X706Y861D01*
X706Y861D01*
X706Y858D01*
X693Y860D01*
Y873D01*
X696D01*
Y862D01*
X702Y861D01*
X702Y861D01*
X702Y861D01*
X702Y861D01*
X702Y862D01*
X702Y862D01*
X702Y862D01*
X702Y863D01*
X701Y863D01*
X701Y864D01*
X701Y865D01*
X701Y865D01*
Y866D01*
X701Y866D01*
X701Y867D01*
X701Y867D01*
X701Y867D01*
X701Y868D01*
X701Y869D01*
X701Y869D01*
X702Y870D01*
X702Y870D01*
X702Y871D01*
X703Y871D01*
X703Y871D01*
X703Y872D01*
X703Y872D01*
X703Y872D01*
X703Y872D01*
X704Y872D01*
X704Y872D01*
X704Y872D01*
X705Y873D01*
X705Y873D01*
X706Y873D01*
X706Y873D01*
X707Y873D01*
X707Y874D01*
X708Y874D01*
X708Y874D01*
X709Y874D01*
X709D01*
X709D01*
X709D01*
X710Y874D01*
D02*
G37*
G36*
X717Y851D02*
X712Y848D01*
X712D01*
X712Y848D01*
X712Y848D01*
X712Y847D01*
X711Y847D01*
X711Y847D01*
X710Y846D01*
X710Y846D01*
X709Y846D01*
X709Y845D01*
X709Y845D01*
X709Y845D01*
X708Y845D01*
X708Y845D01*
X708Y844D01*
X707Y844D01*
X707Y844D01*
X707Y843D01*
X707Y843D01*
X707Y843D01*
X707Y843D01*
X707Y843D01*
X707Y843D01*
X706Y842D01*
Y842D01*
X706Y842D01*
Y842D01*
X706Y842D01*
X706Y841D01*
Y841D01*
X706Y841D01*
Y836D01*
X717D01*
Y833D01*
X692D01*
Y845D01*
X692Y845D01*
Y845D01*
X692Y846D01*
X692Y847D01*
X693Y848D01*
X693Y849D01*
X693Y849D01*
X693Y849D01*
Y849D01*
X693Y849D01*
X693Y850D01*
X693Y850D01*
X694Y850D01*
X694Y851D01*
X694Y851D01*
X695Y852D01*
X695Y852D01*
X695D01*
X695Y852D01*
X696Y852D01*
X696Y852D01*
X697Y853D01*
X697Y853D01*
X698Y853D01*
X698Y853D01*
X699Y853D01*
X699D01*
X699D01*
X699D01*
X700Y853D01*
X700D01*
X700Y853D01*
X701Y853D01*
X701Y853D01*
X702Y852D01*
X703Y852D01*
X703Y852D01*
X704Y851D01*
X704Y851D01*
X704Y851D01*
X704Y851D01*
X704Y851D01*
X704Y851D01*
X704Y851D01*
X704Y850D01*
X705Y850D01*
X705Y850D01*
X705Y849D01*
X705Y849D01*
X705Y848D01*
X706Y848D01*
X706Y847D01*
X706Y847D01*
X706Y846D01*
X706Y846D01*
X706Y846D01*
X706Y846D01*
X706Y847D01*
X707Y847D01*
X707Y848D01*
X707Y848D01*
X707Y848D01*
X708Y848D01*
X708Y849D01*
X708Y849D01*
X709Y849D01*
X709Y850D01*
X710Y850D01*
X711Y851D01*
X717Y855D01*
Y851D01*
D02*
G37*
G36*
X1513Y147D02*
X1517D01*
Y144D01*
X1513D01*
Y138D01*
X1510D01*
Y144D01*
X1499D01*
Y147D01*
X1511Y163D01*
X1513D01*
Y147D01*
D02*
G37*
G36*
X1488Y163D02*
X1489D01*
X1489Y163D01*
X1490Y163D01*
X1491Y163D01*
X1492Y163D01*
X1492Y162D01*
X1493Y162D01*
X1493D01*
X1493Y162D01*
X1493Y162D01*
X1493Y162D01*
X1494Y162D01*
X1494Y161D01*
X1495Y161D01*
X1495Y160D01*
X1495Y160D01*
Y160D01*
X1495Y160D01*
X1496Y160D01*
X1496Y159D01*
X1496Y159D01*
X1496Y158D01*
X1496Y158D01*
X1496Y157D01*
X1497Y156D01*
Y156D01*
Y156D01*
Y156D01*
X1496Y156D01*
Y155D01*
X1496Y155D01*
X1496Y155D01*
X1496Y154D01*
X1496Y153D01*
X1495Y152D01*
X1495Y152D01*
X1495Y152D01*
X1495Y152D01*
X1495Y151D01*
X1495Y151D01*
X1494Y151D01*
X1494Y151D01*
X1494Y151D01*
X1494Y151D01*
X1493Y151D01*
X1493Y150D01*
X1493Y150D01*
X1492Y150D01*
X1492Y150D01*
X1491Y150D01*
X1491Y149D01*
X1490Y149D01*
X1489Y149D01*
X1489Y149D01*
X1490Y149D01*
X1490Y149D01*
X1490Y149D01*
X1491Y148D01*
X1491Y148D01*
X1491Y148D01*
X1491Y148D01*
X1492Y148D01*
X1492Y147D01*
X1492Y147D01*
X1493Y147D01*
X1493Y146D01*
X1494Y145D01*
X1494Y145D01*
X1499Y138D01*
X1494D01*
X1491Y143D01*
Y143D01*
X1491Y143D01*
X1491Y143D01*
X1491Y143D01*
X1491Y144D01*
X1490Y144D01*
X1490Y145D01*
X1489Y145D01*
X1489Y146D01*
X1489Y146D01*
X1489Y147D01*
X1488Y147D01*
X1488Y147D01*
X1488Y147D01*
X1488Y148D01*
X1487Y148D01*
X1487Y148D01*
X1487Y148D01*
X1487Y148D01*
X1487Y148D01*
X1486Y148D01*
X1486Y149D01*
X1486Y149D01*
X1485Y149D01*
X1485D01*
X1485Y149D01*
X1485D01*
X1485Y149D01*
X1485Y149D01*
X1484D01*
X1484Y149D01*
X1480D01*
Y138D01*
X1476D01*
Y163D01*
X1488D01*
X1488Y163D01*
D02*
G37*
G36*
X377Y1030D02*
X370Y1024D01*
X370Y1023D01*
X369Y1023D01*
X369Y1022D01*
X368Y1022D01*
X368Y1021D01*
X367Y1021D01*
X367Y1021D01*
X367Y1021D01*
X367Y1021D01*
X367Y1021D01*
X366Y1021D01*
X366Y1021D01*
X365Y1020D01*
X364Y1020D01*
X364Y1020D01*
X364D01*
X364D01*
X363D01*
X363Y1020D01*
X363D01*
X362Y1020D01*
X361Y1020D01*
X360Y1020D01*
X359Y1021D01*
X358Y1021D01*
X358Y1021D01*
X358Y1021D01*
X358Y1021D01*
X358Y1021D01*
X358Y1021D01*
X358Y1021D01*
X357Y1022D01*
X357Y1022D01*
X357Y1022D01*
X356Y1022D01*
X355Y1023D01*
X354Y1024D01*
X354Y1025D01*
X353Y1025D01*
X353Y1025D01*
X353Y1025D01*
X353Y1025D01*
X353Y1025D01*
X353Y1025D01*
X352Y1026D01*
X352Y1026D01*
X351Y1027D01*
X351Y1028D01*
X350Y1029D01*
X350Y1029D01*
X350Y1029D01*
X350Y1029D01*
X350Y1029D01*
X350Y1029D01*
X350Y1030D01*
X350Y1030D01*
X349Y1031D01*
X349Y1032D01*
X349Y1032D01*
X349Y1032D01*
X349Y1033D01*
X349Y1033D01*
X349Y1033D01*
X349Y1034D01*
X349Y1035D01*
Y1035D01*
X349Y1036D01*
X349Y1036D01*
X349Y1036D01*
X349Y1036D01*
X349Y1037D01*
X349Y1037D01*
X350Y1038D01*
X350Y1038D01*
X350Y1039D01*
X350Y1039D01*
X350Y1039D01*
X350Y1039D01*
X351Y1039D01*
X351Y1040D01*
X351Y1040D01*
X352Y1041D01*
X352Y1041D01*
X353Y1042D01*
X359Y1048D01*
X377Y1030D01*
D02*
G37*
G36*
X350Y1011D02*
Y1011D01*
X350Y1011D01*
Y1012D01*
X350Y1012D01*
X350Y1013D01*
X350Y1013D01*
X350Y1014D01*
X351Y1015D01*
X351Y1015D01*
Y1015D01*
X351Y1015D01*
X351Y1016D01*
X351Y1016D01*
X351Y1017D01*
X351Y1017D01*
X352Y1018D01*
X352Y1018D01*
X354Y1016D01*
X354Y1016D01*
Y1016D01*
X354Y1016D01*
X354Y1016D01*
X354Y1015D01*
X354Y1015D01*
X353Y1014D01*
X353Y1014D01*
X353Y1013D01*
X353Y1012D01*
X353Y1011D01*
Y1011D01*
Y1011D01*
Y1011D01*
X353Y1010D01*
X353Y1010D01*
Y1009D01*
X353Y1009D01*
X353Y1008D01*
X353Y1007D01*
X353Y1006D01*
X352Y1005D01*
X334Y1023D01*
X336Y1025D01*
X350Y1011D01*
D02*
G37*
G36*
X328Y1014D02*
X328D01*
X328Y1014D01*
X328Y1014D01*
X329Y1014D01*
X329Y1014D01*
X330Y1014D01*
X330Y1013D01*
X331Y1013D01*
X331Y1013D01*
X332Y1012D01*
X333Y1012D01*
X334Y1012D01*
X334Y1011D01*
X335Y1010D01*
X336Y1009D01*
X337Y1009D01*
X337Y1009D01*
X337Y1008D01*
X337Y1008D01*
X338Y1008D01*
X338Y1008D01*
X338Y1007D01*
X338Y1007D01*
X339Y1007D01*
X340Y1006D01*
X340Y1005D01*
X341Y1004D01*
X341Y1003D01*
X342Y1003D01*
X342Y1003D01*
X342Y1003D01*
X342Y1003D01*
X342Y1002D01*
X342Y1002D01*
X342Y1002D01*
X342Y1001D01*
X342Y1000D01*
X343Y1000D01*
X343Y999D01*
X343Y998D01*
X343Y998D01*
X343Y998D01*
X343Y998D01*
X343Y998D01*
X342Y997D01*
X342Y997D01*
X342Y996D01*
X342Y996D01*
X342Y995D01*
X341Y994D01*
X340Y994D01*
X340Y993D01*
X340Y993D01*
X339Y993D01*
X339Y993D01*
X338Y992D01*
X338Y992D01*
X337Y992D01*
X337Y992D01*
X337D01*
X337Y992D01*
X337Y992D01*
X336Y991D01*
X336Y991D01*
X335Y991D01*
X335Y991D01*
X334Y992D01*
X334Y992D01*
X334Y992D01*
X333Y992D01*
X333Y992D01*
X332Y992D01*
X331Y992D01*
X331Y993D01*
X330Y993D01*
X330Y993D01*
X330Y993D01*
X330Y993D01*
X330Y993D01*
X330Y993D01*
X329Y994D01*
X329Y994D01*
X329Y994D01*
X328Y994D01*
X328Y995D01*
X328Y995D01*
X327Y995D01*
X327Y996D01*
X326Y996D01*
X326Y996D01*
X325Y997D01*
X325Y997D01*
X325Y997D01*
X325Y997D01*
X325Y997D01*
X325Y998D01*
X324Y998D01*
X324Y998D01*
X324Y999D01*
X323Y1000D01*
X322Y1001D01*
X322Y1002D01*
X321Y1002D01*
X321Y1003D01*
X321Y1003D01*
X321Y1003D01*
X321Y1003D01*
X321Y1003D01*
X321Y1003D01*
X321Y1004D01*
X320Y1004D01*
X320Y1005D01*
X320Y1006D01*
X320Y1007D01*
X320Y1008D01*
X320Y1008D01*
X320Y1008D01*
X320Y1008D01*
X320Y1008D01*
X320Y1008D01*
X320Y1008D01*
X320Y1009D01*
X321Y1010D01*
X321Y1010D01*
X322Y1011D01*
X322Y1012D01*
X322Y1012D01*
X323Y1012D01*
X323Y1012D01*
X323Y1013D01*
X324Y1013D01*
X324Y1013D01*
X324Y1013D01*
X325Y1014D01*
X325Y1014D01*
X326Y1014D01*
X326Y1014D01*
X327Y1014D01*
X328Y1014D01*
X328Y1014D01*
D02*
G37*
G36*
X1663Y587D02*
X1663Y586D01*
X1664Y586D01*
X1664Y585D01*
X1665Y585D01*
X1665Y584D01*
X1665Y584D01*
X1665Y584D01*
X1665Y584D01*
X1665Y584D01*
X1665Y583D01*
X1666Y583D01*
X1666Y582D01*
X1666Y582D01*
X1666Y581D01*
X1666Y580D01*
Y580D01*
Y580D01*
Y580D01*
X1666Y580D01*
Y579D01*
X1666Y579D01*
X1666Y578D01*
X1666Y577D01*
X1666Y576D01*
X1665Y575D01*
X1665Y575D01*
X1665Y575D01*
X1665Y575D01*
X1665Y575D01*
X1665Y574D01*
X1665Y574D01*
X1665Y574D01*
X1665Y573D01*
X1664Y573D01*
X1664Y573D01*
X1663Y572D01*
X1663Y571D01*
X1662Y570D01*
X1662Y570D01*
X1662Y570D01*
X1662Y570D01*
X1662Y570D01*
X1661Y570D01*
X1661Y569D01*
X1661Y569D01*
X1660Y568D01*
X1659Y568D01*
X1659Y567D01*
X1658Y567D01*
X1658Y567D01*
X1658Y567D01*
X1658Y567D01*
X1657Y567D01*
X1657Y567D01*
X1657Y566D01*
X1656Y566D01*
X1655Y566D01*
X1655Y566D01*
X1654Y566D01*
X1654Y566D01*
X1654Y565D01*
X1653Y565D01*
X1653Y565D01*
X1652Y565D01*
X1652Y565D01*
X1651D01*
X1651Y566D01*
X1651Y566D01*
X1650Y566D01*
X1650Y566D01*
X1650Y566D01*
X1649Y566D01*
X1649Y566D01*
X1648Y566D01*
X1648Y567D01*
X1648Y567D01*
X1648Y567D01*
X1647Y567D01*
X1647Y567D01*
X1647Y567D01*
X1646Y568D01*
X1646Y568D01*
X1645Y569D01*
X1645Y569D01*
X1638Y576D01*
X1656Y594D01*
X1663Y587D01*
D02*
G37*
G36*
X1684Y565D02*
X1683Y563D01*
X1683D01*
X1683D01*
X1682D01*
X1682Y563D01*
X1682Y563D01*
X1681D01*
X1681Y563D01*
X1680Y563D01*
X1680Y563D01*
X1679Y563D01*
X1679Y562D01*
X1678Y562D01*
X1677Y562D01*
X1676Y562D01*
X1675Y562D01*
X1675Y561D01*
X1675D01*
X1674Y561D01*
X1674Y561D01*
X1674Y561D01*
X1673Y561D01*
X1673Y561D01*
X1672Y561D01*
X1672Y561D01*
X1671Y560D01*
X1670Y560D01*
X1670Y560D01*
X1669Y559D01*
X1667Y559D01*
X1666Y558D01*
X1666Y558D01*
X1666Y558D01*
X1666Y558D01*
X1665Y558D01*
X1665Y557D01*
X1665Y557D01*
X1664Y557D01*
X1664Y557D01*
X1664Y556D01*
X1663Y556D01*
X1662Y555D01*
X1661Y555D01*
X1660Y554D01*
X1658Y556D01*
X1658Y556D01*
X1658Y556D01*
X1658Y556D01*
X1658Y556D01*
X1658Y557D01*
X1659Y557D01*
X1659Y557D01*
X1659Y557D01*
X1660Y558D01*
X1660Y558D01*
X1661Y558D01*
X1661Y559D01*
X1662Y559D01*
X1662Y559D01*
X1664Y560D01*
X1664Y560D01*
X1664Y560D01*
X1664Y561D01*
X1664Y561D01*
X1665Y561D01*
X1665Y561D01*
X1666Y561D01*
X1666Y562D01*
X1667Y562D01*
X1667Y562D01*
X1669Y563D01*
X1670Y563D01*
X1672Y564D01*
X1672D01*
X1672Y564D01*
X1672Y564D01*
X1672Y564D01*
X1673Y564D01*
X1673Y564D01*
X1674Y564D01*
X1674Y564D01*
X1676Y565D01*
X1677Y565D01*
X1678Y565D01*
X1680Y565D01*
X1671Y574D01*
X1673Y576D01*
X1684Y565D01*
D02*
G37*
G36*
X331Y1189D02*
X331Y1189D01*
Y1188D01*
X331Y1188D01*
X331Y1187D01*
X330Y1186D01*
X330Y1185D01*
X330Y1185D01*
X330Y1185D01*
Y1184D01*
X330Y1184D01*
X330Y1184D01*
X330Y1184D01*
X330Y1183D01*
X329Y1183D01*
X329Y1183D01*
X328Y1182D01*
X328Y1182D01*
X328D01*
X328Y1182D01*
X327Y1182D01*
X327Y1181D01*
X327Y1181D01*
X326Y1181D01*
X325Y1181D01*
X325Y1181D01*
X324Y1181D01*
X324D01*
X324D01*
X324D01*
X323Y1181D01*
X323D01*
X323Y1181D01*
X322Y1181D01*
X322Y1181D01*
X321Y1181D01*
X320Y1182D01*
X320Y1182D01*
X319Y1182D01*
X319Y1182D01*
X319Y1182D01*
X319Y1183D01*
X319Y1183D01*
X319Y1183D01*
X319Y1183D01*
X319Y1183D01*
X318Y1184D01*
X318Y1184D01*
X318Y1184D01*
X318Y1185D01*
X318Y1185D01*
X317Y1186D01*
X317Y1186D01*
X317Y1187D01*
X317Y1188D01*
X317Y1188D01*
X317Y1188D01*
X317Y1187D01*
X317Y1187D01*
X316Y1186D01*
X316Y1186D01*
X316Y1186D01*
X316Y1186D01*
X315Y1186D01*
X315Y1185D01*
X315Y1185D01*
X314Y1184D01*
X314Y1184D01*
X313Y1183D01*
X312Y1183D01*
X306Y1179D01*
Y1183D01*
X311Y1186D01*
X311D01*
X311Y1186D01*
X311Y1186D01*
X311Y1186D01*
X312Y1187D01*
X312Y1187D01*
X313Y1187D01*
X313Y1188D01*
X314Y1188D01*
X314Y1189D01*
X314Y1189D01*
X314Y1189D01*
X315Y1189D01*
X315Y1189D01*
X315Y1190D01*
X316Y1190D01*
X316Y1190D01*
X316Y1190D01*
X316Y1190D01*
X316Y1190D01*
X316Y1191D01*
X316Y1191D01*
X316Y1191D01*
X317Y1192D01*
Y1192D01*
X317Y1192D01*
Y1192D01*
X317Y1192D01*
X317Y1192D01*
Y1193D01*
X317Y1193D01*
Y1197D01*
X306D01*
Y1201D01*
X331D01*
Y1189D01*
D02*
G37*
G36*
X325Y1174D02*
X325Y1174D01*
X325Y1174D01*
X325Y1174D01*
X325Y1174D01*
X325Y1173D01*
X325Y1173D01*
X326Y1172D01*
X326Y1171D01*
X327Y1171D01*
X327Y1170D01*
X328Y1170D01*
X328Y1170D01*
X328Y1170D01*
X328Y1169D01*
X328Y1169D01*
X329Y1169D01*
X329Y1168D01*
X330Y1168D01*
X330Y1167D01*
X331Y1167D01*
Y1165D01*
X306D01*
Y1168D01*
X325D01*
X325Y1168D01*
X325Y1168D01*
X325Y1169D01*
X325Y1169D01*
X324Y1169D01*
X324Y1170D01*
X324Y1170D01*
X323Y1171D01*
Y1171D01*
X323Y1171D01*
X323Y1171D01*
X323Y1172D01*
X323Y1172D01*
X322Y1173D01*
X322Y1173D01*
X322Y1174D01*
X322Y1174D01*
X325D01*
Y1174D01*
D02*
G37*
G36*
X319Y1157D02*
X320D01*
X320Y1157D01*
X321Y1157D01*
X322Y1157D01*
X323Y1157D01*
X324Y1156D01*
X325Y1156D01*
X325Y1156D01*
X325D01*
X325Y1156D01*
X325Y1156D01*
X326Y1156D01*
X326Y1156D01*
X326Y1156D01*
X327Y1156D01*
X327Y1155D01*
X328Y1155D01*
X329Y1154D01*
X329Y1153D01*
Y1153D01*
X329Y1153D01*
X330Y1153D01*
X330Y1153D01*
X330Y1153D01*
X330Y1153D01*
X330Y1152D01*
X330Y1152D01*
X331Y1151D01*
X331Y1150D01*
X331Y1149D01*
Y1149D01*
X331Y1148D01*
X331Y1148D01*
X331Y1147D01*
X330Y1147D01*
X330Y1146D01*
X330Y1145D01*
Y1145D01*
X330Y1145D01*
X330Y1145D01*
X330Y1145D01*
X329Y1144D01*
X329Y1144D01*
X329Y1144D01*
X328Y1143D01*
X328Y1143D01*
X328Y1143D01*
X327Y1143D01*
X327Y1142D01*
X327Y1142D01*
X326Y1142D01*
X325Y1142D01*
X325Y1141D01*
X324Y1141D01*
X324D01*
X324Y1141D01*
X324Y1141D01*
X324Y1141D01*
X323Y1141D01*
X323Y1141D01*
X323Y1141D01*
X322Y1141D01*
X322Y1141D01*
X321Y1141D01*
X321Y1141D01*
X320Y1141D01*
X320Y1141D01*
X319D01*
X319Y1141D01*
X318D01*
X318D01*
X318D01*
X318D01*
X317D01*
X317Y1141D01*
X316D01*
X316Y1141D01*
X315Y1141D01*
X314Y1141D01*
X313Y1141D01*
X312Y1141D01*
X311Y1141D01*
X311Y1142D01*
X311D01*
X311Y1142D01*
X311Y1142D01*
X310Y1142D01*
X310Y1142D01*
X310Y1142D01*
X309Y1142D01*
X309Y1143D01*
X308Y1143D01*
X307Y1144D01*
X307Y1144D01*
Y1144D01*
X307Y1144D01*
X306Y1145D01*
X306Y1145D01*
X306Y1145D01*
X306Y1145D01*
X306Y1146D01*
X306Y1146D01*
X305Y1147D01*
X305Y1148D01*
X305Y1149D01*
Y1149D01*
X305Y1150D01*
X305Y1150D01*
X305Y1150D01*
X305Y1151D01*
X305Y1151D01*
X306Y1151D01*
X306Y1152D01*
X306Y1152D01*
X306Y1153D01*
X307Y1153D01*
X307Y1154D01*
X307Y1154D01*
X308Y1155D01*
X308Y1155D01*
X308Y1155D01*
X308Y1155D01*
X308Y1155D01*
X309Y1155D01*
X309Y1155D01*
X310Y1156D01*
X310Y1156D01*
X311Y1156D01*
X312Y1156D01*
X312Y1157D01*
X313Y1157D01*
X314Y1157D01*
X315Y1157D01*
X317Y1157D01*
X318Y1157D01*
X318D01*
X318D01*
X318D01*
X319D01*
X319Y1157D01*
D02*
G37*
G36*
X1371Y1793D02*
X1371Y1793D01*
X1371Y1793D01*
X1372Y1792D01*
X1372Y1792D01*
X1373Y1792D01*
X1374Y1792D01*
X1374Y1792D01*
X1374Y1791D01*
X1375Y1791D01*
X1375Y1791D01*
X1376Y1790D01*
X1376Y1790D01*
X1376Y1790D01*
X1376Y1790D01*
X1376Y1790D01*
X1376Y1790D01*
X1376Y1789D01*
X1377Y1789D01*
X1377Y1789D01*
X1377Y1788D01*
X1377Y1788D01*
X1377Y1787D01*
X1378Y1787D01*
X1378Y1786D01*
X1378Y1786D01*
X1378Y1785D01*
X1378Y1784D01*
Y1784D01*
X1378Y1784D01*
X1378Y1783D01*
X1378Y1783D01*
X1378Y1783D01*
X1378Y1782D01*
X1377Y1781D01*
X1377Y1781D01*
X1377Y1780D01*
X1377Y1780D01*
X1376Y1779D01*
X1376Y1779D01*
X1376Y1778D01*
X1376Y1778D01*
X1376Y1778D01*
X1376Y1778D01*
X1375Y1778D01*
X1375Y1778D01*
X1375Y1778D01*
X1375Y1777D01*
X1374Y1777D01*
X1374Y1777D01*
X1373Y1777D01*
X1373Y1776D01*
X1372Y1776D01*
X1371Y1776D01*
X1371Y1776D01*
X1370Y1776D01*
X1370D01*
X1370D01*
X1370D01*
X1370Y1776D01*
X1370D01*
X1369Y1776D01*
X1369Y1776D01*
X1368Y1776D01*
X1368Y1777D01*
X1367Y1777D01*
X1366Y1777D01*
X1366D01*
X1366Y1777D01*
X1366Y1777D01*
X1366Y1778D01*
X1365Y1778D01*
X1365Y1779D01*
X1364Y1779D01*
X1364Y1780D01*
X1364Y1781D01*
Y1781D01*
X1364Y1781D01*
X1364Y1781D01*
X1364Y1781D01*
X1364Y1780D01*
X1363Y1780D01*
X1363Y1779D01*
X1363Y1779D01*
X1362Y1778D01*
X1362Y1778D01*
X1362Y1778D01*
X1362Y1778D01*
X1361Y1778D01*
X1361Y1778D01*
X1361Y1777D01*
X1360Y1777D01*
X1359Y1777D01*
X1359Y1777D01*
X1359D01*
X1359D01*
X1358D01*
X1358Y1777D01*
X1358Y1777D01*
X1358Y1777D01*
X1357Y1777D01*
X1356Y1778D01*
X1356Y1778D01*
X1355Y1778D01*
X1355Y1778D01*
X1354Y1779D01*
X1354Y1779D01*
X1354Y1779D01*
X1354Y1779D01*
X1354Y1779D01*
X1354Y1779D01*
X1354Y1780D01*
X1354Y1780D01*
X1353Y1780D01*
X1353Y1780D01*
X1353Y1781D01*
X1353Y1781D01*
X1353Y1782D01*
X1353Y1782D01*
X1352Y1783D01*
X1352Y1784D01*
X1352Y1784D01*
Y1785D01*
X1352Y1785D01*
X1352Y1785D01*
X1352Y1785D01*
X1352Y1786D01*
X1352Y1786D01*
X1353Y1787D01*
X1353Y1788D01*
X1353Y1788D01*
X1353Y1789D01*
X1354Y1789D01*
X1354Y1790D01*
X1354Y1790D01*
X1354Y1790D01*
X1354Y1790D01*
X1354Y1790D01*
X1355Y1790D01*
X1355Y1790D01*
X1355Y1791D01*
X1356Y1791D01*
X1357Y1791D01*
X1358Y1792D01*
X1358Y1792D01*
X1359Y1792D01*
X1359D01*
X1359D01*
X1359D01*
X1359Y1792D01*
X1360Y1791D01*
X1360Y1791D01*
X1361Y1791D01*
X1361Y1791D01*
X1362Y1791D01*
X1362Y1791D01*
X1362Y1790D01*
X1362Y1790D01*
X1363Y1790D01*
X1363Y1790D01*
X1363Y1789D01*
X1364Y1789D01*
X1364Y1788D01*
Y1788D01*
X1364Y1788D01*
X1364Y1788D01*
X1364Y1788D01*
X1364Y1789D01*
X1364Y1789D01*
X1365Y1790D01*
X1365Y1790D01*
X1366Y1791D01*
X1366Y1791D01*
X1366D01*
X1366Y1791D01*
X1367Y1792D01*
X1367Y1792D01*
X1367Y1792D01*
X1368Y1792D01*
X1369Y1792D01*
X1370Y1793D01*
X1370Y1793D01*
X1370D01*
X1370D01*
X1371D01*
X1371Y1793D01*
D02*
G37*
G36*
X1378Y1770D02*
X1372Y1767D01*
X1372D01*
X1372Y1767D01*
X1372Y1766D01*
X1372Y1766D01*
X1372Y1766D01*
X1371Y1766D01*
X1370Y1765D01*
X1370Y1765D01*
X1369Y1765D01*
X1369Y1764D01*
X1369Y1764D01*
X1369Y1764D01*
X1368Y1764D01*
X1368Y1764D01*
X1368Y1763D01*
X1367Y1763D01*
X1367Y1763D01*
X1367Y1762D01*
X1367Y1762D01*
X1367Y1762D01*
X1367Y1762D01*
X1367Y1762D01*
X1367Y1762D01*
X1366Y1761D01*
Y1761D01*
X1366Y1761D01*
Y1761D01*
X1366Y1761D01*
X1366Y1760D01*
Y1760D01*
X1366Y1760D01*
Y1755D01*
X1378D01*
Y1752D01*
X1352D01*
Y1764D01*
X1352Y1764D01*
Y1764D01*
X1352Y1765D01*
X1353Y1766D01*
X1353Y1767D01*
X1353Y1768D01*
X1353Y1768D01*
X1353Y1768D01*
Y1768D01*
X1353Y1768D01*
X1353Y1769D01*
X1353Y1769D01*
X1354Y1769D01*
X1354Y1770D01*
X1354Y1770D01*
X1355Y1771D01*
X1355Y1771D01*
X1355D01*
X1355Y1771D01*
X1356Y1771D01*
X1356Y1771D01*
X1357Y1772D01*
X1357Y1772D01*
X1358Y1772D01*
X1358Y1772D01*
X1359Y1772D01*
X1359D01*
X1359D01*
X1359D01*
X1360Y1772D01*
X1360D01*
X1360Y1772D01*
X1361Y1772D01*
X1362Y1772D01*
X1362Y1771D01*
X1363Y1771D01*
X1363Y1771D01*
X1364Y1770D01*
X1364Y1770D01*
X1364Y1770D01*
X1364Y1770D01*
X1364Y1770D01*
X1364Y1770D01*
X1364Y1770D01*
X1365Y1769D01*
X1365Y1769D01*
X1365Y1769D01*
X1365Y1768D01*
X1365Y1768D01*
X1366Y1767D01*
X1366Y1767D01*
X1366Y1766D01*
X1366Y1766D01*
X1366Y1765D01*
X1366Y1765D01*
X1366Y1765D01*
X1366Y1765D01*
X1366Y1766D01*
X1367Y1766D01*
X1367Y1767D01*
X1367Y1767D01*
X1367Y1767D01*
X1368Y1767D01*
X1368Y1768D01*
X1368Y1768D01*
X1369Y1768D01*
X1369Y1769D01*
X1370Y1769D01*
X1371Y1770D01*
X1378Y1774D01*
Y1770D01*
D02*
G37*
%LPC*%
G36*
X1745Y715D02*
X1736D01*
Y708D01*
X1737Y707D01*
X1737Y707D01*
X1737Y706D01*
X1737Y706D01*
X1737Y705D01*
X1737Y704D01*
X1737Y704D01*
X1737Y704D01*
X1737Y704D01*
X1737Y704D01*
X1738Y703D01*
X1738Y703D01*
X1738Y703D01*
X1738Y702D01*
X1738Y702D01*
X1739Y702D01*
X1739Y702D01*
X1739Y702D01*
X1739Y702D01*
X1740Y702D01*
X1740Y702D01*
X1741Y702D01*
X1741D01*
X1741D01*
X1741Y702D01*
X1741Y702D01*
X1742Y702D01*
X1742Y702D01*
X1743Y702D01*
X1743Y703D01*
X1744Y703D01*
X1744Y703D01*
X1744Y703D01*
X1744Y704D01*
X1744Y704D01*
X1744Y705D01*
X1745Y705D01*
X1745Y706D01*
X1745Y707D01*
Y715D01*
D02*
G37*
G36*
X1263Y1751D02*
X1249Y1737D01*
X1253Y1733D01*
X1254Y1733D01*
X1254Y1732D01*
X1255Y1732D01*
X1255Y1732D01*
X1256Y1731D01*
X1256Y1731D01*
X1256Y1731D01*
X1256Y1731D01*
X1257Y1731D01*
X1257Y1731D01*
X1257Y1731D01*
X1258Y1730D01*
X1258Y1730D01*
X1259Y1730D01*
X1259Y1730D01*
X1259D01*
X1259Y1730D01*
X1260Y1730D01*
X1260Y1731D01*
X1261Y1731D01*
X1262Y1731D01*
X1262Y1731D01*
X1262Y1731D01*
X1262Y1731D01*
X1262Y1731D01*
X1263Y1731D01*
X1263Y1732D01*
X1263Y1732D01*
X1263Y1732D01*
X1263Y1732D01*
X1264Y1732D01*
X1265Y1733D01*
X1265Y1734D01*
X1266Y1734D01*
X1266Y1734D01*
X1266Y1734D01*
X1266Y1734D01*
X1267Y1735D01*
X1267Y1735D01*
X1267Y1735D01*
X1267Y1736D01*
X1268Y1736D01*
X1268Y1737D01*
X1269Y1738D01*
X1269Y1738D01*
X1269Y1739D01*
X1269Y1739D01*
X1269Y1739D01*
Y1740D01*
X1270Y1740D01*
X1270Y1740D01*
X1270Y1740D01*
X1270Y1741D01*
Y1742D01*
X1270Y1742D01*
X1269Y1743D01*
X1269Y1744D01*
X1269Y1744D01*
X1269Y1744D01*
X1269Y1744D01*
X1269Y1745D01*
X1268Y1745D01*
X1268Y1746D01*
X1268Y1746D01*
X1267Y1746D01*
X1267Y1747D01*
X1263Y1751D01*
D02*
G37*
G36*
X1281Y1732D02*
X1280Y1732D01*
X1280Y1732D01*
X1279Y1732D01*
X1279Y1731D01*
X1279Y1731D01*
X1278Y1731D01*
X1278Y1731D01*
X1278Y1731D01*
X1278Y1731D01*
X1278Y1730D01*
X1277Y1730D01*
X1277Y1730D01*
X1277Y1729D01*
X1277Y1729D01*
X1277Y1728D01*
Y1728D01*
X1277Y1728D01*
X1277Y1727D01*
X1277Y1727D01*
X1277Y1727D01*
X1277Y1726D01*
X1278Y1726D01*
X1278Y1725D01*
X1278Y1725D01*
X1278Y1725D01*
X1279Y1725D01*
X1279Y1724D01*
X1279Y1724D01*
X1280Y1724D01*
X1280Y1724D01*
X1281Y1724D01*
X1281D01*
X1281Y1724D01*
X1282Y1724D01*
X1282Y1724D01*
X1282Y1724D01*
X1283Y1724D01*
X1283Y1725D01*
X1284Y1725D01*
X1284Y1725D01*
X1284Y1725D01*
X1284Y1725D01*
X1284Y1725D01*
X1284Y1726D01*
X1285Y1726D01*
X1285Y1727D01*
X1285Y1727D01*
X1285Y1728D01*
Y1728D01*
X1285Y1728D01*
X1285Y1728D01*
X1285Y1729D01*
X1285Y1729D01*
X1284Y1730D01*
X1284Y1730D01*
X1284Y1731D01*
X1284Y1731D01*
X1283Y1731D01*
X1283Y1731D01*
X1282Y1732D01*
X1282Y1732D01*
X1281Y1732D01*
X1281Y1732D01*
X1281D01*
X1281D01*
D02*
G37*
G36*
X1273Y1725D02*
X1272Y1725D01*
X1272Y1725D01*
X1272Y1725D01*
X1271Y1724D01*
X1270Y1724D01*
X1270Y1724D01*
X1269Y1723D01*
X1269Y1723D01*
X1269Y1723D01*
X1269Y1723D01*
X1269Y1723D01*
X1268Y1722D01*
X1268Y1722D01*
X1268Y1722D01*
X1268Y1721D01*
Y1721D01*
X1268Y1721D01*
X1268Y1721D01*
X1268Y1720D01*
X1268Y1720D01*
Y1719D01*
X1268Y1719D01*
X1268Y1718D01*
X1268Y1718D01*
X1268Y1718D01*
X1268Y1718D01*
X1268Y1718D01*
X1268Y1717D01*
X1269Y1717D01*
X1269Y1716D01*
X1269Y1716D01*
X1269Y1716D01*
X1269Y1716D01*
X1270Y1716D01*
X1270Y1715D01*
X1271Y1715D01*
X1271Y1715D01*
X1272Y1715D01*
X1273Y1714D01*
X1273D01*
X1273Y1715D01*
X1274Y1715D01*
X1274Y1715D01*
X1275Y1715D01*
X1275Y1715D01*
X1276Y1716D01*
X1276Y1716D01*
X1276Y1716D01*
X1276Y1716D01*
X1277Y1716D01*
X1277Y1716D01*
X1277Y1717D01*
X1277Y1717D01*
X1277Y1718D01*
X1278Y1718D01*
X1278Y1719D01*
X1278Y1720D01*
Y1720D01*
X1278Y1720D01*
X1278Y1720D01*
X1278Y1721D01*
X1278Y1721D01*
X1277Y1722D01*
X1277Y1723D01*
X1276Y1723D01*
X1276Y1724D01*
X1276Y1724D01*
X1276Y1724D01*
X1275Y1724D01*
X1275Y1724D01*
X1274Y1725D01*
X1273Y1725D01*
X1273Y1725D01*
X1273D01*
D02*
G37*
G36*
X1215Y1351D02*
X1215Y1351D01*
X1215Y1351D01*
X1214Y1351D01*
X1214Y1350D01*
X1213Y1350D01*
X1212Y1350D01*
X1212Y1349D01*
X1212Y1349D01*
X1211Y1349D01*
X1211Y1349D01*
X1211Y1348D01*
X1211Y1348D01*
X1210Y1348D01*
X1210Y1347D01*
X1210Y1347D01*
X1210Y1346D01*
X1210Y1346D01*
X1210Y1346D01*
X1210Y1346D01*
X1210Y1345D01*
X1210Y1345D01*
X1210Y1344D01*
X1210Y1344D01*
X1210Y1344D01*
X1210Y1343D01*
X1210Y1343D01*
X1210Y1343D01*
X1210Y1342D01*
X1210Y1342D01*
X1211Y1342D01*
X1211Y1341D01*
X1211Y1341D01*
X1211Y1341D01*
X1211Y1341D01*
X1212Y1341D01*
X1212Y1340D01*
X1213Y1340D01*
X1214Y1340D01*
X1214Y1340D01*
X1214Y1340D01*
X1214Y1340D01*
X1215Y1340D01*
X1215Y1340D01*
X1215Y1340D01*
X1216Y1340D01*
X1216Y1341D01*
X1217Y1341D01*
X1218Y1341D01*
X1218Y1342D01*
X1218Y1342D01*
X1219Y1342D01*
X1219Y1342D01*
X1219Y1342D01*
X1219Y1342D01*
X1219Y1343D01*
X1219Y1343D01*
X1220Y1344D01*
X1220Y1344D01*
X1220Y1345D01*
X1220Y1346D01*
Y1346D01*
Y1346D01*
X1220Y1347D01*
X1220Y1347D01*
X1220Y1348D01*
X1220Y1348D01*
X1219Y1349D01*
X1219Y1349D01*
X1219Y1350D01*
X1219Y1350D01*
X1218Y1350D01*
X1218Y1350D01*
X1217Y1350D01*
X1217Y1351D01*
X1216Y1351D01*
X1215Y1351D01*
X1215D01*
D02*
G37*
G36*
X1204Y1376D02*
X1191Y1363D01*
X1195Y1358D01*
X1195Y1358D01*
X1196Y1358D01*
X1196Y1357D01*
X1197Y1357D01*
X1197Y1357D01*
X1198Y1356D01*
X1198Y1356D01*
X1198Y1356D01*
X1198Y1356D01*
X1198Y1356D01*
X1199Y1356D01*
X1199Y1356D01*
X1200Y1356D01*
X1200Y1356D01*
X1200Y1356D01*
X1200D01*
X1201Y1356D01*
X1201Y1356D01*
X1202Y1356D01*
X1202Y1356D01*
X1203Y1356D01*
X1204Y1357D01*
X1204Y1357D01*
X1204Y1357D01*
X1204Y1357D01*
X1204Y1357D01*
X1204Y1357D01*
X1204Y1357D01*
X1205Y1357D01*
X1205Y1357D01*
X1206Y1358D01*
X1206Y1358D01*
X1207Y1359D01*
X1208Y1360D01*
X1208Y1360D01*
X1208Y1360D01*
X1208Y1360D01*
X1208Y1360D01*
X1208Y1360D01*
X1209Y1361D01*
X1209Y1361D01*
X1209Y1361D01*
X1210Y1362D01*
X1210Y1363D01*
X1211Y1364D01*
X1211Y1364D01*
X1211Y1365D01*
X1211Y1365D01*
Y1365D01*
X1211Y1365D01*
X1211Y1365D01*
X1211Y1366D01*
X1211Y1366D01*
Y1367D01*
X1211Y1368D01*
X1211Y1368D01*
X1211Y1369D01*
X1211Y1369D01*
X1211Y1369D01*
X1210Y1370D01*
X1210Y1370D01*
X1210Y1370D01*
X1209Y1371D01*
X1209Y1371D01*
X1209Y1372D01*
X1208Y1372D01*
X1204Y1376D01*
D02*
G37*
G36*
X572Y925D02*
X572D01*
X571Y925D01*
X570Y925D01*
X570Y925D01*
X570Y925D01*
X569Y925D01*
X569Y925D01*
X569Y924D01*
X568Y924D01*
X568Y924D01*
X567Y923D01*
X567Y923D01*
X567Y923D01*
X562Y919D01*
X576Y905D01*
X580Y909D01*
X580Y909D01*
X581Y910D01*
X581Y910D01*
X582Y911D01*
X582Y911D01*
X582Y912D01*
X582Y912D01*
X582Y912D01*
X583Y912D01*
X583Y913D01*
X583Y913D01*
X583Y914D01*
X583Y914D01*
X583Y914D01*
X583Y915D01*
Y915D01*
X583Y915D01*
X583Y916D01*
X583Y916D01*
X583Y917D01*
X582Y917D01*
X582Y918D01*
X582Y918D01*
X582Y918D01*
X582Y918D01*
X582Y918D01*
X582Y918D01*
X582Y919D01*
X581Y919D01*
X581Y919D01*
X581Y920D01*
X580Y920D01*
X580Y921D01*
X579Y922D01*
X579Y922D01*
X579Y922D01*
X579Y922D01*
X579Y922D01*
X578Y923D01*
X578Y923D01*
X578Y923D01*
X577Y923D01*
X577Y924D01*
X576Y925D01*
X575Y925D01*
X574Y925D01*
X574Y925D01*
X574Y925D01*
X574D01*
X574Y925D01*
X573Y925D01*
X573Y925D01*
X572Y925D01*
D02*
G37*
G36*
X1666Y126D02*
X1653Y113D01*
X1657Y108D01*
X1657Y108D01*
X1658Y108D01*
X1658Y107D01*
X1659Y107D01*
X1659Y107D01*
X1660Y106D01*
X1660Y106D01*
X1660Y106D01*
X1660Y106D01*
X1660Y106D01*
X1661Y106D01*
X1661Y106D01*
X1662Y106D01*
X1662Y106D01*
X1662Y106D01*
X1662D01*
X1663Y106D01*
X1663Y106D01*
X1664Y106D01*
X1664Y106D01*
X1665Y106D01*
X1666Y107D01*
X1666Y107D01*
X1666Y107D01*
X1666Y107D01*
X1666Y107D01*
X1666Y107D01*
X1666Y107D01*
X1667Y107D01*
X1667Y107D01*
X1668Y108D01*
X1668Y108D01*
X1669Y109D01*
X1670Y110D01*
X1670Y110D01*
X1670Y110D01*
X1670Y110D01*
X1670Y110D01*
X1670Y110D01*
X1671Y111D01*
X1671Y111D01*
X1671Y111D01*
X1672Y112D01*
X1672Y113D01*
X1673Y114D01*
X1673Y114D01*
X1673Y115D01*
X1673Y115D01*
Y115D01*
X1673Y115D01*
X1673Y115D01*
X1673Y116D01*
X1673Y116D01*
Y117D01*
X1673Y118D01*
X1673Y118D01*
X1673Y119D01*
X1673Y119D01*
X1673Y119D01*
X1672Y120D01*
X1672Y120D01*
X1672Y120D01*
X1671Y121D01*
X1671Y121D01*
X1671Y122D01*
X1670Y122D01*
X1666Y126D01*
D02*
G37*
G36*
X1687Y103D02*
X1673Y101D01*
X1679Y95D01*
X1687Y103D01*
D02*
G37*
G36*
X1074Y1356D02*
X1074D01*
X1074D01*
X1074D01*
X1074Y1356D01*
X1074D01*
X1073Y1356D01*
X1073Y1356D01*
X1072Y1356D01*
X1071Y1356D01*
X1071Y1355D01*
X1070Y1355D01*
X1070Y1355D01*
X1070Y1355D01*
X1070Y1354D01*
X1069Y1354D01*
X1069Y1353D01*
X1069Y1353D01*
X1069Y1352D01*
X1069Y1351D01*
Y1351D01*
X1069Y1351D01*
X1069Y1351D01*
X1069Y1350D01*
X1069Y1350D01*
X1069Y1349D01*
X1070Y1348D01*
X1070Y1348D01*
X1070Y1348D01*
X1070Y1348D01*
X1071Y1347D01*
X1071Y1347D01*
X1072Y1347D01*
X1072Y1347D01*
X1073Y1346D01*
X1074Y1346D01*
X1074D01*
X1074D01*
X1075Y1346D01*
X1075Y1346D01*
X1076Y1347D01*
X1076Y1347D01*
X1077Y1347D01*
X1077Y1347D01*
X1077Y1347D01*
X1077Y1347D01*
X1078Y1347D01*
X1078Y1348D01*
X1078Y1348D01*
X1079Y1348D01*
X1079Y1349D01*
X1079Y1349D01*
X1079Y1349D01*
X1079Y1349D01*
X1080Y1349D01*
X1080Y1350D01*
X1080Y1350D01*
X1080Y1351D01*
X1080Y1351D01*
X1080Y1352D01*
Y1352D01*
X1080Y1352D01*
X1080Y1352D01*
X1080Y1353D01*
X1080Y1353D01*
X1079Y1354D01*
X1079Y1354D01*
X1079Y1355D01*
X1079Y1355D01*
X1079D01*
X1078Y1355D01*
X1078Y1355D01*
X1078Y1355D01*
X1077Y1356D01*
X1077Y1356D01*
X1076Y1356D01*
X1075Y1356D01*
X1074Y1356D01*
D02*
G37*
G36*
X1064Y1336D02*
X1064D01*
X1064D01*
X1064Y1336D01*
X1063Y1336D01*
X1063Y1335D01*
X1062Y1335D01*
X1062Y1335D01*
X1061Y1335D01*
X1061Y1334D01*
X1061Y1334D01*
X1061Y1334D01*
X1061Y1334D01*
X1060Y1333D01*
X1060Y1333D01*
X1060Y1332D01*
X1060Y1331D01*
X1060Y1330D01*
Y1322D01*
X1068D01*
Y1330D01*
X1068Y1330D01*
X1068Y1331D01*
X1068Y1331D01*
X1068Y1332D01*
X1068Y1332D01*
X1068Y1333D01*
X1068Y1333D01*
X1068Y1333D01*
X1068Y1333D01*
X1067Y1334D01*
X1067Y1334D01*
X1067Y1334D01*
X1067Y1335D01*
X1066Y1335D01*
X1066Y1335D01*
X1066Y1335D01*
X1066Y1335D01*
X1066Y1335D01*
X1065Y1335D01*
X1065Y1335D01*
X1064Y1336D01*
X1064Y1336D01*
D02*
G37*
G36*
X699Y850D02*
X699D01*
X699D01*
X699Y850D01*
X699Y850D01*
X698Y850D01*
X698Y849D01*
X697Y849D01*
X697Y849D01*
X696Y848D01*
X696Y848D01*
X696Y848D01*
X696Y848D01*
X696Y847D01*
X695Y847D01*
X695Y846D01*
X695Y845D01*
X695Y844D01*
Y836D01*
X703D01*
Y844D01*
X703Y844D01*
X703Y845D01*
X703Y845D01*
X703Y846D01*
X703Y847D01*
X703Y847D01*
X703Y847D01*
X703Y847D01*
X703Y847D01*
X703Y848D01*
X702Y848D01*
X702Y848D01*
X702Y849D01*
X701Y849D01*
X701Y849D01*
X701Y849D01*
X701Y849D01*
X701Y849D01*
X700Y849D01*
X700Y850D01*
X700Y850D01*
X699Y850D01*
D02*
G37*
G36*
X1510Y158D02*
X1502Y147D01*
X1510D01*
Y158D01*
D02*
G37*
G36*
X1488Y160D02*
X1480D01*
Y152D01*
X1487D01*
X1488Y152D01*
X1488Y152D01*
X1489Y152D01*
X1489Y152D01*
X1490Y152D01*
X1490Y152D01*
X1491Y152D01*
X1491Y152D01*
X1491Y153D01*
X1491Y153D01*
X1491Y153D01*
X1492Y153D01*
X1492Y153D01*
X1492Y154D01*
X1492Y154D01*
X1493Y154D01*
X1493Y154D01*
X1493Y155D01*
X1493Y155D01*
X1493Y155D01*
X1493Y156D01*
X1493Y156D01*
Y156D01*
Y156D01*
X1493Y156D01*
X1493Y157D01*
X1493Y157D01*
X1493Y158D01*
X1493Y158D01*
X1492Y159D01*
X1492Y159D01*
X1492Y159D01*
X1492Y159D01*
X1491Y159D01*
X1491Y160D01*
X1490Y160D01*
X1489Y160D01*
X1489Y160D01*
X1488Y160D01*
D02*
G37*
G36*
X359Y1044D02*
X355Y1040D01*
X355Y1039D01*
X354Y1039D01*
X354Y1038D01*
X353Y1038D01*
X353Y1037D01*
X353Y1037D01*
X353Y1037D01*
X353Y1037D01*
X353Y1036D01*
X352Y1036D01*
X352Y1036D01*
X352Y1035D01*
X352Y1035D01*
X352Y1034D01*
X352Y1034D01*
Y1034D01*
X352Y1034D01*
X352Y1033D01*
X352Y1033D01*
X352Y1032D01*
X353Y1032D01*
X353Y1031D01*
X353Y1031D01*
X353Y1031D01*
X353Y1031D01*
X353Y1031D01*
X353Y1030D01*
X353Y1030D01*
X354Y1030D01*
X354Y1030D01*
X354Y1029D01*
X355Y1028D01*
X355Y1028D01*
X356Y1027D01*
X356Y1027D01*
X356Y1027D01*
X356Y1027D01*
X356Y1026D01*
X357Y1026D01*
X357Y1026D01*
X357Y1026D01*
X358Y1025D01*
X358Y1025D01*
X359Y1024D01*
X360Y1024D01*
X361Y1024D01*
X361Y1024D01*
X361Y1024D01*
X361D01*
X361Y1024D01*
X362Y1023D01*
X362Y1023D01*
X363Y1023D01*
X363D01*
X364Y1023D01*
X365Y1024D01*
X365Y1024D01*
X365Y1024D01*
X366Y1024D01*
X366Y1024D01*
X366Y1024D01*
X367Y1025D01*
X367Y1025D01*
X368Y1025D01*
X368Y1026D01*
X368Y1026D01*
X373Y1030D01*
X359Y1044D01*
D02*
G37*
G36*
X327Y1011D02*
X327Y1011D01*
X326Y1011D01*
X325Y1011D01*
X325Y1011D01*
X324Y1010D01*
X324Y1010D01*
X324Y1010D01*
X324Y1010D01*
X324Y1009D01*
X323Y1009D01*
X323Y1008D01*
X323Y1008D01*
X323Y1007D01*
Y1007D01*
Y1007D01*
X323Y1006D01*
X323Y1006D01*
Y1006D01*
X323Y1006D01*
X323Y1006D01*
X323Y1005D01*
X323Y1005D01*
X323Y1005D01*
X324Y1004D01*
X324Y1004D01*
X324Y1003D01*
X325Y1003D01*
X325Y1002D01*
X326Y1001D01*
X326Y1001D01*
X327Y1000D01*
X328Y999D01*
X328Y999D01*
X328Y999D01*
X328Y999D01*
X328Y999D01*
X328Y998D01*
X329Y998D01*
X329Y998D01*
X330Y997D01*
X330Y997D01*
X331Y996D01*
X332Y996D01*
X332Y995D01*
X333Y995D01*
X334Y995D01*
X334Y994D01*
X335Y994D01*
X335Y994D01*
X335Y994D01*
X335Y994D01*
X335Y994D01*
X335D01*
X336D01*
X337Y994D01*
X337Y995D01*
X338Y995D01*
X338Y995D01*
X338Y995D01*
X339Y995D01*
X339Y996D01*
X339Y996D01*
X339Y996D01*
X339Y996D01*
X340Y997D01*
X340Y998D01*
X340Y998D01*
X340Y998D01*
X340Y999D01*
X340Y999D01*
X340Y999D01*
Y999D01*
X340Y999D01*
X340Y1000D01*
X340Y1000D01*
X339Y1000D01*
X339Y1001D01*
X339Y1001D01*
X339Y1002D01*
X338Y1002D01*
X338Y1003D01*
X337Y1003D01*
X337Y1004D01*
X336Y1005D01*
X336Y1005D01*
X335Y1006D01*
X335Y1006D01*
X335Y1006D01*
X334Y1007D01*
X334Y1007D01*
X334Y1007D01*
X333Y1008D01*
X333Y1008D01*
X332Y1009D01*
X331Y1009D01*
X331Y1010D01*
X330Y1010D01*
X330Y1011D01*
X329Y1011D01*
X328Y1011D01*
X328Y1011D01*
X328Y1011D01*
X328Y1011D01*
X328Y1011D01*
X327D01*
D02*
G37*
G36*
X1656Y589D02*
X1643Y576D01*
X1647Y571D01*
X1647Y571D01*
X1647Y571D01*
X1648Y570D01*
X1648Y570D01*
X1649Y570D01*
X1649Y569D01*
X1650Y569D01*
X1650Y569D01*
X1650Y569D01*
X1650Y569D01*
X1651Y569D01*
X1651Y569D01*
X1652Y569D01*
X1652Y569D01*
X1652Y569D01*
X1652D01*
X1653Y569D01*
X1653Y569D01*
X1654Y569D01*
X1654Y569D01*
X1655Y569D01*
X1656Y570D01*
X1656Y570D01*
X1656Y570D01*
X1656Y570D01*
X1656Y570D01*
X1656Y570D01*
X1656Y570D01*
X1657Y570D01*
X1657Y570D01*
X1657Y571D01*
X1658Y571D01*
X1659Y572D01*
X1660Y572D01*
X1660Y573D01*
X1660Y573D01*
X1660Y573D01*
X1660Y573D01*
X1660Y573D01*
X1660Y573D01*
X1661Y574D01*
X1661Y574D01*
X1662Y575D01*
X1662Y576D01*
X1663Y577D01*
X1663Y577D01*
X1663Y578D01*
X1663Y578D01*
Y578D01*
X1663Y578D01*
X1663Y578D01*
X1663Y579D01*
X1663Y579D01*
Y580D01*
X1663Y581D01*
X1663Y581D01*
X1663Y582D01*
X1663Y582D01*
X1662Y582D01*
X1662Y582D01*
X1662Y583D01*
X1662Y583D01*
X1661Y584D01*
X1661Y584D01*
X1661Y585D01*
X1660Y585D01*
X1656Y589D01*
D02*
G37*
G36*
X328Y1197D02*
X320D01*
Y1190D01*
X320Y1190D01*
X320Y1189D01*
X320Y1188D01*
X320Y1188D01*
X320Y1187D01*
X320Y1187D01*
X320Y1187D01*
X320Y1187D01*
X320Y1186D01*
X320Y1186D01*
X321Y1186D01*
X321Y1185D01*
X321Y1185D01*
X322Y1185D01*
X322Y1185D01*
X322Y1185D01*
X322Y1185D01*
X322Y1184D01*
X323Y1184D01*
X323Y1184D01*
X323Y1184D01*
X324Y1184D01*
X324D01*
X324D01*
X324Y1184D01*
X324Y1184D01*
X325Y1184D01*
X325Y1184D01*
X326Y1185D01*
X326Y1185D01*
X327Y1185D01*
X327Y1185D01*
X327Y1186D01*
X327Y1186D01*
X327Y1186D01*
X328Y1187D01*
X328Y1188D01*
X328Y1189D01*
X328Y1190D01*
Y1197D01*
D02*
G37*
G36*
X318Y1154D02*
X318D01*
X318D01*
X317D01*
X317Y1154D01*
X316D01*
X316Y1154D01*
X315Y1154D01*
X315Y1154D01*
X313Y1154D01*
X313Y1153D01*
X312Y1153D01*
X311Y1153D01*
X311Y1153D01*
X310Y1153D01*
X310Y1152D01*
X310D01*
X310Y1152D01*
X309Y1152D01*
X309Y1152D01*
X309Y1152D01*
X308Y1151D01*
X308Y1150D01*
X308Y1150D01*
X308Y1149D01*
X308Y1149D01*
Y1149D01*
X308Y1149D01*
X308Y1148D01*
X308Y1148D01*
X308Y1147D01*
X309Y1146D01*
X309Y1146D01*
X309Y1146D01*
X309Y1146D01*
X310Y1145D01*
X310D01*
X310Y1145D01*
X310Y1145D01*
X310Y1145D01*
X310Y1145D01*
X311Y1145D01*
X311Y1145D01*
X311Y1145D01*
X312Y1144D01*
X313Y1144D01*
X313Y1144D01*
X314Y1144D01*
X315Y1144D01*
X316Y1144D01*
X317Y1144D01*
X318D01*
X318D01*
X318D01*
X318D01*
X319D01*
X319Y1144D01*
X319D01*
X320Y1144D01*
X321Y1144D01*
X321Y1144D01*
X323Y1144D01*
X323Y1144D01*
X324Y1144D01*
X325Y1145D01*
X325Y1145D01*
X326Y1145D01*
X326Y1145D01*
X326D01*
X326Y1145D01*
X326Y1145D01*
X327Y1146D01*
X327Y1146D01*
X327Y1146D01*
X328Y1147D01*
X328Y1147D01*
X328Y1148D01*
X328Y1148D01*
X328Y1149D01*
X328Y1149D01*
Y1149D01*
X328Y1149D01*
X328Y1150D01*
X328Y1150D01*
X328Y1151D01*
X328Y1151D01*
X327Y1152D01*
X327Y1152D01*
X327Y1152D01*
X326Y1152D01*
X326D01*
X326Y1152D01*
X326Y1153D01*
X326Y1153D01*
X326Y1153D01*
X325Y1153D01*
X325Y1153D01*
X325Y1153D01*
X324Y1153D01*
X323Y1153D01*
X323Y1154D01*
X322Y1154D01*
X321Y1154D01*
X320Y1154D01*
X319Y1154D01*
X318Y1154D01*
D02*
G37*
G36*
X1359Y1788D02*
X1359D01*
X1359D01*
X1359D01*
X1358Y1788D01*
X1358Y1788D01*
X1357Y1788D01*
X1357Y1788D01*
X1356Y1788D01*
X1356Y1787D01*
X1356Y1787D01*
X1356Y1787D01*
X1356Y1787D01*
X1355Y1786D01*
X1355Y1786D01*
X1355Y1786D01*
X1355Y1785D01*
X1355Y1784D01*
Y1784D01*
X1355Y1784D01*
X1355Y1783D01*
X1355Y1783D01*
X1355Y1782D01*
X1356Y1782D01*
X1356Y1781D01*
X1356Y1781D01*
X1356Y1781D01*
X1356Y1781D01*
X1357Y1781D01*
X1357Y1781D01*
X1358Y1780D01*
X1358Y1780D01*
X1359Y1780D01*
X1359D01*
X1359D01*
X1359Y1780D01*
X1359Y1780D01*
X1360Y1780D01*
X1360Y1781D01*
X1361Y1781D01*
X1361Y1781D01*
X1362Y1781D01*
X1362Y1781D01*
X1362Y1782D01*
X1362Y1782D01*
X1362Y1782D01*
X1362Y1783D01*
X1363Y1783D01*
X1363Y1784D01*
X1363Y1784D01*
Y1784D01*
X1363Y1785D01*
X1363Y1785D01*
X1363Y1785D01*
X1362Y1786D01*
X1362Y1786D01*
X1362Y1787D01*
X1362Y1787D01*
X1362Y1787D01*
X1361Y1787D01*
X1361Y1788D01*
X1361Y1788D01*
X1360Y1788D01*
X1360Y1788D01*
X1359Y1788D01*
X1359Y1788D01*
D02*
G37*
G36*
X1370Y1789D02*
X1370D01*
X1370D01*
X1370D01*
X1370Y1789D01*
X1370Y1789D01*
X1369Y1789D01*
X1369Y1789D01*
X1368Y1789D01*
X1367Y1788D01*
X1367Y1788D01*
X1367Y1788D01*
X1366Y1788D01*
X1366Y1787D01*
X1366Y1787D01*
X1366Y1786D01*
X1365Y1786D01*
X1365Y1785D01*
X1365Y1784D01*
Y1784D01*
X1365Y1784D01*
X1365Y1783D01*
X1365Y1783D01*
X1366Y1782D01*
X1366Y1782D01*
X1366Y1781D01*
X1367Y1781D01*
X1367Y1781D01*
X1367Y1780D01*
X1367Y1780D01*
X1368Y1780D01*
X1368Y1780D01*
X1369Y1779D01*
X1370Y1779D01*
X1370Y1779D01*
X1370D01*
X1370D01*
X1371Y1779D01*
X1371Y1779D01*
X1371Y1779D01*
X1372Y1779D01*
X1372Y1780D01*
X1373Y1780D01*
X1373Y1780D01*
X1373Y1780D01*
X1373Y1780D01*
X1374Y1780D01*
X1374Y1781D01*
X1374Y1781D01*
X1374Y1781D01*
X1375Y1782D01*
X1375Y1782D01*
X1375Y1782D01*
X1375Y1782D01*
X1375Y1782D01*
X1375Y1783D01*
X1375Y1783D01*
X1375Y1784D01*
X1375Y1784D01*
Y1785D01*
X1375Y1785D01*
X1375Y1785D01*
X1375Y1786D01*
X1375Y1786D01*
X1375Y1787D01*
X1374Y1787D01*
X1374Y1788D01*
X1374Y1788D01*
X1374Y1788D01*
X1373Y1788D01*
X1373Y1789D01*
X1372Y1789D01*
X1372Y1789D01*
X1371Y1789D01*
X1370Y1789D01*
D02*
G37*
G36*
X1359Y1769D02*
X1359D01*
X1359D01*
X1359Y1769D01*
X1359Y1769D01*
X1358Y1769D01*
X1358Y1768D01*
X1357Y1768D01*
X1357Y1768D01*
X1356Y1767D01*
X1356Y1767D01*
X1356Y1767D01*
X1356Y1767D01*
X1356Y1766D01*
X1355Y1766D01*
X1355Y1765D01*
X1355Y1764D01*
X1355Y1763D01*
Y1755D01*
X1363D01*
Y1763D01*
X1363Y1763D01*
X1363Y1764D01*
X1363Y1764D01*
X1363Y1765D01*
X1363Y1766D01*
X1363Y1766D01*
X1363Y1766D01*
X1363Y1766D01*
X1363Y1766D01*
X1363Y1767D01*
X1362Y1767D01*
X1362Y1767D01*
X1362Y1768D01*
X1362Y1768D01*
X1361Y1768D01*
X1361Y1768D01*
X1361Y1768D01*
X1361Y1768D01*
X1360Y1768D01*
X1360Y1769D01*
X1360Y1769D01*
X1359Y1769D01*
D02*
G37*
%LPD*%
D11*
X300Y-6D02*
X501Y261D01*
X127Y124D02*
X300Y-6D01*
X127Y124D02*
X328Y391D01*
X501Y261D01*
X1349Y1696D02*
X1407D01*
Y1808D01*
X1349D02*
X1407D01*
X1349Y1696D02*
Y1808D01*
X1694Y775D02*
X1751D01*
X1694Y662D02*
Y775D01*
Y662D02*
X1751D01*
Y775D01*
X1054Y1262D02*
X1111D01*
Y1375D01*
X1054D02*
X1111D01*
X1054Y1262D02*
Y1375D01*
X689Y777D02*
X747D01*
Y889D01*
X689D02*
X747D01*
X689Y777D02*
Y889D01*
X1420Y109D02*
Y167D01*
Y109D02*
X1533D01*
Y167D01*
X1420D02*
X1533D01*
X391Y1114D02*
X434Y1070D01*
X294Y1016D02*
X391Y1114D01*
X294Y1016D02*
X337Y973D01*
X434Y1070D01*
X1573Y608D02*
X1616Y651D01*
X1573Y608D02*
X1671Y511D01*
X1714Y554D01*
X1616Y651D02*
X1714Y554D01*
X276Y1257D02*
X334D01*
X276Y1144D02*
Y1257D01*
Y1144D02*
X334D01*
Y1257D01*
X1179Y1770D02*
X1223Y1813D01*
X1179Y1770D02*
X1277Y1672D01*
X1320Y1715D01*
X1223Y1813D02*
X1320Y1715D01*
X1121Y1395D02*
X1164Y1438D01*
X1121Y1395D02*
X1218Y1298D01*
X1262Y1341D01*
X1164Y1438D02*
X1262Y1341D01*
X501Y878D02*
X544Y835D01*
X641Y933D01*
X598Y976D02*
X641Y933D01*
X501Y878D02*
X598Y976D01*
X1583Y145D02*
X1626Y188D01*
X1583Y145D02*
X1681Y48D01*
X1724Y91D01*
X1626Y188D02*
X1724Y91D01*
M02*
