G04*
G04 #@! TF.GenerationSoftware,Altium Limited,Altium Designer,23.1.1 (15)*
G04*
G04 Layer_Color=16711935*
%FSLAX23Y23*%
%MOIN*%
G70*
G04*
G04 #@! TF.SameCoordinates,7DB063E5-64DA-4751-B351-23BD0CB7D004*
G04*
G04*
G04 #@! TF.FilePolarity,Positive*
G04*
G01*
G75*
%ADD11C,0.000*%
D11*
X435Y294D02*
X533Y391D01*
X490Y434D02*
X533Y391D01*
X392Y337D02*
X490Y434D01*
X392Y337D02*
X435Y294D01*
X524Y531D02*
X637D01*
X524Y473D02*
Y531D01*
Y473D02*
X637D01*
Y531D01*
X1710Y1133D02*
Y1190D01*
X1597Y1133D02*
X1710D01*
X1597D02*
Y1190D01*
X1710D01*
X1249Y933D02*
X1292Y976D01*
X1389Y878D01*
X1346Y835D02*
X1389Y878D01*
X1249Y933D02*
X1346Y835D01*
X638Y1351D02*
X682Y1308D01*
X638Y1351D02*
X736Y1448D01*
X779Y1405D01*
X682Y1308D02*
X779Y1405D01*
X1152Y1041D02*
X1210D01*
Y928D02*
Y1041D01*
X1152Y928D02*
X1210D01*
X1152D02*
Y1041D01*
X759Y1243D02*
X816D01*
X759D02*
Y1356D01*
X816D01*
Y1243D02*
Y1356D01*
X58Y357D02*
X101Y314D01*
X58Y357D02*
X155Y454D01*
X199Y411D01*
X101Y314D02*
X199Y411D01*
X667Y1773D02*
X710Y1730D01*
X613Y1632D02*
X710Y1730D01*
X569Y1676D02*
X613Y1632D01*
X569Y1676D02*
X667Y1773D01*
X1485Y1090D02*
X1528Y1133D01*
X1625Y1036D01*
X1582Y993D02*
X1625Y1036D01*
X1485Y1090D02*
X1582Y993D01*
X70Y579D02*
X127D01*
Y467D02*
Y579D01*
X70Y467D02*
X127D01*
X70D02*
Y579D01*
X455Y1753D02*
Y1810D01*
X568D01*
Y1753D02*
Y1810D01*
X455Y1753D02*
X568D01*
M02*
