G04*
G04 #@! TF.GenerationSoftware,Altium Limited,Altium Designer,23.1.1 (15)*
G04*
G04 Layer_Color=128*
%FSLAX23Y23*%
%MOIN*%
G70*
G04*
G04 #@! TF.SameCoordinates,7DB063E5-64DA-4751-B351-23BD0CB7D004*
G04*
G04*
G04 #@! TF.FilePolarity,Positive*
G04*
G01*
G75*
%ADD35C,0.005*%
D35*
X648Y236D02*
X721D01*
X685Y200D02*
Y273D01*
X1169Y236D02*
X1241D01*
X1205Y200D02*
Y273D01*
X337Y236D02*
X372D01*
X354Y219D02*
Y254D01*
X266Y142D02*
X301D01*
X283Y124D02*
Y160D01*
X1287Y1495D02*
X1301D01*
X1294Y1488D02*
Y1502D01*
X1269Y1519D02*
X1283D01*
X1276Y1512D02*
Y1526D01*
X1250Y1542D02*
X1264D01*
X1257Y1535D02*
Y1549D01*
X1233Y1565D02*
X1247D01*
X1240Y1558D02*
Y1572D01*
X1216Y1588D02*
X1230D01*
X1223Y1581D02*
Y1595D01*
X714Y1545D02*
X728D01*
X721Y1538D02*
Y1552D01*
X696Y1522D02*
X710D01*
X703Y1515D02*
Y1529D01*
X679Y1499D02*
X693D01*
X686Y1492D02*
Y1506D01*
X662Y1476D02*
X676D01*
X669Y1469D02*
Y1483D01*
X643Y1454D02*
X657D01*
X650Y1447D02*
Y1461D01*
X1098Y679D02*
X1126D01*
X1112Y665D02*
Y693D01*
X1098Y1132D02*
X1126D01*
X1112Y1118D02*
Y1146D01*
X764Y679D02*
X792D01*
X778Y665D02*
Y693D01*
X764Y1122D02*
X792D01*
X778Y1108D02*
Y1136D01*
X222Y1447D02*
X250D01*
X236Y1433D02*
Y1461D01*
X55Y719D02*
X83D01*
X69Y705D02*
Y733D01*
X1817Y502D02*
X1845D01*
X1831Y488D02*
Y516D01*
X1797Y1250D02*
X1825D01*
X1811Y1236D02*
Y1264D01*
X1162Y1538D02*
X1176D01*
X1169Y1531D02*
Y1545D01*
X1180Y1515D02*
X1194D01*
X1187Y1508D02*
Y1522D01*
X1197Y1492D02*
X1211D01*
X1204Y1485D02*
Y1499D01*
X1214Y1469D02*
X1228D01*
X1221Y1462D02*
Y1476D01*
X1233Y1447D02*
X1247D01*
X1240Y1440D02*
Y1454D01*
X591Y1492D02*
X605D01*
X598Y1485D02*
Y1499D01*
X609Y1516D02*
X623D01*
X616Y1509D02*
Y1523D01*
X628Y1539D02*
X642D01*
X635Y1532D02*
Y1546D01*
X645Y1562D02*
X659D01*
X652Y1555D02*
Y1569D01*
X662Y1585D02*
X676D01*
X669Y1578D02*
Y1592D01*
M02*
