%TF.GenerationSoftware,Altium Limited,Altium Designer,23.1.1 (15)*%
G04 Layer_Color=32896*
%FSLAX42Y42*%
%MOMM*%
%TF.SameCoordinates,B28E977E-5D45-45F3-9009-D632A0DEB075*%
%TF.FilePolarity,Positive*%
%TF.FileFunction,Other,Bottom_Assembly*%
%TF.Part,Single*%
G01*
G75*
%TA.AperFunction,NonConductor*%
%ADD26C,0.00*%
G36*
X1200Y964D02*
X1201Y964D01*
X1202Y964D01*
X1202Y964D01*
X1203Y963D01*
X1204Y963D01*
X1206Y963D01*
X1208Y962D01*
X1209Y961D01*
X1210Y961D01*
X1211Y960D01*
X1212Y960D01*
X1212Y960D01*
X1212Y960D01*
X1212Y960D01*
X1214Y959D01*
X1216Y958D01*
X1218Y956D01*
X1219Y955D01*
X1221Y954D01*
X1221Y953D01*
X1222Y953D01*
X1222Y953D01*
X1222Y952D01*
X1223Y952D01*
X1223Y952D01*
X1225Y950D01*
X1227Y948D01*
X1228Y945D01*
X1229Y944D01*
X1229Y944D01*
X1230Y943D01*
X1230Y942D01*
X1231Y941D01*
X1231Y941D01*
X1231Y940D01*
X1232Y940D01*
X1232Y940D01*
X1232Y939D01*
X1233Y937D01*
X1233Y935D01*
X1234Y932D01*
X1234Y931D01*
X1234Y929D01*
Y928D01*
X1234Y927D01*
Y927D01*
Y927D01*
Y926D01*
X1234Y925D01*
X1233Y923D01*
X1233Y921D01*
X1232Y920D01*
X1232Y918D01*
X1231Y917D01*
X1231Y917D01*
X1231Y917D01*
X1231Y917D01*
X1231Y917D01*
X1230Y915D01*
X1229Y914D01*
X1227Y912D01*
X1226Y911D01*
X1225Y910D01*
X1208Y892D01*
X1162Y938D01*
X1179Y954D01*
X1180Y955D01*
X1182Y957D01*
X1183Y958D01*
X1184Y959D01*
X1185Y959D01*
X1186Y960D01*
X1186Y960D01*
X1187Y960D01*
X1187Y960D01*
X1188Y961D01*
X1190Y962D01*
X1191Y962D01*
X1192Y963D01*
X1193Y963D01*
X1194Y963D01*
X1194Y963D01*
X1194Y963D01*
X1196Y964D01*
X1197D01*
X1199Y964D01*
X1200Y964D01*
D02*
G37*
G36*
X1234Y1003D02*
X1234D01*
X1236D01*
X1238Y1003D01*
X1239Y1002D01*
X1240Y1002D01*
X1242Y1002D01*
X1243Y1001D01*
X1245Y1000D01*
X1246Y1000D01*
X1246Y999D01*
X1247Y999D01*
X1248Y998D01*
X1248Y998D01*
X1249Y997D01*
X1249Y997D01*
X1249Y997D01*
X1250Y996D01*
X1252Y994D01*
X1252Y992D01*
X1253Y991D01*
X1253Y990D01*
X1254Y989D01*
X1254Y988D01*
X1254Y988D01*
X1254Y986D01*
X1254Y984D01*
X1253Y982D01*
X1253Y981D01*
X1252Y979D01*
X1252Y978D01*
X1252Y978D01*
X1252Y978D01*
X1252Y978D01*
X1252Y978D01*
X1253Y978D01*
X1255Y978D01*
X1256Y979D01*
X1257Y979D01*
X1258D01*
X1259Y979D01*
X1260Y978D01*
X1260Y978D01*
X1261Y978D01*
X1263Y977D01*
X1264Y977D01*
X1265Y976D01*
X1266Y976D01*
X1266Y975D01*
X1267Y975D01*
X1267Y975D01*
X1268Y973D01*
X1269Y972D01*
X1270Y971D01*
X1270Y970D01*
X1271Y969D01*
X1271Y968D01*
X1271Y967D01*
X1271Y967D01*
X1271Y966D01*
X1271Y964D01*
X1271Y962D01*
X1271Y961D01*
X1271Y960D01*
X1271Y959D01*
X1271Y958D01*
Y958D01*
X1271Y958D01*
X1270Y956D01*
X1269Y955D01*
X1268Y953D01*
X1267Y952D01*
X1267Y951D01*
X1266Y950D01*
X1264Y949D01*
X1263Y948D01*
X1261Y946D01*
X1259Y945D01*
X1257Y945D01*
X1257Y944D01*
X1256Y944D01*
X1255Y944D01*
X1255Y944D01*
X1254Y944D01*
X1254Y944D01*
X1254Y944D01*
X1253D01*
X1251D01*
X1249Y944D01*
X1246Y945D01*
X1244Y946D01*
X1243Y946D01*
X1242Y947D01*
X1241Y947D01*
X1241Y947D01*
X1241Y948D01*
X1240Y948D01*
X1240Y948D01*
X1245Y954D01*
X1246Y953D01*
X1248Y952D01*
X1250Y952D01*
X1251Y951D01*
X1252Y951D01*
X1253Y951D01*
X1253Y951D01*
X1254D01*
X1255Y951D01*
X1257Y952D01*
X1258Y952D01*
X1259Y953D01*
X1260Y953D01*
X1260Y954D01*
X1261Y954D01*
X1262Y956D01*
X1263Y957D01*
X1263Y958D01*
X1264Y959D01*
X1264Y960D01*
X1264Y961D01*
X1264Y962D01*
Y962D01*
X1264Y963D01*
X1264Y965D01*
X1263Y966D01*
X1263Y967D01*
X1262Y968D01*
X1262Y968D01*
X1262Y969D01*
X1261Y969D01*
X1261Y969D01*
X1261Y970D01*
X1260Y970D01*
X1258Y971D01*
X1257Y971D01*
X1256Y972D01*
X1255Y972D01*
X1254D01*
X1253Y972D01*
X1253D01*
X1253Y972D01*
X1251Y971D01*
X1250Y971D01*
X1248Y970D01*
X1247Y969D01*
X1246Y968D01*
X1245Y968D01*
X1244Y967D01*
X1244Y966D01*
X1244Y966D01*
X1238Y970D01*
X1239Y971D01*
X1240Y972D01*
X1241Y972D01*
X1242Y973D01*
X1242Y973D01*
X1243Y974D01*
X1244Y975D01*
X1245Y977D01*
X1246Y978D01*
X1246Y980D01*
X1246Y981D01*
X1247Y982D01*
X1247Y982D01*
Y983D01*
X1246Y984D01*
X1246Y986D01*
X1246Y988D01*
X1245Y989D01*
X1244Y990D01*
X1243Y991D01*
X1243Y991D01*
X1243Y991D01*
X1243Y991D01*
X1243Y991D01*
X1241Y993D01*
X1240Y994D01*
X1238Y994D01*
X1237Y995D01*
X1235Y995D01*
X1234Y995D01*
X1234Y995D01*
X1233D01*
X1231Y995D01*
X1230Y995D01*
X1228Y994D01*
X1227Y993D01*
X1226Y993D01*
X1225Y992D01*
X1224Y992D01*
X1224Y992D01*
X1223Y990D01*
X1222Y989D01*
X1221Y988D01*
X1221Y986D01*
X1221Y985D01*
X1221Y985D01*
Y984D01*
X1220Y984D01*
X1221Y982D01*
X1221Y980D01*
X1222Y979D01*
X1222Y977D01*
X1223Y976D01*
X1223Y975D01*
X1224Y975D01*
X1224Y974D01*
X1224Y974D01*
X1224Y974D01*
X1224Y974D01*
X1218Y969D01*
X1217Y970D01*
X1216Y971D01*
X1215Y974D01*
X1214Y976D01*
X1214Y977D01*
X1214Y978D01*
X1213Y979D01*
X1213Y980D01*
X1213Y981D01*
Y981D01*
X1213Y982D01*
Y982D01*
Y983D01*
Y983D01*
X1213Y984D01*
X1213Y985D01*
X1214Y987D01*
X1214Y988D01*
X1215Y990D01*
X1216Y992D01*
X1217Y993D01*
X1218Y994D01*
X1218Y994D01*
X1219Y995D01*
X1219Y995D01*
X1219Y996D01*
X1221Y997D01*
X1222Y998D01*
X1223Y999D01*
X1225Y1000D01*
X1226Y1001D01*
X1227Y1001D01*
X1228Y1002D01*
X1229Y1002D01*
X1230Y1002D01*
X1231Y1002D01*
X1232Y1003D01*
X1233Y1003D01*
X1234Y1003D01*
X1234Y1003D01*
X1234D01*
D02*
G37*
G36*
X1396Y1340D02*
X1399Y1340D01*
X1401Y1339D01*
X1403Y1338D01*
X1404Y1338D01*
X1404Y1337D01*
X1405Y1337D01*
X1405Y1337D01*
X1406Y1336D01*
X1406Y1336D01*
X1406Y1336D01*
X1406Y1336D01*
X1408Y1334D01*
X1410Y1332D01*
X1411Y1330D01*
X1412Y1328D01*
X1412Y1326D01*
X1412Y1326D01*
X1413Y1325D01*
X1413Y1325D01*
X1413Y1324D01*
X1413Y1324D01*
Y1324D01*
X1405Y1322D01*
X1405Y1324D01*
X1404Y1326D01*
X1403Y1328D01*
X1403Y1329D01*
X1402Y1330D01*
X1402Y1330D01*
X1401Y1331D01*
X1401Y1331D01*
X1400Y1332D01*
X1399Y1333D01*
X1397Y1333D01*
X1396Y1334D01*
X1395Y1334D01*
X1394Y1334D01*
X1394D01*
X1392Y1334D01*
X1390Y1333D01*
X1389Y1333D01*
X1388Y1333D01*
X1387Y1332D01*
X1387Y1331D01*
X1386Y1331D01*
X1386Y1331D01*
X1385Y1330D01*
X1384Y1329D01*
X1384Y1328D01*
X1383Y1326D01*
X1383Y1325D01*
X1383Y1325D01*
Y1324D01*
Y1324D01*
Y1324D01*
Y1323D01*
X1383Y1322D01*
X1384Y1320D01*
X1384Y1319D01*
X1385Y1318D01*
X1386Y1317D01*
X1386Y1316D01*
X1387Y1316D01*
X1387Y1316D01*
X1387D01*
X1389Y1315D01*
X1390Y1314D01*
X1392Y1314D01*
X1393Y1314D01*
X1394Y1313D01*
X1395Y1313D01*
X1397D01*
X1397Y1313D01*
X1397D01*
X1398Y1306D01*
X1397Y1307D01*
X1396Y1307D01*
X1395Y1307D01*
X1394Y1307D01*
X1394Y1307D01*
X1393D01*
X1391Y1307D01*
X1389Y1307D01*
X1387Y1306D01*
X1386Y1306D01*
X1385Y1305D01*
X1384Y1304D01*
X1384Y1304D01*
X1384Y1304D01*
X1383Y1302D01*
X1382Y1301D01*
X1381Y1299D01*
X1381Y1298D01*
X1380Y1297D01*
X1380Y1296D01*
X1380Y1295D01*
Y1295D01*
Y1295D01*
Y1295D01*
X1380Y1293D01*
X1381Y1291D01*
X1381Y1289D01*
X1382Y1288D01*
X1383Y1287D01*
X1383Y1286D01*
X1384Y1285D01*
X1384Y1285D01*
X1386Y1284D01*
X1387Y1283D01*
X1389Y1282D01*
X1390Y1282D01*
X1391Y1282D01*
X1392Y1282D01*
X1393Y1281D01*
X1393D01*
X1395Y1282D01*
X1397Y1282D01*
X1398Y1282D01*
X1399Y1283D01*
X1400Y1283D01*
X1401Y1284D01*
X1401Y1284D01*
X1401Y1284D01*
X1402Y1286D01*
X1403Y1287D01*
X1404Y1289D01*
X1405Y1290D01*
X1405Y1292D01*
X1405Y1292D01*
X1406Y1293D01*
X1406Y1293D01*
X1406Y1294D01*
X1406Y1294D01*
Y1294D01*
X1414Y1293D01*
X1414Y1292D01*
X1413Y1290D01*
X1412Y1288D01*
X1411Y1285D01*
X1411Y1284D01*
X1410Y1284D01*
X1410Y1283D01*
X1409Y1282D01*
X1409Y1281D01*
X1408Y1281D01*
X1408Y1281D01*
X1408Y1280D01*
X1408Y1280D01*
X1407Y1280D01*
X1406Y1279D01*
X1405Y1278D01*
X1404Y1278D01*
X1403Y1277D01*
X1401Y1276D01*
X1398Y1276D01*
X1397Y1275D01*
X1396Y1275D01*
X1396Y1275D01*
X1395Y1275D01*
X1394Y1275D01*
X1393D01*
X1392Y1275D01*
X1390Y1275D01*
X1389Y1276D01*
X1387Y1276D01*
X1386Y1276D01*
X1384Y1277D01*
X1383Y1277D01*
X1382Y1278D01*
X1381Y1278D01*
X1380Y1279D01*
X1380Y1279D01*
X1379Y1280D01*
X1379Y1280D01*
X1378Y1281D01*
X1378Y1281D01*
X1378Y1281D01*
X1377Y1282D01*
X1376Y1283D01*
X1375Y1284D01*
X1374Y1286D01*
X1374Y1287D01*
X1373Y1288D01*
X1373Y1290D01*
X1372Y1291D01*
X1372Y1292D01*
X1372Y1293D01*
X1372Y1294D01*
X1372Y1294D01*
Y1295D01*
Y1295D01*
Y1295D01*
X1372Y1297D01*
X1372Y1299D01*
X1373Y1301D01*
X1373Y1302D01*
X1374Y1304D01*
X1375Y1305D01*
X1375Y1305D01*
X1375Y1305D01*
X1376Y1307D01*
X1378Y1308D01*
X1379Y1309D01*
X1381Y1310D01*
X1382Y1310D01*
X1383Y1311D01*
X1383Y1311D01*
X1384Y1311D01*
X1384Y1311D01*
X1384D01*
X1382Y1312D01*
X1381Y1312D01*
X1380Y1313D01*
X1379Y1314D01*
X1378Y1315D01*
X1378Y1316D01*
X1377Y1316D01*
X1377Y1316D01*
X1377Y1317D01*
X1376Y1319D01*
X1376Y1320D01*
X1375Y1321D01*
X1375Y1322D01*
X1375Y1323D01*
Y1324D01*
Y1324D01*
X1375Y1325D01*
X1375Y1327D01*
X1376Y1328D01*
X1376Y1329D01*
X1377Y1330D01*
X1377Y1331D01*
X1377Y1332D01*
X1377Y1332D01*
X1378Y1333D01*
X1379Y1335D01*
X1381Y1336D01*
X1382Y1336D01*
X1383Y1337D01*
X1383Y1338D01*
X1384Y1338D01*
X1384Y1338D01*
X1384D01*
X1386Y1339D01*
X1387Y1339D01*
X1389Y1340D01*
X1391Y1340D01*
X1392Y1340D01*
X1393Y1340D01*
X1395D01*
X1396Y1340D01*
D02*
G37*
G36*
X1475Y1276D02*
X1466D01*
Y1304D01*
X1456D01*
X1455Y1304D01*
X1454D01*
X1453Y1304D01*
X1453Y1304D01*
X1452D01*
X1452Y1304D01*
X1452D01*
X1451Y1304D01*
X1450Y1303D01*
X1449Y1303D01*
X1449Y1303D01*
X1448Y1303D01*
X1448Y1303D01*
X1448Y1302D01*
X1447Y1302D01*
X1447Y1301D01*
X1445Y1300D01*
X1445Y1299D01*
X1444Y1299D01*
X1444Y1298D01*
X1444Y1298D01*
X1443Y1297D01*
X1442Y1296D01*
X1441Y1294D01*
X1440Y1293D01*
X1439Y1291D01*
X1438Y1290D01*
X1438Y1290D01*
X1438Y1290D01*
X1438Y1290D01*
Y1289D01*
X1429Y1276D01*
X1419D01*
X1430Y1293D01*
X1431Y1295D01*
X1432Y1297D01*
X1433Y1298D01*
X1435Y1300D01*
X1435Y1301D01*
X1436Y1301D01*
X1437Y1302D01*
X1437Y1302D01*
X1438Y1303D01*
X1438Y1303D01*
X1440Y1304D01*
X1441Y1305D01*
X1441Y1305D01*
X1442Y1305D01*
X1442Y1305D01*
X1440Y1306D01*
X1439Y1306D01*
X1437Y1306D01*
X1436Y1307D01*
X1435Y1307D01*
X1434Y1308D01*
X1433Y1308D01*
X1432Y1309D01*
X1431Y1309D01*
X1430Y1310D01*
X1430Y1310D01*
X1429Y1310D01*
X1429Y1311D01*
X1428Y1311D01*
X1428Y1311D01*
X1428Y1311D01*
X1428Y1312D01*
X1427Y1313D01*
X1426Y1315D01*
X1425Y1317D01*
X1424Y1319D01*
X1424Y1320D01*
X1424Y1321D01*
Y1322D01*
X1424Y1322D01*
Y1322D01*
Y1323D01*
Y1323D01*
X1424Y1325D01*
X1424Y1326D01*
X1425Y1328D01*
X1425Y1329D01*
X1426Y1331D01*
X1426Y1331D01*
X1426Y1332D01*
X1427Y1332D01*
Y1332D01*
X1428Y1334D01*
X1429Y1335D01*
X1430Y1336D01*
X1431Y1337D01*
X1432Y1338D01*
X1433Y1338D01*
X1433Y1338D01*
X1434Y1338D01*
X1434D01*
X1435Y1339D01*
X1436Y1339D01*
X1438Y1339D01*
X1440Y1340D01*
X1442Y1340D01*
X1444Y1340D01*
X1445D01*
X1445Y1340D01*
X1475D01*
Y1276D01*
D02*
G37*
G36*
X250Y1320D02*
X222D01*
Y1309D01*
X222Y1308D01*
Y1307D01*
X222Y1307D01*
X222Y1306D01*
Y1306D01*
X222Y1306D01*
Y1306D01*
X222Y1304D01*
X223Y1303D01*
X223Y1303D01*
X223Y1302D01*
X223Y1302D01*
X224Y1302D01*
X224Y1302D01*
X224Y1301D01*
X225Y1300D01*
X226Y1299D01*
X227Y1298D01*
X227Y1298D01*
X228Y1297D01*
X228Y1297D01*
X229Y1296D01*
X231Y1295D01*
X232Y1294D01*
X233Y1293D01*
X235Y1292D01*
X236Y1292D01*
X236Y1292D01*
X236Y1291D01*
X237Y1291D01*
X237D01*
X250Y1283D01*
Y1272D01*
X233Y1283D01*
X231Y1285D01*
X229Y1286D01*
X228Y1287D01*
X226Y1288D01*
X226Y1289D01*
X225Y1290D01*
X224Y1290D01*
X224Y1290D01*
X224Y1291D01*
X223Y1292D01*
X222Y1294D01*
X222Y1294D01*
X221Y1295D01*
X221Y1295D01*
X221Y1295D01*
X221Y1294D01*
X220Y1292D01*
X220Y1291D01*
X219Y1289D01*
X219Y1288D01*
X218Y1287D01*
X218Y1286D01*
X218Y1285D01*
X217Y1284D01*
X217Y1284D01*
X216Y1283D01*
X216Y1283D01*
X216Y1282D01*
X215Y1282D01*
X215Y1282D01*
X215Y1282D01*
X214Y1281D01*
X213Y1280D01*
X211Y1279D01*
X209Y1278D01*
X207Y1278D01*
X206Y1278D01*
X205Y1277D01*
X205D01*
X204Y1277D01*
X204D01*
X204D01*
X203D01*
X202Y1277D01*
X200Y1278D01*
X198Y1278D01*
X197Y1279D01*
X196Y1279D01*
X195Y1280D01*
X194Y1280D01*
X194Y1280D01*
X194D01*
X192Y1281D01*
X191Y1282D01*
X190Y1283D01*
X189Y1285D01*
X189Y1286D01*
X188Y1286D01*
X188Y1287D01*
X188Y1287D01*
Y1287D01*
X188Y1288D01*
X187Y1289D01*
X187Y1291D01*
X186Y1293D01*
X186Y1295D01*
X186Y1297D01*
Y1298D01*
X186Y1299D01*
Y1328D01*
X250D01*
Y1320D01*
D02*
G37*
G36*
X209Y1260D02*
X208Y1258D01*
X208Y1257D01*
X207Y1256D01*
X206Y1255D01*
X206Y1254D01*
X206Y1253D01*
X205Y1253D01*
Y1253D01*
X204Y1251D01*
X203Y1250D01*
X202Y1249D01*
X202Y1248D01*
X201Y1247D01*
X200Y1246D01*
X200Y1246D01*
X200Y1246D01*
X250D01*
Y1238D01*
X186D01*
Y1243D01*
X187Y1244D01*
X189Y1245D01*
X190Y1246D01*
X192Y1247D01*
X193Y1248D01*
X194Y1249D01*
X194Y1249D01*
X194Y1250D01*
X194Y1250D01*
X194Y1250D01*
X196Y1252D01*
X197Y1254D01*
X199Y1256D01*
X200Y1257D01*
X201Y1259D01*
X201Y1260D01*
X201Y1260D01*
X202Y1261D01*
X202Y1261D01*
X202Y1261D01*
Y1261D01*
X209D01*
X209Y1260D01*
D02*
G37*
G36*
X250Y1176D02*
X242D01*
Y1208D01*
X241Y1207D01*
X240Y1206D01*
X240Y1206D01*
X239Y1205D01*
X239Y1205D01*
X238Y1204D01*
X238Y1204D01*
X238Y1204D01*
X237Y1203D01*
X236Y1202D01*
X235Y1201D01*
X233Y1199D01*
X232Y1198D01*
X232Y1197D01*
X231Y1196D01*
X231Y1196D01*
X230Y1196D01*
X230Y1195D01*
X230Y1195D01*
X229Y1194D01*
X228Y1192D01*
X226Y1191D01*
X225Y1190D01*
X224Y1189D01*
X223Y1188D01*
X223Y1187D01*
X222Y1186D01*
X221Y1185D01*
X221Y1185D01*
X220Y1184D01*
X220Y1184D01*
X219Y1183D01*
X219Y1183D01*
X217Y1182D01*
X216Y1181D01*
X215Y1180D01*
X213Y1179D01*
X212Y1179D01*
X212Y1178D01*
X211Y1178D01*
X211Y1178D01*
X210Y1177D01*
X208Y1177D01*
X207Y1177D01*
X206Y1176D01*
X205Y1176D01*
X204Y1176D01*
X204D01*
X203D01*
X202Y1176D01*
X201Y1177D01*
X200Y1177D01*
X198Y1177D01*
X196Y1178D01*
X194Y1179D01*
X194Y1180D01*
X193Y1180D01*
X192Y1180D01*
X192Y1181D01*
X191Y1181D01*
X191Y1181D01*
X191Y1182D01*
X191Y1182D01*
X190Y1183D01*
X189Y1184D01*
X189Y1185D01*
X188Y1186D01*
X187Y1189D01*
X186Y1191D01*
X186Y1192D01*
X186Y1193D01*
X186Y1194D01*
X186Y1195D01*
X186Y1195D01*
Y1196D01*
X186Y1198D01*
X186Y1200D01*
X186Y1201D01*
X186Y1202D01*
X187Y1204D01*
X187Y1205D01*
X188Y1206D01*
X188Y1207D01*
X189Y1208D01*
X189Y1209D01*
X189Y1209D01*
X190Y1210D01*
X190Y1210D01*
X190Y1211D01*
X190Y1211D01*
X191Y1211D01*
X191Y1212D01*
X192Y1213D01*
X194Y1214D01*
X195Y1214D01*
X197Y1215D01*
X199Y1216D01*
X200Y1216D01*
X201Y1217D01*
X202Y1217D01*
X203Y1217D01*
X203Y1217D01*
X204D01*
X204Y1217D01*
X204D01*
X205Y1209D01*
X203Y1209D01*
X201Y1209D01*
X199Y1208D01*
X198Y1207D01*
X197Y1207D01*
X196Y1206D01*
X196Y1206D01*
X196Y1206D01*
X195Y1204D01*
X194Y1203D01*
X193Y1201D01*
X193Y1200D01*
X192Y1199D01*
X192Y1197D01*
X192Y1197D01*
Y1197D01*
X192Y1195D01*
X193Y1193D01*
X193Y1191D01*
X194Y1190D01*
X194Y1189D01*
X195Y1188D01*
X195Y1188D01*
X195Y1188D01*
X197Y1187D01*
X198Y1186D01*
X199Y1185D01*
X201Y1185D01*
X202Y1185D01*
X203Y1184D01*
X203Y1184D01*
X203D01*
X203D01*
X205Y1185D01*
X207Y1185D01*
X208Y1186D01*
X210Y1186D01*
X211Y1187D01*
X212Y1188D01*
X212Y1188D01*
X213Y1188D01*
X213Y1188D01*
X213D01*
X214Y1189D01*
X215Y1190D01*
X216Y1191D01*
X217Y1192D01*
X219Y1194D01*
X222Y1197D01*
X223Y1198D01*
X223Y1199D01*
X224Y1200D01*
X225Y1201D01*
X226Y1201D01*
X226Y1202D01*
X226Y1202D01*
X226Y1202D01*
X228Y1205D01*
X230Y1207D01*
X232Y1208D01*
X233Y1210D01*
X234Y1211D01*
X235Y1212D01*
X236Y1212D01*
X236Y1213D01*
X236D01*
X238Y1214D01*
X239Y1215D01*
X241Y1216D01*
X242Y1216D01*
X243Y1217D01*
X244Y1217D01*
X244Y1218D01*
X244Y1218D01*
X245D01*
X246Y1218D01*
X246Y1218D01*
X247Y1218D01*
X248Y1219D01*
X249Y1219D01*
X250D01*
X250D01*
X250D01*
Y1176D01*
D02*
G37*
G36*
X1345Y4508D02*
X1344Y4506D01*
X1343Y4504D01*
X1342Y4503D01*
X1340Y4501D01*
X1340Y4501D01*
X1339Y4500D01*
X1338Y4499D01*
X1338Y4499D01*
X1337Y4499D01*
X1337Y4498D01*
X1335Y4497D01*
X1334Y4497D01*
X1334Y4496D01*
X1333Y4496D01*
X1333Y4496D01*
X1335Y4496D01*
X1336Y4495D01*
X1338Y4495D01*
X1339Y4494D01*
X1340Y4494D01*
X1341Y4493D01*
X1342Y4493D01*
X1343Y4493D01*
X1344Y4492D01*
X1345Y4492D01*
X1345Y4491D01*
X1346Y4491D01*
X1346Y4491D01*
X1347Y4490D01*
X1347Y4490D01*
X1347Y4490D01*
X1347Y4489D01*
X1348Y4488D01*
X1349Y4486D01*
X1350Y4484D01*
X1351Y4482D01*
X1351Y4481D01*
X1351Y4480D01*
Y4480D01*
X1351Y4479D01*
Y4479D01*
Y4479D01*
Y4478D01*
X1351Y4477D01*
X1351Y4475D01*
X1350Y4473D01*
X1350Y4472D01*
X1349Y4471D01*
X1349Y4470D01*
X1349Y4469D01*
X1348Y4469D01*
Y4469D01*
X1347Y4467D01*
X1346Y4466D01*
X1345Y4465D01*
X1344Y4464D01*
X1343Y4464D01*
X1342Y4463D01*
X1342Y4463D01*
X1341Y4463D01*
X1341D01*
X1340Y4463D01*
X1339Y4462D01*
X1337Y4462D01*
X1335Y4461D01*
X1333Y4461D01*
X1331Y4461D01*
X1330D01*
X1330Y4461D01*
X1300D01*
Y4525D01*
X1309D01*
Y4497D01*
X1319D01*
X1320Y4497D01*
X1321D01*
X1322Y4497D01*
X1322Y4497D01*
X1323D01*
X1323Y4497D01*
X1323D01*
X1324Y4497D01*
X1325Y4498D01*
X1326Y4498D01*
X1326Y4498D01*
X1327Y4498D01*
X1327Y4499D01*
X1327Y4499D01*
X1328Y4499D01*
X1328Y4500D01*
X1330Y4501D01*
X1330Y4502D01*
X1331Y4502D01*
X1331Y4503D01*
X1331Y4503D01*
X1332Y4504D01*
X1333Y4506D01*
X1334Y4507D01*
X1335Y4508D01*
X1336Y4510D01*
X1337Y4511D01*
X1337Y4511D01*
X1337Y4511D01*
X1337Y4512D01*
Y4512D01*
X1346Y4525D01*
X1356D01*
X1345Y4508D01*
D02*
G37*
G36*
X1441Y4461D02*
X1435D01*
X1435Y4462D01*
X1434Y4464D01*
X1432Y4465D01*
X1431Y4467D01*
X1430Y4468D01*
X1429Y4469D01*
X1429Y4469D01*
X1429Y4469D01*
X1429Y4469D01*
X1428Y4469D01*
X1426Y4471D01*
X1425Y4472D01*
X1423Y4474D01*
X1421Y4475D01*
X1419Y4476D01*
X1419Y4476D01*
X1418Y4476D01*
X1418Y4477D01*
X1417Y4477D01*
X1417Y4477D01*
X1417D01*
Y4484D01*
X1418Y4484D01*
X1420Y4483D01*
X1421Y4483D01*
X1422Y4482D01*
X1424Y4481D01*
X1424Y4481D01*
X1425Y4481D01*
X1425Y4480D01*
X1425D01*
X1427Y4479D01*
X1428Y4478D01*
X1430Y4477D01*
X1431Y4477D01*
X1432Y4476D01*
X1432Y4475D01*
X1433Y4475D01*
X1433Y4475D01*
Y4525D01*
X1441D01*
Y4461D01*
D02*
G37*
G36*
X1391D02*
X1386D01*
X1385Y4462D01*
X1384Y4464D01*
X1383Y4465D01*
X1381Y4467D01*
X1380Y4468D01*
X1380Y4469D01*
X1379Y4469D01*
X1379Y4469D01*
X1379Y4469D01*
X1379Y4469D01*
X1377Y4471D01*
X1375Y4472D01*
X1373Y4474D01*
X1371Y4475D01*
X1370Y4476D01*
X1369Y4476D01*
X1368Y4476D01*
X1368Y4477D01*
X1367Y4477D01*
X1367Y4477D01*
X1367D01*
Y4484D01*
X1369Y4484D01*
X1370Y4483D01*
X1371Y4483D01*
X1373Y4482D01*
X1374Y4481D01*
X1375Y4481D01*
X1375Y4481D01*
X1375Y4480D01*
X1375D01*
X1377Y4479D01*
X1379Y4478D01*
X1380Y4477D01*
X1381Y4477D01*
X1382Y4476D01*
X1382Y4475D01*
X1383Y4475D01*
X1383Y4475D01*
Y4525D01*
X1391D01*
Y4461D01*
D02*
G37*
G36*
X426Y1091D02*
X403Y1069D01*
X405Y1069D01*
X406Y1069D01*
X407Y1069D01*
X407Y1069D01*
X408D01*
X408D01*
X409D01*
X409D01*
X410Y1069D01*
X412Y1069D01*
X414Y1069D01*
X416Y1069D01*
X418Y1069D01*
X419Y1069D01*
X419D01*
X420Y1069D01*
X420Y1069D01*
X421D01*
X421D01*
X423Y1069D01*
X425Y1070D01*
X426Y1070D01*
X428Y1070D01*
X429Y1070D01*
X431D01*
X432Y1070D01*
X433D01*
X434D01*
X435D01*
X436D01*
X436D01*
X437Y1070D01*
X437D01*
X439Y1070D01*
X441Y1069D01*
X443Y1069D01*
X444Y1069D01*
X445Y1069D01*
X446Y1068D01*
X446Y1068D01*
X446Y1068D01*
X448Y1067D01*
X449Y1067D01*
X450Y1066D01*
X451Y1065D01*
X452Y1065D01*
X453Y1064D01*
X453Y1064D01*
X453Y1064D01*
X454Y1063D01*
X455Y1062D01*
X455Y1061D01*
X456Y1060D01*
X457Y1057D01*
X458Y1056D01*
X458Y1055D01*
X458Y1054D01*
X458Y1053D01*
Y1052D01*
Y1052D01*
X458Y1051D01*
X458Y1051D01*
Y1051D01*
X458Y1050D01*
X458Y1048D01*
X457Y1047D01*
X457Y1046D01*
X456Y1043D01*
X455Y1041D01*
X454Y1040D01*
X453Y1040D01*
X453Y1039D01*
X452Y1038D01*
X452Y1038D01*
X451Y1037D01*
X450Y1036D01*
X449Y1035D01*
X448Y1034D01*
X447Y1033D01*
X445Y1033D01*
X444Y1032D01*
X443Y1032D01*
X442Y1031D01*
X441Y1031D01*
X440Y1031D01*
X440Y1031D01*
X439Y1030D01*
X438Y1030D01*
X438D01*
X438Y1030D01*
X438D01*
X436D01*
X435Y1030D01*
X434Y1031D01*
X432Y1031D01*
X430Y1032D01*
X428Y1033D01*
X427Y1033D01*
X426Y1034D01*
X425Y1034D01*
X425Y1035D01*
X424Y1035D01*
X424Y1035D01*
X424Y1035D01*
X424Y1035D01*
X429Y1042D01*
X430Y1040D01*
X432Y1039D01*
X433Y1039D01*
X435Y1038D01*
X436Y1038D01*
X437Y1038D01*
X438Y1038D01*
X438D01*
X440Y1038D01*
X441Y1038D01*
X443Y1039D01*
X444Y1040D01*
X445Y1040D01*
X446Y1041D01*
X446Y1041D01*
X447Y1042D01*
X448Y1043D01*
X449Y1045D01*
X450Y1046D01*
X450Y1047D01*
X450Y1048D01*
X451Y1049D01*
X451Y1050D01*
Y1050D01*
X450Y1052D01*
X450Y1053D01*
X450Y1055D01*
X449Y1056D01*
X448Y1057D01*
X448Y1057D01*
X448Y1058D01*
X448Y1058D01*
X447Y1058D01*
X446Y1059D01*
X445Y1060D01*
X443Y1061D01*
X442Y1061D01*
X440Y1062D01*
X439Y1062D01*
X439Y1062D01*
X438Y1062D01*
X438Y1062D01*
X438Y1062D01*
X437Y1062D01*
X435Y1062D01*
X434Y1062D01*
X432D01*
X429Y1062D01*
X426Y1062D01*
X424Y1062D01*
X423Y1062D01*
X422Y1062D01*
X421Y1062D01*
X420Y1062D01*
X419Y1062D01*
X419Y1062D01*
X418D01*
X415Y1061D01*
X413Y1061D01*
X410Y1061D01*
X408D01*
X407D01*
X405D01*
X405Y1061D01*
X404Y1061D01*
X404Y1061D01*
X402Y1061D01*
X401Y1062D01*
X399Y1062D01*
X397Y1063D01*
X396Y1063D01*
X395Y1063D01*
X395Y1064D01*
X395D01*
X395Y1064D01*
X394Y1064D01*
X393Y1065D01*
X392Y1065D01*
X391Y1066D01*
X391Y1066D01*
X391Y1066D01*
X390Y1067D01*
X390Y1067D01*
X420Y1097D01*
X426Y1091D01*
D02*
G37*
G36*
X350Y1015D02*
X351Y1015D01*
X352Y1015D01*
X352Y1015D01*
X353Y1015D01*
X354Y1015D01*
X356Y1014D01*
X358Y1014D01*
X359Y1013D01*
X360Y1012D01*
X361Y1012D01*
X362Y1012D01*
X362Y1012D01*
X362Y1012D01*
X362Y1012D01*
X364Y1010D01*
X366Y1009D01*
X368Y1008D01*
X369Y1007D01*
X371Y1005D01*
X371Y1005D01*
X372Y1004D01*
X372Y1004D01*
X372Y1004D01*
X373Y1004D01*
X373Y1004D01*
X375Y1001D01*
X377Y999D01*
X378Y997D01*
X379Y996D01*
X379Y995D01*
X380Y994D01*
X380Y993D01*
X381Y993D01*
X381Y992D01*
X381Y992D01*
X381Y991D01*
X382Y991D01*
X382Y991D01*
X383Y989D01*
X383Y986D01*
X384Y984D01*
X384Y982D01*
X384Y980D01*
Y979D01*
X384Y979D01*
Y978D01*
Y978D01*
Y978D01*
X384Y976D01*
X383Y974D01*
X383Y973D01*
X382Y971D01*
X382Y970D01*
X381Y969D01*
X381Y969D01*
X381Y968D01*
X381Y968D01*
X381Y968D01*
X380Y967D01*
X379Y965D01*
X377Y964D01*
X376Y962D01*
X375Y961D01*
X358Y944D01*
X312Y989D01*
X329Y1005D01*
X330Y1007D01*
X332Y1008D01*
X333Y1009D01*
X334Y1010D01*
X335Y1011D01*
X336Y1011D01*
X336Y1012D01*
X337Y1012D01*
X337Y1012D01*
X338Y1013D01*
X340Y1013D01*
X341Y1014D01*
X342Y1014D01*
X343Y1015D01*
X344Y1015D01*
X344Y1015D01*
X344Y1015D01*
X346Y1015D01*
X347D01*
X349Y1015D01*
X350Y1015D01*
D02*
G37*
G36*
X422Y1008D02*
X419Y1004D01*
X417Y1005D01*
X415Y1005D01*
X413Y1005D01*
X411Y1005D01*
X410D01*
X409Y1005D01*
X408Y1005D01*
X408D01*
X408D01*
X407D01*
X405Y1005D01*
X403Y1005D01*
X400Y1004D01*
X398Y1004D01*
X397Y1003D01*
X396Y1003D01*
X395Y1003D01*
X395Y1003D01*
X394Y1003D01*
X394D01*
X394Y1003D01*
X389Y1008D01*
X390Y1009D01*
X392Y1009D01*
X393Y1010D01*
X394Y1010D01*
X396Y1010D01*
X397Y1011D01*
X397Y1011D01*
X397D01*
X397Y1011D01*
X399Y1011D01*
X401Y1012D01*
X403Y1012D01*
X404Y1012D01*
X405Y1012D01*
X406D01*
X406Y1012D01*
X407D01*
X371Y1048D01*
X377Y1053D01*
X422Y1008D01*
D02*
G37*
G36*
X1562Y4293D02*
X1561Y4292D01*
X1559Y4292D01*
X1558Y4291D01*
X1556Y4291D01*
X1555Y4290D01*
X1554Y4290D01*
X1554Y4290D01*
X1553D01*
X1553Y4290D01*
X1551Y4289D01*
X1550Y4289D01*
X1548Y4289D01*
X1547Y4289D01*
X1546Y4288D01*
X1545D01*
X1544Y4288D01*
X1544D01*
X1580Y4253D01*
X1574Y4247D01*
X1529Y4293D01*
X1532Y4296D01*
X1534Y4296D01*
X1536Y4296D01*
X1538Y4295D01*
X1539Y4295D01*
X1541D01*
X1542Y4295D01*
X1543Y4295D01*
X1543D01*
X1546Y4296D01*
X1548Y4296D01*
X1550Y4296D01*
X1552Y4297D01*
X1554Y4297D01*
X1555Y4298D01*
X1555Y4298D01*
X1556Y4298D01*
X1556Y4298D01*
X1557D01*
X1557Y4298D01*
X1562Y4293D01*
D02*
G37*
G36*
X1638Y4312D02*
X1622Y4295D01*
X1620Y4294D01*
X1619Y4293D01*
X1618Y4292D01*
X1616Y4291D01*
X1615Y4290D01*
X1615Y4289D01*
X1614Y4289D01*
X1614Y4289D01*
X1614Y4289D01*
X1613Y4288D01*
X1611Y4287D01*
X1610Y4287D01*
X1609Y4286D01*
X1608Y4286D01*
X1607Y4286D01*
X1607Y4286D01*
X1606Y4286D01*
X1605Y4285D01*
X1603D01*
X1602Y4285D01*
X1601Y4285D01*
X1600Y4286D01*
X1599Y4286D01*
X1598Y4286D01*
X1598Y4286D01*
X1596Y4286D01*
X1595Y4287D01*
X1593Y4287D01*
X1592Y4288D01*
X1590Y4288D01*
X1589Y4289D01*
X1589Y4289D01*
X1589Y4289D01*
X1589Y4289D01*
X1588Y4289D01*
X1587Y4290D01*
X1585Y4292D01*
X1583Y4293D01*
X1581Y4294D01*
X1580Y4295D01*
X1579Y4296D01*
X1579Y4296D01*
X1579Y4297D01*
X1578Y4297D01*
X1578Y4297D01*
X1578Y4297D01*
X1576Y4299D01*
X1574Y4302D01*
X1573Y4304D01*
X1572Y4305D01*
X1571Y4306D01*
X1571Y4307D01*
X1570Y4307D01*
X1570Y4308D01*
X1570Y4309D01*
X1569Y4309D01*
X1569Y4309D01*
X1569Y4310D01*
X1569Y4310D01*
X1568Y4312D01*
X1568Y4315D01*
X1567Y4317D01*
X1567Y4319D01*
X1567Y4320D01*
Y4322D01*
X1567Y4322D01*
Y4323D01*
Y4323D01*
Y4323D01*
X1567Y4325D01*
X1567Y4326D01*
X1568Y4328D01*
X1569Y4330D01*
X1569Y4331D01*
X1570Y4332D01*
X1570Y4332D01*
X1570Y4332D01*
X1570Y4333D01*
X1570Y4333D01*
X1571Y4334D01*
X1572Y4335D01*
X1573Y4337D01*
X1575Y4338D01*
X1576Y4340D01*
X1593Y4357D01*
X1638Y4312D01*
D02*
G37*
G36*
X1527Y4258D02*
X1525Y4257D01*
X1524Y4257D01*
X1523Y4256D01*
X1521Y4256D01*
X1520Y4255D01*
X1519Y4255D01*
X1518Y4255D01*
X1518D01*
X1518Y4255D01*
X1516Y4254D01*
X1515Y4254D01*
X1513Y4254D01*
X1512Y4253D01*
X1511Y4253D01*
X1510D01*
X1509Y4253D01*
X1509D01*
X1544Y4218D01*
X1539Y4212D01*
X1493Y4258D01*
X1497Y4261D01*
X1499Y4261D01*
X1501Y4260D01*
X1502Y4260D01*
X1504Y4260D01*
X1506D01*
X1507Y4260D01*
X1507Y4260D01*
X1508D01*
X1511Y4260D01*
X1513Y4261D01*
X1515Y4261D01*
X1517Y4262D01*
X1519Y4262D01*
X1520Y4262D01*
X1520Y4263D01*
X1521Y4263D01*
X1521Y4263D01*
X1521D01*
X1521Y4263D01*
X1527Y4258D01*
D02*
G37*
G36*
X4120Y3015D02*
X4122Y3015D01*
X4123Y3015D01*
X4125Y3014D01*
X4127Y3013D01*
X4128Y3013D01*
X4129Y3012D01*
X4130Y3012D01*
X4131Y3011D01*
X4131Y3011D01*
X4132Y3010D01*
X4133Y3010D01*
X4133Y3010D01*
X4133Y3009D01*
X4133Y3009D01*
X4134Y3008D01*
X4135Y3007D01*
X4136Y3006D01*
X4136Y3004D01*
X4137Y3003D01*
X4137Y3002D01*
X4138Y2999D01*
X4138Y2998D01*
X4139Y2997D01*
X4139Y2996D01*
X4139Y2995D01*
X4139Y2995D01*
Y2994D01*
Y2994D01*
Y2994D01*
X4139Y2992D01*
X4139Y2990D01*
X4138Y2989D01*
X4138Y2987D01*
X4138Y2986D01*
X4137Y2985D01*
X4137Y2984D01*
X4136Y2983D01*
X4136Y2982D01*
X4135Y2981D01*
X4135Y2980D01*
X4134Y2980D01*
X4134Y2979D01*
X4134Y2979D01*
X4133Y2979D01*
X4133Y2979D01*
X4132Y2978D01*
X4131Y2977D01*
X4130Y2976D01*
X4129Y2975D01*
X4128Y2975D01*
X4127Y2974D01*
X4125Y2974D01*
X4124Y2973D01*
X4123Y2973D01*
X4122Y2973D01*
X4121Y2973D01*
X4121Y2973D01*
X4120D01*
X4118Y2973D01*
X4117Y2973D01*
X4115Y2974D01*
X4114Y2974D01*
X4113Y2974D01*
X4112Y2975D01*
X4111Y2975D01*
X4111Y2975D01*
X4110Y2976D01*
X4108Y2977D01*
X4107Y2978D01*
X4106Y2979D01*
X4106Y2980D01*
X4105Y2981D01*
X4105Y2981D01*
X4105Y2981D01*
Y2981D01*
Y2980D01*
Y2980D01*
Y2980D01*
X4105Y2978D01*
X4105Y2976D01*
X4105Y2975D01*
X4105Y2973D01*
X4105Y2972D01*
X4106Y2971D01*
X4106Y2971D01*
Y2970D01*
X4106Y2970D01*
Y2970D01*
X4106Y2968D01*
X4107Y2967D01*
X4107Y2966D01*
X4108Y2965D01*
X4108Y2964D01*
X4108Y2963D01*
X4109Y2963D01*
X4109Y2962D01*
X4109Y2961D01*
X4110Y2961D01*
X4111Y2960D01*
X4112Y2959D01*
X4112Y2959D01*
X4113Y2958D01*
X4113Y2958D01*
X4113Y2958D01*
X4114Y2957D01*
X4115Y2957D01*
X4116Y2957D01*
X4117Y2957D01*
X4118Y2957D01*
X4119Y2956D01*
X4119D01*
X4121Y2957D01*
X4122Y2957D01*
X4124Y2957D01*
X4125Y2958D01*
X4125Y2958D01*
X4126Y2958D01*
X4126Y2959D01*
X4126Y2959D01*
X4127Y2960D01*
X4128Y2961D01*
X4129Y2962D01*
X4129Y2964D01*
X4130Y2965D01*
X4130Y2966D01*
X4130Y2966D01*
Y2966D01*
X4130Y2966D01*
Y2967D01*
X4138Y2966D01*
X4137Y2963D01*
X4136Y2961D01*
X4135Y2959D01*
X4134Y2957D01*
X4134Y2956D01*
X4133Y2955D01*
X4133Y2955D01*
X4132Y2955D01*
X4132Y2954D01*
X4132Y2954D01*
X4132Y2954D01*
X4131Y2953D01*
X4130Y2953D01*
X4128Y2952D01*
X4126Y2951D01*
X4124Y2951D01*
X4122Y2950D01*
X4122Y2950D01*
X4121D01*
X4120Y2950D01*
X4120D01*
X4117Y2950D01*
X4115Y2951D01*
X4113Y2951D01*
X4111Y2952D01*
X4110Y2952D01*
X4109Y2953D01*
X4109Y2953D01*
X4108Y2953D01*
X4108Y2953D01*
X4108Y2954D01*
X4107Y2954D01*
X4107D01*
X4106Y2955D01*
X4104Y2957D01*
X4103Y2959D01*
X4101Y2961D01*
X4101Y2962D01*
X4100Y2963D01*
X4100Y2964D01*
X4100Y2964D01*
X4100Y2965D01*
X4099Y2965D01*
Y2965D01*
X4099Y2966D01*
X4098Y2968D01*
X4098Y2971D01*
X4097Y2974D01*
X4097Y2977D01*
X4097Y2979D01*
X4097Y2980D01*
Y2981D01*
X4097Y2982D01*
Y2983D01*
Y2984D01*
Y2984D01*
Y2984D01*
Y2987D01*
X4097Y2989D01*
X4097Y2990D01*
X4097Y2992D01*
X4097Y2994D01*
X4098Y2995D01*
X4098Y2997D01*
X4098Y2998D01*
X4098Y2999D01*
X4099Y3000D01*
X4099Y3001D01*
X4099Y3001D01*
X4099Y3002D01*
X4099Y3002D01*
X4100Y3002D01*
Y3002D01*
X4101Y3005D01*
X4102Y3006D01*
X4103Y3008D01*
X4104Y3010D01*
X4106Y3011D01*
X4107Y3011D01*
X4107Y3012D01*
X4107Y3012D01*
X4107Y3012D01*
X4107D01*
X4109Y3013D01*
X4111Y3014D01*
X4113Y3015D01*
X4115Y3015D01*
X4117Y3015D01*
X4117Y3015D01*
X4118D01*
X4118Y3015D01*
X4119D01*
X4120Y3015D01*
D02*
G37*
G36*
X4200Y2951D02*
X4191D01*
Y2979D01*
X4181D01*
X4180Y2979D01*
X4179D01*
X4178Y2979D01*
X4178Y2979D01*
X4177D01*
X4177Y2979D01*
X4177D01*
X4176Y2979D01*
X4175Y2978D01*
X4174Y2978D01*
X4174Y2978D01*
X4173Y2978D01*
X4173Y2978D01*
X4173Y2977D01*
X4172Y2977D01*
X4172Y2976D01*
X4170Y2975D01*
X4170Y2974D01*
X4169Y2974D01*
X4169Y2973D01*
X4169Y2973D01*
X4168Y2972D01*
X4167Y2971D01*
X4166Y2969D01*
X4165Y2968D01*
X4164Y2966D01*
X4163Y2965D01*
X4163Y2965D01*
X4163Y2965D01*
X4163Y2965D01*
Y2964D01*
X4154Y2951D01*
X4144D01*
X4155Y2968D01*
X4156Y2970D01*
X4157Y2972D01*
X4158Y2973D01*
X4160Y2975D01*
X4160Y2976D01*
X4161Y2976D01*
X4162Y2977D01*
X4162Y2977D01*
X4163Y2978D01*
X4163Y2978D01*
X4165Y2979D01*
X4166Y2980D01*
X4166Y2980D01*
X4167Y2980D01*
X4167Y2980D01*
X4165Y2981D01*
X4164Y2981D01*
X4162Y2981D01*
X4161Y2982D01*
X4160Y2982D01*
X4159Y2983D01*
X4158Y2983D01*
X4157Y2984D01*
X4156Y2984D01*
X4155Y2985D01*
X4155Y2985D01*
X4154Y2985D01*
X4154Y2986D01*
X4153Y2986D01*
X4153Y2986D01*
X4153Y2986D01*
X4153Y2987D01*
X4152Y2988D01*
X4151Y2990D01*
X4150Y2992D01*
X4149Y2994D01*
X4149Y2995D01*
X4149Y2996D01*
Y2997D01*
X4149Y2997D01*
Y2997D01*
Y2998D01*
Y2998D01*
X4149Y3000D01*
X4149Y3001D01*
X4150Y3003D01*
X4150Y3004D01*
X4151Y3006D01*
X4151Y3006D01*
X4151Y3007D01*
X4152Y3007D01*
Y3007D01*
X4153Y3009D01*
X4154Y3010D01*
X4155Y3011D01*
X4156Y3012D01*
X4157Y3013D01*
X4158Y3013D01*
X4158Y3013D01*
X4159Y3013D01*
X4159D01*
X4160Y3014D01*
X4161Y3014D01*
X4163Y3014D01*
X4165Y3015D01*
X4167Y3015D01*
X4169Y3015D01*
X4170D01*
X4170Y3015D01*
X4200D01*
Y2951D01*
D02*
G37*
G36*
X3979Y2696D02*
X3980Y2695D01*
X3982Y2693D01*
X3983Y2692D01*
X3984Y2691D01*
X3984Y2690D01*
X3985Y2689D01*
X3985Y2689D01*
X3985Y2688D01*
X3985Y2688D01*
X3986Y2687D01*
X3987Y2685D01*
X3987Y2684D01*
X3988Y2683D01*
X3988Y2682D01*
X3988Y2681D01*
X3988Y2681D01*
X3988Y2681D01*
X3989Y2679D01*
Y2678D01*
X3989Y2676D01*
X3989Y2675D01*
X3989Y2674D01*
X3989Y2673D01*
X3989Y2673D01*
X3988Y2672D01*
X3988Y2671D01*
X3988Y2669D01*
X3987Y2667D01*
X3986Y2666D01*
X3986Y2665D01*
X3985Y2664D01*
X3985Y2663D01*
X3985Y2663D01*
X3985Y2663D01*
X3985Y2663D01*
X3984Y2661D01*
X3983Y2659D01*
X3981Y2657D01*
X3980Y2656D01*
X3979Y2654D01*
X3978Y2654D01*
X3978Y2653D01*
X3978Y2653D01*
X3977Y2653D01*
X3977Y2652D01*
X3977Y2652D01*
X3975Y2650D01*
X3973Y2648D01*
X3970Y2647D01*
X3969Y2646D01*
X3969Y2646D01*
X3968Y2645D01*
X3967Y2645D01*
X3966Y2644D01*
X3966Y2644D01*
X3965Y2644D01*
X3965Y2643D01*
X3965Y2643D01*
X3964Y2643D01*
X3962Y2642D01*
X3960Y2642D01*
X3957Y2641D01*
X3956Y2641D01*
X3954Y2641D01*
X3953D01*
X3952Y2641D01*
X3951D01*
X3950Y2641D01*
X3948Y2642D01*
X3946Y2642D01*
X3945Y2643D01*
X3943Y2643D01*
X3942Y2644D01*
X3942Y2644D01*
X3942Y2644D01*
X3942Y2644D01*
X3942Y2644D01*
X3940Y2645D01*
X3939Y2646D01*
X3937Y2648D01*
X3936Y2649D01*
X3935Y2650D01*
X3917Y2667D01*
X3963Y2713D01*
X3979Y2696D01*
D02*
G37*
G36*
X4010Y2662D02*
X4011Y2662D01*
X4013Y2661D01*
X4015Y2660D01*
X4017Y2659D01*
X4018Y2658D01*
X4019Y2658D01*
X4019Y2657D01*
X4020Y2657D01*
X4020Y2656D01*
X4022Y2654D01*
X4023Y2653D01*
X4024Y2651D01*
X4025Y2649D01*
X4025Y2648D01*
X4026Y2647D01*
X4026Y2647D01*
X4026Y2646D01*
X4026Y2646D01*
X4026Y2645D01*
Y2645D01*
X4026Y2645D01*
X4026Y2643D01*
X4026Y2640D01*
X4026Y2638D01*
X4025Y2636D01*
X4025Y2634D01*
X4025Y2633D01*
X4025Y2633D01*
X4024Y2632D01*
X4024Y2632D01*
X4024Y2632D01*
X4024Y2632D01*
X4023Y2630D01*
X4023Y2629D01*
X4021Y2626D01*
X4019Y2624D01*
X4017Y2621D01*
X4016Y2620D01*
X4015Y2619D01*
X4014Y2618D01*
X4014Y2617D01*
X4013Y2617D01*
X4012Y2616D01*
X4012Y2616D01*
X4012Y2616D01*
X4011Y2614D01*
X4009Y2613D01*
X4008Y2612D01*
X4006Y2611D01*
X4005Y2610D01*
X4004Y2609D01*
X4003Y2608D01*
X4002Y2607D01*
X4001Y2607D01*
X4000Y2606D01*
X3999Y2606D01*
X3999Y2606D01*
X3998Y2605D01*
X3998Y2605D01*
X3998Y2605D01*
X3997Y2605D01*
X3995Y2604D01*
X3993Y2604D01*
X3991Y2604D01*
X3989Y2604D01*
X3987Y2604D01*
X3986Y2604D01*
X3986Y2604D01*
X3985Y2604D01*
X3985Y2604D01*
X3985Y2604D01*
X3983Y2605D01*
X3981Y2605D01*
X3979Y2606D01*
X3978Y2607D01*
X3976Y2608D01*
X3976Y2609D01*
X3975Y2609D01*
X3975Y2609D01*
X3975Y2610D01*
X3974Y2611D01*
X3973Y2612D01*
X3972Y2613D01*
X3971Y2614D01*
X3970Y2617D01*
X3970Y2618D01*
X3969Y2619D01*
X3969Y2620D01*
X3969Y2621D01*
X3969Y2622D01*
X3969Y2623D01*
X3969Y2623D01*
Y2624D01*
Y2624D01*
Y2624D01*
X3969Y2625D01*
X3969Y2627D01*
X3969Y2628D01*
X3970Y2630D01*
X3970Y2631D01*
X3971Y2632D01*
X3972Y2635D01*
X3973Y2636D01*
X3974Y2636D01*
X3974Y2637D01*
X3975Y2638D01*
X3975Y2638D01*
X3975Y2639D01*
X3976Y2639D01*
X3976Y2639D01*
X3977Y2640D01*
X3978Y2641D01*
X3980Y2642D01*
X3981Y2643D01*
X3982Y2644D01*
X3983Y2644D01*
X3984Y2645D01*
X3986Y2645D01*
X3987Y2645D01*
X3987Y2646D01*
X3988Y2646D01*
X3989Y2646D01*
X3990Y2646D01*
X3990Y2646D01*
X3992D01*
X3993Y2646D01*
X3994Y2646D01*
X3996Y2645D01*
X3997Y2645D01*
X3998Y2644D01*
X4000Y2643D01*
X4001Y2643D01*
X4002Y2642D01*
X4002Y2642D01*
X4003Y2641D01*
X4003Y2641D01*
X4004Y2640D01*
X4005Y2639D01*
X4006Y2638D01*
X4007Y2636D01*
X4007Y2635D01*
X4008Y2634D01*
X4008Y2633D01*
X4008Y2633D01*
X4008Y2633D01*
X4009Y2631D01*
X4009Y2629D01*
X4009Y2628D01*
Y2626D01*
X4009Y2625D01*
X4009Y2624D01*
X4009Y2624D01*
X4009Y2624D01*
X4009Y2624D01*
X4010Y2625D01*
X4010Y2625D01*
X4010Y2625D01*
X4011Y2626D01*
X4012Y2627D01*
X4013Y2629D01*
X4014Y2630D01*
X4015Y2631D01*
X4015Y2632D01*
X4016Y2632D01*
X4016Y2632D01*
Y2632D01*
X4016Y2632D01*
X4017Y2634D01*
X4017Y2635D01*
X4018Y2637D01*
X4018Y2638D01*
X4019Y2639D01*
X4019Y2639D01*
X4019Y2640D01*
Y2640D01*
X4019Y2641D01*
X4019Y2642D01*
Y2643D01*
X4019Y2644D01*
Y2645D01*
X4019Y2646D01*
X4019Y2646D01*
Y2646D01*
X4019Y2647D01*
X4018Y2648D01*
X4018Y2649D01*
X4017Y2650D01*
X4017Y2651D01*
X4016Y2651D01*
X4016Y2652D01*
X4015Y2653D01*
X4013Y2653D01*
X4012Y2654D01*
X4011Y2654D01*
X4011Y2655D01*
X4010Y2655D01*
X4009Y2655D01*
X4009D01*
X4008Y2655D01*
X4006Y2655D01*
X4005Y2654D01*
X4004Y2654D01*
X4003Y2653D01*
X4002Y2653D01*
X4002Y2652D01*
X4001Y2652D01*
X4001Y2652D01*
X4001Y2652D01*
X3996Y2658D01*
X3999Y2659D01*
X4001Y2660D01*
X4003Y2661D01*
X4005Y2662D01*
X4006Y2662D01*
X4007Y2662D01*
X4008Y2662D01*
X4009D01*
X4010Y2662D01*
D02*
G37*
G36*
X3000Y2491D02*
X2972D01*
Y2481D01*
X2972Y2480D01*
Y2479D01*
X2972Y2478D01*
X2972Y2478D01*
Y2477D01*
X2972Y2477D01*
Y2477D01*
X2972Y2476D01*
X2973Y2475D01*
X2973Y2474D01*
X2973Y2474D01*
X2973Y2473D01*
X2974Y2473D01*
X2974Y2473D01*
X2974Y2472D01*
X2975Y2472D01*
X2976Y2470D01*
X2977Y2470D01*
X2977Y2469D01*
X2978Y2469D01*
X2978Y2469D01*
X2979Y2468D01*
X2981Y2467D01*
X2982Y2466D01*
X2983Y2465D01*
X2985Y2464D01*
X2986Y2463D01*
X2986Y2463D01*
X2986Y2463D01*
X2987Y2463D01*
X2987D01*
X3000Y2454D01*
Y2444D01*
X2983Y2455D01*
X2981Y2456D01*
X2979Y2457D01*
X2978Y2458D01*
X2976Y2460D01*
X2976Y2460D01*
X2975Y2461D01*
X2974Y2462D01*
X2974Y2462D01*
X2974Y2463D01*
X2973Y2463D01*
X2972Y2465D01*
X2972Y2466D01*
X2971Y2466D01*
X2971Y2467D01*
X2971Y2467D01*
X2971Y2465D01*
X2970Y2464D01*
X2970Y2462D01*
X2969Y2461D01*
X2969Y2460D01*
X2968Y2459D01*
X2968Y2458D01*
X2968Y2457D01*
X2967Y2456D01*
X2967Y2455D01*
X2966Y2455D01*
X2966Y2454D01*
X2966Y2454D01*
X2965Y2453D01*
X2965Y2453D01*
X2965Y2453D01*
X2964Y2453D01*
X2963Y2452D01*
X2961Y2451D01*
X2959Y2450D01*
X2957Y2449D01*
X2956Y2449D01*
X2955Y2449D01*
X2955D01*
X2954Y2449D01*
X2954D01*
X2954D01*
X2953D01*
X2952Y2449D01*
X2950Y2449D01*
X2948Y2450D01*
X2947Y2450D01*
X2946Y2451D01*
X2945Y2451D01*
X2944Y2451D01*
X2944Y2452D01*
X2944D01*
X2942Y2453D01*
X2941Y2454D01*
X2940Y2455D01*
X2939Y2456D01*
X2939Y2457D01*
X2938Y2458D01*
X2938Y2458D01*
X2938Y2459D01*
Y2459D01*
X2938Y2460D01*
X2937Y2461D01*
X2937Y2463D01*
X2936Y2465D01*
X2936Y2467D01*
X2936Y2469D01*
Y2470D01*
X2936Y2470D01*
Y2500D01*
X3000D01*
Y2491D01*
D02*
G37*
G36*
Y2397D02*
X2992D01*
Y2429D01*
X2991Y2428D01*
X2990Y2427D01*
X2990Y2427D01*
X2989Y2426D01*
X2989Y2426D01*
X2988Y2426D01*
X2988Y2426D01*
X2988Y2425D01*
X2987Y2425D01*
X2986Y2423D01*
X2985Y2422D01*
X2983Y2420D01*
X2982Y2419D01*
X2982Y2418D01*
X2981Y2418D01*
X2981Y2417D01*
X2980Y2417D01*
X2980Y2417D01*
X2980Y2417D01*
X2979Y2415D01*
X2978Y2414D01*
X2976Y2412D01*
X2975Y2411D01*
X2974Y2410D01*
X2973Y2409D01*
X2973Y2408D01*
X2972Y2407D01*
X2971Y2407D01*
X2971Y2406D01*
X2970Y2406D01*
X2970Y2405D01*
X2969Y2405D01*
X2969Y2404D01*
X2967Y2403D01*
X2966Y2402D01*
X2965Y2401D01*
X2963Y2400D01*
X2962Y2400D01*
X2962Y2400D01*
X2961Y2399D01*
X2961Y2399D01*
X2960Y2399D01*
X2958Y2398D01*
X2957Y2398D01*
X2956Y2398D01*
X2955Y2398D01*
X2954Y2398D01*
X2954D01*
X2953D01*
X2952Y2398D01*
X2951Y2398D01*
X2950Y2398D01*
X2948Y2398D01*
X2946Y2399D01*
X2944Y2400D01*
X2944Y2401D01*
X2943Y2401D01*
X2942Y2402D01*
X2942Y2402D01*
X2941Y2403D01*
X2941Y2403D01*
X2941Y2403D01*
X2941Y2403D01*
X2940Y2404D01*
X2939Y2405D01*
X2939Y2406D01*
X2938Y2408D01*
X2937Y2410D01*
X2936Y2412D01*
X2936Y2413D01*
X2936Y2414D01*
X2936Y2415D01*
X2936Y2416D01*
X2936Y2417D01*
Y2418D01*
X2936Y2419D01*
X2936Y2421D01*
X2936Y2422D01*
X2936Y2424D01*
X2937Y2425D01*
X2937Y2426D01*
X2938Y2427D01*
X2938Y2428D01*
X2939Y2429D01*
X2939Y2430D01*
X2939Y2431D01*
X2940Y2431D01*
X2940Y2432D01*
X2940Y2432D01*
X2940Y2432D01*
X2941Y2432D01*
X2941Y2433D01*
X2942Y2434D01*
X2944Y2435D01*
X2945Y2435D01*
X2947Y2437D01*
X2949Y2437D01*
X2950Y2438D01*
X2951Y2438D01*
X2952Y2438D01*
X2953Y2438D01*
X2953Y2438D01*
X2954D01*
X2954Y2438D01*
X2954D01*
X2955Y2430D01*
X2953Y2430D01*
X2951Y2430D01*
X2949Y2429D01*
X2948Y2429D01*
X2947Y2428D01*
X2946Y2428D01*
X2946Y2427D01*
X2946Y2427D01*
X2945Y2426D01*
X2944Y2424D01*
X2943Y2423D01*
X2943Y2421D01*
X2942Y2420D01*
X2942Y2419D01*
X2942Y2418D01*
Y2418D01*
X2942Y2416D01*
X2943Y2414D01*
X2943Y2413D01*
X2944Y2411D01*
X2944Y2410D01*
X2945Y2410D01*
X2945Y2409D01*
X2945Y2409D01*
X2947Y2408D01*
X2948Y2407D01*
X2949Y2406D01*
X2951Y2406D01*
X2952Y2406D01*
X2953Y2406D01*
X2953Y2406D01*
X2953D01*
X2953D01*
X2955Y2406D01*
X2957Y2406D01*
X2958Y2407D01*
X2960Y2407D01*
X2961Y2408D01*
X2962Y2409D01*
X2962Y2409D01*
X2963Y2409D01*
X2963Y2409D01*
X2963D01*
X2964Y2410D01*
X2965Y2411D01*
X2966Y2412D01*
X2967Y2413D01*
X2969Y2415D01*
X2972Y2418D01*
X2973Y2419D01*
X2973Y2420D01*
X2974Y2421D01*
X2975Y2422D01*
X2976Y2423D01*
X2976Y2423D01*
X2976Y2423D01*
X2976Y2424D01*
X2978Y2426D01*
X2980Y2428D01*
X2982Y2430D01*
X2983Y2431D01*
X2984Y2432D01*
X2985Y2433D01*
X2986Y2434D01*
X2986Y2434D01*
X2986D01*
X2988Y2435D01*
X2989Y2436D01*
X2991Y2437D01*
X2992Y2438D01*
X2993Y2438D01*
X2994Y2439D01*
X2994Y2439D01*
X2994Y2439D01*
X2995D01*
X2996Y2439D01*
X2996Y2440D01*
X2997Y2440D01*
X2998Y2440D01*
X2999Y2440D01*
X3000D01*
X3000D01*
X3000D01*
Y2397D01*
D02*
G37*
G36*
X2064Y3386D02*
X2063Y3385D01*
X2061Y3384D01*
X2060Y3383D01*
X2058Y3381D01*
X2057Y3380D01*
X2056Y3380D01*
X2056Y3379D01*
X2056Y3379D01*
X2056Y3379D01*
X2056Y3379D01*
X2054Y3377D01*
X2053Y3375D01*
X2051Y3373D01*
X2050Y3371D01*
X2049Y3370D01*
X2049Y3369D01*
X2049Y3368D01*
X2048Y3368D01*
X2048Y3367D01*
X2048Y3367D01*
Y3367D01*
X2041D01*
X2041Y3369D01*
X2042Y3370D01*
X2042Y3371D01*
X2043Y3373D01*
X2044Y3374D01*
X2044Y3375D01*
X2044Y3375D01*
X2045Y3375D01*
Y3375D01*
X2046Y3377D01*
X2047Y3379D01*
X2048Y3380D01*
X2048Y3381D01*
X2049Y3382D01*
X2050Y3382D01*
X2050Y3383D01*
X2050Y3383D01*
X2000D01*
Y3391D01*
X2064D01*
Y3386D01*
D02*
G37*
G36*
X2017Y3345D02*
X2019Y3344D01*
X2021Y3343D01*
X2022Y3342D01*
X2024Y3340D01*
X2025Y3340D01*
X2025Y3339D01*
X2026Y3338D01*
X2026Y3338D01*
X2026Y3337D01*
X2027Y3337D01*
X2028Y3335D01*
X2028Y3334D01*
X2029Y3334D01*
X2029Y3333D01*
X2029Y3333D01*
X2029Y3335D01*
X2030Y3336D01*
X2030Y3338D01*
X2031Y3339D01*
X2031Y3340D01*
X2032Y3341D01*
X2032Y3342D01*
X2032Y3343D01*
X2033Y3344D01*
X2033Y3345D01*
X2034Y3345D01*
X2034Y3346D01*
X2034Y3346D01*
X2035Y3347D01*
X2035Y3347D01*
X2035Y3347D01*
X2036Y3347D01*
X2037Y3348D01*
X2039Y3349D01*
X2041Y3350D01*
X2043Y3351D01*
X2044Y3351D01*
X2045Y3351D01*
X2045D01*
X2046Y3351D01*
X2046D01*
X2046D01*
X2047D01*
X2048Y3351D01*
X2050Y3351D01*
X2052Y3350D01*
X2053Y3350D01*
X2054Y3349D01*
X2055Y3349D01*
X2056Y3349D01*
X2056Y3348D01*
X2056D01*
X2058Y3347D01*
X2059Y3346D01*
X2060Y3345D01*
X2061Y3344D01*
X2061Y3343D01*
X2062Y3342D01*
X2062Y3342D01*
X2062Y3341D01*
Y3341D01*
X2062Y3340D01*
X2063Y3339D01*
X2063Y3337D01*
X2064Y3335D01*
X2064Y3333D01*
X2064Y3331D01*
Y3330D01*
X2064Y3330D01*
Y3300D01*
X2000D01*
Y3309D01*
X2028D01*
Y3319D01*
X2028Y3320D01*
Y3321D01*
X2028Y3322D01*
X2028Y3322D01*
Y3323D01*
X2028Y3323D01*
Y3323D01*
X2028Y3324D01*
X2027Y3325D01*
X2027Y3326D01*
X2027Y3326D01*
X2027Y3327D01*
X2026Y3327D01*
X2026Y3327D01*
X2026Y3328D01*
X2025Y3328D01*
X2024Y3330D01*
X2023Y3330D01*
X2023Y3331D01*
X2022Y3331D01*
X2022Y3331D01*
X2021Y3332D01*
X2019Y3333D01*
X2018Y3334D01*
X2017Y3335D01*
X2015Y3336D01*
X2014Y3337D01*
X2014Y3337D01*
X2014Y3337D01*
X2013Y3337D01*
X2013D01*
X2000Y3346D01*
Y3356D01*
X2017Y3345D01*
D02*
G37*
G36*
X1824Y3540D02*
X1825Y3539D01*
X1826Y3539D01*
X1827Y3539D01*
X1827Y3539D01*
X1829Y3539D01*
X1830Y3538D01*
X1832Y3538D01*
X1833Y3537D01*
X1835Y3537D01*
X1836Y3536D01*
X1836Y3536D01*
X1836Y3536D01*
X1836Y3536D01*
X1837Y3536D01*
X1838Y3535D01*
X1840Y3533D01*
X1842Y3532D01*
X1844Y3531D01*
X1845Y3530D01*
X1846Y3529D01*
X1846Y3529D01*
X1846Y3528D01*
X1847Y3528D01*
X1847Y3528D01*
X1847Y3528D01*
X1849Y3526D01*
X1851Y3523D01*
X1852Y3521D01*
X1853Y3520D01*
X1854Y3519D01*
X1854Y3518D01*
X1855Y3518D01*
X1855Y3517D01*
X1855Y3516D01*
X1856Y3516D01*
X1856Y3516D01*
X1856Y3515D01*
X1856Y3515D01*
X1857Y3513D01*
X1857Y3510D01*
X1858Y3508D01*
X1858Y3506D01*
X1858Y3505D01*
Y3503D01*
X1858Y3503D01*
Y3502D01*
Y3502D01*
Y3502D01*
X1858Y3500D01*
X1858Y3499D01*
X1857Y3497D01*
X1856Y3495D01*
X1856Y3494D01*
X1855Y3493D01*
X1855Y3493D01*
X1855Y3493D01*
X1855Y3492D01*
X1855Y3492D01*
X1854Y3491D01*
X1853Y3490D01*
X1852Y3488D01*
X1850Y3487D01*
X1849Y3485D01*
X1832Y3468D01*
X1787Y3513D01*
X1803Y3530D01*
X1805Y3531D01*
X1806Y3532D01*
X1807Y3533D01*
X1809Y3534D01*
X1810Y3535D01*
X1810Y3536D01*
X1811Y3536D01*
X1811Y3536D01*
X1811Y3536D01*
X1812Y3537D01*
X1814Y3538D01*
X1815Y3538D01*
X1816Y3539D01*
X1817Y3539D01*
X1818Y3539D01*
X1818Y3539D01*
X1819Y3539D01*
X1820Y3540D01*
X1822D01*
X1823Y3540D01*
X1824Y3540D01*
D02*
G37*
G36*
X1896Y3532D02*
X1893Y3529D01*
X1891Y3529D01*
X1889Y3529D01*
X1887Y3530D01*
X1886Y3530D01*
X1884D01*
X1883Y3530D01*
X1882Y3530D01*
X1882D01*
X1882D01*
X1882D01*
X1879Y3529D01*
X1877Y3529D01*
X1875Y3529D01*
X1873Y3528D01*
X1871Y3528D01*
X1870Y3527D01*
X1870Y3527D01*
X1869Y3527D01*
X1869Y3527D01*
X1868D01*
X1868Y3527D01*
X1863Y3532D01*
X1864Y3533D01*
X1866Y3533D01*
X1867Y3534D01*
X1869Y3534D01*
X1870Y3535D01*
X1871Y3535D01*
X1871Y3535D01*
X1872D01*
X1872Y3535D01*
X1874Y3536D01*
X1875Y3536D01*
X1877Y3536D01*
X1878Y3536D01*
X1879Y3537D01*
X1880D01*
X1881Y3537D01*
X1881D01*
X1845Y3572D01*
X1851Y3578D01*
X1896Y3532D01*
D02*
G37*
G36*
X3380Y2297D02*
X3381Y2295D01*
X3382Y2294D01*
X3383Y2293D01*
X3384Y2291D01*
X3385Y2290D01*
X3386Y2290D01*
X3386Y2289D01*
X3386Y2289D01*
X3386Y2289D01*
X3387Y2288D01*
X3388Y2286D01*
X3388Y2285D01*
X3389Y2284D01*
X3389Y2283D01*
X3389Y2282D01*
X3389Y2282D01*
X3389Y2281D01*
X3390Y2280D01*
Y2278D01*
X3390Y2277D01*
X3390Y2276D01*
X3389Y2275D01*
X3389Y2274D01*
X3389Y2273D01*
X3389Y2273D01*
X3389Y2271D01*
X3388Y2270D01*
X3388Y2268D01*
X3387Y2267D01*
X3387Y2265D01*
X3386Y2264D01*
X3386Y2264D01*
X3386Y2264D01*
X3386Y2264D01*
X3386Y2263D01*
X3385Y2262D01*
X3383Y2260D01*
X3382Y2258D01*
X3381Y2256D01*
X3380Y2255D01*
X3379Y2254D01*
X3379Y2254D01*
X3378Y2254D01*
X3378Y2253D01*
X3378Y2253D01*
X3378Y2253D01*
X3376Y2251D01*
X3373Y2249D01*
X3371Y2248D01*
X3370Y2247D01*
X3369Y2246D01*
X3368Y2246D01*
X3368Y2245D01*
X3367Y2245D01*
X3366Y2245D01*
X3366Y2244D01*
X3366Y2244D01*
X3365Y2244D01*
X3365Y2244D01*
X3363Y2243D01*
X3360Y2243D01*
X3358Y2242D01*
X3356Y2242D01*
X3355Y2242D01*
X3353D01*
X3353Y2242D01*
X3352D01*
X3350Y2242D01*
X3349Y2242D01*
X3347Y2243D01*
X3345Y2244D01*
X3344Y2244D01*
X3343Y2245D01*
X3343Y2245D01*
X3343Y2245D01*
X3342Y2245D01*
X3342Y2245D01*
X3341Y2246D01*
X3340Y2247D01*
X3338Y2248D01*
X3337Y2250D01*
X3335Y2251D01*
X3318Y2268D01*
X3363Y2313D01*
X3380Y2297D01*
D02*
G37*
G36*
X3436Y2241D02*
X3431Y2235D01*
X3408Y2258D01*
X3408Y2256D01*
X3408Y2255D01*
X3408Y2254D01*
X3408Y2253D01*
Y2253D01*
Y2253D01*
Y2252D01*
Y2252D01*
X3408Y2251D01*
X3408Y2249D01*
X3408Y2247D01*
X3408Y2245D01*
X3408Y2243D01*
X3408Y2242D01*
Y2242D01*
X3408Y2241D01*
X3408Y2241D01*
Y2240D01*
Y2240D01*
X3408Y2238D01*
X3409Y2236D01*
X3409Y2235D01*
X3409Y2233D01*
X3409Y2231D01*
Y2230D01*
X3409Y2229D01*
Y2228D01*
Y2227D01*
Y2226D01*
Y2225D01*
Y2225D01*
X3409Y2224D01*
Y2224D01*
X3409Y2222D01*
X3409Y2220D01*
X3408Y2218D01*
X3408Y2217D01*
X3408Y2216D01*
X3407Y2215D01*
X3407Y2215D01*
X3407Y2214D01*
X3407Y2213D01*
X3406Y2212D01*
X3405Y2211D01*
X3404Y2210D01*
X3404Y2209D01*
X3403Y2208D01*
X3403Y2208D01*
X3403Y2208D01*
X3402Y2207D01*
X3401Y2206D01*
X3400Y2205D01*
X3399Y2205D01*
X3397Y2204D01*
X3395Y2203D01*
X3394Y2203D01*
X3393Y2203D01*
X3392Y2203D01*
X3391D01*
X3391Y2203D01*
X3390Y2203D01*
X3390D01*
X3389Y2203D01*
X3387Y2203D01*
X3386Y2204D01*
X3385Y2204D01*
X3383Y2205D01*
X3380Y2206D01*
X3380Y2207D01*
X3379Y2207D01*
X3378Y2208D01*
X3377Y2209D01*
X3377Y2209D01*
X3376Y2210D01*
X3375Y2211D01*
X3374Y2212D01*
X3373Y2213D01*
X3372Y2214D01*
X3372Y2216D01*
X3371Y2217D01*
X3371Y2218D01*
X3370Y2219D01*
X3370Y2220D01*
X3370Y2221D01*
X3370Y2221D01*
X3369Y2222D01*
X3369Y2223D01*
Y2223D01*
X3369Y2223D01*
Y2223D01*
Y2225D01*
X3369Y2226D01*
X3370Y2227D01*
X3370Y2229D01*
X3371Y2231D01*
X3372Y2233D01*
X3372Y2234D01*
X3373Y2235D01*
X3373Y2236D01*
X3374Y2236D01*
X3374Y2237D01*
X3374Y2237D01*
X3374Y2237D01*
X3375Y2237D01*
X3381Y2232D01*
X3379Y2231D01*
X3378Y2229D01*
X3378Y2227D01*
X3377Y2226D01*
X3377Y2225D01*
X3377Y2224D01*
X3377Y2223D01*
Y2223D01*
X3377Y2221D01*
X3377Y2220D01*
X3378Y2218D01*
X3379Y2217D01*
X3379Y2216D01*
X3380Y2215D01*
X3380Y2215D01*
X3381Y2214D01*
X3382Y2213D01*
X3384Y2212D01*
X3385Y2211D01*
X3386Y2211D01*
X3388Y2211D01*
X3388Y2210D01*
X3389Y2210D01*
X3389D01*
X3391Y2210D01*
X3392Y2211D01*
X3394Y2211D01*
X3395Y2212D01*
X3396Y2212D01*
X3397Y2213D01*
X3397Y2213D01*
X3397Y2213D01*
X3397Y2213D01*
X3398Y2215D01*
X3399Y2216D01*
X3400Y2218D01*
X3400Y2219D01*
X3401Y2221D01*
X3401Y2222D01*
X3401Y2222D01*
X3401Y2223D01*
X3401Y2223D01*
X3401Y2223D01*
X3401Y2224D01*
X3401Y2226D01*
X3401Y2227D01*
Y2229D01*
X3401Y2232D01*
X3401Y2235D01*
X3401Y2237D01*
X3401Y2238D01*
X3401Y2239D01*
X3401Y2240D01*
X3401Y2241D01*
X3401Y2242D01*
X3401Y2242D01*
Y2243D01*
X3401Y2246D01*
X3400Y2248D01*
X3400Y2251D01*
Y2253D01*
Y2254D01*
Y2256D01*
X3400Y2256D01*
X3400Y2256D01*
X3400Y2257D01*
X3401Y2259D01*
X3401Y2260D01*
X3401Y2262D01*
X3402Y2263D01*
X3402Y2265D01*
X3402Y2266D01*
X3403Y2266D01*
Y2266D01*
X3403Y2266D01*
X3403Y2267D01*
X3404Y2268D01*
X3404Y2269D01*
X3405Y2269D01*
X3405Y2270D01*
X3406Y2270D01*
X3406Y2271D01*
X3406Y2271D01*
X3436Y2241D01*
D02*
G37*
%LPC*%
G36*
X1198Y956D02*
X1197Y956D01*
X1195Y955D01*
X1194Y955D01*
X1193Y955D01*
X1192Y955D01*
X1192Y954D01*
X1191Y954D01*
X1191Y954D01*
X1190Y953D01*
X1189Y952D01*
X1187Y951D01*
X1186Y950D01*
X1185Y949D01*
X1185Y949D01*
X1174Y938D01*
X1208Y904D01*
X1219Y914D01*
X1220Y915D01*
X1220Y916D01*
X1221Y917D01*
X1222Y918D01*
X1223Y919D01*
X1224Y920D01*
X1224Y921D01*
X1225Y922D01*
X1225Y922D01*
X1225Y924D01*
X1226Y925D01*
X1226Y927D01*
Y929D01*
X1226Y930D01*
X1225Y932D01*
X1225Y932D01*
X1225Y932D01*
Y933D01*
X1225Y933D01*
X1225Y934D01*
X1224Y935D01*
X1223Y937D01*
X1222Y939D01*
X1220Y942D01*
X1220Y942D01*
X1219Y943D01*
X1218Y944D01*
X1218Y945D01*
X1217Y945D01*
X1217Y946D01*
X1217Y946D01*
X1217Y946D01*
X1215Y948D01*
X1213Y949D01*
X1211Y950D01*
X1210Y952D01*
X1209Y952D01*
X1208Y952D01*
X1208Y953D01*
X1208Y953D01*
X1207Y953D01*
X1207Y953D01*
X1207Y953D01*
X1207Y953D01*
X1205Y954D01*
X1203Y955D01*
X1202Y955D01*
X1200Y955D01*
X1199Y956D01*
X1198Y956D01*
X1198D01*
X1198Y956D01*
D02*
G37*
G36*
X1466Y1333D02*
X1446D01*
X1444Y1333D01*
X1442Y1333D01*
X1440Y1332D01*
X1438Y1331D01*
X1437Y1331D01*
X1437Y1330D01*
X1436Y1330D01*
X1436Y1330D01*
X1435Y1329D01*
X1434Y1328D01*
X1433Y1326D01*
X1433Y1325D01*
X1433Y1324D01*
X1433Y1323D01*
X1433Y1323D01*
Y1323D01*
Y1323D01*
X1433Y1321D01*
X1433Y1320D01*
X1433Y1319D01*
X1433Y1319D01*
X1434Y1318D01*
X1434Y1317D01*
X1434Y1317D01*
X1434Y1317D01*
X1435Y1316D01*
X1436Y1315D01*
X1437Y1314D01*
X1437Y1314D01*
X1438Y1313D01*
X1439Y1313D01*
X1439Y1313D01*
X1439Y1313D01*
X1441Y1313D01*
X1442Y1312D01*
X1444Y1312D01*
X1445Y1312D01*
X1446Y1312D01*
X1447Y1312D01*
X1466D01*
Y1333D01*
D02*
G37*
G36*
X214Y1320D02*
X193D01*
Y1300D01*
X193Y1297D01*
X194Y1295D01*
X194Y1293D01*
X195Y1292D01*
X195Y1291D01*
X196Y1290D01*
X196Y1290D01*
X196Y1289D01*
X197Y1288D01*
X199Y1287D01*
X200Y1287D01*
X201Y1286D01*
X202Y1286D01*
X203Y1286D01*
X203Y1286D01*
X203D01*
X204D01*
X205Y1286D01*
X206Y1286D01*
X207Y1287D01*
X208Y1287D01*
X208Y1287D01*
X209Y1288D01*
X209Y1288D01*
X209Y1288D01*
X210Y1288D01*
X211Y1289D01*
X212Y1290D01*
X212Y1291D01*
X213Y1292D01*
X213Y1292D01*
X213Y1293D01*
X213Y1293D01*
X214Y1294D01*
X214Y1296D01*
X214Y1297D01*
X214Y1299D01*
X214Y1300D01*
X214Y1301D01*
Y1320D01*
D02*
G37*
G36*
X1328Y4489D02*
X1309D01*
Y4468D01*
X1329D01*
X1331Y4468D01*
X1333Y4469D01*
X1335Y4469D01*
X1337Y4470D01*
X1338Y4470D01*
X1338Y4471D01*
X1339Y4471D01*
X1339Y4471D01*
X1340Y4472D01*
X1341Y4474D01*
X1342Y4475D01*
X1342Y4476D01*
X1342Y4477D01*
X1342Y4478D01*
X1342Y4478D01*
Y4478D01*
Y4479D01*
X1342Y4480D01*
X1342Y4481D01*
X1342Y4482D01*
X1342Y4483D01*
X1341Y4483D01*
X1341Y4484D01*
X1341Y4484D01*
X1341Y4484D01*
X1340Y4485D01*
X1339Y4486D01*
X1338Y4487D01*
X1338Y4487D01*
X1337Y4488D01*
X1336Y4488D01*
X1336Y4488D01*
X1336Y4488D01*
X1334Y4489D01*
X1333Y4489D01*
X1331Y4489D01*
X1330Y4489D01*
X1329Y4489D01*
X1328Y4489D01*
D02*
G37*
G36*
X348Y1007D02*
X347Y1007D01*
X345Y1007D01*
X344Y1007D01*
X343Y1006D01*
X342Y1006D01*
X342Y1006D01*
X341Y1006D01*
X341Y1006D01*
X340Y1005D01*
X339Y1004D01*
X337Y1003D01*
X336Y1002D01*
X335Y1001D01*
X335Y1000D01*
X324Y990D01*
X358Y955D01*
X369Y966D01*
X370Y967D01*
X370Y967D01*
X371Y968D01*
X372Y970D01*
X373Y971D01*
X374Y972D01*
X374Y973D01*
X374Y973D01*
X375Y973D01*
X375Y975D01*
X376Y977D01*
X376Y979D01*
Y981D01*
X376Y982D01*
X375Y983D01*
X375Y984D01*
X375Y984D01*
Y984D01*
X375Y984D01*
X375Y985D01*
X374Y987D01*
X373Y989D01*
X372Y991D01*
X370Y993D01*
X370Y994D01*
X369Y995D01*
X368Y996D01*
X368Y996D01*
X367Y997D01*
X367Y997D01*
X367Y997D01*
X367Y997D01*
X365Y999D01*
X363Y1001D01*
X361Y1002D01*
X360Y1003D01*
X359Y1004D01*
X358Y1004D01*
X358Y1004D01*
X357Y1004D01*
X357Y1005D01*
X357Y1005D01*
X357Y1005D01*
X357Y1005D01*
X355Y1006D01*
X353Y1006D01*
X352Y1007D01*
X350Y1007D01*
X349Y1007D01*
X348Y1007D01*
X348D01*
X348Y1007D01*
D02*
G37*
G36*
X1592Y4346D02*
X1582Y4335D01*
X1581Y4334D01*
X1580Y4333D01*
X1580Y4332D01*
X1578Y4331D01*
X1578Y4330D01*
X1577Y4329D01*
X1577Y4328D01*
X1576Y4328D01*
X1576Y4327D01*
X1576Y4326D01*
X1575Y4324D01*
X1575Y4322D01*
Y4320D01*
X1575Y4319D01*
X1575Y4318D01*
X1575Y4317D01*
X1576Y4317D01*
Y4317D01*
X1576Y4317D01*
X1576Y4315D01*
X1576Y4314D01*
X1578Y4312D01*
X1579Y4310D01*
X1580Y4308D01*
X1581Y4307D01*
X1582Y4306D01*
X1582Y4305D01*
X1583Y4305D01*
X1583Y4304D01*
X1584Y4304D01*
X1584Y4303D01*
X1584Y4303D01*
X1586Y4302D01*
X1588Y4300D01*
X1590Y4299D01*
X1591Y4298D01*
X1592Y4297D01*
X1592Y4297D01*
X1593Y4297D01*
X1593Y4296D01*
X1594Y4296D01*
X1594Y4296D01*
X1594Y4296D01*
X1594Y4296D01*
X1596Y4295D01*
X1597Y4294D01*
X1599Y4294D01*
X1600Y4294D01*
X1602Y4294D01*
X1602Y4294D01*
X1603D01*
X1603Y4293D01*
X1604Y4294D01*
X1605Y4294D01*
X1606Y4294D01*
X1607Y4294D01*
X1608Y4295D01*
X1609Y4295D01*
X1609Y4295D01*
X1610Y4295D01*
X1611Y4296D01*
X1612Y4297D01*
X1613Y4298D01*
X1615Y4299D01*
X1616Y4300D01*
X1616Y4300D01*
X1627Y4311D01*
X1592Y4346D01*
D02*
G37*
G36*
X4118Y3009D02*
X4117D01*
X4116Y3009D01*
X4114Y3008D01*
X4113Y3008D01*
X4111Y3007D01*
X4110Y3006D01*
X4110Y3006D01*
X4109Y3005D01*
X4109Y3005D01*
Y3005D01*
X4108Y3003D01*
X4107Y3002D01*
X4106Y3000D01*
X4106Y2998D01*
X4106Y2997D01*
X4106Y2996D01*
Y2995D01*
X4105Y2995D01*
Y2994D01*
Y2994D01*
Y2994D01*
X4106Y2992D01*
X4106Y2990D01*
X4107Y2988D01*
X4107Y2986D01*
X4108Y2985D01*
X4108Y2984D01*
X4109Y2984D01*
X4109Y2984D01*
X4110Y2982D01*
X4112Y2981D01*
X4113Y2981D01*
X4115Y2980D01*
X4116Y2980D01*
X4117Y2980D01*
X4117Y2980D01*
X4118D01*
X4120Y2980D01*
X4122Y2980D01*
X4123Y2981D01*
X4125Y2982D01*
X4126Y2982D01*
X4126Y2983D01*
X4127Y2983D01*
X4127Y2984D01*
X4128Y2985D01*
X4129Y2987D01*
X4130Y2988D01*
X4130Y2990D01*
X4131Y2991D01*
X4131Y2992D01*
Y2992D01*
X4131Y2993D01*
Y2993D01*
Y2993D01*
Y2993D01*
X4131Y2996D01*
X4130Y2998D01*
X4130Y3000D01*
X4129Y3002D01*
X4128Y3003D01*
X4128Y3004D01*
X4127Y3004D01*
X4127Y3004D01*
X4127Y3004D01*
Y3005D01*
X4126Y3005D01*
X4125Y3006D01*
X4124Y3007D01*
X4122Y3008D01*
X4121Y3008D01*
X4120Y3009D01*
X4119Y3009D01*
X4118Y3009D01*
D02*
G37*
G36*
X4191Y3008D02*
X4171D01*
X4169Y3008D01*
X4167Y3008D01*
X4165Y3007D01*
X4163Y3006D01*
X4162Y3006D01*
X4162Y3005D01*
X4161Y3005D01*
X4161Y3005D01*
X4160Y3004D01*
X4159Y3003D01*
X4158Y3001D01*
X4158Y3000D01*
X4158Y2999D01*
X4158Y2998D01*
X4158Y2998D01*
Y2998D01*
Y2998D01*
X4158Y2996D01*
X4158Y2995D01*
X4158Y2994D01*
X4158Y2994D01*
X4159Y2993D01*
X4159Y2992D01*
X4159Y2992D01*
X4159Y2992D01*
X4160Y2991D01*
X4161Y2990D01*
X4162Y2989D01*
X4162Y2989D01*
X4163Y2988D01*
X4164Y2988D01*
X4164Y2988D01*
X4164Y2988D01*
X4166Y2988D01*
X4167Y2987D01*
X4169Y2987D01*
X4170Y2987D01*
X4171Y2987D01*
X4172Y2987D01*
X4191D01*
Y3008D01*
D02*
G37*
G36*
X3963Y2701D02*
X3929Y2667D01*
X3939Y2656D01*
X3940Y2655D01*
X3941Y2655D01*
X3942Y2654D01*
X3943Y2653D01*
X3944Y2652D01*
X3945Y2651D01*
X3946Y2651D01*
X3947Y2650D01*
X3947Y2650D01*
X3949Y2650D01*
X3950Y2649D01*
X3952Y2649D01*
X3954D01*
X3955Y2649D01*
X3957Y2650D01*
X3957Y2650D01*
X3957Y2650D01*
X3958D01*
X3958Y2650D01*
X3959Y2650D01*
X3960Y2651D01*
X3962Y2652D01*
X3964Y2653D01*
X3967Y2655D01*
X3967Y2655D01*
X3968Y2656D01*
X3969Y2657D01*
X3970Y2657D01*
X3970Y2658D01*
X3971Y2658D01*
X3971Y2658D01*
X3971Y2658D01*
X3973Y2660D01*
X3974Y2662D01*
X3975Y2664D01*
X3977Y2665D01*
X3977Y2666D01*
X3977Y2667D01*
X3978Y2667D01*
X3978Y2667D01*
X3978Y2668D01*
X3978Y2668D01*
X3978Y2668D01*
X3978Y2668D01*
X3979Y2670D01*
X3980Y2672D01*
X3980Y2673D01*
X3980Y2675D01*
X3981Y2676D01*
X3981Y2677D01*
Y2677D01*
X3981Y2677D01*
X3981Y2678D01*
X3980Y2680D01*
X3980Y2681D01*
X3980Y2682D01*
X3980Y2683D01*
X3979Y2683D01*
X3979Y2684D01*
X3979Y2684D01*
X3978Y2685D01*
X3977Y2686D01*
X3976Y2688D01*
X3975Y2689D01*
X3974Y2690D01*
X3974Y2690D01*
X3963Y2701D01*
D02*
G37*
G36*
X3991Y2638D02*
X3991D01*
X3989Y2638D01*
X3987Y2637D01*
X3986Y2636D01*
X3984Y2636D01*
X3983Y2635D01*
X3983Y2635D01*
X3982Y2634D01*
X3982Y2634D01*
X3982Y2634D01*
X3982Y2634D01*
X3982Y2634D01*
X3980Y2632D01*
X3979Y2630D01*
X3978Y2628D01*
X3977Y2626D01*
X3977Y2625D01*
X3977Y2624D01*
X3977Y2624D01*
X3976Y2623D01*
X3977Y2623D01*
X3976Y2623D01*
Y2622D01*
Y2621D01*
X3977Y2619D01*
X3977Y2617D01*
X3978Y2616D01*
X3979Y2615D01*
X3979Y2614D01*
X3980Y2614D01*
X3981Y2613D01*
X3981Y2612D01*
X3983Y2611D01*
X3984Y2611D01*
X3986Y2610D01*
X3987Y2610D01*
X3988Y2610D01*
X3989D01*
X3989Y2610D01*
X3989Y2610D01*
X3991Y2610D01*
X3993Y2611D01*
X3994Y2612D01*
X3996Y2613D01*
X3997Y2614D01*
X3998Y2614D01*
X3998Y2614D01*
X3999Y2615D01*
X3999Y2615D01*
X3999Y2615D01*
X3999Y2615D01*
X4001Y2617D01*
X4002Y2619D01*
X4003Y2620D01*
X4003Y2622D01*
X4004Y2623D01*
X4004Y2624D01*
X4004Y2625D01*
Y2625D01*
X4004Y2627D01*
X4004Y2629D01*
X4003Y2630D01*
X4002Y2632D01*
X4002Y2633D01*
X4001Y2633D01*
X4001Y2634D01*
X4000Y2634D01*
X3999Y2635D01*
X3997Y2636D01*
X3996Y2637D01*
X3994Y2638D01*
X3993Y2638D01*
X3992Y2638D01*
X3991Y2638D01*
D02*
G37*
G36*
X2964Y2491D02*
X2943D01*
Y2471D01*
X2943Y2469D01*
X2944Y2467D01*
X2944Y2465D01*
X2945Y2463D01*
X2945Y2462D01*
X2946Y2462D01*
X2946Y2461D01*
X2946Y2461D01*
X2947Y2460D01*
X2949Y2459D01*
X2950Y2458D01*
X2951Y2458D01*
X2952Y2458D01*
X2953Y2458D01*
X2953Y2458D01*
X2953D01*
X2954D01*
X2955Y2458D01*
X2956Y2458D01*
X2957Y2458D01*
X2958Y2458D01*
X2958Y2459D01*
X2959Y2459D01*
X2959Y2459D01*
X2959Y2459D01*
X2960Y2460D01*
X2961Y2461D01*
X2962Y2462D01*
X2962Y2462D01*
X2963Y2463D01*
X2963Y2464D01*
X2963Y2464D01*
X2963Y2464D01*
X2964Y2466D01*
X2964Y2467D01*
X2964Y2469D01*
X2964Y2470D01*
X2964Y2471D01*
X2964Y2472D01*
Y2491D01*
D02*
G37*
G36*
X2047Y3342D02*
X2047D01*
X2046D01*
X2045Y3342D01*
X2044Y3342D01*
X2043Y3342D01*
X2042Y3342D01*
X2042Y3341D01*
X2041Y3341D01*
X2041Y3341D01*
X2041Y3341D01*
X2040Y3340D01*
X2039Y3339D01*
X2038Y3338D01*
X2038Y3338D01*
X2037Y3337D01*
X2037Y3336D01*
X2037Y3336D01*
X2037Y3336D01*
X2036Y3334D01*
X2036Y3333D01*
X2036Y3331D01*
X2036Y3330D01*
X2036Y3329D01*
X2036Y3328D01*
Y3309D01*
X2057D01*
Y3329D01*
X2057Y3331D01*
X2056Y3333D01*
X2056Y3335D01*
X2055Y3337D01*
X2055Y3338D01*
X2054Y3338D01*
X2054Y3339D01*
X2054Y3339D01*
X2053Y3340D01*
X2051Y3341D01*
X2050Y3342D01*
X2049Y3342D01*
X2048Y3342D01*
X2047Y3342D01*
X2047Y3342D01*
D02*
G37*
G36*
X1822Y3532D02*
X1821Y3531D01*
X1820Y3531D01*
X1819Y3531D01*
X1818Y3531D01*
X1817Y3530D01*
X1816Y3530D01*
X1816Y3530D01*
X1815Y3530D01*
X1814Y3529D01*
X1813Y3528D01*
X1812Y3527D01*
X1810Y3526D01*
X1809Y3525D01*
X1809Y3525D01*
X1798Y3514D01*
X1833Y3479D01*
X1843Y3490D01*
X1844Y3491D01*
X1845Y3492D01*
X1845Y3493D01*
X1847Y3494D01*
X1847Y3495D01*
X1848Y3496D01*
X1848Y3497D01*
X1849Y3497D01*
X1849Y3498D01*
X1849Y3499D01*
X1850Y3501D01*
X1850Y3503D01*
Y3505D01*
X1850Y3506D01*
X1850Y3507D01*
X1850Y3508D01*
X1849Y3508D01*
Y3508D01*
X1849Y3508D01*
X1849Y3510D01*
X1849Y3511D01*
X1847Y3513D01*
X1846Y3515D01*
X1845Y3517D01*
X1844Y3518D01*
X1843Y3519D01*
X1843Y3520D01*
X1842Y3520D01*
X1842Y3521D01*
X1841Y3521D01*
X1841Y3522D01*
X1841Y3522D01*
X1839Y3523D01*
X1837Y3525D01*
X1835Y3526D01*
X1834Y3527D01*
X1833Y3528D01*
X1833Y3528D01*
X1832Y3528D01*
X1832Y3529D01*
X1831Y3529D01*
X1831Y3529D01*
X1831Y3529D01*
X1831Y3529D01*
X1829Y3530D01*
X1828Y3531D01*
X1826Y3531D01*
X1825Y3531D01*
X1823Y3531D01*
X1823Y3531D01*
X1822D01*
X1822Y3532D01*
D02*
G37*
G36*
X3364Y2302D02*
X3329Y2267D01*
X3340Y2257D01*
X3341Y2256D01*
X3342Y2255D01*
X3343Y2255D01*
X3344Y2253D01*
X3345Y2253D01*
X3346Y2252D01*
X3347Y2252D01*
X3347Y2251D01*
X3348Y2251D01*
X3349Y2251D01*
X3351Y2250D01*
X3353Y2250D01*
X3355D01*
X3356Y2250D01*
X3357Y2250D01*
X3358Y2250D01*
X3358Y2251D01*
X3358D01*
X3358Y2251D01*
X3360Y2251D01*
X3361Y2251D01*
X3363Y2253D01*
X3365Y2254D01*
X3367Y2255D01*
X3368Y2256D01*
X3369Y2257D01*
X3370Y2257D01*
X3370Y2258D01*
X3371Y2258D01*
X3371Y2259D01*
X3372Y2259D01*
X3372Y2259D01*
X3373Y2261D01*
X3375Y2263D01*
X3376Y2265D01*
X3377Y2266D01*
X3378Y2267D01*
X3378Y2267D01*
X3378Y2268D01*
X3379Y2268D01*
X3379Y2269D01*
X3379Y2269D01*
X3379Y2269D01*
X3379Y2269D01*
X3380Y2271D01*
X3381Y2272D01*
X3381Y2274D01*
X3381Y2275D01*
X3381Y2277D01*
X3381Y2277D01*
Y2278D01*
X3382Y2278D01*
X3381Y2279D01*
X3381Y2280D01*
X3381Y2281D01*
X3381Y2282D01*
X3380Y2283D01*
X3380Y2284D01*
X3380Y2284D01*
X3380Y2285D01*
X3379Y2286D01*
X3378Y2287D01*
X3377Y2288D01*
X3376Y2290D01*
X3375Y2291D01*
X3375Y2291D01*
X3364Y2302D01*
D02*
G37*
%LPD*%
D26*
X1106Y746D02*
X1354Y994D01*
X1244Y1104D02*
X1354Y994D01*
X996Y856D02*
X1244Y1104D01*
X996Y856D02*
X1106Y746D01*
X1332Y1348D02*
X1618D01*
X1332Y1202D02*
Y1348D01*
Y1202D02*
X1618D01*
Y1348D01*
X4343Y2877D02*
Y3023D01*
X4057Y2877D02*
X4343D01*
X4057D02*
Y3023D01*
X4343D01*
X3171Y2369D02*
X3281Y2479D01*
X3529Y2231D01*
X3419Y2121D02*
X3529Y2231D01*
X3171Y2369D02*
X3419Y2121D01*
X1621Y3431D02*
X1731Y3321D01*
X1621Y3431D02*
X1869Y3679D01*
X1979Y3569D01*
X1731Y3321D02*
X1979Y3569D01*
X2927Y2643D02*
X3073D01*
Y2357D02*
Y2643D01*
X2927Y2357D02*
X3073D01*
X2927D02*
Y2643D01*
X1927Y3157D02*
X2073D01*
X1927D02*
Y3443D01*
X2073D01*
Y3157D02*
Y3443D01*
X147Y907D02*
X257Y797D01*
X147Y907D02*
X395Y1154D01*
X504Y1045D01*
X257Y797D02*
X504Y1045D01*
X1694Y4504D02*
X1804Y4394D01*
X1556Y4146D02*
X1804Y4394D01*
X1446Y4256D02*
X1556Y4146D01*
X1446Y4256D02*
X1694Y4504D01*
X3771Y2769D02*
X3881Y2879D01*
X4129Y2631D01*
X4019Y2521D02*
X4129Y2631D01*
X3771Y2769D02*
X4019Y2521D01*
X177Y1472D02*
X323D01*
Y1185D02*
Y1472D01*
X177Y1185D02*
X323D01*
X177D02*
Y1472D01*
X1157Y4452D02*
Y4598D01*
X1443D01*
Y4452D02*
Y4598D01*
X1157Y4452D02*
X1443D01*
%TF.MD5,40e332e98ff0919b5e15a3fc0f3a379b*%
M02*
