%TF.GenerationSoftware,Altium Limited,Altium Designer,23.1.1 (15)*%
G04 Layer_Color=8388736*
%FSLAX42Y42*%
%MOMM*%
%TF.SameCoordinates,B28E977E-5D45-45F3-9009-D632A0DEB075*%
%TF.FilePolarity,Positive*%
%TF.FileFunction,Other,Top_3D_Body*%
%TF.Part,Single*%
G01*
G75*
%TA.AperFunction,NonConductor*%
%ADD26C,0.00*%
D26*
X712Y134D02*
X1115Y670D01*
X385Y381D02*
X712Y134D01*
X385Y381D02*
X788Y916D01*
X1115Y670D01*
X952Y2772D02*
X1047Y2677D01*
X803Y2623D02*
X952Y2772D01*
X803Y2623D02*
X898Y2528D01*
X1047Y2677D01*
X4052Y1502D02*
X4148Y1598D01*
X4052Y1502D02*
X4201Y1354D01*
X4296Y1449D01*
X4148Y1598D02*
X4296Y1449D01*
X732Y3127D02*
X818D01*
X732Y2973D02*
Y3127D01*
Y2973D02*
X818D01*
Y3127D01*
X3458Y4372D02*
X3542D01*
Y4528D01*
X3458D02*
X3542D01*
X3458Y4372D02*
Y4528D01*
X4333Y1902D02*
X4417D01*
X4333Y1748D02*
Y1902D01*
Y1748D02*
X4417D01*
Y1902D01*
X3052Y4452D02*
X3148Y4548D01*
X3052Y4452D02*
X3201Y4304D01*
X3296Y4399D01*
X3148Y4548D02*
X3296Y4399D01*
X2904Y3501D02*
X2999Y3596D01*
X2904Y3501D02*
X3052Y3352D01*
X3148Y3448D01*
X2999Y3596D02*
X3148Y3448D01*
X1328Y2273D02*
X1423Y2178D01*
X1572Y2327D01*
X1477Y2422D02*
X1572Y2327D01*
X1328Y2273D02*
X1477Y2422D01*
X4078Y327D02*
X4173Y422D01*
X4078Y327D02*
X4227Y178D01*
X4322Y273D01*
X4173Y422D02*
X4322Y273D01*
X2708Y3272D02*
X2792D01*
Y3428D01*
X2708D02*
X2792D01*
X2708Y3272D02*
Y3428D01*
X1781Y2038D02*
X1866D01*
Y2193D01*
X1781D02*
X1866D01*
X1781Y2038D02*
Y2193D01*
X3672Y308D02*
Y392D01*
Y308D02*
X3828D01*
Y392D01*
X3672D02*
X3828D01*
%TF.MD5,948ed2076fd074a265b3a96f580fec68*%
M02*
