G04*
G04 #@! TF.GenerationSoftware,Altium Limited,Altium Designer,23.1.1 (15)*
G04*
G04 Layer_Color=2752767*
%FSLAX25Y25*%
%MOIN*%
G70*
G04*
G04 #@! TF.SameCoordinates,E066B419-5711-4A73-A0CA-953248983CDD*
G04*
G04*
G04 #@! TF.FilePolarity,Positive*
G04*
G01*
G75*
%ADD31C,0.00500*%
%ADD33C,0.00667*%
D31*
X290669Y192386D02*
X288669Y196386D01*
X292669D01*
X290669Y192386D01*
Y195386D02*
X288669Y199386D01*
X292669D01*
X290669Y195386D01*
Y198386D02*
X288669Y202386D01*
X292669D01*
X290669Y198386D01*
Y201386D02*
X288669Y205386D01*
X292669D01*
X290669Y201386D01*
X297669D02*
X295669Y205386D01*
X299669D01*
X297669Y201386D01*
Y195386D02*
X295669Y199386D01*
X299669D01*
X297669Y195386D01*
Y192386D02*
X295669Y196386D01*
X299669D01*
X297669Y192386D01*
Y198386D02*
X295669Y202386D01*
X299669D01*
X297669Y198386D01*
X297913Y400858D02*
X295913Y404858D01*
X299913D01*
X297913Y400858D01*
Y397858D02*
X295913Y401858D01*
X299913D01*
X297913Y397858D01*
Y394858D02*
X295913Y398858D01*
X299913D01*
X297913Y394858D01*
Y391858D02*
X295913Y395858D01*
X299913D01*
X297913Y391858D01*
X290913D02*
X288913Y395858D01*
X292913D01*
X290913Y391858D01*
Y397858D02*
X288913Y401858D01*
X292913D01*
X290913Y397858D01*
Y400858D02*
X288913Y404858D01*
X292913D01*
X290913Y400858D01*
Y394858D02*
X288913Y398858D01*
X292913D01*
X290913Y394858D01*
X453000Y288000D02*
X451000Y292000D01*
X455000D01*
X453000Y288000D01*
X450000D02*
X448000Y292000D01*
X452000D01*
X450000Y288000D01*
X447000D02*
X445000Y292000D01*
X449000D01*
X447000Y288000D01*
X444000D02*
X442000Y292000D01*
X446000D01*
X444000Y288000D01*
Y295000D02*
X442000Y299000D01*
X446000D01*
X444000Y295000D01*
X450000D02*
X448000Y299000D01*
X452000D01*
X450000Y295000D01*
X453000D02*
X451000Y299000D01*
X455000D01*
X453000Y295000D01*
X447000D02*
X445000Y299000D01*
X449000D01*
X447000Y295000D01*
X360000D02*
X358000Y299000D01*
X362000D01*
X360000Y295000D01*
X366000D02*
X364000Y299000D01*
X368000D01*
X366000Y295000D01*
X363000D02*
X361000Y299000D01*
X365000D01*
X363000Y295000D01*
X357000D02*
X355000Y299000D01*
X359000D01*
X357000Y295000D01*
Y288000D02*
X355000Y292000D01*
X359000D01*
X357000Y288000D01*
X360000D02*
X358000Y292000D01*
X362000D01*
X360000Y288000D01*
X363000D02*
X361000Y292000D01*
X365000D01*
X363000Y288000D01*
X366000D02*
X364000Y292000D01*
X368000D01*
X366000Y288000D01*
X235000Y295000D02*
X233000Y299000D01*
X237000D01*
X235000Y295000D01*
X238000D02*
X236000Y299000D01*
X240000D01*
X238000Y295000D01*
X241000D02*
X239000Y299000D01*
X243000D01*
X241000Y295000D01*
X244000D02*
X242000Y299000D01*
X246000D01*
X244000Y295000D01*
Y288000D02*
X242000Y292000D01*
X246000D01*
X244000Y288000D01*
X238000D02*
X236000Y292000D01*
X240000D01*
X238000Y288000D01*
X235000D02*
X233000Y292000D01*
X237000D01*
X235000Y288000D01*
X241000D02*
X239000Y292000D01*
X243000D01*
X241000Y288000D01*
X154000D02*
X152000Y292000D01*
X156000D01*
X154000Y288000D01*
X148000D02*
X146000Y292000D01*
X150000D01*
X148000Y288000D01*
X151000D02*
X149000Y292000D01*
X153000D01*
X151000Y288000D01*
X157000D02*
X155000Y292000D01*
X159000D01*
X157000Y288000D01*
Y295000D02*
X155000Y299000D01*
X159000D01*
X157000Y295000D01*
X154000D02*
X152000Y299000D01*
X156000D01*
X154000Y295000D01*
X151000D02*
X149000Y299000D01*
X153000D01*
X151000Y295000D01*
X148000D02*
X146000Y299000D01*
X150000D01*
X148000Y295000D01*
X133433Y121622D02*
Y125622D01*
X137433D01*
Y121622D01*
X133433D01*
X126325Y112189D02*
Y116189D01*
X130325D01*
Y112189D01*
X126325D01*
X188583Y212961D02*
X189583Y213961D01*
X190583D01*
X189583Y214961D01*
X190583Y215961D01*
X189583D01*
X188583Y216961D01*
X187583Y215961D01*
X186583D01*
X187583Y214961D01*
X186583Y213961D01*
X187583D01*
X188583Y212961D01*
X229416Y247496D02*
X227416Y251496D01*
X231416D01*
X229416Y247496D01*
X227616Y249896D02*
X225616Y253896D01*
X229616D01*
X227616Y249896D01*
X225716Y252196D02*
X223716Y256196D01*
X227716D01*
X225716Y252196D01*
X224016Y254496D02*
X222016Y258496D01*
X226016D01*
X224016Y254496D01*
X222316Y256796D02*
X220316Y260796D01*
X224316D01*
X222316Y256796D01*
X172129Y252538D02*
X170129Y256538D01*
X174129D01*
X172129Y252538D01*
X170329Y250238D02*
X168329Y254238D01*
X172329D01*
X170329Y250238D01*
X168629Y247938D02*
X166629Y251938D01*
X170629D01*
X168629Y247938D01*
X166929Y245638D02*
X164929Y249638D01*
X168929D01*
X166929Y245638D01*
X165029Y243438D02*
X163029Y247438D01*
X167029D01*
X165029Y243438D01*
X211221Y165913D02*
X212221Y166913D01*
X213221D01*
X212221Y167913D01*
X213221Y168913D01*
X212221D01*
X211221Y169913D01*
X210221Y168913D01*
X209221D01*
X210221Y167913D01*
X209221Y166913D01*
X210221D01*
X211221Y165913D01*
Y211189D02*
X212221Y212189D01*
X213221D01*
X212221Y213189D01*
X213221Y214189D01*
X212221D01*
X211221Y215189D01*
X210221Y214189D01*
X209221D01*
X210221Y213189D01*
X209221Y212189D01*
X210221D01*
X211221Y211189D01*
X177756Y165913D02*
X178756Y166913D01*
X179756D01*
X178756Y167913D01*
X179756Y168913D01*
X178756D01*
X177756Y169913D01*
X176756Y168913D01*
X175756D01*
X176756Y167913D01*
X175756Y166913D01*
X176756D01*
X177756Y165913D01*
Y210205D02*
X178756Y211205D01*
X179756D01*
X178756Y212205D01*
X179756Y213205D01*
X178756D01*
X177756Y214205D01*
X176756Y213205D01*
X175756D01*
X176756Y212205D01*
X175756Y211205D01*
X176756D01*
X177756Y210205D01*
X123622Y242685D02*
X124622Y243685D01*
X125622D01*
X124622Y244685D01*
X125622Y245685D01*
X124622D01*
X123622Y246685D01*
X122622Y245685D01*
X121622D01*
X122622Y244685D01*
X121622Y243685D01*
X122622D01*
X123622Y242685D01*
X106890Y169850D02*
X107890Y170850D01*
X108890D01*
X107890Y171850D01*
X108890Y172850D01*
X107890D01*
X106890Y173850D01*
X105890Y172850D01*
X104890D01*
X105890Y171850D01*
X104890Y170850D01*
X105890D01*
X106890Y169850D01*
X283071Y148197D02*
X284071Y149197D01*
X285071D01*
X284071Y150197D01*
X285071Y151197D01*
X284071D01*
X283071Y152197D01*
X282071Y151197D01*
X281071D01*
X282071Y150197D01*
X281071Y149197D01*
X282071D01*
X283071Y148197D01*
X281102Y223000D02*
X282102Y224000D01*
X283102D01*
X282102Y225000D01*
X283102Y226000D01*
X282102D01*
X281102Y227000D01*
X280102Y226000D01*
X279102D01*
X280102Y225000D01*
X279102Y224000D01*
X280102D01*
X281102Y223000D01*
X216916Y251785D02*
X214916Y255785D01*
X218916D01*
X216916Y251785D01*
X218716Y249485D02*
X216716Y253485D01*
X220716D01*
X218716Y249485D01*
X220416Y247185D02*
X218416Y251185D01*
X222416D01*
X220416Y247185D01*
X222116Y244885D02*
X220116Y248885D01*
X224116D01*
X222116Y244885D01*
X224016Y242685D02*
X222016Y246685D01*
X226016D01*
X224016Y242685D01*
X159829Y247165D02*
X157829Y251165D01*
X161829D01*
X159829Y247165D01*
X161629Y249565D02*
X159629Y253565D01*
X163629D01*
X161629Y249565D01*
X163529Y251865D02*
X161529Y255865D01*
X165529D01*
X163529Y251865D01*
X165229Y254165D02*
X163229Y258165D01*
X167229D01*
X165229Y254165D01*
X166929Y256465D02*
X164929Y260465D01*
X168929D01*
X166929Y256465D01*
X332252Y121622D02*
Y125622D01*
X336252D01*
Y121622D01*
X332252D01*
X325144Y112189D02*
Y116189D01*
X329144D01*
Y112189D01*
X325144D01*
X387402Y212961D02*
X388402Y213961D01*
X389402D01*
X388402Y214961D01*
X389402Y215961D01*
X388402D01*
X387402Y216961D01*
X386402Y215961D01*
X385402D01*
X386402Y214961D01*
X385402Y213961D01*
X386402D01*
X387402Y212961D01*
X428235Y247496D02*
X426235Y251496D01*
X430235D01*
X428235Y247496D01*
X426435Y249896D02*
X424435Y253896D01*
X428435D01*
X426435Y249896D01*
X424535Y252196D02*
X422535Y256196D01*
X426535D01*
X424535Y252196D01*
X422835Y254496D02*
X420835Y258496D01*
X424835D01*
X422835Y254496D01*
X421135Y256796D02*
X419135Y260796D01*
X423135D01*
X421135Y256796D01*
X370948Y252538D02*
X368948Y256538D01*
X372948D01*
X370948Y252538D01*
X369148Y250238D02*
X367148Y254238D01*
X371148D01*
X369148Y250238D01*
X367448Y247938D02*
X365448Y251938D01*
X369448D01*
X367448Y247938D01*
X365748Y245638D02*
X363748Y249638D01*
X367748D01*
X365748Y245638D01*
X363848Y243438D02*
X361848Y247438D01*
X365848D01*
X363848Y243438D01*
X410039Y165913D02*
X411039Y166913D01*
X412039D01*
X411039Y167913D01*
X412039Y168913D01*
X411039D01*
X410039Y169913D01*
X409039Y168913D01*
X408039D01*
X409039Y167913D01*
X408039Y166913D01*
X409039D01*
X410039Y165913D01*
Y211189D02*
X411039Y212189D01*
X412039D01*
X411039Y213189D01*
X412039Y214189D01*
X411039D01*
X410039Y215189D01*
X409039Y214189D01*
X408039D01*
X409039Y213189D01*
X408039Y212189D01*
X409039D01*
X410039Y211189D01*
X376575Y165913D02*
X377575Y166913D01*
X378575D01*
X377575Y167913D01*
X378575Y168913D01*
X377575D01*
X376575Y169913D01*
X375575Y168913D01*
X374575D01*
X375575Y167913D01*
X374575Y166913D01*
X375575D01*
X376575Y165913D01*
Y210205D02*
X377575Y211205D01*
X378575D01*
X377575Y212205D01*
X378575Y213205D01*
X377575D01*
X376575Y214205D01*
X375575Y213205D01*
X374575D01*
X375575Y212205D01*
X374575Y211205D01*
X375575D01*
X376575Y210205D01*
X322441Y242685D02*
X323441Y243685D01*
X324441D01*
X323441Y244685D01*
X324441Y245685D01*
X323441D01*
X322441Y246685D01*
X321441Y245685D01*
X320441D01*
X321441Y244685D01*
X320441Y243685D01*
X321441D01*
X322441Y242685D01*
X305709Y169850D02*
X306709Y170850D01*
X307709D01*
X306709Y171850D01*
X307709Y172850D01*
X306709D01*
X305709Y173850D01*
X304709Y172850D01*
X303709D01*
X304709Y171850D01*
X303709Y170850D01*
X304709D01*
X305709Y169850D01*
X481890Y148197D02*
X482890Y149197D01*
X483890D01*
X482890Y150197D01*
X483890Y151197D01*
X482890D01*
X481890Y152197D01*
X480890Y151197D01*
X479890D01*
X480890Y150197D01*
X479890Y149197D01*
X480890D01*
X481890Y148197D01*
X479921Y223000D02*
X480921Y224000D01*
X481921D01*
X480921Y225000D01*
X481921Y226000D01*
X480921D01*
X479921Y227000D01*
X478921Y226000D01*
X477921D01*
X478921Y225000D01*
X477921Y224000D01*
X478921D01*
X479921Y223000D01*
X415735Y251785D02*
X413735Y255785D01*
X417735D01*
X415735Y251785D01*
X417535Y249485D02*
X415535Y253485D01*
X419535D01*
X417535Y249485D01*
X419235Y247185D02*
X417235Y251185D01*
X421235D01*
X419235Y247185D01*
X420935Y244885D02*
X418935Y248885D01*
X422935D01*
X420935Y244885D01*
X422835Y242685D02*
X420835Y246685D01*
X424835D01*
X422835Y242685D01*
X358648Y247165D02*
X356648Y251165D01*
X360648D01*
X358648Y247165D01*
X360448Y249565D02*
X358448Y253565D01*
X362448D01*
X360448Y249565D01*
X362348Y251865D02*
X360348Y255865D01*
X364348D01*
X362348Y251865D01*
X364048Y254165D02*
X362048Y258165D01*
X366048D01*
X364048Y254165D01*
X365748Y256465D02*
X363748Y260465D01*
X367748D01*
X365748Y256465D01*
X133433Y320441D02*
Y324441D01*
X137433D01*
Y320441D01*
X133433D01*
X126325Y311008D02*
Y315008D01*
X130325D01*
Y311008D01*
X126325D01*
X188583Y411779D02*
X189583Y412780D01*
X190583D01*
X189583Y413779D01*
X190583Y414780D01*
X189583D01*
X188583Y415779D01*
X187583Y414780D01*
X186583D01*
X187583Y413779D01*
X186583Y412780D01*
X187583D01*
X188583Y411779D01*
X229416Y446315D02*
X227416Y450315D01*
X231416D01*
X229416Y446315D01*
X227616Y448715D02*
X225616Y452715D01*
X229616D01*
X227616Y448715D01*
X225716Y451015D02*
X223716Y455015D01*
X227716D01*
X225716Y451015D01*
X224016Y453315D02*
X222016Y457315D01*
X226016D01*
X224016Y453315D01*
X222316Y455615D02*
X220316Y459615D01*
X224316D01*
X222316Y455615D01*
X172129Y451357D02*
X170129Y455357D01*
X174129D01*
X172129Y451357D01*
X170329Y449057D02*
X168329Y453057D01*
X172329D01*
X170329Y449057D01*
X168629Y446757D02*
X166629Y450757D01*
X170629D01*
X168629Y446757D01*
X166929Y444457D02*
X164929Y448457D01*
X168929D01*
X166929Y444457D01*
X165029Y442257D02*
X163029Y446257D01*
X167029D01*
X165029Y442257D01*
X211221Y364732D02*
X212221Y365732D01*
X213221D01*
X212221Y366732D01*
X213221Y367732D01*
X212221D01*
X211221Y368732D01*
X210221Y367732D01*
X209221D01*
X210221Y366732D01*
X209221Y365732D01*
X210221D01*
X211221Y364732D01*
Y410008D02*
X212221Y411008D01*
X213221D01*
X212221Y412008D01*
X213221Y413008D01*
X212221D01*
X211221Y414008D01*
X210221Y413008D01*
X209221D01*
X210221Y412008D01*
X209221Y411008D01*
X210221D01*
X211221Y410008D01*
X177756Y364732D02*
X178756Y365732D01*
X179756D01*
X178756Y366732D01*
X179756Y367732D01*
X178756D01*
X177756Y368732D01*
X176756Y367732D01*
X175756D01*
X176756Y366732D01*
X175756Y365732D01*
X176756D01*
X177756Y364732D01*
Y409024D02*
X178756Y410024D01*
X179756D01*
X178756Y411024D01*
X179756Y412024D01*
X178756D01*
X177756Y413024D01*
X176756Y412024D01*
X175756D01*
X176756Y411024D01*
X175756Y410024D01*
X176756D01*
X177756Y409024D01*
X123622Y441504D02*
X124622Y442504D01*
X125622D01*
X124622Y443504D01*
X125622Y444504D01*
X124622D01*
X123622Y445504D01*
X122622Y444504D01*
X121622D01*
X122622Y443504D01*
X121622Y442504D01*
X122622D01*
X123622Y441504D01*
X106890Y368669D02*
X107890Y369669D01*
X108890D01*
X107890Y370669D01*
X108890Y371669D01*
X107890D01*
X106890Y372669D01*
X105890Y371669D01*
X104890D01*
X105890Y370669D01*
X104890Y369669D01*
X105890D01*
X106890Y368669D01*
X283071Y347016D02*
X284071Y348016D01*
X285071D01*
X284071Y349016D01*
X285071Y350016D01*
X284071D01*
X283071Y351016D01*
X282071Y350016D01*
X281071D01*
X282071Y349016D01*
X281071Y348016D01*
X282071D01*
X283071Y347016D01*
X281102Y421819D02*
X282102Y422819D01*
X283102D01*
X282102Y423819D01*
X283102Y424819D01*
X282102D01*
X281102Y425819D01*
X280102Y424819D01*
X279102D01*
X280102Y423819D01*
X279102Y422819D01*
X280102D01*
X281102Y421819D01*
X216916Y450604D02*
X214916Y454604D01*
X218916D01*
X216916Y450604D01*
X218716Y448304D02*
X216716Y452304D01*
X220716D01*
X218716Y448304D01*
X220416Y446004D02*
X218416Y450004D01*
X222416D01*
X220416Y446004D01*
X222116Y443704D02*
X220116Y447704D01*
X224116D01*
X222116Y443704D01*
X224016Y441504D02*
X222016Y445504D01*
X226016D01*
X224016Y441504D01*
X159829Y445984D02*
X157829Y449984D01*
X161829D01*
X159829Y445984D01*
X161629Y448384D02*
X159629Y452384D01*
X163629D01*
X161629Y448384D01*
X163529Y450683D02*
X161529Y454683D01*
X165529D01*
X163529Y450683D01*
X165229Y452984D02*
X163229Y456984D01*
X167229D01*
X165229Y452984D01*
X166929Y455283D02*
X164929Y459283D01*
X168929D01*
X166929Y455283D01*
X332252Y320441D02*
Y324441D01*
X336252D01*
Y320441D01*
X332252D01*
X325144Y311008D02*
Y315008D01*
X329144D01*
Y311008D01*
X325144D01*
X387402Y411779D02*
X388402Y412780D01*
X389402D01*
X388402Y413779D01*
X389402Y414780D01*
X388402D01*
X387402Y415779D01*
X386402Y414780D01*
X385402D01*
X386402Y413779D01*
X385402Y412780D01*
X386402D01*
X387402Y411779D01*
X428235Y446315D02*
X426235Y450315D01*
X430235D01*
X428235Y446315D01*
X426435Y448715D02*
X424435Y452715D01*
X428435D01*
X426435Y448715D01*
X424535Y451015D02*
X422535Y455015D01*
X426535D01*
X424535Y451015D01*
X422835Y453315D02*
X420835Y457315D01*
X424835D01*
X422835Y453315D01*
X421135Y455615D02*
X419135Y459615D01*
X423135D01*
X421135Y455615D01*
X370948Y451357D02*
X368948Y455357D01*
X372948D01*
X370948Y451357D01*
X369148Y449057D02*
X367148Y453057D01*
X371148D01*
X369148Y449057D01*
X367448Y446757D02*
X365448Y450757D01*
X369448D01*
X367448Y446757D01*
X365748Y444457D02*
X363748Y448457D01*
X367748D01*
X365748Y444457D01*
X363848Y442257D02*
X361848Y446257D01*
X365848D01*
X363848Y442257D01*
X410039Y364732D02*
X411039Y365732D01*
X412039D01*
X411039Y366732D01*
X412039Y367732D01*
X411039D01*
X410039Y368732D01*
X409039Y367732D01*
X408039D01*
X409039Y366732D01*
X408039Y365732D01*
X409039D01*
X410039Y364732D01*
Y410008D02*
X411039Y411008D01*
X412039D01*
X411039Y412008D01*
X412039Y413008D01*
X411039D01*
X410039Y414008D01*
X409039Y413008D01*
X408039D01*
X409039Y412008D01*
X408039Y411008D01*
X409039D01*
X410039Y410008D01*
X376575Y364732D02*
X377575Y365732D01*
X378575D01*
X377575Y366732D01*
X378575Y367732D01*
X377575D01*
X376575Y368732D01*
X375575Y367732D01*
X374575D01*
X375575Y366732D01*
X374575Y365732D01*
X375575D01*
X376575Y364732D01*
Y409024D02*
X377575Y410024D01*
X378575D01*
X377575Y411024D01*
X378575Y412024D01*
X377575D01*
X376575Y413024D01*
X375575Y412024D01*
X374575D01*
X375575Y411024D01*
X374575Y410024D01*
X375575D01*
X376575Y409024D01*
X322441Y441504D02*
X323441Y442504D01*
X324441D01*
X323441Y443504D01*
X324441Y444504D01*
X323441D01*
X322441Y445504D01*
X321441Y444504D01*
X320441D01*
X321441Y443504D01*
X320441Y442504D01*
X321441D01*
X322441Y441504D01*
X305709Y368669D02*
X306709Y369669D01*
X307709D01*
X306709Y370669D01*
X307709Y371669D01*
X306709D01*
X305709Y372669D01*
X304709Y371669D01*
X303709D01*
X304709Y370669D01*
X303709Y369669D01*
X304709D01*
X305709Y368669D01*
X481890Y347016D02*
X482890Y348016D01*
X483890D01*
X482890Y349016D01*
X483890Y350016D01*
X482890D01*
X481890Y351016D01*
X480890Y350016D01*
X479890D01*
X480890Y349016D01*
X479890Y348016D01*
X480890D01*
X481890Y347016D01*
X479921Y421819D02*
X480921Y422819D01*
X481921D01*
X480921Y423819D01*
X481921Y424819D01*
X480921D01*
X479921Y425819D01*
X478921Y424819D01*
X477921D01*
X478921Y423819D01*
X477921Y422819D01*
X478921D01*
X479921Y421819D01*
X415735Y450604D02*
X413735Y454604D01*
X417735D01*
X415735Y450604D01*
X417535Y448304D02*
X415535Y452304D01*
X419535D01*
X417535Y448304D01*
X419235Y446004D02*
X417235Y450004D01*
X421235D01*
X419235Y446004D01*
X420935Y443704D02*
X418935Y447704D01*
X422935D01*
X420935Y443704D01*
X422835Y441504D02*
X420835Y445504D01*
X424835D01*
X422835Y441504D01*
X358648Y445984D02*
X356648Y449984D01*
X360648D01*
X358648Y445984D01*
X360448Y448384D02*
X358448Y452384D01*
X362448D01*
X360448Y448384D01*
X362348Y450683D02*
X360348Y454683D01*
X364348D01*
X362348Y450683D01*
X364048Y452984D02*
X362048Y456984D01*
X366048D01*
X364048Y452984D01*
X365748Y455283D02*
X363748Y459283D01*
X367748D01*
X365748Y455283D01*
D33*
X170484Y123622D02*
G03*
X170484Y123622I-2000J0D01*
G01*
X222492D02*
G03*
X222492Y123622I-2000J0D01*
G01*
X369303D02*
G03*
X369303Y123622I-2000J0D01*
G01*
X421311D02*
G03*
X421311Y123622I-2000J0D01*
G01*
X170484Y322441D02*
G03*
X170484Y322441I-2000J0D01*
G01*
X222492D02*
G03*
X222492Y322441I-2000J0D01*
G01*
X369303D02*
G03*
X369303Y322441I-2000J0D01*
G01*
X421311D02*
G03*
X421311Y322441I-2000J0D01*
G01*
M02*
