G04*
G04 #@! TF.GenerationSoftware,Altium Limited,Altium Designer,23.1.1 (15)*
G04*
G04 Layer_Color=128*
%FSLAX25Y25*%
%MOIN*%
G70*
G04*
G04 #@! TF.SameCoordinates,E066B419-5711-4A73-A0CA-953248983CDD*
G04*
G04*
G04 #@! TF.FilePolarity,Positive*
G04*
G01*
G75*
%ADD13R,0.03788X0.03681*%
%ADD14R,0.07874X0.15748*%
%ADD15P,0.06681X4X360.0*%
%ADD16P,0.06681X4X90.0*%
%ADD17R,0.03681X0.03788*%
D13*
X109843Y155118D02*
D03*
Y149485D02*
D03*
X218110Y201242D02*
D03*
Y195609D02*
D03*
X178740Y227105D02*
D03*
Y232738D02*
D03*
X308661Y155118D02*
D03*
Y149485D02*
D03*
X416929Y201242D02*
D03*
Y195609D02*
D03*
X377559Y227105D02*
D03*
Y232738D02*
D03*
X109843Y353937D02*
D03*
Y348304D02*
D03*
X218110Y400061D02*
D03*
Y394428D02*
D03*
X178740Y425924D02*
D03*
Y431557D02*
D03*
X308661Y353937D02*
D03*
Y348304D02*
D03*
X416929Y400061D02*
D03*
Y394428D02*
D03*
X377559Y425924D02*
D03*
Y431557D02*
D03*
D14*
X105905Y210551D02*
D03*
Y190551D02*
D03*
X283071Y208583D02*
D03*
Y188583D02*
D03*
X188583Y180394D02*
D03*
Y200394D02*
D03*
X200394Y180709D02*
D03*
Y200709D02*
D03*
X304724Y210551D02*
D03*
Y190551D02*
D03*
X481890Y208583D02*
D03*
Y188583D02*
D03*
X387402Y180394D02*
D03*
Y200394D02*
D03*
X399213Y180709D02*
D03*
Y200709D02*
D03*
X105905Y409370D02*
D03*
Y389370D02*
D03*
X283071Y407402D02*
D03*
Y387402D02*
D03*
X188583Y379213D02*
D03*
Y399213D02*
D03*
X200394Y379528D02*
D03*
Y399528D02*
D03*
X304724Y409370D02*
D03*
Y389370D02*
D03*
X481890Y407402D02*
D03*
Y387402D02*
D03*
X387402Y379213D02*
D03*
Y399213D02*
D03*
X399213Y379528D02*
D03*
Y399528D02*
D03*
D15*
X252589Y209222D02*
D03*
X258435Y203376D02*
D03*
X228967Y193474D02*
D03*
X234813Y187628D02*
D03*
X451408Y209222D02*
D03*
X457254Y203376D02*
D03*
X427786Y193474D02*
D03*
X433632Y187628D02*
D03*
X252589Y408041D02*
D03*
X258435Y402195D02*
D03*
X228967Y392293D02*
D03*
X234813Y386447D02*
D03*
X451408Y408041D02*
D03*
X457254Y402195D02*
D03*
X427786Y392293D02*
D03*
X433632Y386447D02*
D03*
D16*
X143337Y133494D02*
D03*
X149183Y139340D02*
D03*
X109902Y135492D02*
D03*
X115748Y141339D02*
D03*
X166900Y273199D02*
D03*
X161053Y267353D02*
D03*
X167943Y234872D02*
D03*
X173789Y240718D02*
D03*
X342156Y133494D02*
D03*
X348002Y139340D02*
D03*
X308721Y135492D02*
D03*
X314567Y141339D02*
D03*
X365718Y273199D02*
D03*
X359872Y267353D02*
D03*
X366762Y234872D02*
D03*
X372608Y240718D02*
D03*
X143337Y332313D02*
D03*
X149183Y338159D02*
D03*
X109902Y334311D02*
D03*
X115748Y340158D02*
D03*
X166900Y472018D02*
D03*
X161053Y466171D02*
D03*
X167943Y433691D02*
D03*
X173789Y439537D02*
D03*
X342156Y332313D02*
D03*
X348002Y338159D02*
D03*
X308721Y334311D02*
D03*
X314567Y340158D02*
D03*
X365718Y472018D02*
D03*
X359872Y466171D02*
D03*
X366762Y433691D02*
D03*
X372608Y439537D02*
D03*
D17*
X160887Y150197D02*
D03*
X155254D02*
D03*
X148365Y278150D02*
D03*
X153998D02*
D03*
X268171Y216142D02*
D03*
X262538D02*
D03*
X359706Y150197D02*
D03*
X354073D02*
D03*
X347183Y278150D02*
D03*
X352817D02*
D03*
X466990Y216142D02*
D03*
X461357D02*
D03*
X160887Y349016D02*
D03*
X155254D02*
D03*
X148365Y476968D02*
D03*
X153998D02*
D03*
X268171Y414961D02*
D03*
X262538D02*
D03*
X359706Y349016D02*
D03*
X354073D02*
D03*
X347183Y476968D02*
D03*
X352817D02*
D03*
X466990Y414961D02*
D03*
X461357D02*
D03*
M02*
