G04*
G04 #@! TF.GenerationSoftware,Altium Limited,Altium Designer,23.1.1 (15)*
G04*
G04 Layer_Color=8388736*
%FSLAX25Y25*%
%MOIN*%
G70*
G04*
G04 #@! TF.SameCoordinates,F91F9CD3-C7A0-4A43-B12F-26B318A194AE*
G04*
G04*
G04 #@! TF.FilePolarity,Positive*
G04*
G01*
G75*
%ADD19C,0.00000*%
D19*
X128029Y105292D02*
X143904Y126359D01*
X115138Y115007D02*
X128029Y105292D01*
X115138Y115007D02*
X131012Y136073D01*
X143904Y126359D01*
X137461Y209133D02*
X141219Y205375D01*
X131615Y203287D02*
X137461Y209133D01*
X131615Y203287D02*
X135373Y199529D01*
X141219Y205375D01*
X259538Y159144D02*
X263296Y162903D01*
X259538Y159144D02*
X265384Y153298D01*
X269143Y157057D01*
X263296Y162903D02*
X269143Y157057D01*
X128839Y223130D02*
X132185D01*
X128839Y217028D02*
Y223130D01*
Y217028D02*
X132185D01*
Y223130D01*
X236122Y272146D02*
X239469D01*
Y278248D01*
X236122D02*
X239469D01*
X236122Y272146D02*
Y278248D01*
X270571Y174902D02*
X273917D01*
X270571Y168799D02*
Y174902D01*
Y168799D02*
X273917D01*
Y174902D01*
X220168Y275286D02*
X223926Y279045D01*
X220168Y275286D02*
X226014Y269440D01*
X229772Y273198D01*
X223926Y279045D02*
X229772Y273198D01*
X214322Y237825D02*
X218080Y241584D01*
X214322Y237825D02*
X220168Y231979D01*
X223926Y235737D01*
X218080Y241584D02*
X223926Y235737D01*
X152284Y189507D02*
X156043Y185749D01*
X161889Y191595D01*
X158131Y195353D02*
X161889Y191595D01*
X152284Y189507D02*
X158131Y195353D01*
X260552Y112855D02*
X264310Y116613D01*
X260552Y112855D02*
X266398Y107009D01*
X270157Y110767D01*
X264310Y116613D02*
X270157Y110767D01*
X206594Y228839D02*
X209941D01*
Y234941D01*
X206594D02*
X209941D01*
X206594Y228839D02*
Y234941D01*
X170118Y180246D02*
X173465D01*
Y186349D01*
X170118D02*
X173465D01*
X170118Y180246D02*
Y186349D01*
X244587Y112106D02*
Y115453D01*
Y112106D02*
X250689D01*
Y115453D01*
X244587D02*
X250689D01*
X326848Y105292D02*
X342723Y126359D01*
X313957Y115007D02*
X326848Y105292D01*
X313957Y115007D02*
X329831Y136073D01*
X342723Y126359D01*
X336280Y209133D02*
X340038Y205375D01*
X330434Y203287D02*
X336280Y209133D01*
X330434Y203287D02*
X334192Y199529D01*
X340038Y205375D01*
X458357Y159144D02*
X462115Y162903D01*
X458357Y159144D02*
X464203Y153298D01*
X467962Y157057D01*
X462115Y162903D02*
X467962Y157057D01*
X327658Y223130D02*
X331004D01*
X327658Y217028D02*
Y223130D01*
Y217028D02*
X331004D01*
Y223130D01*
X434941Y272146D02*
X438287D01*
Y278248D01*
X434941D02*
X438287D01*
X434941Y272146D02*
Y278248D01*
X469390Y174902D02*
X472736D01*
X469390Y168799D02*
Y174902D01*
Y168799D02*
X472736D01*
Y174902D01*
X418987Y275286D02*
X422745Y279045D01*
X418987Y275286D02*
X424833Y269440D01*
X428591Y273198D01*
X422745Y279045D02*
X428591Y273198D01*
X413141Y237825D02*
X416899Y241584D01*
X413141Y237825D02*
X418987Y231979D01*
X422745Y235737D01*
X416899Y241584D02*
X422745Y235737D01*
X351103Y189507D02*
X354861Y185749D01*
X360708Y191595D01*
X356949Y195353D02*
X360708Y191595D01*
X351103Y189507D02*
X356949Y195353D01*
X459371Y112855D02*
X463129Y116613D01*
X459371Y112855D02*
X465217Y107009D01*
X468975Y110767D01*
X463129Y116613D02*
X468975Y110767D01*
X405413Y228839D02*
X408760D01*
Y234941D01*
X405413D02*
X408760D01*
X405413Y228839D02*
Y234941D01*
X368937Y180246D02*
X372284D01*
Y186349D01*
X368937D02*
X372284D01*
X368937Y180246D02*
Y186349D01*
X443405Y112106D02*
Y115453D01*
Y112106D02*
X449508D01*
Y115453D01*
X443405D02*
X449508D01*
X128029Y304111D02*
X143904Y325178D01*
X115138Y313826D02*
X128029Y304111D01*
X115138Y313826D02*
X131012Y334892D01*
X143904Y325178D01*
X137461Y407952D02*
X141219Y404194D01*
X131615Y402106D02*
X137461Y407952D01*
X131615Y402106D02*
X135373Y398347D01*
X141219Y404194D01*
X259538Y357963D02*
X263296Y361722D01*
X259538Y357963D02*
X265384Y352117D01*
X269143Y355875D01*
X263296Y361722D02*
X269143Y355875D01*
X128839Y421949D02*
X132185D01*
X128839Y415846D02*
Y421949D01*
Y415846D02*
X132185D01*
Y421949D01*
X236122Y470965D02*
X239469D01*
Y477067D01*
X236122D02*
X239469D01*
X236122Y470965D02*
Y477067D01*
X270571Y373721D02*
X273917D01*
X270571Y367618D02*
Y373721D01*
Y367618D02*
X273917D01*
Y373721D01*
X220168Y474105D02*
X223926Y477863D01*
X220168Y474105D02*
X226014Y468259D01*
X229772Y472017D01*
X223926Y477863D02*
X229772Y472017D01*
X214322Y436644D02*
X218080Y440402D01*
X214322Y436644D02*
X220168Y430798D01*
X223926Y434556D01*
X218080Y440402D02*
X223926Y434556D01*
X152284Y388326D02*
X156043Y384568D01*
X161889Y390414D01*
X158131Y394172D02*
X161889Y390414D01*
X152284Y388326D02*
X158131Y394172D01*
X260552Y311674D02*
X264310Y315432D01*
X260552Y311674D02*
X266398Y305828D01*
X270157Y309586D01*
X264310Y315432D02*
X270157Y309586D01*
X206594Y427658D02*
X209941D01*
Y433760D01*
X206594D02*
X209941D01*
X206594Y427658D02*
Y433760D01*
X170118Y379065D02*
X173465D01*
Y385168D01*
X170118D02*
X173465D01*
X170118Y379065D02*
Y385168D01*
X244587Y310925D02*
Y314272D01*
Y310925D02*
X250689D01*
Y314272D01*
X244587D02*
X250689D01*
X326848Y304111D02*
X342723Y325178D01*
X313957Y313826D02*
X326848Y304111D01*
X313957Y313826D02*
X329831Y334892D01*
X342723Y325178D01*
X336280Y407952D02*
X340038Y404194D01*
X330434Y402106D02*
X336280Y407952D01*
X330434Y402106D02*
X334192Y398347D01*
X340038Y404194D01*
X458357Y357963D02*
X462115Y361722D01*
X458357Y357963D02*
X464203Y352117D01*
X467962Y355875D01*
X462115Y361722D02*
X467962Y355875D01*
X327658Y421949D02*
X331004D01*
X327658Y415846D02*
Y421949D01*
Y415846D02*
X331004D01*
Y421949D01*
X434941Y470965D02*
X438287D01*
Y477067D01*
X434941D02*
X438287D01*
X434941Y470965D02*
Y477067D01*
X469390Y373721D02*
X472736D01*
X469390Y367618D02*
Y373721D01*
Y367618D02*
X472736D01*
Y373721D01*
X418987Y474105D02*
X422745Y477863D01*
X418987Y474105D02*
X424833Y468259D01*
X428591Y472017D01*
X422745Y477863D02*
X428591Y472017D01*
X413141Y436644D02*
X416899Y440402D01*
X413141Y436644D02*
X418987Y430798D01*
X422745Y434556D01*
X416899Y440402D02*
X422745Y434556D01*
X351103Y388326D02*
X354861Y384568D01*
X360708Y390414D01*
X356949Y394172D02*
X360708Y390414D01*
X351103Y388326D02*
X356949Y394172D01*
X459371Y311674D02*
X463129Y315432D01*
X459371Y311674D02*
X465217Y305828D01*
X468975Y309586D01*
X463129Y315432D02*
X468975Y309586D01*
X405413Y427658D02*
X408760D01*
Y433760D01*
X405413D02*
X408760D01*
X405413Y427658D02*
Y433760D01*
X368937Y379065D02*
X372284D01*
Y385168D01*
X368937D02*
X372284D01*
X368937Y379065D02*
Y385168D01*
X443405Y310925D02*
Y314272D01*
Y310925D02*
X449508D01*
Y314272D01*
X443405D02*
X449508D01*
M02*
