G04*
G04 #@! TF.GenerationSoftware,Altium Limited,Altium Designer,23.1.1 (15)*
G04*
G04 Layer_Color=16711935*
%FSLAX25Y25*%
%MOIN*%
G70*
G04*
G04 #@! TF.SameCoordinates,F91F9CD3-C7A0-4A43-B12F-26B318A194AE*
G04*
G04*
G04 #@! TF.FilePolarity,Positive*
G04*
G01*
G75*
%ADD34C,0.00001*%
D34*
X229684Y447421D02*
X230866Y447058D01*
X231880Y446351D01*
X232254Y445858D01*
X232254Y445858D01*
X248947Y423906D01*
X249280Y423468D01*
X249681Y422443D01*
X249785Y421347D01*
X249585Y420265D02*
X249785Y421347D01*
X249096Y419279D02*
X249585Y420265D01*
X248356Y418465D02*
X249096Y419279D01*
X247421Y417885D02*
X248356Y418465D01*
X246362Y417583D02*
X247421Y417885D01*
X233486Y417583D02*
X246362D01*
X233486D02*
X260636Y376859D01*
X260932Y376414D01*
X261267Y375399D01*
X261318Y374331D01*
X261084Y373287D02*
X261318Y374331D01*
X260579Y372345D02*
X261084Y373287D01*
X259841Y371570D02*
X260579Y372345D01*
X258924Y371021D02*
X259841Y371570D01*
X257893Y370736D02*
X258924Y371021D01*
X241503Y370736D02*
X257893D01*
X241503D02*
X289299Y305870D01*
Y387858D01*
X289299Y388351D02*
X289299Y387858D01*
X289299Y388351D02*
X289491Y389317D01*
X289868Y390227D01*
X290415Y391046D01*
X291112Y391742D01*
X291931Y392289D01*
X292841Y392666D01*
X293807Y392858D01*
X294299Y392858D01*
X294299Y392858D01*
X294693D01*
X295466Y392705D01*
X296194Y392403D01*
X296849Y391965D01*
X297406Y391408D01*
X297844Y390753D01*
X298146Y390025D01*
X298299Y389252D01*
Y388858D02*
Y389252D01*
Y303929D02*
Y388858D01*
Y303929D02*
X346867Y369842D01*
X330477D02*
X346867D01*
X329446Y370127D02*
X330477Y369842D01*
X328529Y370677D02*
X329446Y370127D01*
X327791Y371451D02*
X328529Y370677D01*
X327287Y372394D02*
X327791Y371451D01*
X327052Y373437D02*
X327287Y372394D01*
X327052Y373437D02*
X327103Y374505D01*
X327438Y375521D01*
X327734Y375965D01*
X354884Y416689D01*
X342008D02*
X354884D01*
X340949Y416991D02*
X342008Y416689D01*
X340014Y417571D02*
X340949Y416991D01*
X339274Y418385D02*
X340014Y417571D01*
X338785Y419371D02*
X339274Y418385D01*
X338585Y420453D02*
X338785Y419371D01*
X338585Y420453D02*
X338689Y421549D01*
X339090Y422574D01*
X339423Y423012D01*
X356116Y444965D01*
Y444965D02*
Y444965D01*
Y444965D02*
X356490Y445457D01*
X357504Y446165D01*
X358686Y446527D01*
X359923Y446511D01*
X361094Y446116D01*
X362089Y445381D01*
X362810Y444376D01*
X363189Y443199D01*
Y442581D02*
Y443199D01*
Y442260D02*
Y442581D01*
X363085Y441627D02*
X363189Y442260D01*
X362880Y441019D02*
X363085Y441627D01*
X362580Y440452D02*
X362880Y441019D01*
X362386Y440197D02*
X362580Y440452D01*
X350500Y424567D02*
X362386Y440197D01*
X350500Y424567D02*
X362631D01*
X363392Y424415D01*
X364108Y424118D01*
X364754Y423687D01*
X365302Y423139D01*
X365733Y422494D01*
X366030Y421777D01*
X366181Y421016D01*
Y420628D02*
Y421016D01*
Y420338D02*
Y420628D01*
X366096Y419764D02*
X366181Y420338D01*
X365928Y419209D02*
X366096Y419764D01*
X365681Y418685D02*
X365928Y419209D01*
X365520Y418443D02*
X365681Y418685D01*
X338370Y377719D02*
X365520Y418443D01*
X338370Y377719D02*
X355049D01*
X355810Y377568D01*
X356527Y377271D01*
X357172Y376840D01*
X357720Y376291D01*
X358152Y375646D01*
X358448Y374930D01*
X358600Y374169D01*
Y373781D02*
Y374169D01*
Y373467D02*
Y373781D01*
X358501Y372848D02*
X358600Y373467D01*
X358305Y372252D02*
X358501Y372848D01*
X358017Y371695D02*
X358305Y372252D01*
X357831Y371443D02*
X358017Y371695D01*
X303715Y298000D02*
X357831Y371443D01*
X303715Y298000D02*
X314500D01*
X351000Y298000D01*
X351493Y298000D01*
X352459Y297808D01*
X353368Y297431D01*
X354187Y296884D01*
X354884Y296187D01*
X355431Y295368D01*
X355808Y294458D01*
X356000Y293493D01*
X356000Y293000D02*
X356000Y293493D01*
X356000Y292606D02*
Y293000D01*
X355846Y291833D02*
X356000Y292606D01*
X355545Y291105D02*
X355846Y291833D01*
X355107Y290450D02*
X355545Y291105D01*
X354550Y289893D02*
X355107Y290450D01*
X353895Y289455D02*
X354550Y289893D01*
X353167Y289154D02*
X353895Y289455D01*
X352394Y289000D02*
X353167Y289154D01*
X314500Y289000D02*
X352394D01*
X314500Y230000D02*
Y289000D01*
X298669Y230000D02*
X314500D01*
X298669Y209386D02*
X298669Y230000D01*
X298669Y209386D02*
X298669Y208893D01*
X298477Y207927D02*
X298669Y208893D01*
X298100Y207017D02*
X298477Y207927D01*
X297553Y206199D02*
X298100Y207017D01*
X296857Y205502D02*
X297553Y206199D01*
X296038Y204955D02*
X296857Y205502D01*
X295128Y204578D02*
X296038Y204955D01*
X294162Y204386D02*
X295128Y204578D01*
X293669Y204386D02*
X294162Y204386D01*
X293275Y204386D02*
X293669D01*
X292502Y204539D02*
X293275Y204386D01*
X291775Y204841D02*
X292502Y204539D01*
X291119Y205279D02*
X291775Y204841D01*
X290562Y205836D02*
X291119Y205279D01*
X290125Y206491D02*
X290562Y205836D01*
X289823Y207219D02*
X290125Y206491D01*
X289669Y207992D02*
X289823Y207219D01*
X289669Y207992D02*
Y208386D01*
Y250386D01*
X289700D01*
Y289000D01*
X250000D02*
X289700D01*
X249507Y289000D02*
X250000Y289000D01*
X248541Y289192D02*
X249507Y289000D01*
X247632Y289569D02*
X248541Y289192D01*
X246813Y290116D02*
X247632Y289569D01*
X246116Y290813D02*
X246813Y290116D01*
X245569Y291632D02*
X246116Y290813D01*
X245192Y292542D02*
X245569Y291632D01*
X245000Y293508D02*
X245192Y292542D01*
X245000Y293508D02*
X245000Y294000D01*
Y294394D01*
X245154Y295167D01*
X245455Y295895D01*
X245893Y296550D01*
X246450Y297107D01*
X247105Y297545D01*
X247833Y297846D01*
X248606Y298000D01*
X285314D01*
X230539Y372336D02*
X285314Y298000D01*
X230353Y372589D02*
X230539Y372336D01*
X230065Y373146D02*
X230353Y372589D01*
X229870Y373742D02*
X230065Y373146D01*
X229770Y374361D02*
X229870Y373742D01*
X229770Y374361D02*
Y374675D01*
Y375062D01*
X229922Y375823D01*
X230219Y376540D01*
X230650Y377185D01*
X231198Y377734D01*
X231843Y378165D01*
X232560Y378462D01*
X233321Y378613D01*
X249999D01*
X222850Y419337D02*
X249999Y378613D01*
X222689Y419578D02*
X222850Y419337D01*
X222442Y420103D02*
X222689Y419578D01*
X222274Y420658D02*
X222442Y420103D01*
X222189Y421232D02*
X222274Y420658D01*
X222189Y421232D02*
Y421522D01*
Y421910D01*
X222340Y422671D01*
X222637Y423387D01*
X223068Y424032D01*
X223617Y424581D01*
X224262Y425012D01*
X224978Y425309D01*
X225739Y425460D01*
X237870D01*
X225984Y441090D02*
X237870Y425460D01*
X225790Y441346D02*
X225984Y441090D01*
X225489Y441913D02*
X225790Y441346D01*
X225285Y442521D02*
X225489Y441913D01*
X225181Y443154D02*
X225285Y442521D01*
X225181Y443154D02*
Y443474D01*
Y444093D01*
X225560Y445270D01*
X226281Y446274D01*
X227276Y447009D01*
X228447Y447404D01*
X229684Y447421D01*
X193000Y298000D02*
X229000Y298000D01*
X229492Y298000D01*
X230458Y297808D01*
X231368Y297431D01*
X232187Y296884D01*
X232884Y296187D01*
X233431Y295368D01*
X233808Y294458D01*
X234000Y293492D01*
X234000Y293000D02*
X234000Y293492D01*
X234000Y293000D02*
X234000Y293000D01*
Y292606D02*
Y293000D01*
X233846Y291833D02*
X234000Y292606D01*
X233545Y291105D02*
X233846Y291833D01*
X233107Y290450D02*
X233545Y291105D01*
X232550Y289893D02*
X233107Y290450D01*
X231895Y289455D02*
X232550Y289893D01*
X231167Y289154D02*
X231895Y289455D01*
X230394Y289000D02*
X231167Y289154D01*
X200189Y289000D02*
X230394D01*
X200189D02*
X219979Y263122D01*
X219979Y263122D02*
X219979Y263122D01*
X219979Y263122D02*
X220175Y262866D01*
X220478Y262297D01*
X220684Y261687D01*
X220789Y261051D01*
Y260729D02*
Y261051D01*
Y260111D02*
Y260729D01*
X220411Y258935D02*
X220789Y260111D01*
X219691Y257932D02*
X220411Y258935D01*
X218698Y257197D02*
X219691Y257932D01*
X217528Y256801D02*
X218698Y257197D01*
X216293Y256782D02*
X217528Y256801D01*
X215111Y257142D02*
X216293Y256782D01*
X214097Y257846D02*
X215111Y257142D01*
X213722Y258337D02*
X214097Y257846D01*
X194500Y283473D02*
X213722Y258337D01*
X175278D02*
X194500Y283473D01*
X175278Y258337D02*
X175278D01*
X174963Y257925D02*
X175278Y258337D01*
X174142Y257292D02*
X174963Y257925D01*
X173184Y256894D02*
X174142Y257292D01*
X172156Y256757D02*
X173184Y256894D01*
X171128Y256890D02*
X172156Y256757D01*
X170169Y257285D02*
X171128Y256890D01*
X169345Y257915D02*
X170169Y257285D01*
X168713Y258737D02*
X169345Y257915D01*
X168314Y259695D02*
X168713Y258737D01*
X168177Y260722D02*
X168314Y259695D01*
X168177Y260722D02*
X168311Y261751D01*
X168706Y262710D01*
X169021Y263122D01*
X188811Y289000D01*
X163000Y289000D02*
X188811Y289000D01*
X162507D02*
X163000Y289000D01*
X161542Y289192D02*
X162507Y289000D01*
X160632Y289569D02*
X161542Y289192D01*
X159813Y290116D02*
X160632Y289569D01*
X159116Y290813D02*
X159813Y290116D01*
X158569Y291632D02*
X159116Y290813D01*
X158192Y292542D02*
X158569Y291632D01*
X158000Y293508D02*
X158192Y292542D01*
X158000Y293508D02*
X158000Y294000D01*
X158000Y294394D02*
X158000Y294000D01*
X158000Y294394D02*
X158154Y295167D01*
X158455Y295895D01*
X158893Y296550D01*
X159450Y297107D01*
X160105Y297545D01*
X160833Y297846D01*
X161606Y298000D01*
X193000D01*
X410000D02*
X438000Y298000D01*
X438492Y298000D01*
X439458Y297808D01*
X440368Y297431D01*
X441187Y296884D01*
X441884Y296187D01*
X442431Y295368D01*
X442808Y294458D01*
X443000Y293493D01*
X443000Y293000D02*
X443000Y293493D01*
X443000Y293000D02*
X443000Y293000D01*
Y292606D02*
Y293000D01*
X442846Y291833D02*
X443000Y292606D01*
X442545Y291105D02*
X442846Y291833D01*
X442107Y290450D02*
X442545Y291105D01*
X441550Y289893D02*
X442107Y290450D01*
X440895Y289455D02*
X441550Y289893D01*
X440167Y289154D02*
X440895Y289455D01*
X439394Y289000D02*
X440167Y289154D01*
X408000Y289000D02*
X439394D01*
X398807D02*
X408000D01*
X398807D02*
X418979Y262621D01*
X418979Y262621D02*
X418979Y262621D01*
X418979Y262621D02*
X419174Y262366D01*
X419478Y261797D01*
X419684Y261187D01*
X419789Y260551D01*
Y260229D02*
Y260551D01*
Y259612D02*
Y260229D01*
X419411Y258436D02*
X419789Y259612D01*
X418691Y257432D02*
X419411Y258436D01*
X417698Y256697D02*
X418691Y257432D01*
X416528Y256300D02*
X417698Y256697D01*
X415293Y256282D02*
X416528Y256300D01*
X414112Y256642D02*
X415293Y256282D01*
X413097Y257346D02*
X414112Y256642D01*
X412722Y257837D02*
X413097Y257346D01*
X393500Y282973D02*
X412722Y257837D01*
X374278D02*
X393500Y282973D01*
X374278Y257837D02*
X374278D01*
X373963Y257425D02*
X374278Y257837D01*
X373142Y256792D02*
X373963Y257425D01*
X372184Y256394D02*
X373142Y256792D01*
X371156Y256257D02*
X372184Y256394D01*
X370128Y256390D02*
X371156Y256257D01*
X369169Y256785D02*
X370128Y256390D01*
X368345Y257416D02*
X369169Y256785D01*
X367713Y258237D02*
X368345Y257416D01*
X367314Y259195D02*
X367713Y258237D01*
X367177Y260223D02*
X367314Y259195D01*
X367177Y260223D02*
X367311Y261251D01*
X367706Y262210D01*
X368021Y262621D01*
X388193Y289000D01*
X372000D02*
X388193D01*
X371508Y289000D02*
X372000Y289000D01*
X370542Y289192D02*
X371508Y289000D01*
X369632Y289569D02*
X370542Y289192D01*
X368813Y290116D02*
X369632Y289569D01*
X368116Y290813D02*
X368813Y290116D01*
X367569Y291632D02*
X368116Y290813D01*
X367192Y292542D02*
X367569Y291632D01*
X367000Y293508D02*
X367192Y292542D01*
X367000Y293508D02*
X367000Y294000D01*
X367000D02*
X367000D01*
X367000D02*
Y294394D01*
X367154Y295167D01*
X367455Y295895D01*
X367893Y296550D01*
X368450Y297107D01*
X369105Y297545D01*
X369833Y297846D01*
X370606Y298000D01*
X410000D01*
X488189Y305519D02*
Y488189D01*
X397898D02*
X488189D01*
X397898D02*
X418979Y460622D01*
X418979Y460622D02*
X418979Y460622D01*
X418979Y460622D02*
X419174Y460366D01*
X419478Y459797D01*
X419684Y459187D01*
X419789Y458551D01*
Y458229D02*
Y458551D01*
Y457612D02*
Y458229D01*
X419411Y456435D02*
X419789Y457612D01*
X418691Y455432D02*
X419411Y456435D01*
X417698Y454697D02*
X418691Y455432D01*
X416528Y454300D02*
X417698Y454697D01*
X415293Y454282D02*
X416528Y454300D01*
X414112Y454642D02*
X415293Y454282D01*
X413097Y455346D02*
X414112Y454642D01*
X412722Y455837D02*
X413097Y455346D01*
X393500Y480973D02*
X412722Y455837D01*
X374278D02*
X393500Y480973D01*
X374278Y455837D02*
X374278D01*
X373963Y455425D02*
X374278Y455837D01*
X373142Y454792D02*
X373963Y455425D01*
X372184Y454394D02*
X373142Y454792D01*
X371156Y454257D02*
X372184Y454394D01*
X370128Y454390D02*
X371156Y454257D01*
X369169Y454785D02*
X370128Y454390D01*
X368345Y455415D02*
X369169Y454785D01*
X367713Y456237D02*
X368345Y455415D01*
X367314Y457195D02*
X367713Y456237D01*
X367177Y458222D02*
X367314Y457195D01*
X367177Y458222D02*
X367311Y459251D01*
X367706Y460210D01*
X368021Y460622D01*
X389102Y488189D01*
X313886D02*
X389102D01*
X313886Y429000D02*
Y488189D01*
X298299Y429000D02*
X313886D01*
X298299Y408858D02*
X298299Y429000D01*
X298299Y408858D02*
X298299Y408366D01*
X298107Y407400D02*
X298299Y408366D01*
X297730Y406490D02*
X298107Y407400D01*
X297183Y405671D02*
X297730Y406490D01*
X296486Y404975D02*
X297183Y405671D01*
X295668Y404427D02*
X296486Y404975D01*
X294758Y404050D02*
X295668Y404427D01*
X293792Y403858D02*
X294758Y404050D01*
X293299Y403858D02*
X293792Y403858D01*
X292905Y403858D02*
X293299D01*
X292132Y404012D02*
X292905Y403858D01*
X291405Y404314D02*
X292132Y404012D01*
X290749Y404751D02*
X291405Y404314D01*
X290192Y405308D02*
X290749Y404751D01*
X289754Y405964D02*
X290192Y405308D01*
X289453Y406692D02*
X289754Y405964D01*
X289299Y407464D02*
X289453Y406692D01*
X289299Y407464D02*
Y407858D01*
Y446858D01*
X289400D01*
Y488189D01*
X199280D02*
X289400D01*
X199280D02*
X219979Y461122D01*
X219979Y461122D02*
X219979Y461122D01*
X219979Y461122D02*
X220175Y460866D01*
X220478Y460297D01*
X220684Y459687D01*
X220789Y459051D01*
Y458729D02*
Y459051D01*
Y458111D02*
Y458729D01*
X220411Y456936D02*
X220789Y458111D01*
X219691Y455932D02*
X220411Y456936D01*
X218698Y455197D02*
X219691Y455932D01*
X217528Y454801D02*
X218698Y455197D01*
X216293Y454782D02*
X217528Y454801D01*
X215111Y455142D02*
X216293Y454782D01*
X214097Y455846D02*
X215111Y455142D01*
X213722Y456337D02*
X214097Y455846D01*
X194500Y481473D02*
X213722Y456337D01*
X175278D02*
X194500Y481473D01*
X175278Y456337D02*
X175278D01*
X174963Y455925D02*
X175278Y456337D01*
X174142Y455292D02*
X174963Y455925D01*
X173184Y454894D02*
X174142Y455292D01*
X172156Y454757D02*
X173184Y454894D01*
X171128Y454890D02*
X172156Y454757D01*
X170169Y455286D02*
X171128Y454890D01*
X169345Y455915D02*
X170169Y455286D01*
X168713Y456737D02*
X169345Y455915D01*
X168314Y457695D02*
X168713Y456737D01*
X168177Y458722D02*
X168314Y457695D01*
X168177Y458722D02*
X168311Y459751D01*
X168706Y460710D01*
X169021Y461122D01*
X189720Y488189D01*
X115987D02*
X189720D01*
X115116Y428991D02*
X115987Y488189D01*
X99410Y428991D02*
X115116D01*
X99410Y304578D02*
Y428991D01*
Y304578D02*
X147867Y370342D01*
X131477D02*
X147867D01*
X130446Y370627D02*
X131477Y370342D01*
X129529Y371177D02*
X130446Y370627D01*
X128791Y371951D02*
X129529Y371177D01*
X128287Y372894D02*
X128791Y371951D01*
X128052Y373937D02*
X128287Y372894D01*
X128052Y373937D02*
X128103Y375005D01*
X128438Y376021D01*
X128734Y376466D01*
X155884Y417190D01*
X143008D02*
X155884D01*
X141949Y417491D02*
X143008Y417190D01*
X141014Y418071D02*
X141949Y417491D01*
X140274Y418885D02*
X141014Y418071D01*
X139785Y419871D02*
X140274Y418885D01*
X139585Y420953D02*
X139785Y419871D01*
X139585Y420953D02*
X139689Y422049D01*
X140090Y423074D01*
X140423Y423512D01*
X157116Y445465D01*
Y445465D02*
Y445465D01*
Y445465D02*
X157490Y445957D01*
X158504Y446664D01*
X159686Y447027D01*
X160923Y447011D01*
X162094Y446616D01*
X163089Y445881D01*
X163810Y444876D01*
X164189Y443699D01*
Y443081D02*
Y443699D01*
Y442760D02*
Y443081D01*
X164085Y442127D02*
X164189Y442760D01*
X163881Y441519D02*
X164085Y442127D01*
X163580Y440952D02*
X163881Y441519D01*
X163386Y440697D02*
X163580Y440952D01*
X151500Y425067D02*
X163386Y440697D01*
X151500Y425067D02*
X163631D01*
X164392Y424915D01*
X165108Y424618D01*
X165753Y424187D01*
X166302Y423639D01*
X166733Y422994D01*
X167030Y422277D01*
X167181Y421516D01*
Y421128D02*
Y421516D01*
Y420838D02*
Y421128D01*
X167096Y420264D02*
X167181Y420838D01*
X166928Y419709D02*
X167096Y420264D01*
X166681Y419185D02*
X166928Y419709D01*
X166520Y418943D02*
X166681Y419185D01*
X139371Y378219D02*
X166520Y418943D01*
X139371Y378219D02*
X156049D01*
X156810Y378068D01*
X157527Y377771D01*
X158172Y377340D01*
X158721Y376791D01*
X159151Y376146D01*
X159448Y375430D01*
X159600Y374669D01*
Y374281D02*
Y374669D01*
Y373967D02*
Y374281D01*
X159501Y373348D02*
X159600Y373967D01*
X159305Y372752D02*
X159501Y373348D01*
X159017Y372195D02*
X159305Y372752D01*
X158831Y371943D02*
X159017Y372195D01*
X104347Y298000D02*
X158831Y371943D01*
X104347Y298000D02*
X115386D01*
X142000Y298000D01*
X142492Y298000D01*
X143458Y297808D01*
X144368Y297431D01*
X145187Y296884D01*
X145884Y296187D01*
X146431Y295368D01*
X146808Y294458D01*
X147000Y293493D01*
X147000Y293000D02*
X147000Y293493D01*
X147000Y293000D02*
X147000Y293000D01*
Y292606D02*
Y293000D01*
X146846Y291833D02*
X147000Y292606D01*
X146545Y291105D02*
X146846Y291833D01*
X146107Y290450D02*
X146545Y291105D01*
X145550Y289893D02*
X146107Y290450D01*
X144895Y289455D02*
X145550Y289893D01*
X144167Y289154D02*
X144895Y289455D01*
X143394Y289000D02*
X144167Y289154D01*
X115253Y289000D02*
X143394D01*
X114386Y230000D02*
X115253Y289000D01*
X99410Y230000D02*
X114386D01*
X99410Y106579D02*
Y230000D01*
Y106579D02*
X147867Y172342D01*
X131477D02*
X147867D01*
X130446Y172627D02*
X131477Y172342D01*
X129529Y173177D02*
X130446Y172627D01*
X128791Y173951D02*
X129529Y173177D01*
X128287Y174894D02*
X128791Y173951D01*
X128052Y175937D02*
X128287Y174894D01*
X128052Y175937D02*
X128103Y177005D01*
X128438Y178021D01*
X128734Y178465D01*
X155884Y219190D01*
X143008D02*
X155884D01*
X141949Y219491D02*
X143008Y219190D01*
X141014Y220071D02*
X141949Y219491D01*
X140274Y220885D02*
X141014Y220071D01*
X139785Y221871D02*
X140274Y220885D01*
X139585Y222953D02*
X139785Y221871D01*
X139585Y222953D02*
X139689Y224049D01*
X140090Y225074D01*
X140423Y225512D01*
X157116Y247465D01*
Y247465D02*
Y247465D01*
Y247465D02*
X157490Y247957D01*
X158504Y248664D01*
X159686Y249027D01*
X160923Y249010D01*
X162094Y248616D01*
X163089Y247881D01*
X163810Y246876D01*
X164189Y245699D01*
Y245081D02*
Y245699D01*
Y244760D02*
Y245081D01*
X164085Y244127D02*
X164189Y244760D01*
X163881Y243519D02*
X164085Y244127D01*
X163580Y242952D02*
X163881Y243519D01*
X163386Y242697D02*
X163580Y242952D01*
X151500Y227066D02*
X163386Y242697D01*
X151500Y227066D02*
X163631D01*
X164392Y226915D01*
X165108Y226618D01*
X165753Y226187D01*
X166302Y225639D01*
X166733Y224994D01*
X167030Y224277D01*
X167181Y223516D01*
Y223128D02*
Y223516D01*
Y222838D02*
Y223128D01*
X167096Y222264D02*
X167181Y222838D01*
X166928Y221709D02*
X167096Y222264D01*
X166681Y221185D02*
X166928Y221709D01*
X166520Y220943D02*
X166681Y221185D01*
X139371Y180219D02*
X166520Y220943D01*
X139371Y180219D02*
X156049D01*
X156810Y180068D01*
X157527Y179771D01*
X158172Y179340D01*
X158721Y178791D01*
X159151Y178146D01*
X159448Y177430D01*
X159600Y176669D01*
Y176281D02*
Y176669D01*
Y175967D02*
Y176281D01*
X159501Y175348D02*
X159600Y175967D01*
X159305Y174752D02*
X159501Y175348D01*
X159017Y174195D02*
X159305Y174752D01*
X158831Y173943D02*
X159017Y174195D01*
X103911Y99410D02*
X158831Y173943D01*
X103911Y99410D02*
X285749D01*
X230539Y174336D02*
X285749Y99410D01*
X230353Y174589D02*
X230539Y174336D01*
X230065Y175146D02*
X230353Y174589D01*
X229870Y175742D02*
X230065Y175146D01*
X229770Y176361D02*
X229870Y175742D01*
X229770Y176361D02*
Y176674D01*
Y177062D01*
X229922Y177823D01*
X230219Y178540D01*
X230650Y179185D01*
X231198Y179734D01*
X231843Y180165D01*
X232560Y180462D01*
X233321Y180613D01*
X249999D01*
X222850Y221337D02*
X249999Y180613D01*
X222689Y221578D02*
X222850Y221337D01*
X222442Y222103D02*
X222689Y221578D01*
X222274Y222658D02*
X222442Y222103D01*
X222189Y223232D02*
X222274Y222658D01*
X222189Y223232D02*
Y223522D01*
Y223910D01*
X222340Y224671D01*
X222637Y225387D01*
X223068Y226032D01*
X223617Y226581D01*
X224262Y227012D01*
X224978Y227309D01*
X225739Y227460D01*
X237870D01*
X225984Y243091D02*
X237870Y227460D01*
X225790Y243346D02*
X225984Y243091D01*
X225489Y243913D02*
X225790Y243346D01*
X225285Y244521D02*
X225489Y243913D01*
X225181Y245154D02*
X225285Y244521D01*
X225181Y245154D02*
Y245475D01*
Y246093D01*
X225560Y247270D01*
X226281Y248274D01*
X227276Y249009D01*
X228447Y249404D01*
X229684Y249421D01*
X230866Y249058D01*
X231880Y248351D01*
X232254Y247858D01*
X232254Y247858D01*
X248947Y225906D01*
X249280Y225468D01*
X249681Y224443D01*
X249785Y223347D01*
X249585Y222265D02*
X249785Y223347D01*
X249096Y221279D02*
X249585Y222265D01*
X248356Y220465D02*
X249096Y221279D01*
X247421Y219885D02*
X248356Y220465D01*
X246362Y219583D02*
X247421Y219885D01*
X233486Y219583D02*
X246362D01*
X233486D02*
X260636Y178859D01*
X260932Y178414D01*
X261267Y177399D01*
X261318Y176331D01*
X261084Y175287D02*
X261318Y176331D01*
X260579Y174345D02*
X261084Y175287D01*
X259841Y173571D02*
X260579Y174345D01*
X258924Y173021D02*
X259841Y173571D01*
X257893Y172736D02*
X258924Y173021D01*
X241503Y172736D02*
X257893D01*
X241503D02*
X289055Y108201D01*
Y188386D01*
X289055Y188878D02*
X289055Y188386D01*
X289055Y188878D02*
X289247Y189844D01*
X289624Y190754D01*
X290171Y191573D01*
X290868Y192270D01*
X291687Y192817D01*
X292597Y193194D01*
X293563Y193386D01*
X294055Y193386D01*
X294055Y193386D01*
X294449D01*
X295222Y193232D01*
X295950Y192931D01*
X296605Y192493D01*
X297162Y191936D01*
X297600Y191280D01*
X297901Y190553D01*
X298055Y189780D01*
Y189386D02*
Y189780D01*
Y105598D02*
Y189386D01*
Y105598D02*
X346867Y171842D01*
X330477D02*
X346867D01*
X329446Y172127D02*
X330477Y171842D01*
X328529Y172677D02*
X329446Y172127D01*
X327791Y173451D02*
X328529Y172677D01*
X327287Y174394D02*
X327791Y173451D01*
X327052Y175437D02*
X327287Y174394D01*
X327052Y175437D02*
X327103Y176505D01*
X327438Y177521D01*
X327734Y177965D01*
X354884Y218689D01*
X342008D02*
X354884D01*
X340949Y218991D02*
X342008Y218689D01*
X340014Y219571D02*
X340949Y218991D01*
X339274Y220385D02*
X340014Y219571D01*
X338785Y221371D02*
X339274Y220385D01*
X338585Y222453D02*
X338785Y221371D01*
X338585Y222453D02*
X338689Y223549D01*
X339090Y224574D01*
X339423Y225012D01*
X356116Y246965D01*
Y246965D02*
Y246965D01*
Y246965D02*
X356490Y247457D01*
X357504Y248165D01*
X358686Y248527D01*
X359923Y248511D01*
X361094Y248116D01*
X362089Y247380D01*
X362810Y246376D01*
X363189Y245199D01*
Y244581D02*
Y245199D01*
Y244260D02*
Y244581D01*
X363085Y243627D02*
X363189Y244260D01*
X362880Y243019D02*
X363085Y243627D01*
X362580Y242452D02*
X362880Y243019D01*
X362386Y242197D02*
X362580Y242452D01*
X350500Y226567D02*
X362386Y242197D01*
X350500Y226567D02*
X362631D01*
X363392Y226415D01*
X364108Y226118D01*
X364754Y225687D01*
X365302Y225139D01*
X365733Y224494D01*
X366030Y223777D01*
X366181Y223016D01*
Y222628D02*
Y223016D01*
Y222338D02*
Y222628D01*
X366096Y221764D02*
X366181Y222338D01*
X365928Y221209D02*
X366096Y221764D01*
X365681Y220685D02*
X365928Y221209D01*
X365520Y220443D02*
X365681Y220685D01*
X338370Y179719D02*
X365520Y220443D01*
X338370Y179719D02*
X355049D01*
X355810Y179568D01*
X356527Y179271D01*
X357172Y178840D01*
X357720Y178291D01*
X358152Y177646D01*
X358448Y176930D01*
X358600Y176169D01*
Y175781D02*
Y176169D01*
Y175467D02*
Y175781D01*
X358501Y174848D02*
X358600Y175467D01*
X358305Y174252D02*
X358501Y174848D01*
X358017Y173695D02*
X358305Y174252D01*
X357831Y173443D02*
X358017Y173695D01*
X303280Y99410D02*
X357831Y173443D01*
X303280Y99410D02*
X484380D01*
X429539Y173836D02*
X484380Y99410D01*
X429353Y174089D02*
X429539Y173836D01*
X429066Y174646D02*
X429353Y174089D01*
X428869Y175242D02*
X429066Y174646D01*
X428770Y175861D02*
X428869Y175242D01*
X428770Y175861D02*
Y176174D01*
Y176562D01*
X428922Y177323D01*
X429218Y178040D01*
X429650Y178685D01*
X430198Y179234D01*
X430843Y179665D01*
X431560Y179962D01*
X432321Y180113D01*
X449000D01*
X421850Y220837D02*
X449000Y180113D01*
X421689Y221078D02*
X421850Y220837D01*
X421442Y221603D02*
X421689Y221078D01*
X421274Y222158D02*
X421442Y221603D01*
X421189Y222732D02*
X421274Y222158D01*
X421189Y222732D02*
Y223022D01*
Y223410D01*
X421340Y224170D01*
X421637Y224887D01*
X422068Y225532D01*
X422617Y226081D01*
X423262Y226512D01*
X423978Y226809D01*
X424739Y226960D01*
X436870D01*
X424984Y242590D02*
X436870Y226960D01*
X424790Y242846D02*
X424984Y242590D01*
X424489Y243413D02*
X424790Y242846D01*
X424285Y244021D02*
X424489Y243413D01*
X424181Y244654D02*
X424285Y244021D01*
X424181Y244654D02*
Y244974D01*
Y245593D01*
X424560Y246770D01*
X425281Y247774D01*
X426276Y248509D01*
X427447Y248904D01*
X428684Y248921D01*
X429866Y248558D01*
X430880Y247851D01*
X431254Y247358D01*
X431254Y247358D01*
X447947Y225406D01*
X448280Y224968D01*
X448681Y223943D01*
X448785Y222847D01*
X448585Y221765D02*
X448785Y222847D01*
X448096Y220779D02*
X448585Y221765D01*
X447356Y219965D02*
X448096Y220779D01*
X446421Y219385D02*
X447356Y219965D01*
X445363Y219083D02*
X446421Y219385D01*
X432486Y219083D02*
X445363D01*
X432486D02*
X459636Y178359D01*
X459932Y177914D01*
X460267Y176899D01*
X460319Y175831D01*
X460083Y174787D02*
X460319Y175831D01*
X459579Y173845D02*
X460083Y174787D01*
X458841Y173071D02*
X459579Y173845D01*
X457924Y172521D02*
X458841Y173071D01*
X456893Y172236D02*
X457924Y172521D01*
X440503Y172236D02*
X456893D01*
X440503D02*
X488189Y107519D01*
Y289000D01*
X459000Y289000D02*
X488189Y289000D01*
X458507D02*
X459000Y289000D01*
X457542Y289192D02*
X458507Y289000D01*
X456632Y289569D02*
X457542Y289192D01*
X455813Y290116D02*
X456632Y289569D01*
X455116Y290813D02*
X455813Y290116D01*
X454569Y291632D02*
X455116Y290813D01*
X454192Y292542D02*
X454569Y291632D01*
X454000Y293508D02*
X454192Y292542D01*
X454000Y293508D02*
X454000Y294000D01*
X454000Y294394D02*
X454000Y294000D01*
X454000Y294394D02*
X454154Y295167D01*
X454455Y295895D01*
X454893Y296550D01*
X455450Y297107D01*
X456105Y297545D01*
X456833Y297846D01*
X457606Y298000D01*
X483945D01*
X429539Y371836D02*
X483945Y298000D01*
X429353Y372089D02*
X429539Y371836D01*
X429066Y372646D02*
X429353Y372089D01*
X428869Y373242D02*
X429066Y372646D01*
X428770Y373861D02*
X428869Y373242D01*
X428770Y373861D02*
Y374174D01*
Y374562D01*
X428922Y375323D01*
X429218Y376040D01*
X429650Y376685D01*
X430198Y377234D01*
X430843Y377665D01*
X431560Y377962D01*
X432321Y378113D01*
X449000D01*
X421850Y418837D02*
X449000Y378113D01*
X421689Y419078D02*
X421850Y418837D01*
X421442Y419603D02*
X421689Y419078D01*
X421274Y420158D02*
X421442Y419603D01*
X421189Y420732D02*
X421274Y420158D01*
X421189Y420732D02*
Y421022D01*
Y421410D01*
X421340Y422170D01*
X421637Y422887D01*
X422068Y423532D01*
X422617Y424081D01*
X423262Y424512D01*
X423978Y424809D01*
X424739Y424960D01*
X436870D01*
X424984Y440590D02*
X436870Y424960D01*
X424790Y440846D02*
X424984Y440590D01*
X424489Y441413D02*
X424790Y440846D01*
X424285Y442021D02*
X424489Y441413D01*
X424181Y442654D02*
X424285Y442021D01*
X424181Y442654D02*
Y442975D01*
Y443593D01*
X424560Y444770D01*
X425281Y445774D01*
X426276Y446509D01*
X427447Y446904D01*
X428684Y446921D01*
X429866Y446558D01*
X430880Y445851D01*
X431254Y445358D01*
X431254Y445358D01*
X447947Y423406D01*
X448280Y422968D01*
X448681Y421943D01*
X448785Y420847D01*
X448585Y419765D02*
X448785Y420847D01*
X448096Y418779D02*
X448585Y419765D01*
X447356Y417965D02*
X448096Y418779D01*
X446421Y417385D02*
X447356Y417965D01*
X445363Y417083D02*
X446421Y417385D01*
X432486Y417083D02*
X445363D01*
X432486D02*
X459636Y376359D01*
X459932Y375914D01*
X460267Y374899D01*
X460319Y373831D01*
X460083Y372787D02*
X460319Y373831D01*
X459579Y371845D02*
X460083Y372787D01*
X458841Y371071D02*
X459579Y371845D01*
X457924Y370521D02*
X458841Y371071D01*
X456893Y370236D02*
X457924Y370521D01*
X440503Y370236D02*
X456893D01*
X440503D02*
X488189Y305519D01*
M02*
