G04*
G04 #@! TF.GenerationSoftware,Altium Limited,Altium Designer,23.1.1 (15)*
G04*
G04 Layer_Color=2752767*
%FSLAX25Y25*%
%MOIN*%
G70*
G04*
G04 #@! TF.SameCoordinates,F91F9CD3-C7A0-4A43-B12F-26B318A194AE*
G04*
G04*
G04 #@! TF.FilePolarity,Positive*
G04*
G01*
G75*
%ADD33C,0.00500*%
%ADD36C,0.00667*%
D33*
X288669Y192386D02*
Y196386D01*
X292669D01*
Y192386D01*
X288669D01*
Y195386D02*
Y199386D01*
X292669D01*
Y195386D01*
X288669D01*
Y198386D02*
Y202386D01*
X292669D01*
Y198386D01*
X288669D01*
Y201386D02*
Y205386D01*
X292669D01*
Y201386D01*
X288669D01*
X295669D02*
Y205386D01*
X299669D01*
Y201386D01*
X295669D01*
Y195386D02*
Y199386D01*
X299669D01*
Y195386D01*
X295669D01*
Y192386D02*
Y196386D01*
X299669D01*
Y192386D01*
X295669D01*
Y198386D02*
Y202386D01*
X299669D01*
Y198386D01*
X295669D01*
X295913Y400858D02*
Y404858D01*
X299913D01*
Y400858D01*
X295913D01*
Y397858D02*
Y401858D01*
X299913D01*
Y397858D01*
X295913D01*
Y394858D02*
Y398858D01*
X299913D01*
Y394858D01*
X295913D01*
Y391858D02*
Y395858D01*
X299913D01*
Y391858D01*
X295913D01*
X288913D02*
Y395858D01*
X292913D01*
Y391858D01*
X288913D01*
Y397858D02*
Y401858D01*
X292913D01*
Y397858D01*
X288913D01*
Y400858D02*
Y404858D01*
X292913D01*
Y400858D01*
X288913D01*
Y394858D02*
Y398858D01*
X292913D01*
Y394858D01*
X288913D01*
X451000Y288000D02*
Y292000D01*
X455000D01*
Y288000D01*
X451000D01*
X448000D02*
Y292000D01*
X452000D01*
Y288000D01*
X448000D01*
X445000D02*
Y292000D01*
X449000D01*
Y288000D01*
X445000D01*
X442000D02*
Y292000D01*
X446000D01*
Y288000D01*
X442000D01*
Y295000D02*
Y299000D01*
X446000D01*
Y295000D01*
X442000D01*
X448000D02*
Y299000D01*
X452000D01*
Y295000D01*
X448000D01*
X451000D02*
Y299000D01*
X455000D01*
Y295000D01*
X451000D01*
X445000D02*
Y299000D01*
X449000D01*
Y295000D01*
X445000D01*
X358000D02*
Y299000D01*
X362000D01*
Y295000D01*
X358000D01*
X364000D02*
Y299000D01*
X368000D01*
Y295000D01*
X364000D01*
X361000D02*
Y299000D01*
X365000D01*
Y295000D01*
X361000D01*
X355000D02*
Y299000D01*
X359000D01*
Y295000D01*
X355000D01*
Y288000D02*
Y292000D01*
X359000D01*
Y288000D01*
X355000D01*
X358000D02*
Y292000D01*
X362000D01*
Y288000D01*
X358000D01*
X361000D02*
Y292000D01*
X365000D01*
Y288000D01*
X361000D01*
X364000D02*
Y292000D01*
X368000D01*
Y288000D01*
X364000D01*
X233000Y295000D02*
Y299000D01*
X237000D01*
Y295000D01*
X233000D01*
X236000D02*
Y299000D01*
X240000D01*
Y295000D01*
X236000D01*
X239000D02*
Y299000D01*
X243000D01*
Y295000D01*
X239000D01*
X242000D02*
Y299000D01*
X246000D01*
Y295000D01*
X242000D01*
Y288000D02*
Y292000D01*
X246000D01*
Y288000D01*
X242000D01*
X236000D02*
Y292000D01*
X240000D01*
Y288000D01*
X236000D01*
X233000D02*
Y292000D01*
X237000D01*
Y288000D01*
X233000D01*
X239000D02*
Y292000D01*
X243000D01*
Y288000D01*
X239000D01*
X152000D02*
Y292000D01*
X156000D01*
Y288000D01*
X152000D01*
X146000D02*
Y292000D01*
X150000D01*
Y288000D01*
X146000D01*
X149000D02*
Y292000D01*
X153000D01*
Y288000D01*
X149000D01*
X155000D02*
Y292000D01*
X159000D01*
Y288000D01*
X155000D01*
Y295000D02*
Y299000D01*
X159000D01*
Y295000D01*
X155000D01*
X152000D02*
Y299000D01*
X156000D01*
Y295000D01*
X152000D01*
X149000D02*
Y299000D01*
X153000D01*
Y295000D01*
X149000D01*
X146000D02*
Y299000D01*
X150000D01*
Y295000D01*
X146000D01*
X135433Y121622D02*
X133433Y125622D01*
X137433D01*
X135433Y121622D01*
X128325Y112189D02*
X126325Y116189D01*
X130325D01*
X128325Y112189D01*
X188583Y212961D02*
X189583Y213961D01*
X190583D01*
X189583Y214961D01*
X190583Y215961D01*
X189583D01*
X188583Y216961D01*
X187583Y215961D01*
X186583D01*
X187583Y214961D01*
X186583Y213961D01*
X187583D01*
X188583Y212961D01*
X227416Y247496D02*
Y251496D01*
X231416D01*
Y247496D01*
X227416D01*
X225616Y249896D02*
Y253896D01*
X229616D01*
Y249896D01*
X225616D01*
X223716Y252196D02*
Y256196D01*
X227716D01*
Y252196D01*
X223716D01*
X222016Y254496D02*
Y258496D01*
X226016D01*
Y254496D01*
X222016D01*
X220316Y256796D02*
Y260796D01*
X224316D01*
Y256796D01*
X220316D01*
X170129Y252538D02*
Y256538D01*
X174129D01*
Y252538D01*
X170129D01*
X168329Y250238D02*
Y254238D01*
X172329D01*
Y250238D01*
X168329D01*
X166629Y247938D02*
Y251938D01*
X170629D01*
Y247938D01*
X166629D01*
X164929Y245638D02*
Y249638D01*
X168929D01*
Y245638D01*
X164929D01*
X163029Y243438D02*
Y247438D01*
X167029D01*
Y243438D01*
X163029D01*
X211221Y165913D02*
X212221Y166913D01*
X213221D01*
X212221Y167913D01*
X213221Y168913D01*
X212221D01*
X211221Y169913D01*
X210221Y168913D01*
X209221D01*
X210221Y167913D01*
X209221Y166913D01*
X210221D01*
X211221Y165913D01*
Y211189D02*
X212221Y212189D01*
X213221D01*
X212221Y213189D01*
X213221Y214189D01*
X212221D01*
X211221Y215189D01*
X210221Y214189D01*
X209221D01*
X210221Y213189D01*
X209221Y212189D01*
X210221D01*
X211221Y211189D01*
X177756Y165913D02*
X178756Y166913D01*
X179756D01*
X178756Y167913D01*
X179756Y168913D01*
X178756D01*
X177756Y169913D01*
X176756Y168913D01*
X175756D01*
X176756Y167913D01*
X175756Y166913D01*
X176756D01*
X177756Y165913D01*
Y210205D02*
X178756Y211205D01*
X179756D01*
X178756Y212205D01*
X179756Y213205D01*
X178756D01*
X177756Y214205D01*
X176756Y213205D01*
X175756D01*
X176756Y212205D01*
X175756Y211205D01*
X176756D01*
X177756Y210205D01*
X123622Y242685D02*
X124622Y243685D01*
X125622D01*
X124622Y244685D01*
X125622Y245685D01*
X124622D01*
X123622Y246685D01*
X122622Y245685D01*
X121622D01*
X122622Y244685D01*
X121622Y243685D01*
X122622D01*
X123622Y242685D01*
X106890Y169850D02*
X107890Y170850D01*
X108890D01*
X107890Y171850D01*
X108890Y172850D01*
X107890D01*
X106890Y173850D01*
X105890Y172850D01*
X104890D01*
X105890Y171850D01*
X104890Y170850D01*
X105890D01*
X106890Y169850D01*
X283071Y148197D02*
X284071Y149197D01*
X285071D01*
X284071Y150197D01*
X285071Y151197D01*
X284071D01*
X283071Y152197D01*
X282071Y151197D01*
X281071D01*
X282071Y150197D01*
X281071Y149197D01*
X282071D01*
X283071Y148197D01*
X281102Y223000D02*
X282102Y224000D01*
X283102D01*
X282102Y225000D01*
X283102Y226000D01*
X282102D01*
X281102Y227000D01*
X280102Y226000D01*
X279102D01*
X280102Y225000D01*
X279102Y224000D01*
X280102D01*
X281102Y223000D01*
X214916Y251785D02*
Y255785D01*
X218916D01*
Y251785D01*
X214916D01*
X216716Y249485D02*
Y253485D01*
X220716D01*
Y249485D01*
X216716D01*
X218416Y247185D02*
Y251185D01*
X222416D01*
Y247185D01*
X218416D01*
X220116Y244885D02*
Y248885D01*
X224116D01*
Y244885D01*
X220116D01*
X222016Y242685D02*
Y246685D01*
X226016D01*
Y242685D01*
X222016D01*
X157829Y247165D02*
Y251165D01*
X161829D01*
Y247165D01*
X157829D01*
X159629Y249565D02*
Y253565D01*
X163629D01*
Y249565D01*
X159629D01*
X161529Y251865D02*
Y255865D01*
X165529D01*
Y251865D01*
X161529D01*
X163229Y254165D02*
Y258165D01*
X167229D01*
Y254165D01*
X163229D01*
X164929Y256465D02*
Y260465D01*
X168929D01*
Y256465D01*
X164929D01*
X334252Y121622D02*
X332252Y125622D01*
X336252D01*
X334252Y121622D01*
X327144Y112189D02*
X325144Y116189D01*
X329144D01*
X327144Y112189D01*
X387402Y212961D02*
X388402Y213961D01*
X389402D01*
X388402Y214961D01*
X389402Y215961D01*
X388402D01*
X387402Y216961D01*
X386402Y215961D01*
X385402D01*
X386402Y214961D01*
X385402Y213961D01*
X386402D01*
X387402Y212961D01*
X426235Y247496D02*
Y251496D01*
X430235D01*
Y247496D01*
X426235D01*
X424435Y249896D02*
Y253896D01*
X428435D01*
Y249896D01*
X424435D01*
X422535Y252196D02*
Y256196D01*
X426535D01*
Y252196D01*
X422535D01*
X420835Y254496D02*
Y258496D01*
X424835D01*
Y254496D01*
X420835D01*
X419135Y256796D02*
Y260796D01*
X423135D01*
Y256796D01*
X419135D01*
X368948Y252538D02*
Y256538D01*
X372948D01*
Y252538D01*
X368948D01*
X367148Y250238D02*
Y254238D01*
X371148D01*
Y250238D01*
X367148D01*
X365448Y247938D02*
Y251938D01*
X369448D01*
Y247938D01*
X365448D01*
X363748Y245638D02*
Y249638D01*
X367748D01*
Y245638D01*
X363748D01*
X361848Y243438D02*
Y247438D01*
X365848D01*
Y243438D01*
X361848D01*
X410039Y165913D02*
X411039Y166913D01*
X412039D01*
X411039Y167913D01*
X412039Y168913D01*
X411039D01*
X410039Y169913D01*
X409039Y168913D01*
X408039D01*
X409039Y167913D01*
X408039Y166913D01*
X409039D01*
X410039Y165913D01*
Y211189D02*
X411039Y212189D01*
X412039D01*
X411039Y213189D01*
X412039Y214189D01*
X411039D01*
X410039Y215189D01*
X409039Y214189D01*
X408039D01*
X409039Y213189D01*
X408039Y212189D01*
X409039D01*
X410039Y211189D01*
X376575Y165913D02*
X377575Y166913D01*
X378575D01*
X377575Y167913D01*
X378575Y168913D01*
X377575D01*
X376575Y169913D01*
X375575Y168913D01*
X374575D01*
X375575Y167913D01*
X374575Y166913D01*
X375575D01*
X376575Y165913D01*
Y210205D02*
X377575Y211205D01*
X378575D01*
X377575Y212205D01*
X378575Y213205D01*
X377575D01*
X376575Y214205D01*
X375575Y213205D01*
X374575D01*
X375575Y212205D01*
X374575Y211205D01*
X375575D01*
X376575Y210205D01*
X322441Y242685D02*
X323441Y243685D01*
X324441D01*
X323441Y244685D01*
X324441Y245685D01*
X323441D01*
X322441Y246685D01*
X321441Y245685D01*
X320441D01*
X321441Y244685D01*
X320441Y243685D01*
X321441D01*
X322441Y242685D01*
X305709Y169850D02*
X306709Y170850D01*
X307709D01*
X306709Y171850D01*
X307709Y172850D01*
X306709D01*
X305709Y173850D01*
X304709Y172850D01*
X303709D01*
X304709Y171850D01*
X303709Y170850D01*
X304709D01*
X305709Y169850D01*
X481890Y148197D02*
X482890Y149197D01*
X483890D01*
X482890Y150197D01*
X483890Y151197D01*
X482890D01*
X481890Y152197D01*
X480890Y151197D01*
X479890D01*
X480890Y150197D01*
X479890Y149197D01*
X480890D01*
X481890Y148197D01*
X479921Y223000D02*
X480921Y224000D01*
X481921D01*
X480921Y225000D01*
X481921Y226000D01*
X480921D01*
X479921Y227000D01*
X478921Y226000D01*
X477921D01*
X478921Y225000D01*
X477921Y224000D01*
X478921D01*
X479921Y223000D01*
X413735Y251785D02*
Y255785D01*
X417735D01*
Y251785D01*
X413735D01*
X415535Y249485D02*
Y253485D01*
X419535D01*
Y249485D01*
X415535D01*
X417235Y247185D02*
Y251185D01*
X421235D01*
Y247185D01*
X417235D01*
X418935Y244885D02*
Y248885D01*
X422935D01*
Y244885D01*
X418935D01*
X420835Y242685D02*
Y246685D01*
X424835D01*
Y242685D01*
X420835D01*
X356648Y247165D02*
Y251165D01*
X360648D01*
Y247165D01*
X356648D01*
X358448Y249565D02*
Y253565D01*
X362448D01*
Y249565D01*
X358448D01*
X360348Y251865D02*
Y255865D01*
X364348D01*
Y251865D01*
X360348D01*
X362048Y254165D02*
Y258165D01*
X366048D01*
Y254165D01*
X362048D01*
X363748Y256465D02*
Y260465D01*
X367748D01*
Y256465D01*
X363748D01*
X135433Y320441D02*
X133433Y324441D01*
X137433D01*
X135433Y320441D01*
X128325Y311008D02*
X126325Y315008D01*
X130325D01*
X128325Y311008D01*
X188583Y411779D02*
X189583Y412780D01*
X190583D01*
X189583Y413779D01*
X190583Y414780D01*
X189583D01*
X188583Y415779D01*
X187583Y414780D01*
X186583D01*
X187583Y413779D01*
X186583Y412780D01*
X187583D01*
X188583Y411779D01*
X227416Y446315D02*
Y450315D01*
X231416D01*
Y446315D01*
X227416D01*
X225616Y448715D02*
Y452715D01*
X229616D01*
Y448715D01*
X225616D01*
X223716Y451015D02*
Y455015D01*
X227716D01*
Y451015D01*
X223716D01*
X222016Y453315D02*
Y457315D01*
X226016D01*
Y453315D01*
X222016D01*
X220316Y455615D02*
Y459615D01*
X224316D01*
Y455615D01*
X220316D01*
X170129Y451357D02*
Y455357D01*
X174129D01*
Y451357D01*
X170129D01*
X168329Y449057D02*
Y453057D01*
X172329D01*
Y449057D01*
X168329D01*
X166629Y446757D02*
Y450757D01*
X170629D01*
Y446757D01*
X166629D01*
X164929Y444457D02*
Y448457D01*
X168929D01*
Y444457D01*
X164929D01*
X163029Y442257D02*
Y446257D01*
X167029D01*
Y442257D01*
X163029D01*
X211221Y364732D02*
X212221Y365732D01*
X213221D01*
X212221Y366732D01*
X213221Y367732D01*
X212221D01*
X211221Y368732D01*
X210221Y367732D01*
X209221D01*
X210221Y366732D01*
X209221Y365732D01*
X210221D01*
X211221Y364732D01*
Y410008D02*
X212221Y411008D01*
X213221D01*
X212221Y412008D01*
X213221Y413008D01*
X212221D01*
X211221Y414008D01*
X210221Y413008D01*
X209221D01*
X210221Y412008D01*
X209221Y411008D01*
X210221D01*
X211221Y410008D01*
X177756Y364732D02*
X178756Y365732D01*
X179756D01*
X178756Y366732D01*
X179756Y367732D01*
X178756D01*
X177756Y368732D01*
X176756Y367732D01*
X175756D01*
X176756Y366732D01*
X175756Y365732D01*
X176756D01*
X177756Y364732D01*
Y409024D02*
X178756Y410024D01*
X179756D01*
X178756Y411024D01*
X179756Y412024D01*
X178756D01*
X177756Y413024D01*
X176756Y412024D01*
X175756D01*
X176756Y411024D01*
X175756Y410024D01*
X176756D01*
X177756Y409024D01*
X123622Y441504D02*
X124622Y442504D01*
X125622D01*
X124622Y443504D01*
X125622Y444504D01*
X124622D01*
X123622Y445504D01*
X122622Y444504D01*
X121622D01*
X122622Y443504D01*
X121622Y442504D01*
X122622D01*
X123622Y441504D01*
X106890Y368669D02*
X107890Y369669D01*
X108890D01*
X107890Y370669D01*
X108890Y371669D01*
X107890D01*
X106890Y372669D01*
X105890Y371669D01*
X104890D01*
X105890Y370669D01*
X104890Y369669D01*
X105890D01*
X106890Y368669D01*
X283071Y347016D02*
X284071Y348016D01*
X285071D01*
X284071Y349016D01*
X285071Y350016D01*
X284071D01*
X283071Y351016D01*
X282071Y350016D01*
X281071D01*
X282071Y349016D01*
X281071Y348016D01*
X282071D01*
X283071Y347016D01*
X281102Y421819D02*
X282102Y422819D01*
X283102D01*
X282102Y423819D01*
X283102Y424819D01*
X282102D01*
X281102Y425819D01*
X280102Y424819D01*
X279102D01*
X280102Y423819D01*
X279102Y422819D01*
X280102D01*
X281102Y421819D01*
X214916Y450604D02*
Y454604D01*
X218916D01*
Y450604D01*
X214916D01*
X216716Y448304D02*
Y452304D01*
X220716D01*
Y448304D01*
X216716D01*
X218416Y446004D02*
Y450004D01*
X222416D01*
Y446004D01*
X218416D01*
X220116Y443704D02*
Y447704D01*
X224116D01*
Y443704D01*
X220116D01*
X222016Y441504D02*
Y445504D01*
X226016D01*
Y441504D01*
X222016D01*
X157829Y445984D02*
Y449984D01*
X161829D01*
Y445984D01*
X157829D01*
X159629Y448384D02*
Y452384D01*
X163629D01*
Y448384D01*
X159629D01*
X161529Y450683D02*
Y454683D01*
X165529D01*
Y450683D01*
X161529D01*
X163229Y452984D02*
Y456984D01*
X167229D01*
Y452984D01*
X163229D01*
X164929Y455283D02*
Y459283D01*
X168929D01*
Y455283D01*
X164929D01*
X334252Y320441D02*
X332252Y324441D01*
X336252D01*
X334252Y320441D01*
X327144Y311008D02*
X325144Y315008D01*
X329144D01*
X327144Y311008D01*
X387402Y411779D02*
X388402Y412780D01*
X389402D01*
X388402Y413779D01*
X389402Y414780D01*
X388402D01*
X387402Y415779D01*
X386402Y414780D01*
X385402D01*
X386402Y413779D01*
X385402Y412780D01*
X386402D01*
X387402Y411779D01*
X426235Y446315D02*
Y450315D01*
X430235D01*
Y446315D01*
X426235D01*
X424435Y448715D02*
Y452715D01*
X428435D01*
Y448715D01*
X424435D01*
X422535Y451015D02*
Y455015D01*
X426535D01*
Y451015D01*
X422535D01*
X420835Y453315D02*
Y457315D01*
X424835D01*
Y453315D01*
X420835D01*
X419135Y455615D02*
Y459615D01*
X423135D01*
Y455615D01*
X419135D01*
X368948Y451357D02*
Y455357D01*
X372948D01*
Y451357D01*
X368948D01*
X367148Y449057D02*
Y453057D01*
X371148D01*
Y449057D01*
X367148D01*
X365448Y446757D02*
Y450757D01*
X369448D01*
Y446757D01*
X365448D01*
X363748Y444457D02*
Y448457D01*
X367748D01*
Y444457D01*
X363748D01*
X361848Y442257D02*
Y446257D01*
X365848D01*
Y442257D01*
X361848D01*
X410039Y364732D02*
X411039Y365732D01*
X412039D01*
X411039Y366732D01*
X412039Y367732D01*
X411039D01*
X410039Y368732D01*
X409039Y367732D01*
X408039D01*
X409039Y366732D01*
X408039Y365732D01*
X409039D01*
X410039Y364732D01*
Y410008D02*
X411039Y411008D01*
X412039D01*
X411039Y412008D01*
X412039Y413008D01*
X411039D01*
X410039Y414008D01*
X409039Y413008D01*
X408039D01*
X409039Y412008D01*
X408039Y411008D01*
X409039D01*
X410039Y410008D01*
X376575Y364732D02*
X377575Y365732D01*
X378575D01*
X377575Y366732D01*
X378575Y367732D01*
X377575D01*
X376575Y368732D01*
X375575Y367732D01*
X374575D01*
X375575Y366732D01*
X374575Y365732D01*
X375575D01*
X376575Y364732D01*
Y409024D02*
X377575Y410024D01*
X378575D01*
X377575Y411024D01*
X378575Y412024D01*
X377575D01*
X376575Y413024D01*
X375575Y412024D01*
X374575D01*
X375575Y411024D01*
X374575Y410024D01*
X375575D01*
X376575Y409024D01*
X322441Y441504D02*
X323441Y442504D01*
X324441D01*
X323441Y443504D01*
X324441Y444504D01*
X323441D01*
X322441Y445504D01*
X321441Y444504D01*
X320441D01*
X321441Y443504D01*
X320441Y442504D01*
X321441D01*
X322441Y441504D01*
X305709Y368669D02*
X306709Y369669D01*
X307709D01*
X306709Y370669D01*
X307709Y371669D01*
X306709D01*
X305709Y372669D01*
X304709Y371669D01*
X303709D01*
X304709Y370669D01*
X303709Y369669D01*
X304709D01*
X305709Y368669D01*
X481890Y347016D02*
X482890Y348016D01*
X483890D01*
X482890Y349016D01*
X483890Y350016D01*
X482890D01*
X481890Y351016D01*
X480890Y350016D01*
X479890D01*
X480890Y349016D01*
X479890Y348016D01*
X480890D01*
X481890Y347016D01*
X479921Y421819D02*
X480921Y422819D01*
X481921D01*
X480921Y423819D01*
X481921Y424819D01*
X480921D01*
X479921Y425819D01*
X478921Y424819D01*
X477921D01*
X478921Y423819D01*
X477921Y422819D01*
X478921D01*
X479921Y421819D01*
X413735Y450604D02*
Y454604D01*
X417735D01*
Y450604D01*
X413735D01*
X415535Y448304D02*
Y452304D01*
X419535D01*
Y448304D01*
X415535D01*
X417235Y446004D02*
Y450004D01*
X421235D01*
Y446004D01*
X417235D01*
X418935Y443704D02*
Y447704D01*
X422935D01*
Y443704D01*
X418935D01*
X420835Y441504D02*
Y445504D01*
X424835D01*
Y441504D01*
X420835D01*
X356648Y445984D02*
Y449984D01*
X360648D01*
Y445984D01*
X356648D01*
X358448Y448384D02*
Y452384D01*
X362448D01*
Y448384D01*
X358448D01*
X360348Y450683D02*
Y454683D01*
X364348D01*
Y450683D01*
X360348D01*
X362048Y452984D02*
Y456984D01*
X366048D01*
Y452984D01*
X362048D01*
X363748Y455283D02*
Y459283D01*
X367748D01*
Y455283D01*
X363748D01*
D36*
X170484Y123622D02*
X170255Y124551D01*
X169620Y125268D01*
X168725Y125608D01*
X167775Y125492D01*
X166987Y124948D01*
X166542Y124101D01*
Y123143D01*
X166987Y122296D01*
X167775Y121752D01*
X168725Y121637D01*
X169620Y121976D01*
X170255Y122693D01*
X170484Y123622D01*
X222492D02*
X222263Y124551D01*
X221628Y125268D01*
X220733Y125608D01*
X219783Y125492D01*
X218995Y124948D01*
X218550Y124101D01*
Y123143D01*
X218995Y122296D01*
X219783Y121752D01*
X220733Y121637D01*
X221628Y121976D01*
X222263Y122693D01*
X222492Y123622D01*
X369303D02*
X369074Y124551D01*
X368439Y125268D01*
X367544Y125608D01*
X366594Y125492D01*
X365806Y124948D01*
X365361Y124101D01*
Y123143D01*
X365806Y122296D01*
X366594Y121752D01*
X367544Y121637D01*
X368439Y121976D01*
X369074Y122693D01*
X369303Y123622D01*
X421311D02*
X421082Y124551D01*
X420447Y125268D01*
X419552Y125608D01*
X418602Y125492D01*
X417814Y124948D01*
X417369Y124101D01*
Y123143D01*
X417814Y122296D01*
X418602Y121752D01*
X419552Y121637D01*
X420447Y121976D01*
X421082Y122693D01*
X421311Y123622D01*
X170484Y322441D02*
X170255Y323370D01*
X169620Y324087D01*
X168725Y324426D01*
X167775Y324311D01*
X166987Y323767D01*
X166542Y322920D01*
Y321962D01*
X166987Y321115D01*
X167775Y320571D01*
X168725Y320456D01*
X169620Y320795D01*
X170255Y321512D01*
X170484Y322441D01*
X222492D02*
X222263Y323370D01*
X221628Y324087D01*
X220733Y324426D01*
X219783Y324311D01*
X218995Y323767D01*
X218550Y322920D01*
Y321962D01*
X218995Y321115D01*
X219783Y320571D01*
X220733Y320456D01*
X221628Y320795D01*
X222263Y321512D01*
X222492Y322441D01*
X369303D02*
X369074Y323370D01*
X368439Y324087D01*
X367544Y324426D01*
X366594Y324311D01*
X365806Y323767D01*
X365361Y322920D01*
Y321962D01*
X365806Y321115D01*
X366594Y320571D01*
X367544Y320456D01*
X368439Y320795D01*
X369074Y321512D01*
X369303Y322441D01*
X421311D02*
X421082Y323370D01*
X420447Y324087D01*
X419552Y324426D01*
X418602Y324311D01*
X417814Y323767D01*
X417369Y322920D01*
Y321962D01*
X417814Y321115D01*
X418602Y320571D01*
X419552Y320456D01*
X420447Y320795D01*
X421082Y321512D01*
X421311Y322441D01*
M02*
