G04*
G04 #@! TF.GenerationSoftware,Altium Limited,Altium Designer,23.1.1 (15)*
G04*
G04 Layer_Color=0*
%FSLAX25Y25*%
%MOIN*%
G70*
G04*
G04 #@! TF.SameCoordinates,F91F9CD3-C7A0-4A43-B12F-26B318A194AE*
G04*
G04*
G04 #@! TF.FilePolarity,Positive*
G04*
G01*
G75*
%ADD19C,0.00000*%
D19*
X127566Y118089D02*
X131476Y123277D01*
X126927Y122637D02*
X132115Y118728D01*
X223578Y272850D02*
X226362Y275634D01*
X223578D02*
X226362Y272850D01*
X217732Y235389D02*
X220516Y238173D01*
X217732D02*
X220516Y235389D01*
X155695Y191943D02*
X158478Y189159D01*
X155695D02*
X158478Y191943D01*
X263962Y110419D02*
X266746Y113203D01*
X263962D02*
X266746Y110419D01*
X206299Y231890D02*
X210236D01*
X208268Y229921D02*
Y233858D01*
X169823Y183298D02*
X173760D01*
X171792Y181329D02*
Y185266D01*
X247638Y111811D02*
Y115748D01*
X245669Y113779D02*
X249606D01*
X135025Y205723D02*
X137809Y202939D01*
X135025D02*
X137809Y205723D01*
X262948Y156709D02*
X265732Y159493D01*
X262948D02*
X265732Y156709D01*
X128543Y220079D02*
X132480D01*
X130512Y218110D02*
Y222047D01*
X235827Y275197D02*
X239764D01*
X237795Y273228D02*
Y277165D01*
X270276Y171850D02*
X274213D01*
X272244Y169882D02*
Y173819D01*
X326385Y118089D02*
X330294Y123277D01*
X325746Y122637D02*
X330934Y118728D01*
X422397Y272850D02*
X425181Y275634D01*
X422397D02*
X425181Y272850D01*
X416551Y235389D02*
X419335Y238173D01*
X416551D02*
X419335Y235389D01*
X354514Y191943D02*
X357297Y189159D01*
X354514D02*
X357297Y191943D01*
X462781Y110419D02*
X465565Y113203D01*
X462781D02*
X465565Y110419D01*
X405118Y231890D02*
X409055D01*
X407087Y229921D02*
Y233858D01*
X368642Y183298D02*
X372579D01*
X370610Y181329D02*
Y185266D01*
X446457Y111811D02*
Y115748D01*
X444488Y113779D02*
X448425D01*
X333844Y205723D02*
X336628Y202939D01*
X333844D02*
X336628Y205723D01*
X461767Y156709D02*
X464551Y159493D01*
X461767D02*
X464551Y156709D01*
X327362Y220079D02*
X331299D01*
X329331Y218110D02*
Y222047D01*
X434646Y275197D02*
X438583D01*
X436614Y273228D02*
Y277165D01*
X469095Y171850D02*
X473032D01*
X471063Y169882D02*
Y173819D01*
X127566Y316908D02*
X131476Y322096D01*
X126927Y321456D02*
X132115Y317547D01*
X223578Y471669D02*
X226362Y474453D01*
X223578D02*
X226362Y471669D01*
X217732Y434208D02*
X220516Y436992D01*
X217732D02*
X220516Y434208D01*
X155695Y390762D02*
X158478Y387978D01*
X155695D02*
X158478Y390762D01*
X263962Y309238D02*
X266746Y312022D01*
X263962D02*
X266746Y309238D01*
X206299Y430709D02*
X210236D01*
X208268Y428740D02*
Y432677D01*
X169823Y382117D02*
X173760D01*
X171792Y380148D02*
Y384085D01*
X247638Y310630D02*
Y314567D01*
X245669Y312598D02*
X249606D01*
X135025Y404541D02*
X137809Y401758D01*
X135025D02*
X137809Y404541D01*
X262948Y355527D02*
X265732Y358311D01*
X262948D02*
X265732Y355527D01*
X128543Y418898D02*
X132480D01*
X130512Y416929D02*
Y420866D01*
X235827Y474016D02*
X239764D01*
X237795Y472047D02*
Y475984D01*
X270276Y370669D02*
X274213D01*
X272244Y368701D02*
Y372638D01*
X326385Y316908D02*
X330294Y322096D01*
X325746Y321456D02*
X330934Y317547D01*
X422397Y471669D02*
X425181Y474453D01*
X422397D02*
X425181Y471669D01*
X416551Y434208D02*
X419335Y436992D01*
X416551D02*
X419335Y434208D01*
X354514Y390762D02*
X357297Y387978D01*
X354514D02*
X357297Y390762D01*
X462781Y309238D02*
X465565Y312022D01*
X462781D02*
X465565Y309238D01*
X405118Y430709D02*
X409055D01*
X407087Y428740D02*
Y432677D01*
X368642Y382117D02*
X372579D01*
X370610Y380148D02*
Y384085D01*
X446457Y310630D02*
Y314567D01*
X444488Y312598D02*
X448425D01*
X333844Y404541D02*
X336628Y401758D01*
X333844D02*
X336628Y404541D01*
X461767Y355527D02*
X464551Y358311D01*
X461767D02*
X464551Y355527D01*
X327362Y418898D02*
X331299D01*
X329331Y416929D02*
Y420866D01*
X434646Y474016D02*
X438583D01*
X436614Y472047D02*
Y475984D01*
X469095Y370669D02*
X473032D01*
X471063Y368701D02*
Y372638D01*
M02*
