G04*
G04 #@! TF.GenerationSoftware,Altium Limited,Altium Designer,23.1.1 (15)*
G04*
G04 Layer_Color=32768*
%FSLAX25Y25*%
%MOIN*%
G70*
G04*
G04 #@! TF.SameCoordinates,F91F9CD3-C7A0-4A43-B12F-26B318A194AE*
G04*
G04*
G04 #@! TF.FilePolarity,Positive*
G04*
G01*
G75*
%ADD19C,0.00000*%
D19*
X145216Y131615D02*
X151062Y137461D01*
X147304Y141219D02*
X151062Y137461D01*
X141458Y135373D02*
X147304Y141219D01*
X141458Y135373D02*
X145216Y131615D01*
X155020Y151870D02*
X161122D01*
X155020Y148524D02*
Y151870D01*
Y148524D02*
X161122D01*
Y151870D01*
X111781Y133613D02*
X117627Y139460D01*
X165020Y275078D02*
X168779Y271320D01*
X162932Y265473D02*
X168779Y271320D01*
X159174Y269232D02*
X162932Y265473D01*
X159174Y269232D02*
X165020Y275078D01*
X250710Y207343D02*
X254468Y211101D01*
X260314Y205255D01*
X256556Y201497D02*
X260314Y205255D01*
X250710Y207343D02*
X256556Y201497D01*
X108169Y155353D02*
X111516D01*
Y149250D02*
Y155353D01*
X108169Y149250D02*
X111516D01*
X108169D02*
Y155353D01*
X148130Y276476D02*
Y279823D01*
X154232D01*
Y276476D02*
Y279823D01*
X148130Y276476D02*
X154232D01*
X268406Y214469D02*
Y217815D01*
X262303Y214469D02*
X268406D01*
X262303D02*
Y217815D01*
X268406D01*
X227088Y191595D02*
X230846Y195353D01*
X236692Y189507D01*
X232934Y185749D02*
X236692Y189507D01*
X227088Y191595D02*
X232934Y185749D01*
X166064Y236751D02*
X169822Y232993D01*
X166064Y236751D02*
X171910Y242598D01*
X175668Y238839D01*
X169822Y232993D02*
X175668Y238839D01*
X216437Y201476D02*
X219783D01*
Y195374D02*
Y201476D01*
X216437Y195374D02*
X219783D01*
X216437D02*
Y201476D01*
X177067Y226870D02*
X180413D01*
X177067D02*
Y232972D01*
X180413D01*
Y226870D02*
Y232972D01*
X108023Y137372D02*
X111781Y133613D01*
X108023Y137372D02*
X113869Y143218D01*
X117627Y139460D01*
X344035Y131615D02*
X349881Y137461D01*
X346123Y141219D02*
X349881Y137461D01*
X340277Y135373D02*
X346123Y141219D01*
X340277Y135373D02*
X344035Y131615D01*
X353839Y151870D02*
X359941D01*
X353839Y148524D02*
Y151870D01*
Y148524D02*
X359941D01*
Y151870D01*
X310600Y133613D02*
X316446Y139460D01*
X363839Y275078D02*
X367598Y271320D01*
X361751Y265473D02*
X367598Y271320D01*
X357993Y269232D02*
X361751Y265473D01*
X357993Y269232D02*
X363839Y275078D01*
X449529Y207343D02*
X453287Y211101D01*
X459133Y205255D01*
X455375Y201497D02*
X459133Y205255D01*
X449529Y207343D02*
X455375Y201497D01*
X306988Y155353D02*
X310335D01*
Y149250D02*
Y155353D01*
X306988Y149250D02*
X310335D01*
X306988D02*
Y155353D01*
X346949Y276476D02*
Y279823D01*
X353051D01*
Y276476D02*
Y279823D01*
X346949Y276476D02*
X353051D01*
X467224Y214469D02*
Y217815D01*
X461122Y214469D02*
X467224D01*
X461122D02*
Y217815D01*
X467224D01*
X425907Y191595D02*
X429665Y195353D01*
X435511Y189507D01*
X431753Y185749D02*
X435511Y189507D01*
X425907Y191595D02*
X431753Y185749D01*
X364883Y236751D02*
X368641Y232993D01*
X364883Y236751D02*
X370729Y242598D01*
X374487Y238839D01*
X368641Y232993D02*
X374487Y238839D01*
X415256Y201476D02*
X418602D01*
Y195374D02*
Y201476D01*
X415256Y195374D02*
X418602D01*
X415256D02*
Y201476D01*
X375886Y226870D02*
X379232D01*
X375886D02*
Y232972D01*
X379232D01*
Y226870D02*
Y232972D01*
X306842Y137372D02*
X310600Y133613D01*
X306842Y137372D02*
X312688Y143218D01*
X316446Y139460D01*
X145216Y330434D02*
X151062Y336280D01*
X147304Y340038D02*
X151062Y336280D01*
X141458Y334192D02*
X147304Y340038D01*
X141458Y334192D02*
X145216Y330434D01*
X155020Y350689D02*
X161122D01*
X155020Y347342D02*
Y350689D01*
Y347342D02*
X161122D01*
Y350689D01*
X111781Y332432D02*
X117627Y338278D01*
X165020Y473897D02*
X168779Y470138D01*
X162932Y464292D02*
X168779Y470138D01*
X159174Y468050D02*
X162932Y464292D01*
X159174Y468050D02*
X165020Y473897D01*
X250710Y406162D02*
X254468Y409920D01*
X260314Y404074D01*
X256556Y400316D02*
X260314Y404074D01*
X250710Y406162D02*
X256556Y400316D01*
X108169Y354172D02*
X111516D01*
Y348069D02*
Y354172D01*
X108169Y348069D02*
X111516D01*
X108169D02*
Y354172D01*
X148130Y475295D02*
Y478642D01*
X154232D01*
Y475295D02*
Y478642D01*
X148130Y475295D02*
X154232D01*
X268406Y413287D02*
Y416634D01*
X262303Y413287D02*
X268406D01*
X262303D02*
Y416634D01*
X268406D01*
X227088Y390414D02*
X230846Y394172D01*
X236692Y388326D01*
X232934Y384568D02*
X236692Y388326D01*
X227088Y390414D02*
X232934Y384568D01*
X166064Y435570D02*
X169822Y431812D01*
X166064Y435570D02*
X171910Y441416D01*
X175668Y437658D01*
X169822Y431812D02*
X175668Y437658D01*
X216437Y400295D02*
X219783D01*
Y394193D02*
Y400295D01*
X216437Y394193D02*
X219783D01*
X216437D02*
Y400295D01*
X177067Y425689D02*
X180413D01*
X177067D02*
Y431791D01*
X180413D01*
Y425689D02*
Y431791D01*
X108023Y336190D02*
X111781Y332432D01*
X108023Y336190D02*
X113869Y342037D01*
X117627Y338278D01*
X344035Y330434D02*
X349881Y336280D01*
X346123Y340038D02*
X349881Y336280D01*
X340277Y334192D02*
X346123Y340038D01*
X340277Y334192D02*
X344035Y330434D01*
X353839Y350689D02*
X359941D01*
X353839Y347342D02*
Y350689D01*
Y347342D02*
X359941D01*
Y350689D01*
X310600Y332432D02*
X316446Y338278D01*
X363839Y473897D02*
X367598Y470138D01*
X361751Y464292D02*
X367598Y470138D01*
X357993Y468050D02*
X361751Y464292D01*
X357993Y468050D02*
X363839Y473897D01*
X449529Y406162D02*
X453287Y409920D01*
X459133Y404074D01*
X455375Y400316D02*
X459133Y404074D01*
X449529Y406162D02*
X455375Y400316D01*
X306988Y354172D02*
X310335D01*
Y348069D02*
Y354172D01*
X306988Y348069D02*
X310335D01*
X306988D02*
Y354172D01*
X346949Y475295D02*
Y478642D01*
X353051D01*
Y475295D02*
Y478642D01*
X346949Y475295D02*
X353051D01*
X467224Y413287D02*
Y416634D01*
X461122Y413287D02*
X467224D01*
X461122D02*
Y416634D01*
X467224D01*
X425907Y390414D02*
X429665Y394172D01*
X435511Y388326D01*
X431753Y384568D02*
X435511Y388326D01*
X425907Y390414D02*
X431753Y384568D01*
X364883Y435570D02*
X368641Y431812D01*
X364883Y435570D02*
X370729Y441416D01*
X374487Y437658D01*
X368641Y431812D02*
X374487Y437658D01*
X415256Y400295D02*
X418602D01*
Y394193D02*
Y400295D01*
X415256Y394193D02*
X418602D01*
X415256D02*
Y400295D01*
X375886Y425689D02*
X379232D01*
X375886D02*
Y431791D01*
X379232D01*
Y425689D02*
Y431791D01*
X306842Y336190D02*
X310600Y332432D01*
X306842Y336190D02*
X312688Y342037D01*
X316446Y338278D01*
M02*
