G04*
G04 #@! TF.GenerationSoftware,Altium Limited,Altium Designer,23.1.1 (15)*
G04*
G04 Layer_Color=128*
%FSLAX44Y44*%
%MOMM*%
G71*
G04*
G04 #@! TF.SameCoordinates,76C6093D-9881-4B20-89D2-928948A7DA56*
G04*
G04*
G04 #@! TF.FilePolarity,Positive*
G04*
G01*
G75*
%ADD35C,0.1270*%
D35*
X164700Y60000D02*
X183200D01*
X173950Y50750D02*
Y69250D01*
X296800Y60000D02*
X315300D01*
X306050Y50750D02*
Y69250D01*
X85500Y60000D02*
X94500D01*
X90000Y55500D02*
Y64500D01*
X67446Y36041D02*
X76446D01*
X71946Y31541D02*
Y40541D01*
X326966Y379720D02*
X330466D01*
X328716Y377970D02*
Y381470D01*
X322394Y385816D02*
X325894D01*
X324144Y384066D02*
Y387566D01*
X317568Y391658D02*
X321068D01*
X319318Y389908D02*
Y393408D01*
X313250Y397500D02*
X316750D01*
X315000Y395750D02*
Y399250D01*
X308932Y403342D02*
X312432D01*
X310682Y401592D02*
Y405092D01*
X181458Y392526D02*
X184958D01*
X183208Y390776D02*
Y394276D01*
X176886Y386684D02*
X180386D01*
X178636Y384934D02*
Y388434D01*
X172568Y380842D02*
X176068D01*
X174318Y379092D02*
Y382592D01*
X168250Y375000D02*
X171750D01*
X170000Y373250D02*
Y376750D01*
X163424Y369412D02*
X166924D01*
X165174Y367662D02*
Y371162D01*
X278944Y172500D02*
X286056D01*
X282500Y168944D02*
Y176056D01*
X278944Y287500D02*
X286056D01*
X282500Y283944D02*
Y291056D01*
X193944Y172500D02*
X201056D01*
X197500Y168944D02*
Y176056D01*
X193944Y285000D02*
X201056D01*
X197500Y281444D02*
Y288556D01*
X56444Y367500D02*
X63556D01*
X60000Y363944D02*
Y371056D01*
X13944Y182500D02*
X21056D01*
X17500Y178944D02*
Y186056D01*
X461444Y127500D02*
X468556D01*
X465000Y123944D02*
Y131056D01*
X456444Y317500D02*
X463556D01*
X460000Y313944D02*
Y321056D01*
X295216Y390614D02*
X298716D01*
X296966Y388864D02*
Y392364D01*
X299788Y384772D02*
X303288D01*
X301538Y383022D02*
Y386522D01*
X304106Y378930D02*
X307606D01*
X305856Y377180D02*
Y380680D01*
X308424Y373088D02*
X311924D01*
X310174Y371338D02*
Y374838D01*
X313250Y367500D02*
X316750D01*
X315000Y365750D02*
Y369250D01*
X150216Y378878D02*
X153716D01*
X151966Y377128D02*
Y380628D01*
X154788Y384974D02*
X158288D01*
X156538Y383224D02*
Y386724D01*
X159614Y390816D02*
X163114D01*
X161364Y389066D02*
Y392566D01*
X163932Y396658D02*
X167432D01*
X165682Y394908D02*
Y398408D01*
X168250Y402500D02*
X171750D01*
X170000Y400750D02*
Y404250D01*
M02*
