G04*
G04 #@! TF.GenerationSoftware,Altium Limited,Altium Designer,23.1.1 (15)*
G04*
G04 Layer_Color=8388736*
%FSLAX44Y44*%
%MOMM*%
G71*
G04*
G04 #@! TF.SameCoordinates,76C6093D-9881-4B20-89D2-928948A7DA56*
G04*
G04*
G04 #@! TF.FilePolarity,Negative*
G04*
G01*
G75*
G04:AMPARAMS|DCode=14|XSize=0.7mm|YSize=1.5mm|CornerRadius=0mm|HoleSize=0mm|Usage=FLASHONLY|Rotation=233.000|XOffset=0mm|YOffset=0mm|HoleType=Round|Shape=Rectangle|*
%AMROTATEDRECTD14*
4,1,4,-0.3883,0.7309,0.8096,-0.1718,0.3883,-0.7309,-0.8096,0.1718,-0.3883,0.7309,0.0*
%
%ADD14ROTATEDRECTD14*%

G04:AMPARAMS|DCode=15|XSize=1mm|YSize=0.8mm|CornerRadius=0mm|HoleSize=0mm|Usage=FLASHONLY|Rotation=233.000|XOffset=0mm|YOffset=0mm|HoleType=Round|Shape=Rectangle|*
%AMROTATEDRECTD15*
4,1,4,-0.0186,0.6401,0.6204,0.1586,0.0186,-0.6401,-0.6204,-0.1586,-0.0186,0.6401,0.0*
%
%ADD15ROTATEDRECTD15*%

%ADD16R,0.9621X0.9350*%
%ADD18P,1.6971X4X360.0*%
%ADD19P,1.6971X4X90.0*%
%ADD20R,0.9350X0.9621*%
%ADD21R,4.1632X4.1632*%
%ADD22R,2.2032X4.2032*%
%ADD23C,2.5532*%
%ADD24R,2.5532X2.5532*%
%ADD25C,0.9000*%
%ADD26C,0.7032*%
%ADD27C,1.4732*%
D14*
X90435Y31499D02*
D03*
X81408Y19519D02*
D03*
X108490Y55458D02*
D03*
D15*
X110646Y71363D02*
D03*
X66713Y13063D02*
D03*
X95232Y82978D02*
D03*
X51300Y24678D02*
D03*
D16*
X437500Y189654D02*
D03*
Y175346D02*
D03*
X275000Y342154D02*
D03*
Y327846D02*
D03*
X182351Y218730D02*
D03*
Y204422D02*
D03*
X77500Y297846D02*
D03*
Y312154D02*
D03*
X350000Y452154D02*
D03*
Y437846D02*
D03*
D18*
X324849Y435151D02*
D03*
X310000Y450000D02*
D03*
Y340000D02*
D03*
X295151Y354849D02*
D03*
X427425Y22575D02*
D03*
X412575Y37425D02*
D03*
X424849Y140151D02*
D03*
X410000Y155000D02*
D03*
D19*
X152425Y237425D02*
D03*
X137575Y222575D02*
D03*
X85075Y257575D02*
D03*
X99925Y272425D02*
D03*
D20*
X382154Y35000D02*
D03*
X367846D02*
D03*
D21*
X240000Y60000D02*
D03*
D22*
X255000Y205000D02*
D03*
Y255800D02*
D03*
X225000Y205000D02*
D03*
Y255800D02*
D03*
X465000Y275800D02*
D03*
Y225000D02*
D03*
X15000Y229200D02*
D03*
Y280000D02*
D03*
D23*
X173950Y60000D02*
D03*
D24*
X306050D02*
D03*
D25*
X90000D02*
D03*
X71946Y36041D02*
D03*
D26*
X328716Y379720D02*
D03*
X324144Y385816D02*
D03*
X319318Y391658D02*
D03*
X315000Y397500D02*
D03*
X310682Y403342D02*
D03*
X183208Y392526D02*
D03*
X178636Y386684D02*
D03*
X174318Y380842D02*
D03*
X170000Y375000D02*
D03*
X165174Y369412D02*
D03*
X296966Y390614D02*
D03*
X301538Y384772D02*
D03*
X305856Y378930D02*
D03*
X310174Y373088D02*
D03*
X315000Y367500D02*
D03*
X151966Y378878D02*
D03*
X156538Y384974D02*
D03*
X161364Y390816D02*
D03*
X165682Y396658D02*
D03*
X170000Y402500D02*
D03*
D27*
X282500Y172500D02*
D03*
Y287500D02*
D03*
X197500Y172500D02*
D03*
Y285000D02*
D03*
X60000Y367500D02*
D03*
X17500Y182500D02*
D03*
X465000Y127500D02*
D03*
X460000Y317500D02*
D03*
M02*
