%FSTAX23Y23*%
%MOIN*%
%SFA1B1*%

%IPPOS*%
%ADD33C,0.005000*%
%LNpcb_panel_v3-1*%
%LPD*%
G54D33*
X02899Y01943D02*
X02913D01*
X02906Y01936D02*
Y0195D01*
X02899Y01973D02*
X02913D01*
X02906Y01966D02*
Y0198D01*
X02899Y02003D02*
X02913D01*
X02906Y01996D02*
Y0201D01*
X02899Y02033D02*
X02913D01*
X02906Y02026D02*
Y0204D01*
X02969Y02033D02*
X02983D01*
X02976Y02026D02*
Y0204D01*
X02969Y01973D02*
X02983D01*
X02976Y01966D02*
Y0198D01*
X02969Y01943D02*
X02983D01*
X02976Y01936D02*
Y0195D01*
X02969Y02003D02*
X02983D01*
X02976Y01996D02*
Y0201D01*
X02972Y04028D02*
X02986D01*
X02979Y04021D02*
Y04035D01*
X02972Y03998D02*
X02986D01*
X02979Y03991D02*
Y04005D01*
X02972Y03968D02*
X02986D01*
X02979Y03961D02*
Y03975D01*
X02972Y03938D02*
X02986D01*
X02979Y03931D02*
Y03945D01*
X02902Y03938D02*
X02916D01*
X02909Y03931D02*
Y03945D01*
X02902Y03998D02*
X02916D01*
X02909Y03991D02*
Y04005D01*
X02902Y04028D02*
X02916D01*
X02909Y04021D02*
Y04035D01*
X02902Y03968D02*
X02916D01*
X02909Y03961D02*
Y03975D01*
X04523Y029D02*
X04536D01*
X0453Y02893D02*
Y02906D01*
X04493Y029D02*
X04506D01*
X045Y02893D02*
Y02906D01*
X04463Y029D02*
X04476D01*
X0447Y02893D02*
Y02906D01*
X04433Y029D02*
X04446D01*
X0444Y02893D02*
Y02906D01*
X04433Y0297D02*
X04446D01*
X0444Y02963D02*
Y02976D01*
X04493Y0297D02*
X04506D01*
X045Y02963D02*
Y02976D01*
X04523Y0297D02*
X04536D01*
X0453Y02963D02*
Y02976D01*
X04463Y0297D02*
X04476D01*
X0447Y02963D02*
Y02976D01*
X03593Y0297D02*
X03606D01*
X036Y02963D02*
Y02976D01*
X03653Y0297D02*
X03666D01*
X0366Y02963D02*
Y02976D01*
X03623Y0297D02*
X03636D01*
X0363Y02963D02*
Y02976D01*
X03563Y0297D02*
X03576D01*
X0357Y02963D02*
Y02976D01*
X03563Y029D02*
X03576D01*
X0357Y02893D02*
Y02906D01*
X03593Y029D02*
X03606D01*
X036Y02893D02*
Y02906D01*
X03623Y029D02*
X03636D01*
X0363Y02893D02*
Y02906D01*
X03653Y029D02*
X03666D01*
X0366Y02893D02*
Y02906D01*
X02343Y0297D02*
X02356D01*
X0235Y02963D02*
Y02976D01*
X02373Y0297D02*
X02386D01*
X0238Y02963D02*
Y02976D01*
X02403Y0297D02*
X02416D01*
X0241Y02963D02*
Y02976D01*
X02433Y0297D02*
X02446D01*
X0244Y02963D02*
Y02976D01*
X02433Y029D02*
X02446D01*
X0244Y02893D02*
Y02906D01*
X02373Y029D02*
X02386D01*
X0238Y02893D02*
Y02906D01*
X02343Y029D02*
X02356D01*
X0235Y02893D02*
Y02906D01*
X02403Y029D02*
X02416D01*
X0241Y02893D02*
Y02906D01*
X01533Y029D02*
X01546D01*
X0154Y02893D02*
Y02906D01*
X01473Y029D02*
X01486D01*
X0148Y02893D02*
Y02906D01*
X01503Y029D02*
X01516D01*
X0151Y02893D02*
Y02906D01*
X01563Y029D02*
X01576D01*
X0157Y02893D02*
Y02906D01*
X01563Y0297D02*
X01576D01*
X0157Y02963D02*
Y02976D01*
X01533Y0297D02*
X01546D01*
X0154Y02963D02*
Y02976D01*
X01503Y0297D02*
X01516D01*
X0151Y02963D02*
Y02976D01*
X01473Y0297D02*
X01486D01*
X0148Y02963D02*
Y02976D01*
X01648Y01236D02*
X01721D01*
X01684Y01199D02*
Y01272D01*
X02168Y01236D02*
X02241D01*
X02204Y01199D02*
Y01272D01*
X01336Y01236D02*
X01372D01*
X01354Y01218D02*
Y01253D01*
X01265Y01141D02*
X013D01*
X01283Y01124D02*
Y01159D01*
X01871Y02149D02*
X01899D01*
X01885Y02135D02*
Y02163D01*
X02287Y02494D02*
X02301D01*
X02294Y02488D02*
Y02501D01*
X02269Y02518D02*
X02283D01*
X02276Y02512D02*
Y02525D01*
X0225Y02541D02*
X02264D01*
X02257Y02535D02*
Y02548D01*
X02233Y02564D02*
X02247D01*
X0224Y02558D02*
Y02571D01*
X02216Y02587D02*
X0223D01*
X02223Y02581D02*
Y02594D01*
X01714Y02545D02*
X01728D01*
X01721Y02538D02*
Y02552D01*
X01696Y02522D02*
X0171D01*
X01703Y02515D02*
Y02529D01*
X01679Y02499D02*
X01693D01*
X01686Y02492D02*
Y02506D01*
X01662Y02476D02*
X01676D01*
X01669Y02469D02*
Y02483D01*
X01643Y02454D02*
X01657D01*
X0165Y02447D02*
Y02461D01*
X02098Y01679D02*
X02126D01*
X02112Y01665D02*
Y01693D01*
X02098Y02131D02*
X02126D01*
X02112Y02117D02*
Y02145D01*
X01763Y01679D02*
X01791D01*
X01777Y01665D02*
Y01693D01*
X01763Y02122D02*
X01791D01*
X01777Y02108D02*
Y02136D01*
X01222Y02446D02*
X0125D01*
X01236Y02432D02*
Y0246D01*
X01054Y01718D02*
X01082D01*
X01068Y01704D02*
Y01732D01*
X02816Y01501D02*
X02844D01*
X0283Y01487D02*
Y01515D01*
X02797Y0225D02*
X02825D01*
X02811Y02236D02*
Y02264D01*
X02162Y02537D02*
X02176D01*
X02169Y0253D02*
Y02544D01*
X0218Y02514D02*
X02194D01*
X02187Y02507D02*
Y02521D01*
X02197Y02491D02*
X02211D01*
X02204Y02484D02*
Y02498D01*
X02214Y02468D02*
X02228D01*
X02221Y02461D02*
Y02475D01*
X02233Y02446D02*
X02247D01*
X0224Y02439D02*
Y02453D01*
X01591Y02491D02*
X01605D01*
X01598Y02484D02*
Y02498D01*
X01609Y02515D02*
X01623D01*
X01616Y02508D02*
Y02522D01*
X01628Y02538D02*
X01642D01*
X01635Y02531D02*
Y02545D01*
X01645Y02561D02*
X01659D01*
X01652Y02554D02*
Y02568D01*
X01662Y02584D02*
X01676D01*
X01669Y02577D02*
Y02591D01*
X03636Y01236D02*
X03709D01*
X03673Y01199D02*
Y01272D01*
X04156Y01236D02*
X04229D01*
X04193Y01199D02*
Y01272D01*
X03324Y01236D02*
X0336D01*
X03342Y01218D02*
Y01253D01*
X03253Y01141D02*
X03289D01*
X03271Y01124D02*
Y01159D01*
X0386Y02149D02*
X03888D01*
X03874Y02135D02*
Y02163D01*
X04275Y02494D02*
X04289D01*
X04282Y02488D02*
Y02501D01*
X04257Y02518D02*
X04271D01*
X04264Y02512D02*
Y02525D01*
X04238Y02541D02*
X04252D01*
X04245Y02535D02*
Y02548D01*
X04221Y02564D02*
X04235D01*
X04228Y02558D02*
Y02571D01*
X04204Y02587D02*
X04218D01*
X04211Y02581D02*
Y02594D01*
X03702Y02545D02*
X03716D01*
X03709Y02538D02*
Y02552D01*
X03684Y02522D02*
X03698D01*
X03691Y02515D02*
Y02529D01*
X03667Y02499D02*
X03681D01*
X03674Y02492D02*
Y02506D01*
X0365Y02476D02*
X03664D01*
X03657Y02469D02*
Y02483D01*
X03631Y02454D02*
X03645D01*
X03638Y02447D02*
Y02461D01*
X04086Y01679D02*
X04114D01*
X041Y01665D02*
Y01693D01*
X04086Y02131D02*
X04114D01*
X041Y02117D02*
Y02145D01*
X03751Y01679D02*
X03779D01*
X03765Y01665D02*
Y01693D01*
X03751Y02122D02*
X03779D01*
X03765Y02108D02*
Y02136D01*
X0321Y02446D02*
X03238D01*
X03224Y02432D02*
Y0246D01*
X03043Y01718D02*
X03071D01*
X03057Y01704D02*
Y01732D01*
X04804Y01501D02*
X04832D01*
X04818Y01487D02*
Y01515D01*
X04785Y0225D02*
X04813D01*
X04799Y02236D02*
Y02264D01*
X0415Y02537D02*
X04164D01*
X04157Y0253D02*
Y02544D01*
X04168Y02514D02*
X04182D01*
X04175Y02507D02*
Y02521D01*
X04185Y02491D02*
X04199D01*
X04192Y02484D02*
Y02498D01*
X04202Y02468D02*
X04216D01*
X04209Y02461D02*
Y02475D01*
X04221Y02446D02*
X04235D01*
X04228Y02439D02*
Y02453D01*
X03579Y02491D02*
X03593D01*
X03586Y02484D02*
Y02498D01*
X03597Y02515D02*
X03611D01*
X03604Y02508D02*
Y02522D01*
X03616Y02538D02*
X0363D01*
X03623Y02531D02*
Y02545D01*
X03633Y02561D02*
X03647D01*
X0364Y02554D02*
Y02568D01*
X0365Y02584D02*
X03664D01*
X03657Y02577D02*
Y02591D01*
X01648Y03224D02*
X01721D01*
X01684Y03187D02*
Y0326D01*
X02168Y03224D02*
X02241D01*
X02204Y03187D02*
Y0326D01*
X01336Y03224D02*
X01372D01*
X01354Y03206D02*
Y03242D01*
X01265Y0313D02*
X013D01*
X01283Y03112D02*
Y03147D01*
X01871Y04137D02*
X01899D01*
X01885Y04123D02*
Y04151D01*
X02287Y04483D02*
X02301D01*
X02294Y04476D02*
Y0449D01*
X02269Y04507D02*
X02283D01*
X02276Y045D02*
Y04514D01*
X0225Y0453D02*
X02264D01*
X02257Y04523D02*
Y04537D01*
X02233Y04553D02*
X02247D01*
X0224Y04546D02*
Y0456D01*
X02216Y04576D02*
X0223D01*
X02223Y04569D02*
Y04583D01*
X01714Y04533D02*
X01728D01*
X01721Y04526D02*
Y0454D01*
X01696Y0451D02*
X0171D01*
X01703Y04503D02*
Y04517D01*
X01679Y04487D02*
X01693D01*
X01686Y0448D02*
Y04494D01*
X01662Y04464D02*
X01676D01*
X01669Y04457D02*
Y04471D01*
X01643Y04442D02*
X01657D01*
X0165Y04435D02*
Y04449D01*
X02098Y03667D02*
X02126D01*
X02112Y03653D02*
Y03681D01*
X02098Y0412D02*
X02126D01*
X02112Y04106D02*
Y04134D01*
X01763Y03667D02*
X01791D01*
X01777Y03653D02*
Y03681D01*
X01763Y0411D02*
X01791D01*
X01777Y04096D02*
Y04124D01*
X01222Y04435D02*
X0125D01*
X01236Y04421D02*
Y04449D01*
X01054Y03706D02*
X01082D01*
X01068Y03692D02*
Y0372D01*
X02816Y0349D02*
X02844D01*
X0283Y03476D02*
Y03504D01*
X02797Y04238D02*
X02825D01*
X02811Y04224D02*
Y04252D01*
X02162Y04526D02*
X02176D01*
X02169Y04519D02*
Y04532D01*
X0218Y04503D02*
X02194D01*
X02187Y04496D02*
Y04509D01*
X02197Y0448D02*
X02211D01*
X02204Y04473D02*
Y04486D01*
X02214Y04457D02*
X02228D01*
X02221Y0445D02*
Y04463D01*
X02233Y04435D02*
X02247D01*
X0224Y04428D02*
Y04441D01*
X01591Y04479D02*
X01605D01*
X01598Y04472D02*
Y04486D01*
X01609Y04503D02*
X01623D01*
X01616Y04496D02*
Y0451D01*
X01628Y04526D02*
X01642D01*
X01635Y04519D02*
Y04533D01*
X01645Y04549D02*
X01659D01*
X01652Y04542D02*
Y04556D01*
X01662Y04572D02*
X01676D01*
X01669Y04565D02*
Y04579D01*
X03636Y03224D02*
X03709D01*
X03673Y03187D02*
Y0326D01*
X04156Y03224D02*
X04229D01*
X04193Y03187D02*
Y0326D01*
X03324Y03224D02*
X0336D01*
X03342Y03206D02*
Y03242D01*
X03253Y0313D02*
X03289D01*
X03271Y03112D02*
Y03147D01*
X0386Y04137D02*
X03888D01*
X03874Y04123D02*
Y04151D01*
X04275Y04483D02*
X04289D01*
X04282Y04476D02*
Y0449D01*
X04257Y04507D02*
X04271D01*
X04264Y045D02*
Y04514D01*
X04238Y0453D02*
X04252D01*
X04245Y04523D02*
Y04537D01*
X04221Y04553D02*
X04235D01*
X04228Y04546D02*
Y0456D01*
X04204Y04576D02*
X04218D01*
X04211Y04569D02*
Y04583D01*
X03702Y04533D02*
X03716D01*
X03709Y04526D02*
Y0454D01*
X03684Y0451D02*
X03698D01*
X03691Y04503D02*
Y04517D01*
X03667Y04487D02*
X03681D01*
X03674Y0448D02*
Y04494D01*
X0365Y04464D02*
X03664D01*
X03657Y04457D02*
Y04471D01*
X03631Y04442D02*
X03645D01*
X03638Y04435D02*
Y04449D01*
X04086Y03667D02*
X04114D01*
X041Y03653D02*
Y03681D01*
X04086Y0412D02*
X04114D01*
X041Y04106D02*
Y04134D01*
X03751Y03667D02*
X03779D01*
X03765Y03653D02*
Y03681D01*
X03751Y0411D02*
X03779D01*
X03765Y04096D02*
Y04124D01*
X0321Y04435D02*
X03238D01*
X03224Y04421D02*
Y04449D01*
X03043Y03706D02*
X03071D01*
X03057Y03692D02*
Y0372D01*
X04804Y0349D02*
X04832D01*
X04818Y03476D02*
Y03504D01*
X04785Y04238D02*
X04813D01*
X04799Y04224D02*
Y04252D01*
X0415Y04526D02*
X04164D01*
X04157Y04519D02*
Y04532D01*
X04168Y04503D02*
X04182D01*
X04175Y04496D02*
Y04509D01*
X04185Y0448D02*
X04199D01*
X04192Y04473D02*
Y04486D01*
X04202Y04457D02*
X04216D01*
X04209Y0445D02*
Y04463D01*
X04221Y04435D02*
X04235D01*
X04228Y04428D02*
Y04441D01*
X03579Y04479D02*
X03593D01*
X03586Y04472D02*
Y04486D01*
X03597Y04503D02*
X03611D01*
X03604Y04496D02*
Y0451D01*
X03616Y04526D02*
X0363D01*
X03623Y04519D02*
Y04533D01*
X03633Y04549D02*
X03647D01*
X0364Y04542D02*
Y04556D01*
X0365Y04572D02*
X03664D01*
X03657Y04565D02*
Y04579D01*
M02*