%FSTAX23Y23*%
%MOIN*%
%SFA1B1*%

%IPPOS*%
%ADD33C,0.005000*%
%ADD35C,0.006670*%
%LNpcb_panel_v3-1*%
%LPD*%
G54D33*
X02906Y01923D02*
X02886Y01963D01*
X02926*
X02906Y01923*
Y01953D02*
X02886Y01993D01*
X02926*
X02906Y01953*
Y01983D02*
X02886Y02023D01*
X02926*
X02906Y01983*
Y02013D02*
X02886Y02053D01*
X02926*
X02906Y02013*
X02976D02*
X02956Y02053D01*
X02996*
X02976Y02013*
Y01953D02*
X02956Y01993D01*
X02996*
X02976Y01953*
Y01923D02*
X02956Y01963D01*
X02996*
X02976Y01923*
Y01983D02*
X02956Y02023D01*
X02996*
X02976Y01983*
X02979Y04008D02*
X02959Y04048D01*
X02999*
X02979Y04008*
Y03978D02*
X02959Y04018D01*
X02999*
X02979Y03978*
Y03948D02*
X02959Y03988D01*
X02999*
X02979Y03948*
Y03918D02*
X02959Y03958D01*
X02999*
X02979Y03918*
X02909D02*
X02889Y03958D01*
X02929*
X02909Y03918*
Y03978D02*
X02889Y04018D01*
X02929*
X02909Y03978*
Y04008D02*
X02889Y04048D01*
X02929*
X02909Y04008*
Y03948D02*
X02889Y03988D01*
X02929*
X02909Y03948*
X0453Y0288D02*
X0451Y0292D01*
X0455*
X0453Y0288*
X045D02*
X0448Y0292D01*
X0452*
X045Y0288*
X0447D02*
X0445Y0292D01*
X0449*
X0447Y0288*
X0444D02*
X0442Y0292D01*
X0446*
X0444Y0288*
Y0295D02*
X0442Y0299D01*
X0446*
X0444Y0295*
X045D02*
X0448Y0299D01*
X0452*
X045Y0295*
X0453D02*
X0451Y0299D01*
X0455*
X0453Y0295*
X0447D02*
X0445Y0299D01*
X0449*
X0447Y0295*
X036D02*
X0358Y0299D01*
X0362*
X036Y0295*
X0366D02*
X0364Y0299D01*
X0368*
X0366Y0295*
X0363D02*
X0361Y0299D01*
X0365*
X0363Y0295*
X0357D02*
X0355Y0299D01*
X0359*
X0357Y0295*
Y0288D02*
X0355Y0292D01*
X0359*
X0357Y0288*
X036D02*
X0358Y0292D01*
X0362*
X036Y0288*
X0363D02*
X0361Y0292D01*
X0365*
X0363Y0288*
X0366D02*
X0364Y0292D01*
X0368*
X0366Y0288*
X0235Y0295D02*
X0233Y0299D01*
X0237*
X0235Y0295*
X0238D02*
X0236Y0299D01*
X024*
X0238Y0295*
X0241D02*
X0239Y0299D01*
X0243*
X0241Y0295*
X0244D02*
X0242Y0299D01*
X0246*
X0244Y0295*
Y0288D02*
X0242Y0292D01*
X0246*
X0244Y0288*
X0238D02*
X0236Y0292D01*
X024*
X0238Y0288*
X0235D02*
X0233Y0292D01*
X0237*
X0235Y0288*
X0241D02*
X0239Y0292D01*
X0243*
X0241Y0288*
X0154D02*
X0152Y0292D01*
X0156*
X0154Y0288*
X0148D02*
X0146Y0292D01*
X015*
X0148Y0288*
X0151D02*
X0149Y0292D01*
X0153*
X0151Y0288*
X0157D02*
X0155Y0292D01*
X0159*
X0157Y0288*
Y0295D02*
X0155Y0299D01*
X0159*
X0157Y0295*
X0154D02*
X0152Y0299D01*
X0156*
X0154Y0295*
X0151D02*
X0149Y0299D01*
X0153*
X0151Y0295*
X0148D02*
X0146Y0299D01*
X015*
X0148Y0295*
X01334Y01216D02*
Y01256D01*
X01374*
Y01216*
X01334*
X01263Y01121D02*
Y01161D01*
X01303*
Y01121*
X01263*
X01885Y02129D02*
X01895Y02139D01*
X01905*
X01895Y02149*
X01905Y02159*
X01895*
X01885Y02169*
X01875Y02159*
X01865*
X01875Y02149*
X01865Y02139*
X01875*
X01885Y02129*
X02294Y02474D02*
X02274Y02514D01*
X02314*
X02294Y02474*
X02276Y02498D02*
X02256Y02538D01*
X02296*
X02276Y02498*
X02257Y02521D02*
X02237Y02561D01*
X02277*
X02257Y02521*
X0224Y02544D02*
X0222Y02584D01*
X0226*
X0224Y02544*
X02223Y02567D02*
X02203Y02607D01*
X02243*
X02223Y02567*
X01721Y02525D02*
X01701Y02565D01*
X01741*
X01721Y02525*
X01703Y02502D02*
X01683Y02542D01*
X01723*
X01703Y02502*
X01686Y02479D02*
X01666Y02519D01*
X01706*
X01686Y02479*
X01669Y02456D02*
X01649Y02496D01*
X01689*
X01669Y02456*
X0165Y02434D02*
X0163Y02474D01*
X0167*
X0165Y02434*
X02112Y01659D02*
X02122Y01669D01*
X02132*
X02122Y01679*
X02132Y01689*
X02122*
X02112Y01699*
X02102Y01689*
X02092*
X02102Y01679*
X02092Y01669*
X02102*
X02112Y01659*
Y02111D02*
X02122Y02121D01*
X02132*
X02122Y02131*
X02132Y02141*
X02122*
X02112Y02151*
X02102Y02141*
X02092*
X02102Y02131*
X02092Y02121*
X02102*
X02112Y02111*
X01777Y01659D02*
X01787Y01669D01*
X01797*
X01787Y01679*
X01797Y01689*
X01787*
X01777Y01699*
X01767Y01689*
X01757*
X01767Y01679*
X01757Y01669*
X01767*
X01777Y01659*
Y02102D02*
X01787Y02112D01*
X01797*
X01787Y02122*
X01797Y02132*
X01787*
X01777Y02142*
X01767Y02132*
X01757*
X01767Y02122*
X01757Y02112*
X01767*
X01777Y02102*
X01236Y02426D02*
X01246Y02436D01*
X01256*
X01246Y02446*
X01256Y02456*
X01246*
X01236Y02466*
X01226Y02456*
X01216*
X01226Y02446*
X01216Y02436*
X01226*
X01236Y02426*
X01068Y01698D02*
X01078Y01708D01*
X01088*
X01078Y01718*
X01088Y01728*
X01078*
X01068Y01738*
X01058Y01728*
X01048*
X01058Y01718*
X01048Y01708*
X01058*
X01068Y01698*
X0283Y01481D02*
X0284Y01491D01*
X0285*
X0284Y01501*
X0285Y01511*
X0284*
X0283Y01521*
X0282Y01511*
X0281*
X0282Y01501*
X0281Y01491*
X0282*
X0283Y01481*
X02811Y0223D02*
X02821Y0224D01*
X02831*
X02821Y0225*
X02831Y0226*
X02821*
X02811Y0227*
X02801Y0226*
X02791*
X02801Y0225*
X02791Y0224*
X02801*
X02811Y0223*
X02169Y02517D02*
X02149Y02557D01*
X02189*
X02169Y02517*
X02187Y02494D02*
X02167Y02534D01*
X02207*
X02187Y02494*
X02204Y02471D02*
X02184Y02511D01*
X02224*
X02204Y02471*
X02221Y02448D02*
X02201Y02488D01*
X02241*
X02221Y02448*
X0224Y02426D02*
X0222Y02466D01*
X0226*
X0224Y02426*
X01598Y02471D02*
X01578Y02511D01*
X01618*
X01598Y02471*
X01616Y02495D02*
X01596Y02535D01*
X01636*
X01616Y02495*
X01635Y02518D02*
X01615Y02558D01*
X01655*
X01635Y02518*
X01652Y02541D02*
X01632Y02581D01*
X01672*
X01652Y02541*
X01669Y02564D02*
X01649Y02604D01*
X01689*
X01669Y02564*
X03322Y01216D02*
Y01256D01*
X03362*
Y01216*
X03322*
X03251Y01121D02*
Y01161D01*
X03291*
Y01121*
X03251*
X03874Y02129D02*
X03884Y02139D01*
X03894*
X03884Y02149*
X03894Y02159*
X03884*
X03874Y02169*
X03864Y02159*
X03854*
X03864Y02149*
X03854Y02139*
X03864*
X03874Y02129*
X04282Y02474D02*
X04262Y02514D01*
X04302*
X04282Y02474*
X04264Y02498D02*
X04244Y02538D01*
X04284*
X04264Y02498*
X04245Y02521D02*
X04225Y02561D01*
X04265*
X04245Y02521*
X04228Y02544D02*
X04208Y02584D01*
X04248*
X04228Y02544*
X04211Y02567D02*
X04191Y02607D01*
X04231*
X04211Y02567*
X03709Y02525D02*
X03689Y02565D01*
X03729*
X03709Y02525*
X03691Y02502D02*
X03671Y02542D01*
X03711*
X03691Y02502*
X03674Y02479D02*
X03654Y02519D01*
X03694*
X03674Y02479*
X03657Y02456D02*
X03637Y02496D01*
X03677*
X03657Y02456*
X03638Y02434D02*
X03618Y02474D01*
X03658*
X03638Y02434*
X041Y01659D02*
X0411Y01669D01*
X0412*
X0411Y01679*
X0412Y01689*
X0411*
X041Y01699*
X0409Y01689*
X0408*
X0409Y01679*
X0408Y01669*
X0409*
X041Y01659*
Y02111D02*
X0411Y02121D01*
X0412*
X0411Y02131*
X0412Y02141*
X0411*
X041Y02151*
X0409Y02141*
X0408*
X0409Y02131*
X0408Y02121*
X0409*
X041Y02111*
X03765Y01659D02*
X03775Y01669D01*
X03785*
X03775Y01679*
X03785Y01689*
X03775*
X03765Y01699*
X03755Y01689*
X03745*
X03755Y01679*
X03745Y01669*
X03755*
X03765Y01659*
Y02102D02*
X03775Y02112D01*
X03785*
X03775Y02122*
X03785Y02132*
X03775*
X03765Y02142*
X03755Y02132*
X03745*
X03755Y02122*
X03745Y02112*
X03755*
X03765Y02102*
X03224Y02426D02*
X03234Y02436D01*
X03244*
X03234Y02446*
X03244Y02456*
X03234*
X03224Y02466*
X03214Y02456*
X03204*
X03214Y02446*
X03204Y02436*
X03214*
X03224Y02426*
X03057Y01698D02*
X03067Y01708D01*
X03077*
X03067Y01718*
X03077Y01728*
X03067*
X03057Y01738*
X03047Y01728*
X03037*
X03047Y01718*
X03037Y01708*
X03047*
X03057Y01698*
X04818Y01481D02*
X04828Y01491D01*
X04838*
X04828Y01501*
X04838Y01511*
X04828*
X04818Y01521*
X04808Y01511*
X04798*
X04808Y01501*
X04798Y01491*
X04808*
X04818Y01481*
X04799Y0223D02*
X04809Y0224D01*
X04819*
X04809Y0225*
X04819Y0226*
X04809*
X04799Y0227*
X04789Y0226*
X04779*
X04789Y0225*
X04779Y0224*
X04789*
X04799Y0223*
X04157Y02517D02*
X04137Y02557D01*
X04177*
X04157Y02517*
X04175Y02494D02*
X04155Y02534D01*
X04195*
X04175Y02494*
X04192Y02471D02*
X04172Y02511D01*
X04212*
X04192Y02471*
X04209Y02448D02*
X04189Y02488D01*
X04229*
X04209Y02448*
X04228Y02426D02*
X04208Y02466D01*
X04248*
X04228Y02426*
X03586Y02471D02*
X03566Y02511D01*
X03606*
X03586Y02471*
X03604Y02495D02*
X03584Y02535D01*
X03624*
X03604Y02495*
X03623Y02518D02*
X03603Y02558D01*
X03643*
X03623Y02518*
X0364Y02541D02*
X0362Y02581D01*
X0366*
X0364Y02541*
X03657Y02564D02*
X03637Y02604D01*
X03677*
X03657Y02564*
X01334Y03204D02*
Y03244D01*
X01374*
Y03204*
X01334*
X01263Y0311D02*
Y0315D01*
X01303*
Y0311*
X01263*
X01885Y04117D02*
X01895Y04127D01*
X01905*
X01895Y04137*
X01905Y04147*
X01895*
X01885Y04157*
X01875Y04147*
X01865*
X01875Y04137*
X01865Y04127*
X01875*
X01885Y04117*
X02294Y04463D02*
X02274Y04503D01*
X02314*
X02294Y04463*
X02276Y04487D02*
X02256Y04527D01*
X02296*
X02276Y04487*
X02257Y0451D02*
X02237Y0455D01*
X02277*
X02257Y0451*
X0224Y04533D02*
X0222Y04573D01*
X0226*
X0224Y04533*
X02223Y04556D02*
X02203Y04596D01*
X02243*
X02223Y04556*
X01721Y04513D02*
X01701Y04553D01*
X01741*
X01721Y04513*
X01703Y0449D02*
X01683Y0453D01*
X01723*
X01703Y0449*
X01686Y04467D02*
X01666Y04507D01*
X01706*
X01686Y04467*
X01669Y04444D02*
X01649Y04484D01*
X01689*
X01669Y04444*
X0165Y04422D02*
X0163Y04462D01*
X0167*
X0165Y04422*
X02112Y03647D02*
X02122Y03657D01*
X02132*
X02122Y03667*
X02132Y03677*
X02122*
X02112Y03687*
X02102Y03677*
X02092*
X02102Y03667*
X02092Y03657*
X02102*
X02112Y03647*
Y041D02*
X02122Y0411D01*
X02132*
X02122Y0412*
X02132Y0413*
X02122*
X02112Y0414*
X02102Y0413*
X02092*
X02102Y0412*
X02092Y0411*
X02102*
X02112Y041*
X01777Y03647D02*
X01787Y03657D01*
X01797*
X01787Y03667*
X01797Y03677*
X01787*
X01777Y03687*
X01767Y03677*
X01757*
X01767Y03667*
X01757Y03657*
X01767*
X01777Y03647*
Y0409D02*
X01787Y041D01*
X01797*
X01787Y0411*
X01797Y0412*
X01787*
X01777Y0413*
X01767Y0412*
X01757*
X01767Y0411*
X01757Y041*
X01767*
X01777Y0409*
X01236Y04415D02*
X01246Y04425D01*
X01256*
X01246Y04435*
X01256Y04445*
X01246*
X01236Y04455*
X01226Y04445*
X01216*
X01226Y04435*
X01216Y04425*
X01226*
X01236Y04415*
X01068Y03686D02*
X01078Y03696D01*
X01088*
X01078Y03706*
X01088Y03716*
X01078*
X01068Y03726*
X01058Y03716*
X01048*
X01058Y03706*
X01048Y03696*
X01058*
X01068Y03686*
X0283Y0347D02*
X0284Y0348D01*
X0285*
X0284Y0349*
X0285Y035*
X0284*
X0283Y0351*
X0282Y035*
X0281*
X0282Y0349*
X0281Y0348*
X0282*
X0283Y0347*
X02811Y04218D02*
X02821Y04228D01*
X02831*
X02821Y04238*
X02831Y04248*
X02821*
X02811Y04258*
X02801Y04248*
X02791*
X02801Y04238*
X02791Y04228*
X02801*
X02811Y04218*
X02169Y04506D02*
X02149Y04546D01*
X02189*
X02169Y04506*
X02187Y04483D02*
X02167Y04523D01*
X02207*
X02187Y04483*
X02204Y0446D02*
X02184Y045D01*
X02224*
X02204Y0446*
X02221Y04437D02*
X02201Y04477D01*
X02241*
X02221Y04437*
X0224Y04415D02*
X0222Y04455D01*
X0226*
X0224Y04415*
X01598Y04459D02*
X01578Y04499D01*
X01618*
X01598Y04459*
X01616Y04483D02*
X01596Y04523D01*
X01636*
X01616Y04483*
X01635Y04506D02*
X01615Y04546D01*
X01655*
X01635Y04506*
X01652Y04529D02*
X01632Y04569D01*
X01672*
X01652Y04529*
X01669Y04552D02*
X01649Y04592D01*
X01689*
X01669Y04552*
X03322Y03204D02*
Y03244D01*
X03362*
Y03204*
X03322*
X03251Y0311D02*
Y0315D01*
X03291*
Y0311*
X03251*
X03874Y04117D02*
X03884Y04127D01*
X03894*
X03884Y04137*
X03894Y04147*
X03884*
X03874Y04157*
X03864Y04147*
X03854*
X03864Y04137*
X03854Y04127*
X03864*
X03874Y04117*
X04282Y04463D02*
X04262Y04503D01*
X04302*
X04282Y04463*
X04264Y04487D02*
X04244Y04527D01*
X04284*
X04264Y04487*
X04245Y0451D02*
X04225Y0455D01*
X04265*
X04245Y0451*
X04228Y04533D02*
X04208Y04573D01*
X04248*
X04228Y04533*
X04211Y04556D02*
X04191Y04596D01*
X04231*
X04211Y04556*
X03709Y04513D02*
X03689Y04553D01*
X03729*
X03709Y04513*
X03691Y0449D02*
X03671Y0453D01*
X03711*
X03691Y0449*
X03674Y04467D02*
X03654Y04507D01*
X03694*
X03674Y04467*
X03657Y04444D02*
X03637Y04484D01*
X03677*
X03657Y04444*
X03638Y04422D02*
X03618Y04462D01*
X03658*
X03638Y04422*
X041Y03647D02*
X0411Y03657D01*
X0412*
X0411Y03667*
X0412Y03677*
X0411*
X041Y03687*
X0409Y03677*
X0408*
X0409Y03667*
X0408Y03657*
X0409*
X041Y03647*
Y041D02*
X0411Y0411D01*
X0412*
X0411Y0412*
X0412Y0413*
X0411*
X041Y0414*
X0409Y0413*
X0408*
X0409Y0412*
X0408Y0411*
X0409*
X041Y041*
X03765Y03647D02*
X03775Y03657D01*
X03785*
X03775Y03667*
X03785Y03677*
X03775*
X03765Y03687*
X03755Y03677*
X03745*
X03755Y03667*
X03745Y03657*
X03755*
X03765Y03647*
Y0409D02*
X03775Y041D01*
X03785*
X03775Y0411*
X03785Y0412*
X03775*
X03765Y0413*
X03755Y0412*
X03745*
X03755Y0411*
X03745Y041*
X03755*
X03765Y0409*
X03224Y04415D02*
X03234Y04425D01*
X03244*
X03234Y04435*
X03244Y04445*
X03234*
X03224Y04455*
X03214Y04445*
X03204*
X03214Y04435*
X03204Y04425*
X03214*
X03224Y04415*
X03057Y03686D02*
X03067Y03696D01*
X03077*
X03067Y03706*
X03077Y03716*
X03067*
X03057Y03726*
X03047Y03716*
X03037*
X03047Y03706*
X03037Y03696*
X03047*
X03057Y03686*
X04818Y0347D02*
X04828Y0348D01*
X04838*
X04828Y0349*
X04838Y035*
X04828*
X04818Y0351*
X04808Y035*
X04798*
X04808Y0349*
X04798Y0348*
X04808*
X04818Y0347*
X04799Y04218D02*
X04809Y04228D01*
X04819*
X04809Y04238*
X04819Y04248*
X04809*
X04799Y04258*
X04789Y04248*
X04779*
X04789Y04238*
X04779Y04228*
X04789*
X04799Y04218*
X04157Y04506D02*
X04137Y04546D01*
X04177*
X04157Y04506*
X04175Y04483D02*
X04155Y04523D01*
X04195*
X04175Y04483*
X04192Y0446D02*
X04172Y045D01*
X04212*
X04192Y0446*
X04209Y04437D02*
X04189Y04477D01*
X04229*
X04209Y04437*
X04228Y04415D02*
X04208Y04455D01*
X04248*
X04228Y04415*
X03586Y04459D02*
X03566Y04499D01*
X03606*
X03586Y04459*
X03604Y04483D02*
X03584Y04523D01*
X03624*
X03604Y04483*
X03623Y04506D02*
X03603Y04546D01*
X03643*
X03623Y04506*
X0364Y04529D02*
X0362Y04569D01*
X0366*
X0364Y04529*
X03657Y04552D02*
X03637Y04592D01*
X03677*
X03657Y04552*
G54D35*
X01704Y01236D02*
D01*
D01*
G75*
G03X01664I-00020J0D01*
G74*G01*
D01*
G75*
G03X01704I00020J0D01*
G74*G01*
X02224D02*
D01*
D01*
G75*
G03X02184I-00020J0D01*
G74*G01*
D01*
G75*
G03X02224I00020J0D01*
G74*G01*
X03693D02*
D01*
D01*
G75*
G03X03653I-00020J0D01*
G74*G01*
D01*
G75*
G03X03693I00020J0D01*
G74*G01*
X04213D02*
D01*
D01*
G75*
G03X04173I-00020J0D01*
G74*G01*
D01*
G75*
G03X04213I00020J0D01*
G74*G01*
X01704Y03224D02*
D01*
D01*
G75*
G03X01664I-00020J0D01*
G74*G01*
D01*
G75*
G03X01704I00020J0D01*
G74*G01*
X02224D02*
D01*
D01*
G75*
G03X02184I-00020J0D01*
G74*G01*
D01*
G75*
G03X02224I00020J0D01*
G74*G01*
X03693D02*
D01*
D01*
G75*
G03X03653I-00020J0D01*
G74*G01*
D01*
G75*
G03X03693I00020J0D01*
G74*G01*
X04213D02*
D01*
D01*
G75*
G03X04173I-00020J0D01*
G74*G01*
D01*
G75*
G03X04213I00020J0D01*
G74*G01*
M02*