G04*
G04 #@! TF.GenerationSoftware,Altium Limited,Altium Designer,23.1.1 (15)*
G04*
G04 Layer_Color=255*
%FSLAX44Y44*%
%MOMM*%
G71*
G04*
G04 #@! TF.SameCoordinates,FE5ED9A9-07CB-4C5F-963A-3420CF118FF3*
G04*
G04*
G04 #@! TF.FilePolarity,Positive*
G04*
G01*
G75*
%ADD13R,3.9600X3.9600*%
G04:AMPARAMS|DCode=14|XSize=0.7mm|YSize=1.5mm|CornerRadius=0mm|HoleSize=0mm|Usage=FLASHONLY|Rotation=233.000|XOffset=0mm|YOffset=0mm|HoleType=Round|Shape=Rectangle|*
%AMROTATEDRECTD14*
4,1,4,-0.3883,0.7309,0.8096,-0.1718,0.3883,-0.7309,-0.8096,0.1718,-0.3883,0.7309,0.0*
%
%ADD14ROTATEDRECTD14*%

G04:AMPARAMS|DCode=15|XSize=1mm|YSize=0.8mm|CornerRadius=0mm|HoleSize=0mm|Usage=FLASHONLY|Rotation=233.000|XOffset=0mm|YOffset=0mm|HoleType=Round|Shape=Rectangle|*
%AMROTATEDRECTD15*
4,1,4,-0.0186,0.6401,0.6204,0.1586,0.0186,-0.6401,-0.6204,-0.1586,-0.0186,0.6401,0.0*
%
%ADD15ROTATEDRECTD15*%

%ADD16R,0.9621X0.9350*%
%ADD17R,2.0000X4.0000*%
%ADD18P,1.6971X4X360.0*%
%ADD19P,1.6971X4X90.0*%
%ADD20R,0.9350X0.9621*%
%ADD25C,0.9000*%
%ADD29C,2.3500*%
%ADD30R,2.3500X2.3500*%
D13*
X240000Y60000D02*
D03*
D14*
X90435Y31499D02*
D03*
X81408Y19519D02*
D03*
X108490Y55458D02*
D03*
D15*
X110646Y71363D02*
D03*
X66713Y13063D02*
D03*
X95232Y82978D02*
D03*
X51300Y24678D02*
D03*
D16*
X437500Y189654D02*
D03*
Y175346D02*
D03*
X275000Y342154D02*
D03*
Y327846D02*
D03*
X182351Y218730D02*
D03*
Y204422D02*
D03*
X77500Y297846D02*
D03*
Y312154D02*
D03*
X350000Y452154D02*
D03*
Y437846D02*
D03*
D17*
X255000Y205000D02*
D03*
Y255800D02*
D03*
X225000Y205000D02*
D03*
Y255800D02*
D03*
X465000Y275800D02*
D03*
Y225000D02*
D03*
X15000Y229200D02*
D03*
Y280000D02*
D03*
D18*
X324849Y435151D02*
D03*
X310000Y450000D02*
D03*
Y340000D02*
D03*
X295151Y354849D02*
D03*
X427425Y22575D02*
D03*
X412575Y37425D02*
D03*
X424849Y140151D02*
D03*
X410000Y155000D02*
D03*
D19*
X152425Y237425D02*
D03*
X137575Y222575D02*
D03*
X85075Y257575D02*
D03*
X99925Y272425D02*
D03*
D20*
X382154Y35000D02*
D03*
X367846D02*
D03*
D25*
X90000Y60000D02*
D03*
X71946Y36041D02*
D03*
D29*
X173950Y60000D02*
D03*
D30*
X306050D02*
D03*
M02*
