G04*
G04 #@! TF.GenerationSoftware,Altium Limited,Altium Designer,23.1.1 (15)*
G04*
G04 Layer_Color=65535*
%FSLAX44Y44*%
%MOMM*%
G71*
G04*
G04 #@! TF.SameCoordinates,FE5ED9A9-07CB-4C5F-963A-3420CF118FF3*
G04*
G04*
G04 #@! TF.FilePolarity,Positive*
G04*
G01*
G75*
%ADD10C,0.2500*%
%ADD11C,1.0000*%
%ADD12C,0.0001*%
D10*
X324550Y60000D02*
G03*
X324550Y60000I-1250J0D01*
G01*
X120322Y47484D02*
G03*
X120322Y47484I-1250J0D01*
G01*
X302941Y458308D02*
G03*
X302941Y458308I-1250J0D01*
G01*
X288092Y363158D02*
G03*
X288092Y363158I-1250J0D01*
G01*
X130517Y214267D02*
G03*
X130517Y214267I-1250J0D01*
G01*
X405517Y45733D02*
G03*
X405517Y45733I-1250J0D01*
G01*
X109483Y280733D02*
G03*
X109483Y280733I-1250J0D01*
G01*
X402942Y163309D02*
G03*
X402942Y163309I-1250J0D01*
G01*
D11*
X102674Y316350D02*
X145074Y372110D01*
X174372Y410507D02*
X227000Y480000D01*
X70000Y187000D02*
X73000Y182000D01*
X76168Y182721D01*
X121582Y181299D01*
X62000Y180000D02*
X121582Y181299D01*
X62000Y180000D02*
X64000Y183000D01*
X72232Y195722D01*
X99000Y306000D02*
X103000Y300000D01*
X91000Y299000D02*
X141945Y300291D01*
X91000Y299000D02*
X93000Y303000D01*
X102251Y315794D01*
X392000Y182000D02*
X408511Y187583D01*
X392000Y182000D02*
X418000Y181000D01*
X417000Y183000D02*
X418000Y181000D01*
X405000Y203000D02*
X417000Y183000D01*
X374449Y302057D02*
X377764Y304565D01*
X378705Y305599D02*
X384163Y309675D01*
X378326Y317350D02*
X390000Y302000D01*
X339055Y301291D02*
X390000Y302000D01*
X253000Y480000D02*
X305628Y410507D01*
X335926Y373110D02*
X378326Y317350D01*
X339055Y301291D02*
X405000Y203000D01*
X359418Y182299D02*
X395000Y182000D01*
X359418Y182299D02*
X480000Y20000D01*
Y480000D01*
X253000D02*
X480000D01*
X40000D02*
X227000D01*
X40000Y330000D02*
Y480000D01*
X0Y330000D02*
X40000D01*
X0Y16000D02*
Y330000D01*
Y16000D02*
X121582Y181299D01*
X72985Y196852D02*
X141945Y300291D01*
X147757Y199074D02*
X154000Y194000D01*
X330001Y195221D02*
X334882Y201168D01*
X12500Y0D02*
X467500D01*
X319000Y203000D02*
X380999Y202307D01*
X319000Y203000D02*
X322000Y199000D01*
X334000Y183000D01*
X157000Y201000D02*
X159000D01*
X161000D01*
X147500Y182500D02*
X161000Y201000D01*
X100001Y201307D02*
X159000Y201000D01*
X168961Y304746D02*
X177500Y320000D01*
X130811Y320299D02*
X177500Y320000D01*
X302500D02*
X311631Y306359D01*
X302500Y320000D02*
X350189Y321299D01*
X12500Y0D02*
X147500Y182500D01*
X100001Y201307D02*
X168961Y304746D01*
X312039Y305746D02*
X380999Y202307D01*
X332500Y185000D02*
X467500Y0D01*
X320000Y360000D02*
X350189Y321299D01*
X130811Y320299D02*
X161247Y360324D01*
X190407Y398679D02*
X240030Y463571D01*
X291095Y397584D01*
D12*
X173950Y97430D02*
X204300Y127300D01*
X275700D02*
X306050Y97430D01*
Y75750D02*
Y97430D01*
X204300Y127300D02*
X275700D01*
X173950Y6600D02*
X306050D01*
Y44250D01*
X173950Y75750D02*
Y97430D01*
Y6600D02*
Y44250D01*
X91205Y39997D02*
X100533Y52376D01*
X82177Y28018D02*
X82478Y28417D01*
X38450Y38117D02*
X46916Y31738D01*
X59295Y22410D02*
X62329Y20123D01*
X38450Y38117D02*
X78772Y91626D01*
X87237Y85246D01*
X99616Y75918D02*
X102651Y73631D01*
X359500Y437500D02*
Y452500D01*
X341000Y437500D02*
Y452500D01*
X428000Y175000D02*
Y190000D01*
X446500Y175000D02*
Y190000D01*
X302045Y361744D02*
X316894Y346894D01*
X144470Y215681D02*
X159319Y230530D01*
X130681Y229470D02*
X145530Y244319D01*
X405681Y30530D02*
X420530Y15681D01*
X419470Y44319D02*
X434319Y29470D01*
X244840Y179600D02*
X270240D01*
Y281200D01*
X244840D02*
X270240D01*
X209760Y179600D02*
X235160D01*
X209760D02*
Y281200D01*
X235160D01*
X284500Y327500D02*
Y342500D01*
X266000Y327500D02*
Y342500D01*
X191851Y204076D02*
Y219076D01*
X173351Y204076D02*
Y219076D01*
X367500Y25500D02*
X382500D01*
X367500Y44000D02*
X382500D01*
X78181Y264470D02*
X93030Y279319D01*
X91970Y250681D02*
X106819Y265530D01*
X403106Y148106D02*
X417955Y133257D01*
X416894Y161894D02*
X431744Y147045D01*
X4840Y305400D02*
X30240D01*
Y203800D02*
Y305400D01*
X4840Y203800D02*
X30240D01*
X449760Y301200D02*
X475160D01*
X449760Y199600D02*
Y301200D01*
Y199600D02*
X475160D01*
X68000Y297500D02*
Y312500D01*
X86500Y297500D02*
Y312500D01*
X40000Y330000D02*
Y480000D01*
X0Y330000D02*
X40000D01*
X303106Y443106D02*
X317955Y428256D01*
X316894Y456894D02*
X331744Y442045D01*
X288256Y347955D02*
X303106Y333106D01*
M02*
