M48
;Layer_Color=9474304
;FILE_FORMAT=2:4
INCH,TZ
;TYPE=PLATED
T1F00S00C0.0138
T2F00S00C0.0280
T3F00S00C0.0728
%
T01
X33542Y36176
X33722Y36416
X33912Y36646
X34082Y36876
X34252Y37106
X34772Y36714
X34592Y36484
X34422Y36254
X34252Y36024
X34062Y35804
X39771Y35948
X39601Y36178
X39431Y36408
X39251Y36638
X40131Y36679
X39961Y36909
X39791Y37139
X40321Y36449
X40501Y36209
X39961Y35728
T02
X35335Y28051
X38681
X45866Y26280
X28248Y28445
X29921Y35728
X35335Y32480
X38681Y32579
X45669Y33760
T03
X34407Y23622
X39608
M30
