M48
;Layer_Color=9474304
;FILE_FORMAT=2:4
INCH,TZ
;TYPE=PLATED
T1F00S00C0.0138
T2F00S00C0.0280
T3F00S00C0.0728
;TYPE=NON_PLATED
T4F00S00C0.0354
%
T01
X5983Y14916
X6163Y15156
X6353Y15386
X6523Y15616
X6693Y15846
X7213Y15454
X7033Y15224
X6863Y14994
X6693Y14764
X6503Y14544
X12212Y14689
X12042Y14919
X11872Y15149
X11692Y15379
X12572Y15420
X12402Y15650
X12232Y15880
X12762Y15190
X12942Y14950
X12402Y14468
T02
X7776Y6791
X11122
X18307Y5020
X689Y7185
X2362Y14468
X7776Y11220
X11122Y11319
X18110Y12500
T03
X6848Y2362
X12049
T04
X2833Y1419
X3543Y2362
M30
